<svg width="23" height="23" viewBox="0 0 23 23" fill="none" xmlns="http://www.w3.org/2000/svg">
<path d="M21.7766 5.10833C21.6866 4.50681 21.3841 3.95743 20.9239 3.55979C20.4636 3.16214 19.8762 2.94255 19.268 2.94083H3.64729C3.03908 2.94255 2.45161 3.16214 1.99139 3.55979C1.53117 3.95743 1.22865 4.50681 1.13867 5.10833L11.4576 11.7855L21.7766 5.10833Z" fill="#717579"/>
<path d="M11.8327 13.1879C11.721 13.2602 11.5908 13.2986 11.4577 13.2986C11.3247 13.2986 11.1945 13.2602 11.0828 13.1879L1.1001 6.72893V16.9657C1.10083 17.6411 1.36944 18.2886 1.84699 18.7661C2.32454 19.2437 2.97202 19.5123 3.64738 19.513H19.2681C19.9434 19.5123 20.5909 19.2437 21.0685 18.7661C21.546 18.2886 21.8146 17.6411 21.8153 16.9657V6.72824L11.8327 13.1879Z" fill="#717579"/>
</svg>
