<svg width="18" height="18" viewBox="0 0 18 18" fill="none" xmlns="http://www.w3.org/2000/svg">
<path d="M14.1527 3.72144H13.4414V2.29875C13.4414 2.11009 13.3664 1.92915 13.233 1.79575C13.0996 1.66235 12.9187 1.5874 12.73 1.5874C12.5414 1.5874 12.3604 1.66235 12.227 1.79575C12.0936 1.92915 12.0187 2.11009 12.0187 2.29875V3.72144H6.3279V2.29875C6.3279 2.11009 6.25295 1.92915 6.11955 1.79575C5.98614 1.66235 5.80521 1.5874 5.61655 1.5874C5.42789 1.5874 5.24695 1.66235 5.11355 1.79575C4.98015 1.92915 4.9052 2.11009 4.9052 2.29875V3.72144H4.19386C3.62787 3.72144 3.08507 3.94628 2.68486 4.34649C2.28465 4.7467 2.05981 5.2895 2.05981 5.85548V6.56683H16.2868V5.85548C16.2868 5.2895 16.0619 4.7467 15.6617 4.34649C15.2615 3.94628 14.7187 3.72144 14.1527 3.72144Z" fill="#3AAFA9"/>
<path d="M2.05981 13.6803C2.05981 14.2462 2.28465 14.7891 2.68486 15.1893C3.08507 15.5895 3.62787 15.8143 4.19386 15.8143H14.1527C14.7187 15.8143 15.2615 15.5895 15.6617 15.1893C16.0619 14.7891 16.2868 14.2462 16.2868 13.6803V7.9895H2.05981V13.6803Z" fill="#3AAFA9"/>
</svg>
