<svg width="15" height="16" viewBox="0 0 15 16" fill="none" xmlns="http://www.w3.org/2000/svg">
<g clip-path="url(#clip0)">
<path d="M9.75803 9.84016L9.1574 10.4408C9.11862 10.4813 9.07199 10.5134 9.02035 10.5353C8.96871 10.5571 8.91316 10.5682 8.85709 10.5678C8.74413 10.5668 8.63615 10.5212 8.55678 10.4408L6.85885 8.71977C6.81958 8.68027 6.78848 8.63342 6.76734 8.58188C6.7462 8.53035 6.73543 8.47515 6.73565 8.41945V4.42684C6.73565 4.31451 6.78027 4.20679 6.85969 4.12737C6.93912 4.04794 7.04684 4.00332 7.15917 4.00332H8.0062C8.11821 4.00432 8.22536 4.04927 8.30456 4.12848C8.38377 4.20768 8.42872 4.31483 8.42972 4.42684V7.71873C8.4295 7.77443 8.44027 7.82962 8.46141 7.88115C8.48255 7.93269 8.51365 7.97954 8.55293 8.01904L9.77728 9.24339C9.85354 9.32524 9.89431 9.43394 9.89071 9.54575C9.8871 9.65756 9.8394 9.7634 9.75803 9.84016ZM7.56343 1.0387C6.23692 1.0387 4.94019 1.43205 3.83723 2.16903C2.73427 2.906 1.87462 3.95349 1.36699 5.17903C0.859351 6.40457 0.726531 7.75312 0.985321 9.05414C1.24411 10.3552 1.88289 11.5502 2.82088 12.4882C3.75887 13.4262 4.95394 14.065 6.25497 14.3238C7.55599 14.5826 8.90454 14.4498 10.1301 13.9421C11.3556 13.4345 12.4031 12.5748 13.1401 11.4719C13.8771 10.3689 14.2704 9.07219 14.2704 7.74568C14.2704 5.96687 13.5638 4.26093 12.306 3.00313C11.0482 1.74532 9.34224 1.0387 7.56343 1.0387Z" fill="#3AAFA9"/>
</g>
<defs>
<clipPath id="clip0">
<rect width="14.6334" height="14.6334" fill="white" transform="translate(0.246826 0.428955)"/>
</clipPath>
</defs>
</svg>
