<svg width="45" height="45" viewBox="0 0 45 45" fill="none" xmlns="http://www.w3.org/2000/svg">
<mask id="path-1-inside-1" fill="white">
<path d="M42.9979 22.5546C43.8364 22.5546 44.5215 23.2351 44.4644 24.0717C44.1807 28.2244 42.737 32.2256 40.2831 35.6128C37.5316 39.4109 33.6507 42.2428 29.1942 43.7043C24.7377 45.1658 19.9334 45.1823 15.467 43.7513C11.0006 42.3204 7.10038 39.5152 4.3229 35.736C1.54542 31.9569 0.0326586 27.397 0.000522514 22.7071C-0.0316135 18.0172 1.41851 13.4369 4.14395 9.6201C6.86938 5.80326 10.7308 2.94485 15.1772 1.45283C19.1425 0.122229 23.3924 -0.0609925 27.4403 0.908167C28.2558 1.1034 28.7008 1.96047 28.4504 2.7607C28.2001 3.56093 27.3492 4.00044 26.5318 3.814C23.0967 3.03062 19.5018 3.20448 16.1432 4.33149C12.3034 5.61997 8.96868 8.08844 6.61504 11.3846C4.26141 14.6808 3.0091 18.6361 3.03685 22.6863C3.06461 26.7364 4.371 30.6742 6.76958 33.9378C9.16816 37.2014 12.5364 39.624 16.3935 40.8597C20.2505 42.0954 24.3994 42.0812 28.248 40.8191C32.0965 39.557 35.448 37.1114 37.8242 33.8314C39.9026 30.9625 41.1419 27.5835 41.4198 24.0712C41.486 23.2353 42.1594 22.5546 42.9979 22.5546Z"/>
</mask>
<path d="M42.9979 22.5546C43.8364 22.5546 44.5215 23.2351 44.4644 24.0717C44.1807 28.2244 42.737 32.2256 40.2831 35.6128C37.5316 39.4109 33.6507 42.2428 29.1942 43.7043C24.7377 45.1658 19.9334 45.1823 15.467 43.7513C11.0006 42.3204 7.10038 39.5152 4.3229 35.736C1.54542 31.9569 0.0326586 27.397 0.000522514 22.7071C-0.0316135 18.0172 1.41851 13.4369 4.14395 9.6201C6.86938 5.80326 10.7308 2.94485 15.1772 1.45283C19.1425 0.122229 23.3924 -0.0609925 27.4403 0.908167C28.2558 1.1034 28.7008 1.96047 28.4504 2.7607C28.2001 3.56093 27.3492 4.00044 26.5318 3.814C23.0967 3.03062 19.5018 3.20448 16.1432 4.33149C12.3034 5.61997 8.96868 8.08844 6.61504 11.3846C4.26141 14.6808 3.0091 18.6361 3.03685 22.6863C3.06461 26.7364 4.371 30.6742 6.76958 33.9378C9.16816 37.2014 12.5364 39.624 16.3935 40.8597C20.2505 42.0954 24.3994 42.0812 28.248 40.8191C32.0965 39.557 35.448 37.1114 37.8242 33.8314C39.9026 30.9625 41.1419 27.5835 41.4198 24.0712C41.486 23.2353 42.1594 22.5546 42.9979 22.5546Z" stroke="#3AAFA9" stroke-width="4" mask="url(#path-1-inside-1)"/>
</svg>
