<svg width="20" height="20" viewBox="0 0 20 20" fill="none" xmlns="http://www.w3.org/2000/svg">
<path d="M18.9572 4.457C18.8804 3.94384 18.6223 3.47517 18.2297 3.13594C17.8371 2.79671 17.3359 2.60938 16.8171 2.60791H3.49116C2.9723 2.60938 2.47114 2.79671 2.07852 3.13594C1.68591 3.47517 1.42783 3.94384 1.35107 4.457L10.1541 10.1533L18.9572 4.457Z" fill="#3AAFA9"/>
<path d="M10.4738 11.3496C10.3785 11.4112 10.2674 11.444 10.1539 11.444C10.0404 11.444 9.92934 11.4112 9.83404 11.3496L1.31787 5.83946V14.5724C1.31849 15.1485 1.54764 15.7009 1.95504 16.1083C2.36243 16.5157 2.9148 16.7449 3.49095 16.7455H16.8169C17.393 16.7449 17.9454 16.5157 18.3528 16.1083C18.7602 15.7009 18.9893 15.1485 18.9899 14.5724V5.83887L10.4738 11.3496Z" fill="#3AAFA9"/>
</svg>
