<svg xmlns="http://www.w3.org/2000/svg" viewBox="0 0 1020 500"><title>ENABLE UPDATED</title><g id="Layer_3" data-name="Layer 3"><rect x="0.42" width="1019.15" height="500" fill="#3aafa9"/></g><g id="OBJECTS"><path d="M276.6,207.08h55.2a12.36,12.36,0,0,1,12.36,12.37v25.72a12.36,12.36,0,0,1-12.36,12.37h-.41l4.43,14.84a.71.71,0,0,1-1.11.76l-20.44-15.6H276.6a12.36,12.36,0,0,1-12.36-12.37V219.45A12.36,12.36,0,0,1,276.6,207.08Z" fill="#fff"/><path d="M331.77,228.68h-53a6.12,6.12,0,0,1-6.12-6.12h0a6.13,6.13,0,0,1,6.12-6.13h53a6.13,6.13,0,0,1,6.12,6.13h0A6.12,6.12,0,0,1,331.77,228.68Z" fill="#3aafa9"/><path d="M331.77,247.38h-53a6.12,6.12,0,0,1-6.12-6.12h0a6.12,6.12,0,0,1,6.12-6.13h53a6.12,6.12,0,0,1,6.12,6.13h0A6.12,6.12,0,0,1,331.77,247.38Z" fill="#3aafa9"/><path d="M614.36,137.63H554.17a13.49,13.49,0,0,0-13.49,13.49v28.06a13.49,13.49,0,0,0,13.49,13.49h.45l-4.83,16.18a.77.77,0,0,0,1.2.83l22.3-17h41.07a13.49,13.49,0,0,0,13.49-13.49V151.12A13.49,13.49,0,0,0,614.36,137.63Z" fill="#fff"/><rect x="547.81" y="149.1" width="71.49" height="12.25" rx="5.73" fill="#3aafa9"/><rect x="549.77" y="167.61" width="40.62" height="12.25" rx="5.73" fill="#3aafa9"/><path d="M212.7,345.52a13.19,13.19,0,0,1,8.21-2.59c6.9,0,10.55,3.75,10.55,9,0,3-1.47,6.13-4.46,9.22-3.8,4-6.54,6-8.27,6a2.86,2.86,0,0,1-2.89-2.89c0-1.42,1.32-2.84,3.6-4.92a3.47,3.47,0,0,1,.41-.36c2.59-2.38,3.4-3.7,3.4-5.32,0-2-1.37-3.14-3.35-3.14a10.68,10.68,0,0,0-3.24.61,10.55,10.55,0,0,1-2.74.6,3.15,3.15,0,0,1-3-3.24A3.82,3.82,0,0,1,212.7,345.52Zm7,33.82a5,5,0,0,1-5.17-5.18,5,5,0,0,1,5.17-4.76,4.86,4.86,0,0,1,4.76,4.76A4.92,4.92,0,0,1,219.65,379.34Z" fill="#fff"/><path d="M626.9,231.75a8.72,8.72,0,0,1,5.4-1.7c4.54,0,6.94,2.47,6.94,5.93,0,2-1,4-2.94,6.07-2.5,2.64-4.3,3.94-5.43,3.94a1.88,1.88,0,0,1-1.9-1.9c0-.94.87-1.87,2.37-3.24a1.51,1.51,0,0,1,.26-.23c1.7-1.57,2.24-2.44,2.24-3.5a2,2,0,0,0-2.2-2.07,7.11,7.11,0,0,0-2.14.4,6.66,6.66,0,0,1-1.8.4,2.08,2.08,0,0,1-2-2.13A2.53,2.53,0,0,1,626.9,231.75ZM631.47,254a3.31,3.31,0,0,1-3.4-3.4,3.27,3.27,0,0,1,3.4-3.14,3.2,3.2,0,0,1,3.13,3.14A3.24,3.24,0,0,1,631.47,254Z" fill="#fff"/><path d="M733.27,240.74H670a2,2,0,0,1-2-2V184.22a2,2,0,1,1,4,0v52.46h61.28a2,2,0,0,1,0,4.06Z" fill="#fff"/><path d="M674.76,227.42A2,2,0,0,1,673.3,224l20.46-21.16a2,2,0,0,1,2.56-.3L706,208.8,716.2,197a2,2,0,1,1,3.07,2.64l-11.35,13.2a2,2,0,0,1-2.64.37l-9.76-6.33-19.3,20A2,2,0,0,1,674.76,227.42Z" fill="#fff"/><polygon points="719.32 205.63 716.43 199.79 710.22 197.8 724.05 190.93 719.32 205.63" fill="#fff"/><path d="M301.35,157.37a12.27,12.27,0,1,1,12.26-12.26A12.28,12.28,0,0,1,301.35,157.37Zm0-21.15a8.89,8.89,0,1,0,8.88,8.89A8.9,8.9,0,0,0,301.35,136.22Z" fill="#fff"/><path d="M675.45,255a9,9,0,1,1,9-9A9,9,0,0,1,675.45,255Zm0-15.49A6.51,6.51,0,1,0,682,246,6.51,6.51,0,0,0,675.45,239.48Z" fill="#dde8fd"/><path d="M203.92,304.21a8.07,8.07,0,1,1,8.07-8.07A8.08,8.08,0,0,1,203.92,304.21Zm0-13.91a5.85,5.85,0,1,0,5.85,5.84A5.85,5.85,0,0,0,203.92,290.3Z" fill="#fff"/><path d="M636.24,121.6a4.39,4.39,0,1,1-4.39-4.39A4.4,4.4,0,0,1,636.24,121.6Z" fill="#fff"/><path d="M251.66,202.84a8.63,8.63,0,1,1-8.63-8.63A8.63,8.63,0,0,1,251.66,202.84Z" fill="#fff"/><path d="M596.88,107.55a6.49,6.49,0,1,1-6.49-6.49A6.5,6.5,0,0,1,596.88,107.55Z" fill="#fff"/><path d="M694.19,260.32a5.54,5.54,0,1,1-5.53-5.53A5.53,5.53,0,0,1,694.19,260.32Z" fill="#fff"/><path d="M646.27,138.13a6.9,6.9,0,1,1-6.9-6.91A6.9,6.9,0,0,1,646.27,138.13Z" fill="#fff"/><path d="M328.84,125.59a7,7,0,1,1-7-7A7,7,0,0,1,328.84,125.59Z" fill="#fff"/><path d="M805.16,456.68H221.62c-1.9,0-3.45-1.1-3.45-2.45h0c0-1.35,1.55-2.45,3.45-2.45H805.16c1.9,0,3.45,1.1,3.45,2.45h0C808.61,455.58,807.06,456.68,805.16,456.68Z" fill="#060534"/><polygon id="v-2" points="382.6 242.31 382.61 242.31 388.97 242.33 390.41 257.35 382.98 261.27 375.06 257.4 376.35 242.33 382.6 242.31" fill="#def2f1"/><path d="M365.12,235.68c3.92,9.78,13.32,15.22,21,12.14s10.74-13.5,6.83-23.28-13.32-15.22-21-12.14S361.21,225.89,365.12,235.68Z" fill="#fff"/><path d="M359.78,228.37c-3.31-9.43,4.75-14.85,4.75-14.85s-2.16-.19-2.42-3.23a7.94,7.94,0,0,0,5-.11c10.75-3.89,18.16-3.84,18.16.76,0,1.64,7.1.52,6.5,11.53,0-.78-2.49-5.3-4.89-5.76s-.24,2.76-5.25,3.44-8.77-.53-11.86,2.32c-2.41,2.49-3,15.14-2.64,15.9C366.31,236.63,361.23,232.51,359.78,228.37Z" fill="#17252a"/><path d="M394.43,230.05s.46,5.74-.37,7.51c-.86-2.3-2.71.14-4.45.37-4.2.56-11.77-.84-12.52,5.45C372,245,367.16,234,367.16,234c-.3,12.26,8.68,19.23,21.6,17.19C397.27,249.87,398.06,238,394.43,230.05Z" fill="#17252a"/><path d="M367,234.11c2.16,1.21,3.11,3.63,2.12,5.4s-3.55,2.21-5.71,1-3.11-3.63-2.12-5.4S364.87,232.89,367,234.11Z" fill="#fff"/><path d="M390,442.94c1.35-3.67,4.25-4.08,4.25-4.08,5.62,7.76,19.43,3,19,13.49-21-.13-29.74,0-29.74,0a78.06,78.06,0,0,1,.93-10.37l1.1.2Z" fill="#17252a"/><path d="M358.54,443.14c1.35-3.67,4.24-4.08,4.24-4.08,5.63,7.76,19.44,3,19,13.49-21-.13-29.73,0-29.73,0a76.42,76.42,0,0,1,.93-10.37l1.09.2Z"/><path d="M403.93,320.39s3.41,49.73,2,60.79-6.29,25.23-5.73,61.81c-6.85,1.71-16.77,0-16.77,0s-1.47-41.36,5.77-59.83c-2.94-17.94-12.39-59-12.39-59Z" fill="#17252a"/><path d="M391,321.75s-6.89,55.83-10.26,66.42-9.94,19.55-16,55.58c-7,.35-13.59,0-13.59,0s.95-45.7,11.91-56.1c.37-18.19-1.77-65.54-1.77-65.54Z" fill="#17252a"/><path id="h-5" d="M359.23,258.38s12-4.19,15.94-2.27c12.4,6,15.24,0,15.24,0,4,.34,15.91,2.27,15.91,2.27,0,13.35.89,26.74.65,36.84-.17,8.8,1.51,32.74,1.51,32.74s-13.19,3.46-25.66,3.55a117.12,117.12,0,0,1-25.17-3.41s.67-24.25,1.22-33.26C358.69,284.74,359.23,271.69,359.23,258.38Z" fill="#2b7a78"/><path id="c" d="M427.58,278.22C422.64,266.44,408,259,406.32,258.38l-3.4,15.12a88.6,88.6,0,0,1,12.15,8.66c-.87,4.21-.72,8.34-3.16,13.66,0,0,2.12-2.92,4.73-1.19s7.21-1.75,7.21-1.75S431.35,287.21,427.58,278.22Z" fill="#3e8c88"/><path d="M521,438.55c-5,6.64-17.45,3.7-17,12.69,18.6-.11,26.71.05,26.71.05a112.27,112.27,0,0,0-1-11.71Z" fill="#17252a"/><path d="M553.2,438.55c5,6.64,17.44,3.7,17,12.69-18.61-.11-26.71.05-26.71.05a109.62,109.62,0,0,1,1-11.71Z" fill="#17252a"/><path d="M509.93,257.22s-15.12,8.2-24.76,15.79L480,288.82c10.06-1.2,35-12.11,35-12.11Z" fill="#17252a"/><path d="M477,240.15c.47,2.41.45,5,3.33,6.5,0,0-1.13,7.78-1.36,14.22l7.94-7.53a43,43,0,0,1,.55-10.27c.16-.71.37-1.42.54-2.13.47-1.73,1.14-3.48.26-5.68-3.41-8.54-1.79-11.11-2.32-11.56-.89-.48-3.21,1-2.33,5.09s.39,5.88.39,5.88-3.07-.87-4.27.13C479.13,235.25,476.41,237.33,477,240.15Z" fill="#fff"/><path d="M478,248.07l10,1.49,4.87,28.23-12.95,11C477.15,283.29,474.73,260.36,478,248.07Z" fill="#17252a"/><path d="M556,318.08a164,164,0,0,1-38.87.09l-3,64.11s1.66,42.41,3.9,57.29l14.08,0c-.92-17.31,1.75-57.31,1.75-57.31l2.81-36.57,2.82,36.56s2.78,40,1.93,57.3l14.68,0c2.17-14.89,3.1-57.3,3.1-57.3Z" fill="#17252a"/><path d="M560.63,257.44s8.63,17.41,13.86,28.51l-4.78,15.39c-8.47-5.57-22.27-28.7-22.27-28.7Z" fill="#17252a"/><polygon points="543.57 253.27 526.04 254.05 524.27 271.2 526.18 320.13 544.67 319.9 549.5 265.12 543.57 253.27" fill="#3aafa9"/><path d="M524.34,226.86c2.44-2.81,4.37-.09,7.84-3.56s6.28-6,9.26-2.31,4.51,4.18,6.68,4,2.15,8.71,2.15,8.71,8.54-2.13,7.39-8.36c-1.27-6.9-4.41-4.93-6.16-10.52S543,206,539.86,207.38c-3.28,1.42-5,3-9.76,1.82s-8.87.24-8.86,6.42-7.26,4.34-4.93,12c.9,3,3.43,5.75,4.6,5.51C522.49,232.86,522.77,228.67,524.34,226.86Z" fill="#17252a"/><rect x="527.17" y="317.87" width="17.21" height="5.13" fill="#2b7a78"/><polygon points="528.91 257.58 535.01 262.41 541.2 257.58 542.02 245.8 528.09 245.8 528.91 257.58" fill="#def2f1"/><path d="M509.89,257.25l.32,76.64c6,4.89,17.66,6.23,17.66,6.23l-2.13-84.93Z" fill="#17252a"/><path d="M560.65,257.25l-.31,76.64c-6,4.89-17.67,6.23-17.67,6.23l2.13-84.93Z" fill="#17252a"/><polygon points="517.18 265.27 527.25 308.74 525.72 254.42 517.18 265.27" fill="#2b7a78"/><polygon points="553.9 262.26 543.57 309.24 544.8 255.19 553.9 262.26" fill="#2b7a78"/><path d="M536.42,215.05c-18-.42-13.87,23.79-12.56,27.59.71,2.08,5.27,10,12.61,10.15,7.33-.12,11.79-8.07,12.51-10.15C550.29,238.84,555,215.33,536.42,215.05Z" fill="#fff"/><polygon points="536.61 266.92 539.68 308.2 535.07 313.64 530.46 308.2 533.61 267.02 536.61 266.92" fill="#17252a"/><polygon points="538.29 262.48 535.23 261.68 532.09 262.62 533.6 267.1 536.62 267.05 538.29 262.48" fill="#17252a"/><path d="M535.07,261.68a15.27,15.27,0,0,1-5.63,4.66l-6.05-9.17,2.65-3.12Z" fill="#fff"/><path d="M535.07,261.68s2.94,3.43,5.8,4.46l5.47-9.9-2.58-3Z" fill="#fff"/><path d="M597,282.83l-2.39-9.19-23.39,10.23-1.46,17.47C575.88,300.74,588.32,292.18,597,282.83Z" fill="#17252a"/><path d="M542.63,244.7c.24-.39,0-1-.35-.92a25.9,25.9,0,0,1-4,.18,26.63,26.63,0,0,1-4-.52c-.37-.08-.63.47-.43.89.63,1.27,2,3.22,4.24,3.32S541.9,245.92,542.63,244.7Z" fill="#3aafa9"/><path d="M522.2,231.22c2,.68,2.61-13.85,10.5-8.59,5.56,3.71,15.81,4.63,13.74-.39a35.28,35.28,0,0,1,3.54,3.17l-2.93-9.69s-15.07-4.74-20.42.06S522.2,231.22,522.2,231.22Z" fill="#17252a"/><path d="M526,232.86c1.19,2.35.5,5.09-1.56,6.14s-4.68,0-5.88-2.35-.5-5.09,1.56-6.14S524.75,230.52,526,232.86Z" fill="#fff"/><polygon points="613.24 267.93 611.99 272.94 610.24 279.96 608.9 285.29 598.38 284.06 598.31 278.56 598.22 271.33 598.15 266.16 613.24 267.93" fill="#def2f1"/><polygon points="596.64 265.99 614.76 268.1 614.68 266.17 597.16 264.12 596.64 265.99" fill="#2b7a78"/><polygon points="613.3 266.01 598.55 264.29 599.06 262.48 613.21 264.13 613.3 266.01" fill="#2b7a78"/><polygon points="608.9 285.29 608.43 287.16 598.4 285.99 598.38 284.06 608.9 285.29" fill="#2b7a78"/><polygon points="611.99 272.94 610.24 279.96 598.31 278.56 598.22 271.33 611.99 272.94" fill="#2b7a78"/><path id="c-2" data-name="c" d="M608.45,279a1.31,1.31,0,0,1,.36-.17l0-.06c-.81-1.11-.81-2.49,0-3.06a1.2,1.2,0,0,1,.43-.2,1.88,1.88,0,0,1,.49-2.08,1.42,1.42,0,0,1,.78-.25A1.85,1.85,0,0,1,611,271a2.16,2.16,0,0,1,2.49,3.46,1.73,1.73,0,0,1-.68.27,2.09,2.09,0,0,1-.2,2.74,1.3,1.3,0,0,1-.43.2,1.84,1.84,0,0,1-.48,2.07,1.42,1.42,0,0,1-.72.25,1.58,1.58,0,0,1-.4,1.92,1.83,1.83,0,0,1-2.11-2.92Z" fill="#fff"/><path d="M598.39,275.5a4.45,4.45,0,0,0,2.28-3.06c.52-1.78,4.7-2.94,3.2-3.89s-6.11-.16-7.86,3.85a7.82,7.82,0,0,1-1.45,1.24l2.13,8.26,1.66-.36Z" fill="#fff"/><path id="c-3" data-name="c" d="M424.83,308a1.09,1.09,0,0,0,.26,0h.28a1.31,1.31,0,0,0,1.13-.93l13.16-42.43a.74.74,0,0,0,0-.25,1,1,0,0,0,0-.17v-.1a.29.29,0,0,1,0-.09,1.34,1.34,0,0,0-.92-1.06l-.25-.05H405.12L391.85,308h33Z" fill="#17252a"/><path id="c-4" data-name="c" d="M405.42,263a1.34,1.34,0,0,0-1.67.88L390.67,306.2l0,.1a1.34,1.34,0,0,0,.88,1.67h0a1.33,1.33,0,0,0,1.67-.88l13.11-42.42A1.33,1.33,0,0,0,405.42,263Z" fill="#3aafa9"/><path id="c-5" data-name="c" d="M430.45,289.92a1.44,1.44,0,0,1,.4-.18l-.05-.06c-.82-1.24-.77-2.73.13-3.32a1.52,1.52,0,0,1,.47-.2,2,2,0,0,1,.61-2.22,1.62,1.62,0,0,1,.86-.24,2,2,0,0,1,.65-2.32,2.34,2.34,0,0,1,2.55,3.84,1.7,1.7,0,0,1-.74.27,2.25,2.25,0,0,1-.33,2.95,1.26,1.26,0,0,1-.48.2,2,2,0,0,1-.61,2.22,1.36,1.36,0,0,1-.79.24,1.69,1.69,0,0,1-.52,2.06,2,2,0,0,1-2.15-3.24Z" fill="#fff"/><path d="M389.72,287.24l3-1.75a5.71,5.71,0,0,1,5.69-4.39l-1.36,4.39s2.39,1.85,8.05-1.32c5.53-1.25,3.17,2.79,5,3.08,2.71.43-2,5.74-7.49,6.56-7.15,1.05-8-.41-8-.41l-4.05,1.41Z" fill="#fff"/><path id="c-6" data-name="c" d="M361.78,291.81c10.09-.7,27.31-5.69,27.31-5.69,2.76,4.23,2,9.84,2,9.84-15.67,13.74-39.26,18.19-46.5,14.88-6.61-3-1.94-43.25,14.65-52.46h0C364.92,268,361.78,291.81,361.78,291.81Z" fill="#3e8c88"/><path id="с" d="M566.81,368.92H356.22c-5,0-9-2.7-9-6h0c0-3.33,4-6,9-6H566.81c5,0,9,2.7,9,6h0C575.78,366.22,571.76,368.92,566.81,368.92Z" fill="#def2f1"/><path d="M435.15,453.9h0a2.84,2.84,0,0,1-2.38-4.39l55.6-85.21,4.76,3.1-55.6,85.21A2.84,2.84,0,0,1,435.15,453.9Z" fill="#def2f1"/><path d="M487.88,453.9h0a2.84,2.84,0,0,0,2.38-4.39l-55.6-85.21-4.76,3.1,55.6,85.21A2.84,2.84,0,0,0,487.88,453.9Z" fill="#def2f1"/><path id="с-2" data-name="с" d="M345.17,452.55h0a2.72,2.72,0,0,0,2.72-2.72V401.6h-5.44v48.23A2.72,2.72,0,0,0,345.17,452.55Z" fill="#2b7a78"/><path id="с-3" data-name="с" d="M326.07,452.55h0a2.72,2.72,0,0,0,2.72-2.72V401.6h-5.45v48.23A2.72,2.72,0,0,0,326.07,452.55Z" fill="#2b7a78"/><path id="с-4" data-name="с" d="M301,452.55h0a2.72,2.72,0,0,0,2.72-2.72V401.6h-5.44v48.23A2.72,2.72,0,0,0,301,452.55Z" fill="#2b7a78"/><path id="с-5" data-name="с" d="M281.9,452.55h0a2.72,2.72,0,0,0,2.72-2.72V401.6h-5.44v48.23A2.72,2.72,0,0,0,281.9,452.55Z" fill="#2b7a78"/><path id="с-6" data-name="с" d="M312,330v57.39a1.18,1.18,0,0,0,1.18,1.19h35.59a6.5,6.5,0,0,1,6.5,6.5h0a6.5,6.5,0,0,1-6.5,6.5H305.52a6.5,6.5,0,0,1-6.5-6.5V330a6.5,6.5,0,0,1,6.5-6.5h0A6.5,6.5,0,0,1,312,330Z" fill="#3e8c88"/><rect id="с-7" data-name="с" x="277.38" y="323.52" width="28.14" height="66.14" transform="translate(582.9 713.17) rotate(180)" fill="#3e8c88"/><path id="с-8" data-name="с" d="M283.88,330v57.39a1.19,1.19,0,0,0,1.19,1.19h35.58a6.5,6.5,0,0,1,6.5,6.5h0a6.5,6.5,0,0,1-6.5,6.5H277.38a6.5,6.5,0,0,1-6.5-6.5V330a6.5,6.5,0,0,1,6.5-6.5h0A6.5,6.5,0,0,1,283.88,330Z" fill="#2b7a78"/><path d="M340.3,343.1c-2.57,1.71-1.86,11-.89,11.52,13.39,1.64,36-9.46,36-9.46l.89-5S357.42,343.37,340.3,343.1Z" fill="#fff"/><path d="M310.88,326.9c4.79,7.66,25.74,27.45,29,27.75l2.77-11.23s-18.81-23.84-22.12-27.65C314.8,309.17,303,314.42,310.88,326.9Z" fill="#fff"/><path d="M322.33,286c.58-7.84-1.69-14.77-7.94-18.29s-14.27-.07-14.27-.07h0s-6.72-2.39-12.8,4.32-1.49,12.6-4,17.49c-1.47,2.9-9,3.49-7,12.93.56,2.72,3.83,4.55,6.6,4.73,4.87.32,9.4-1.56,11.38.32,6.5,6.2,20.91,4,22.93-1.71.63-1.76,13.59,1.64,12.3-10.34C328.86,289.31,321.82,293,322.33,286Z" fill="#17252a"/><polygon points="310.45 311.33 300.16 309.43 296.3 314.57 304.5 331.39 316.57 321.15 310.45 311.33" fill="#def2f1"/><path d="M323.79,351.89c-.17-3.2,5-16.35,2.28-23-2-5.32-5.3-14.25-9.35-15.74-1.92-.71-3.88-1.2-6.27-1.86,0,0,1.35,6.71-1.46,6.93-5.39.44-8.83-8.83-8.83-8.83-2.91-.27-16.26,4.11-16.25,5.21,0,8.58,7,21.1,9.28,30.38.9,10-2.6,22-2.61,23.16,0,0,21.47,6,34.2-1C325,366.23,324,356.31,323.79,351.89Z" fill="#17252a"/><path d="M293.81,357.88s-4.74,12-5.89,19.48,5.36,12.36,5.36,12.36h54.24s5.81-9.42,4.14-15.92-5.52-7.54-5.52-7.54Z" fill="#17252a"/><path d="M348.25,365.93c-6.92-1-27,6.83-35.59,23.79h24Z" fill="#def2f1"/><path d="M340.66,372.17a19.69,19.69,0,0,0,2.42-3.44,6,6,0,0,1,9.64-1.13c10,11,31.31,36.14,36.06,39.27,1.34.88,9.18,5.39,16.62,4.5,0,0,3.68,1.4,1.23,4.32-1.26,1.5-20.18,3.05-20.18,3.05L385,413.19c-11-8.15-24.73-7.57-36.35-22.47C342.22,382.51,340.66,372.17,340.66,372.17Z" fill="#def2f1"/><path d="M390.28,422l7.61,4.94,1.05-1.25-6.18-5.76c3.51-2.76,11.64-.45,11.64-.45,2.66-1.72,7.85-7.3,8.38-10.29-1.7-2.12-7.38,2.25-7.38,2.25.21.94-1.58,4.22-3,4.78-6.2,1.34-12.38-.42-17.42-3C385,413.19,380.76,419.57,390.28,422Z" fill="#2b7a78"/><path d="M340.55,373.67a3.59,3.59,0,0,0-2.63,3c-.54,3.84-3.34,11.63.45,19.79,9.3,20,14.79,33.23,15.77,38.4-2.43,4.55,7.26,17,7.4,17.79l7-2.18s-4-5.95-5.44-8.28c-3.44-5.55-4-12.36-4.55-17.64-2.39-22.54,1.71-36.77-14.6-50A3.79,3.79,0,0,0,340.55,373.67Z" fill="#fff"/><path d="M350.67,444.35l.68,9,1.63.08.83-8.41c4.33,1.11,7.42,9,7.42,9,3,1.07,10.57,1.82,13.27.43.65-2.64-6.26-4.51-6.26-4.51-.63.74-4.32,1.3-5.63.51-4.83-4.12-7.45-10.1-8.47-15.66C354.14,434.82,346.78,435.34,350.67,444.35Z" fill="#2b7a78"/><path d="M307.85,302.93l-8.36-1.25.67,7.75s1.6,3.52,3.45,3.76l6.84-1.86Z" fill="#def2f1"/><path d="M291.76,291.71c2.15,9,9.64,14.94,16.72,13.25s11.07-10.38,8.91-19.39-9.65-14.94-16.72-13.25S289.6,282.7,291.76,291.71Z" fill="#fff"/><path d="M295.16,291.77c1.72,1.33,2.23,3.56,1.13,5s-3.37,1.46-5.09.12-2.23-3.56-1.13-5S293.44,290.43,295.16,291.77Z" fill="#fff"/><path d="M305.43,297.88a.38.38,0,0,1,.35-.61,26.82,26.82,0,0,0,7.16,0,.38.38,0,0,1,.34.61,4.74,4.74,0,0,1-7.85,0Z" fill="#3aafa9"/><path d="M291.58,290.91c8.45-1.13,20.27-9.74,21.24-14.15-1.63-5.31-10.34-8-15.26-5.52S288,284.24,291.58,290.91Z" fill="#17252a"/><path d="M370.61,354.8h0a2.15,2.15,0,0,1-1.37-2.7l13-40a2.14,2.14,0,0,1,2.7-1.37h0a2.13,2.13,0,0,1,1.37,2.7l-13,39.94A2.14,2.14,0,0,1,370.61,354.8Z" fill="#3aafa9"/><path d="M377.54,340.48l2.66-8.14s2.3,4.68,0,9.13-4.5,4.64-4.5,4.64Z" fill="#fff"/><path d="M373.75,338.3c-.68-1.58-2.26-5.53-.68-5.51s1.84,1.93,1.84,1.93Z" fill="#fff"/><path d="M243.11,314.51a5.91,5.91,0,0,0,1.24-7.32c2-.43,12.35,15.3,16.82,25.3,7.81-7.87,21.57-18.5,25.29-19.12,0,0,5-1.35,6.83,4.72,1.61,5.41-4.67,9.25-4.67,9.25s-26.86,19-30.83,17.28C251.61,342,246,319.43,243.11,314.51Z" fill="#fff"/><path d="M237.51,314.07c2.19.13,4.9-.95,5.74,1l4.33-2.11.26-2.6c-3.72-6-12.78-7.65-13.67-7.73-2.33-.2-3.41-.44-3.6-.13s-.75,2.38,2.63,2.79c4.25.51,1.43,3.9-7.18.67-2.16-.81-6.21.24-4.75,1.82C222.89,309.53,227.54,313.46,237.51,314.07Z" fill="#fff"/><path d="M471.82,192.8a17,17,0,0,1-1,5.7c-3.17,9.12-13.77,15.82-26.36,15.82s-23.19-6.7-26.37-15.82a17.28,17.28,0,0,1-1-5.7Z" fill="#2b7a78"/><path d="M471.82,192.8a17,17,0,0,1-1,5.7H418.12a17.28,17.28,0,0,1-1-5.7Z" fill="#17252a"/><path d="M501.74,100.57a57.25,57.25,0,1,0-102.5,35.08,71.64,71.64,0,0,1,15.19,43.93v.28h60.11v-.28a71.86,71.86,0,0,1,15.24-44A57,57,0,0,0,501.74,100.57Z" fill="#def2f1"/><path d="M453.15,173.38a1.61,1.61,0,0,1-.48-.08,1.46,1.46,0,0,1-.9-1.87c.06-.19,6.81-19.64,11.72-39.45,8.69-35.11,4.22-40.81,1.89-41.64-6.84-2.42-12.29,1.16-15.65,4.6a27.46,27.46,0,0,0-2.83,3.39,55.76,55.76,0,0,1,3.88,8.27c3,8.1,3.84,15.66,2.15,20.23a7.17,7.17,0,0,1-7.76,5c-3.5-.26-6.06-2.29-7.41-5.86-1.54-4.1-1.34-10.12.55-16.53a44,44,0,0,1,5.14-11.28,28.33,28.33,0,0,0-6.9-7.8c-3.76-2.74-7.3-2.86-10.51-.35-6.63,5.18-6.89,20.77-.74,45.08a322.11,322.11,0,0,0,11.77,36.24,1.46,1.46,0,0,1-2.71,1.09,324,324,0,0,1-11.89-36.59c-6.55-25.9-6-42.09,1.76-48.13,4.25-3.31,9.23-3.21,14,.3a30.46,30.46,0,0,1,7,7.62,28.42,28.42,0,0,1,2.4-2.77c5.6-5.72,12.25-7.6,18.72-5.31,4,1.43,5.68,6.85,5.05,16.59-.46,7.18-2.17,16.78-5.08,28.53-4.94,19.94-11.73,39.5-11.8,39.69A1.47,1.47,0,0,1,453.15,173.38Zm-8-72.32a42.11,42.11,0,0,0-4,9.25c-1.68,5.72-1.91,11.21-.61,14.67.94,2.49,2.54,3.79,4.89,4a4.27,4.27,0,0,0,4.8-3.13C452.13,120.55,449.77,109.78,445.11,101.06Z" fill="#fff"/><rect x="408.71" y="172.65" width="71.55" height="22.03" rx="10.65" fill="#2b7a78"/><path d="M541.75,102.93H523a4.83,4.83,0,0,1-4.83-4.83h0A4.82,4.82,0,0,1,523,93.28h18.72a4.82,4.82,0,0,1,4.82,4.82h0A4.82,4.82,0,0,1,541.75,102.93Z" fill="#def2f1"/><path d="M365.94,102.93H347.22a4.82,4.82,0,0,1-4.82-4.83h0a4.82,4.82,0,0,1,4.82-4.82h18.72a4.82,4.82,0,0,1,4.83,4.82h0A4.83,4.83,0,0,1,365.94,102.93Z" fill="#def2f1"/><path d="M377.84,63.32,362.94,52a4.82,4.82,0,0,1-.91-6.76h0a4.83,4.83,0,0,1,6.76-.92l14.89,11.33a4.83,4.83,0,0,1,.92,6.76h0A4.81,4.81,0,0,1,377.84,63.32Z" fill="#def2f1"/><path d="M510.18,63.32,525.07,52a4.82,4.82,0,0,0,.92-6.76h0a4.83,4.83,0,0,0-6.76-.92l-14.9,11.33a4.82,4.82,0,0,0-.91,6.76h0A4.81,4.81,0,0,0,510.18,63.32Z" fill="#def2f1"/><path d="M377.84,138.87l-14.9,11.33A4.82,4.82,0,0,0,362,157h0a4.82,4.82,0,0,0,6.76.92l14.89-11.33a4.83,4.83,0,0,0,.92-6.76h0A4.82,4.82,0,0,0,377.84,138.87Z" fill="#def2f1"/><path d="M510.18,138.87l14.89,11.33A4.82,4.82,0,0,1,526,157h0a4.82,4.82,0,0,1-6.76.92l-14.9-11.33a4.82,4.82,0,0,1-.91-6.76h0A4.82,4.82,0,0,1,510.18,138.87Z" fill="#def2f1"/><path id="Vector_25" data-name="Vector 25" d="M456.9,336.58a70.85,70.85,0,0,1-6-16.74c-1.5-7.36-1.43-16.15-1.25-20.85a1.08,1.08,0,0,1,2-.52c2.71,4.43,7.61,13.33,8.71,21.37a164.7,164.7,0,0,1,1.52,16.74Z" fill="#def2f1"/><path id="Vector_26" data-name="Vector 26" d="M461.4,336.58a133.59,133.59,0,0,1,6-16.56c2.3-4.81,7.52-10.58,10.2-13.37a.74.74,0,0,1,1.26.65c-.69,3.67-2.28,10.91-4.88,15.85a75.36,75.36,0,0,1-9.64,13.43Z" fill="#def2f1"/><path id="Vector_27" data-name="Vector 27" d="M446.64,327.77a1,1,0,0,1,1.22-1.41,17.2,17.2,0,0,1,5.91,3.42,12.22,12.22,0,0,1,3.8,6.24l-1.1.37S450.49,335.3,446.64,327.77Z" fill="#2b7a78"/><path id="Vector_28" data-name="Vector 28" d="M469.11,304.55a1.1,1.1,0,0,0-2-.57,41.32,41.32,0,0,0-7.24,16.8c-1.54,9.4.26,15.8.26,15.8h1.26s4.68-8.85,6.5-14.85C469.62,316.07,469.4,308.55,469.11,304.55Z" fill="#2b7a78"/><path id="Vector_29" data-name="Vector 29" d="M464.37,336.58s2.68-9,11.88-12.36a.65.65,0,0,1,.83.86c-1.21,3-4.66,10-10.5,11.49Z" fill="#2b7a78"/><path id="Vector_23" data-name="Vector 23" d="M472.51,335.06H451.22l2.73,21.8h15.82Z" fill="#17252a"/><path d="M449.62,352.11v3.13h.85a.75.75,0,0,1,.75.75v.13a.74.74,0,0,1-.75.74H414.16a.86.86,0,0,1-.87-.87v-4.5a.87.87,0,0,1,.87-.88h36.31a.75.75,0,0,1,.75.75h0a.74.74,0,0,1-.75.75Z" fill="#17252a"/><path d="M418.8,352.11h30.93a0,0,0,0,1,0,0v3.13a0,0,0,0,1,0,0H418.79a1.46,1.46,0,0,1-1.46-1.46v-.2a1.46,1.46,0,0,1,1.46-1.46Z" fill="#fff"/><path d="M410.08,345.35v3.47h-.86a.79.79,0,0,0-.74.83v.14a.78.78,0,0,0,.74.82h36.32a.92.92,0,0,0,.87-1v-5a.92.92,0,0,0-.87-1H409.22a.79.79,0,0,0-.74.83h0a.78.78,0,0,0,.74.82Z" fill="#2b7a78"/><path d="M411.59,345.35h30.78a0,0,0,0,1,0,0v3.46a0,0,0,0,1,0,0H411.59A1.62,1.62,0,0,1,410,347.2V347A1.62,1.62,0,0,1,411.59,345.35Z" transform="translate(852.34 694.17) rotate(180)" fill="#fff"/><rect x="411.43" y="334.87" width="35.76" height="5.62" rx="2.06" fill="#2b7a78"/><rect x="413.77" y="340.49" width="35.76" height="3.21" rx="1.5" fill="#17252a"/><path d="M664.82,206.46c-11.92-3.36-37.38,7.41-30.45,50.77s39.75,36.21,39.75,36.21,14.31-4.5,15.59-32S684.87,212.12,664.82,206.46Z" fill="#17252a"/><path d="M654.88,259.12s-2.4,24.72-22.9,37.43c-3.6-1-7-9.38-7-9.38l11.19-27.09s4-5.85,11.08-5.75C653.38,254.42,654.88,259.12,654.88,259.12Z" fill="#3e8c88"/><path d="M654.47,245.84l8.88-1.33-.71,8.25s-4.5,8.11-8.77,6.71-2.18-5-2.18-5Z" fill="#def2f1"/><path d="M670.46,232.46c-1.44,9.75-8.82,16.73-16.47,15.59s-12.69-10-11.24-19.69,8.81-16.73,16.47-15.59S671.9,222.72,670.46,232.46Z" fill="#fff"/><path d="M673.57,231.57c-9.05-.41-21-8.76-22.39-13.35,1.23-5.77,5.79-9,11.22-6.89S676.74,224.17,673.57,231.57Z" fill="#17252a"/><path d="M653.25,220.54s-5.39,5.47-10.84,6.72c1.9-6.38,3.27-11.22,6.54-12.79a21.81,21.81,0,0,1,6.89-1.84Z" fill="#17252a"/><path d="M668.34,231c-1.69,1.58-2,4-.73,5.37s3.71,1.23,5.41-.34,2-4,.73-5.37S670,229.37,668.34,231Z" fill="#fff"/><path d="M646.15,432.59c.59-5.93-2.47-51.09-2.47-51.09-8.66-39.7-5.26-68.13-5.26-68.13l14.89,1.05,5.86,22.44-2.78,37.46s1,2.89,1.59,5.2c3,12.5,0,27.45-1.82,37.41-.86,4.62-2.18,14.32-2.22,16.53l3.74,4.83s-13.53,15-15.61,15.07c-4.05.18-2.86-3.82-2.86-3.82C644.78,443.82,646,434.29,646.15,432.59Z" fill="#fff"/><path d="M657.91,443.6l-.74,9.62-1.73.08-.88-8.94c-4.6,1.18-7.9,9.53-7.9,9.53-3.17,1.14-11.23,1.92-14.1.44-.69-2.81,6.67-4.78,6.67-4.78.66.78,4.59,1.39,6,.54,5.13-4.37,7.64-10.72,8.73-16.63C653.94,433.46,662.05,434,657.91,443.6Z" fill="#2b7a78"/><path d="M651.18,316.26l21-2.89c8,18.15,10.63,49.74,12.81,61,8.74,14.65,11.51,59.09,11.51,59.09l3.74,4.83s-13.53,15-15.61,15.07c-4.05.18-2.86-3.82-2.86-3.82,5.57-5.72,6.65-13.3,7-15,.54-2.51-17-51.81-17-51.81l-1.87-4.68c-21.39-35.32-24.9-62-24.9-62Z" fill="#fff"/><path d="M700.44,443.6l-.74,9.62-1.73.08-.88-8.94c-4.6,1.18-7.9,9.53-7.9,9.53-3.17,1.14-11.23,1.92-14.1.44-.69-2.81,6.67-4.78,6.67-4.78.66.78,4.59,1.39,6,.54,5.13-4.37,7.64-10.72,8.73-16.63C696.47,433.46,704.58,434,700.44,443.6Z" fill="#2b7a78"/><path d="M690.16,372.31c-2.09-7-1.18-57.15-19.67-70.79l-31.81,3.36c-7.35,11.89-4.65,42.85-2.17,68.33C651.46,378.55,663.35,380.69,690.16,372.31Z" fill="#17252a"/><path d="M638.3,297c0-7-6-17.4-3.15-24.44,2.11-5.65,6.25-18.41,10.76-19.28,1.84-.35,3.85,0,6.38-.69,0,0-1.32,5.9,1.66,6.14,5.73.46,8.75-6.89,8.75-6.89,3.09-.3,13.88,2.92,13.87,4.09,0,9.12-2.76,21.78-5.19,31.64-.45,5,.71,9.09,1.22,11.93.92,3,2.42,6.24,2.42,6.88,0,0-23.73,7.58-37.26.13C637.76,306.54,638.3,301.73,638.3,297Z" fill="#2b7a78"/><path d="M654,258.76c-.51,2.39.87,5.25,4.87,3.91,4.79-1.61,7-10.6,7-10.6l-3-1.62A14.87,14.87,0,0,1,654,258.76Z" fill="#fff"/><path d="M654,258.76c-.59,1.23-4,4.38-5.56,2.51s.81-8.17.81-8.17l3.16-.91S650.87,257.05,654,258.76Z" fill="#fff"/><path d="M676.41,255.56s18.12,22.38,15.25,33.69c-7.93,5.82-12-.94-12-.94L669.15,271s-4.4-6-1.07-11.95A7.29,7.29,0,0,1,676.41,255.56Z" fill="#3e8c88"/><path d="M651.92,306.29h-8a1.24,1.24,0,0,1-1.23-1.17l-1.17-18.52a.75.75,0,0,1,.75-.79h11.38a.74.74,0,0,1,.74.79l-1.21,18.53A1.24,1.24,0,0,1,651.92,306.29Z" fill="#fff"/><path d="M653.46,290.83l-.86,13.79a1.12,1.12,0,0,1-1.1,1.07h-7.13a1.13,1.13,0,0,1-1.1-1.08l-.8-13.44a6.7,6.7,0,0,1,5.45.22C649.8,292.38,652.4,291.34,653.46,290.83Z" fill="#809df2"/><path d="M658.9,295.8s12.49-6,16.58-8.31c4.28-2.4,9.43-5.58,16.18,1.76-2.08,8.08-12.06,12.68-32.95,12.36A36.61,36.61,0,0,0,658.9,295.8Z" fill="#fff"/><path d="M658.9,295.8c-2.52-1.13-2.92-5.64-4.85-4.62-.1,2-.18,2.88-.23,4-.07,1.46-9.29.53-11.89-.19-2.07,2-2,4.38-.26,7.37,1.46,2.46,6.61,5.55,17-.73A12.43,12.43,0,0,0,658.9,295.8Z" fill="#fff"/><path d="M601.56,302.84s19.51-14.83,24.12-15.67c2.05-.37,4.26,4.24,6.3,9.38-6.71,5.77-16.48,10.25-29.71,12.05A36.67,36.67,0,0,0,601.56,302.84Z" fill="#fff"/><path d="M598.39,312.68c1.57-1.54,2.52-4,4.86-4.22l1.08-4-1.76-2c-6.91-1.23-14.23,4.36-14.89,5-1.71,1.59-2.61,2.23-2.5,2.58s1.26,2.15,3.83-.08c3.22-2.81,3.85,1.55-4.32,5.77-2,1.06-4,4.77-1.83,4.74C585.23,320.47,591.26,319.67,598.39,312.68Z" fill="#fff"/><rect x="719.27" y="242.24" width="64.93" height="87.72" rx="30.37" fill="#def2f1"/><path d="M783.92,261.25H719.54a2.12,2.12,0,0,1-2.13-2.12h0a2.13,2.13,0,0,1,2.13-2.13h64.38a2.13,2.13,0,0,1,2.13,2.13h0A2.12,2.12,0,0,1,783.92,261.25Z" fill="#2b7a78"/><path d="M783.92,315.2H719.54a2.13,2.13,0,0,1-2.13-2.13h0a2.13,2.13,0,0,1,2.13-2.13h64.38a2.13,2.13,0,0,1,2.13,2.13h0A2.13,2.13,0,0,1,783.92,315.2Z" fill="#2b7a78"/><rect x="742.97" y="329.32" width="17.52" height="3.25" fill="#2b7a78"/><rect x="720.18" y="332.57" width="63.94" height="120.02" rx="29.91" fill="#2b7a78"/><rect x="727.72" y="345.56" width="49.36" height="43.88" rx="16.99" fill="#3aafa9"/><rect x="731.22" y="348.67" width="42.36" height="37.66" rx="3.04" fill="#def2f1"/><path d="M746.32,360.43a4,4,0,1,1-4-4A4,4,0,0,1,746.32,360.43Z" fill="#17252a"/><path d="M742.32,368h0a1.47,1.47,0,0,1-1.47-1.48v-3.6a1.47,1.47,0,0,1,1.47-1.48h0a1.48,1.48,0,0,1,1.48,1.48v3.6A1.48,1.48,0,0,1,742.32,368Z" fill="#17252a"/><rect x="740.5" y="350.73" width="3.65" height="7.81" rx="1.46" fill="#fff"/><path d="M744.15,352.19V354H740.5v-1.79a1.46,1.46,0,0,1,1.46-1.46h.73A1.46,1.46,0,0,1,744.15,352.19Z" fill="#2b7a78"/><path d="M763.78,360.43a4,4,0,1,1-4-4A4,4,0,0,1,763.78,360.43Z" fill="#17252a"/><path d="M759.79,368h0a1.48,1.48,0,0,1-1.48-1.48v-3.6a1.48,1.48,0,0,1,1.48-1.48h0a1.47,1.47,0,0,1,1.47,1.48v3.6A1.47,1.47,0,0,1,759.79,368Z" fill="#17252a"/><rect x="757.96" y="350.73" width="3.65" height="7.81" rx="1.46" fill="#fff"/><path d="M761.61,352.19V354H758v-1.79a1.46,1.46,0,0,1,1.46-1.46h.73A1.46,1.46,0,0,1,761.61,352.19Z" fill="#3aafa9"/><path d="M773.58,383.29a3,3,0,0,1-3,3H734.26a3,3,0,0,1-3-3Z" fill="#17252a"/><path d="M775.23,402.38h-46a1.88,1.88,0,0,1-1.88-1.88h0a1.88,1.88,0,0,1,1.88-1.88h46a1.88,1.88,0,0,1,1.88,1.88h0A1.88,1.88,0,0,1,775.23,402.38Z" fill="#3aafa9"/><circle cx="740.95" cy="303.04" r="2.28" fill="#fff"/><path d="M737,294a1.14,1.14,0,0,1,.8,2,1.12,1.12,0,0,1-1.61,0,1.14,1.14,0,0,1,.81-2Zm0-.74a1.88,1.88,0,1,0,1.33.55,1.88,1.88,0,0,0-1.33-.55Z" fill="#fff"/><path d="M756.69,290.48a2.28,2.28,0,1,1-3.22,0A2.28,2.28,0,0,1,756.69,290.48Z" fill="#fff"/><path d="M764.6,273.59a2.28,2.28,0,1,1-3.22,0A2.28,2.28,0,0,1,764.6,273.59Z" fill="#fff"/><path d="M758.59,323.49a1.6,1.6,0,1,1-2.26,0A1.59,1.59,0,0,1,758.59,323.49Z" fill="#fff"/><circle cx="760.8" cy="318.64" r="1.6" fill="#fff"/><path d="M744.5,251.73a1.61,1.61,0,1,1-2.27,0A1.62,1.62,0,0,1,744.5,251.73Z" fill="#fff"/></g></svg>