<svg xmlns="http://www.w3.org/2000/svg" viewBox="0 0 1020 500"><title>ENABLE UPDATED</title><g id="OBJECTS"><path d="M217,447.47c-38.93-43.75-19.71-90.53,1.76-139,7.79-17.57-11.47-35.43-16.4-54-14.18-53.45,28.74-111.9,66.93-121.39,45.26-11.24,74.14-16.8,93.34-30.17,23.63-16.46,43.87-66.08,133.9-70.87,122.81-6.52,107,50.59,171,54,164.71,8.83,106.88,97.58,133.89,153.16,17,54.28,49.44,24.65,56.19,79.36,5.62,45.52-7.67,92.08-10.55,137.2Z" fill="#2b7a78"/><polygon points="349.27 221.46 336.86 309.91 543.92 419.37 598.27 255.85 434.01 178.67 349.27 221.46" fill="#def2f1"/><path d="M351.89,439H247.12a18.76,18.76,0,0,1,18.76-18.76h67.25A18.76,18.76,0,0,1,351.89,439Z" fill="#3aafa9"/><rect x="280.86" y="264.1" width="7.5" height="159.59" transform="translate(-44.19 41.97) rotate(-7.83)" fill="#3aafa9"/><rect x="304.31" y="139.46" width="7.5" height="159.59" transform="translate(206.18 -144.88) rotate(38.93)" fill="#3aafa9"/><path d="M282.74,265.93a9.3,9.3,0,1,1-7.92-10.5A9.31,9.31,0,0,1,282.74,265.93Z" fill="#042e3c"/><path d="M383.11,154.36a17.81,17.81,0,1,1-14.06-20.91A17.81,17.81,0,0,1,383.11,154.36Z" fill="#042e3c"/><path d="M434,178.67l-84.74,42.79a64.85,64.85,0,0,1-2.9-6.6c-9.66-25.79-1.4-53.66,20.15-64.54,21.27-10.74,48.17-1.23,63.31,21.22A65,65,0,0,1,434,178.67Z" fill="#3aafa9"/><path d="M434,178.67l-84.74,42.79a64.85,64.85,0,0,1-2.9-6.6l83.46-43.32A65,65,0,0,1,434,178.67Z" fill="#042e3c"/><path d="M529.91,317.39c-25.45-4-64.4-33.34-46.57-72.35s30.71-26.35,13.89-66.34,6.51-78.46,36.36-75.6,41.45,24.33,75,11.88,68.52,14.4,60.89,45-10.59,45.18,4.59,58.38,73.31,19.38,57.57,61-19.17,55.41-6.55,72.27c47.45,63.42-28,89.43-60.45,92.59S535.52,440.08,517,406.78,529.91,317.39,529.91,317.39Z" fill="#042e3c"/><path d="M479.26,333.77c3.55,8.88-14.5,36-22.53,34.9-37-19.3-70.43-76.91-70.43-76.91l10.95-15.29S435.21,304.47,479.26,333.77Z" fill="#fff"/><path d="M571,312.91c-21.84,18.48-104.2,58-114.3,55.76l6.3-38.33s76-52,89.65-60.34C576.33,255.59,606.75,282.79,571,312.91Z" fill="#fff"/><path d="M376.9,252.55c-2.2-2.09-15.88-6-19.37-5.23-4.07.91-15.4,8-17.8,9.48s-.6,3.74,3.3,3.95a25.69,25.69,0,0,0,14.2-4.44A92.84,92.84,0,0,1,367.89,260a7,7,0,0,1-2,13.37h-.6a64.75,64.75,0,0,1,5.2,17.27c5.61,1.67,10.07,4.71,16.4.75l10.82-14.42C395.82,272.49,380.48,255.91,376.9,252.55Z" fill="#fff"/><path d="M324.74,263.9l-2-.35a1.15,1.15,0,0,1-1-1.21h0a1.17,1.17,0,0,1,1.09-1.1l2-.11a1.16,1.16,0,0,1,1.23,1.19v.46A1.17,1.17,0,0,1,324.74,263.9Z" fill="#2c2858"/><rect x="418.33" y="264.64" width="9.02" height="4.54" rx="2.15" transform="translate(-0.43 0.69) rotate(-0.09)" fill="#2c2858"/><path d="M422.7,264.06l-.1,3.07-.12,3a1,1,0,0,1-1,.91l-71.66-3.31c-2.16-.11-25.6-2.43-25.4-3.77l.09-1.59.06-1.33c0-1,23.46-1.45,25.64-1.38l71.48,3.39a.93.93,0,0,1,1,.83A1.09,1.09,0,0,1,422.7,264.06Z" fill="#2c2858"/><path d="M355.74,264.85c-2.29-1.24-5.91-2.32-8.45-1.75-8.29,2.25.52,6.89,3,9.85s7.63,17.93,31.09,20.28c1,1.07-7.51-21.49-12.82-20.74S358,266.12,355.74,264.85Z" fill="#fff"/><path d="M619.4,232l-1.63,45.62s-23.76,17-42.13,5.67c2.83-14.13,6.68-37.38,6.68-37.38Z" fill="#def2f1"/><path d="M575.34,262.3s-31,2.48-77,40.56c4.48,3.1,28.17,38,28.17,38l33-9.81Z" fill="#3aafa9"/><path d="M531.18,204c6.35,35.06,32.63,59.64,58.71,54.92s42.07-37,35.72-72S593,127.23,566.91,132,524.84,168.91,531.18,204Z" fill="#fff"/><path d="M628.75,186.3c-26.67,1.38-53.53-8.75-70.61-25-4.87,23.54-27,42.7-27,42.7s-26.13-38.6,3.49-67.34C562.93,109.2,642.36,110.06,628.75,186.3Z" fill="#042e3c"/><path d="M619.45,193c-4.17,7.83-2.85,16.69,2.95,19.78s13.89-.76,18.06-8.59,2.85-16.68-3-19.77S623.62,185.21,619.45,193Z" fill="#fff"/><polygon points="341.12 356.69 331.11 307.14 414.2 346.91 354.8 361.71 341.12 356.69" fill="#042e3c"/><polygon points="344.17 352.64 334.89 308.88 339.26 305.65 411.93 341.18 344.17 352.64" fill="#3aafa9"/><path d="M342.83,354.39c3.21-5.11,14.5-12.08,29.25-10.67s65.43-8.47,68.8-10.48c4.7,4.05,90.33,76.85,90.33,76.85l-3.56,6.46Z" fill="#fff"/><polygon points="532.58 417.86 530.41 421.73 440.49 430.16 341.12 356.69 343.29 352.82 435.38 340.53 532.58 417.86" fill="#042e3c"/><polygon points="528.63 420.54 436.53 432.84 339.33 355.5 431.42 343.21 528.63 420.54" fill="#3aafa9"/><path d="M401.64,362.06c-1.17-11,13.25-7.82,16.8,1.83a38.11,38.11,0,0,1,2,19C380,377.64,386.05,353.7,401.64,362.06Z" fill="#2b7a78"/><path d="M457,377.6c-.45-4.29,5.18-3.05,6.57.72a14.91,14.91,0,0,1,.78,7.43C448.59,383.69,451,374.34,457,377.6Z" fill="#2b7a78"/><path d="M416.57,395.2c-.45-4.29,5.18-3.05,6.57.72a14.91,14.91,0,0,1,.78,7.43C408.12,401.29,410.48,391.94,416.57,395.2Z" fill="#2b7a78"/><path d="M392.35,386.48c-.46-4.3,5.17-3.06,6.56.71a14.79,14.79,0,0,1,.78,7.43C383.89,392.56,386.26,383.21,392.35,386.48Z" fill="#2b7a78"/><path d="M434.41,372.17c-.45-4.29,5.18-3.05,6.57.72a14.88,14.88,0,0,1,.77,7.43C426,378.26,428.32,368.91,434.41,372.17Z" fill="#2b7a78"/><path d="M459.55,398c-.45-4.29,5.18-3.05,6.56.72a14.79,14.79,0,0,1,.78,7.43C451.1,404.09,453.46,394.75,459.55,398Z" fill="#2b7a78"/><path d="M477.75,395.2c-.45-4.29,5.18-3.05,6.57.72a14.88,14.88,0,0,1,.77,7.43C469.3,401.29,471.66,391.94,477.75,395.2Z" fill="#2b7a78"/><path d="M477.75,412.84c-.45-4.29,5.18-3,6.57.72a14.88,14.88,0,0,1,.77,7.43C469.3,418.93,471.66,409.58,477.75,412.84Z" fill="#f57191"/><path d="M497.29,412.84c-.45-4.29,5.18-3,6.56.72a14.79,14.79,0,0,1,.78,7.43C488.84,418.93,491.2,409.58,497.29,412.84Z" fill="#f57191"/><path d="M646.35,425c-1.51-9.55-3.67-26.44-.66-42.77C653,348.59,670.59,299.16,661,271.1c-6.38-8.33-33.82-17.06-41.9-16.57-3.86,17.45-37.12,44.91-39.46,6.66-22.31,4.13-39.69,40.57-43.61,64.95-1.26,18.46,4.49,37.9,5.9,56.54,3.48,27.58-4.87,41.22-11.14,68.95L660,451.19C652.45,434,647,427.05,646.35,425Z" fill="#2b7a78"/><path d="M583.81,394.93c10.05,4,14.41,36.41,11.43,38.74-44.57,15.34-110.47-3.53-110.47-3.53l-2.06-19.59C495.75,409.83,525.53,408.31,583.81,394.93Z" fill="#fff"/><path d="M670.62,321.2c-11.15,29.51-64.44,109.24-75.38,112.47l-22.11-34.1S621.23,305,630,289.67C645.05,263.13,688.92,273.06,670.62,321.2Z" fill="#fff"/><path d="M652.16,262.17c4.81.24,28.86-.32,27.35,44.35.62,18.31-17,51-17,51s-34-10-58-29.13C605,319,628.55,264.42,652.16,262.17Z" fill="#3aafa9"/><path d="M442.66,425.22c6.93.94,27.29,2,42.11,4.92l-2.06-19.59c-10.93.58-26.32-19.22-47.95-22.45-7.37-1.1-10.74-2.23-11.39-1.28s-3,7.4,7.69,9.5c13.37,2.63,3.6,12.75-23,.43-6.66-3.09-19.81-.72-15.52,4.64C397.28,407.29,411.1,420.91,442.66,425.22Z" fill="#fff"/><rect x="198.03" y="438.69" width="658.76" height="21.07" rx="10" fill="#042e3c"/><path d="M795.1,416h-103a3.07,3.07,0,0,0-3.27,2.82v17.11a3.07,3.07,0,0,0,3.27,2.82h103Z" fill="#042e3c"/><path d="M798.64,420.4v13.82a.94.94,0,0,0,1,.91h36.52a1.82,1.82,0,0,1,1.86,1.78h0a1.82,1.82,0,0,1-1.86,1.78H795.69a2,2,0,0,1-2-2V417.92a2,2,0,0,1,2-2h40.43A1.82,1.82,0,0,1,838,417.7h0a1.82,1.82,0,0,1-1.86,1.78H799.59A.94.94,0,0,0,798.64,420.4Z" fill="#3aafa9"/><path d="M800.13,419.49h34.3a0,0,0,0,1,0,0v15.64a0,0,0,0,1,0,0h-34.3a2.31,2.31,0,0,1-2.31-2.31v-11A2.31,2.31,0,0,1,800.13,419.49Z" fill="#fff"/><rect x="801.07" y="422.16" width="27.06" height="1.41" fill="#e3eaff"/><rect x="815.98" y="425.71" width="16.9" height="1.41" fill="#e3eaff"/><rect x="799.23" y="432.44" width="21.85" height="1.41" fill="#e3eaff"/><rect x="804.07" y="429.22" width="10.24" height="1.41" fill="#e3eaff"/><rect x="698.6" y="420.87" width="83.42" height="12.94" rx="6.14" fill="#3aafa9"/><path d="M737.14,373.55h106a3.12,3.12,0,0,1,3.12,3.12v16a3.12,3.12,0,0,1-3.12,3.12h-106Z" fill="#042e3c"/><path d="M733.68,377.87v13.49a.92.92,0,0,1-.93.9H697.1a1.78,1.78,0,0,0-1.82,1.74h0a1.77,1.77,0,0,0,1.82,1.73h39.46a2,2,0,0,0,2-2V375.46a2,2,0,0,0-2-2H697.1a1.78,1.78,0,0,0-1.82,1.74h0A1.78,1.78,0,0,0,697.1,377h35.66A.9.9,0,0,1,733.68,377.87Z" fill="#3aafa9"/><path d="M702.1,377h33a0,0,0,0,1,0,0v15.27a0,0,0,0,1,0,0h-33a3.36,3.36,0,0,1-3.36-3.36v-8.56A3.36,3.36,0,0,1,702.1,377Z" transform="translate(1433.84 769.25) rotate(180)" fill="#fff"/><path d="M762.61,373.55s4.23,9.54.07,22.2l5.51,0a31.16,31.16,0,0,0,0-22.18Z" fill="#3aafa9"/><path d="M753.2,373.55s4.24,9.54.07,22.2l5.52,0a31.23,31.23,0,0,0,0-22.18Z" fill="#3aafa9"/><rect x="712.33" y="379.18" width="19.07" height="1.4" fill="#e3eaff"/><rect x="708.47" y="388.76" width="19.07" height="1.4" fill="#e3eaff"/><rect x="715.34" y="385.85" width="19.07" height="1.4" fill="#e3eaff"/><path d="M786.34,350.82H681.1a3.07,3.07,0,0,0-3.27,2.81v17.11a3.07,3.07,0,0,0,3.27,2.82H786.34Z" fill="#3aafa9"/><path d="M789.88,355.25v13.82a.94.94,0,0,0,1,.91h36.52a1.83,1.83,0,0,1,1.87,1.79h0a1.83,1.83,0,0,1-1.87,1.78H786.93a2,2,0,0,1-2-2V352.77a2,2,0,0,1,2-2h40.42a1.83,1.83,0,0,1,1.87,1.78h0a1.82,1.82,0,0,1-1.87,1.78H790.82A.93.93,0,0,0,789.88,355.25Z" fill="#042e3c"/><path d="M792.29,354.34h33.38a0,0,0,0,1,0,0V370a0,0,0,0,1,0,0H792.29a3.23,3.23,0,0,1-3.23-3.23v-9.18A3.23,3.23,0,0,1,792.29,354.34Z" fill="#fff"/><path d="M699.76,350.82s-4.24,9.77-.07,22.74h-5.52a32.74,32.74,0,0,1,0-22.73Z" fill="#042e3c"/><path d="M764.87,350.82s-4.24,9.77-.07,22.74h-5.52a32.67,32.67,0,0,1,0-22.73Z" fill="#042e3c"/><rect x="792.31" y="357.01" width="27.06" height="1.41" fill="#e3eaff"/><rect x="807.21" y="360.56" width="16.9" height="1.41" fill="#e3eaff"/><rect x="790.46" y="367.29" width="21.85" height="1.41" fill="#e3eaff"/><rect x="795.3" y="364.07" width="10.24" height="1.41" fill="#e3eaff"/><polygon points="805.5 376.67 799.58 373.92 794.22 376.67 794.22 362.19 805.5 362.19 805.5 376.67" fill="#3aafa9"/><path d="M680.06,415.81l71.22.51.1-20.9-71.22-.51a2.94,2.94,0,0,0-2.95,2.92l-.07,15A2.94,2.94,0,0,0,680.06,415.81Z" fill="#3aafa9"/><path d="M749.56,412.58l77.69-.08,0-13-76.75-.71a3.35,3.35,0,0,0-1.61,1.36h0l0,11.83a.63.63,0,0,0,.66.57Z" fill="#fff"/><path d="M829.13,416.52a2.07,2.07,0,0,0,.5-4.1h-.48l-77,.08a24.55,24.55,0,0,1-2.57-.11,6.75,6.75,0,0,1-.36-2.77l-.06-7.24a11.82,11.82,0,0,1,.2-2.58,7.34,7.34,0,0,1,2.86-.27l77-.08a2.07,2.07,0,0,0,.5-4.1h-.48l-82.82,0a2.31,2.31,0,0,0-2.3,2.27v16.5a2.33,2.33,0,0,0,2.27,2.3Z" fill="#042e3c"/><rect x="753.58" y="407.33" width="41.6" height="1.26" fill="#e3eaff"/><rect x="760.79" y="403.75" width="41.6" height="1.26" fill="#e3eaff"/><rect x="755.44" y="401.09" width="17.86" height="1.26" fill="#e3eaff"/><rect x="781.59" y="409.66" width="41.6" height="1.26" fill="#e3eaff"/><path d="M269.3,367.64c0-2.38-12.25-4.31-27.37-4.31s-27.36,1.93-27.36,4.31S226.82,372,241.93,372,269.3,370,269.3,367.64Z" fill="#042e3c"/><polygon points="234.47 426.35 249.05 313.82 259.33 315.17 244.75 427.69 234.47 426.35" fill="#fff"/><path d="M233.76,431.83l.71-5.48,10.28,1.34-.71,5.49a3.54,3.54,0,0,1-4,3l-3.27-.42A3.54,3.54,0,0,1,233.76,431.83Z" fill="#e62552"/><rect x="237.43" y="419.66" width="4.95" height="10.38" transform="translate(692.27 242.06) rotate(97.45)" fill="#f3c8b9"/><rect x="239.24" y="421.43" width="0.83" height="10.91" rx="0.31" transform="matrix(0.13, -0.99, 0.99, 0.13, -214.91, 608.65)" fill="#f3ae9c"/><rect x="239.52" y="419.07" width="0.83" height="10.91" rx="0.31" transform="translate(-212.03 607.61) rotate(-82.58)" fill="#f3ae9c"/><rect x="239.87" y="416.61" width="0.83" height="10.91" rx="0.31" transform="translate(-209.5 605.27) rotate(-82.51)" fill="#f3ae9c"/><path d="M254,315.89c2.84.37,5.22.05,5.32-.71h0a.49.49,0,0,0,0-.23l-1.72-8.69-1.22-6.2a.22.22,0,0,0-.42-.06l-2.8,5.63-4,8a.5.5,0,0,0-.1.21h0C249,314.6,251.17,315.52,254,315.89Z" fill="#def2f1"/><path d="M255.38,306.24a7.53,7.53,0,0,1-2.25-.63l2.8-5.63a.22.22,0,0,1,.42.06l1.22,6.2A7.61,7.61,0,0,1,255.38,306.24Z" fill="#042e3c"/><polygon points="237.75 328.22 244.84 417.25 234.5 418.12 227.41 329.08 237.75 328.22" fill="#fff"/><path d="M237.29,322.71l.46,5.51-10.34.86-.46-5.51a3.54,3.54,0,0,1,3.23-3.82l3.29-.27A3.55,3.55,0,0,1,237.29,322.71Z" fill="#042e3c"/><rect x="230.28" y="325.65" width="4.95" height="10.38" transform="translate(-77.58 590.3) rotate(-94.77)" fill="#def2f1"/><rect x="227.11" y="328.37" width="10.91" height="0.83" rx="0.31" transform="translate(-26.5 20.44) rotate(-4.76)" fill="#3aafa9"/><rect x="227.34" y="330.74" width="10.91" height="0.83" rx="0.31" transform="translate(-26.84 20.6) rotate(-4.79)" fill="#3aafa9"/><rect x="227.52" y="333.22" width="10.91" height="0.83" rx="0.31" transform="translate(-26.9 20.5) rotate(-4.76)" fill="#3aafa9"/><path d="M239.55,416.29c-2.85.23-5.11,1-5.05,1.82h0a.47.47,0,0,0,.09.22l3.52,8.13,2.5,5.8a.22.22,0,0,0,.42,0l1.55-6.09,2.19-8.65a.39.39,0,0,0,.05-.23h0v0C244.77,416.48,242.41,416.05,239.55,416.29Z" fill="#f3c8b9"/><path d="M240.26,426a7.74,7.74,0,0,1,2.33.14L241,432.23a.22.22,0,0,1-.42,0l-2.5-5.8A7.62,7.62,0,0,1,240.26,426Z" fill="#e62552"/><polygon points="239.07 427.01 211.17 331.68 221.04 328.78 248.94 424.1 239.07 427.01" fill="#fff"/><path d="M240.62,432.27,239.07,427l9.87-2.91,1.55,5.26a3.52,3.52,0,0,1-2.38,4.36l-3.14.92A3.5,3.5,0,0,1,240.62,432.27Z" fill="#e62552"/><rect x="240.94" y="418.32" width="4.91" height="10.29" transform="matrix(0.28, 0.96, -0.96, 0.28, 580.82, 70.33)" fill="#f3c8b9"/><rect x="238.58" y="425" width="10.82" height="0.83" rx="0.3" transform="translate(-110.14 86.15) rotate(-16.39)" fill="#f3ae9c"/><rect x="237.89" y="422.75" width="10.82" height="0.83" rx="0.3" transform="translate(-109.62 85.95) rotate(-16.41)" fill="#f3ae9c"/><rect x="237.21" y="420.37" width="10.82" height="0.83" rx="0.3" transform="translate(-109.19 85.89) rotate(-16.44)" fill="#f3ae9c"/><path d="M216.5,331.56c2.72-.8,4.76-2,4.54-2.77h0a.49.49,0,0,0-.14-.19l-5-7.2-3.6-5.13a.22.22,0,0,0-.4.12l-.28,6.23-.39,8.84a.46.46,0,0,0,0,.23h0C211.39,332.42,213.78,332.37,216.5,331.56Z" fill="#def2f1"/><path d="M213.87,322.27a7.8,7.8,0,0,1-2.29.33l.28-6.23a.22.22,0,0,1,.4-.12l3.6,5.13A7.67,7.67,0,0,1,213.87,322.27Z" fill="#042e3c"/><polygon points="270.02 337.9 254.49 415.15 244.42 413.04 259.95 335.8 270.02 337.9" fill="#fff"/><path d="M271.14,332.53,270,337.9,260,335.8l1.13-5.37a3.5,3.5,0,0,1,4.14-2.72l3.21.67A3.51,3.51,0,0,1,271.14,332.53Z" fill="#042e3c"/><rect x="262.08" y="333.83" width="4.91" height="10.29" transform="translate(-121.43 528.5) rotate(-78.18)" fill="#def2f1"/><rect x="264.51" y="331.57" width="0.83" height="10.82" rx="0.39" transform="translate(-119.22 527.16) rotate(-78.16)" fill="#3aafa9"/><rect x="264.06" y="333.88" width="0.83" height="10.82" rx="0.39" transform="translate(-121.74 528.78) rotate(-78.2)" fill="#3aafa9"/><rect x="263.53" y="336.29" width="0.83" height="10.82" rx="0.3" transform="translate(-124.63 529.96) rotate(-78.17)" fill="#3aafa9"/><path d="M249.74,412.73c-2.78-.58-5.16-.45-5.32.3h0a.47.47,0,0,0,0,.23l1,8.72.74,6.22a.22.22,0,0,0,.41.09l3.19-5.35,4.53-7.61a.41.41,0,0,0,.12-.2h0C254.65,414.39,252.52,413.31,249.74,412.73Z" fill="#f3c8b9"/><path d="M247.66,422.17a7.2,7.2,0,0,1,2.17.79l-3.19,5.35a.22.22,0,0,1-.41-.09l-.74-6.22A7.72,7.72,0,0,1,247.66,422.17Z" fill="#3f964f"/><path d="M269.28,367.8l-1.56,13.11-.7,5.84h0l-4.36,36.64L262,429l-1.15,9.65h-39l-1-9.73-.57-5.64-3.7-36.44-.58-5.76-1.36-13.35c.43,2.32,12.51,4.18,27.35,4.18S268.77,370.1,269.28,367.8Z" fill="#3aafa9"/><path d="M214.57,367.64v.13A.57.57,0,0,1,214.57,367.64Z" fill="#de6280"/><path d="M269.3,367.64a1,1,0,0,1,0,.16Z" fill="#de6280"/><path d="M262.66,423.39,262,429a125.81,125.81,0,0,1-20.38,1.43A122.88,122.88,0,0,1,220.79,429l-.57-5.64a119.78,119.78,0,0,0,21.38,1.62A122.26,122.26,0,0,0,262.66,423.39Z" fill="#042e3c"/><path d="M267.72,380.91l-.7,5.84h0c-4,1.59-13.89,2.71-25.42,2.71-11.21,0-20.85-1.06-25.08-2.58l-.58-5.76c3.87,1.64,13.89,2.81,25.66,2.81C253.86,383.93,264.24,382.66,267.72,380.91Z" fill="#042e3c"/><path d="M788.15,339.09H777.84a3,3,0,1,1,0-5.95h7.33V313.77h-7.33a3,3,0,1,1,0-5.95h10.31a3,3,0,0,1,3,3v25.33A3,3,0,0,1,788.15,339.09Z" fill="#fff"/><rect x="739.13" y="296.09" width="38.71" height="54.72" rx="2.91" fill="#fff"/><path d="M756.25,290.88s-14.58-6.19-10.06-17.41,20.91-9.73,11.58-26c11.25,6.5,13,21,4.21,24.51S752.79,284.52,756.25,290.88Z" fill="#fff"/><path d="M770,290.88s-10.36-4.4-7.16-12.38S777.67,271.58,771,260c8,4.62,9.21,14.91,3,17.43S767.49,286.36,770,290.88Z" fill="#fff"/><path d="M758.33,318.84c5.42-6.29,10.41-.38,9.24,4.05-.93,4.93-9.25,11.51-9.4,10.87C740.39,320.64,753.46,311.41,758.33,318.84Z" fill="#3aafa9"/><path d="M777.84,346.44v1.47a2.92,2.92,0,0,1-2.91,2.91H742a2.91,2.91,0,0,1-2.91-2.91v-1.47Z" fill="#3aafa9"/><path d="M438.24,217.12a9.16,9.16,0,1,1,9.15-9.16A9.16,9.16,0,0,1,438.24,217.12Zm0-15.79a6.64,6.64,0,1,0,6.63,6.63A6.64,6.64,0,0,0,438.24,201.33Z" fill="#e3eaff"/><path d="M443.39,229.36a5.15,5.15,0,1,1-5.15-5.16A5.15,5.15,0,0,1,443.39,229.36Z" fill="#e3eaff"/><path d="M318.37,355.12a5.16,5.16,0,1,1-5.15-5.15A5.15,5.15,0,0,1,318.37,355.12Z" fill="#fff"/></g></svg>