<svg xmlns="http://www.w3.org/2000/svg" xmlns:xlink="http://www.w3.org/1999/xlink" viewBox="0 0 500 500"><defs><clipPath id="clip-path"><circle cx="250" cy="243.7" r="184.17" fill="none"/></clipPath></defs><title>ENABLE UPDATED</title><g id="OBJECTS"><g clip-path="url(#clip-path)"><circle cx="250" cy="243.7" r="184.17" fill="#def2f1"/><path d="M356.55,254.52A3.57,3.57,0,0,1,355.3,257a4.17,4.17,0,0,1-.83-2.84,3.61,3.61,0,0,1,1.25-2.53A4.18,4.18,0,0,1,356.55,254.52Z" fill="#3c8f7c"/><path d="M330.75,217.76c0-.57.81-1,1.22-.51s.4.17.81,1.26a35.4,35.4,0,0,0,4.88,8.83,36.86,36.86,0,0,0,11.92,10.2A34,34,0,0,1,346.47,225a10,10,0,0,1,.64-4.63.54.54,0,0,1,1,.13c.36,2.21-.17,3.89.55,7.86,1.71,9.47,8.49,19.52,15,26.56-1.26-11.91-1.87-25.45.38-37.47.36-2,.95-3.85,1.49-5.77a.36.36,0,0,1,.7.19c-.12.64-1.19,8.91-1.25,9.48a147,147,0,0,0,0,28.53A57.25,57.25,0,0,0,375,226.57c.47-2.48.59-5,1.25-7.48.09-.33.64-.37.71,0,.68,3.65-.67,10.11-1.66,13.61a56.06,56.06,0,0,1-9.57,19.17c-.17.22,7,55.82,6.83,56.53-.33,1.18-2.4,2-2.72-.09-.13-.86-4.08-34.67-5.86-50.33-.68-.37-1.11-1-2.85-3a75.46,75.46,0,0,1-10.63-15.41c-1.59-.09-13.08-5.68-18.78-18.41-.16-.37-.9-2.09-1-2.48A3,3,0,0,1,330.75,217.76Z" fill="#17252a"/><path d="M-105.57,429.52s150-143.1,343.34-151.89c64.93-2.95,330.81,56.23,554.71,102.72,9.41,2,244.07,48.75,276,50.16Z" fill="#3aafa9"/><path d="M367.65,199.73c-.13-1.71-.2-3.46-.2-5.24,0-19.86,8.43-36,18.83-36s18.83,16.1,18.83,36c0,1.78-.07,3.53-.2,5.24Z" fill="#2b7a78"/><path d="M346.34,190.9q-.19-3.63-.19-7.4c0-28,8.42-50.71,18.82-50.71s18.83,22.7,18.83,50.71q0,3.76-.2,7.4Z" fill="#3aafa9"/><path d="M353.24,222c.13-1.71.2-3.46.2-5.24,0-19.86-8.43-36-18.83-36s-18.83,16.1-18.83,36c0,1.78.07,3.53.2,5.24Z" fill="#3aafa9"/><path d="M383.37,222c.17-2.41.25-4.88.25-7.39,0-28-10.68-50.71-23.87-50.71s-23.86,22.7-23.86,50.71c0,2.51.08,5,.25,7.39Z" fill="#2b7a78"/><path d="M365,163.87c6.59,0,12.48,7.2,16.36,18.5a13.36,13.36,0,0,1,6.26-1.6c11.7,0,21.18,16.1,21.18,36,0,1.78-.08,3.53-.23,5.24H344.09c-.15-2.41-.22-4.88-.22-7.39C343.87,186.57,353.35,163.87,365,163.87Z" fill="#3aafa9"/><path d="M243.89,343.89c-2.07.48-4-.15-4.28-1.41L195.28,153.36c-.3-1.26,1.14-2.68,3.21-3.16s4,.14,4.28,1.41L247.1,340.73C247.39,342,246,343.4,243.89,343.89Z" fill="#17252a"/><path d="M232.27,379.41c1.86-.44,3.64-1,5.46-1.25A6.81,6.81,0,0,0,242,376a13.1,13.1,0,0,0,3.37-10.51,25,25,0,0,0-.86-3.54q-3-11.73-6-23.47c-.16-.61-.33-1.23-.46-1.85a1.37,1.37,0,0,1,.08-.73c.39.83,1.06.77,1.7.62,1.6-.35,3.2-.73,4.78-1.15.53-.14,1.23-.31,1-1.13a.65.65,0,0,1,.33.42q2,9.07,3.87,18.15c.38,1.77.77,3.53,1.14,5.3a48.18,48.18,0,0,0,1.19,5.51,12.83,12.83,0,0,0,7.89,8.22,6.52,6.52,0,0,0,4.87-.14,34.6,34.6,0,0,1,4.87-1.19c.14,0,.42.18.49.34a5.67,5.67,0,0,1,.3,1.07l5.7,24.29a15,15,0,0,1-.38,7.78,34.47,34.47,0,0,1-6.31,11.44c-1.15,1.46-2.35,2.89-3.64,4.23a7.09,7.09,0,0,1-8.08,1.89,46,46,0,0,1-13-7,18.69,18.69,0,0,1-6-7.34,11.25,11.25,0,0,1-.62-1.8q-2.91-12.37-5.8-24.75C232.35,380.29,232.33,379.84,232.27,379.41Zm11.64-39a.84.84,0,0,0-1.08-.69.81.81,0,0,0-.65,1.07.84.84,0,0,0,1.07.67C243.82,341.34,244,340.92,243.91,340.41Z" fill="#110f24"/><path d="M270.54,372a5.67,5.67,0,0,0-.3-1.07c-.07-.16-.35-.37-.49-.34a34.6,34.6,0,0,0-4.87,1.19,6.52,6.52,0,0,1-4.87.14,12.83,12.83,0,0,1-7.89-8.22,48.18,48.18,0,0,1-1.19-5.51c-.37-1.77-.76-3.53-1.14-5.3q-1.93-9.08-3.87-18.15a.65.65,0,0,0-.33-.42c.2.82-.5,1-1,1.13-.83.22-1.67.43-2.51.63l.86,3.68a.88.88,0,0,1,.4,1.71L262.18,422a7.57,7.57,0,0,0,3.73-2.25c1.29-1.34,2.49-2.77,3.64-4.23A34.47,34.47,0,0,0,275.86,404a15,15,0,0,0,.38-7.78Z" fill="#110f24"/><path d="M153.66,412.9a133.3,133.3,0,0,1-.68-17.35l-12.53,2.81c1.47,10.11,1,15.16,1,15.16l-.35,3.2v9.44H172a139.58,139.58,0,0,1-15.71-8.74A6.29,6.29,0,0,1,153.66,412.9Z" fill="#fff"/><path d="M106.05,409.74,110.16,398H99.42c-.56,7.55-.77,12.64-.77,12.64l-2.73,7.72-2.77,9.19s9.13,2.35,13.92-.3l-.53-9.14Z" fill="#fff"/><path d="M106.54,418.07c-4.22,1.87-8.75.74-10.58.14l-.6,1.63L93,427.59s9.25,2.86,14,.22Z" fill="#17252a"/><path d="M140.81,428.5H172.9c1.18-.11,1.47-1.08,1.06-1.67-.85-1.24-4.59-2.14-8.8-4.1-7.38.78-22.86-4.32-24-6C140.46,420.13,140.16,428.35,140.81,428.5Z" fill="#2b7a78"/><path d="M141.5,248l-17,104.2-18.26,60.59-8-1S97.67,383,102,364.62A151.71,151.71,0,0,0,105.93,334c.57-18.44,1.95-44.49,5.3-57.92,4.67-18.68,9.92-28.56,9.92-28.56Z" fill="#17252a"/><path d="M124.76,271.48c-1.85,22.27,16.74,139.34,16.74,139.34h11.92s9.8-122.39,7.8-134.3-7.94-31.32-7.94-31.32l-26.74,2.09S125.26,265.43,124.76,271.48Z" fill="#2b7a78"/><path d="M137,144.36c0,2.69-1,4.87-2.25,4.87s-2.24-2.18-2.24-4.87,1-4.87,2.24-4.87S137,141.67,137,144.36Z" fill="#f7a491"/><path d="M139.87,176c-18.43-7.44-27.77-5-31-3.35l.16,28.07c.52,2.35-1.57,71-2.22,79,0,0,48.47,4.88,57.12-5.12,0,0-10.73-39.43-9.4-49.59C156.65,209.06,141.46,176.6,139.87,176Z" fill="#3aafa9"/><path d="M156.4,195.7s8,9.62,9.18,10.54c0,0,22.81-11,32.2-16.51a3.92,3.92,0,0,0,.32-.25c.18-.14.44-.24.42-.53-.06-1.27.09-5.66.24-7.54a3.59,3.59,0,0,1,.44-1.47l1.61-2.89.53,2.24a1.36,1.36,0,0,0,1.57,1h0a6.24,6.24,0,0,0,2-.9,7.47,7.47,0,0,1,2.86-.89,1.85,1.85,0,0,1,2,1.42,6.08,6.08,0,0,0,.59,1.82c.61.84,3.21,9.31,1.93,10.5a25.8,25.8,0,0,1-6,2.65,7.94,7.94,0,0,0-3,1.5,4.7,4.7,0,0,1-.59.4h0c-6.56,4.63-28.32,20.57-28.32,20.57s-10.86,7-12.95,5.9-17.2-19-17.2-19Z" fill="#fff"/><path d="M128.4,155.09s.43,10.36-.5,14.28-2.17,4.23,5.81,5.42c3.14.47,6.16,1.17,6.16,1.17s-.82-5.77-.94-8.2c-.2-4,.92-16.39.92-16.39Z" fill="#fff"/><path d="M134.48,160.24a14.07,14.07,0,0,0,4.59,1.63c.27-4.89.78-10.5.78-10.5l-10.93,3.55A14.35,14.35,0,0,0,134.48,160.24Z" fill="#3aafa9"/><path d="M129.69,187.37c-.08,9.79,16.76,27.62,16.76,27.62s15.2-12.07,17.39-16.25c0,0-16.31-17.31-17.35-18.35-4.74-4.71-9.42-3.62-12.39-2.55C131.72,178.71,129.69,187.37,129.69,187.37Z" fill="#2b7a78"/><path d="M122.8,191.36c9.23-8.05,12.71-25.8,6.69-36.38,4.18-5.44,6.86-4.47,5.93-11.23-1.84-13.35,16.73-21.39,2.86-24.94-14-2.81-25.69,5.8-32.1,14.36a33.93,33.93,0,0,1-10.76,9.53C87,147.35,82.48,158.49,87,170.11c-6.78,3.8-12.7,14.81-8.21,23.94,1.07,2.2,3.25,4.76,3.32,5.39C82,198.67,75.77,219,98.88,226,122.47,233.06,127.33,210.42,122.8,191.36Z" fill="#17252a"/><path d="M116.06,132.83c-2.73,11.26,12.05,19.44,23.75,19.74,7.6.19,11.1-.59,12.33-8.6,2-13-3.36-20.93-10.87-24.21C131.59,115.53,118.31,123.54,116.06,132.83Z" fill="#17252a"/><path d="M133.24,125.26a15.36,15.36,0,0,0-7.88,6.92c-2.75,5.2-1.38,21.83,10,27.32s16.65-7,15.82-16.17S147.08,122.11,133.24,125.26Z" fill="#fff"/><path d="M121.3,144.77c-1.69-8.59-1-15.11,5.08-18.26s11.33-6.26,16.8-.61l1.23.7s-10.31,2.85-10.89,8.33-6.06,12-5.21,14.68,1.82,8,1.82,8l-2.26-1.85S123,153.37,121.3,144.77Z" fill="#17252a"/><path d="M131.93,141.48c.85,2.38.21,4.76-1.44,5.33s-3.67-.9-4.52-3.28-.21-4.76,1.44-5.32S131.08,139.11,131.93,141.48Z" fill="#fff"/><path d="M283.74,276.83s-9.17,20.28-19.05,30.68v3.11L279.53,289Z" fill="#184655"/><path d="M293.44,241.34c.07-10.37-2.27-14.28-2.31-13.67-.08,1.45.12,4.19.23,7.84,0,.45-.1,23.19-6.92,39.7,0,.08-.07.17-.11.25l-.21.49c-.14.31-.27.62-.4.93-.3.66-.54,1.21-.73,1.67-7.49,17-9.95,19.31-18.3,29,0-26.66-1.83-56.77-9.61-82.84-1.28-4.28-3-8.29-4.67-12.43-.38-1-1.76-.39-1.48.59.4,1.39,10.93,38.71,10.42,88.44,0,.62-2.48,125.21-1.89,126.73,1,2.55,5.77,3.91,6-.83.09-1.93.93-77.69,1.21-112.77,1.37-.87,20.27-28.89,24.34-44.31,3.34-12.64,4.39-22,4.44-28.73v0Z" fill="#17252a"/><path d="M247.08,206a9.81,9.81,0,0,1,2.36,7.47,8.1,8.1,0,0,1-6.79-2.74,9.81,9.81,0,0,1-2.36-7.47A8.1,8.1,0,0,1,247.08,206Z" fill="#2b7a78"/><path d="M256.59,205.58a13.19,13.19,0,0,1-6.95,7.9,10.87,10.87,0,0,1-1.57-9.71,13.21,13.21,0,0,1,7-7.91A10.89,10.89,0,0,1,256.59,205.58Z" fill="#3aafa9"/><path d="M289.62,223a8.12,8.12,0,0,1,1.95,6.17,6.7,6.7,0,0,1-5.61-2.26,8.12,8.12,0,0,1-1.95-6.18A6.72,6.72,0,0,1,289.62,223Z" fill="#2b7a78"/><path d="M297.3,222.67a10.93,10.93,0,0,1-5.75,6.53,9,9,0,0,1-1.29-8,10.94,10.94,0,0,1,5.74-6.53A9,9,0,0,1,297.3,222.67Z" fill="#3aafa9"/><path d="M281.8,264.67a8.13,8.13,0,0,1,4.89,4.24,6.66,6.66,0,0,1-6,1,8.14,8.14,0,0,1-4.9-4.24A6.75,6.75,0,0,1,281.8,264.67Z" fill="#2b7a78"/><path d="M288.17,260.37a10.92,10.92,0,0,1-1.48,8.57,9,9,0,0,1-5.3-6.16,10.89,10.89,0,0,1,1.48-8.57A9.05,9.05,0,0,1,288.17,260.37Z" fill="#3aafa9"/><path d="M254.52,299.23a7.32,7.32,0,0,1,5.48,2,6,6,0,0,1-4.72,2.74,7.31,7.31,0,0,1-5.48-2A6.06,6.06,0,0,1,254.52,299.23Z" fill="#2b7a78"/><path d="M258.53,293.58a9.82,9.82,0,0,1,1.48,7.7,8.09,8.09,0,0,1-6.43-3.51,9.78,9.78,0,0,1-1.48-7.7A8.11,8.11,0,0,1,258.53,293.58Z" fill="#3aafa9"/><path d="M250.71,254.41a8.12,8.12,0,0,1,6.42.83,6.71,6.71,0,0,1-4.42,4.14,8.12,8.12,0,0,1-6.42-.83A6.71,6.71,0,0,1,250.71,254.41Z" fill="#2b7a78"/><path d="M253.64,247.31a10.89,10.89,0,0,1,3.5,7.95,9,9,0,0,1-7.82-2.2,10.9,10.9,0,0,1-3.5-8A9,9,0,0,1,253.64,247.31Z" fill="#3aafa9"/><path d="M296.37,244.61A5.75,5.75,0,0,1,293,247.7a4.71,4.71,0,0,1-.23-4.26,5.69,5.69,0,0,1,3.36-3.09A4.74,4.74,0,0,1,296.37,244.61Z" fill="#2b7a78"/><path d="M298.87,249.42A7.67,7.67,0,0,1,293,247.7a6.34,6.34,0,0,1,4.73-3.22,7.69,7.69,0,0,1,5.89,1.71A6.32,6.32,0,0,1,298.87,249.42Z" fill="#3aafa9"/><path d="M258.46,225.1a5.76,5.76,0,0,1-2.2,4,4.77,4.77,0,0,1-1.58-4,5.72,5.72,0,0,1,2.2-4A4.73,4.73,0,0,1,258.46,225.1Z" fill="#2b7a78"/><path d="M262.36,228.86a7.67,7.67,0,0,1-6.12.25,6.35,6.35,0,0,1,3.46-4.57,7.74,7.74,0,0,1,6.13-.25A6.35,6.35,0,0,1,262.36,228.86Z" fill="#3aafa9"/><path d="M284,287.83a4.52,4.52,0,0,1-3.31,1.35,3.7,3.7,0,0,1,1-3.19,4.48,4.48,0,0,1,3.31-1.35A3.7,3.7,0,0,1,284,287.83Z" fill="#2b7a78"/><path d="M284.55,292a6,6,0,0,1-3.86-2.86,5,5,0,0,1,4.36-1.07A6,6,0,0,1,288.9,291,5,5,0,0,1,284.55,292Z" fill="#3aafa9"/><path d="M265.54,267.93a4.5,4.5,0,0,1-2.47,2.59,3.74,3.74,0,0,1-.4-3.32,4.51,4.51,0,0,1,2.46-2.59A3.71,3.71,0,0,1,265.54,267.93Z" fill="#2b7a78"/><path d="M267.75,271.55a6,6,0,0,1-4.69-1,5,5,0,0,1,3.53-2.77,6.06,6.06,0,0,1,4.69,1A5,5,0,0,1,267.75,271.55Z" fill="#3aafa9"/><path d="M214,416.58c3.37-2.32,5-5.55,9-5.76,2.65-.13,5.46-.14,7.71-1.56,3.07-1.93,6.86-3.34,9.67-5.64,2.3-1.88,5.4-2.38,8.34-2.81l14.43-2.11a19.81,19.81,0,0,1,5.32-.3c6.5.79,10.77,7.51,17.05,9.35,3,.86,6.26.6,9,2,3.57,1.8,5.3,5.9,6.17,9.8.53,2.39,5.35,3.77,6.44,8.51.41.93-3.06-.44-3.94.09a6.45,6.45,0,0,1-3,.65q-38.4,2.06-76.89.84c-3.09-.09-19.3,1.69-21.33-1.14C199.64,425.2,211.41,418.32,214,416.58Z" fill="#2b7a78"/></g><path d="M153.66,412.9a133.3,133.3,0,0,1-.68-17.35l-12.53,2.81c1.47,10.11,1,15.16,1,15.16l-.35,3.2v9.44H172a139.58,139.58,0,0,1-15.71-8.74A6.29,6.29,0,0,1,153.66,412.9Z" fill="#fff"/><path d="M106.05,409.74,110.16,398H99.42c-.56,7.55-.77,12.64-.77,12.64l-2.73,7.72-2.77,9.19s9.13,2.35,13.92-.3l-.53-9.14Z" fill="#fff"/><path d="M106.54,418.07c-4.22,1.87-8.75.74-10.58.14l-.6,1.63L93,427.59s9.25,2.86,14,.22Z" fill="#17252a"/><path d="M140.81,428.5H172.9c1.18-.11,1.47-1.08,1.06-1.67-.85-1.24-4.59-2.14-8.8-4.1-7.38.78-22.86-4.32-24-6C140.46,420.13,140.16,428.35,140.81,428.5Z" fill="#2b7a78"/><path d="M141.5,248l-17,104.2-18.26,60.59-8-1S97.67,383,102,364.62A151.71,151.71,0,0,0,105.93,334c.57-18.44,1.95-44.49,5.3-57.92,4.67-18.68,9.92-28.56,9.92-28.56Z" fill="#17252a"/><path d="M124.76,271.48c-1.85,22.27,16.74,139.34,16.74,139.34h11.92s9.8-122.39,7.8-134.3-7.94-31.32-7.94-31.32l-26.74,2.09S125.26,265.43,124.76,271.48Z" fill="#2b7a78"/><path d="M137,144.36c0,2.69-1,4.87-2.25,4.87s-2.24-2.18-2.24-4.87,1-4.87,2.24-4.87S137,141.67,137,144.36Z" fill="#f7a491"/><path d="M139.87,176c-18.43-7.44-27.77-5-31-3.35l.16,28.07c.52,2.35-1.57,71-2.22,79,0,0,48.47,4.88,57.12-5.12,0,0-10.73-39.43-9.4-49.59C156.65,209.06,141.46,176.6,139.87,176Z" fill="#3aafa9"/><path d="M156.4,195.7s8,9.62,9.18,10.54c0,0,22.81-11,32.2-16.51a3.92,3.92,0,0,0,.32-.25c.18-.14.44-.24.42-.53-.06-1.27.09-5.66.24-7.54a3.59,3.59,0,0,1,.44-1.47l1.61-2.89.53,2.24a1.36,1.36,0,0,0,1.57,1h0a6.24,6.24,0,0,0,2-.9,7.47,7.47,0,0,1,2.86-.89,1.85,1.85,0,0,1,2,1.42,6.08,6.08,0,0,0,.59,1.82c.61.84,3.21,9.31,1.93,10.5a25.8,25.8,0,0,1-6,2.65,7.94,7.94,0,0,0-3,1.5,4.7,4.7,0,0,1-.59.4h0c-6.56,4.63-28.32,20.57-28.32,20.57s-10.86,7-12.95,5.9-17.2-19-17.2-19Z" fill="#fff"/><path d="M128.4,155.09s.43,10.36-.5,14.28-2.17,4.23,5.81,5.42c3.14.47,6.16,1.17,6.16,1.17s-.82-5.77-.94-8.2c-.2-4,.92-16.39.92-16.39Z" fill="#fff"/><path d="M134.48,160.24a14.07,14.07,0,0,0,4.59,1.63c.27-4.89.78-10.5.78-10.5l-10.93,3.55A14.35,14.35,0,0,0,134.48,160.24Z" fill="#3aafa9"/><path d="M129.69,187.37c-.08,9.79,16.76,27.62,16.76,27.62s15.2-12.07,17.39-16.25c0,0-16.31-17.31-17.35-18.35-4.74-4.71-9.42-3.62-12.39-2.55C131.72,178.71,129.69,187.37,129.69,187.37Z" fill="#2b7a78"/><path d="M122.8,191.36c9.23-8.05,12.71-25.8,6.69-36.38,4.18-5.44,6.86-4.47,5.93-11.23-1.84-13.35,16.73-21.39,2.86-24.94-14-2.81-25.69,5.8-32.1,14.36a33.93,33.93,0,0,1-10.76,9.53C87,147.35,82.48,158.49,87,170.11c-6.78,3.8-12.7,14.81-8.21,23.94,1.07,2.2,3.25,4.76,3.32,5.39C82,198.67,75.77,219,98.88,226,122.47,233.06,127.33,210.42,122.8,191.36Z" fill="#17252a"/><path d="M116.06,132.83c-2.73,11.26,12.05,19.44,23.75,19.74,7.6.19,11.1-.59,12.33-8.6,2-13-3.36-20.93-10.87-24.21C131.59,115.53,118.31,123.54,116.06,132.83Z" fill="#17252a"/><path d="M133.24,125.26a15.36,15.36,0,0,0-7.88,6.92c-2.75,5.2-1.38,21.83,10,27.32s16.65-7,15.82-16.17S147.08,122.11,133.24,125.26Z" fill="#fff"/><path d="M121.3,144.77c-1.69-8.59-1-15.11,5.08-18.26s11.33-6.26,16.8-.61l1.23.7s-10.31,2.85-10.89,8.33-6.06,12-5.21,14.68,1.82,8,1.82,8l-2.26-1.85S123,153.37,121.3,144.77Z" fill="#17252a"/><path d="M131.93,141.48c.85,2.38.21,4.76-1.44,5.33s-3.67-.9-4.52-3.28-.21-4.76,1.44-5.32S131.08,139.11,131.93,141.48Z" fill="#fff"/></g></svg>