<svg xmlns="http://www.w3.org/2000/svg" viewBox="0 0 421.4 403.78"><title>ENABLE UPDATED</title><g id="OBJECTS"><path d="M194.76,160.62H244c5.79,0,10.49-4.11,10.49-9.18V101.33c0-5.09-4.7-9.2-10.49-9.2H137.89c-5.79,0-10.48,4.11-10.48,9.2v50.11c0,5.07,4.69,9.18,10.48,9.18h42.66l-1.4,15.74Z" fill="#3aafa9"/><path d="M290,176.59v-34.3c0-3.18-2.93-5.75-6.55-5.75H259.26v18.09c0,5.45-5.07,9.89-11.3,9.89H216.11v12.07c0,3.17,2.93,5.75,6.56,5.75h32.39l9.76,9.85-.88-9.85h19.47C287,182.34,290,179.76,290,176.59Z" fill="#3aafa9"/><path d="M116.13,233.1a24.95,24.95,0,1,0,25-24.95A24.94,24.94,0,0,0,116.13,233.1Z" fill="#3aafa9"/><path d="M261.22,260.39a23.35,23.35,0,0,0-14.41,5,35.94,35.94,0,0,1,17.06,29.86h49.67V283.83a23.45,23.45,0,0,0-23.44-23.44Zm20.62,15.1,4.69,4.53-10.87,11.8L264.78,280l4.7-4.53s-7-6.32-7.29-6.87c-.56-1,4.29-4.24,4.29-4.24l9.18,27.44,9.17-27.44s4.85,3.27,4.29,4.24C288.82,269.17,281.84,275.49,281.84,275.49Z" fill="#3aafa9"/><path d="M103.19,283.83v11.39H153a35.89,35.89,0,0,1,17-29.82,23.3,23.3,0,0,0-14.46-5H126.64A23.45,23.45,0,0,0,103.19,283.83Zm51-21c.53,0,1.06,0,1.59.08l-5.38,28.24H146.9l-2.89-19h-.09l2.83-5.21H135.4l2.83,5.21h-.09l-2.89,19h-3.47L126.41,263c.52-.05,1.06-.08,1.59-.08Z" fill="#3aafa9"/><path d="M144,272.2l2.89,19h3.47L155.75,263c-.53-.05-1.06-.08-1.59-.08H128c-.53,0-1.07,0-1.59.08l5.37,28.24h3.47l2.89-19h.09L135.4,267h11.35l-2.83,5.21Z" fill="#fff"/><path d="M174.59,227.21a33.78,33.78,0,1,0,33.78-33.77A33.78,33.78,0,0,0,174.59,227.21Z" fill="#3aafa9"/><polygon points="204.53 280.16 200.69 273.1 200.69 273.1 204.53 280.16" fill="#5a6e7f"/><path d="M188.82,264.17a31.74,31.74,0,0,0-31.75,31.74v15.41H259.66V295.91a31.74,31.74,0,0,0-31.75-31.74ZM221,305.87H195.79l-7.29-38.24c.73-.05,1.44-.11,2.16-.11h35.42c.72,0,1.44.06,2.15.11Z" fill="#3aafa9"/><path d="M212.35,280.16l3.91,25.71H221l7.28-38.24c-.71-.05-1.43-.11-2.15-.11H190.66c-.72,0-1.43.06-2.16.11l7.29,38.24h4.68l3.92-25.71h.14l-3.84-7.06h15.36l-3.84,7.06Z" fill="#fff"/><polygon points="200.47 305.87 216.26 305.87 212.35 280.16 212.21 280.16 216.05 273.1 200.69 273.1 204.53 280.16 204.39 280.16 200.47 305.87" fill="#3aafa9"/><path d="M289.12,268.62c.56-1-4.29-4.24-4.29-4.24l-9.17,27.44L286.53,280l-4.69-4.53S288.82,269.17,289.12,268.62Z" fill="#fff"/><path d="M275.66,291.82l-9.18-27.44s-4.85,3.27-4.29,4.24c.31.55,7.29,6.87,7.29,6.87l-4.7,4.53Z" fill="#fff"/><path d="M272.66,207.82a25.16,25.16,0,0,0,1.61,50.27c.47,0,.92,0,1.38,0h30l.12-.6c-3.72-1.54-6.38-5.7-6.38-10.61V233.4h0v-.47A25.16,25.16,0,0,0,272.66,207.82Z" fill="#3aafa9"/><path d="M60.28,273.75v8.73h38a27.51,27.51,0,0,1,13.06-22.86,17.88,17.88,0,0,0-11-3.81H78.22A17.94,17.94,0,0,0,60.28,273.75Zm22-14.88,7,21,7-21s3.71,2.5,3.29,3.25c-.24.41-5.58,5.26-5.58,5.26l3.6,3.47-8.33,9-8.32-9,3.59-3.47s-5.33-4.85-5.58-5.26C78.55,261.37,82.26,258.87,82.26,258.87Z" fill="#3aafa9"/><path d="M89.28,279.87l-7-21s-3.71,2.5-3.29,3.25c.25.41,5.58,5.26,5.58,5.26L81,270.85Z" fill="#fff"/><path d="M99.59,262.12c.42-.75-3.29-3.25-3.29-3.25l-7,21,8.33-9L94,267.38S99.35,262.53,99.59,262.12Z" fill="#fff"/><path d="M69.21,245.51a8.53,8.53,0,0,1-4.85,8.05l.1.46H87.27l1,0a19.11,19.11,0,1,0-19.11-19.12v.37h0Z" fill="#3aafa9"/><path d="M317,255.81a17.92,17.92,0,0,0-11,3.81,27.46,27.46,0,0,1,13.06,22.86h38v-8.73a18,18,0,0,0-17.95-17.94Zm17.91,22.65h-2.56l-2.13-14h-.07l2.1-3.85H323.9l2.1,3.85h-.08l-2.13,14h-2.55l-4-20.82c.39,0,.78-.06,1.18-.06h19.28c.4,0,.79,0,1.17.06Z" fill="#3aafa9"/><path d="M309.14,234.77a19,19,0,1,0,18.94-19A18.95,18.95,0,0,0,309.14,234.77Z" fill="#3aafa9"/><path d="M330.25,264.47l2.13,14h2.56l4-20.82c-.38,0-.77-.06-1.17-.06H318.45c-.4,0-.79,0-1.18.06l4,20.82h2.55l2.13-14H326l-2.1-3.85h8.38l-2.1,3.85Z" fill="#fff"/></g></svg>