<svg id="Layer_3" data-name="Layer 3" xmlns="http://www.w3.org/2000/svg" viewBox="0 0 1020 500"><title>ENABLE UPDATED</title><rect width="1020" height="500" fill="#3aafa9"/><path d="M259.7,286.75l-.59-25.5s20.45-26.68,23.12-34.68,0-23.12-5-32-11.86-14.23-24.9-13.93c-5-11-9.6-15.47-13.91-17.18-3.9-1.54-11-.9-13.66,8.88-8.89-3.85-16-3.26-17.19,7.41-8.6-3-15.42,3-16.6,10.67-7.12-1.48-11.57,1.78-12.75,6.23s-.3,32.31,6.82,46,18.67,24.6,18.67,24.6l-2.07,25.2s9.21,24.83,31.12,23.42C251.1,314.61,259.7,286.75,259.7,286.75Z" fill="#fff"/><path d="M252.18,180.38a104.51,104.51,0,0,1,13.32,39.79" fill="none" stroke="#3bafa9" stroke-miterlimit="10"/><path d="M231.55,172.49a14,14,0,0,0,2.83,9.66" fill="none" stroke="#3bafa9" stroke-miterlimit="10"/><path d="M236,171.42a7.8,7.8,0,0,1,3.21,5.68" fill="none" stroke="#3bafa9" stroke-miterlimit="10"/><path d="M186.89,198.21a10.61,10.61,0,0,0,.11,10" fill="none" stroke="#3bafa9" stroke-miterlimit="10"/><path d="M200.47,289.06s13.55-8.85,29.32-8.85,28,4.5,31.57,7.37c1.9,37.44,3.83,68.14,3.83,68.14s-73.57,9.13-74.4,9.13S196,314.78,200.47,289.06Z" fill="#17252a"/><path d="M185.27,354.08s14.33-11.67,44.58-13.26,45.1,8,45.1,8L290.33,500H177.85S175.19,437.39,185.27,354.08Z" fill="#2b7a78"/><path d="M263.42,209.32a25.29,25.29,0,0,1,8.24,11.91" fill="none" stroke="#3bafa9" stroke-miterlimit="10"/><path d="M203.33,379.33s-5-16.4-9.44-9.94,10.93,24.84,12.42,24.35c5.92-16.59,8.29-32.2,2-30.81C199.72,364.83,203.33,379.33,203.33,379.33Z" fill="#3aafa9"/><path d="M217.81,451.4s-5-16.39-9.44-9.93,10.93,24.84,12.42,24.34c5-19.37,7.84-32.73,2-30.8C214.43,437.77,217.81,451.4,217.81,451.4Z" fill="#3aafa9"/><path d="M247,374s.48-17.12,6.49-12.07-4,26.85-5.58,26.76c-12.41-14.1-18.33-28.72-10-29.2C246.71,359,247,374,247,374Z" fill="#3aafa9"/><path d="M248.29,449.32s.48-17.12,6.49-12.07-4,26.84-5.58,26.76c-9.89-17.39-17.41-28.76-9.42-27.42C248.45,438,248.29,449.32,248.29,449.32Z" fill="#3aafa9"/><path d="M190.73,457.27s.39-14,5.32-9.89-3.29,22-4.57,21.92c-8.11-14.24-14-18.09-8.57-20.34C186.74,447.38,190.73,457.27,190.73,457.27Z" fill="#3aafa9"/><path d="M272.51,452.84s6.15-12.61,8.93-6.81-12.08,18.67-13.22,18.07c-1.49-16.32-5.26-22.26.6-22.06C273,442.18,272.51,452.84,272.51,452.84Z" fill="#3aafa9"/><path d="M229.41,412.17s1.93-17,7.49-11.47-6.28,26.4-7.83,26.18c-8.38-18.17-13.14-30.83-7.5-29.94C230.25,398.3,229.41,412.17,229.41,412.17Z" fill="#fff"/><path d="M237.3,482.85s1.53-13.45,5.92-9.06-5,20.85-6.19,20.68c-6.61-14.35-10.38-24.36-5.92-23.65C238,471.89,237.3,482.85,237.3,482.85Z" fill="#fff"/><path d="M262.6,483.54s-4.29-12.83-7.68-7.63,9.2,19.37,10.36,18.94c3.49-15.41,5.09-26,.87-24.36C259.67,473,262.6,483.54,262.6,483.54Z" fill="#fff"/><path d="M205.12,482.85s1.53-13.45,5.92-9.06-5,20.85-6.19,20.68c-6.62-14.35-10.38-24.36-5.92-23.65C205.79,471.89,205.12,482.85,205.12,482.85Z" fill="#fff"/><path d="M197.65,421.55s1.93-17,7.49-11.47-6.28,26.4-7.84,26.18c-8.37-18.17-13.14-30.83-7.49-29.94C198.49,407.68,197.65,421.55,197.65,421.55Z" fill="#fff"/><path d="M266.5,406.35s1.94-17,7.5-11.47-6.28,26.4-7.84,26.18c-8.37-18.17-13.14-30.83-7.5-29.94C267.35,392.48,266.5,406.35,266.5,406.35Z" fill="#fff"/><path d="M301.13,135.15s-6.44,0-7.88,6.2,2.87,31.26,12.89,44.39,19.09,15.75,19.09,15.75L308.53,391.9,285.81,500H389.42s2.2-101.15,1.25-120.72-14.38-171.35-15.33-185.43c7.4-18.14,5-27.2,3.34-33.88s-7.87-27.45-14.32-30.79S355.3,128,355.3,128s-4.3-6.2-14.8-2.62c-5.25-1.68-11.93-.72-15,.47-3.58-2.86-9.31-2.15-15.27.72S300.89,128.23,301.13,135.15Z" fill="#fff"/><path d="M342.11,149.27c.38,2.29.76,6.32.76,6.32s7.86.17,11.22,3.68c2.29-2.22,4.73-7.86,3.66-11.45-2.06.38-6.63.46-9.3-1.29C344.55,148.36,342.11,149.27,342.11,149.27Z" fill="#def2f1"/><path d="M314.1,160c1.38,4.77,1.9,4.51,1.9,4.51s24.72,5.12,25.68,23.94a10.69,10.69,0,0,0,1.47-2.08,22.83,22.83,0,0,1,2.52-12.4c3.29-6.07,2.89-5.36,2.89-5.36s-10.79.95-15.21-.89c-2.08-.86-3-3.9-3-3.9s-1.65,3.9-7-1.21C320.25,162.4,314.1,160,314.1,160Z" fill="#def2f1"/><path d="M354.64,127.58a154.68,154.68,0,0,0-19.1,5.59c-2.78,1-5.64,2.17-7.63,4.37-3.69,4.07-1.21,9.76-.24,14.45.3,0,1.77,8.59,2,9.42.59,2.63,1.21,5.06,3.85,6.35a14.2,14.2,0,0,0,5.9,1.08,67,67,0,0,0,13.63-1.1c2.79-.51,3.11-4.72,1.78-7.22-2.2-4.15-7.89-4.21-11.92-4.93-.28-2.14-.56-4.27-.83-6.41,3.79-1.55,7.89-3.1,11.69-4.65" fill="none" stroke="#3bafa9" stroke-miterlimit="10"/><path d="M348.63,146.52a12,12,0,0,0,10.68,1" fill="none" stroke="#3bafa9" stroke-miterlimit="10"/><path d="M339,126a42.93,42.93,0,0,0-10.64,2.81c-3.35,1.53-6.38,4.08-7.71,7.51-1.17,3-.9,6.43-.61,9.68l.69,7.75c.25,2.85.55,5.82,2.09,8.23s4.76,4,7.34,2.76" fill="none" stroke="#3bafa9" stroke-miterlimit="10"/><path d="M300.7,134.83l11,1.15a8,8,0,0,1,3.24.82,4.79,4.79,0,0,1,2.13,3.47,8,8,0,0,1-.67,4.1,12.19,12.19,0,0,1-17.84,5.57" fill="none" stroke="#3bafa9" stroke-miterlimit="10"/><path d="M311.5,150.54a51.08,51.08,0,0,0,5.05,14.06,75.93,75.93,0,0,1,12.17,5,24.35,24.35,0,0,1,9.72,8.22,18.41,18.41,0,0,1,2.3,14.48" fill="none" stroke="#3bafa9" stroke-miterlimit="10"/><path d="M353.87,159.06a10.55,10.55,0,0,0,3.72-6" fill="none" stroke="#3bafa9" stroke-miterlimit="10"/><path d="M348,169a28.49,28.49,0,0,0-4.47,21.39" fill="none" stroke="#3bafa9" stroke-miterlimit="10"/><path d="M314,158.5a11.35,11.35,0,0,0,8.83,4.2" fill="none" stroke="#3bafa9" stroke-miterlimit="10"/><path d="M310.21,135a3.36,3.36,0,0,1,1.24-2.6,10.15,10.15,0,0,1,2.57-1.49l10.43-4.72" fill="none" stroke="#3bafa9" stroke-miterlimit="10"/><path d="M485,219.51l.15,14.69.17,16.75,1.36,136L494,500H405.08s2.09-81,3.66-116.36c1-22.36,13.08-95.11,20.36-137.43,1.14-6.59,2.16-12.46,3-17.26,1.53-8.74,2.47-14,2.47-14s-3.49-2.41-9.39-10.92c-9.72-14-4.8-31.88-3.27-41s4.36-15.28,9.39-16.59,9.16,2,9.16,2a13.3,13.3,0,0,1,5.9-7.86c4.8-2.84,10.91,1.09,10.91,1.09a11.11,11.11,0,0,1,6.78-6.11c5-1.53,10.26,3.92,10.26,3.92s2-4.36,10.26-6.55,11.79,17.25,11.57,28.83c3.06,2.18,11.57,16.81,14.63,27.5C509.24,202.05,485,219.51,485,219.51Z" fill="#fff"/><path d="M485.06,178.43s-13,5.62-18.7,1.42a17.64,17.64,0,0,1-3.81-4c-.15,3.22-3.71,9.93-8.16,10.11-7.64.3-11.05-7.25-11.05-7.25-.3,3.34-3.7,6.48-7.65,7.7,9.12.91,18.54,5.77,21.88,20.35,7.29-1.21,9.42-6.38,16.1-13.06s11.24-7.9,14.89-9.72l-3.5-5.51" fill="#def2f1"/><path d="M466.72,207.19a32.44,32.44,0,0,1,23.09-23.42" fill="none" stroke="#3bafa9" stroke-miterlimit="10"/><path d="M485.06,178.43l3.72,5.84" fill="none" stroke="#3bafa9" stroke-miterlimit="10"/><path d="M484.66,178.39A28.65,28.65,0,0,1,474,181.23a13.4,13.4,0,0,1-7.68-1.38,7.43,7.43,0,0,1-2.77-2.85,3.52,3.52,0,0,1,1.63-4.82c7.26-3.5,14.43-7,21.72-10.49a13.4,13.4,0,0,1,4.34-1.49,4.56,4.56,0,0,1,4.13,1.53" fill="none" stroke="#3bafa9" stroke-miterlimit="10"/><path d="M424.4,153.26a37.94,37.94,0,0,0-.72,20.78,19.46,19.46,0,0,0,4.15,8.56,10,10,0,0,0,8.57,3.46c3.17-.46,7-4.19,6.94-7.39" fill="none" stroke="#3bafa9" stroke-miterlimit="10"/><path d="M439.27,153.47a55.07,55.07,0,0,0,2.32,20.05,22.61,22.61,0,0,0,4.15,8.23c2,2.33,5,4.22,8.07,3.89,6.92-.73,8.29-6.63,8.75-9.69" fill="none" stroke="#3bafa9" stroke-miterlimit="10"/><path d="M457.32,145.88q2.63,15,5.24,30.07" fill="none" stroke="#3bafa9" stroke-miterlimit="10"/><path d="M474.67,142.69A88.81,88.81,0,0,1,480.25,165" fill="none" stroke="#3bafa9" stroke-miterlimit="10"/><path d="M436.16,186.25a24.47,24.47,0,0,1,21.53,22.94" fill="none" stroke="#3bafa9" stroke-miterlimit="10"/><path d="M485.32,251l-56.22-4.74c1.14-6.59,2.16-12.46,3-17.26,10.07,1.11,45,4.47,53,5.25Z" fill="#17252a"/><polygon points="443.55 228.63 439.69 247.58 443.55 248.08 445.73 228.96 443.55 228.63" fill="#fff"/><polygon points="461.33 230.77 463.54 249.99 459.66 250.16 459.13 230.92 461.33 230.77" fill="#fff"/><path d="M451.75,237.51a2.33,2.33,0,1,0,2.36,2.29A2.36,2.36,0,0,0,451.75,237.51Z" fill="#110f24"/><path d="M436,235.56a1.78,1.78,0,1,0,1.69,1.87A1.81,1.81,0,0,0,436,235.56Z" fill="#110f24"/><path d="M478.07,439.19s47.6-24.4,115.45-4.71C581.72,463.22,492.16,459.91,478.07,439.19Z" fill="#2b7a78"/><path d="M587,184.24s14.4-3,20.64-7.88,10.87-21.74,11.42-31-8.7-12-8.7-12,2.45-9.51,1.09-14.12-10.87-7.61-14.4-3.81c-2.72-4.89-7.61-10-15.49-4.62-4.07-7.6-10.59-10.86-19.83-2.71-7.06-3.26-13-1.36-18.47,2.44s-16.31,20.65-12.5,43.47c2,12,10.05,21.74,10.05,21.74s-44.59,97.47-51.08,158.66c-6.25,58.95,0,91.83,4.62,111.12s83.41,8.69,88-2.72c-15.18-75-15.49-109.76-15.49-109.76Z" fill="#fff"/><path d="M551,143.43c3.09,3.24,9.43,7.36,10,18.41,3.54,1.77,13.11-.59,19.89-4.71s15.76-4,19.44-2.65c2.07-4.57,1.92-5.75,1.92-7.37-2.36,3.39-12.67,7.81-13.85-2.5-4.42,3.68-5,4.71-10.31,2.8s-4.3-5.86-4.36-7.72c-3.3,4.33-6,6.83-11.4,5.36s-5.65-4.92-5.65-5.66C553,142.69,551,143.43,551,143.43Z" fill="#def2f1"/><path d="M546.59,112.41c-2.89,6.16-4.61,18-4.3,20.92a12.91,12.91,0,0,0,2.1,5.87,7.64,7.64,0,0,0,5.11,3.31,6.33,6.33,0,0,0,7.16-4.3" fill="none" stroke="#3bafa9" stroke-miterlimit="10"/><path d="M561.47,111.09a125.88,125.88,0,0,0-4.32,20.42c-.48,3.25-.91,6.77.68,9.64s4.49,4,7.87,3.58,7.26-2.37,8.3-6.36" fill="none" stroke="#3bafa9" stroke-miterlimit="10"/><path d="M580.85,113.49c-3.14,8.94-6,17-7.13,26.42a9,9,0,0,0,1.44,5.49c1.25,1.86,5.83,3,8,2.51,3.86-1,6.58-5.16,7.35-10" fill="none" stroke="#3bafa9" stroke-miterlimit="10"/><path d="M609.81,133.07a49.15,49.15,0,0,1-14-7.2,6.3,6.3,0,0,0-3.44-1.63c-2,0-3.44,2-3.88,3.9a11.93,11.93,0,0,0,1,7.49A17.7,17.7,0,0,0,605,145.88" fill="none" stroke="#3bafa9" stroke-miterlimit="10"/><path d="M602.39,146a40.61,40.61,0,0,1-1.65,7.85A26.69,26.69,0,0,0,568,175.36" fill="none" stroke="#3bafa9" stroke-miterlimit="10"/><path d="M550.71,142.78a26.51,26.51,0,0,1,9.81,14.38" fill="none" stroke="#3bafa9" stroke-miterlimit="10"/><path d="M588.85,143.25s-1.29,6.83,5.23,7.77,8-3.68,8-3.68" fill="none" stroke="#3bafa9" stroke-miterlimit="10"/><path d="M478.07,439.19s17.28,11.39,62.05,9,53.4-13.74,53.4-13.74L606.87,500H487.1Z" fill="#def2f1"/><path d="M638.26,99.4s-9.17.1-11.59,2.52-2.73,6.06-1.52,14.53,5.76,30.53,14.53,37.84c10.9,9.08,19.68,8.18,19.68,8.18l6,56s17.26,15.74,35.42,9.68,21.49-27.24,21.49-27.24l-21.79-43s8.77-17.25,5.75-30.87S698.1,87.7,688.42,85c-8.18-6.66-15.14-7-28.15-2.12-2.43-3.33-7.57-1.51-14.23,3.33S637.05,94.26,638.26,99.4Z" fill="#fff"/><path d="M651.87,125.65c5.06,3,10.11,6.28,11.68,12.74,5.76,1,13.26-3.49,15.53-9.95s4.36-13.78,7.85-19l-2.27-5.54s-4.53,1-6.63,1.7c.53,5.06,2.1,17.44-3.14,19s-5.36-1.59-6.95-2.36c-1.77,1.49-6.41,4.73-11.68.06C658.61,125.63,651.87,125.65,651.87,125.65Z" fill="#def2f1"/><path d="M631.32,112.57a25,25,0,0,0,9.55,1.37c4.14,0,7-.93,9.2-3.37s2.6-5.38.63-8a8,8,0,0,0-5.18-2.88,19.58,19.58,0,0,0-6.06.21" fill="none" stroke="#3bafa9" stroke-miterlimit="10"/><path d="M642.07,114.14l1.42,6.49a4.26,4.26,0,0,0,3.1,3.19,26.59,26.59,0,0,1,12.89,7.68,18.91,18.91,0,0,1,4.76,16.19" fill="none" stroke="#3bafa9" stroke-miterlimit="10"/><path d="M647.64,99.57a5.36,5.36,0,0,1,.16-4.85A13.42,13.42,0,0,1,651,90.9a55.08,55.08,0,0,1,9.4-6.72" fill="none" stroke="#3bafa9" stroke-miterlimit="10"/><path d="M650.07,125a7.64,7.64,0,0,0,7.28-1.63" fill="none" stroke="#3bafa9" stroke-miterlimit="10"/><path d="M649.85,111a22.34,22.34,0,0,0,3.1,8.18,12.14,12.14,0,0,0,6.87,5.18,8.39,8.39,0,0,0,8.12-2.1" fill="none" stroke="#3bafa9" stroke-miterlimit="10"/><path d="M685.2,84.72a45.82,45.82,0,0,0-12.15,4c-2.86,1.4-6.82,2.86-8.87,5.4a12.35,12.35,0,0,0-2,6.07c-.39,3.79.48,7.57,1.34,11.26.83,3.53,1.72,7.2,3.88,10,1.74,2.23,5.39,4.38,8.1,3s3.27-5.57,3-8.57q-.59-7.18-1.16-14.38" fill="none" stroke="#3bafa9" stroke-miterlimit="10"/><path d="M678,105.59a24.89,24.89,0,0,0,8.71-3.69" fill="none" stroke="#3bafa9" stroke-miterlimit="10"/><path d="M684.66,103.89l2.19,5.72" fill="none" stroke="#3bafa9" stroke-miterlimit="10"/><path d="M686.77,110a46.82,46.82,0,0,0-6.16,38" fill="none" stroke="#3bafa9" stroke-miterlimit="10"/><path d="M768.74,362.55c-1.85,42.64-10.89,107.08-23.18,137.45H649.84l30.82-147.65L666.8,245.59,663,216.75s16.23,2.78,32-3A99.32,99.32,0,0,0,722.39,198s3.22,7.72,8,20C743.71,252.66,769.08,323.74,768.74,362.55Z" fill="#17252a"/><path d="M730.36,218c-3.87,4.91-11.46,12.1-25.74,18.9a94.08,94.08,0,0,1-37.82,8.68L663,216.75s16.23,2.78,32-3A99.32,99.32,0,0,0,722.39,198S725.61,205.69,730.36,218Z" fill="#2b7a78"/><path d="M671.41,218.82l3.6,23.86" fill="none" stroke="#3bafa9" stroke-miterlimit="10"/><path d="M679.77,220.22c1.45,6.92,3.32,14.24,3.88,20.31" fill="none" stroke="#3bafa9" stroke-miterlimit="10"/><path d="M686.72,219.5l4.8,19.05" fill="none" stroke="#3bafa9" stroke-miterlimit="10"/><path d="M694.36,217.23q2.43,9.35,4.85,18.69" fill="none" stroke="#3bafa9" stroke-miterlimit="10"/><path d="M700.69,215.49l5.55,16.37" fill="none" stroke="#3bafa9" stroke-miterlimit="10"/><path d="M708,211.61q3.53,7.68,7,15.36" fill="none" stroke="#3bafa9" stroke-miterlimit="10"/><path d="M715.81,205,722,220.09" fill="none" stroke="#3bafa9" stroke-miterlimit="10"/><path d="M700.58,159.16a.71.71,0,0,0-1.34-.25c-1.53,2.46-1.94,5.86-3,8.57a49.07,49.07,0,0,1-4.92,9.35A73.07,73.07,0,0,1,678,191.74a69.68,69.68,0,0,1-8,5.85c-3,1.85-7.79,5-11,2-2.2-2.12-2.11-6.13-1.6-8.87a36.2,36.2,0,0,1,4.88-11.81c.31-.51-.51-1.07-.86-.59a35.06,35.06,0,0,0-5.49,12.13c-.77,3.05-1.38,6.55-.06,9.56,3.74,8.58,14.17,2.23,19.1-1.34a63.53,63.53,0,0,0,16.63-17.83,84.2,84.2,0,0,0,5.48-10.59C698.49,167,700.78,162.72,700.58,159.16Z" fill="#def2f1"/><path d="M652.19,205.06c-2.8,0-2.82,4.34,0,4.34S655,205.06,652.19,205.06Z" fill="#def2f1"/><path d="M786.41,173.58s-13.93-8-18.48-21.71-3.76-16.07-3.22-20.89,10.45-30.55,13.4-34,12-5.89,18.21-1.34c7-12.59,11-14.2,17.69-13.93s8.3,9.91,8.3,9.91,5.09-2.41,8.84,1.07,4,9.65,4,9.65,4.56-3,8-.54,4,11,4,11a10.84,10.84,0,0,1,9.38,4c4,4.82,3.21,18.75-4.29,35.9s-15.54,20.09-15.54,20.09,22,108,23.85,128.87c-25.19,13.67-78.24,10.18-78.24,10.18Z" fill="#fff"/><path d="M785.82,120.29a96,96,0,0,1,11-24.92" fill="none" stroke="#3bafa9" stroke-miterlimit="10"/><path d="M778.53,115.51a43.33,43.33,0,0,1,13.18-10.9" fill="none" stroke="#3bafa9" stroke-miterlimit="10"/><path d="M807.48,97.39a7.44,7.44,0,0,1,3.41-6.29" fill="none" stroke="#3bafa9" stroke-miterlimit="10"/><path d="M821.83,102.9a8.27,8.27,0,0,0-1.7,6.23" fill="none" stroke="#3bafa9" stroke-miterlimit="10"/><path d="M846.39,129.84a18.54,18.54,0,0,0,7.33-5.61" fill="none" stroke="#3bafa9" stroke-miterlimit="10"/><path d="M828,102.15a11.28,11.28,0,0,1-3.9,5.81" fill="none" stroke="#3bafa9" stroke-miterlimit="10"/><path d="M778.27,285.43s12.84-15.89,28.42-16.81c8.56,6.42,20.18,21.4,20.18,21.4l.61-23.84s23.53-.92,32.7,4c8,59.6,18,211.21,15.9,229.85h-118s10.39-74.58,15.28-113.4S778.27,285.43,778.27,285.43Z" fill="#2b7a78"/></svg>