<svg xmlns="http://www.w3.org/2000/svg" xmlns:xlink="http://www.w3.org/1999/xlink" viewBox="0 0 1020 500"><defs><filter id="luminosity-noclip" x="387.72" y="-4759.02" width="245.8" height="32766" filterUnits="userSpaceOnUse" color-interpolation-filters="sRGB"><feFlood flood-color="#fff" result="bg"/><feBlend in="SourceGraphic" in2="bg"/></filter><mask id="mask" x="387.72" y="-4759.02" width="245.8" height="32766" maskUnits="userSpaceOnUse"><g filter="url(#luminosity-noclip)"/></mask><clipPath id="clip-path"><path d="M827.63,241.76c-.58-.6-1.86-2.91-3-8.86a121.67,121.67,0,0,1-1.64-21,121.59,121.59,0,0,1,1.64-21c1.1-6,2.38-8.26,3-8.86.59.6,1.87,2.9,3,8.86,1.06,5.76,9.42,13.22,9.42,21s-8.36,15.27-9.42,21C829.5,238.85,828.22,241.16,827.63,241.76Z" fill="none"/></clipPath><clipPath id="clip-path-2"><path d="M781.62,350.49,815,322.7a.76.76,0,0,0-.42-1.34c-.23,0-.47-21.87-.71-21.86l-65.48,3.65c-.78,0-1.51,22.13-2.13,22.51a.75.75,0,0,0-.11,1.2l25.13,23.37A8,8,0,0,0,781.62,350.49Z" fill="none"/></clipPath><linearGradient id="linear-gradient" x1="-6156.09" y1="374.96" x2="-6176.43" y2="392.97" gradientTransform="matrix(-1, 0, 0, 1, -5451.94, 0)" gradientUnits="userSpaceOnUse"><stop offset="0" stop-color="#f9b776"/><stop offset="1" stop-color="#f47960"/></linearGradient></defs><title>ENABLE UPDATED</title><g style="isolation:isolate"><g id="OBJECTS"><rect y="0.38" width="1020" height="499.88" fill="#3aafa9"/><path d="M274.91,243.29H249.42V136.89c0-41.79,29.87-77.1,69.48-82.14L371,48.11A76.75,76.75,0,0,1,433,68.32a84.58,84.58,0,0,1,26.62,61.94v92.88h-25.5V130.26a57.28,57.28,0,0,0-18-42A52,52,0,0,0,374.1,74.62L322,81.25c-26.84,3.42-47.07,27.34-47.07,55.64Z" fill="#17252a"/><path d="M237.31,216.88l236.44-14.34c9.61-.58,17.69,7.78,17.69,18.31v205c0,10.12-7.5,18.33-16.76,18.33H243.92c-9,0-16.45-7.85-16.75-17.74l-5.68-190.66C221.2,225.82,228.22,217.43,237.31,216.88Z" fill="#17252a"/><path d="M389.25,385.46l-14.31-45a16.13,16.13,0,0,1,3.13-15.55A44.81,44.81,0,0,0,389.26,293c-.92-22-17.31-39.78-37.39-40.62-22.21-.93-40.49,18.5-40.49,42.61a44.15,44.15,0,0,0,14.43,33.12,16.1,16.1,0,0,1,4.51,16.79l-12.9,40.6c-3.14,9.87,3.56,20.18,13.11,20.18h45.61C385.69,405.64,392.39,395.33,389.25,385.46Z" fill="#3aafa9"/><path d="M675.79,227.72l32.47-7.56s21.71-1.95,24.65,17.34,2.08,133.62,1.16,157.2,7.62,33.45,20.89,37c-28.31,9.36-64.19,11-102.85,9.92Z" fill="#2b7a78"/><path d="M609.78,229.29s59.12,3.25,98.48-9.13c0,0-26.16-1.79-26.16,58.61,0,46.19,6.85,134.34.87,151.07s-28.35,39.23-60.4,19.9S609.78,229.29,609.78,229.29Z" fill="#17252a"/><path d="M594.06,138.72s65.24,7.11,73.64-3.94c0,0-6.69-19.9-26.54-18.58S594.06,138.72,594.06,138.72Z" fill="#17252a"/><path d="M381.91,161.11c5.68,63.93,17.63,199.15,22.83,265a29.62,29.62,0,0,0,27.63,27.23c52.36,3.36,170.2,9.88,215.42,3.81h0A30.1,30.1,0,0,1,631,429.92l2.4-295.56c.09-10.45,10.49-18,20.27-14.29,6.16,2.31,10.83,7.23,14,14.71-4.27-12.44-11-21.55-26.54-18.58,0,0-152.1,1.52-225.91,6.1A35.69,35.69,0,0,0,381.91,161.11Z" fill="#2b7a78"/><path d="M419.53,130.76l204.38-7.87c-8.43,62.41-4.87,189.5-1.65,314.74a19.65,19.65,0,0,0,11.26,17.28h0s-136.32,1.58-194.9-2.58a29.52,29.52,0,0,1-27.09-25.09c-8-53.66-27.28-192.28-23.27-265.67A32.58,32.58,0,0,1,419.53,130.76Z" fill="#fff"/><g mask="url(#mask)"><path d="M419.53,130.76l204.38-7.87c-8.43,62.41-4.87,189.5-1.65,314.74a19.65,19.65,0,0,0,11.26,17.28h0s-136.32,1.58-194.9-2.58a29.52,29.52,0,0,1-27.09-25.09c-8-53.66-27.28-192.28-23.27-265.67A32.58,32.58,0,0,1,419.53,130.76Z" fill="#fff" style="mix-blend-mode:multiply"/></g><path d="M417.28,219.8l2.39,22.89a8.49,8.49,0,0,0,8.11,7.6l13.33.51a8.49,8.49,0,0,0,8.8-8.48V217.63a8.47,8.47,0,0,0-9.17-8.45L425,210.47A8.48,8.48,0,0,0,417.28,219.8Z" fill="#3aafa9"/><path d="M464.15,212.74c22.19-.69,107.35-3.46,128.85-4.16a4.81,4.81,0,0,1,5,4.8h0a4.8,4.8,0,0,1-4.63,4.8L464.57,223a4.8,4.8,0,0,1-4.94-4.18l-.08-.62A4.79,4.79,0,0,1,464.15,212.74Z" fill="#3aafa9"/><path d="M462.76,242.92h0a2.07,2.07,0,0,0,1.8,1L553,242a2,2,0,0,0,2-2.05v-5.83a2.05,2.05,0,0,0-2.12-2l-85.95,3.22A5,5,0,0,0,462.76,242.92Z" fill="#3aafa9"/><path d="M417.28,283.33l2.39,22.9a8.48,8.48,0,0,0,8.11,7.59l13.33.51a8.47,8.47,0,0,0,8.8-8.47v-24.7a8.48,8.48,0,0,0-9.17-8.45L425,274A8.48,8.48,0,0,0,417.28,283.33Z" fill="#3aafa9"/><path d="M464.15,276.28c22.19-.69,107.35-3.46,128.85-4.16a4.81,4.81,0,0,1,5,4.8h0a4.81,4.81,0,0,1-4.63,4.8L464.57,286.5a4.8,4.8,0,0,1-4.94-4.18l-.08-.62A4.79,4.79,0,0,1,464.15,276.28Z" fill="#3aafa9"/><path d="M462.76,306.46h0a2,2,0,0,0,1.8,1L553,305.53a2,2,0,0,0,2-2v-5.83a2,2,0,0,0-2.12-2l-85.95,3.21A5.05,5.05,0,0,0,462.76,306.46Z" fill="#3aafa9"/><path d="M417.28,346.87l2.39,22.89a8.48,8.48,0,0,0,8.11,7.6l13.33.51a8.48,8.48,0,0,0,8.8-8.47V344.7a8.47,8.47,0,0,0-9.17-8.45L425,337.54A8.48,8.48,0,0,0,417.28,346.87Z" fill="#3aafa9"/><path d="M464.15,339.81c22.19-.69,107.35-3.45,128.85-4.15a4.8,4.8,0,0,1,5,4.8h0a4.81,4.81,0,0,1-4.63,4.8L464.57,350a4.8,4.8,0,0,1-4.94-4.18l-.08-.63A4.8,4.8,0,0,1,464.15,339.81Z" fill="#3aafa9"/><path d="M462.76,370h0a2,2,0,0,0,1.8,1L553,369.07a2,2,0,0,0,2-2V361.2a2,2,0,0,0-2.12-2l-85.95,3.21A5,5,0,0,0,462.76,370Z" fill="#3aafa9"/><path d="M529.51,442.09a4.39,4.39,0,0,1-2.93-1.39c-4-3.68-4.92-9.43-5.15-14.82-1.93,2.18-3.92,4.29-5.88,6.38l-.66-.62c2.17-2.31,4.37-4.66,6.49-7.08a154.5,154.5,0,0,1,1-21.72,44.45,44.45,0,0,1,3.12-13.21,10.54,10.54,0,0,1,3.27-4.4,5,5,0,0,1,5.49-.34c1.71,1.15,2.17,3.35,2.37,4.91,1.2,9.36-2.45,17.94-5.73,23.5a79.37,79.37,0,0,1-8.59,11.59c.16,5.46.9,11.47,4.9,15.14a3.46,3.46,0,0,0,2.38,1.15c1.21,0,2.15-1.16,2.91-2.25a59.52,59.52,0,0,0,7.71-15.39,15.66,15.66,0,0,1,1.34-4.69l.86.3c-.38,1.55-.82,3.08-1.31,4.59a15.08,15.08,0,0,0,.17,4.74c.17.85.89,3.64,3,4,1.6.3,3.17-.82,5-3.52l6.22-9.44-.58,2.47c-.32,1.4-.86,4.73,1.18,5.57,1.17.48,2.39-.21,3.69-.94a6.53,6.53,0,0,1,4-1.25l.47.06-.08.47c-.34,1.93-.17,4.32,1.4,4.67,1,.22,1.88-.55,2.85-1.45a6.46,6.46,0,0,1,2.75-1.8l.21.88a5.92,5.92,0,0,0-2.34,1.59c-1.07,1-2.17,2-3.66,1.66-2.05-.45-2.48-2.89-2.19-5.2a7.16,7.16,0,0,0-3,1.16c-1.43.81-2.9,1.64-4.48,1s-2.18-2.21-2-4.52L550,429.51c-1.26,1.92-3.24,4.41-5.88,3.91-1.8-.34-3.2-2.13-3.73-4.76a15.51,15.51,0,0,1-.27-2.13,60.49,60.49,0,0,1-6.87,12.92c-.89,1.27-2,2.58-3.62,2.64Zm2.39-57a4.66,4.66,0,0,0-2.62.85,9.68,9.68,0,0,0-3,4A44,44,0,0,0,523.27,403a153.85,153.85,0,0,0-1,20.58,76.61,76.61,0,0,0,7.84-10.69c3.2-5.44,6.78-13.82,5.61-22.93-.28-2.19-.91-3.55-2-4.26A3.26,3.26,0,0,0,531.9,385.12Z" fill="#17252a"/><path d="M491.48,185.66l-8.76.32-12.93-27.53h-.34a33.76,33.76,0,0,1,.9,6.84l.76,21.09-6.66.24L463.08,148l8.81-.32L484.71,175H485a37.47,37.47,0,0,1-.74-6.58l-.75-21.06,6.6-.24Z" fill="#3aafa9"/><path d="M522.14,164.88q.35,9.56-3.37,14.75t-11,5.45l-9.45.34-1.38-38.59,10.32-.37a12.38,12.38,0,0,1,10.66,4.6Q521.82,155.9,522.14,164.88Zm-7.35.47q-.46-12.93-7.59-12.68l-2.88.11.93,26.1,2.32-.08a6.22,6.22,0,0,0,5.69-3.49C514.44,173.07,514.94,169.75,514.79,165.35Z" fill="#3aafa9"/><path d="M546.73,183.69,544.17,174l-10.06.36-1.87,9.82-7.18.26,8.18-39.1L543,145l11,38.41Zm-4.13-16-2.38-8.9c-.14-.54-.47-1.9-1-4.08s-.82-3.63-.94-4.37c-.17,1.53-.4,3.2-.69,5s-1.05,6-2.3,12.57Z" fill="#3aafa9"/><path d="M425.11,230.14h0a2.57,2.57,0,0,1,3.57.88l3.46,5.86a.82.82,0,0,0,1.47-.1l7.78-18.48a.92.92,0,0,1,1.76.35,36.13,36.13,0,0,1-9.9,25.38s-5-1.8-9.15-10.41A2.71,2.71,0,0,1,425.11,230.14Z" fill="#fff"/><path d="M425.11,293.18h0a2.57,2.57,0,0,1,3.57.88l3.46,5.86a.82.82,0,0,0,1.47-.1l7.78-18.48a.92.92,0,0,1,1.76.35,36.13,36.13,0,0,1-9.9,25.38s-5-1.8-9.15-10.41A2.71,2.71,0,0,1,425.11,293.18Z" fill="#fff"/><path d="M426.92,357h0a2.58,2.58,0,0,1,3.58.88l3.46,5.86a.82.82,0,0,0,1.47-.1l7.77-18.48a.92.92,0,0,1,1.77.35,36.13,36.13,0,0,1-9.9,25.38s-5-1.8-9.15-10.41A2.71,2.71,0,0,1,426.92,357Z" fill="#fff"/><circle cx="784.46" cy="218.99" r="56.1" fill="#17252a"/><circle cx="784.58" cy="219.6" r="50.76" fill="#fff"/><path d="M746.56,224.21s10.65,28.07,14,33.9c3.9,6.78,15.3,2.46,14.73-3.21s-13.88-29.11-13.88-29.11Z" fill="#2b7a78"/><polygon points="760.94 203.77 827.08 180.84 826.38 242.89 759.13 227.89 760.94 203.77" fill="#3aafa9"/><ellipse cx="827.14" cy="212.05" rx="6.5" ry="31.89" fill="#17252a"/><path d="M827.63,241.76c-.58-.6-1.86-2.91-3-8.86a121.67,121.67,0,0,1-1.64-21,121.59,121.59,0,0,1,1.64-21c1.1-6,2.38-8.26,3-8.86.59.6,1.87,2.9,3,8.86a121.59,121.59,0,0,1,1.64,21,121.67,121.67,0,0,1-1.64,21C829.5,238.85,828.22,241.16,827.63,241.76Z" fill="#2b7a78"/><g clip-path="url(#clip-path)"><path d="M836,211.63c0,5.42-2.92,9.81-8.69,9.81s-10.46-4.39-10.46-9.81,4.68-9.81,10.46-9.81S836,206.21,836,211.63Z" fill="#17252a"/></g><path d="M750.28,202.44a37.16,37.16,0,0,1,12.39.61,66.13,66.13,0,0,0,.49,25.91h-13.6a4.41,4.41,0,0,1-4.36-3.71c-.68-4.3-1.51-11.52-.63-17.31A6.54,6.54,0,0,1,750.28,202.44Z" fill="#2b7a78"/><path d="M758.44,208.79h-10.6a.94.94,0,0,1-.85-.5,1,1,0,0,1,0-1,.27.27,0,1,1,.46.3.42.42,0,0,0,.35.65h10.6a.42.42,0,0,0,.42-.42v-.76a.42.42,0,0,0-.42-.42H747.76a.27.27,0,0,1,0-.54h10.68a1,1,0,0,1,1,1v.76A1,1,0,0,1,758.44,208.79Z" fill="#fff"/><path d="M757.5,213.49H746.9a1,1,0,0,1-.85-.51.94.94,0,0,1,0-1,.28.28,0,0,1,.38-.08.26.26,0,0,1,.08.37.42.42,0,0,0,0,.43.4.4,0,0,0,.37.22h10.6a.42.42,0,0,0,.42-.42v-.75a.42.42,0,0,0-.42-.42H746.82a.29.29,0,0,1-.28-.28.28.28,0,0,1,.28-.27H757.5a1,1,0,0,1,1,1v.75A1,1,0,0,1,757.5,213.49Z" fill="#fff"/><path d="M770.55,202.09a.27.27,0,0,1-.08-.53l50.09-15.94a.26.26,0,0,1,.34.18.27.27,0,0,1-.17.34l-50.09,15.94Z" fill="#fff"/><path d="M763.78,204.86a.26.26,0,0,1-.25-.17.28.28,0,0,1,.15-.36l2.57-1.05a.28.28,0,0,1,.21.51l-2.58,1.05Z" fill="#fff"/><path d="M758.44,219h-10.6a1,1,0,0,1-.85-.51.94.94,0,0,1,0-1,.28.28,0,0,1,.38-.09.29.29,0,0,1,.08.38.42.42,0,0,0,.35.65h10.6a.42.42,0,0,0,.42-.42v-.75a.42.42,0,0,0-.42-.43H747.76a.27.27,0,0,1,0-.54h10.68a1,1,0,0,1,1,1V218A1,1,0,0,1,758.44,219Z" fill="#fff"/><path d="M759.43,225.09h-10.6a1,1,0,0,1-.81-1.49.27.27,0,0,1,.46.29.42.42,0,0,0,0,.43.42.42,0,0,0,.37.22h10.6a.41.41,0,0,0,.42-.42v-.75a.42.42,0,0,0-.42-.42H748.75a.28.28,0,0,1,0-.55h10.68a1,1,0,0,1,1,1v.75A1,1,0,0,1,759.43,225.09Z" fill="#fff"/><polygon points="811.42 172.53 749.24 262.03 756.74 267.18 819.69 176.76 811.42 172.53" fill="#17252a"/><circle cx="784.68" cy="98.6" r="55.87" transform="translate(554.19 855.12) rotate(-80.22)" fill="#17252a"/><circle cx="784.79" cy="99.2" r="50.55" fill="#fff"/><path d="M826.52,123.37A1.54,1.54,0,0,1,825,124.9H741.75a1.54,1.54,0,0,1-1.54-1.53l-.69-47.83a2.69,2.69,0,0,1,2.82-2.38l81.34-2.1a3.88,3.88,0,0,1,4,4Z" fill="#17252a"/><path d="M825,121.89a1.47,1.47,0,0,1-1.46,1.46H743.76a1.47,1.47,0,0,1-1.46-1.46l-.65-43.42A3.59,3.59,0,0,1,745.4,75l78-2.09a2.73,2.73,0,0,1,2.8,2.79Z" fill="#2b7a78"/><path d="M745.82,119.48c.08-3.59,0-35.37-.16-38.11s4.07-3.26,10.63-3.57,61.94-1.53,63.36-1.65c3.21-.26,3.87,4.53,3.55,14.93-.24,7.82-.64,20.68-.82,26.6a3.28,3.28,0,0,1-3.26,3.17c-13.33,0-64.39.18-67.79.28C747.41,121.25,745.78,120.9,745.82,119.48Z" fill="#fff"/><rect x="736.1" y="123.14" width="97.17" height="4.2" rx="2.1" fill="#17252a"/><circle cx="783.9" cy="66.51" r="13.66" fill="#3aafa9"/><circle cx="784.2" cy="66.8" r="11.57" fill="#fff"/><path d="M787.74,62.43c0,2-1.59,4.08-3.54,4.08s-3.55-2.12-3.55-4.08a3.55,3.55,0,0,1,7.09,0Z" fill="#3aafa9"/><path d="M779.8,74.05h8.65a2.1,2.1,0,0,0,2-1.46l.46-1.46a2.09,2.09,0,0,0-1.26-2.6,16.14,16.14,0,0,0-10.9.12,2.08,2.08,0,0,0-1.33,2.53l.35,1.32A2.11,2.11,0,0,0,779.8,74.05Z" fill="#3aafa9"/><circle cx="758.27" cy="104.44" r="13.66" fill="#3aafa9"/><circle cx="758.56" cy="104.73" r="11.57" fill="#fff"/><path d="M762.11,100.36c0,2-1.59,4.08-3.55,4.08s-3.55-2.12-3.55-4.08a3.56,3.56,0,0,1,7.1,0Z" fill="#3aafa9"/><path d="M754.16,112h8.66a2.09,2.09,0,0,0,2-1.46l.47-1.46a2.09,2.09,0,0,0-1.27-2.6,16.11,16.11,0,0,0-10.89.12,2.08,2.08,0,0,0-1.34,2.53l.36,1.32A2.09,2.09,0,0,0,754.16,112Z" fill="#3aafa9"/><circle cx="805.4" cy="104.54" r="13.66" fill="#3aafa9"/><circle cx="805.7" cy="104.83" r="11.57" fill="#fff"/><path d="M809.24,100.46c0,2-1.59,4.08-3.55,4.08s-3.54-2.12-3.54-4.08a3.55,3.55,0,0,1,7.09,0Z" fill="#3aafa9"/><path d="M801.29,112.07H810a2.1,2.1,0,0,0,2-1.45l.46-1.46a2.09,2.09,0,0,0-1.26-2.6,16.14,16.14,0,0,0-10.9.12,2.09,2.09,0,0,0-1.34,2.53l.36,1.32A2.1,2.1,0,0,0,801.29,112.07Z" fill="#3aafa9"/><path d="M759.28,88.11a.28.28,0,0,1-.22-.1.29.29,0,0,1,0-.42,51.23,51.23,0,0,1,11.52-8.53.3.3,0,0,1,.41.13.31.31,0,0,1-.13.41A50.78,50.78,0,0,0,759.49,88,.3.3,0,0,1,759.28,88.11Z" fill="#fff"/><path d="M757.91,89.32a.32.32,0,0,1-.21-.08.35.35,0,0,1-.08-.32,9,9,0,0,0,.68-3.34.3.3,0,0,1,.27-.34.31.31,0,0,1,.33.27,7.75,7.75,0,0,1-.5,3,9.11,9.11,0,0,1,3.43-.76.3.3,0,0,1,.29.32.31.31,0,0,1-.32.28,10.19,10.19,0,0,0-3.78,1Z" fill="#fff"/><path d="M770.86,82.36h-.05a.3.3,0,0,1-.25-.35,10.62,10.62,0,0,1,1.08-3.2l-3.73.45a.3.3,0,0,1-.34-.26.3.3,0,0,1,.27-.34l4.31-.53a.32.32,0,0,1,.29.14.31.31,0,0,1,0,.31,10.38,10.38,0,0,0-1.29,3.53A.31.31,0,0,1,770.86,82.36Z" fill="#fff"/><path d="M808,88.27a.3.3,0,0,1-.21-.09,50.56,50.56,0,0,0-11.38-8.42.31.31,0,0,1-.12-.41.29.29,0,0,1,.4-.13,51.47,51.47,0,0,1,11.52,8.52.3.3,0,0,1,0,.43A.32.32,0,0,1,808,88.27Z" fill="#fff"/><path d="M809.33,89.48l-.11,0a10,10,0,0,0-3.78-1,.3.3,0,1,1,0-.6,9.11,9.11,0,0,1,3.43.76,8,8,0,0,1-.5-3,.31.31,0,0,1,.34-.27.3.3,0,0,1,.26.34,9,9,0,0,0,.68,3.34.35.35,0,0,1-.08.32A.32.32,0,0,1,809.33,89.48Z" fill="#fff"/><path d="M796.38,82.52a.29.29,0,0,1-.29-.25,10.33,10.33,0,0,0-1.3-3.53.29.29,0,0,1,0-.31.28.28,0,0,1,.28-.14l4.31.53a.3.3,0,1,1-.07.6L795.6,79a10.62,10.62,0,0,1,1.08,3.2.3.3,0,0,1-.25.35Z" fill="#fff"/><path d="M781.39,116.88c-3.28,0-6.65-.17-10.16-.49a.3.3,0,0,1-.27-.33.3.3,0,0,1,.33-.28,99.28,99.28,0,0,0,19.66,0,.32.32,0,0,1,.33.27.31.31,0,0,1-.27.34A94.87,94.87,0,0,1,781.39,116.88Z" fill="#fff"/><path d="M773.26,118.24a.42.42,0,0,1-.15,0,21.1,21.1,0,0,0-4.12-1.83.28.28,0,0,1-.21-.29.29.29,0,0,1,.21-.28,11.76,11.76,0,0,0,4.08-2,.3.3,0,0,1,.42,0,.3.3,0,0,1,0,.43,11.23,11.23,0,0,1-3.42,1.84,21,21,0,0,1,3.38,1.58.3.3,0,0,1,.11.42A.31.31,0,0,1,773.26,118.24Z" fill="#fff"/><path d="M789.67,118.24a.31.31,0,0,1-.26-.15.3.3,0,0,1,.11-.42,21,21,0,0,1,3.38-1.58,11.11,11.11,0,0,1-3.42-1.84.3.3,0,0,1,0-.43.3.3,0,0,1,.42,0,11.76,11.76,0,0,0,4.08,2,.29.29,0,0,1,.21.28.29.29,0,0,1-.21.29,21.1,21.1,0,0,0-4.12,1.83A.42.42,0,0,1,789.67,118.24Z" fill="#fff"/><path d="M776.77,95.23h-1.56V88.7a5,5,0,0,1,4.26-5l3.2-.41a4.76,4.76,0,0,1,3.81,1.24,5.23,5.23,0,0,1,1.63,3.8V94h-1.56V88.29a3.52,3.52,0,0,0-1.11-2.57,3.21,3.21,0,0,0-2.58-.84l-3.2.41a3.39,3.39,0,0,0-2.89,3.41Z" fill="#17252a"/><path d="M774.47,93.61,789,92.73a1.08,1.08,0,0,1,1.09,1.13v12.58a1.08,1.08,0,0,1-1,1.12H774.87a1.08,1.08,0,0,1-1-1.08l-.34-11.71A1.09,1.09,0,0,1,774.47,93.61Z" fill="#17252a"/><path d="M784.15,104l-.88-2.76a1,1,0,0,1,.19-1,2.75,2.75,0,0,0,.69-2,2.52,2.52,0,0,0-2.3-2.49,2.49,2.49,0,0,0-2.48,2.61,2.73,2.73,0,0,0,.88,2,1,1,0,0,1,.28,1l-.79,2.49a.92.92,0,0,0,.8,1.24h2.8A.93.93,0,0,0,784.15,104Z" fill="#3aafa9"/><path d="M683,96.21s.64,1.14-3.34,3c-2.22,1-6.55,2.59-7,6.93a5.11,5.11,0,0,1-4.38,4.43c-5.92.94-15,4-16.33,13.62-1,7.36,3.07,10.09,7.3,11a5.6,5.6,0,0,1,4.63,6.37c-.55,2.81.4,6,5.64,8.51,11.72,5.55,23-13.93,23-13.93l1.8-33.75Z" fill="#17252a"/><path d="M660.55,130.84a1.07,1.07,0,0,1-.53-.17,8,8,0,0,1-3.67-8.24,7.63,7.63,0,0,1,2.81-4.74,13.32,13.32,0,0,1,3.46-1.72c2-.74,4-1.39,6.1-2l.51-.13a19.56,19.56,0,0,0,3.58-1.2,5.73,5.73,0,0,0,2.93-2.82,7.93,7.93,0,0,0,.42-2.21,6.27,6.27,0,0,1,.64-2.66s0,0,.05,0a0,0,0,0,1,0,.05,6.29,6.29,0,0,0-.64,2.63,8.07,8.07,0,0,1-.42,2.23,5.8,5.8,0,0,1-3,2.86,19.66,19.66,0,0,1-3.59,1.2l-.51.14c-2,.55-4.1,1.2-6.09,1.94a13,13,0,0,0-3.44,1.71,7.54,7.54,0,0,0-2.78,4.7,8,8,0,0,0,3.62,8.16c.21.12.6.26.77,0,0,0,0,0,0,0a0,0,0,0,1,0,.05A.39.39,0,0,1,660.55,130.84Z" fill="#bdd0fb"/><path d="M659.81,127.81l0,0a7.63,7.63,0,0,1-1.65-4.41,4.91,4.91,0,0,1,2.11-4.13s0,0,.06,0a0,0,0,0,1,0,0,4.82,4.82,0,0,0-2.09,4.07,7.6,7.6,0,0,0,1.64,4.37,0,0,0,0,1,0,0Z" fill="#bdd0fb"/><path d="M727.12,86.6s-14.4,22-31.89,26.52c0,0,3.58,9,6.24,10,0,0,21.32-17.16,26.59-33.49Z" fill="#2b7a78"/><path d="M658.86,227.23l-.42,3.68a1.56,1.56,0,0,1-1.4,1.35,26.87,26.87,0,0,1-5.27.16,1.3,1.3,0,0,1-1.19-1.67,12.89,12.89,0,0,1,2.55-4.84l4.37-.07A1.3,1.3,0,0,1,658.86,227.23Z" fill="#def2f1"/><path d="M692.31,183.66l.81,4s-2.07,23.39-2.35,32.73a6.93,6.93,0,0,0,1.24,4.14l4.4,6.44-11-5.84-.24-1.24,1.75-2.32-2.79-26.12A7.54,7.54,0,0,1,685,191l2.19-4Z" fill="#fff"/><path d="M697.14,231.94l-3.48.05a2.13,2.13,0,0,1-1.67-.74c-1.11-1.3-3.4-3.83-4.48-3.88-1.45-.07-1.18,4.73-1.18,4.73h-.81l-1.13-6a3.47,3.47,0,0,1,1.92-3.73h0a5,5,0,0,0,2.18,3.27c1.81,1,7.38,4.52,7.38,4.52a5.37,5.37,0,0,1,1.41,0A.86.86,0,0,1,697.14,231.94Z" fill="#def2f1"/><path d="M677.41,185.8s-14,25.83-16.22,31.71a54.24,54.24,0,0,0-2.94,11.24c0,.72-1,1.43-3.63,1.47a2.6,2.6,0,0,1-2.38-1,1.38,1.38,0,0,1-.09-1.4c.81-1.59,3.38-6.68,4.32-9,1.13-2.75,3.44-15.19,4.75-19.52s2.79-9,8.75-13.42C670,185.92,674,182.07,677.41,185.8Z" fill="#fff"/><path d="M677.67,151.13c1.45-4.29,8.15-7.43,8.15-7.43,3.47-14.82-6.12-23-6.12-23,5.87-5.43,16.69-8,16.69-8s10.48,6.92,9.35,12.48c-.67,3.26-7,19.55-7,19.55l-.6,39.72a2.63,2.63,0,0,1-2.39,2.49c-9.83,1.2-26.28-.61-26.28-.61C675.26,176.38,676.23,155.42,677.67,151.13Z" fill="#2b7a78"/><path d="M689.44,103l-2.81,12.77c-.27,1.12.82.92,2,.69,2-.38,4.53-1.14,5.36-2.6a1.27,1.27,0,0,0,.14-.48l1.16-8.84a1.58,1.58,0,0,0-1-1.65l-2.53-1A1.73,1.73,0,0,0,689.44,103Z" fill="#fff"/><path d="M727.09,91.09c.06.45-1.73.79-2.34-1.12.15-.84.36-4.49,1-5.07a73.17,73.17,0,0,1,10-6.57,1.2,1.2,0,0,1-.19,1.73l-3.21,2.09a11.29,11.29,0,0,1,.94,3.15,3.39,3.39,0,0,1-.91,2.49c-.64.7-1.49,1.6-2.26,2.29A3.94,3.94,0,0,1,727.09,91.09Z" fill="#fff"/><path d="M728.72,89.54l-.28-.11A25.07,25.07,0,0,1,730.72,85a1.08,1.08,0,0,0,.42-.78.65.65,0,0,0-.26-.43l-2.71,1.4L727,86.93l-.25-.17L728,85l2.95-1.53.07.06a1,1,0,0,1,.47.71,1.4,1.4,0,0,1-.52,1A26.08,26.08,0,0,0,728.72,89.54Z" fill="#fff"/><path d="M694,92.44s3.25,2,4.73,7.14-.75,7-3.05,7a11,11,0,0,1-8.61-4.36C684.08,98.52,689.71,90,694,92.44Z" fill="#fff"/><path d="M689.91,100.05s-1.3-7.39,5.31-6.36L696.58,95s3.16-3.45-.45-6-8.56-1.78-11.22,2.93-3.6,8-1.25,10.88,4,.35,4,.35-1.1-2.49-.24-3.58,2,.59,2,.59Z" fill="#17252a"/><path d="M689,100.7s-.64-3.8-2.71-2.68.81,3.55,2,4.38Z" fill="#fff"/><path d="M710.37,130.71a1,1,0,0,1,1.08,1.07l-4,26.25a1,1,0,0,1-.93.81l-44.62,2.41a1,1,0,0,1-1.06-.88l-1.54-24.85a1,1,0,0,1,.92-1Z" fill="#17252a"/><path d="M706.77,129a1,1,0,0,1,1.17,1l-.42,28.4a1,1,0,0,1-1,1L662,161.74a1,1,0,0,1-1.11-.86l-3.53-26a1,1,0,0,1,.93-1.1Z" fill="#fff"/><path d="M702.3,127.59a1.3,1.3,0,0,1,1.54,1.06L707.35,158a1.25,1.25,0,0,1-1.22,1.36l-43.81,2.37a1.29,1.29,0,0,1-1.37-1.11l-2.25-24.17a1.23,1.23,0,0,1,1.06-1.3Z" fill="#17252a"/><path d="M685.85,127.46l-6.1-6.89s-10.48,9.6-13.32,20.82l5.38,3.05C675.07,137.85,678.47,132.68,685.85,127.46Z" fill="#2b7a78"/><path d="M674.15,161a1.3,1.3,0,0,1-1.17-.69,30.68,30.68,0,0,0-2.24-3.86,2.9,2.9,0,0,1,1.7-.07c1.1.22,2-.21,2-.78l-5.14-2c-.2-.48-1-3.2,2.47-9.19l-5.38-3.05a22.26,22.26,0,0,0,.66,13.62s1.1,5.45,3.15,6.52,5.12-.53,5.12-.53Z" fill="#fff"/><circle cx="781.66" cy="341.22" r="56.29" fill="#17252a"/><circle cx="781.77" cy="341.83" r="50.93" fill="#fff"/><path d="M779.83,297.89l-34.56,28.57a4.51,4.51,0,0,0,2.23.45L813,323.5a4.6,4.6,0,0,0,2.91-1.24l-25.71-24.08A8,8,0,0,0,779.83,297.89Z" fill="#17252a"/><path d="M811.67,375.26h-63a4.61,4.61,0,0,1-4.61-4.61v-41a4.6,4.6,0,0,1,4.35-4.6l65.48-3.65a4.61,4.61,0,0,1,4.86,4.85l-2.44,44.7A4.61,4.61,0,0,1,811.67,375.26Z" fill="#3aafa9"/><path d="M781.62,350.49l34.46-28.7a4.51,4.51,0,0,0-2.23-.44L748.37,325a4.55,4.55,0,0,0-2.9,1.24l25.79,24A8,8,0,0,0,781.62,350.49Z" fill="#17252a"/><g clip-path="url(#clip-path-2)"><path d="M806.5,358H754.59V308.55c0-1.89,1.76-3.46,4-3.57L802,302.89c2.44-.12,4.5,1.51,4.5,3.56Z" fill="#3aafa9"/><path d="M804.73,358H756.37V311.94a3.65,3.65,0,0,1,3.74-3.33l40.42-1.95c2.28-.11,4.2,1.41,4.2,3.32Z" fill="#fff"/><rect x="759.69" y="313.72" width="41.92" height="1.06" rx="0.53" transform="translate(-3.84 9.7) rotate(-0.71)" fill="#3aafa9"/><rect x="759.33" y="318.6" width="41.92" height="1.06" rx="0.53" transform="translate(-3.9 9.7) rotate(-0.71)" fill="#3aafa9"/><rect x="759.44" y="323.25" width="41.92" height="1.06" rx="0.53" transform="translate(-3.96 9.7) rotate(-0.71)" fill="#3aafa9"/><rect x="759.36" y="328.12" width="41.92" height="1.06" rx="0.53" transform="translate(-4.02 9.7) rotate(-0.71)" fill="#3aafa9"/></g><polygon points="807.86 293.83 746.32 381.81 753.74 386.87 816.05 297.99 807.86 293.83" fill="#17252a"/><path d="M685,469.36c2.91.26,8,.66,11.93.84a11.51,11.51,0,0,0,4.56-.45,2.17,2.17,0,0,1,0,.26.82.82,0,0,1-.78.77,139.87,139.87,0,0,1-15.62,0,.59.59,0,0,1-.48-.88A6.47,6.47,0,0,1,685,469.36Z" fill="#2b7a78"/><path d="M696.94,470.2c-4-.18-9-.58-11.93-.84,2.86-3.5,11.93-5.87,11.93-5.87h2.56a10.77,10.77,0,0,1,2,6.26A11.51,11.51,0,0,1,696.94,470.2Z" fill="#17252a"/><path d="M699.93,459.31l-.24,4.75a1.09,1.09,0,0,1-.92,1,4.32,4.32,0,0,1-1.93-.16,1.3,1.3,0,0,1-.86-1l-.83-4.62Z" fill="#fff"/><path d="M733.21,470.16a2.29,2.29,0,0,0,2.07-1.53v0a1.65,1.65,0,0,1-1.11,1.87,7.29,7.29,0,0,1-3,.48,3,3,0,0,1-2.3-1.06h0C729.78,470.4,731.11,470.46,733.21,470.16Z" fill="#2b7a78"/><path d="M727.27,459.28h2.11c3.22-.06,5.24,6.72,5.9,9.35a2.29,2.29,0,0,1-2.07,1.53c-2.1.3-3.43.24-4.38-.23a20.3,20.3,0,0,1-3-7.59A2.67,2.67,0,0,1,727.27,459.28Z" fill="#17252a"/><path d="M729.11,454.88l1.17,4.66a1.26,1.26,0,0,1-.66,1.44,4.48,4.48,0,0,1-2.43.59,1.07,1.07,0,0,1-.86-.71L724.61,456Z" fill="#fff"/><path d="M730.51,456.23c-1.46,1.29-6.21,1.46-6.21,1.46-17.1-41.05-24.1-46.88-24.1-46.88,2.47,15.49.4,49.8.4,49.8-2.82,1.24-6.46,0-6.46,0a264.21,264.21,0,0,0-8.74-64.93c11.56-.26,17.71-4.22,19.72-5.8C714.76,405.41,730.51,456.23,730.51,456.23Z" fill="#17252a"/><path d="M702.18,342.67c2.19,10.91,1.41,30.45.89,39.36-.14,2.5,1.61,6,3,8.34a.75.75,0,0,1-.3,1.05,51.7,51.7,0,0,1-19.67,5.45,1.32,1.32,0,0,1-1.33-1c-6.89-25.73-14.9-42.17-14.9-42.17C678.73,339.6,702.18,342.67,702.18,342.67Z" fill="#3aafa9"/><path d="M699,409.84a.6.6,0,0,0,.29-.08.54.54,0,0,0,.18-.75,17.05,17.05,0,0,0-6.78-5.89.55.55,0,0,0-.73.25.56.56,0,0,0,.25.74,16.29,16.29,0,0,1,6.33,5.47A.55.55,0,0,0,699,409.84Z" fill="#2b7a78"/><path d="M715.91,374A37.43,37.43,0,0,1,709,390.51l-1.57-1.29a48.69,48.69,0,0,0,.78-15.78A18.94,18.94,0,0,1,715.91,374Z" fill="url(#linear-gradient)"/><path d="M699.74,356.13l2.44-13.46s16.33,12.48,13.73,31.32a18.94,18.94,0,0,0-7.73-.55C707.44,367.39,705.21,360.82,699.74,356.13Z" fill="#3aafa9"/><path d="M670.08,353.91l7.53,12.93c-.25,8.25-4.31,12.19-8.91,14a28.56,28.56,0,0,0-2.93-8.6C671.23,365.42,670.08,353.91,670.08,353.91Z" fill="#3aafa9"/><path d="M665.77,372.22a28.56,28.56,0,0,1,2.93,8.6,19,19,0,0,1-21.13-2.36l7-1.38C659.93,377.15,663.45,375.11,665.77,372.22Z" fill="#fff"/><path d="M675.7,337l3,11.19a2.18,2.18,0,0,0,2.91,1.45,43.8,43.8,0,0,0,4.39-2,2.92,2.92,0,0,0,1-4.21l-6.32-9.43Z" fill="#fff"/><path d="M669,328.46c0,.19,2.54,12.76,2.54,12.76l7.15-1.62-.66-12.28S669.51,325.24,669,328.46Z" fill="#fff"/><path d="M676.46,330.06l.85,6.44a.49.49,0,0,1,0,.24c-.07.51-.44,2.22-2.18,1.73-1.57-.44-3-.83-4-.52a.9.9,0,0,0-.62,1.05,38.77,38.77,0,0,0,1.64,5.86.91.91,0,0,0,1.1.53,28.87,28.87,0,0,0,6.3-2.58A.88.88,0,0,0,680,342c-.07-1.63-.26-6.57-.1-7.95s1.75-2.08,2.44-2.36a.88.88,0,0,0,.5-.5,2.35,2.35,0,0,0-1.58-3.42.92.92,0,0,1-.58-1.18,2.34,2.34,0,0,0-1.32-3.25,3.31,3.31,0,0,0-4,1,.91.91,0,0,1-1.16.14.71.71,0,0,0-.82,0,.9.9,0,0,1-1.26-.39,2.71,2.71,0,0,0-3.15-1.56c-3.2.54-3.56,4.09-2.72,6.17s4.29,1.29,6,.24c1.31-.8,3,0,3.75.49A.89.89,0,0,1,676.46,330.06Z" fill="#17252a"/><path d="M680.17,336.4s-1.31-3.69,0-4.6,3.35-.43,2.91,2.24C682.57,337.36,680.17,336.4,680.17,336.4Z" fill="#fff"/><path d="M651,384c-.64.5-2.82-.54-4.16-1.26a1.55,1.55,0,0,1-.74-1.82c.32-1,.86-2.32,1.52-2.49C648.66,378.19,653.58,382,651,384Z" fill="#fff"/><path d="M759.94,359.72,596,390.52l4.44,24.15,164.67-29.43a7.34,7.34,0,0,0,6-7.23c0-3.64-1-8.79-4.59-15.22A6.28,6.28,0,0,0,759.94,359.72Z" fill="#2b7a78"/><path d="M551,409.84l20.1-8.63c1.48,2.6,2.58,6.43,1.95,11.93l-21.68-1.21A1.09,1.09,0,0,1,551,409.84Z" fill="#2b7a78"/><path d="M596,390.52a30.24,30.24,0,0,1,4.44,24.15L573,413.14c.63-5.5-.47-9.33-1.95-11.93Z" fill="#fff"/><path d="M761.82,366.82a.49.49,0,0,0,.22-.49.46.46,0,0,0-.54-.36L604.83,395.73a.46.46,0,1,0,.17.91l156.67-29.77Z" fill="#fff"/><path d="M764.14,376a.46.46,0,0,0-.32-.85L607.15,404.87a.46.46,0,1,0,.17.9L764,376A.47.47,0,0,0,764.14,376Z" fill="#fff"/><path d="M708.19,395.46l-7.37-.6-3.19,2.94s.76,1.05,3.12.45a33.91,33.91,0,0,1,5.59-.75s3.26,1.47,3.3-1.28Z" fill="#fff"/></g></g></svg>