<svg id="Layer_3" data-name="Layer 3" xmlns="http://www.w3.org/2000/svg" viewBox="0 0 500 500"><title>ENABLE UPDATED</title><rect x="-4.32" y="-1.33" width="500" height="500" fill="#3aafa9"/><path d="M308.19,259.1c32.15-27.54,41.71-77.84,19.71-110.2-12.67-18.66-32.21-26-41.81-28.86-4-5.81-14.1-18.73-31.23-23.43-29.86-8.21-55.78,15.51-59.44,18.86C161.1,146.86,148.18,223.55,195,261,225.48,285.34,275.09,287.46,308.19,259.1Z" fill="#17252a"/><rect x="230.13" y="213.39" width="36.86" height="45.45" fill="#fff"/><path d="M267,213.39v21.88c-19.44,1.42-30.56-1.1-36.85-5V213.39Z" fill="#def2f1"/><path d="M303.39,186.09c-3.52,9.36-12.06,14.8-19.09,12.16s-9.89-12.36-6.37-21.72S290,161.73,297,164.37,306.9,176.74,303.39,186.09Z" fill="#fff"/><path d="M199.64,186.09c3.51,9.36,12.06,14.8,19.09,12.16s9.89-12.36,6.37-21.72S213,161.73,206,164.37,196.13,176.74,199.64,186.09Z" fill="#fff"/><path d="M285.81,177.42c5.93,16.31-12.78,48.87-36.72,48.87-20.28,0-36.72-21.88-36.72-48.87,0-29.39,29.5-52.44,36.72-48.86,2.9,1.44.52,6.33,3.13,14.72C258.45,163.29,280.76,163.53,285.81,177.42Z" fill="#fff"/><path d="M352,386.6H141.71v-41A105.15,105.15,0,0,1,246.86,240.48h0A105.15,105.15,0,0,1,352,345.63Z" fill="#2b7a78"/><rect x="325.44" y="321.23" width="57.91" height="65.93" fill="#def2f1"/><path d="M401.79,354.42A10.41,10.41,0,0,1,383.35,361v14a21.58,21.58,0,0,0,8,1.5,22.11,22.11,0,1,0,0-44.22,21.58,21.58,0,0,0-8,1.51v14a10.41,10.41,0,0,1,18.44,6.64Z" fill="#def2f1"/><rect x="72.6" y="387.16" width="352.99" height="17.91" fill="#17252a"/><path d="M133.18,346.54c-1.21-31.27-.77-70.71,9.59-72.94a4.24,4.24,0,0,1,2.84.31C154,278.24,144.32,313.45,133.18,346.54Z" fill="#17252a"/><path d="M133.18,346.54c-15.29-26.81-22.67-31.68-26.51-30.49a4.65,4.65,0,0,0-2.87,3.05C101.14,327.76,126.39,342.65,133.18,346.54Z" fill="#17252a"/><path d="M133.18,346.54s14.27-41.07,24.13-38.63S133.18,346.54,133.18,346.54Z" fill="#17252a"/><polygon points="110.79 386.6 149.84 386.6 153.29 338.79 107.33 338.79 110.79 386.6" fill="#def2f1"/><rect x="166.57" y="280.29" width="160.59" height="106.87" rx="8.86" fill="#fff"/><circle cx="246.86" cy="337.04" r="12.4" fill="#def2f1"/><path d="M369.71,405.07a237.7,237.7,0,0,1-37,17.76c-38.49,14.4-70.88,13.29-94.8,12.54a8.53,8.53,0,0,0-1,0c-.76-.05-1.56-.05-2.31-.09-39.6-1.64-79.69-10.19-114.95-28.66-.93-.49-1.86-1-2.79-1.51Z" fill="#17252a"/></svg>