<svg xmlns="http://www.w3.org/2000/svg" viewBox="0 0 1020 500"><title>ENABLE UPDATED</title><g id="OBJECTS"><rect id="background" x="0.06" y="-0.97" width="1019.88" height="500" fill="#def2f1"/><polygon points="484.98 78.56 587.34 110.5 631.68 209.69 615.15 292.9 420.45 308.77 355.06 207.28 406.96 133.12 484.98 78.56" fill="#3aafa9"/><polygon points="410.58 238.23 543.17 196.11 644.98 285.15 610.53 415.85 558.42 447.53 410.05 437.66 364.25 337.85 410.58 238.23" fill="#3aafa9"/><polygon points="469.75 186.21 494.25 228.24 546.26 213.48 565.58 181.62 541.41 124.57 476.66 140.15 465.5 148.63 469.75 186.21" fill="#fff"/><polygon points="422.47 251 444.24 145.26 597.89 147.35 613.67 236.53 594.24 278.9 422.47 251" fill="#3aafa9"/><path d="M343.93,187.55m8.45-9.7c6.23-1.5,7.38-7.79,9-13.07,1.9-6.18,3.45-12.46,4.92-18.75,2.91-12.52,5.46-25.17,9.71-37.33a95.78,95.78,0,0,1,12-24c15.87-22.29,44.59-34.53,71.74-31.09,40.87,5.18,73.8,41.84,115,42.3C588,96,601,92.34,614.27,92.16c33.52-.45,65.66,24.66,73.32,57.29,4.48,19,1.37,39.48,7.57,58,4.57,13.67,13.86,25.28,19.22,38.65a72.9,72.9,0,0,1-1.08,56c-9.73,21.84-29.75,37.7-40.07,59.26-9.72,20.29-10.24,44.36-21.83,63.64s-33.85,31.24-56.17,30.4c-4.35-.17-9.09-1-11.9-4.31-2.22-2.61-2.76-6.21-3.21-9.6-3.1-23.19-6.14-47.18.39-69.65,2.59-8.89,6.63-18.47,3-27,8.67.07,13.31-9.95,15.78-18.26,2.94-9.88,5.11-22.45-3-28.87,3.36-7,6.69-14.34,6.86-22.13s-3.67-16.19-10.93-19A36.4,36.4,0,0,0,597.66,244a29.72,29.72,0,0,0-12.51-.91c9.38-24.07-13.19-50.17-9.1-75.67,1.1-6.88,4.13-13.38,4.77-20.32,1.27-13.94-7.44-27.12-18.41-35.82C546.14,98.38,523.79,93,503.77,98.45S466.86,120.69,462.63,141c-2.07,10-1.23,20.37-3,30.41-2.11,11.94-7.82,22.9-11.27,34.51S444,231,450.9,241a35.06,35.06,0,0,0-29,26.32l-10.74,1.9a7.52,7.52,0,0,0,4.8,6.37c-6.58,2-7.45,11.29-4.71,17.59s7.75,11.77,8.66,18.58c.94,7-2.43,15.11,2,20.63,2.42,3,6.74,4.43,8.39,7.95,2,4.35-1,9.88,1.18,14.16,1.35,2.67,4.35,4,6.19,6.4,2.92,3.72,2.41,9,1.76,13.68q-5.07,36.48-10.15,73c-18.15-1.79-36.51-4.57-53-12.3s-31.15-21.07-36.76-38.42c-6.68-20.67,0-44.32-8.83-64.18-5.35-12.09-15.77-21.14-22.88-32.29-11.53-18.1-12.32-41.67-4.44-61.34a66.68,66.68,0,0,1,13.9-21.66c2.81-2.88,6.47-5.12,8.8-8.4,2.1-2.94,3.68-7,6.18-9.8a10.22,10.22,0,0,0,2-3.49c1.16-3.32,5.07-10.28,18.16-17.79M652.79,249c-2.15.54-3.36,2.12-2.31,4,.64,1.14,2.71,1.48,4.14,2.18,5.51,2.86,11.06,2,16.51-.08,4.26-1.66,5.25-4.54,3.3-7.3l-17.27,5.48c0-.26,0-.53,0-.8L673.69,245c1.17-1,2.68-1.93.09-3l-5.41-2.27c-.23-.48-.46-1-.68-1.45-.8-2.51-2.78-2.57-4.83-2.23C657.61,236.88,652.47,243.59,652.79,249ZM631.53,130.09c1.5.06,3,.17,4.49.17,7,0,13.64-4.71,15.37-11.43.39-1.51-.95-3.54-1.76-5.21a4,4,0,0,0-2.71.57c-5.65,4.81-11.2,9.73-16.77,14.62l-3.32-2.92c2.61-6.15,5.23-12.29,7.79-18.46.47-1.11,1.24-3.07.87-3.37-1.23-1-3.54-2.31-4.33-1.8-2.57,1.67-5.31,3.72-6.77,6.3-3.15,5.55-1.34,11.32.73,16.88-2.06,3.25-2,5.69.5,7C628.42,134,630.33,132.82,631.53,130.09Zm2,83.12c4.61,3,9.46,5.6,13.81,1.18,6-6,.34-11.32-2.46-16.76,4.72-2.94,10.71-5,9.09-12.11-1.51-6.63-7.28-6.48-12.4-6.57-1.18-5.8-.4-12.71-7.65-14-9.09-1.56-12.1,5.42-14.49,12.34a9.4,9.4,0,0,1-1.36-.16c-4.09-1.21-7.52-.18-9.81,3.39a7.85,7.85,0,0,0,.64,9.74c1.69,2.1,1,3.27-1,4.77-3.29,2.48-4,5.68-2.61,8.94,1.57,3.62,4.68,5.31,8.79,4.77.95-.12,1.89-.28,3.23-.49.11,4.67.28,9.39,5.46,10.94S631.23,217.78,633.5,213.21ZM390.35,202.63c-3.55.94-7.25,1-8.09,5s1.06,6.62,4.67,8.36c.69.33,1.08,1.84,1.13,2.82.27,4.56,1.66,5.94,6.35,6.51a6,6,0,0,1,3.32,1.76c3.52,3.61,7.85,3.58,10.2-.82,1.56-2.93,3.45-3.31,6.28-3.19a5.38,5.38,0,0,0,5.75-6.47,34.39,34.39,0,0,0-2-5.11c3-2.84,6.42-5.87,3.24-10.68-2.8-4.22-6.12-4.57-15.05-1.61-1.51-5.35-4.37-9.6-10.75-8.05C389.47,192.62,390.15,197.84,390.35,202.63Zm14.24-81.75a21.91,21.91,0,0,0-2.51-1.42c-3.56-1.55-7.28-2.18-10.75-.06-3.31,2-4,5.66-3.16,8.94a25.19,25.19,0,0,0,4.7,9.88c6.59,7.65,15.85,11.47,24.74,15.68,1.89.89,3.57.6,4.16-2.06,2.49-11.28,5.27-22.47,3.83-34.23-.46-3.81-2.07-6.52-5.4-7.81s-7.05-1.07-9.56,2.06C408.47,114.58,406.74,117.64,404.59,120.88ZM375.15,257.6c-1.18-1.32-1.63-1.89-2.14-2.4-2.51-2.51-5.26-3.89-9-2.91a8.46,8.46,0,0,0-6.41,7,20.71,20.71,0,0,0,.12,9.27c3.38,12,12.55,19.77,21.15,27.88,1.61,1.52,3.11.51,3.76-1.29,2.56-7,5.41-13.93,7.38-21.1,1.43-5.18,2.87-10.65.46-16.1-2.91-6.59-8.57-8.7-13.25-3.25C376.53,255.49,376,256.37,375.15,257.6ZM629.41,126.82a20.82,20.82,0,0,0,3.31-1.87c4.64-4.29,9.27-8.59,13.79-13,2.28-2.23,2.32-5.5.36-7.27a5.86,5.86,0,0,0-8.33.62,44.55,44.55,0,0,0-3.48,4.84C632.14,115,629.61,120.1,629.41,126.82Zm-174-56.4c-4,0-6.42,2.39-6.46,6.19a6,6,0,0,0,6.37,6.28,6.27,6.27,0,0,0,6.19-6.59C461.49,72.48,459.3,70.37,455.36,70.42Zm-7.37,40,1.7.06c1.3-1.54,3.46-3,3.69-4.66.35-2.51-1.61-4.48-4.38-4.53-2.59,0-4.58,1.61-4.2,4.15C445.07,107.24,446.87,108.79,448,110.44ZM629.27,254.52a5.94,5.94,0,0,0-5.67-5.43,5.52,5.52,0,0,0-5.38,5.56c.08,3.22,2.25,5.24,5.59,5.21S629.37,257.62,629.27,254.52ZM613,154.35c-2.24-1.72-3.52-3.46-4.79-3.45s-3.35,2.17-3.18,3a5.69,5.69,0,0,0,3.27,3.61C609.11,157.77,610.66,156,613,154.35Zm-169.58,9.72c-1.69,2.12-3.56,3.47-3.38,4.48.22,1.35,2,2.42,3.17,3.61,1.1-1.09,2.93-2.08,3.1-3.3S444.83,166.32,443.38,164.07ZM338.05,239.22l-1.51.05c-.84,1.28-2.45,2.64-2.32,3.8s1.93,3.11,3,3.15,3.21-1.81,3.25-2.89C340.57,242,339,240.59,338.05,239.22Zm32.13-14.61c-1.69-1.29-2.61-2.47-3.66-2.62-.71-.1-2.32,1.34-2.26,2,.08,1,1.13,2.61,1.95,2.73C367.18,226.84,368.33,225.66,370.18,224.61Zm236.89-83c.94-2,1.82-3.07,1.85-4.2,0-.59-1.6-1.85-2.2-1.7-1,.24-2.44,1.49-2.37,2.16C604.47,138.91,605.7,139.84,607.07,141.6ZM441.47,184c-1.69-1-2.68-2-3.51-1.9s-1.63,1.33-2.44,2.07c.9.75,1.73,1.94,2.73,2.11C439,186.43,439.92,185.19,441.47,184Zm-92,48.77c1.18-1.31,2.55-2.3,2.39-2.75-.39-1.1-1.48-1.95-2.28-2.91-.68.73-1.89,1.44-1.9,2.18C347.65,230.26,348.59,231.22,349.46,232.79Zm271.75-87.42c-1.26-1.06-2.13-2.29-2.74-2.18-.93.17-1.67,1.29-2.5,2,.78.76,1.45,1.92,2.35,2.14C618.94,147.48,619.88,146.33,621.21,145.37Z" fill="#3aafa9"/><path d="M498.18,474.19c2.46-.15,4.93-.44,7.38-.4,16.1.23,32.16-.14,48.06-3a28,28,0,0,0,4.17-1.41l2.64-.26,2.36-1.91,2-.24c1.74,0,3.61.5,5.19,0,4-1.22,7.87-2.87,11.79-4.34q1,7.33,1.93,14.68c-.4.22-.86.69-1.21.63-6.25-1.15-12.32-2.75-17.43-6.84a12.82,12.82,0,0,0-2.51-1.26l-.43,1c6.06,5.86,13.65,8.09,21.9,8.73l1.14,9.8v8.1h-69.7l1.23-22.6-1.67-.08-1,22.67-82.26.1a6.58,6.58,0,0,1-1.15-.24v-14c3.27-.5,6.7-.52,9.75-1.61,5.37-1.94,10.26-4.84,12.93-10.33q21.24,1.2,42.49,2.4a3.41,3.41,0,0,1,1,.44c.29,7.74.86,15.42,5.28,22.68C500.67,488.89,499.43,481.54,498.18,474.19Z" fill="#042e3c"/><path d="M523.38,81.7l0,.08c-.47,1.12-14-13-15-13.86a109.33,109.33,0,0,0-17.9-14C477.77,46,463.16,40.83,448.08,40.5a78.15,78.15,0,0,0-46.61,14.63,86.67,86.67,0,0,0-30,38.79c-9.92,25.23-8.16,53.4-13.54,80-.6,3-2.22,8.14-6,7.79-1.41-5.3,4.37-11,5.41-16.06A259,259,0,0,0,361,138.78c1.35-13.67,1.33-27.58,6.22-40.65a100,100,0,0,1,15-26.88,89.2,89.2,0,0,1,21.1-19.69c11.05-7.27,22.87-11.81,36.25-13a76.06,76.06,0,0,1,27.52,2.75,98.28,98.28,0,0,1,24.77,10.73c8,5,15,11.67,22.14,18C516.15,72,524.32,79,523.38,81.7Z" fill="#3aafa9"/><path d="M679.31,301.1c-2.9,2.62-5.82,5.21-8.69,7.86-2.11,1.93-3.78,1.36-5.17-.82s-2.57-4.16-3.84-6.24q-3-7.11-6.07-14.23l-.63-1.54c-1-5.47-1.44-10.84,1.4-16,1.56-2.82,3.59-4.75,7-4.88,3.55-.14,6.58.6,8.55,4.06,2.53,4.43,2.55,4.09,7.28,2.31a17.86,17.86,0,0,1,8.58-1.17c6,.92,9,6.86,5.82,12.09s-7.55,10.09-11.39,15.09C681.19,298.8,680.24,299.94,679.31,301.1ZM668,305.24c6.54-3.5,17-14.68,21.54-22.36,1.52-2.57,2.33-5.24.36-7.59-2.19-2.6-5.4-2.62-8.22-1.06-2.22,1.22-4.06,3.13-6.1,4.69-1.2.91-2.45,1.74-3.68,2.61-.41-1.33-.82-2.66-1.21-4a1.14,1.14,0,0,1,0-.37c-.14-4.47-2.69-8.05-6-8.34-3.5-.32-6.13,2.44-6.92,7.3a12.94,12.94,0,0,0-.09,1.87C657.59,288.37,662.83,296.63,668,305.24Z" fill="#fff"/><path d="M715.62,247.28c-1.84-2.21-3.31-4.55-3.31-7.42,20.35,8.4,23,44.77,16.05,61.93-5.82,14.43-17.42,25.59-27.7,37.27a257.64,257.64,0,0,0-19.19,24.72c-5.53,8.07-9.73,18.71-16.08,25.8-3.54-14.3,18.18-33.3,26.72-42.66,12-13.2,24.92-26.15,32.38-42.37s8.36-36.88-2.91-50.73C719.93,251.8,717.58,249.64,715.62,247.28Z" fill="#3aafa9"/><path d="M637.62,95.42a67.47,67.47,0,0,1-9.85,0c-3.44-.41-7.9-1.58-10.24-4.13,13.32-.7,27,.73,39.49,5.49,18.21,6.91,33.37,17.77,42.41,36,6.29,12.69,7,25.65,4.21,39.15-2.25,10.79-4.56,21.57-6.86,32.35a11.6,11.6,0,0,1-.7,1.73c-1.67-.06-3.55.23-3.69-2.29,1-.76,2.53-1.37,2.77-2.32,4.61-18.56,11.2-38.28,6.28-57.52-3.81-14.89-14.28-27.53-27.07-36.05A81.09,81.09,0,0,0,652.21,97.5a47.28,47.28,0,0,0-11.66-2.08C639.57,95.38,638.6,95.39,637.62,95.42Z" fill="#3aafa9"/><path d="M322.82,319.9c2.18,1.65,3.79,3.63,2.68,5.75-13.56-4.91-27-18.74-33-31.63-4.35-9.3-5.24-20-3.43-30.14,2-11,7-22.8,14.18-31.43a12.41,12.41,0,0,1,3.65-2.91c-.43,4.9-6.4,10.33-8.8,14.68a65.27,65.27,0,0,0-7,18.86c-2.32,11.77-.72,24.53,5.72,34.66,5,7.8,12.47,13.67,20.29,18.61C318.35,317.16,320.82,318.39,322.82,319.9Z" fill="#3aafa9"/><path d="M432,464.09c4.57,3.94,10,5.63,15.91,6a17.19,17.19,0,0,1,3.82,1.19c-5.44,6.74-12.59,10-21.13,10.56Q431.31,473,432,464.09Z" fill="#042e3c"/><path d="M359.53,445.09c-1.88-.75-4-3.63-5.56-5a63.83,63.83,0,0,1-6.44-5.94c1.17-1.17,5.7,3.54,7.18,4.61a66.5,66.5,0,0,0,8,5,71,71,0,0,0,17.66,6.46,68.86,68.86,0,0,0,37.19-1.88c2.84-1,6.66-2.55,9.51-.9-3.77,2.11-9.11,3.33-13.38,4.2-16.51,3.38-32.74,2.72-48.39-4.21C363.41,446.55,361.46,445.85,359.53,445.09Z" fill="#3aafa9"/><path d="M430.62,481.86c8.54-.53,15.69-3.82,21.13-10.56l1.49,0c-2.67,5.49-7.56,8.39-12.93,10.33-3.05,1.09-6.48,1.11-9.75,1.61Z" fill="#3aafa9"/><path d="M514,497.43l1-22.67,1.67.08-1.23,22.6Z" fill="#3aafa9"/><path d="M313.06,316.91l2.24,1.5Z" fill="#fdfbfa"/><path d="M565,77c.2.51.41,1,.62,1.54C565.44,78,565.23,77.52,565,77Z" fill="#fee2da"/><path d="M710.34,236c-.5-.5-1-1-1.48-1.51C709.35,235,709.84,235.46,710.34,236Z" fill="#f9f0ee"/><polygon points="432.73 259.49 475 229.69 555.52 199.49 579.02 217.66 581.5 227.81 564.04 428.68 449.84 441.39 449.15 385.89 430.62 324.43 437.62 301.11 432.73 259.49" fill="#2b7a78"/><path d="M587.88,244.36c.38-.25.76-.48,1.15-.69,1.93-1.09,4.29-1.81,6.33-1,5.26,2.2-.13,7.74-1.8,10.31a4.67,4.67,0,0,0-.75,4.21c.58,1.39,2.07,2.13,3.45,2.75,2.74,1.25,7.92,2.93,6.48,7.07-.23.64-.63,1.22-.83,1.88-.45,1.46.16,3,.53,4.5,1.51,6,.22,11.76-6.25,11.89-3.59.08-6.43,3.14-9.93,3.95s-7.48-.84-11.06.1c-2.85.75-5,3-7,5.23-13,15-22.34,32.84-34.6,48.47-3,3.87-6.79,7.89-11.7,8.22s-9.34-3.29-12.73-7a85.21,85.21,0,0,1-12.08-16.93c-1.07-2-4.52-6.83-4.13-9.12.45-2.67,5.54-5,7.62-6.49q19.41-14,38.81-28c11.18-8.06,17.78-16,19.9-30,.94-6.17,1.37-12.45,3.14-18.43a5.22,5.22,0,0,1,1.45-2.68c3.86-3.2,4.06,6.22,4.14,8,.24,4.93-2.19,13.56,5.25,12.65C579.05,252.63,583,247.52,587.88,244.36Z" fill="#fff"/><path d="M458.86,311.17c-2.08-1.59-4.07-3.42-6.51-4.45-3-1.28-6.07-.87-9.26-.65-4.39.3-8.77.74-13.14,1.29-3.17.41-8.75,2.63-11.21-.05a22.13,22.13,0,0,1-4.32-8.14,30.29,30.29,0,0,0-1.4-4.42c-.67-1.28-1.89-2.22-2.44-3.61a31.06,31.06,0,0,1-1.51-6.54,7.38,7.38,0,0,1,.09-3.85c1.1-2.74,4.8-3.17,7-5.16-2.4-1.2-5.12-2.89-5.22-5.56a1.4,1.4,0,0,1,.25-1,1.74,1.74,0,0,1,.91-.42c7.05-1.61,14.55-1.29,21.69-.48,6,.69,11.06,2,15.66,6.15,1.67,1.51,3.7,2.39,5.55,3.62,1.62,1.07,2.72,2.3,4.47,3.22,4.63,2.41,9.39,4.59,14.14,6.73,2.66,1.19,31.72,13.42,31.89,13.09-1.39,2.36-6,4.91-8.51,6.16-4.75,2.49-9.75,4.48-14.65,6.67-2.66,1.2-7.27,4.47-10.23,4.14-3.78-.43-7.86-3.17-11-5.18A26.38,26.38,0,0,1,458.86,311.17Z" fill="#fff"/><path d="M633.5,213.21c-2.27,4.57-5.55,7.57-10.74,6s-5.35-6.27-5.46-10.94c-1.34.21-2.28.37-3.23.49-4.11.54-7.22-1.15-8.79-4.77-1.41-3.26-.68-6.46,2.61-8.94,2-1.5,2.67-2.67,1-4.77a7.85,7.85,0,0,1-.64-9.74c2.29-3.57,5.72-4.6,9.81-3.39a9.4,9.4,0,0,0,1.36.16c2.39-6.92,5.4-13.9,14.49-12.34,7.25,1.25,6.47,8.16,7.65,14,5.12.09,10.89-.06,12.4,6.57,1.62,7.11-4.37,9.17-9.09,12.11,2.8,5.44,8.43,10.71,2.46,16.76C643,218.81,638.11,216.19,633.5,213.21Zm8.63-7.24,2.38-.49-2.23-3.22-.35.75-5.44-1c.68,4.2,5.19,9.36,8.49,9.44L642.14,206Zm-12.69-19.51c-5.76,0-9,2.89-9.05,8.12-.07,4.08,3.65,7.63,8,7.67a8.54,8.54,0,0,0,8.51-8.86C636.91,189.17,634,186.45,629.44,186.46Zm-.83-4.22,1.62.16q.72-6.37,1.45-12.73l-1.86-.19Zm-20.23,18.58c.26.56.51,1.12.76,1.68l9.81-4c-.29-.66-.57-1.32-.86-2Zm42-14.35-.7-1.8-10.57,4.1.64,1.65Zm-22.83,18.67-2.08-.57c-.73,2.82-1.46,5.65-2.18,8.47l2.1.55Zm-.24-33.84-1.52-.27c-1.33,2.9-2.39,5.83-1.14,9.07l1.2.19Q626.57,175.79,627.29,171.3Zm-8.53,17,1-1.68-8.24-5-1,1.66Z" fill="#3aafa9"/><path d="M390.35,202.63c-.2-4.79-.88-10,5.08-11.47,6.38-1.55,9.24,2.7,10.75,8.05,8.93-3,12.25-2.61,15.05,1.61,3.18,4.81-.23,7.84-3.24,10.68a34.39,34.39,0,0,1,2,5.11,5.38,5.38,0,0,1-5.75,6.47c-2.83-.12-4.72.26-6.28,3.19-2.35,4.4-6.68,4.43-10.2.82a6,6,0,0,0-3.32-1.76c-4.69-.57-6.08-2-6.35-6.51-.05-1-.44-2.49-1.13-2.82-3.61-1.74-5.5-4.35-4.67-8.36S386.8,203.57,390.35,202.63Zm13,1.05c-3.75,0-6.39,2.39-6.36,5.77,0,3.74,2.43,6.26,5.92,6.25,3,0,6-3.15,6.09-6.26C409.1,205.64,407.18,203.69,403.39,203.68ZM393.13,216c3.49,1.92-.75,3.59.06,6.63,2.14-2.44,3.73-4.26,5.82-6.63ZM411,213.86l-.91.74.22,4.16,6.29.38ZM386,208.81l0,1.12h7.86l0-1.12Zm12.66-6.75,1.68-.63c-1-2.44-1.91-4.87-2.86-7.31l-1.49.55Zm5.83,16.4-1.36,0-.63,7.38,1.61.12Q404.33,222.19,404.51,218.46Zm6.07-12.9.71,1.29,6.66-3.54-.74-1.35Z" fill="#3aafa9"/><path d="M404.59,120.88c2.15-3.24,3.88-6.3,6.05-9,2.51-3.13,6.14-3.39,9.56-2.06s4.94,4,5.4,7.81c1.44,11.76-1.34,23-3.83,34.23-.59,2.66-2.27,2.95-4.16,2.06-8.89-4.21-18.15-8-24.74-15.68a25.19,25.19,0,0,1-4.7-9.88c-.86-3.28-.15-6.91,3.16-8.94,3.47-2.12,7.19-1.49,10.75.06A21.91,21.91,0,0,1,404.59,120.88Zm13.81,29.85a99.14,99.14,0,0,0,4.13-31.32c-.13-3.42-1.71-6.31-4.82-6.63-2-.2-5.13,1.59-6.31,3.41-1.56,2.41-1.67,5.74-2.49,8.65-.35,1.25-.9,2.44-1.36,3.66-1-.72-2.09-1.37-3.05-2.17-1.7-1.42-3.1-3.56-5-4.24a7.64,7.64,0,0,0-6.12.6c-1.34,1-2.23,3.7-2,5.46a15.34,15.34,0,0,0,3.12,6.66C400.52,142.74,409.58,146.18,418.4,150.73Z" fill="#fff"/><path d="M375.15,257.6c.86-1.23,1.38-2.11,2-2.87,4.68-5.45,10.34-3.34,13.25,3.25,2.41,5.45,1,10.92-.46,16.1-2,7.17-4.82,14.1-7.38,21.1-.65,1.8-2.15,2.81-3.76,1.29-8.6-8.11-17.77-15.9-21.15-27.88a20.71,20.71,0,0,1-.12-9.27,8.46,8.46,0,0,1,6.41-7c3.78-1,6.53.4,9,2.91C373.52,255.71,374,256.28,375.15,257.6Zm4.13,34.63,1.55-.16c2.36-7.94,5-15.82,6.92-23.87.68-2.85,0-6.2-.74-9.14-.37-1.43-2.36-3.36-3.66-3.39a6.73,6.73,0,0,0-4.82,2.66c-1.14,1.6-1.25,3.94-1.73,6-.24,1-.32,2-.47,3l-1.33.25a27,27,0,0,1-1.28-3.52c-1.09-5.25-4.86-9.14-8.35-8.49-3.89.72-6.13,6-4.85,11.45,0,.12.08.23.12.35C363.79,278,371.81,284.92,379.28,292.23Z" fill="#fff"/><path d="M629.41,126.82c.2-6.72,2.73-11.78,5.65-16.68a44.55,44.55,0,0,1,3.48-4.84,5.86,5.86,0,0,1,8.33-.62c2,1.77,1.92,5-.36,7.27-4.52,4.41-9.15,8.71-13.79,13A20.82,20.82,0,0,1,629.41,126.82Z" fill="#3aafa9"/><path d="M625.12,125.44c-2.07-5.56-3.88-11.33-.73-16.88,1.46-2.58,4.2-4.63,6.77-6.3.79-.51,3.1.82,4.33,1.8.37.3-.4,2.26-.87,3.37-2.56,6.17-5.18,12.31-7.79,18.46Z" fill="#3aafa9"/><path d="M630.15,128.81c5.57-4.89,11.12-9.81,16.77-14.62a4,4,0,0,1,2.71-.57c.81,1.67,2.15,3.7,1.76,5.21-1.73,6.72-8.39,11.43-15.37,11.43-1.5,0-3-.11-4.49-.17Z" fill="#3aafa9"/><path d="M673.69,245l-16.57,7.53c-1.65-1.15-1.45-2.26,0-3.45,3.77-3.1,7.5-6.23,11.25-9.35l5.41,2.27Z" fill="#3aafa9"/><path d="M657.16,253.29l17.27-5.49c2,2.76,1,5.64-3.3,7.3-5.45,2.12-11,2.94-16.51.08l.06-1.07Z" fill="#3aafa9"/><path d="M455.36,70.42c3.94,0,6.13,2.06,6.1,5.88a6.27,6.27,0,0,1-6.19,6.59,6,6,0,0,1-6.37-6.28C448.94,72.81,451.37,70.47,455.36,70.42Zm4.42,5.31c-2-1.42-3.58-3.25-4.44-3-1.6.52-3.95,2.36-3.88,3.51.12,1.87,1.17,5,4,4.3C456.92,80.22,457.94,77.88,459.78,75.73Z" fill="#3aafa9"/><path d="M652.79,249c-.32-5.43,4.82-12.14,10.07-13,2-.34,4-.28,4.83,2.23-.42.26-.84.51-1.24.8l-13.68,10Z" fill="#3aafa9"/><path d="M448,110.44c-1.12-1.65-2.92-3.2-3.19-5-.38-2.54,1.61-4.19,4.2-4.15,2.77,0,4.73,2,4.38,4.53-.23,1.69-2.39,3.12-3.69,4.66Z" fill="#3aafa9"/><path d="M629.27,254.52c.1,3.1-2.16,5.32-5.46,5.34s-5.51-2-5.59-5.21a5.52,5.52,0,0,1,5.38-5.56A5.94,5.94,0,0,1,629.27,254.52Zm-5.6,5c1.75-2.2,3.62-3.79,3.35-4.34-.79-1.63-2.43-2.84-3.74-4.21-1.19,1.17-3.3,2.32-3.33,3.53S621.81,257.13,623.67,259.49Z" fill="#3aafa9"/><path d="M630.15,128.81l1.38,1.28c-1.2,2.73-3.11,3.87-5.91,2.36-2.45-1.32-2.56-3.76-.5-7l1.71.45Z" fill="#3aafa9"/><path d="M652.77,249l13.68-10c.4-.29.82-.54,1.24-.8.22.48.45,1,.68,1.45-3.75,3.12-7.48,6.25-11.25,9.35-1.45,1.19-1.65,2.3,0,3.45,0,.27,0,.54,0,.81l-2.48.82Q653.73,251.56,652.77,249Z" fill="#3aafa9"/><path d="M613,154.35c-2.3,1.61-3.85,3.42-4.7,3.13a5.69,5.69,0,0,1-3.27-3.61c-.17-.8,2-3,3.18-3S610.72,152.63,613,154.35Z" fill="#3aafa9"/><path d="M443.38,164.07c1.45,2.25,3,3.64,2.89,4.79s-2,2.21-3.1,3.3c-1.13-1.19-2.95-2.26-3.17-3.61C439.82,167.54,441.69,166.19,443.38,164.07Z" fill="#3aafa9"/><path d="M338.05,239.22c.9,1.37,2.52,2.78,2.46,4.11,0,1.08-2.12,2.92-3.25,2.89s-2.89-1.92-3-3.15,1.48-2.52,2.32-3.8Z" fill="#3aafa9"/><path d="M652.77,249q1,2.56,1.91,5.12l-.06,1.07c-1.43-.7-3.5-1-4.14-2.18-1.05-1.86.16-3.44,2.31-4Z" fill="#3aafa9"/><path d="M370.18,224.61c-1.85,1-3,2.23-4,2.1-.82-.12-1.87-1.72-1.95-2.73-.06-.65,1.55-2.09,2.26-2C367.57,222.14,368.49,223.32,370.18,224.61Z" fill="#3aafa9"/><path d="M607.07,141.6c-1.37-1.76-2.6-2.69-2.72-3.74-.07-.67,1.4-1.92,2.37-2.16.6-.15,2.21,1.11,2.2,1.7C608.89,138.53,608,139.63,607.07,141.6Z" fill="#3aafa9"/><path d="M441.47,184c-1.55,1.17-2.5,2.41-3.22,2.28-1-.17-1.83-1.36-2.73-2.11.81-.74,1.55-1.95,2.44-2.07S439.78,183.05,441.47,184Z" fill="#3aafa9"/><path d="M349.46,232.79c-.87-1.57-1.81-2.53-1.79-3.48,0-.74,1.22-1.45,1.9-2.18.8,1,1.89,1.81,2.28,2.91C352,230.49,350.64,231.48,349.46,232.79Z" fill="#3aafa9"/><path d="M621.21,145.37c-1.33,1-2.27,2.11-2.89,2-.9-.22-1.57-1.38-2.35-2.14.83-.71,1.57-1.83,2.5-2C619.08,143.08,620,144.31,621.21,145.37Z" fill="#3aafa9"/><path d="M523.63,95.28l-11.13-.07Z" fill="#9b7c6f"/><path d="M536.71,98.57l-7.12-2.21Z" fill="#9b7c6f"/><path d="M503.57,97.13l-5.65,2.17Z" fill="#9b7c6f"/><path d="M528.14,96l-3-.53Z" fill="#9b7c6f"/><path d="M558.42,109.84l-3.28-2Z" fill="#9b7c6f"/><path d="M673.69,245l.09-3C676.37,243,674.86,244,673.69,245Z" fill="#3aafa9"/><path d="M471.06,122.53l-1.84,2.56Z" fill="#9b7c6f"/><path d="M510.31,95.51,508,96Z" fill="#9b7c6f"/><path d="M446.31,223.18c.09.75.18,1.5.28,2.26Z" fill="#9b7c6f"/><path d="M506.56,96.27,505,96.7Z" fill="#9b7c6f"/><path d="M540.44,100.08l-1.86-.83Z" fill="#9b7c6f"/><path d="M446.58,213.48c-.08.53-.17,1.06-.25,1.59C446.42,214.54,446.5,214,446.58,213.48Z" fill="#9b7c6f"/><path d="M554.62,107.63c-.59-.37-1.18-.74-1.76-1.12C553.44,106.89,554,107.26,554.62,107.63Z" fill="#9b7c6f"/><path d="M574.67,378.3c0,1.28.05,2.56.07,3.84-1.79,2-3.58,4-5.36,6-11.52,2.45-22.47-.64-33.37-3.61a139.82,139.82,0,0,1-14.67-5.32c-3.29-1.31-5.55-.79-7.55,2.38-7.23,11.46-17.85,17.23-31.29,17.8a100.55,100.55,0,0,1-13.67-.11,14.93,14.93,0,0,1-7.23-2.67c-4.37-3.26-8.35-7.06-12.44-10.68a22,22,0,0,1-2.11-2.56c4.34.09,7.78.54,11.13,3,11.25,8.26,22.41,5.25,33-1.41,6.07-3.8,11.67-8.36,17.48-12.57l6.78-6.69h0a46.73,46.73,0,0,1,5.11,1.78c2.1,1,4.07,2.29,6.1,3.45l2.94,1.51,1.55,1.5,2.22.74,12.79,6.71,1.45.05c2.63.9,5.21,2.21,7.92,2.64C562.76,385.16,569.6,384.54,574.67,378.3Z" fill="#042e3c"/><path d="M470.29,317.58c3.44-1.53,8.59-2.23,12-3.77,4.9-2.19,9.9-4.18,14.65-6.67,3.12-1.63,5.86-4,8.78-6l6,2.19c-2.48,1.92-5,3.8-7.42,5.78-3.8,3.08-7.55,6.22-11.32,9.34l-3,.74-3,.74c-5.27,4-10.14,3.08-14.74-1.2C472.13,318.62,470.36,317.68,470.29,317.58Z" fill="#def2f1"/><path d="M473.72,327c-1.64,1.41-2.85,2.34-4,3.39-5.14,4.9-4.06,11.11-3.45,17.14.72,7.07,1.64,14.12,2.46,21.17l-1.67.2c-.23-2.54-.41-5.09-.7-7.63-.87-7.61-2.11-15.2-2.56-22.83C463.51,332.7,467.45,328.41,473.72,327Z" fill="#042e3c"/><path d="M463.71,327.33c-6.82.9-10.8,5.12-13.09,11.26-1.61,4.32-3,8.7-4.7,13a26.42,26.42,0,0,1-2.39,4l-1.21-.58c3.27-7.91,6.17-16,10-23.65,2.1-4.22,7.17-4.46,11.42-5.33C463.71,326.46,463.71,326.89,463.71,327.33Z" fill="#042e3c"/><path d="M458.63,311.44l5.89,3.2h-2.27q-14.73-5.24-24.57,7.88c-.51.67-1.1,1.28-1.66,1.92-.29-.28-.58-.56-.86-.85,4-7.66,11.69-14.74,21.64-12A5.77,5.77,0,0,0,458.63,311.44Z" fill="#042e3c"/><path d="M498.18,474.19c1.25,7.35,2.49,14.7,3.84,22.67-4.42-7.26-5-14.94-5.28-22.68Z" fill="#3aafa9"/><path d="M583.67,477.31c.11.74.22,1.48.32,2.23-8.25-.64-15.84-2.87-21.9-8.73l.43-1A12.82,12.82,0,0,1,565,471.1c5.11,4.09,11.18,5.69,17.43,6.84C582.81,478,583.27,477.53,583.67,477.31Z" fill="#3aafa9"/><path d="M501.23,143h0l7.42-.91c9.52.27,18.08-3,26.37-7.21,1-.51,2-1,3-1.43.18-.08.46.08.93.17.34,3,.26,6.15,1.15,9,1.68,5.43,4,10.69,5.93,16,.55,1.49.89,3.06,1.33,4.6-2.4-3.61-5.22-7-7.1-10.87s-2.94-8.34-4.52-13c-8.76,3.84-24.92,9.92-43.4,6.87,0,0,8.85-3.2,8.87-3.27" fill="#def2f1"/><path d="M450.23,202.63c0-1-.32-2.22.11-3,2.75-5,5.32-10.13,8.65-14.71,3.55-4.89,5-9.84,3.57-15.73-.26-1,.29-2.27.46-3.41,4.67,9.73,2.49,18.18-4.51,26C455.47,195.12,453,199,450.23,202.63Z" fill="#3aafa9"/><path d="M528.5,107.32c-17.82-3.91-31.86,2.17-43.36,16.71C489.47,111.26,511.8,99.94,528.5,107.32Z" fill="#2b7a78"/><path d="M576.84,132.48c.78,4.54,2.15,9.08,2.18,13.62a34.46,34.46,0,0,1-4.74,18.67c.93-4.36,2.4-8.69,2.68-13.09C577.37,145.31,576.92,138.88,576.84,132.48Z" fill="#3aafa9"/><path d="M555.62,184.22c0-.13,0-.25,0-.37a6.58,6.58,0,0,0-1.86-4.13c-2.27-2-3.78-2.1-4.36-5.34-.7-3.91-.27-7.53-2.24-11.2-1.17-2.19-2.81-4.09-4.19-6.15a43.86,43.86,0,0,1-4.78-10c-.6-1.71-.92-3.68-1.68-5.32-1.5-3.24-4.88-.53-7.59.41a61.3,61.3,0,0,1-15.33,3.59c-4.92.36-9.83-.3-14.75-.08-4.17.18-8.05,1.76-11.93,3.14-3.49,1.23-7.67.45-10.84,2.38-2.47,1.5-3.75,4.33-4.66,7.07a26.41,26.41,0,0,0-1.6,9.38,13.47,13.47,0,0,0,3.38,8.73,26.73,26.73,0,0,1,2.87,3c2.14,3.09,1.43,7.88,2.11,11.46a39.3,39.3,0,0,0,4.63,12.72c3.49,5.87,9.06,10.69,15.69,12.35,5.79,1.45,12,.43,17.52-1.76a61.78,61.78,0,0,0,9.5-4.89c2-1.21,6.44-3,7.55-5.15,1.75-3.38,2-2.09,5.43-1.36a7.65,7.65,0,0,0,4.75-1,24.82,24.82,0,0,0,9.13-7A15.14,15.14,0,0,0,555.62,184.22Zm-52.93,13.41c-5.45-2.41-8.85-6.75-8.4-11.42l24.35,9.32C515.18,199.47,508.36,200.14,502.69,197.63Zm37.46-5.09c-.17.44-.34.89-.5,1.33.16-.44.33-.89.5-1.33l3-4.56Z" fill="#fff"/><path d="M550.22,205c4.58-.37,4.33-.17,9,.17h0c8.82,3.83,10.38,6.78,16.84,13.71.35.45,1.21,1,0,0,.58,1.42,1.23,2.83,1.87,4.23.48,1,.95,2,1.43,3,.31.65,1.55,1.33,2.13,1.72.77-3.14,1.54-6.37,2.3-9.54,3.17,4.57-2,11.36.66,16.24,2.7-6.47,2.68-13.59,1.41-20.56a77,77,0,0,0-2.38-9.34c-3.09-9.7-7.42-19.15-8.47-29.28-1.46-14.1,3.57-28.34,1.68-42.4a38.64,38.64,0,0,1,.44,25c-1.3,4-3.86,8.55-3.11,12.84a49.61,49.61,0,0,0,3.73-8.76c3-8.18,4.53-16.61,2.58-25.23-3-13.28-13-21.85-24.18-28.37C541.36,99.81,525.47,92.58,508,96l-1.44.32L505,96.7l-1.43.43-5.65,2.17c-11.64,4.64-20.37,12.63-26.86,23.23l-1.84,2.56a.9.9,0,0,0-.31.57,22.64,22.64,0,0,0-2.23,2.88,63.58,63.58,0,0,0-7.55,24c-.89,8.25,3.74,16.6,1.66,24.68-1,4-3.83,7.32-6.14,10.77-11,16.36-8.48,34.78-4.28,52.93a1.29,1.29,0,0,0,.36.76,1.32,1.32,0,0,0,.88.21m6.32-.79.25,0,10.09-2c4.21-1,8.48-1.85,12.6-3.16a6.23,6.23,0,0,0,3.46-3.23c1.82-4.59,3.24-9.34,4.81-14q.74-2.62,1.48-5.25a38,38,0,0,0-3.24-4.37c-5.58-5.72-8.34-12.79-10.1-20.38,0-2-.15-4-.13-6a5.28,5.28,0,0,0-2.73-5.13c-3.58-2.35-4.41-6.56-4.55-10.6a22,22,0,0,1,4.45-14.36c1.78-2.36,3.86-3.68,7.11-2.47s9.45-3.42,12.55-4.53a81.75,81.75,0,0,1,14.76-3.35c6.68-1.07,13.52-1.85,19.89-4.27,2.39-.91,5.26-4.45,7.83-4.46,3.75,0,3.12,5,3.51,7.48.76,4.78,3,9.14,4.7,13.62a74.3,74.3,0,0,1,3.74,13.82c.59,3.38.16,8.27,3.62,10.28a19.33,19.33,0,0,1,1.91,1c4.59,3.36.37,15.25-4.06,17.21l-2.21,2.19a18.88,18.88,0,0,1-2.84,1.65c-3,1.11-5.84,3.67-9.15.76-2.82-.31-2.89,1.7-3,3.63-.42,5.14-2.23,9.4,3.8,6.29,4.82-2.48,9.06-4.13,13.83-6.69m-91.75-12.72c-3,3.38-5.54,7.25-8.28,10.9,0-1-.32-2.23.11-3,2.75-5,5.32-10.13,8.65-14.72,3.55-4.89,5-9.84,3.57-15.72-.25-1,.29-2.27.46-3.42l-.37-.6c-.13-.77-.27-1.54-.4-2.31.49-6.38.95-12.76,1.48-19.13-.53,6.37-1,12.75-1.48,19.13.13.77.27,1.54.4,2.31l.37.6C467.69,175.83,465.51,184.28,458.51,192.07Zm24.09-63.68c-.14.05-.38-.15-.58-.23.09-.2.18-.4.26-.6l.6.26C482.79,128,482.75,128.32,482.6,128.39Zm1.54-3c-.13.06-.39-.15-.59-.23.09-.21.13-.52.29-.59s.39.14.59.23C484.34,125,484.3,125.33,484.14,125.4Zm1-1.37c4.33-12.77,26.66-24.09,43.36-16.71C510.68,103.41,496.64,109.49,485.14,124Z" fill="#042e3c"/><path d="M555.17,182c-.26-.75-.51-1.51-.76-2.26C554.66,180.48,554.91,181.24,555.17,182Z" fill="#724738"/><path d="M484.43,124.81c-.09.21-.13.52-.28.59s-.4-.15-.6-.23c.09-.21.13-.52.29-.59S484.23,124.72,484.43,124.81Z" fill="#2b7a78"/><path d="M482.28,127.56l.6.26c-.09.2-.13.5-.28.57s-.38-.15-.58-.23C482.11,128,482.2,127.76,482.28,127.56Z" fill="#2b7a78"/><path d="M544,371.64c-3.81-2.6-4.3-6.7-4.43-10.71-.22-7.42,0-14.85,0-22.28,0-1.24,0-2.48,0-3.72.06-.23.12-.47.16-.71l2-.77c0,.49,0,1,.07,1.45,0,9.08-.15,18.16.1,27.22.06,2.46,1.34,4.89,2.06,7.33Z" fill="#042e3c"/><path d="M553.68,316.89c10.64,6,20.89,15.34,22.44,21-4.44-4.06-8.4-7.88-12.59-11.43-3.1-2.62-6.5-4.89-9.76-7.32l-1.8-1.54a2.35,2.35,0,0,1,.22-.68Z" fill="#042e3c"/><path d="M629.44,186.46c4.53,0,7.47,2.71,7.5,6.93a8.54,8.54,0,0,1-8.51,8.86c-4.39,0-8.11-3.59-8-7.67C620.48,189.35,623.68,186.48,629.44,186.46Z" fill="#3aafa9"/><path d="M642.14,206l2.84,5.51c-3.3-.08-7.81-5.24-8.49-9.44l5.44,1,.35-.75,2.23,3.22-2.38.49-.31-.17Z" fill="#3aafa9"/><path d="M628.61,182.24l1.21-12.76,1.86.19Q631,176,630.23,182.4Z" fill="#3aafa9"/><path d="M608.38,200.82l9.71-4.33c.29.65.57,1.31.86,2l-9.81,4C608.89,201.94,608.64,201.38,608.38,200.82Z" fill="#3aafa9"/><path d="M650.36,186.47l-10.63,3.95-.64-1.65,10.57-4.1Z" fill="#3aafa9"/><path d="M627.53,205.14l-2.16,8.45-2.1-.55c.72-2.82,1.45-5.65,2.18-8.47Z" fill="#3aafa9"/><path d="M627.29,171.3q-.72,4.48-1.46,9l-1.2-.19c-1.25-3.24-.19-6.17,1.14-9.07Z" fill="#3aafa9"/><path d="M618.76,188.33l-8.23-5.05,1-1.66,8.24,5Z" fill="#3aafa9"/><path d="M403.39,203.68c3.79,0,5.71,2,5.65,5.76-.05,3.11-3.11,6.26-6.09,6.26-3.49,0-5.88-2.51-5.92-6.25C397,206.07,399.64,203.68,403.39,203.68Z" fill="#3aafa9"/><path d="M393.13,216H399c-2.09,2.37-3.68,4.19-5.82,6.63C392.38,219.62,396.62,218,393.13,216Z" fill="#3aafa9"/><path d="M411,213.86l5.6,5.28-6.29-.38-.22-4.16Z" fill="#3aafa9"/><path d="M386,208.81h7.84l0,1.12H386Z" fill="#3aafa9"/><path d="M398.68,202.06,396,194.67l1.49-.55c.95,2.44,1.9,4.87,2.86,7.31Z" fill="#3aafa9"/><path d="M404.51,218.46q-.18,3.72-.38,7.46l-1.61-.12.63-7.38Z" fill="#3aafa9"/><path d="M410.58,205.56l6.63-3.6.74,1.35-6.66,3.54Z" fill="#3aafa9"/><path d="M418.4,150.73c-8.82-4.55-17.88-8-23.92-15.92a15.34,15.34,0,0,1-3.12-6.66c-.25-1.76.64-4.51,2-5.46a7.64,7.64,0,0,1,6.12-.6c1.94.68,3.34,2.82,5,4.24,1,.8,2,1.45,3.05,2.17.46-1.22,1-2.41,1.36-3.66.82-2.91.93-6.24,2.49-8.65,1.18-1.82,4.27-3.61,6.31-3.41,3.11.32,4.69,3.21,4.82,6.63A99.14,99.14,0,0,1,418.4,150.73Z" fill="#3aafa9"/><path d="M379.28,292.23c-7.47-7.31-15.49-14.19-18.64-24.85,0-.12-.09-.23-.12-.35-1.28-5.45,1-10.73,4.85-11.45,3.49-.65,7.26,3.24,8.35,8.49a27,27,0,0,0,1.28,3.52l1.33-.25c.15-1,.23-2,.47-3,.48-2,.59-4.37,1.73-6a6.73,6.73,0,0,1,4.82-2.66c1.3,0,3.29,2,3.66,3.39.76,2.94,1.42,6.29.74,9.14-1.93,8.05-4.56,15.93-6.92,23.87Z" fill="#3aafa9"/><path d="M594.18,323c-4.38-5.23-8.61-10.63-14.9-13.78-2.53-1.28-5.13-2.42-8.1-3.8,9.43-.63,20.89,8.54,23.06,16.77Z" fill="#042e3c"/><path d="M459.78,75.73c-1.84,2.15-2.86,4.49-4.34,4.84-2.81.65-3.86-2.43-4-4.3-.07-1.15,2.28-3,3.88-3.51C456.2,72.48,457.76,74.31,459.78,75.73Z" fill="#3aafa9"/><path d="M623.67,259.49c-1.86-2.36-3.76-3.72-3.72-5s2.14-2.36,3.33-3.53c1.31,1.37,3,2.58,3.74,4.21C627.29,255.7,625.42,257.29,623.67,259.49Z" fill="#3aafa9"/><path d="M532.63,205.19q-.3,4.11-.58,8.22a57.54,57.54,0,0,0-6.82,3.49c-5.67,3.85-11.7,6.44-18.68,6.3a37.29,37.29,0,0,1-17.41-4.51q.74-2.62,1.48-5.25c4.21,1,8.36,2.44,12.63,2.93,9.88,1.15,17.56-4,25.12-9.4A21.24,21.24,0,0,1,532.63,205.19Z" fill="#def2f1"/><path d="M494.29,186.21l24.35,9.32c-3.46,3.94-10.28,4.62-15.95,2.1C497.24,195.22,493.84,190.88,494.29,186.21Z" fill="#3aafa9"/><path d="M489.14,218.69a37.29,37.29,0,0,0,17.41,4.51c7,.14,13-2.45,18.68-6.3a57.54,57.54,0,0,1,6.82-3.49l2.79-1c.12,20.59-26.72,39.05-44.51,37.72-7.51-.56-14.39-2.82-20-8a16.21,16.21,0,0,1-2.05-3c4.21-1,8.48-1.85,12.61-3.16a6.19,6.19,0,0,0,3.44-3.23C486.15,228.13,487.57,223.38,489.14,218.69Z" fill="#fff"/><path d="M546.19,210.46c.48,3.17-1.6,3.14-3.75,3l-3.58-1.29C540.68,208.47,543.65,210.35,546.19,210.46Z" fill="#2b7a78"/><path d="M565.57,214.48c-1.16.92-1.76,1.76-2.36,1.76s-1.24-.81-1.87-1.27c.52-.49,1-1.29,1.56-1.4S564.26,214,565.57,214.48Z" fill="#2b7a78"/><path d="M565,361.87c0-1-.06-2-.1-3a53.75,53.75,0,0,0-12.59-30.22c3.74.31,5.31,3.38,6.62,5.91,2.82,5.43,5,11.2,7.38,16.84.07,2,.13,4,.2,6,.24,2.8.49,5.61.73,8.42l-1,.16Z" fill="#042e3c"/><path d="M551,211.77c1.17,1.52,2.6,2.81,2.39,3.2a10.12,10.12,0,0,1-3.52,4.08c-.63.34-2.39-1.42-3.64-2.23Z" fill="#2b7a78"/><path d="M571.15,219.92c-.6.41-1.13.94-1.29.84a4.27,4.27,0,0,1-1-1.17c.36-.23.74-.68,1.09-.66S570.6,219.44,571.15,219.92Z" fill="#2b7a78"/><path d="M507.6,297.32a27.93,27.93,0,0,1-3.77-.05c-5.37-1.08-9.79-2.65-15.19-3.59q10.39,4.79,21.06,8.92a5.28,5.28,0,0,0,2.48.52,5.35,5.35,0,0,0,2.41-1.21l18.63-13.7a8.92,8.92,0,0,0,2.33-2.21c1.13-1.79.82-4.09.52-6.19-2.94-20.27-1.57-40.88-.19-61.32-3,6.77-3,14.43-2.75,21.81.28,8.83.8,17.67.28,26.49-.36,6.19-1.32,12.61-4.87,17.69-3.26,4.65-8.36,7.69-13.6,9.86-.24-13.82,5.62-26.93,8.33-40.47-.61-.07-1,.59-1.27,1.15a110.73,110.73,0,0,0-8.89,34.87c-.14,1.55.21,4-.54,5.4s-2.49,1.93-3.89,2.08m5.26-.87a4.42,4.42,0,0,0-.84-.39A4.42,4.42,0,0,1,513.94,296.5Zm.28,3.21c.12-.26.22-.51.31-.75C514.44,299.2,514.34,299.45,514.22,299.71Zm.42-1.11a1.69,1.69,0,0,0-.66-2.08A1.69,1.69,0,0,1,514.64,298.6Z" fill="#042e3c"/><path d="M466.79,268.17l6,19.31,2.16.86c0-.47,0-.94,0-1.42-2.25-9.17-3.94-18.57-11-25.76Z" fill="#042e3c"/><path d="M452.52,263.66c-2.35-2.88-4.68-5.78-7.08-8.62-.1-.12-.78.26-1.2.4l7.29,8.32c.35,1.29.65,2.59,1.06,3.85,1.18,3.7,2.41,7.38,3.62,11.07l2.28,2.23c0-1.49,0-3-.05-4.47Q455.47,270.05,452.52,263.66Z" fill="#042e3c"/><path d="M642.14,206l-.32-.16.31.17Z" fill="#fd7c6e"/><path d="M583.7,288.77c-2.24,0-5.32.18-7.53.41-.76.24-.74.54-1.49.78l-4.38,3c-.3.48-.6,1-.91,1.44l-5.85,6.08-.06.07c-1.09,1.41-1.78,3.05-3,4.34a22.34,22.34,0,0,0-3.5,4.48c-.71,1.25-3,7.54-4.78,7.53h1.5c10.64,6,20.89,15.34,22.44,20.95-4.44-4-8.4-7.87-12.59-11.42-3.1-2.62-6.5-4.89-9.76-7.32-2.16,3-4.27,6-6.49,9,2.22-3,4.33-6,6.49-9l-1.8-1.54a28.09,28.09,0,0,0-2.47,2.66c-3.34,4.64-6.61,9.33-9.91,14l2-.77c0,.49,0,1,.07,1.45,0,9.08-.15,18.16.1,27.22.06,2.46,1.34,4.89,2.06,7.33,0,.72.08,1.45.1,2.18-3.79-2.6-4.28-6.7-4.41-10.7-.22-7.42,0-14.85,0-22.28l0-3.72c-.77,1.22-1.54,2.45-2.29,3.67l-12.7,12.79-3,.1a31.72,31.72,0,0,1-5.16-1.55c-7.56-3.72-11.73-10.62-15.92-17.43-2.55-4.16-4.89-8.44-7.32-12.67,0-.47,0-.94-.07-1.42l-3,.74c-4.47,1.1-7.89,4.62-12.75,2.7-2.53-1-4.64-2.81-6.92-4.28a26.21,26.21,0,0,0-21.53-3.27c-7.15,2.22-13.15,8.25-14.76,15.56a36.27,36.27,0,0,1,3.44-9.82,18.82,18.82,0,0,1,20.91-8.34c-1.24-4.52-7-6-11.08-5.91-6.64.21-13.26,1.17-19.89,1.88-4.27.46-5.4.25-6.89,3.4-1.18,2.51-1,8.25-1.17,11.12-.34,4.47.56,9.54,4.2,12.16,1.79,1.29,4.1,1.87,5.58,3.51,2.82,3.12,1.19,8,1.47,12.19.41,6.19,4.49,7.28,8.09,11,2.86,3,2.94,6.05,2.44,10.16-1,7.85-7.23,18.25-3.64,26.07.62,1.34,1.49,2.66,1.42,4.13-.09,1.83-1.56,3.23-2.74,4.63a17.69,17.69,0,0,0-3.91,8.67c-.62,4.16.27,8.41-.11,12.6-.41,4.45-2.22,8.64-2.67,13.08s1,9.1,1.35,13.66c.13,1.52.27,3,.41,4.56l.81,5.46c4.57,3.94,10,5.63,15.91,6a17.19,17.19,0,0,1,3.82,1.19l1.49,0q21.24,1.2,42.49,2.4a3.41,3.41,0,0,1,1,.44h1.44c2.46-.15,4.93-.44,7.38-.4,16.1.23,32.16-.14,48.06-3a28,28,0,0,0,4.17-1.41l2.64-.26,2.36-1.91,2-.24c1.74,0,3.61.5,5.19,0,4-1.22,7.87-2.87,11.79-4.33.07-1.61.14-3.23.2-4.84.72-12.72-5-26.36-3.16-40.43.48-3.66,1.2-7.4.32-11-.65-2.67-2.17-5.06-3-7.69-1.24-4.09-.69-8.47-.13-12.71,1.23-9.28,6-15.56,8.44-24.38,1.53-5.54,1.5-11.75-1.35-16.73,3.14-.59,6.35-1.21,9.11-2.82s5-4.43,5.09-7.62c.07-3.57-2.48-7.44-.52-10.42.79-1.19,2.12-1.87,3.21-2.79,3.07-2.61,3.92-7.08,3.13-11.08-.09-.43-.19-.85-.31-1.27-1.06-3.58-5.24-6.25-5.82-9.91s3-8.38,4.26-12a1,1,0,0,0-1-1.5c-1.62-.07-3.85-.73-5.39-.17C592.17,286.29,583.7,288.77,583.7,288.77ZM559,334.58c2.82,5.43,5,11.2,7.38,16.83h0c.07,2,.13,4,.2,6h0c.24,2.8.49,5.61.73,8.42l-1,.16-1.23-4.1c0-1-.07-2-.1-3a53.72,53.72,0,0,0-12.59-30.22C556.07,329,557.64,332.05,559,334.58Zm-22.11,37.35a3.41,3.41,0,0,1-1.83,2.32A3.41,3.41,0,0,0,536.84,371.93Zm-19.55-8.36,0,0Zm-2.15,2.15-.17,0Zm-1,.31-.21.08Zm-1.23.66,0,0Zm-1,.76-.07.05Zm-45.57-19.93c.72,7.07,1.63,14.12,2.46,21.17l-1.67.2c-.23-2.54-.41-5.09-.7-7.63-.87-7.61-2.11-15.2-2.56-22.83-.34-5.73,3.6-10,9.87-11.44-1.64,1.41-2.85,2.34-4,3.39C464.63,335.28,465.71,341.49,466.32,347.52Zm-22.79,8.06-1.21-.58c3.27-7.91,6.17-16,10-23.65,2.1-4.22,7.17-4.46,11.42-5.33h0c0,.44,0,.88,0,1.31-6.82.9-10.8,5.12-13.09,11.26-1.61,4.31-3,8.7-4.7,13A26.42,26.42,0,0,1,443.53,355.58Zm130.39,82h0c-.27,1.26-.49,2.54-.74,3.8C573.43,440.13,573.65,438.85,573.92,437.59Zm-1.3-3.36a1.81,1.81,0,0,0-.44,1.12A1.81,1.81,0,0,1,572.62,434.23Zm9,19.2h0c-.79-1.11-1.65-2.17-2.4-3.31C580,451.26,580.87,452.32,581.66,453.43Zm-6.39-66.62a7.18,7.18,0,0,0,0-1.31c-.12-1.11-.39-2.25-.51-3.36l-5.37,6c-11.51,2.45-22.46-.64-33.36-3.61a138.84,138.84,0,0,1-14.66-5.32c-5.09-2-6.75,1.61-9.44,5.13a38.09,38.09,0,0,1-11.14,10.13c-6.28,3.61-13.65,4.83-20.88,5.21-4.54.24-9.19.16-13.53-1.23-7.09-2.26-14.9-8.62-18.86-14.9,3.43-.69,7.88.76,10.68,2.82,11.25,8.26,22.41,5.25,33-1.41,6.07-3.8,11.67-8.36,17.48-12.57a7,7,0,0,1,.52-1.45,7,7,0,0,0-.52,1.45l6.78-6.68c.22-.22,3.13.94,3.51,1.11,1.44.62,2.84,1.38,4.23,2.12,2.8,1.47,5.55,3.05,8.3,4.61A118.27,118.27,0,0,0,548.44,382a33.37,33.37,0,0,0,13.88,2.47c4.73-.34,9.48-2.31,12.46-6-.95,1.19.33,5.67.47,7A7.18,7.18,0,0,1,575.27,386.81Zm1.65-14.42-2.23,4.5,2.23-4.5,1.51-2.25Zm17.32-50.21-.06.81c-4.38-5.23-8.61-10.63-14.9-13.78-2.53-1.28-5.13-2.42-8.1-3.8,9.43-.63,20.89,8.54,23.06,16.77,1.2-.77,2.5-1.43,3.65-2.25C596.74,320.75,595.44,321.41,594.24,322.18Z" fill="#2b7a78"/><path d="M448.16,242.16a11.78,11.78,0,0,1-3.51,1.05c-9.16,1.94-16.95,8.7-21.1,17-.92,1.85-1.64,4.18-.45,5.87a5.27,5.27,0,0,0,2.77,1.76c4.63,1.52,9.71.86,14.46,1.95a27.58,27.58,0,0,1,9.26,4.31c2.12,1.43,4.14,3,6.12,4.63a48.41,48.41,0,0,0-11-23.33A43.79,43.79,0,0,1,457,273.91a25.14,25.14,0,0,0,2.09,5.28c1.78,2.92,4.78,3.38,7.84,4.15a9.42,9.42,0,0,1,5.52,3.22c-1-6.06-3.75-12.42-5.61-18.39-.58-.42-1.28-.76-1.82-1.22.54.46,1.24.8,1.82,1.22-1.11-.8-2.1-5.11-2.39-6.41,5.4,4.88,8.38,13.81,9.42,20.84a8,8,0,0,0,.95,3.32,2.4,2.4,0,0,0,3,1,1.76,1.76,0,0,0-2.64.77c-.81,2.69,13,5.6,15.27,6.18,4.66,1.23,24.54,7.57,22.67-2.53-.52-2.79-2.16-5.6-1.25-8.28a7.94,7.94,0,0,0,1.08,6.64,51.3,51.3,0,0,0,.94-14.31c-.75-.1-.43,1.37.32,1.27s1.1-.95,1.32-1.67l10.77-35.44a28,28,0,0,0-2.77,15,188.44,188.44,0,0,0-8.93,39.72c8-2,14.05-9,16.84-16.81s2.81-16.25,2.36-24.5-1.32-16.55-.23-24.74l-3.36,3.09a23.91,23.91,0,0,0,5.7-12.76l-1.3,19.87c-.12,1.82.27,4.29,2.09,4.45-.09-.67-1.11-.79-1.59-.32a2.73,2.73,0,0,0-.58,1.88,205.34,205.34,0,0,0,1.93,39.64,34.6,34.6,0,0,0,21-21.71c2.85-8.93,2-18.9,6-27.38.7-1.48,2.39-3.1,3.7-2.12a2.83,2.83,0,0,1,.85,1.7,33.31,33.31,0,0,1,.28,13.74,5.35,5.35,0,0,0,0,3.12c.74,1.69,3,2,4.83,1.78,4.86-.52,9.71-3,12-7.34s1.36-10.41-2.75-13.05a1.1,1.1,0,0,0-.54,1.89c-2.21-8.63-5.36-17.52-12.06-23.39a26,26,0,0,0-24.48-5.14c-3.51,1.11-6.9,3.1-8.86,6.22-1.43,2.27-2,4.95-2.82,7.5-3.24,10.06-10.53,17.58-19.36,23.06-10.47,6.48-24,10-35.09,4.61-7.06-3.44-13-9.89-21.52-6.75-1.53.56-3,1.4-4.66,1.38m117-23.24c.34,0,.65.51,1.2,1-.6.41-1.13.94-1.29.84a4.27,4.27,0,0,1-1-1.17C569.22,219.36,569.6,218.91,570,218.93Zm-7.05-5.36c.62-.12,1.36.42,2.68.91-1.17.92-1.77,1.76-2.37,1.76s-1.24-.81-1.87-1.27C561.86,214.48,562.32,213.68,562.9,213.57ZM551,211.77c1.17,1.52,2.6,2.81,2.39,3.2a10.12,10.12,0,0,1-3.52,4.08c-.63.34-2.39-1.42-3.64-2.23Zm-4.85-1.31c.48,3.17-1.6,3.14-3.75,3l-3.58-1.28C540.68,208.47,543.65,210.35,546.19,210.46Zm-9.61,4.28c-.19.68-.35,1.28-.51,1.85C536.23,216,536.39,215.42,536.58,214.74Zm-78.38,27h0a.64.64,0,0,1-.2-.24A.64.64,0,0,0,458.2,241.73Z" fill="#2b7a78"/><path d="M486,228.24l-1.66,4.48-24.52,8.42s-7.23,1.51-8.53.78S486,228.24,486,228.24Z" fill="#042e3c"/><path d="M575.12,217.66s8.94,15.2,9.77,17.78-5.38-.25-5.38-.25Z" fill="#2b7a78"/></g></svg>