<svg xmlns="http://www.w3.org/2000/svg" viewBox="0 0 1020 500"><title>ENABLE UPDATED</title><g id="Layer_3" data-name="Layer 3"><rect y="-1.21" width="1019.15" height="501.21" fill="#2b7a78"/></g><g id="OBJECTS"><path d="M903.36,429.2c0,.16-178.11.29-397.77.29s-397.8-.13-397.8-.29,178.07-.29,397.8-.29S903.36,429,903.36,429.2Z" fill="#17252a"/><path d="M669.86,114.27h0c2.36-3.42,3.65-6,5.32-8.13,2.05-2.65,2.71-3.89,2.19-4.24-.7-.47-.41-.33-4.83,4,0,0,6.26-6.17,3.85-5.9-1.06.12-6.31,5.2-6.31,5.2,4.59-3.69,5.73-5.81,5.14-6.48-.87-1-7.19,5.26-7.19,5.26s4.92-4.65,5.53-5.73-.87-.81-2-.24-8.31,5.42-10.41,6.69a1.44,1.44,0,0,1-2.15-.44c-1.26-3.33-4-5.25-5-5.42a1.09,1.09,0,0,0-.77,1.92,13.52,13.52,0,0,1,1.88,3.08,8.34,8.34,0,0,1,.8,2.76c.12,1.11.18,2.06.21,2.86l-3.18,17.75L664.09,135Z" fill="#fff"/><path d="M669.94,108.51a15.93,15.93,0,0,0,3.15-2.82,15.54,15.54,0,0,0,2.75-3.2,16.06,16.06,0,0,0-3.15,2.81A16.76,16.76,0,0,0,669.94,108.51Z" fill="#3aafa9"/><path d="M668.12,107a18.15,18.15,0,0,0,3.52-2.8,18,18,0,0,0,3.15-3.23,18.47,18.47,0,0,0-3.52,2.81A18.15,18.15,0,0,0,668.12,107Z" fill="#3aafa9"/><path d="M666.23,105.39a16.26,16.26,0,0,0,3.38-2.6,16.83,16.83,0,0,0,3-3,16.26,16.26,0,0,0-3.38,2.6A16.83,16.83,0,0,0,666.23,105.39Z" fill="#3aafa9"/><path d="M593.05,59.64a16.47,16.47,0,0,1,17.72,15.41c.46,7.65.88,15.91.82,20.08-.11,8.94-9.05,10.33-9.05,10.33s1.28,15.53,1.15,18L580,124.59l-2.15-47.8a16.47,16.47,0,0,1,15.17-17.15Z" fill="#fff"/><path d="M602.56,105.33A20.81,20.81,0,0,1,590.9,102s2.76,6.43,11.68,5.63Z" fill="#3aafa9"/><path d="M578.71,79.86c-.15-.06-6.14-1.81-6,4.3s6.29,4.66,6.3,4.48S578.71,79.86,578.71,79.86Z" fill="#fff"/><path d="M577.12,86.38s-.11.08-.28.17a1.06,1.06,0,0,1-.8,0,2.61,2.61,0,0,1-1.29-2.32,3.5,3.5,0,0,1,.24-1.54,1.26,1.26,0,0,1,.78-.84.54.54,0,0,1,.64.27c.08.17.05.29.08.3s.13-.1.07-.35a.64.64,0,0,0-.25-.38.83.83,0,0,0-.59-.14,1.53,1.53,0,0,0-1.09,1,3.66,3.66,0,0,0-.31,1.71A2.78,2.78,0,0,0,576,86.88a1.14,1.14,0,0,0,1-.19C577.11,86.53,577.14,86.39,577.12,86.38Z" fill="#fff"/><path d="M578.12,79.71a9.45,9.45,0,0,0,0,2.81,3.22,3.22,0,0,0,1.56,2.23c1.54.76,3.47-.41,4.15-2a10.24,10.24,0,0,0,.34-5.08,24.79,24.79,0,0,1,.11-7,10,10,0,0,1,3.36-6,6.33,6.33,0,0,1,6.58-1,34.18,34.18,0,0,1,3.48,2.56,5.37,5.37,0,0,0,3.69.93,3.46,3.46,0,0,0,2.84-2.36,3.79,3.79,0,0,0-1.45-3.75,8.62,8.62,0,0,0-3.9-1.56,20.93,20.93,0,0,0-11.6.9,15.2,15.2,0,0,0-8.42,7.83c-1.78,4.19-.58,7.51-.84,12.15" fill="#17252a"/><path d="M669,119.4l-14.63-3.53-9.65,26.18L618,118.19h0c-2.83-2.08-7.73-2.33-11.45-2.79l-.28,0c-1.44-.17-2.15-.38-3-.48-6.43,4.83-17.43,5.14-23.74.15,0,0-4.79,1.09-7.65,1.63-9,1.73-15.49,8.29-17.29,14.35l11.28,26L568,181.7l-6.24,22.11a3.84,3.84,0,0,0,3.2,4.85l55.85.85.91-.45c1.18-2.17,2-4.67,1.5-7.08-2.41-10.58-.73-42.13-1.24-51.82,11,10.64,23,19.47,31.87,14C661.2,159.62,669,119.4,669,119.4Z" fill="#def2f1"/><polygon points="579.93 114.42 579.93 114.42 579.93 114.42 579.93 114.42" fill="#e8505b"/><polygon points="577.7 116.65 579 107.72 591.17 112.19 594.6 118.24 596.74 111.6 603.42 109.3 606.27 115.24 601.37 122.17 592.18 124.03 577.7 116.65" fill="#def2f1"/><path d="M594.82,119.62s-.18-.1-.46-.36a13.86,13.86,0,0,1-1.11-1.21,17.87,17.87,0,0,1-2.94-5.06h.45c-.84,2.1-1.79,4.52-2.82,7.09l-1.41,3.5-.15.37-.28-.28c-2.46-2.37-4.58-4.45-6.08-6L578.29,116a3.27,3.27,0,0,1-.59-.69,3.39,3.39,0,0,1,.71.56l1.85,1.66c1.56,1.43,3.73,3.45,6.21,5.81l-.44.09,1.41-3.5c1-2.57,2-5,2.87-7.06l.24-.58.21.58a19.57,19.57,0,0,0,2.71,5.06C594.3,119,594.86,119.58,594.82,119.62Z" fill="#3aafa9"/><path d="M606.27,115.24a9.75,9.75,0,0,1-1.43,2,19.55,19.55,0,0,1-4.66,4.09l-.27.17-.11-.3c-.4-1.09-.86-2.26-1.34-3.48-.74-1.82-1.42-3.55-2-5.09l.47,0c-.4,2-.9,3.67-1.2,4.83a11,11,0,0,1-.53,1.84,7.73,7.73,0,0,1,.25-1.9c.22-1.19.64-2.86,1-4.86l.15-.89.32.85c.56,1.52,1.26,3.24,2,5.06.49,1.22.94,2.4,1.32,3.5l-.37-.14A22.39,22.39,0,0,0,604.6,117,21.54,21.54,0,0,1,606.27,115.24Z" fill="#3aafa9"/><path d="M599.23,210.61a5.41,5.41,0,0,1,.06-.93c.07-.65.17-1.54.29-2.66s.24-2.57.36-4.21c0-.82.12-1.7.18-2.63s.08-1.92.12-3c.19-4.14.18-9.08.08-14.57s-.44-11.51-.87-17.82c-.92-12.64-2.16-24.05-3.1-32.3l-1.12-9.77c-.12-1.12-.21-2-.28-2.66a6.46,6.46,0,0,1-.07-.93,5.77,5.77,0,0,1,.18.92c.09.65.22,1.53.38,2.64.33,2.3.78,5.63,1.29,9.76,1,8.24,2.35,19.64,3.27,32.3.43,6.32.71,12.36.83,17.85s0,10.45-.2,14.6c-.06,1-.11,2-.16,3s-.16,1.81-.23,2.64c-.15,1.64-.26,3.06-.45,4.21s-.29,2-.39,2.65A5,5,0,0,1,599.23,210.61Z" fill="#3aafa9"/><path d="M644.36,152.16a26.29,26.29,0,0,1-.27-5.31,26.14,26.14,0,0,1,.27-5.3,24.88,24.88,0,0,1,.28,5.3A25,25,0,0,1,644.36,152.16Z" fill="#3aafa9"/><path d="M648.09,152.84c0,.49-.74-.93-2.38-5.48a24.23,24.23,0,0,1-1.48-5.78,49.87,49.87,0,0,1,2,5.61A51,51,0,0,1,648.09,152.84Z" fill="#3aafa9"/><path d="M612.05,397.55l-.85,20.27s20.32,7.67,20.53,11.44L592.36,429l0-31.65Z" fill="#def2f1"/><path d="M599,416.05a1.6,1.6,0,0,0-1.13,1.82,1.55,1.55,0,0,0,1.81,1.13,1.69,1.69,0,0,0,1.17-1.94,1.6,1.6,0,0,0-2-1" fill="#17252a"/><path d="M592.36,429l.13-3.19,37.7,1.41s1.75.77,1.54,2Z" fill="#17252a"/><path d="M611.84,417.63c0,.19-1,.27-1.92.88s-1.46,1.42-1.63,1.34.11-1.18,1.28-1.9S611.88,417.45,611.84,417.63Z" fill="#17252a"/><path d="M616,419.36c0,.19-.79.51-1.45,1.32s-.85,1.66-1,1.66-.31-1.1.53-2.09S616,419.18,616,419.36Z" fill="#17252a"/><path d="M618.28,424.31c-.18,0-.44-.92.06-2s1.4-1.46,1.48-1.3-.48.72-.88,1.59S618.47,424.3,618.28,424.31Z" fill="#17252a"/><path d="M611.52,413c-.08.18-1-.09-2,0s-1.94.4-2,.24.71-.85,2-.91S611.62,412.83,611.52,413Z" fill="#263238"/><path d="M611.62,408.89a3.65,3.65,0,0,1-2,0,8.91,8.91,0,0,1-2.06-.65,8.73,8.73,0,0,1-1.12-.6,2.6,2.6,0,0,1-.6-.47.83.83,0,0,1-.08-1,1,1,0,0,1,.85-.44,2.24,2.24,0,0,1,.73.11,6.6,6.6,0,0,1,1.23.43,6.77,6.77,0,0,1,1.81,1.2c.91.85,1.22,1.57,1.15,1.61s-.53-.54-1.45-1.25a8.24,8.24,0,0,0-1.76-1,7.47,7.47,0,0,0-1.13-.35c-.41-.12-.77-.12-.88.06s0,.1,0,.22a1.8,1.8,0,0,0,.43.35c.35.22.7.42,1,.6a11.14,11.14,0,0,0,1.9.74A14.68,14.68,0,0,1,611.62,408.89Z" fill="#263238"/><path d="M611.36,409.17a3.34,3.34,0,0,1-.51-1.91,6.48,6.48,0,0,1,.29-2.16,6.09,6.09,0,0,1,.51-1.19,1.61,1.61,0,0,1,1.26-1,.92.92,0,0,1,.82.55,2.87,2.87,0,0,1,.2.73,4.23,4.23,0,0,1,0,1.33,4.55,4.55,0,0,1-.85,2c-.78,1-1.58,1.24-1.6,1.17s.61-.46,1.21-1.44a4.59,4.59,0,0,0,.63-1.85,4,4,0,0,0,0-1.14c-.06-.42-.21-.75-.37-.71s-.53.31-.69.64a6.07,6.07,0,0,0-.5,1.07,7.07,7.07,0,0,0-.39,2C611.27,408.42,611.47,409.14,611.36,409.17Z" fill="#263238"/><path d="M544.13,391.59,537.74,417l-10.85,18.62a2.68,2.68,0,0,0,1.13,3.75h0a2.7,2.7,0,0,0,2.46,0c4.87-2.63,22.73-12.38,23.1-14.26.42-2.19,8.52-26.32,8.52-26.32Z" fill="#def2f1"/><path d="M528,439.33l26-16-.3,1.07a4,4,0,0,1-1.62,2.27c-2.12,1.44-8.07,5.28-21.58,12.65a2.67,2.67,0,0,1-2.53,0Z" fill="#17252a"/><path d="M551.12,413.76a1.62,1.62,0,0,0-1,1.92,1.56,1.56,0,0,0,1.9,1,1.72,1.72,0,0,0,1-2,1.62,1.62,0,0,0-2.09-.82" fill="#17252a"/><path d="M536.83,429.9a8,8,0,0,0-1.67-2.57,8.41,8.41,0,0,0-2.75-1.36c0-.07.37-.17,1-.09a4.23,4.23,0,0,1,3.41,3C537,429.52,536.9,429.9,536.83,429.9Z" fill="#17252a"/><path d="M534.1,432.78c-.15.08-.73-1-1.93-1.7a22.82,22.82,0,0,0-2.38-1,3,3,0,0,1,2.68.51C533.84,431.44,534.25,432.75,534.1,432.78Z" fill="#17252a"/><path d="M541.38,426.5a26.28,26.28,0,0,0-2.81-2.83,27.72,27.72,0,0,0-3.5-1.91,7.36,7.36,0,0,1,6.31,4.74Z" fill="#17252a"/><path d="M544,419c-.11.13-1.34-.84-3.13-1.4s-3.36-.53-3.37-.7A6.64,6.64,0,0,1,544,419Z" fill="#17252a"/><path d="M546,411.55A12.86,12.86,0,0,0,542.8,410a13.22,13.22,0,0,0-3.57-.09c0-.06.33-.3,1-.48a5.86,5.86,0,0,1,5.11,1.23C545.87,411.12,546.08,411.5,546,411.55Z" fill="#263238"/><path d="M543.24,408.6s0-.36.23-1a6.71,6.71,0,0,1,1.45-2.29,3,3,0,0,1,1.64-1.05,1.06,1.06,0,0,1,1.11.55,1.7,1.7,0,0,1,.08,1.25,3.78,3.78,0,0,1-4.13,2.49,4.39,4.39,0,0,1-3.55-3.36,1.52,1.52,0,0,1,.27-1.25,1.06,1.06,0,0,1,1.21-.24,3.77,3.77,0,0,1,1.43,1.32,7.89,7.89,0,0,1,1.18,2.44,2.1,2.1,0,0,1,.14,1,11.67,11.67,0,0,0-1.65-3.17,3.33,3.33,0,0,0-1.27-1.12.57.57,0,0,0-.66.12,1.06,1.06,0,0,0-.13.83A3.94,3.94,0,0,0,543.7,408a3.29,3.29,0,0,0,3.54-2.07,1.25,1.25,0,0,0,0-.88.58.58,0,0,0-.6-.31,2.76,2.76,0,0,0-1.42.87A10,10,0,0,0,543.24,408.6Z" fill="#263238"/><polygon points="589.47 116.25 592.24 117.69 591.72 122.35 587.41 121.44 589.47 116.25" fill="#e8505b"/><polygon points="589.47 116.25 592.24 117.69 591.72 122.35 587.41 121.44 589.47 116.25" fill="#2b7a78"/><polygon points="595.81 117.41 597.9 115.56 599.81 120.43 597.07 121.75 595.81 117.41" fill="#2b7a78"/><polygon points="592.75 123.48 591.46 178.5 600.76 187.7 605.26 175.48 596.33 123.19 592.75 123.48" fill="#2b7a78"/><path d="M592.81,116c.63-.07,1.51-.24,2.2-.39a1.52,1.52,0,0,1,1.66.77l1.18,2.16a1.56,1.56,0,0,1,.15,1l-.47,2.43a1.53,1.53,0,0,1-1.2,1.21l-2.65.54a1.54,1.54,0,0,1-1.67-.81l-1.33-2.62a1.54,1.54,0,0,1,0-1.31l.92-2.09A1.55,1.55,0,0,1,592.81,116Z" fill="#2b7a78"/><path d="M596.68,116.58a7.4,7.4,0,0,1-.71.88c-.46.52-1.1,1.24-1.82,2s-1.38,1.48-1.87,2a5.89,5.89,0,0,1-.82.77,6.29,6.29,0,0,1,.71-.88c.45-.52,1.1-1.23,1.82-2s1.38-1.47,1.87-2A4.72,4.72,0,0,1,596.68,116.58Z" fill="#17252a"/><path d="M594,119.11a6.15,6.15,0,0,1-1.29-1.07,6.22,6.22,0,0,1-1.12-1.24,6.87,6.87,0,0,1,1.28,1.08A7.08,7.08,0,0,1,594,119.11Z" fill="#17252a"/><path d="M597.06,122.63a29.12,29.12,0,0,1,.66-3.17,3.17,3.17,0,0,0-.66-2.07,1.77,1.77,0,0,1-.32-.9s.13.33.45.82c.15.25.36.53.54.89a2.12,2.12,0,0,1,.21,1.29c-.18.9-.42,1.66-.57,2.24A3.82,3.82,0,0,1,597.06,122.63Z" fill="#17252a"/><path d="M620.82,209.39l-3.91,202a2.47,2.47,0,0,1-2.49,2.43l-23.54-.21a2.47,2.47,0,0,1-2.45-2.53l3.64-173.86-30.6,172.57a4.46,4.46,0,0,1-4.53,3.67l-19.73-.68a4.45,4.45,0,0,1-4.24-5.13l31-199.09Z" fill="#17252a"/><path d="M546.77,402.76s0-.16.06-.47l.21-1.39c.2-1.25.49-3,.87-5.33.77-4.66,1.89-11.35,3.26-19.61,2.77-16.57,6.57-39.42,10.78-64.66s7.87-48.16,10.48-64.73c1.29-8.27,2.33-15,3.06-19.63.36-2.3.65-4.09.84-5.34.1-.59.18-1,.24-1.39s.09-.46.09-.46a4.12,4.12,0,0,1,0,.47c0,.34-.1.8-.18,1.4-.17,1.25-.42,3-.74,5.35-.64,4.65-1.64,11.36-2.89,19.66-2.51,16.59-6.15,39.49-10.32,64.76S554.43,359.5,551.56,376c-1.45,8.24-2.63,14.92-3.44,19.57-.42,2.29-.75,4.08-1,5.32-.12.58-.2,1-.27,1.38A4.07,4.07,0,0,1,546.77,402.76Z" fill="#3aafa9"/><path d="M607.08,403.5c-.15,0,.11-41.1.59-91.8s1-91.81,1.14-91.8-.11,41.09-.59,91.81S607.23,403.51,607.08,403.5Z" fill="#3aafa9"/><path d="M617.63,404.21c0,.15-6.42.28-14.33.28s-14.33-.13-14.33-.28,6.42-.27,14.33-.27S617.63,404.06,617.63,404.21Z" fill="#2b7a78"/><path d="M562.87,403.12a5.36,5.36,0,0,1-1.15.1l-3.13.11-10.34.25c-4,.09-7.7.12-10.35.1-1.32,0-2.39,0-3.13-.07a4.29,4.29,0,0,1-1.15-.11,5.68,5.68,0,0,1,1.15-.11l3.13-.1,10.34-.25c4-.09,7.7-.12,10.35-.1,1.32,0,2.39,0,3.13.07A4.29,4.29,0,0,1,562.87,403.12Z" fill="#2b7a78"/><path d="M596.18,211.77a21.36,21.36,0,0,1-.08,3.5c-.12,2.15-.32,5.12-.59,8.4-.14,1.64-.23,3.2-.43,4.63a9.09,9.09,0,0,1-1.25,3.65,5,5,0,0,1-1.91,1.78,1.81,1.81,0,0,1-.91.27,6,6,0,0,0,2.47-2.26,9.25,9.25,0,0,0,1.07-3.51c.16-1.39.24-3,.38-4.6.27-3.28.54-6.25.76-8.39A21.26,21.26,0,0,1,596.18,211.77Z" fill="#3aafa9"/><path d="M565.81,192.52a10.54,10.54,0,0,0,9.18,2.63c2.31-.46,4.51-1.72,6.86-1.57,2.58.17,4.71,2,7.06,3,4.39,2,9.52,1.35,14.17.11,2.15-.57,4.38-1.34,5.77-3.08a10.31,10.31,0,0,0,1.77-4.78,48.64,48.64,0,0,0,.69-9.49c0-2-.26-4.11-1.53-5.65a6.51,6.51,0,0,0-4.25-2.15,16.85,16.85,0,0,0-4.85.27,80.16,80.16,0,0,0-35.13,15.07" fill="#3aafa9"/><path d="M588.46,182s-29.55,13.22-32.56,13.88c-10,2.19-21.38-7.24-18.21-18,1.18-4,17.08-48.18,17.08-48.18l15.13,20.91-6.4,21.4L580.26,171Z" fill="#def2f1"/><path d="M578.89,171.12a5.65,5.65,0,0,1-1.17.16l-3.23.28c-2.75.21-6.6.48-11,.75l-.37,0,.11-.36,1-3.31c1.49-5,2.87-9.51,3.9-12.77.5-1.55.91-2.85,1.24-3.85a7.18,7.18,0,0,1,.52-1.39,9.29,9.29,0,0,1-.33,1.45c-.28,1-.64,2.33-1.08,3.9-.93,3.29-2.26,7.82-3.75,12.81-.34,1.14-.68,2.24-1,3.31l-.26-.33c4.38-.26,8.23-.46,11-.58l3.24-.12A5.68,5.68,0,0,1,578.89,171.12Z" fill="#3aafa9"/><path d="M585.16,183.76c.05.13-6.43,2.93-14.49,6.25S556,195.92,556,195.78s6.43-2.93,14.49-6.25S585.1,183.62,585.16,183.76Z" fill="#3aafa9"/><path d="M581.59,170.14l-2.34-11.35a1.47,1.47,0,0,1,1.44-1.75l29.37.14a1.45,1.45,0,0,1,1.44,1.63l-3,26a2,2,0,0,1-2,1.79l-19.15-.15a2,2,0,0,1-1.95-1.52Z" fill="#455a64"/><path d="M579,164.17h0a3.07,3.07,0,0,1,2.88,2c.48,1.25,1.19,2.71,2,3.14,1.44.78,3.93,1.41,5.24.77s6.56-5.36,7.47-4.84,1.71,1.71.79,2.76-5.77,4.19-4.85,5.24,11.14-3.57,12.72-3.16,2.49,1.37,1.57,2-7.87,3.25-8.26,4.17c0,0,10.49-2.76,10.88-2.1s1.05,1.7,0,2.1-10.09,2.75-10.88,3.14a18.8,18.8,0,0,1-4,1.18,44.05,44.05,0,0,0-4.23,1.34,9.21,9.21,0,0,1-6.52-.17l-1.06-.44a4.17,4.17,0,0,1-2.59-4.1l.22-3.58-1.15-2.95Z" fill="#fff"/><path d="M596.62,161.41a1.07,1.07,0,1,1-2.13,0,1.07,1.07,0,0,1,2.13,0Z" fill="#fafafa"/><path d="M722.94,253.25h-88V250h84.73a3.27,3.27,0,0,1,3.27,3.28Z" fill="#17252a"/><rect x="634.94" y="201.55" width="67.42" height="51" rx="3.34" fill="#17252a"/><rect x="637.75" y="203.98" width="61.79" height="45.41" fill="#fafafa"/><path d="M699.55,249.39s0-.28,0-.83,0-1.37,0-2.43c0-2.12,0-5.24,0-9.21,0-7.93,0-19.28,0-32.94l.08.06-61.79,0h0l.09-.08c0,16.49,0,32,0,45.41l-.08-.06,44.7,0,12.61,0h0l-12.6,0-44.75,0h-.08v-.07c0-13.38,0-28.92,0-45.41v-.08h.1l61.79,0h.08V204c0,13.68,0,25,0,33,0,4,0,7.08,0,9.2,0,1.05,0,1.86,0,2.41S699.55,249.39,699.55,249.39Z" fill="#263238"/><path d="M690.3,216.2h-3.24l-9,0-30.47,0,.08-.08v21l-.08-.07,30.26,0,8.89,0,2.39,0h0l-2.39,0-8.89,0-30.26,0h-.07V216.13h.07l30.47,0,9,0h3.24Z" fill="#e0e0e0"/><path d="M690.3,219.73c0,.05-9.55.08-21.34.08s-21.34,0-21.34-.08,9.55-.07,21.34-.07S690.3,219.69,690.3,219.73Z" fill="#e0e0e0"/><path d="M690,222.54c0,.05-9.55.08-21.34.08s-21.34,0-21.34-.08,9.55-.07,21.34-.07S690,222.5,690,222.54Z" fill="#e0e0e0"/><path d="M690.3,225.51s-9.55.08-21.34.08-21.34,0-21.34-.08,9.55-.08,21.34-.08S690.3,225.47,690.3,225.51Z" fill="#e0e0e0"/><path d="M690.3,228.4s-9.55.07-21.34.07-21.34,0-21.34-.07,9.55-.08,21.34-.08S690.3,228.36,690.3,228.4Z" fill="#e0e0e0"/><path d="M690.3,231.29s-9.55.07-21.34.07-21.34,0-21.34-.07,9.55-.08,21.34-.08S690.3,231.24,690.3,231.29Z" fill="#e0e0e0"/><path d="M647.62,234.17s9.56-.07,21.34-.07,21.34,0,21.34.07-9.55.08-21.34.08S647.62,234.22,647.62,234.17Z" fill="#e0e0e0"/><path d="M656.07,237.49s-.07-4.77-.07-10.64,0-10.65.07-10.65.08,4.77.08,10.65S656.12,237.49,656.07,237.49Z" fill="#e0e0e0"/><path d="M664.63,237.49s-.08-4.77-.08-10.64,0-10.65.08-10.65.08,4.77.08,10.65S664.67,237.49,664.63,237.49Z" fill="#e0e0e0"/><path d="M673.19,237.49s-.08-4.77-.08-10.64,0-10.65.08-10.65.07,4.77.07,10.65S673.23,237.49,673.19,237.49Z" fill="#e0e0e0"/><path d="M681.74,237.49s-.07-4.77-.07-10.64,0-10.65.07-10.65.08,4.77.08,10.65S681.79,237.49,681.74,237.49Z" fill="#e0e0e0"/><path d="M690.3,237.49s-.07-4.77-.07-10.64,0-10.65.07-10.65.08,4.77.08,10.65S690.34,237.49,690.3,237.49Z" fill="#e0e0e0"/><path d="M690.3,219.73a1.34,1.34,0,0,1-.32.25l-1,.68c-.84.59-2.06,1.43-3.58,2.47-3.05,2.1-7.32,5-12.17,8.28l-.06,0-.07,0-3.64-1.23-4.92-1.66.13,0-8.57,5.75h0l-6.19,2.14-1.7.57-.44.14c-.1,0-.16.05-.16,0l.15-.07.43-.17,1.68-.63,6.15-2.24,0,0,8.54-5.81.06,0,.07,0,4.92,1.65,3.64,1.23-.14,0c4.86-3.27,9.15-6.14,12.23-8.19l3.63-2.4,1-.63Z" fill="#2b7a78"/><circle cx="656.07" cy="234.17" r="0.52" fill="#2b7a78"/><circle cx="664.63" cy="228.4" r="0.52" fill="#2b7a78"/><circle cx="673.19" cy="231.24" r="0.52" fill="#e8505b"/><circle cx="681.83" cy="225.53" r="0.52" fill="#e8505b"/><path d="M690.3,234.17s-.06,0-.16-.08l-.46-.29L688,232.68l-6.28-4.13h.13l-8.54,5.75-.12.07-.08-.11-4.5-6.07-4.06-5.48h.23l-8.59,8.64,0,0h0l-6.36,2.07L648,234l-.45.14c-.11,0-.16,0-.16,0l.15-.06.44-.17,1.72-.6,6.33-2.16,0,0,8.54-8.69.12-.13.1.14,4.06,5.48,4.5,6.08-.2,0,8.57-5.7.07,0,.06,0,6.22,4.22,1.69,1.17.44.32Z" fill="#17252a"/><circle cx="664.63" cy="222.62" r="0.52" fill="#455a64"/><circle cx="656.07" cy="231.29" r="0.52" fill="#17252a"/><circle cx="673.19" cy="234.17" r="0.52" fill="#17252a"/><circle cx="681.74" cy="228.92" r="0.52" fill="#455a64"/><path d="M652.5,239.56a2.29,2.29,0,0,1-.82.08,2.32,2.32,0,0,1-.83-.08,2.32,2.32,0,0,1,.83-.08A2.29,2.29,0,0,1,652.5,239.56Z" fill="#e0e0e0"/><path d="M661.25,239.56a2.32,2.32,0,0,1-.83.08,2.29,2.29,0,0,1-.82-.08,2.29,2.29,0,0,1,.82-.08A2.32,2.32,0,0,1,661.25,239.56Z" fill="#e0e0e0"/><path d="M670,239.56a2.29,2.29,0,0,1-.82.08,2.32,2.32,0,0,1-.83-.08,2.32,2.32,0,0,1,.83-.08A2.29,2.29,0,0,1,670,239.56Z" fill="#e0e0e0"/><path d="M678.74,239.56a2.32,2.32,0,0,1-.83.08,2.29,2.29,0,0,1-.82-.08,2.29,2.29,0,0,1,.82-.08A2.32,2.32,0,0,1,678.74,239.56Z" fill="#e0e0e0"/><path d="M687.49,239.56a2.32,2.32,0,0,1-.83.08,2.29,2.29,0,0,1-.82-.08,2.29,2.29,0,0,1,.82-.08A2.32,2.32,0,0,1,687.49,239.56Z" fill="#e0e0e0"/><path d="M646.42,237.05s-.3.08-.67.08-.67,0-.67-.08a3.24,3.24,0,0,1,1.34,0Z" fill="#e0e0e0"/><path d="M646.42,233.69c0,.05-.3.08-.67.08s-.67,0-.67-.08a3.24,3.24,0,0,1,1.34,0Z" fill="#e0e0e0"/><path d="M646.42,230.34a3.24,3.24,0,0,1-1.34,0c0-.05.3-.08.67-.08S646.42,230.29,646.42,230.34Z" fill="#e0e0e0"/><path d="M646.42,227a3.24,3.24,0,0,1-1.34,0s.3-.08.67-.08S646.42,226.93,646.42,227Z" fill="#e0e0e0"/><path d="M646.42,223.62a3.24,3.24,0,0,1-1.34,0,2.85,2.85,0,0,1,1.34,0Z" fill="#e0e0e0"/><path d="M646.42,220.26a3.24,3.24,0,0,1-1.34,0,2.85,2.85,0,0,1,1.34,0Z" fill="#e0e0e0"/><path d="M646.42,216.9a2.85,2.85,0,0,1-1.34,0,2.85,2.85,0,0,1,1.34,0Z" fill="#e0e0e0"/><rect x="647.4" y="208.94" width="12.26" height="0.87" fill="#e8505b"/><path d="M681.56,211.48s-7.67.07-17.12.07-17.12,0-17.12-.07,7.66-.08,17.12-.08S681.56,211.44,681.56,211.48Z" fill="#2b7a78"/><path d="M669,243.75s-4.67.08-10.43.08-10.45,0-10.45-.08,4.68-.07,10.45-.07S669,243.71,669,243.75Z" fill="#2b7a78"/><path d="M653.18,245.33a31.12,31.12,0,0,1-4.46,0,31.12,31.12,0,0,1,4.46,0Z" fill="#2b7a78"/><path d="M688,243.47c0,.05-3.33.08-7.43.08s-7.42,0-7.42-.08,3.32-.07,7.42-.07S688,243.43,688,243.47Z" fill="#2b7a78"/><path d="M679.9,244.49a33.68,33.68,0,0,1-4.64,0,38.48,38.48,0,0,1,4.64,0Z" fill="#2b7a78"/><polygon points="315.14 429.2 333.58 266.12 349.23 271.64 323.67 429.2 315.14 429.2" fill="#def2f1"/><rect x="307.28" y="253.06" width="471.74" height="20.63" fill="#def2f1"/><path d="M407.21,253.37a.86.86,0,0,1-.15.22c-.11.14-.26.36-.49.62a10,10,0,0,1-2.37,1.9,13.38,13.38,0,0,1-4.56,1.53,32.79,32.79,0,0,1-6.36.28,62.64,62.64,0,0,1-7.65-.88,67.47,67.47,0,0,0-8.71-1c-6.19-.22-12.9,1.39-19.61,3.8s-13,5.14-19,6.81a53,53,0,0,1-8.68,1.72,36.76,36.76,0,0,1-7.72,0,26.11,26.11,0,0,1-10.57-3.38,16.17,16.17,0,0,1-3.27-2.45,1.48,1.48,0,0,1,.22.15l.63.47a21.93,21.93,0,0,0,2.53,1.63,26.74,26.74,0,0,0,10.51,3.18,37.49,37.49,0,0,0,7.62-.06,52.17,52.17,0,0,0,8.58-1.76c6-1.68,12.23-4.42,19-6.84s13.54-4,19.83-3.79a67.06,67.06,0,0,1,8.77,1.1,65.2,65.2,0,0,0,7.59.95,33.36,33.36,0,0,0,6.29-.19,13.48,13.48,0,0,0,4.5-1.41A12.06,12.06,0,0,0,407.21,253.37Z" fill="#3aafa9"/><path d="M355.61,253.68a12.18,12.18,0,0,1-1.43,1.22,32.64,32.64,0,0,1-4.3,2.77,36.75,36.75,0,0,1-16.24,4.3,35.26,35.26,0,0,1-16.44-3.39,10.46,10.46,0,0,1-4-3.24,6,6,0,0,1-.65-1.25,1.48,1.48,0,0,1-.12-.47,13.33,13.33,0,0,0,1,1.58,10.78,10.78,0,0,0,4,3,36.51,36.51,0,0,0,16.24,3.18,39.39,39.39,0,0,0,9.07-1.37,39.86,39.86,0,0,0,7-2.72,40.69,40.69,0,0,0,4.36-2.59A11.64,11.64,0,0,1,355.61,253.68Z" fill="#3aafa9"/><path d="M466.3,266.75s.25.09.73.27a14.58,14.58,0,0,0,2.18.58,12.87,12.87,0,0,0,8.25-1.29l0,.26a19.62,19.62,0,0,0-10.24-4A19.89,19.89,0,0,0,453.89,266a2.12,2.12,0,0,0-1,1.34,1.45,1.45,0,0,0,.88,1.33,6.11,6.11,0,0,0,1.83.64l2,.46c2.7.6,5.49,1.19,8.37,1.62a50.35,50.35,0,0,0,8.91.6,32.13,32.13,0,0,0,4.57-.44c.76-.13,1.52-.27,2.28-.47a11.33,11.33,0,0,0,2.2-.72,7.21,7.21,0,0,0,2.86-2.06,3.27,3.27,0,0,0,.55-3.17,5.46,5.46,0,0,0-2.25-2.51,18.51,18.51,0,0,0-3.13-1.53,42.92,42.92,0,0,0-13.1-2.71,54.33,54.33,0,0,0-22.37,3.46A55.3,55.3,0,0,0,433,269.24c-1.44,1.11-2.55,2-3.25,2.64l-.83.7a1.44,1.44,0,0,1-.3.23s.08-.1.25-.27l.8-.75c.68-.68,1.77-1.59,3.19-2.73a53.64,53.64,0,0,1,13.46-7.56,54.2,54.2,0,0,1,22.54-3.62,42.76,42.76,0,0,1,13.28,2.73,17.57,17.57,0,0,1,3.24,1.57,6,6,0,0,1,2.47,2.79,3.85,3.85,0,0,1-.63,3.72,7.82,7.82,0,0,1-3.09,2.25,12.73,12.73,0,0,1-2.29.74c-.77.2-1.55.35-2.32.49a33.53,33.53,0,0,1-4.65.44,49.36,49.36,0,0,1-9-.63c-2.91-.43-5.71-1-8.41-1.65l-2-.46a6.91,6.91,0,0,1-2-.71,2.67,2.67,0,0,1-.82-.72,1.65,1.65,0,0,1-.31-1.12,2.63,2.63,0,0,1,1.25-1.69,20.26,20.26,0,0,1,13.65-3.47,19.86,19.86,0,0,1,10.4,4.16l.19.15-.22.11a12.74,12.74,0,0,1-8.43,1.18A9.44,9.44,0,0,1,466.3,266.75Z" fill="#3aafa9"/><path d="M527,253.9a2.85,2.85,0,0,1,.47,1,7.79,7.79,0,0,1,.31,3.1c-.16,2.66-1.79,6.15-4.6,9a23.39,23.39,0,0,1-4.29,3.65,19,19,0,0,1-4.14,2,20.17,20.17,0,0,1-3,.75,4,4,0,0,1-1.13.09c0-.1,1.58-.33,4-1.23a20.42,20.42,0,0,0,4-2.07,24.28,24.28,0,0,0,4.16-3.6,15.65,15.65,0,0,0,4.61-8.65A11.08,11.08,0,0,0,527,253.9Z" fill="#3aafa9"/><path d="M611.71,272.61a24,24,0,0,0-2.16-2.11,15.35,15.35,0,0,0-7.38-3.33,16.79,16.79,0,0,0-5.62.16,24.27,24.27,0,0,1-6.58.61c-2.42-.22-4.59-1.69-6.55-3.21a22.38,22.38,0,0,0-6.59-3.91,24.17,24.17,0,0,0-14.63-.23,34.9,34.9,0,0,0-10.82,5.49,58.1,58.1,0,0,0-6.27,5.35l-1.6,1.58a4.12,4.12,0,0,1-.58.53,3.6,3.6,0,0,1,.49-.61c.34-.39.85-.95,1.53-1.66a52.54,52.54,0,0,1,6.19-5.53,34.3,34.3,0,0,1,10.92-5.66,24.42,24.42,0,0,1,15,.19,22.7,22.7,0,0,1,6.73,4c2,1.54,4,2.92,6.27,3.14a24.32,24.32,0,0,0,6.45-.55,16.72,16.72,0,0,1,5.76-.09,15.21,15.21,0,0,1,7.46,3.56A10.07,10.07,0,0,1,611.71,272.61Z" fill="#3aafa9"/><path d="M687.35,253.26a5.55,5.55,0,0,1-.52.7,23.22,23.22,0,0,1-1.61,1.92,43.85,43.85,0,0,1-6.89,6.12,54.82,54.82,0,0,1-11.94,6.62,49.7,49.7,0,0,1-7.71,2.46,39.56,39.56,0,0,1-8.62,1.11,42.64,42.64,0,0,1-16.35-3.4,55,55,0,0,1-11.89-6.74,47.6,47.6,0,0,1-6.84-6.17c-.75-.79-1.24-1.48-1.61-1.92a5.55,5.55,0,0,1-.52-.7,4.15,4.15,0,0,1,.61.63c.4.41.91,1.08,1.69,1.83a51.07,51.07,0,0,0,6.92,6,55.9,55.9,0,0,0,11.84,6.57,42.78,42.78,0,0,0,16.15,3.32,39.77,39.77,0,0,0,8.49-1.08,50.21,50.21,0,0,0,7.64-2.4,57.21,57.21,0,0,0,11.9-6.46,47.92,47.92,0,0,0,7-5.94c.78-.75,1.29-1.43,1.68-1.84A4.15,4.15,0,0,1,687.35,253.26Z" fill="#3aafa9"/><path d="M676.54,253.06s-.12.13-.4.33-.68.49-1.22.82a47.23,47.23,0,0,1-4.73,2.68,51,51,0,0,1-7.46,3,32.86,32.86,0,0,1-9.74,1.66,40.07,40.07,0,0,1-17.3-4.37,37.58,37.58,0,0,1-4.68-2.75c-.54-.35-.92-.67-1.19-.87a2,2,0,0,1-.39-.34,14.74,14.74,0,0,1,1.7,1,47.9,47.9,0,0,0,4.74,2.57A41.58,41.58,0,0,0,653,261a33.46,33.46,0,0,0,9.58-1.59,54.87,54.87,0,0,0,7.45-2.9c2.05-1,3.68-1.86,4.78-2.5A16.83,16.83,0,0,1,676.54,253.06Z" fill="#3aafa9"/><path d="M724.51,255.17a2.16,2.16,0,0,1-.55,0l-1.54-.1L721.3,255H720a30,30,0,0,0-3.24,0l-1.87.1-2,.24c-1.4.12-2.88.45-4.44.71a66.41,66.41,0,0,0-9.86,2.94,67.39,67.39,0,0,0-9.24,4.55c-1.32.86-2.63,1.61-3.75,2.47-.57.41-1.13.8-1.66,1.19l-1.46,1.18c-.95.73-1.74,1.48-2.44,2.12l-1,.89-.77.81-1.1,1.09c-.25.25-.39.37-.41.36a2.56,2.56,0,0,1,.33-.44l1-1.17.75-.84,1-.93a30.47,30.47,0,0,1,2.41-2.2l1.45-1.23,1.65-1.22c1.12-.88,2.42-1.66,3.76-2.54a65.52,65.52,0,0,1,9.3-4.63,63.65,63.65,0,0,1,10-2.92c1.58-.25,3.06-.57,4.48-.67l2.05-.21,1.9-.06a31.5,31.5,0,0,1,3.26,0l1.33.06,1.12.13,1.54.21A2.34,2.34,0,0,1,724.51,255.17Z" fill="#3aafa9"/><path d="M744.71,251.13s0,.14,0,.39a9.76,9.76,0,0,1-.09,1.12,16,16,0,0,1-1.1,3.95,23.21,23.21,0,0,1-8.81,10.12,45.49,45.49,0,0,1-12.4,5.29c-1.66.47-3,.81-4,1a7,7,0,0,1-1.47.28,7.65,7.65,0,0,1,1.41-.5l3.9-1.2a50.17,50.17,0,0,0,12.21-5.39,23.75,23.75,0,0,0,8.74-9.79A24.35,24.35,0,0,0,744.71,251.13Z" fill="#3aafa9"/><path d="M620.19,272.19a22,22,0,0,0-2.6-3.08,24,24,0,0,0-9.5-5.32,52.14,52.14,0,0,0-7.42-1.63c-2.7-.44-5.62-.77-8.67-1.3a73.3,73.3,0,0,1-9.42-2.36,62.23,62.23,0,0,0-10.05-2.43c-7-.89-13.84.6-19.58,2.71a71.79,71.79,0,0,0-8,3.57c-2.44,1.25-4.68,2.49-6.71,3.63-4.06,2.3-7.29,4.26-9.52,5.62l-2.56,1.57-.67.4q-.22.14-.24.12s.06-.07.21-.17l.64-.45c.56-.39,1.41-1,2.5-1.66,2.2-1.42,5.4-3.44,9.44-5.78,2-1.17,4.25-2.43,6.69-3.7a68.37,68.37,0,0,1,8-3.65,41.89,41.89,0,0,1,19.83-2.78A61.33,61.33,0,0,1,582.74,258a71.72,71.72,0,0,0,9.35,2.38c3,.54,5.94.9,8.66,1.35a51.31,51.31,0,0,1,7.46,1.72,23.54,23.54,0,0,1,9.54,5.54A12.33,12.33,0,0,1,620.19,272.19Z" fill="#3aafa9"/><path d="M513.94,253.37a4.65,4.65,0,0,1-.07,1.31,15.39,15.39,0,0,1-.92,3.49,20,20,0,0,1-7.25,9.27A48.49,48.49,0,0,1,495,272.39c-1.44.48-2.61.82-3.43,1a5,5,0,0,1-1.29.27,6.39,6.39,0,0,1,1.22-.48l3.36-1.21a55,55,0,0,0,10.57-5,20.55,20.55,0,0,0,7.18-8.95A27.63,27.63,0,0,0,513.94,253.37Z" fill="#3aafa9"/><path d="M404.43,273.69a8,8,0,0,1,1.14-1.1c.76-.69,1.91-1.63,3.36-2.75a96.74,96.74,0,0,1,12-7.75c4.91-2.7,9.49-4.85,12.81-6.38,1.66-.76,3-1.36,4-1.77a8,8,0,0,1,1.49-.57,9.12,9.12,0,0,1-1.39.78L434,256.08c-3.28,1.62-7.82,3.83-12.71,6.51a118.7,118.7,0,0,0-12.06,7.58c-1.48,1.07-2.66,2-3.46,2.59A8.82,8.82,0,0,1,404.43,273.69Z" fill="#263238"/><path d="M426.65,254.21c0,.07-1.09-.14-3,0a21.5,21.5,0,0,0-7.87,2.39c-3.16,1.54-6.48,4.09-10.23,6.86a50.88,50.88,0,0,1-6.15,4A34.46,34.46,0,0,1,392,270.3a68.62,68.62,0,0,1-15.07,1.81c-4.66.13-8.85,0-12.36.19a60.86,60.86,0,0,0-8.27.8c-1,.18-1.71.33-2.22.45a3.91,3.91,0,0,1-.78.14,3.93,3.93,0,0,1,.75-.25c.5-.16,1.24-.34,2.21-.56a54.5,54.5,0,0,1,8.29-1c3.53-.19,7.72-.14,12.37-.31a69.16,69.16,0,0,0,14.94-1.84,33.94,33.94,0,0,0,7.24-2.77A53.32,53.32,0,0,0,405.2,263c3.74-2.74,7.13-5.28,10.36-6.8a20.9,20.9,0,0,1,8-2.25,14.58,14.58,0,0,1,2.28.08A3.94,3.94,0,0,1,426.65,254.21Z" fill="#263238"/><path d="M720.86,253c0,.16-19.72.29-44,.29s-44-.13-44-.29,19.71-.29,44-.29S720.86,252.82,720.86,253Z" fill="#263238"/><rect x="472.86" y="243.8" width="63.57" height="9.5" fill="#17252a"/><rect x="472.86" y="245.99" width="16.81" height="5.12" fill="#fff"/><rect x="478.54" y="234.3" width="63.57" height="9.5" fill="#3aafa9"/><rect x="499" y="236.58" width="43.11" height="4.75" fill="#fff"/><rect x="469.04" y="224.8" width="63.57" height="9.5" transform="translate(1001.65 459.1) rotate(180)" fill="#17252a"/><rect x="515.81" y="226.99" width="16.81" height="5.12" transform="translate(1048.42 459.1) rotate(180)" fill="#fff"/><path d="M692.43,393.54,700,412.36s-16.58,14-15.52,17.64l37-13.38-10.6-29.82Z" fill="#3aafa9"/><path d="M710.88,406.62a1.59,1.59,0,0,1,1.67,1.34,1.54,1.54,0,0,1-1.32,1.67,1.7,1.7,0,0,1-1.76-1.44c0-.78.78-1.69,1.57-1.58" fill="#e0e0e0"/><path d="M721.51,416.62l-1.18-3-35.06,14s-1.39,1.31-.78,2.4Z" fill="#fff"/><path d="M699.35,412.39c.07.18,1-.07,2.1.19s1.85.85,2,.72-.51-1.08-1.84-1.37S699.25,412.24,699.35,412.39Z" fill="#17252a"/><path d="M696,415.4c0,.19.92.21,1.81.76s1.36,1.28,1.54,1.21-.08-1.14-1.2-1.79S696,415.23,696,415.4Z" fill="#17252a"/><path d="M695.52,420.85c.18,0,.1-1-.72-1.84s-1.81-.91-1.83-.73.69.51,1.35,1.2S695.33,420.89,695.52,420.85Z" fill="#17252a"/><path d="M698.09,407.91c.14.14.88-.41,1.93-.71s2-.27,2-.46-1-.56-2.19-.18S698,407.8,698.09,407.91Z" fill="#17252a"/><path d="M696.63,404.08c0,.08.78-.07,1.86-.68a9,9,0,0,0,1.72-1.29,11.48,11.48,0,0,0,.86-.95,2.71,2.71,0,0,0,.4-.64.85.85,0,0,0-.26-1,1.07,1.07,0,0,0-.94-.12,2.27,2.27,0,0,0-.66.35,5.88,5.88,0,0,0-1,.81,6.89,6.89,0,0,0-1.31,1.74,3.21,3.21,0,0,0-.54,1.9c.1,0,.31-.69,1-1.66A7.72,7.72,0,0,1,699,401a7,7,0,0,1,.94-.71c.36-.25.69-.37.85-.23s.08.07,0,.22a2.24,2.24,0,0,1-.3.47,10,10,0,0,1-.78.91,10.29,10.29,0,0,1-1.54,1.33A16.85,16.85,0,0,0,696.63,404.08Z" fill="#17252a"/><path d="M697,404.26a3.09,3.09,0,0,0-.16-2,6.32,6.32,0,0,0-1-1.94,6.48,6.48,0,0,0-.88-1,1.61,1.61,0,0,0-1.52-.51.91.91,0,0,0-.59.79,2.92,2.92,0,0,0,0,.75,4.14,4.14,0,0,0,.46,1.25,4.48,4.48,0,0,0,1.48,1.63,2.59,2.59,0,0,0,1.9.58c0-.12-.73-.24-1.62-1a4.58,4.58,0,0,1-1.22-1.53,4.27,4.27,0,0,1-.35-1.08c-.08-.42,0-.79.11-.8a1.13,1.13,0,0,1,.87.37,6.48,6.48,0,0,1,.82.84,6.8,6.8,0,0,1,1,1.72C696.8,403.52,696.86,404.26,697,404.26Z" fill="#17252a"/><path d="M727.28,390.09l7.58,18.83s-16.58,14-15.52,17.64l37-13.39-10.6-29.81Z" fill="#3aafa9"/><path d="M745.73,403.17a1.61,1.61,0,0,1,1.67,1.35,1.55,1.55,0,0,1-1.32,1.67,1.7,1.7,0,0,1-1.76-1.44c0-.79.79-1.69,1.57-1.58" fill="#e0e0e0"/><path d="M756.36,413.17l-1.18-3-35.06,13.94s-1.39,1.32-.78,2.41Z" fill="#fff"/><path d="M734.2,409c.07.17,1-.07,2.1.19s1.85.85,2,.72-.51-1.08-1.84-1.37S734.1,408.79,734.2,409Z" fill="#17252a"/><path d="M730.89,412c0,.19.92.21,1.81.75s1.36,1.29,1.54,1.22-.08-1.14-1.2-1.79S730.83,411.78,730.89,412Z" fill="#17252a"/><path d="M730.37,417.4c.18,0,.1-1-.72-1.84s-1.81-.91-1.83-.73.69.52,1.35,1.21S730.18,417.45,730.37,417.4Z" fill="#17252a"/><path d="M732.94,404.46c.14.14.88-.41,1.93-.71s2-.26,2-.45-1-.56-2.19-.19S732.8,404.35,732.94,404.46Z" fill="#17252a"/><path d="M731.48,400.64a3.78,3.78,0,0,0,1.86-.68,9,9,0,0,0,1.72-1.3,8.86,8.86,0,0,0,.86-1,2.35,2.35,0,0,0,.4-.64.83.83,0,0,0-.26-1,1,1,0,0,0-.94-.13,2.54,2.54,0,0,0-.66.35,7,7,0,0,0-2.32,2.55c-.57,1.11-.62,1.89-.54,1.9s.31-.68.95-1.66a8,8,0,0,1,1.32-1.53,7.7,7.7,0,0,1,.94-.71c.36-.24.69-.37.85-.23s.08.08,0,.22a2,2,0,0,1-.3.47,10.2,10.2,0,0,1-.78.92,10.91,10.91,0,0,1-1.54,1.33A14.82,14.82,0,0,0,731.48,400.64Z" fill="#17252a"/><path d="M731.81,400.81a3.08,3.08,0,0,0-.15-2,6.37,6.37,0,0,0-1-1.94,6.54,6.54,0,0,0-.88-1,1.63,1.63,0,0,0-1.52-.51.94.94,0,0,0-.59.8,2.54,2.54,0,0,0,.06.75,4.13,4.13,0,0,0,.45,1.25,4.65,4.65,0,0,0,1.48,1.63c1.07.69,1.9.64,1.9.57a14.46,14.46,0,0,1-1.62-.95,4.58,4.58,0,0,1-1.22-1.53,4.22,4.22,0,0,1-.35-1.09c-.08-.41,0-.78.11-.8s.6.12.87.38a5.9,5.9,0,0,1,.82.84,6.63,6.63,0,0,1,1,1.72C731.65,400.07,731.71,400.82,731.81,400.81Z" fill="#17252a"/><path d="M752.82,146.2l-3.54,29,5.5,13.35-21.76.77-4.51-10.43s-10.78-1.22-11.21-8.12c-.27-4.41,6.83-36.53,6.83-36.53Z" fill="#fff"/><path d="M745.84,180.67c2.57-1.74,3.86-2.9,5-5.79s1.86-5.93,3.14-8.75c1.35-3,3.29-5.63,4.61-8.61s2-6.47.72-9.46c0,0-.47-3.82-5.62-5.22,0,0-2.91-8.11-9.59-8.87-9.08-1-8.77-3.71-14.7-6a5.75,5.75,0,0,0-7.69,2.77s-3.64,1.67-4.5,5l0,.09a7.91,7.91,0,0,0,3.7,8.71l1.1.65a7.68,7.68,0,0,1,2.8,2.23c1,1.5.77,3.46.33,5.2s-1.06,3.49-.82,5.26c.08.6.43,1.32,1,1.29s.9-1,1.12-1.69c.63-2,3.61-3,5.15-1.12a3.21,3.21,0,0,1,.14,4c-1,1.31-2.75,2.12-3.39,3.67-1.06,2.6,1.61,5.64,2.51,7.37a11.59,11.59,0,0,0,1.08,1.75,25.91,25.91,0,0,0,7.59,6.61c2.14,1.29,5,1.68,7.12.35" fill="#17252a"/><path d="M656.32,215.67h0c-3.82-1.62-6.28-3.1-8.84-4-3.15-1.14-4.37-1.84-4.12-2.41.34-.77.17-.49,6.2.78,0,0-8.59-1.89-6.41-2.94,1-.47,8.12,1,8.12,1-5.85-.68-7.95-1.86-7.8-2.74.21-1.27,8.88.61,8.88.61s-6.64-1.3-7.73-1.89.3-1.16,1.58-1.29c1.44-.16,9.92.14,12.38.1a1.44,1.44,0,0,0,1.58-1.52c-.71-3.49.59-6.59,1.34-7.26s1.92.12,1.68,1.21a13.27,13.27,0,0,0,.05,3.6,8.57,8.57,0,0,0,.8,2.77c.49,1,.94,1.84,1.35,2.53l12.16,13.31-5.25,12.62Z" fill="#fff"/><path d="M653.17,210.85a16.34,16.34,0,0,1-4.17-.69,15.7,15.7,0,0,1-4-1.25,16.42,16.42,0,0,1,4.16.7A16.15,16.15,0,0,1,653.17,210.85Z" fill="#3aafa9"/><path d="M653.9,208.59a18.62,18.62,0,0,1-4.48-.49,18.43,18.43,0,0,1-4.38-1,35.68,35.68,0,0,1,8.86,1.54Z" fill="#3aafa9"/><path d="M654.65,206.24a16.76,16.76,0,0,1-4.25-.4,16.56,16.56,0,0,1-4.16-1,16.79,16.79,0,0,1,4.25.4A16.06,16.06,0,0,1,654.65,206.24Z" fill="#3aafa9"/><path d="M736,272.38l-52,7.85a25.34,25.34,0,0,0-17.43,11.2h0a25.33,25.33,0,0,0-3.11,20.92l27.46,87.58,24.81-9.39-15.23-77.43,80.46-5.39V272.38L736,270.76" fill="#17252a"/><path d="M772.61,272.38l-52,7.85a25.31,25.31,0,0,0-17.43,11.2h0a25.33,25.33,0,0,0-3.12,20.92l24,82.37,27.71-7.31-14.62-74.3,53.75-3.6V274.17l-18.23-3.41" fill="#17252a"/><path d="M669.25,207.5c1.07-.15,36.41,27.39,36.41,27.39l-22.56,9L660.24,221.2S658.8,208.94,669.25,207.5Z" fill="#3aafa9"/><path d="M783.52,196.68c-5.89-8.53-15.91-11.48-19.39-12.28a10,10,0,0,0-2.25-.25H731.82A21.12,21.12,0,0,0,717.2,190a72.12,72.12,0,0,0-11.54,14.88l-15.14,21-9.31,15.61,1.89,2.39a15.66,15.66,0,0,0,18.7,4.76c3.07-1.44,5.31-4.11,7.4-7.17,3.8-5.59,7.77-11.63,10.4-16.24l15.18,43.4-8.12,5.16,34.21,13.83,35.62-15.24-9.83-35h0s15.6,1.52,17-4.61S790.72,207.14,783.52,196.68Z" fill="#3aafa9"/><path d="M780,212.58a144.81,144.81,0,0,1,7.11,13.15c.29.58,1.14.07.86-.51a111.51,111.51,0,0,0-7.4-13c-.23-.35-.79,0-.57.33Z" fill="#fafafa"/><path d="M787.07,210.05a144.72,144.72,0,0,1,7.1,13.15c.29.58,1.14.07.87-.51a111.58,111.58,0,0,0-7.41-13c-.23-.36-.79,0-.56.33Z" fill="#fafafa"/><path d="M773.15,213.58c1.5,5.83,2.69,11.75,3.64,17.69.14.83,1.41.48,1.27-.35a118.21,118.21,0,0,0-4.37-17.48.28.28,0,0,0-.54.14Z" fill="#fafafa"/><path d="M757,215.25A70.91,70.91,0,0,1,760,232.78c0,.82,1.32.83,1.29,0a58.6,58.6,0,0,0-3.6-17.7c-.14-.4-.75-.24-.63.17Z" fill="#fafafa"/><path d="M770.22,229.46a78.35,78.35,0,0,1-3.9-16.52c-.08-.76-1.23-.8-1.22,0,.06,5.65,1.44,12,4.48,16.79.2.32.76.12.64-.27Z" fill="#fafafa"/><path d="M749.84,215.72a75.14,75.14,0,0,0,2.43,16.67c.2.76,1.31.43,1.16-.32-1-5.48-2.06-10.93-3-16.44-.06-.36-.64-.27-.63.09Z" fill="#fafafa"/><path d="M741.2,216.7c1.5,6.12,2.61,12.26,3.71,18.45.1.58,1.12.45,1.05-.14a100.49,100.49,0,0,0-4.31-18.43.23.23,0,0,0-.45.12Z" fill="#fafafa"/><path d="M733.3,218.13a73.37,73.37,0,0,0,1.86,17c.16.61,1,.33.92-.25a155.42,155.42,0,0,1-2-16.79c0-.47-.75-.48-.74,0Z" fill="#fafafa"/><path d="M708.06,233.72c4.73-4.42,8.88-10.06,12.81-15.2.35-.45-.42-1.05-.8-.61-4.25,4.87-8.94,10.05-12.33,15.56a.21.21,0,0,0,.32.25Z" fill="#fafafa"/><path d="M702.52,228.75a53.8,53.8,0,0,0,11-13.49c.34-.58-.53-1.07-.9-.53-3.27,4.77-6.91,9.1-10.48,13.63a.28.28,0,0,0,.39.39Z" fill="#fafafa"/><path d="M705.86,212.53c-3.15,3.53-6.4,7-9.38,10.66-.39.49.28,1.19.71.71,3.16-3.54,6.06-7.31,9-11,.21-.27-.15-.64-.38-.38Z" fill="#fafafa"/><path d="M725.27,219c1.35,5.66,2.14,11.41,3.38,17.08.12.54,1,.43,1-.13A127.26,127.26,0,0,0,726,218.77c-.12-.49-.87-.29-.76.21Z" fill="#fafafa"/><path d="M770.92,231.14a8.34,8.34,0,0,0-6.39,3.19,19.92,19.92,0,0,0-3.32,6.56,68.35,68.35,0,0,0-3.55,23.22c.05,2.4.08,5.17-1.74,6.75-1.56,1.34-3.88,1.24-5.8,2-3.07,1.2-5.7,5.31-4.81,8.48l17.2,6.52Z" fill="#2b7a78"/><path d="M751.59,267.49a6.07,6.07,0,0,1-2,.76,22.84,22.84,0,0,1-5,.78,22.54,22.54,0,0,1-5.06-.34,6,6,0,0,1-2-.58c0-.18,3.16.53,7.05.34S751.54,267.31,751.59,267.49Z" fill="#2b7a78"/><polygon points="689.67 314.55 675.98 429.35 681.9 429.35 696.43 314.55 689.67 314.55" fill="#def2f1"/><polygon points="744.2 314.55 756.77 429.35 763.21 429.35 750.96 314.55 744.2 314.55" fill="#def2f1"/><polyline points="811.84 314.55 822.31 429.35 829.5 429.35 817.55 314.55 808.88 314.55" fill="#def2f1"/><path d="M776.89,215.93H827.6a7.9,7.9,0,0,1,7.82,9l-12,83.79a6.79,6.79,0,0,1-6.72,5.82H751Z" fill="#def2f1"/><path d="M682.91,314.55c.13-1.27,0-7.61,0-7.61l62.9,1.18a9.65,9.65,0,0,0,9.7-8.09l12.54-76.59a9,9,0,0,1,8.84-7.51h0l-13.68,86.23a14.69,14.69,0,0,1-14.51,12.39Z" fill="#def2f1"/><path d="M776.89,215.93a.79.79,0,0,1,0,.27l-.1.77c-.1.73-.24,1.72-.41,3-.4,2.63-1,6.34-1.64,10.9-1.45,9.24-3.43,21.93-5.63,35.94-1.12,7-2.19,13.69-3.16,19.77-.5,3-1,5.93-1.4,8.63a59.7,59.7,0,0,1-1.53,7.48,20.45,20.45,0,0,1-2.59,5.76,14.42,14.42,0,0,1-3.25,3.49,10.57,10.57,0,0,1-2.62,1.47,6.25,6.25,0,0,1-1,.3,13.22,13.22,0,0,0,3.49-1.95,17.18,17.18,0,0,0,5.58-9.18,60.63,60.63,0,0,0,1.45-7.44c.42-2.71.87-5.6,1.35-8.64,1-6.08,2-12.76,3.12-19.78,2.26-14,4.3-26.68,5.79-35.91.77-4.55,1.39-8.25,1.82-10.87.23-1.25.4-2.23.53-3l.15-.76A1.23,1.23,0,0,1,776.89,215.93Z" fill="#2b7a78"/><path d="M779.7,216.49a24.57,24.57,0,0,1-3.06-4.33,24.67,24.67,0,0,1-2.56-4.64,25.05,25.05,0,0,1,3.06,4.33A24,24,0,0,1,779.7,216.49Z" fill="#2b7a78"/><path d="M684,235a45.93,45.93,0,0,1,3.94-6.12,45.63,45.63,0,0,1,4.41-5.79,46.37,46.37,0,0,1-3.94,6.13C686.09,232.54,684.12,235.14,684,235Z" fill="#2b7a78"/><path d="M726.41,214.75a7.41,7.41,0,0,1-.68,1.29l-2,3.42c-1.71,2.88-4.12,6.84-6.9,11.13s-5.4,8.11-7.36,10.83c-1,1.36-1.79,2.44-2.36,3.19a5.86,5.86,0,0,1-.94,1.11,7.83,7.83,0,0,1,.76-1.25l2.2-3.29c1.87-2.77,4.44-6.62,7.21-10.91l7-11c.9-1.41,1.63-2.55,2.15-3.33A6.2,6.2,0,0,1,726.41,214.75Z" fill="#2b7a78"/><path d="M422.33,85.28c-2.3-3.39-.88-8.52,2.58-10.74s8.26-1.65,11.53.82,4.2,6.77,3.66,10.45c-.4,2.74-4.68,8.31-8.77,5.86" fill="#17252a"/><path d="M397.73,108.5c-9.07-17.57,9.92-27.58,20.68-25.11C428.52,85.71,433,90.46,435,97.05a32.9,32.9,0,0,1,0,20.3c-1.13,3.2-3.29,6.49-6.64,7.05" fill="#17252a"/><path d="M425.27,93.07a3.38,3.38,0,0,1,3.2,3.28h0l.36,45.86c.2,5.41-7.54,8.86-13.33,9h0c-5.85.17-6.19-2.68-6.53-7.82-.57-8.58-.73-11.81-.73-11.76s-7.44-.85-9.45-10.41c-1-4.75-1.15-12.62-1.07-19.06.08-5.8,3.55-13.08,9.34-12.76Z" fill="#fff"/><path d="M408.24,131.65A24.5,24.5,0,0,0,421,127.57s-2.8,6.77-12.48,6.35Z" fill="#3aafa9"/><path d="M400.46,90a9.31,9.31,0,0,0,3.9,8.94,18.27,18.27,0,0,0,5.49,2.15l3.67,1a30.5,30.5,0,0,0,8.28,1.44c-.15,3.14-.51,5.26,1.18,7.92,1.52,2.39,3.73,4.07,6.59,3.37a94.05,94.05,0,0,0,1.07-18.82,8.83,8.83,0,0,0-.95-4.7c-1.45-2.25-4.51-2.68-7.18-2.89l-11.26-.89a22.08,22.08,0,0,0-5.51,0A7.5,7.5,0,0,0,401,90.15" fill="#17252a"/><path d="M436.73,103.63l-.11,0a1.19,1.19,0,0,1-.31,0,3.09,3.09,0,0,1-1.19-.27,5.14,5.14,0,0,1-1.58-1.13,24.23,24.23,0,0,1-1.61-2,9.27,9.27,0,0,0-2.2-2,12.25,12.25,0,0,0-3.14-1.45,27,27,0,0,0-7.93-.87,36,36,0,0,1-8.07-.55,11.46,11.46,0,0,1-5.81-3.1,8.53,8.53,0,0,1-1.53-2,6.66,6.66,0,0,1-.65-1.81,4.68,4.68,0,0,1-.08-1.64c.05,0,0,.59.22,1.6a7.31,7.31,0,0,0,.7,1.75,9,9,0,0,0,1.53,2,11.38,11.38,0,0,0,5.69,2.94,37.76,37.76,0,0,0,8,.52,26.17,26.17,0,0,1,8,.92A12.12,12.12,0,0,1,429.91,98a9.38,9.38,0,0,1,2.24,2.14,23.77,23.77,0,0,0,1.55,2,5.12,5.12,0,0,0,1.48,1.14A3.78,3.78,0,0,0,436.73,103.63Z" fill="#2b7a78"/><path d="M435.19,97.72a2.93,2.93,0,0,0-.19-1.37A5.63,5.63,0,0,0,432.11,94a19,19,0,0,0-5.49-1.48,50.08,50.08,0,0,0-7,0,32.13,32.13,0,0,1-7.08-.25,14.25,14.25,0,0,1-5.4-2.09,9.32,9.32,0,0,1-2.75-2.77,6.45,6.45,0,0,1-.48-1,1.5,1.5,0,0,1-.12-.35s.22.46.73,1.22A9.53,9.53,0,0,0,407.27,90a14.29,14.29,0,0,0,5.31,2,34,34,0,0,0,7,.22,45.23,45.23,0,0,1,7.08,0,18.66,18.66,0,0,1,5.57,1.59,5.5,5.5,0,0,1,2.9,2.56,2.13,2.13,0,0,1,.15,1.07A1.21,1.21,0,0,1,435.19,97.72Z" fill="#2b7a78"/><path d="M439.41,79.25a1.37,1.37,0,0,1,.15.64,3.91,3.91,0,0,1-.31,1.78,10.05,10.05,0,0,1-4,4.28,9.22,9.22,0,0,1-3.05,1.17,9.1,9.1,0,0,1-2.67.09,11.6,11.6,0,0,1-1.76-.32,2.86,2.86,0,0,1-.62-.22c0-.07.92.17,2.4.27a9.88,9.88,0,0,0,2.58-.17A9.19,9.19,0,0,0,435,85.62a10.47,10.47,0,0,0,4-4.06A4.84,4.84,0,0,0,439.41,79.25Z" fill="#2b7a78"/><path d="M435.93,75a2,2,0,0,1,0,.65,10,10,0,0,1-.32,1.73,11.55,11.55,0,0,1-7.88,8,10.27,10.27,0,0,1-1.73.34,2,2,0,0,1-.64,0c0-.07.91-.15,2.29-.61a12.51,12.51,0,0,0,4.78-3,12.34,12.34,0,0,0,2.91-4.8C435.79,75.91,435.86,75,435.93,75Z" fill="#2b7a78"/><path d="M435,116.76s0-.18,0-.51,0-.83,0-1.46a16.35,16.35,0,0,0-1-5.22,10.23,10.23,0,0,0-1.87-3.12,8.52,8.52,0,0,0-3.44-2.3c-2.79-1.06-6.15-.89-9.6-1a29.85,29.85,0,0,1-9.61-1.84,16.14,16.14,0,0,1-6.5-4.6,12.12,12.12,0,0,1-2.5-4.76,8.08,8.08,0,0,1-.26-1.44,2.56,2.56,0,0,1,0-.52s.07.71.42,1.92a12.41,12.41,0,0,0,2.57,4.62,16.05,16.05,0,0,0,6.43,4.45,29.77,29.77,0,0,0,9.49,1.78c3.42.15,6.82,0,9.71,1.09a8.8,8.8,0,0,1,3.55,2.42,10.6,10.6,0,0,1,1.89,3.23,15.87,15.87,0,0,1,.88,5.32c0,.63,0,1.13-.05,1.46A1.69,1.69,0,0,1,435,116.76Z" fill="#2b7a78"/><path d="M432.78,91.93a17.17,17.17,0,0,1-1.38-1.48,24.09,24.09,0,0,0-3.66-3.15A23.66,23.66,0,0,0,423.5,85a18.82,18.82,0,0,1-1.87-.77,7.29,7.29,0,0,1,2,.51A19.57,19.57,0,0,1,428,87a19,19,0,0,1,3.64,3.29A7,7,0,0,1,432.78,91.93Z" fill="#3aafa9"/><path d="M427.45,109.06c.14-.08,5-2.54,5.39,3.22s-5.52,4.92-5.54,4.76S427.45,109.06,427.45,109.06Z" fill="#fff"/><path d="M342.62,160.63s-3.88-7.61-4.85-8.34-9.65-3.75-10.38-3.51-11.15,2.2-9.93,3.42,8.48-.25,8.48-.25l1,.48s-6.28,1.1-7.59,1.89-.76,2.21.39,2.07,6.59-1.28,6.92-1.06-5.92,1.57-6.59,2c-.9.55-1,2.16.18,2.07.68-.06,6.57-1.68,6.57-1.68a50.31,50.31,0,0,0-5.09,2.3c-.7.68-.12,1.69.89,1.45.7-.16,4-1.8,4.92-2,0,0,.87.22,1.69,2s6.6,6.13,6.6,6.13Z" fill="#fff"/><path d="M340.23,160.77a2.08,2.08,0,0,1-2.43,0c-.75-.44-1.33-1.11-2.05-1.6-2.14-1.46-5.2-1.06-7.27-2.62-.29-.22-.58-.58-.43-.91s.55-.35.89-.34l8.6.07" fill="#fff"/><path d="M337.54,155.41a3.22,3.22,0,0,0-.93-.11l-2.54-.1-3.76-.08-1.09,0a1.76,1.76,0,0,0-1.26.29.72.72,0,0,0-.12.8,1.35,1.35,0,0,0,.44.55,5.24,5.24,0,0,0,1.09.65,32.74,32.74,0,0,0,4.47,1.2,6.15,6.15,0,0,1,1.78.78c.51.33.93.74,1.36,1.07a3.05,3.05,0,0,0,2.44.82c.63-.14.83-.49.81-.49a2.43,2.43,0,0,1-.84.3,3,3,0,0,1-2.19-.9,17.37,17.37,0,0,0-1.35-1.14,6.5,6.5,0,0,0-1.88-.87,37.86,37.86,0,0,1-4.4-1.22,4.85,4.85,0,0,1-1-.58c-.28-.22-.42-.52-.27-.64s.54-.15.91-.15h1.09l3.76,0c1.07,0,1.94,0,2.54-.06A3.66,3.66,0,0,0,337.54,155.41Z" fill="#3aafa9"/><path d="M317.48,152.22a4.92,4.92,0,0,0,1.92.5,11.4,11.4,0,0,0,2.15.05c.8-.1,1.67-.24,2.58-.38l1.94-.31H326a29.4,29.4,0,0,0,4.52,1.34,27.34,27.34,0,0,0-4.37-1.79l-.05,0H326l-1.93.3-2.55.41a13.64,13.64,0,0,1-2.08.05C318.23,152.31,317.5,152.15,317.48,152.22Z" fill="#3aafa9"/><path d="M373,379.79l9.38,17.41S367.83,412.57,369.25,416l34.4-17-13.5-27.72Z" fill="#3aafa9"/><path d="M392.27,390.46a1.57,1.57,0,0,1,1.76,1.13,1.5,1.5,0,0,1-1.1,1.75,1.65,1.65,0,0,1-1.86-1.2,1.57,1.57,0,0,1,1.35-1.7" fill="#e0e0e0"/><path d="M403.65,399l-1.47-2.74-32.44,17.29s-1.2,1.43-.49,2.42Z" fill="#fff"/><path d="M381.73,397.3c.08.16,1-.17,2,0s1.89.62,2,.48-.61-1-1.94-1.13S381.61,397.16,381.73,397.3Z" fill="#263238"/><path d="M378.85,400.57c0,.18.91.11,1.83.54s1.46,1.1,1.63,1-.2-1.09-1.36-1.61S378.78,400.41,378.85,400.57Z" fill="#263238"/><path d="M378.93,405.9c.17,0,0-1-.89-1.7s-1.85-.69-1.85-.51.72.42,1.44,1S378.76,406,378.93,405.9Z" fill="#17252a"/><path d="M380,393.1c.15.11.8-.5,1.78-.9s1.87-.47,1.89-.66-1-.43-2.14.06S379.88,393,380,393.1Z" fill="#263238"/><path d="M378.2,389.55a3.57,3.57,0,0,0,1.72-.86,8.71,8.71,0,0,0,1.53-1.44,10.25,10.25,0,0,0,.73-1,2.14,2.14,0,0,0,.32-.66.82.82,0,0,0-.36-.93,1,1,0,0,0-.93,0,2.41,2.41,0,0,0-.6.41,6.8,6.8,0,0,0-.89.89,6.7,6.7,0,0,0-1.07,1.83,3.23,3.23,0,0,0-.33,1.9c.11,0,.23-.7.75-1.71a7.22,7.22,0,0,1,1.11-1.62,6.32,6.32,0,0,1,.83-.8c.32-.27.63-.43.8-.31s.08.06.06.21a1.65,1.65,0,0,1-.24.48,7.8,7.8,0,0,1-.65,1,10.33,10.33,0,0,1-1.35,1.46C378.78,389.09,378.15,389.46,378.2,389.55Z" fill="#263238"/><path d="M378.54,389.68a3.06,3.06,0,0,0-.37-1.89A6.09,6.09,0,0,0,377,386a7.17,7.17,0,0,0-1-.83,1.57,1.57,0,0,0-1.52-.32.9.9,0,0,0-.49.83,2.49,2.49,0,0,0,.14.72,4,4,0,0,0,.57,1.16,4.48,4.48,0,0,0,1.61,1.42,2.5,2.5,0,0,0,1.9.35,15.65,15.65,0,0,1-1.67-.75,4.42,4.42,0,0,1-1.34-1.35,4,4,0,0,1-.46-1c-.13-.39-.14-.76,0-.79a1.13,1.13,0,0,1,.88.27,6.5,6.5,0,0,1,.89.72,7,7,0,0,1,1.18,1.56C378.31,389,378.44,389.7,378.54,389.68Z" fill="#263238"/><path d="M382.17,394.86l-3.56,19.45s-21,2.9-22,6.43L394.09,429l6.8-30.07Z" fill="#3aafa9"/><path d="M390.55,415.24a1.57,1.57,0,0,1,.67,2,1.51,1.51,0,0,1-2,.69,1.67,1.67,0,0,1-.7-2.1,1.57,1.57,0,0,1,2.12-.49" fill="#e0e0e0"/><path d="M394.09,429l.57-3.05-36.13-6.79s-1.82.36-1.89,1.57Z" fill="#fff"/><path d="M378,414c0,.19.86.47,1.63,1.26s1.08,1.66,1.27,1.63.14-1.16-.81-2.09S378,413.81,378,414Z" fill="#17252a"/><path d="M373.76,414.74c-.09.17.64.65,1.09,1.57s.45,1.76.63,1.8.53-1-.05-2.1S373.8,414.57,373.76,414.74Z" fill="#17252a"/><path d="M370.49,419c.15.08.61-.78.36-1.89s-1-1.69-1.13-1.55.3.78.49,1.69S370.31,418.89,370.49,419Z" fill="#17252a"/><path d="M379.35,409.64c0,.19.93.12,1.95.42s1.75.8,1.88.66-.5-1-1.7-1.29S379.29,409.48,379.35,409.64Z" fill="#263238"/><path d="M380.14,405.73a3.55,3.55,0,0,0,1.88.41,8.92,8.92,0,0,0,2.09-.17,8.5,8.5,0,0,0,1.21-.34,2.55,2.55,0,0,0,.66-.31.83.83,0,0,0,.3-1,1,1,0,0,0-.71-.59,2.37,2.37,0,0,0-.73-.06,7.14,7.14,0,0,0-1.25.14,6.6,6.6,0,0,0-2,.76c-1.05.61-1.49,1.23-1.44,1.28s.62-.4,1.65-.87a7.59,7.59,0,0,1,1.88-.58,7.15,7.15,0,0,1,1.15-.09c.42,0,.76,0,.82.25s0,.11-.09.2a1.65,1.65,0,0,1-.48.23,9,9,0,0,1-1.12.35,11.4,11.4,0,0,1-2,.3A13.46,13.46,0,0,0,380.14,405.73Z" fill="#263238"/><path d="M380.32,406.05c.06,0,.57-.54.89-1.71a6,6,0,0,0,.2-2.11,6.22,6.22,0,0,0-.22-1.24,1.6,1.6,0,0,0-1-1.21.88.88,0,0,0-.9.35,2.93,2.93,0,0,0-.35.64,4.62,4.62,0,0,0-.28,1.27,4.51,4.51,0,0,0,.38,2.11c.52,1.13,1.23,1.52,1.26,1.46a14.67,14.67,0,0,1-.83-1.63,4.35,4.35,0,0,1-.21-1.89,4,4,0,0,1,.28-1.08c.14-.38.36-.67.5-.6s.44.41.52.76a5.92,5.92,0,0,1,.24,1.12,6.61,6.61,0,0,1-.05,2C380.57,405.36,380.23,406,380.32,406.05Z" fill="#263238"/><path d="M399.35,215.9,341.81,290a26.81,26.81,0,0,0-4.2,25.12l41.69,85,14-23.75L369.4,309.23l31.13-37.45,13.88-57.31Z" fill="#17252a"/><path d="M377,411.4l25.77-179.85,1.27-16.1,31.61-1.71s11,17.21,11.57,27.74-28.75,84.23-28.75,84.23l-4.21,29.4-17.68,62.27Z" fill="#17252a"/><path d="M403.76,218.81c.16,0-5.71,43.15-13.1,96.33S377.14,411.42,377,411.4s5.7-43.15,13.1-96.34S403.6,218.78,403.76,218.81Z" fill="#2b7a78"/><path d="M369.22,309.33c-.06.08-.7-.48-1.88-1.09a11.9,11.9,0,0,0-10-.39c-1.22.52-1.9,1-2,.94a4.9,4.9,0,0,1,1.79-1.31,10.87,10.87,0,0,1,10.38.4A4.88,4.88,0,0,1,369.22,309.33Z" fill="#2b7a78"/><path d="M437.49,224.8s-.23.17-.69.4a10.46,10.46,0,0,1-2,.72,14.06,14.06,0,0,1-3.19.45,15.55,15.55,0,0,1-7.64-1.76,14.54,14.54,0,0,1-2.67-1.79,10.62,10.62,0,0,1-1.52-1.55c-.32-.4-.47-.63-.44-.66s.8.8,2.22,1.89a16.05,16.05,0,0,0,2.65,1.64,16.91,16.91,0,0,0,7.39,1.7,16.18,16.18,0,0,0,3.11-.32C436.42,225.17,437.45,224.7,437.49,224.8Z" fill="#2b7a78"/><path d="M345.16,330.52a12.76,12.76,0,0,1-1-1.76c-.6-1.15-1.48-2.82-2.51-4.91a74.68,74.68,0,0,1-3.26-7.52,39.07,39.07,0,0,1-1.4-4.65,26.09,26.09,0,0,1-.72-5.17,22.35,22.35,0,0,1,.47-5.22,27.41,27.41,0,0,1,1.5-4.64,40.06,40.06,0,0,1,4.05-7.14c1.34-1.91,2.51-3.39,3.35-4.39.41-.5.74-.88,1-1.14a2,2,0,0,1,.37-.37,12.4,12.4,0,0,1-1.17,1.65c-.77,1-1.9,2.55-3.18,4.48a42.54,42.54,0,0,0-3.9,7.12,27.83,27.83,0,0,0-1.43,4.55,21.75,21.75,0,0,0-.45,5.08,26.14,26.14,0,0,0,.7,5.07,38.06,38.06,0,0,0,1.35,4.6c1,2.88,2.15,5.41,3.12,7.52s1.75,3.72,2.35,5L345,330A1.7,1.7,0,0,1,345.16,330.52Z" fill="#455a64"/><polygon points="392.54 149.32 371.18 173.91 343.47 158.57 333.79 168.28 369.75 192.93 385.81 192.68 399.5 165.68 392.54 149.32" fill="#3aafa9"/><path d="M384.73,167.47l11.89,50.1,39.9-3.43,5.14-39.4,10.68-16.82s-2.65-15.81-20.2-15.94l-2.84-6.67-21,1.77-2.51,6.12s-17.31,1.23-16.9,17Z" fill="#3aafa9"/><path d="M394.82,210a20.86,20.86,0,0,0,17.86-3.42,6.27,6.27,0,0,1,2.38-1.37,5.74,5.74,0,0,1,2.85.41A53.2,53.2,0,0,0,431.15,208a9.26,9.26,0,0,0,4.59-.61,3.6,3.6,0,0,0,2.13-3.78A120.4,120.4,0,0,0,417.11,198c-3.67-.65-7.46-1.13-11.09-.31s-7,3-10.21,5.08a4.58,4.58,0,0,0-2,2.1c-.63,1.85,1.23,3.77.84,5.68" fill="#2b7a78"/><path d="M424.74,157.28c1.12,1,16,26.46,16,26.46L417,188.92l-.81,11.69,23.3,3.38L450,205.1a13.47,13.47,0,0,0,12.16-5.24h0a13.46,13.46,0,0,0,1.66-13.46l-12.1-30.83Z" fill="#3aafa9"/><path d="M447.24,183.65c0,.16-6.72,1.47-15.07,2.92S417,189.08,417,188.92s6.72-1.47,15.07-2.92S447.21,183.5,447.24,183.65Z" fill="#2b7a78"/><path d="M441.62,184.6a7.54,7.54,0,0,1-.63-1.27l-1.53-3.54c-1.27-3-3-7.15-4.85-11.75-.92-2.3-1.8-4.49-2.6-6.5a11.77,11.77,0,0,1-1-5.68,5.72,5.72,0,0,1,1.71-3.49,4.11,4.11,0,0,1,.86-.63,1.12,1.12,0,0,1,.34-.14c0,.06-.44.27-1,.93a5.73,5.73,0,0,0-1.46,3.38,11.6,11.6,0,0,0,1.12,5.43c.81,2,1.7,4.19,2.64,6.48,1.86,4.6,3.52,8.78,4.69,11.82.54,1.43,1,2.64,1.36,3.6A6.05,6.05,0,0,1,441.62,184.6Z" fill="#2b7a78"/><path d="M453.78,205.18a7.33,7.33,0,0,1-1.5.06c-1,0-2.34,0-4.06-.13-3.43-.18-8.16-.6-13.34-1.33s-9.86-1.52-13.24-2.11l-4-.73a7.63,7.63,0,0,1-1.45-.33,7.2,7.2,0,0,1,1.49.11c.95.11,2.33.3,4,.54,3.4.49,8.08,1.23,13.26,1.94s9.88,1.22,13.29,1.5l4,.31A7.34,7.34,0,0,1,453.78,205.18Z" fill="#263238"/><path d="M392,189.4a14.6,14.6,0,0,0-.62-4.24c-.37-1.28-1-2.76-1.4-4.51a9,9,0,0,1-.31-2.83,11.67,11.67,0,0,1,.64-3,47.58,47.58,0,0,1,5-9.25l1.72-2.66a4.83,4.83,0,0,1,.66-1,4.69,4.69,0,0,1-.46,1.08c-.35.67-.88,1.62-1.57,2.77a55.81,55.81,0,0,0-4.83,9.22,11.25,11.25,0,0,0-.62,2.83,8.52,8.52,0,0,0,.26,2.68c.4,1.7.95,3.21,1.27,4.53a11,11,0,0,1,.41,3.18,5.16,5.16,0,0,1-.09.87C392,189.31,392,189.41,392,189.4Z" fill="#2b7a78"/><path d="M411.47,144.07a11.65,11.65,0,0,1-.07-3.64,11.78,11.78,0,0,1,.5-3.61,11.46,11.46,0,0,1,.08,3.64A11.59,11.59,0,0,1,411.47,144.07Z" fill="#2b7a78"/><path d="M419.28,143.36a11.36,11.36,0,0,1-.86-3.5,11.82,11.82,0,0,1-.28-3.6,11.25,11.25,0,0,1,.86,3.51A11.4,11.4,0,0,1,419.28,143.36Z" fill="#2b7a78"/><path d="M426,142.08a8.53,8.53,0,0,1-1.14-2.85,8.5,8.5,0,0,1-.58-3,8,8,0,0,1,1.14,2.85A8.44,8.44,0,0,1,426,142.08Z" fill="#2b7a78"/><path d="M431.61,160.77c.13,7.63,1.48,14,1.61,21.6a4.77,4.77,0,0,0,.37,2.16c.85,1.66,2.79,1.17,4.65,1.06a17.73,17.73,0,0,0,2.83-.61,2.51,2.51,0,0,0-.23-1.69c-3.08-7.93-6.15-14.59-9.23-22.52" fill="#2b7a78"/><polygon points="347.37 175.88 358.83 186.94 377.33 204.77 409.15 203.18 383.4 174.08 347.37 175.88" fill="#17252a"/><path d="M352.4,175.56s-8.32,3.68.14,10.07,20.06,8.76,21.84,13.38a7.79,7.79,0,0,1-1.12,7.81l24.39-1.07s7.23-6.25,1.83-11.83-19.56-13.61-21.21-15.78,2.3-3.92,2.3-3.92Z" fill="#fff"/><polygon points="360.11 175.19 359.16 174.07 372.31 173.25 372.31 174.61 360.11 175.19" fill="#17252a"/><path d="M376.13,178.91a15.84,15.84,0,0,1-3.27.5c-2,.21-4.85.45-8,.62s-5.94.24-8,.19a13.55,13.55,0,0,1-3.3-.28,32.11,32.11,0,0,1,3.3-.13c2-.06,4.85-.18,8-.36l7.95-.45A23.1,23.1,0,0,1,376.13,178.91Z" fill="#3aafa9"/><path d="M378.72,182.6a98.5,98.5,0,0,1-10.66.8,97.31,97.31,0,0,1-10.68.21,99.54,99.54,0,0,1,10.65-.79A99.19,99.19,0,0,1,378.72,182.6Z" fill="#3aafa9"/><path d="M384.36,185.65a16.41,16.41,0,0,1-3.05.54c-1.9.25-4.53.53-7.44.76s-5.55.35-7.47.39a15.22,15.22,0,0,1-3.1-.06,17.49,17.49,0,0,1,3.08-.35l7.45-.56,7.43-.59A16.86,16.86,0,0,1,384.36,185.65Z" fill="#3aafa9"/><path d="M388.19,189.82a73.17,73.17,0,0,1-9.12,1,71,71,0,0,1-9.16.44,73.9,73.9,0,0,1,9.12-1A71.94,71.94,0,0,1,388.19,189.82Z" fill="#3aafa9"/><path d="M393.92,193.57a69.36,69.36,0,0,1-8.82,1.22,71.07,71.07,0,0,1-8.88.64,67.94,67.94,0,0,1,8.82-1.22A66.94,66.94,0,0,1,393.92,193.57Z" fill="#3aafa9"/><path d="M396.6,198.87a12.33,12.33,0,0,1-2.64.44c-1.64.19-3.91.38-6.42.51s-4.8.16-6.45.13a11.46,11.46,0,0,1-2.67-.17,13.7,13.7,0,0,1,2.66-.24l6.43-.3,6.42-.34A12.42,12.42,0,0,1,396.6,198.87Z" fill="#3aafa9"/><path d="M416.19,200.41l-6-1-22.53.55s-1.18-.34-.16-1c.5-.32,8.78-2.37,8.78-2.37l-11.89,1a15.75,15.75,0,0,1,4.54-5.42c2.88-2,8.46-3.24,8.46-3.24l-3.61-2.73s11.77-1.54,13.28-.2,3.35,3.43,3.35,3.43l6.51-.06" fill="#fff"/><path d="M400.4,196c0,.17-3.56.29-7.91.7s-7.88,1-7.91.8a8.29,8.29,0,0,1,2.27-.59,56,56,0,0,1,5.58-.78c2.19-.21,4.19-.28,5.63-.28A9.49,9.49,0,0,1,400.4,196Z" fill="#3aafa9"/><path d="M399.71,193.07a43.38,43.38,0,0,1-6.76,1.25,40.68,40.68,0,0,1-6.85.67,80.62,80.62,0,0,1,13.61-1.92Z" fill="#3aafa9"/><polygon points="289.46 130.92 288.44 134.25 304.58 134.25 303.73 131.98 289.46 130.92" fill="#17252a"/><polygon points="305.1 141.47 304.83 141.26 288.18 141.26 287.92 141.47 305.1 141.47" fill="#263238"/><path d="M302.3,159.94l3.42-25.22H287.31l3.42,25.22S297.74,161,302.3,159.94Z" fill="#3aafa9"/><path d="M305.94,135.1H287.09v-.29a1.51,1.51,0,0,1,1.51-1.51h15.83a1.52,1.52,0,0,1,1.51,1.51Z" fill="#17252a"/><polygon points="303.78 151.32 289.24 151.32 287.92 141.47 305.1 141.47 303.78 151.32" fill="#17252a"/><path d="M298.55,148c.94-1.67,1.46-3.72-.43-4.91,0,0-1.79-1.16-3.76,1-1.52,1.68-2.25,3.64-1,5.15C294.85,151.05,297.61,149.65,298.55,148Zm-2.94-.27a4,4,0,0,0-1.57,1.87c-.17-1.21.33-1.87,2.1-3.24a4.49,4.49,0,0,0,1.84-3.05C298.92,145.55,296.88,146.85,295.61,147.71Z" fill="#3aafa9"/><polygon points="289.25 131.62 292.39 132.07 292.39 132.72 288.91 132.72 289.25 131.62" fill="#fff"/><path d="M294.84,148.22s-27,27.18-29.43,27.94c0,0-8.2-16-8.94-16.55l-15.76,8.86L250,188.28a14.74,14.74,0,0,0,25,4.29l26.56-31.31,5.36-5.94a14,14,0,0,0,2.12-5.41,9.6,9.6,0,0,0-.23-3.62,3.59,3.59,0,0,0-.15-2.8,2.06,2.06,0,0,0-1.44-1c1.17-2.9-2-4.34-3.61-1.94" fill="#fff"/><path d="M293.84,149.22a6.27,6.27,0,0,0-2.45-3.32,6.81,6.81,0,0,0-3.74-1.47s.32-2,3.53-1.52,4.07,2.5,8,1.52l.86,3.7Z" fill="#fff"/><path d="M307.42,142.06c.14.06-.31,1.22-1.37,2.29s-2.19,1.57-2.26,1.43.86-.82,1.84-1.83S307.28,142,307.42,142.06Z" fill="#3aafa9"/><path d="M308.66,146.24c.14.06-.09.88-.76,1.67s-1.42,1.18-1.5,1.05.46-.69,1.06-1.42S308.51,146.17,308.66,146.24Z" fill="#3aafa9"/><path d="M263.15,187.05a25.62,25.62,0,0,1,2-11.51c.16.05-.55,2.57-1.09,5.74S263.32,187.06,263.15,187.05Z" fill="#3aafa9"/><polygon points="165.98 132.82 164.97 136.15 181.11 136.15 180.25 133.88 165.98 132.82" fill="#17252a"/><polygon points="181.63 143.38 181.36 143.16 164.71 143.16 164.45 143.38 181.63 143.38" fill="#263238"/><path d="M178.82,161.84l3.42-25.22H163.83l3.42,25.22S174.27,162.86,178.82,161.84Z" fill="#3aafa9"/><path d="M182.46,137H163.61v-.29a1.52,1.52,0,0,1,1.51-1.51H181a1.51,1.51,0,0,1,1.51,1.51Z" fill="#17252a"/><polygon points="180.31 153.22 165.77 153.22 164.45 143.38 181.63 143.38 180.31 153.22" fill="#17252a"/><path d="M175.07,149.88c.94-1.67,1.46-3.72-.42-4.91,0,0-1.79-1.16-3.76,1-1.53,1.68-2.25,3.64-1,5.15C171.37,153,174.13,151.55,175.07,149.88Zm-2.93-.26a4,4,0,0,0-1.58,1.86c-.17-1.21.34-1.87,2.1-3.24a4.53,4.53,0,0,0,1.85-3.05C175.45,147.45,173.4,148.75,172.14,149.62Z" fill="#3aafa9"/><polygon points="165.77 133.52 168.91 133.97 168.91 134.62 165.43 134.62 165.77 133.52" fill="#fff"/><path d="M166,199.47s-3.2-3.79-2.37-30.79l-.2-14.46L176,150.44l8.69,48.8Z" fill="#fff"/><path d="M175.57,151.31a8.22,8.22,0,0,1,2.75-3.79,6.81,6.81,0,0,1,3.74-1.47s-.32-1.94-3.53-1.52-4.07,2.51-8,1.52l-4.58,8.2Z" fill="#fff"/><path d="M171.37,146.72c-.19-.51-6.74-5.73-6.74-5.73s-3.38.14-2.1,3.18c0,0-2.74,1.07-1.27,4.07,0,0-1.47,1.07-.43,4a27.31,27.31,0,0,0,2.83,5.6Z" fill="#fff"/><path d="M173.16,175.57l-7.32,17.48a9.92,9.92,0,0,0,6.41,12.44h0a9.92,9.92,0,0,0,12.44-6.25L190.55,182Z" fill="#fff"/><path d="M166.49,191.62a10.52,10.52,0,0,1,.6-2.42c.45-1.47,1.15-3.48,2-5.66s1.78-4.11,2.48-5.48a9.7,9.7,0,0,1,1.25-2.16,10.78,10.78,0,0,1-.88,2.33c-.6,1.41-1.43,3.36-2.31,5.53s-1.63,4.14-2.18,5.57A11.11,11.11,0,0,1,166.49,191.62Z" fill="#3aafa9"/><path d="M171.66,178.59c0,.17-1.25.34-2.5,1.21s-1.89,2-2,1.88.3-1.41,1.72-2.36A3.37,3.37,0,0,1,171.66,178.59Z" fill="#3aafa9"/><path d="M202.73,85.17c.73,2.1-1.76,3.89-3.93,4.38s-4.79.81-5.78,2.8c-.86,1.73,0,3.92-.78,5.68-1.49,3.35-7.51,2.65-8.69,6.12-.81,2.39,1.43,4.85,1.15,7.35-.24,2.15-2.21,3.62-3.95,4.92s-3.55,3.11-3.28,5.26c.32,2.49,3.35,4.21,3.07,6.7s-3.57,3.59-4,6c-.56,2.87,3,4.71,4.18,7.4.89,2.05.34,4.7,1.83,6.36s4.24,1.37,6.48.9l22.33-4.74c-1.51-3.53-.09-7.66,2.07-10.84s5-5.86,6.86-9.23,2.46-7.86,0-10.84" fill="#17252a"/><path d="M242,103a23.88,23.88,0,0,0-.74-3.52,3.49,3.49,0,0,0-.89-1.45c-.44-.42-1-.15-1.38.45a10.94,10.94,0,0,0,0,9c.37.6.94.87,1.38.45a3.49,3.49,0,0,0,.89-1.45A23.56,23.56,0,0,0,242,103a3,3,0,0,1,.07,1,9.18,9.18,0,0,1-.42,2.68,3.84,3.84,0,0,1-1,1.68,1.22,1.22,0,0,1-1.19.28,1.91,1.91,0,0,1-.94-.8,11,11,0,0,1,0-9.65,1.91,1.91,0,0,1,.94-.8,1.22,1.22,0,0,1,1.19.28,3.79,3.79,0,0,1,1,1.68,9.18,9.18,0,0,1,.42,2.68A3,3,0,0,1,242,103Z" fill="#17252a"/><path d="M205.57,123.59c-4-6.82-5.2-15.92-6.22-23.79-.48-3.7-1.33-9,1.28-11.29,2.79-2.48,3.06-6.3,6.26-8.22a9.87,9.87,0,0,1,10.58.12" fill="#17252a"/><path d="M216.76,147.78h0a11,11,0,0,0,11.82-10.47c.25-6,.46-12,.46-12s9-.82,9.72-9.76.45-29.58.45-29.58h0a31.14,31.14,0,0,0-31.5,1.93l.46,31.47,0,16.94C208.17,142,211.1,147.32,216.76,147.78Z" fill="#fff"/><path d="M229.88,104.61c-1.53-1.92-4-2.69-6.1-1.35a5.19,5.19,0,0,0-1.76,6.49,6.85,6.85,0,0,0,4.38,3.33,3.44,3.44,0,0,1,2.68,3.71c-.26,2.24-4,3.07-5.69,4.93-2.63,2.88-8.39,4.09-12.26,4.53s-3.35.48-5.56-2.66a12,12,0,0,1-2.15-7.26l-.36-19.79a28,28,0,0,1,.48-7.09,9.5,9.5,0,0,1,3.76-5.86c2.18-1.43,4.93-1.54,7.41-2.34,3.1-1,5.74-3,8.64-4.51s6.46-2.35,9.36-.88c2.09,1,3.48,3.14,5.51,4.3,2.89,1.66,6.82,1.29,8.22,5.55a7.23,7.23,0,0,1-.07,4.55c-2,5.78-9.15,8.09-14.3,5.57-.1,1,.85,3.17-.19,6.26-.33,1-.45,2.5-2,2.52" fill="#17252a"/><path d="M242,102.6a33.45,33.45,0,0,1-6,1.27,32.6,32.6,0,0,1-6.11.71,32.67,32.67,0,0,1,6-1.28A32,32,0,0,1,242,102.6Z" fill="#17252a"/><path d="M206.29,132.32a2.6,2.6,0,0,0,3.11,1.25,7.54,7.54,0,0,0,3-2,7.75,7.75,0,0,1,3-2.08c2.39-.73,5.3.86,7.31-.62,1.83-1.35,1.59-4.4,3.38-5.79,1-.74,2.28-.83,3.25-1.55,1.81-1.34,1.52-4.33,0-6s-3.81-2.34-6-2.94l-19.21,8.19Z" fill="#17252a"/><path d="M229.12,97.59s-.05,0-.16.12a4.85,4.85,0,0,1-.51.28,10.34,10.34,0,0,1-2.1.76,25.3,25.3,0,0,1-3.49.56,34.31,34.31,0,0,0-4.59.63,8.65,8.65,0,0,0-4.75,2.59c-1.29,1.51-1.78,3.67-2.78,5.76a7.58,7.58,0,0,1-2.24,2.82,12,12,0,0,1-3.34,1.65c-2.37.79-5,1.26-6.93,2.93a5,5,0,0,0-1.78,3.14,22.24,22.24,0,0,0,0,3.74,6.87,6.87,0,0,1-.71,3.68,6.77,6.77,0,0,1-2.6,2.5c-2,1.19-4.11,1.81-5.79,2.89a6.66,6.66,0,0,0-2.07,1.9,5,5,0,0,0-.79,2.45,17.06,17.06,0,0,0,.63,4.55,12.11,12.11,0,0,1,.32,3.53,5.22,5.22,0,0,1-.64,2.15,2.4,2.4,0,0,1-.49.61,5.37,5.37,0,0,0,.9-2.78,12,12,0,0,0-.41-3.44,17.32,17.32,0,0,1-.72-4.64,5.47,5.47,0,0,1,.82-2.67,7.24,7.24,0,0,1,2.19-2.07c1.74-1.13,3.86-1.78,5.78-2.94a6.28,6.28,0,0,0,2.38-2.31,6.2,6.2,0,0,0,.63-3.4,22.26,22.26,0,0,1,0-3.83,5.53,5.53,0,0,1,2-3.5c2.13-1.8,4.82-2.26,7.12-3a11,11,0,0,0,3.2-1.56,7,7,0,0,0,2.09-2.61c1-2,1.49-4.22,2.9-5.83a9,9,0,0,1,5-2.68,33.72,33.72,0,0,1,4.65-.56,24.87,24.87,0,0,0,3.47-.45A15.3,15.3,0,0,0,229.12,97.59Z" fill="#3aafa9"/><path d="M223.94,100.79c0,.07-.69,0-1.87.27a8.51,8.51,0,0,0-4.31,2.58,7.81,7.81,0,0,0-1.72,3,13.92,13.92,0,0,0-.35,4,10.55,10.55,0,0,1-.66,4.59,4.68,4.68,0,0,1-1.68,1.88,20.69,20.69,0,0,1-2.22,1.19,5.71,5.71,0,0,0-1.91,1.36,3.47,3.47,0,0,0-.75,2c-.1,1.5.22,3.16-.51,4.59a7.52,7.52,0,0,1-3,3c-1.13.67-2.22,1.17-3.15,1.73a7.84,7.84,0,0,0-2.22,1.83,5.17,5.17,0,0,0-.95,1.94,4.51,4.51,0,0,0,0,1.85,1.11,1.11,0,0,1-.19-.46,3.22,3.22,0,0,1-.06-1.44,5,5,0,0,1,.91-2.08,8.07,8.07,0,0,1,2.26-2c.94-.6,2-1.12,3.12-1.79a7.12,7.12,0,0,0,2.76-2.79c.63-1.23.33-2.76.42-4.39a4,4,0,0,1,.88-2.38,6.18,6.18,0,0,1,2.09-1.51c1.51-.73,3-1.41,3.65-2.81a10.18,10.18,0,0,0,.64-4.33,13.78,13.78,0,0,1,.42-4.16,8.15,8.15,0,0,1,1.88-3.14,8.43,8.43,0,0,1,4.56-2.52,6.13,6.13,0,0,1,1.43-.1A1.47,1.47,0,0,1,223.94,100.79Z" fill="#3aafa9"/><path d="M193.19,212.78l6.23-18.09-4.33-21.95-3.39,9.68-20.93-7.68s13.56-27.1,14.23-28.53c6.2-13,22.71-13,22.71-13l21,.55a23,23,0,0,1,18.05,7c6,6.07,19.74,32.59,19.74,32.59l-22.11,6.88L240,172l1.27,17.26,4.35,26.29Z" fill="#def2f1"/><path d="M246,140c0,.16-12.77.29-28.51.29S189,140.16,189,140s12.76-.29,28.51-.29S246,139.84,246,140Z" fill="#2b7a78"/><path d="M237.07,139.37c0,.07-.59.09-1.55.49a7.15,7.15,0,0,0-3.2,2.86,9.5,9.5,0,0,0-1.3,6.2,23.83,23.83,0,0,0,2.48,7.58c2.44,5.22,4.59,10,6.13,13.42l1.79,4.1a8.3,8.3,0,0,1,.58,1.55,9.15,9.15,0,0,1-.8-1.44c-.52-1.06-1.18-2.4-2-4-1.64-3.4-3.85-8.12-6.3-13.35a23.94,23.94,0,0,1-2.49-7.79,9.81,9.81,0,0,1,1.51-6.5,7,7,0,0,1,3.49-2.85,4.25,4.25,0,0,1,1.21-.26A1.19,1.19,0,0,1,237.07,139.37Z" fill="#3aafa9"/><path d="M199.62,195.68c-.17,0-2.69-11.35-5.62-25.44s-5.17-25.52-5-25.56,2.69,11.35,5.63,25.43S199.8,195.64,199.62,195.68Z" fill="#3aafa9"/><path d="M231.2,178.6a5.48,5.48,0,0,1,0,1.51,14.34,14.34,0,0,1-1,4,19.51,19.51,0,0,1-9.18,9.8,27.12,27.12,0,0,1-13.26,2.66,30.68,30.68,0,0,1-4.09-.42,6,6,0,0,1-1.47-.35c0-.11,2.13.28,5.57.32a28.28,28.28,0,0,0,13-2.78,19.84,19.84,0,0,0,9.06-9.41A22.46,22.46,0,0,0,231.2,178.6Z" fill="#3aafa9"/><path d="M253.12,149.43c0,.16-15.6.29-34.85.29s-34.85-.13-34.85-.29,15.6-.29,34.85-.29S253.12,149.27,253.12,149.43Z" fill="#2b7a78"/><path d="M258.28,158.2c0,.16-17.66.29-39.44.29s-39.43-.13-39.43-.29,17.65-.29,39.43-.29S258.28,158,258.28,158.2Z" fill="#2b7a78"/><path d="M261.75,166.24c0,.16-19.39.29-43.3.29s-43.31-.13-43.31-.29,19.38-.29,43.31-.29S261.75,166.08,261.75,166.24Z" fill="#2b7a78"/><path d="M193.56,176.06a18.44,18.44,0,0,1-3-.82c-1.84-.55-4.39-1.31-7.22-2.06s-5.41-1.36-7.28-1.79a18.73,18.73,0,0,1-3-.78,15.35,15.35,0,0,1,3.1.38c1.9.33,4.51.87,7.35,1.63s5.38,1.57,7.19,2.23A14.83,14.83,0,0,1,193.56,176.06Z" fill="#2b7a78"/><path d="M240.51,174.63a11.22,11.22,0,0,1-1.78.05l-4.87-.05-16.06-.17H196.86a9.55,9.55,0,0,1-1.78-.07,10.68,10.68,0,0,1,1.78-.15c1.15-.06,2.81-.13,4.87-.19,4.11-.12,9.79-.21,16.07-.18s12,.18,16.07.34c2,.08,3.72.16,4.86.24A10.15,10.15,0,0,1,240.51,174.63Z" fill="#2b7a78"/><path d="M265.08,170.61c0-.05.09,0-.11,0l-.68.13-2.51.44c-2.12.36-5,.83-8.29,1.33s-6.19.92-8.32,1.19a21.09,21.09,0,0,1-3.47.34,20.2,20.2,0,0,1,3.41-.74c2.11-.38,5-.87,8.29-1.37s6.19-.9,8.32-1.15c1.07-.13,1.94-.22,2.54-.26a6.15,6.15,0,0,1,.7,0c.09,0,.13,0,.2.05S265.09,170.6,265.08,170.61Z" fill="#2b7a78"/><path d="M230.2,182.41c0,.16-7.42.29-16.57.29s-16.57-.13-16.57-.29,7.42-.29,16.57-.29S230.2,182.25,230.2,182.41Z" fill="#2b7a78"/><path d="M240.91,185.09a27.79,27.79,0,0,1-5.65.29,27.93,27.93,0,0,1-5.66-.29,27.93,27.93,0,0,1,5.66-.29A27.79,27.79,0,0,1,240.91,185.09Z" fill="#2b7a78"/><path d="M223,192.14a18.9,18.9,0,0,1-3.49.26c-2.16.07-5.14.1-8.43,0s-6.27-.25-8.42-.42a19.53,19.53,0,0,1-3.48-.43,23.39,23.39,0,0,1,3.5,0l8.41.24,8.42.15A22.56,22.56,0,0,1,223,192.14Z" fill="#2b7a78"/><path d="M241.81,194.51a111.62,111.62,0,0,1-11.36.29,111.46,111.46,0,0,1-11.36-.29,111.46,111.46,0,0,1,11.36-.29A111.62,111.62,0,0,1,241.81,194.51Z" fill="#2b7a78"/><path d="M243.52,202.74a10.67,10.67,0,0,1-1.83.08h-5c-4.21,0-10-.15-16.44-.35s-12.22-.46-16.42-.72c-2.1-.14-3.8-.26-5-.37a11.23,11.23,0,0,1-1.82-.23,12.36,12.36,0,0,1,1.83,0l5,.19,16.42.55,16.43.52,5,.2A12.33,12.33,0,0,1,243.52,202.74Z" fill="#2b7a78"/><path d="M245.06,212.08a13.28,13.28,0,0,1-2,0l-5.41-.21c-4.57-.21-10.87-.53-17.84-.91s-13.27-.78-17.84-1.08l-5.41-.4a12.69,12.69,0,0,1-2-.22,12.58,12.58,0,0,1,2,0l5.41.2c4.57.21,10.88.53,17.86.92s13.28.77,17.84,1.08l5.41.39A13.85,13.85,0,0,1,245.06,212.08Z" fill="#2b7a78"/><path d="M231.2,151.47c1.23,9.92,2.83,18.05,4.9,27.82,1,4.81,2.25,9.82,5.57,13.45l-1.91-22Z" fill="#3aafa9"/><path d="M203.06,130.77a7.13,7.13,0,0,0-3.32,10.64,3.5,3.5,0,0,1,.91,2c-.09,1.76-3,1.81-3.84,3.33a2.72,2.72,0,0,0,.76,3.19,21.85,21.85,0,0,0,2.94,2,3.59,3.59,0,0,1,1.81,2.87c1,0,1.58-1.23,1.43-2.22a9.57,9.57,0,0,0-1.23-2.71,2.88,2.88,0,0,1-.12-2.85c.65-.92,2-1,3-1.37a4.24,4.24,0,0,0,2.24-5.46c-.64-1.43-2.13-2.88-1.4-4.28.4-.77,1.33-1.07,2.1-1.49a5.47,5.47,0,0,0,.71-9.11" fill="#17252a"/><polygon points="182.77 300.51 176.55 415.85 195.57 420.44 209.83 302.94 182.77 300.51" fill="#fff"/><polygon points="175.99 415.4 172.75 429.65 194.63 429.65 195.57 420.37 175.99 415.4" fill="#def2f1"/><path d="M195.08,427.58a15.73,15.73,0,0,1-3.19.18c-2,0-4.69,0-7.69-.14l-7.68-.33a18.66,18.66,0,0,1-3.18-.25,15.38,15.38,0,0,1,3.19-.17c2,0,4.69,0,7.69.14l7.68.32A17.46,17.46,0,0,1,195.08,427.58Z" fill="#17252a"/><path d="M185.81,418.18a18.24,18.24,0,0,1,0,4.61c-.17,2.54-.44,4.59-.61,4.57s-.17-2.07,0-4.61S185.64,418.17,185.81,418.18Z" fill="#17252a"/><polyline points="172.75 429.65 194.63 429.65 194.84 427.58 173.14 427.04 172.75 429.4" fill="#17252a"/><polygon points="251.59 388.87 256.21 423.66 273.04 422.49 269.5 390.6 251.59 388.87" fill="#fff"/><path d="M273.22,418.71h0s18.91,6.39,19.22,9.84l-36.16,1.06-.33-9.46,1.34.27A26.87,26.87,0,0,0,273.22,418.71Z" fill="#def2f1"/><path d="M260.19,421.8a1.48,1.48,0,0,0-1,1.72,1.43,1.43,0,0,0,1.7,1,1.56,1.56,0,0,0,1-1.82,1.48,1.48,0,0,0-1.88-.82" fill="#17252a"/><path d="M256.28,429.61v-2.94l34.67.09s1.63.65,1.48,1.79Z" fill="#17252a"/><path d="M273.8,418.51c0,.18-.88.28-1.73.88s-1.3,1.35-1.46,1.28.07-1.09,1.11-1.79S273.83,418.35,273.8,418.51Z" fill="#17252a"/><path d="M277.64,420c0,.17-.71.49-1.29,1.26s-.73,1.56-.9,1.55-.32-1,.41-1.93S277.63,419.8,277.64,420Z" fill="#17252a"/><path d="M279.92,424.45c-.15,0-.43-.84,0-1.82s1.24-1.39,1.32-1.24-.42.68-.76,1.49S280.1,424.42,279.92,424.45Z" fill="#17252a"/><path d="M273.4,418.42a3.43,3.43,0,0,1-1.81,0,8.22,8.22,0,0,1-1.91-.52,9.4,9.4,0,0,1-1.06-.52,2.64,2.64,0,0,1-.56-.41.77.77,0,0,1-.1-.94,1,1,0,0,1,.76-.43,2.35,2.35,0,0,1,.68.08,6.27,6.27,0,0,1,2.84,1.4c.86.75,1.17,1.4,1.11,1.44s-.51-.48-1.38-1.1a7,7,0,0,0-1.64-.86,6.73,6.73,0,0,0-1.05-.29c-.39-.09-.71-.09-.8.09s0,.09,0,.2a2.07,2.07,0,0,0,.41.3,10.39,10.39,0,0,0,1,.52,10.21,10.21,0,0,0,1.77.62A14.18,14.18,0,0,1,273.4,418.42Z" fill="#17252a"/><path d="M273.18,418.68a2.89,2.89,0,0,1-.53-1.73,6,6,0,0,1,.19-2,5.72,5.72,0,0,1,.43-1.12,1.51,1.51,0,0,1,1.13-.95.85.85,0,0,1,.77.49,2.39,2.39,0,0,1,.21.66,4.2,4.2,0,0,1-.69,3.11c-.68,1-1.41,1.19-1.42,1.13s.54-.45,1.06-1.36a4.25,4.25,0,0,0,.52-1.72,3.77,3.77,0,0,0-.07-1.05c-.06-.38-.22-.68-.36-.64s-.48.3-.62.61a7.1,7.1,0,0,0-.42,1,6.71,6.71,0,0,0-.29,1.81C273.07,418,273.28,418.65,273.18,418.68Z" fill="#17252a"/><path d="M193.19,212.78s-13.35,22.3-13.35,35.64L176.55,410.9l23.08,3.38L215.72,255.5s37,160.84,38.24,160.84,20.44-3.45,20.44-3.45L245.3,213.5Z" fill="#3aafa9"/><path d="M230.44,259.09c-.05.17-7.07-1.4-15.7-3.5s-15.59-4-15.54-4.13,7.06,1.4,15.69,3.51S230.48,258.92,230.44,259.09Z" fill="#2b7a78"/><path d="M201.76,252.78a3.14,3.14,0,0,1,0,.41l-.18,1.2-.72,4.58c-.66,4-1.56,9.73-2.63,16.85-2.15,14.24-4.83,33.95-7.07,55.81s-3.61,41.72-4.39,56.1c-.39,7.19-.68,13-.84,17l-.22,4.63-.07,1.21a2.64,2.64,0,0,1,0,.41,1.85,1.85,0,0,1,0-.41v-1.21c0-1.1.07-2.65.11-4.64.1-4,.32-9.85.66-17,.67-14.39,2-34.26,4.22-56.14s5-41.59,7.24-55.81c1.12-7.12,2.09-12.87,2.81-16.83.36-2,.64-3.49.84-4.56.09-.5.17-.89.23-1.19A1.81,1.81,0,0,1,201.76,252.78Z" fill="#2b7a78"/><path d="M235.14,255.47c.16,0,6.6,35.63,14.37,79.63s14,79.72,13.8,79.75-6.59-35.63-14.37-79.65S235,255.5,235.14,255.47Z" fill="#2b7a78"/><path d="M177.81,121.13a4.84,4.84,0,0,1,.81,1,12.56,12.56,0,0,1,1.69,3,6.34,6.34,0,0,1,.4,2.42,5.17,5.17,0,0,1-.94,2.67c-.54.84-1.24,1.58-1.87,2.4a4.85,4.85,0,0,0-1.17,2.77,5.61,5.61,0,0,0,.85,2.92,26,26,0,0,0,1.69,2.46,11.16,11.16,0,0,1,1.41,2.4,6.12,6.12,0,0,1,.45,2.4,8.85,8.85,0,0,0,.18,1.91,2.89,2.89,0,0,0,.68,1.22,2.15,2.15,0,0,0,1.06.55s-.53.18-1.21-.39a2.79,2.79,0,0,1-.84-1.29,8.44,8.44,0,0,1-.28-2,5.94,5.94,0,0,0-.48-2.24,11.93,11.93,0,0,0-1.4-2.27,24.14,24.14,0,0,1-1.76-2.49,6,6,0,0,1-.93-3.22,5.41,5.41,0,0,1,1.3-3.1c.66-.84,1.36-1.57,1.88-2.34a5,5,0,0,0,.59-4.66,15,15,0,0,0-1.49-3.06A6.52,6.52,0,0,1,177.81,121.13Z" fill="#3aafa9"/><rect x="813.27" y="375.24" width="64.56" height="8.87" fill="#17252a"/><path d="M877.94,384.22H813.16v-9.1h64.78ZM813.38,384h64.34v-8.65H813.38Z" fill="#263238"/><polygon points="819.25 381.15 828.55 427 862.93 427 871.91 384.11 819.25 381.15" fill="#17252a"/><polygon points="819.25 422.66 824.21 429.48 866 429.48 871.91 422.66 819.25 422.66" fill="#17252a"/><path d="M843.12,382.49c-.12,0-.29-21.24-.36-47.43s0-47.44.1-47.44.29,21.24.36,47.44S843.25,382.49,843.12,382.49Z" fill="#17252a"/><path d="M857.5,329.34a1.7,1.7,0,0,1-.17.5l-.58,1.37-.42,1c-.13.38-.27.78-.43,1.21s-.32.89-.49,1.38-.31,1-.48,1.58a63.35,63.35,0,0,0-1.81,7.9,96.86,96.86,0,0,0-1,9.89,134.81,134.81,0,0,0,.51,18c.21,2.31.42,4.17.57,5.46.07.6.12,1.09.17,1.48a1.86,1.86,0,0,1,0,.52,3.56,3.56,0,0,1-.12-.51q-.09-.57-.24-1.47c-.21-1.28-.47-3.14-.72-5.45a119.38,119.38,0,0,1-.65-18.11,92.16,92.16,0,0,1,1-9.93,60.09,60.09,0,0,1,1.92-7.93c.18-.55.32-1.08.51-1.57s.36-.95.53-1.38l.47-1.2c.16-.36.32-.69.46-1,.27-.55.48-1,.66-1.34A2.8,2.8,0,0,1,857.5,329.34Z" fill="#17252a"/><path d="M855.85,312.17a3.57,3.57,0,0,1-.2.7l-.67,2-.5,1.42c-.16.53-.33,1.11-.52,1.72-.38,1.23-.81,2.62-1.2,4.2-.21.78-.42,1.6-.65,2.45s-.4,1.76-.6,2.69c-.46,1.85-.78,3.85-1.2,5.95-.71,4.22-1.34,8.88-1.77,13.8s-.58,9.63-.65,13.91.05,8.13.22,11.37c.06,1.61.16,3.08.25,4.36s.15,2.39.23,3.29.12,1.56.16,2.08a3.66,3.66,0,0,1,0,.73,6.27,6.27,0,0,1-.11-.72c-.06-.52-.14-1.21-.25-2.07s-.21-2-.31-3.29-.24-2.75-.31-4.37c-.22-3.23-.31-7.1-.32-11.39s.21-9,.61-13.94,1.08-9.61,1.82-13.83c.42-2.1.76-4.12,1.23-6,.22-.93.43-1.82.64-2.68s.46-1.68.67-2.46c.41-1.57.88-3,1.28-4.19.2-.61.38-1.18.55-1.71s.38-1,.54-1.41l.75-1.95A5.13,5.13,0,0,1,855.85,312.17Z" fill="#17252a"/><path d="M839,386.25a1,1,0,0,1,0-.25c0-.19,0-.43-.06-.73,0-.68-.11-1.62-.19-2.81-.15-2.48-.37-6-.65-10.35-.56-8.73-1.37-20.8-2.84-34.06-.75-6.64-1.62-12.94-2.52-18.65-.48-2.85-.92-5.57-1.42-8.09s-.94-4.88-1.39-7-.9-4.06-1.28-5.76-.73-3.15-1-4.33-.51-2.08-.67-2.74c-.06-.29-.12-.53-.16-.72a1.12,1.12,0,0,1,0-.24s0,.07.09.23.12.42.2.7c.18.66.44,1.57.76,2.72s.71,2.63,1.11,4.32.9,3.61,1.35,5.75,1,4.49,1.45,7,1,5.24,1.46,8.09c.92,5.72,1.81,12,2.56,18.66,1.47,13.29,2.23,25.36,2.71,34.1.24,4.37.4,7.91.5,10.36,0,1.2.08,2.14.1,2.82,0,.3,0,.54,0,.73A1,1,0,0,1,839,386.25Z" fill="#17252a"/><path d="M842.6,297.83c-.28-3-3.33-5.28-6.35-5.31a10,10,0,0,0-7.68,4.18,23.94,23.94,0,0,0-3.7,8.21c-2,7.09-3.15,14.54-2.28,21.86s3.84,14.53,9.09,19.71c.86.84,2,1.68,3.14,1.43a3.76,3.76,0,0,0,1.65-1,48.9,48.9,0,0,0,15.88-37.2c-.08-2.79-.45-5.68-2-8s-5.14-4.79-7.76-3.86" fill="#3aafa9"/><path d="M820,273.73q-2.13,3.86-4.25,7.71c-.1.18-.23.38-.44.4s-.39-.19-.51-.38l-11.25-17.27,2.59-1.47Z" fill="#e8505b"/><path d="M820,273.73q-2.13,3.86-4.25,7.71c-.1.18-.23.38-.44.4s-.39-.19-.51-.38l-11.25-17.27,2.59-1.47Z" fill="#2b7a78"/><path d="M842.86,287.62,804.47,265a1.78,1.78,0,0,1-.93-.94c-.16-.57.27-1.11.68-1.54a26.49,26.49,0,0,1,20.51-8.06A23.47,23.47,0,0,1,843.28,266c3.7,6.62,3.82,15.37-.42,21.65" fill="#3aafa9"/><path d="M810,257.74l.51-.06c.33,0,.82-.07,1.45-.07a28.93,28.93,0,0,1,5.32.42,31.17,31.17,0,0,1,24.85,22.48,29.52,29.52,0,0,1,1,5.26c.07.63.06,1.12.07,1.45a1.83,1.83,0,0,1,0,.51s-.09-.7-.24-1.94a32.57,32.57,0,0,0-1.09-5.19,31.36,31.36,0,0,0-24.58-22.25,33.14,33.14,0,0,0-5.27-.56C810.7,257.76,810,257.78,810,257.74Z" fill="#17252a"/><path d="M837.66,272a9.24,9.24,0,0,1-1.94.88c-1.22.48-2.93,1.1-4.84,1.71s-3.67,1.09-4.94,1.4a9.46,9.46,0,0,1-2.1.4,11.08,11.08,0,0,1,2-.71l4.89-1.53,4.87-1.57A10.17,10.17,0,0,1,837.66,272Z" fill="#17252a"/><path d="M831.62,255.75a16.74,16.74,0,0,1,.45,4.29,16,16,0,0,1-.24,4.3,27,27,0,0,1-.22-4.29A26.34,26.34,0,0,1,831.62,255.75Z" fill="#17252a"/><path d="M804.14,264.54a18.42,18.42,0,0,1,2.79-1c1.74-.53,4.17-1.21,6.88-1.87s5.18-1.15,7-1.46a17.08,17.08,0,0,1,2.93-.4,21,21,0,0,1-2.86.71c-1.78.4-4.24.95-6.94,1.6s-5.13,1.28-6.9,1.74A19.51,19.51,0,0,1,804.14,264.54Z" fill="#17252a"/><path d="M825.16,290.71c-3.3-2.5-6.79-3-10.93-2.83a33.22,33.22,0,0,0-12,3.09c-6.47,2.83-12.55,7-16.42,12.92s-5.21,13.75-2.32,20.19a2.93,2.93,0,0,0,1.31,1.59,3.15,3.15,0,0,0,2.17-.16c7.36-2.41,14.77-4.83,21.54-8.59s12.93-9,16.56-15.83a13.76,13.76,0,0,0,1.75-5.25,6.54,6.54,0,0,0-1.69-5.13" fill="#3aafa9"/><path d="M825.22,289.94a3.87,3.87,0,0,1-.53.21l-1.54.53-1.12.37-1.3.51c-.93.38-2,.75-3.15,1.31l-1.81.82c-.62.29-1.25.64-1.91,1-1.33.66-2.68,1.49-4.12,2.34A65.22,65.22,0,0,0,793.5,311.3c-1,1.32-2,2.55-2.85,3.79-.42.61-.85,1.19-1.22,1.77l-1,1.69c-.69,1.06-1.2,2.08-1.7,3-.24.44-.47.84-.67,1.23l-.51,1.06-.72,1.46a3.9,3.9,0,0,1-.28.5,2.19,2.19,0,0,1,.19-.54l.65-1.5q.21-.5.48-1.08c.18-.39.41-.8.64-1.25.47-.89,1-1.93,1.64-3l1-1.71c.36-.59.78-1.18,1.2-1.8.81-1.25,1.81-2.5,2.83-3.84a69.79,69.79,0,0,1,7.55-7.9,68.84,68.84,0,0,1,8.8-6.48c1.45-.84,2.82-1.67,4.17-2.32.66-.33,1.3-.68,1.93-1l1.83-.8c1.15-.54,2.25-.89,3.19-1.25.47-.17.91-.34,1.32-.47l1.14-.34,1.57-.45A2,2,0,0,1,825.22,289.94Z" fill="#17252a"/><path d="M799.43,303.9a152,152,0,0,1-16.19,4.73,158.44,158.44,0,0,1,16.19-4.73Z" fill="#17252a"/><path d="M799.1,321.62a13.3,13.3,0,0,1-.17-2.5c0-1.55,0-3.69,0-6.05s.2-4.49.32-6a12.73,12.73,0,0,1,.32-2.48,15.47,15.47,0,0,1,0,2.5c-.05,1.7-.12,3.76-.19,6s-.11,4.33-.15,6A13.53,13.53,0,0,1,799.1,321.62Z" fill="#17252a"/><path d="M814.28,313.89c-.12,0-.53-4.34-.9-9.71s-.57-9.72-.44-9.73.53,4.33.9,9.7S814.41,313.88,814.28,313.89Z" fill="#17252a"/><path d="M795.39,294A13.42,13.42,0,0,1,798,294c1.59,0,3.78.06,6.2.14s4.61.17,6.19.27a14.81,14.81,0,0,1,2.56.24,13.42,13.42,0,0,1-2.57.08c-1.58,0-3.78-.06-6.2-.14s-4.61-.17-6.19-.27A14.48,14.48,0,0,1,795.39,294Z" fill="#17252a"/><path d="M833.33,348.55a2.19,2.19,0,0,1-.05-.53c0-.39,0-.89-.07-1.51-.06-1.31-.07-3.2,0-5.55s.19-5.13.47-8.22.73-6.47,1.35-10,1.4-6.85,2.19-9.85,1.62-5.67,2.39-7.88,1.43-4,1.94-5.2l.58-1.4a3.6,3.6,0,0,1,.23-.47,1.76,1.76,0,0,1-.14.51c-.13.37-.3.84-.5,1.42-.46,1.23-1.08,3-1.8,5.24s-1.51,4.9-2.29,7.89-1.51,6.31-2.15,9.82-1.06,6.88-1.38,10-.49,5.85-.57,8.19-.13,4.23-.12,5.54c0,.61,0,1.11,0,1.51A2.13,2.13,0,0,1,833.33,348.55Z" fill="#17252a"/><path d="M835.36,322.36a11,11,0,0,1-1.54,1.68c-1,1-2.4,2.32-4,3.73s-3.11,2.63-4.22,3.49a10.22,10.22,0,0,1-1.87,1.29,12.21,12.21,0,0,1,1.66-1.54l4.13-3.59,4.09-3.62A10.89,10.89,0,0,1,835.36,322.36Z" fill="#17252a"/><path d="M847.5,332.14a17.85,17.85,0,0,1-1.63-2.26l-3.79-5.53-3.87-5.48a17.42,17.42,0,0,1-1.55-2.32,16,16,0,0,1,1.81,2.12c1.06,1.36,2.49,3.26,4,5.42s2.79,4.15,3.69,5.62A14.47,14.47,0,0,1,847.5,332.14Z" fill="#17252a"/><path d="M841.14,301.37c.07.1-4,2.82-9,6.06s-9.2,5.79-9.27,5.68,4-2.82,9-6.06S841.07,301.26,841.14,301.37Z" fill="#17252a"/><path d="M852.52,313.65a76.37,76.37,0,0,1-6.1-5.64,75.21,75.21,0,0,1-5.79-6,75.15,75.15,0,0,1,6.11,5.64A74.07,74.07,0,0,1,852.52,313.65Z" fill="#17252a"/><path d="M855.38,313.4l3.47-.29a17.1,17.1,0,0,0,7-2.14,26.79,26.79,0,0,1,3.26-1.63c4.29-1.72,9.07-1.42,13.67-1.65a56.64,56.64,0,0,0,21.75-5.56,2.09,2.09,0,0,0,1-.86c.71-1.3-.61-2.45-1.75-3.15-5.83-3.6-11.77-7.24-18.39-9s-14.14-1.48-19.78,2.41c-6.63,4.56-9,13.93-10.17,21.9" fill="#3aafa9"/><path d="M905.55,300.84a2.89,2.89,0,0,1-.59-.27l-1.64-.86c-1.42-.75-3.47-1.85-6.06-3.1a57.8,57.8,0,0,0-9.39-3.61,30.93,30.93,0,0,0-12.17-1,20.86,20.86,0,0,0-11.09,4.76,24.64,24.64,0,0,0-5.78,8.12,64.85,64.85,0,0,0-2.51,6.31c-.26.73-.46,1.31-.62,1.75a.32.32,0,1,1-.09,0l.54-1.77a57.07,57.07,0,0,1,2.39-6.4,24.44,24.44,0,0,1,5.79-8.29,21,21,0,0,1,11.31-4.91,31,31,0,0,1,12.34,1,54.33,54.33,0,0,1,9.42,3.73c2.58,1.29,4.61,2.44,6,3.23l1.6.94A4.17,4.17,0,0,1,905.55,300.84Z" fill="#17252a"/><path d="M897.23,305.31c-.07.11-4.6-2.82-10.12-6.54s-9.93-6.82-9.86-6.93,4.6,2.83,10.12,6.55S897.3,305.21,897.23,305.31Z" fill="#17252a"/><path d="M892.88,291.41a10.81,10.81,0,0,1-3.54.71,10.6,10.6,0,0,1-3.61-.06,21.32,21.32,0,0,1,3.57-.4A20.54,20.54,0,0,1,892.88,291.41Z" fill="#17252a"/><path d="M872.56,287.77a12.11,12.11,0,0,1-1.48,3,12.45,12.45,0,0,1-1.89,2.74,24.39,24.39,0,0,1,3.37-5.71Z" fill="#17252a"/><path d="M876.62,308a11,11,0,0,1-2.18-1.18c-1.31-.79-3.08-2-5-3.33s-3.55-2.67-4.75-3.62a13.08,13.08,0,0,1-1.88-1.61,13,13,0,0,1,2.07,1.35l4.83,3.51c1.89,1.37,3.62,2.57,4.88,3.43A14.91,14.91,0,0,1,876.62,308Z" fill="#17252a"/><path d="M860.48,328.12c-3.3-.87-7.24,2.34-7.92,5.69s.57,6.78,2,9.86a50.38,50.38,0,0,0,13.67,17.88,33.76,33.76,0,0,0,20.89,7.69c-1.39-6.49.37-13.27-.41-19.86a25.85,25.85,0,0,0-22.88-22.65c-2.1-.23-4.55-.56-5.39,1.39" fill="#3aafa9"/><path d="M889.16,369.24a1.88,1.88,0,0,1-.47-.22,7.53,7.53,0,0,1-1.23-.83,12.79,12.79,0,0,1-3.27-4.36c-.52-1-1.11-2.13-1.69-3.36s-1.15-2.55-1.78-3.93a37.43,37.43,0,0,0-2.18-4.2,32.5,32.5,0,0,0-3-4.09c-2.26-2.66-4.69-5-6.79-7.16a46.18,46.18,0,0,1-5.18-6.21A22.35,22.35,0,0,1,861,330a13.36,13.36,0,0,1-.44-1.41,2.44,2.44,0,0,1-.11-.51s.23.67.72,1.86a24.59,24.59,0,0,0,2.63,4.72,49.13,49.13,0,0,0,5.21,6.1c2.12,2.17,4.56,4.47,6.84,7.15a31.41,31.41,0,0,1,3,4.15,35.18,35.18,0,0,1,2.19,4.26l1.74,3.95c.55,1.22,1.13,2.34,1.63,3.37a13.57,13.57,0,0,0,3.09,4.38C888.54,368.89,889.19,369.2,889.16,369.24Z" fill="#17252a"/><path d="M872.08,363.85a9.69,9.69,0,0,1,.3-2.22c.26-1.37.68-3.23,1.25-5.27s1.19-3.85,1.68-5.15a10.67,10.67,0,0,1,.9-2,10.94,10.94,0,0,1-.59,2.16c-.41,1.32-1,3.14-1.54,5.17s-1.05,3.87-1.38,5.21A12.93,12.93,0,0,1,872.08,363.85Z" fill="#17252a"/><path d="M888.54,347.92a12.71,12.71,0,0,1-2.33-.53c-1.43-.37-3.39-.88-5.58-1.38s-4.18-.87-5.63-1.15a14.29,14.29,0,0,1-2.33-.51,11.23,11.23,0,0,1,2.38.19c1.47.2,3.48.53,5.68,1s4.16,1.06,5.57,1.52A11.66,11.66,0,0,1,888.54,347.92Z" fill="#17252a"/><path d="M859.81,352.55a13.62,13.62,0,0,1,.36-2.57c.29-1.58.75-3.75,1.37-6.12s1.28-4.49,1.79-6a13.62,13.62,0,0,1,.95-2.42,16.11,16.11,0,0,1-.64,2.52c-.43,1.54-1,3.67-1.65,6s-1.13,4.51-1.5,6.06A14.73,14.73,0,0,1,859.81,352.55Z" fill="#17252a"/><path d="M881,334c0,.13-4.14-.21-9.22-.74a90.72,90.72,0,0,1-9.16-1.21c0-.12,4.14.21,9.21.75S881,333.92,881,334Z" fill="#17252a"/><path d="M877.93,384.07c0,.13-14.5.23-32.38.23s-32.39-.1-32.39-.23,14.5-.23,32.39-.23S877.93,383.94,877.93,384.07Z" fill="#2b7a78"/><path d="M867.84,402.73c0,.13-9.77.23-21.82.23s-21.82-.1-21.82-.23,9.77-.23,21.82-.23S867.84,402.6,867.84,402.73Z" fill="#2b7a78"/><path d="M868.23,405.4c0,.13-9.77.23-21.82.23s-21.83-.1-21.83-.23,9.77-.23,21.83-.23S868.23,405.27,868.23,405.4Z" fill="#2b7a78"/><path d="M868.23,400.53c0,.13-10.11.23-22.57.23s-22.58-.1-22.58-.23,10.11-.23,22.58-.23S868.23,400.4,868.23,400.53Z" fill="#2b7a78"/></g></svg>