<svg xmlns="http://www.w3.org/2000/svg" viewBox="0 0 500 500"><title>ENABLE UPDATED</title><g id="OBJECTS"><path d="M216.14,153.24s-39.91.91-21.57,30c6.74,10.71,5.12,17.08,2.16,20.7a1.4,1.4,0,0,0,1.49,2.25c9.52-3.29,23.1-11.55,10.29-30.4,0,0-9.42-12.57,9.45-20.3Z" fill="#000200"/><path d="M215,147.85c-.29.28-7.29,3-3.76,9s11.32,2.1,11.32,2.1Z" fill="#fa8f29"/><path d="M213.63,151.69a20.27,20.27,0,0,0,27.29,8.74c10-5.13,12.67-16.74,7.55-26.69s-16.16-14.46-26.11-9.34A20.27,20.27,0,0,0,213.63,151.69Z" fill="#000200"/><path d="M228.39,148.42l17.14,8.17L247.78,169s1.78,3.28-1.8,6.55-10.76,5-12.62.88Z" fill="#fff"/><path d="M237.63,148.78l-5.79-4.62s.17,22.18,15,19.82l-1.34-7.39Z" fill="#def2f1"/><path d="M247.85,159.55h0c6.64-3.43,10-10.23,6.59-16.87l-8.71-16.92a5.94,5.94,0,0,0-8-2.55l-13.64,7a5.92,5.92,0,0,0-2.54,8l7.75,15.05C232.75,159.9,242.25,162.43,247.85,159.55Z" fill="#fff"/><path d="M250.06,136.84l5.67,1.61a1.36,1.36,0,0,1,.7,1.68l-2.18,3.68Z" fill="#fff"/><path d="M238.38,122.89s6.2,13.71-10,23.16c0,0-10.26,1-10.66-5.27s2-12.75,6.91-14.35S238.38,122.89,238.38,122.89Z" fill="#000200"/><path d="M238.73,123.87s4.56.24,9.24,6.25c0,0,3.25-6.09-4.95-9.62S232.27,128,232.27,128Z" fill="#000200"/><path d="M222.1,151.17a5.3,5.3,0,1,0,2.29-7.13A5.3,5.3,0,0,0,222.1,151.17Z" fill="#fff"/><polygon points="242.69 441.18 244.36 412.37 258.24 412.36 255.25 441.17 242.69 441.18" fill="#fff"/><path d="M242.69,441.18h15.56s18.14-.88,21.18,13.15l-37.54,0Z" fill="#161613"/><polygon points="261.5 240.43 269.24 347.1 266.19 427.51 236.5 427.51 238.31 336.61 230.01 242.02 261.5 240.43" fill="#17252a"/><polygon points="198.55 441.18 206.33 412.4 220.21 412.39 211.11 441.17 198.55 441.18" fill="#fff"/><path d="M198.55,441.18h15.56s18.14-.88,21.18,13.15l-39.81,0Z" fill="#161613"/><path d="M224.54,242s-14.37,12.72-12.81,50.6l1,50.87-26.1,83.24L219,428.86l26.14-83.3,11-108.78Z" fill="#17252a"/><polyline points="237.74 369.2 245.18 342.86 251.97 275.51" fill="none" stroke="#110f24" stroke-miterlimit="10" stroke-width="0.91"/><path d="M320.51,112.12c-.55-.34-2.37-7.86,6.47-6.24s10.63-2.46,14.23.08,3.15,10.82-14.82,8.81Z" fill="#fff"/><polygon points="319.99 109.72 316.39 118.12 323.7 121.75 327.54 110.82 319.99 109.72" fill="#fff"/><path d="M248.19,171.5l46.25-14.86,18.22-41.48,17,4.84L312.5,164.37a12.79,12.79,0,0,1-4.1,5.22,128.12,128.12,0,0,1-55.32,22.72,10.7,10.7,0,0,1-12.3-9.64h0A10.73,10.73,0,0,1,248.19,171.5Z" fill="#2b7a78"/><path d="M223.21,242c0-.87-7.93-50.47-7.93-50.47l23.33-18.43h14s15.45,1.3,16.61,16l-7.74,51.28Z" fill="#2b7a78"/><path d="M266.12,180.4s15.1,18.49-2.19,31.21-14.71-7.46-14.71-7.46Z" fill="#2b7a78"/><path d="M284.46,106.5c-.61-.21-4.08-7.12,4.89-7.54s9.8-4.8,13.88-3.13,5.51,9.83-12.45,11.93Z" fill="#fff"/><polygon points="283.4 104.27 281.8 113.27 289.74 115.16 291 103.64 283.4 104.27" fill="#fff"/><path d="M220.81,179.34l43.27-22.08L278,109.91,295.48,112l-12.34,50a12.71,12.71,0,0,1-3.2,5.82,128.16,128.16,0,0,1-51,31.27,10.69,10.69,0,0,1-13.68-7.54h0A10.73,10.73,0,0,1,220.81,179.34Z" fill="#2b7a78"/><path d="M283.51,160.5l-3.11,9a4.72,4.72,0,0,1-2.19,2.6l-34.67,20.36" fill="none" stroke="#17252a" stroke-miterlimit="10" stroke-width="0.91"/><path d="M288.21,78.49a6,6,0,0,1,3.89-7.57l1.34-.43a32.87,32.87,0,0,1,17.19-1.2q8,1.74,19,9.7,10.38,7.73,15.89,9.48a17.69,17.69,0,0,0,11.05,0q6.21-2,8-7.62T363.7,67q-4-12.35-15.83-25.44a6,6,0,0,1,.25-8.35l9.1-8.86a6,6,0,0,1,8.59.19,95,95,0,0,1,22.05,37q6.31,19.67.58,34.3T367,115.55q-10.5,3.38-19.67,1t-23-12.62q-9.72-7-14-8.3a16.94,16.94,0,0,0-10.05.54h0a6,6,0,0,1-7.56-3.89Zm-35.47,1.69q8-2.57,13.51.41t8.11,11.18q2.55,7.94-.26,13.62t-10.64,8.2q-7.54,2.43-13.29-.58t-8.27-10.82q-2.57-8,.27-13.77T252.74,80.18Z" fill="#2b7a78"/></g></svg>