<svg xmlns="http://www.w3.org/2000/svg" viewBox="0 0 1020 500"><title>ENABLE UPDATED</title><g id="OBJECTS"><rect width="1020" height="500" fill="#2b7a78"/><path d="M819.17,434.65a.5.5,0,0,1-.36-.21.59.59,0,0,1,.1-.77c8.61-6.92,17.52-11.74,33-12.75,11-.71,17.5-2.67,19.22-5.85a4.89,4.89,0,0,0-.2-4.58c-1.48-3.15-6.72-5.27-13.46-5.39a35.25,35.25,0,0,0-9.2,1.08c-11.76,3.06-23.74,12.13-29.26,22.05a.47.47,0,0,1-.43.27.48.48,0,0,1-.24-.07.61.61,0,0,1-.18-.76c5.6-10.15,17.89-19.43,29.89-22.54a35.63,35.63,0,0,1,9.37-1.08c7.27.13,12.79,2.4,14.41,5.93a6.06,6.06,0,0,1,.14,5.63c-1.94,3.6-8.31,5.64-20,6.39-15.23,1-24,5.72-32.46,12.53a.45.45,0,0,1-.29.1Z" fill="#3aafa9"/><path d="M818.16,431.19a.4.4,0,0,1-.27-.12.57.57,0,0,1,0-.77c11.09-14.29,29.68-20.45,43-20.21a31.65,31.65,0,0,1,4.45.35.56.56,0,0,1,.41.66.54.54,0,0,1-.53.42,33.49,33.49,0,0,0-4.13-.34c-12.89-.22-31.69,5.94-42.5,19.82a.46.46,0,0,1-.38.19Z" fill="#3aafa9"/><path d="M819.17,434.65a.5.5,0,0,1-.36-.21.59.59,0,0,1,.1-.77c8.61-6.92,17.52-11.74,33-12.75,11-.71,17.5-2.67,19.22-5.85a4.89,4.89,0,0,0-.2-4.58c-1.48-3.15-6.72-5.27-13.46-5.39a35.25,35.25,0,0,0-9.2,1.08c-11.76,3.06-23.74,12.13-29.26,22.05a.47.47,0,0,1-.43.27.48.48,0,0,1-.24-.07.61.61,0,0,1-.18-.76c5.6-10.15,17.89-19.43,29.89-22.54a35.63,35.63,0,0,1,9.37-1.08c7.27.13,12.79,2.4,14.41,5.93a6.06,6.06,0,0,1,.14,5.63c-1.94,3.6-8.31,5.64-20,6.39-15.23,1-24,5.72-32.46,12.53a.45.45,0,0,1-.29.1Z" fill="#3aafa9"/><path d="M818.16,431.19a.4.4,0,0,1-.27-.12.57.57,0,0,1,0-.77c11.09-14.29,29.68-20.45,43-20.21a31.65,31.65,0,0,1,4.45.35.56.56,0,0,1,.41.66.54.54,0,0,1-.53.42,33.49,33.49,0,0,0-4.13-.34c-12.89-.22-31.69,5.94-42.5,19.82a.46.46,0,0,1-.38.19Z" fill="#3aafa9"/><path d="M802.4,412a33.33,33.33,0,0,0,2.42,3.79c2.55,3.55,5.49,6.9,7.1,10.95a15.29,15.29,0,0,0,2.68,5.42c3.28,3.32,5.19-.23,6.12-3,2.3-6.77,4.61-13.36,10.32-17.94a55,55,0,0,0,8.26-7.13c2.33-2.8,3.79-6.69,2.6-10.13-.71-2.08-2.31-3.83-2.61-5.94-.39-2.71,1.38-5.3,3.44-7.09a69.28,69.28,0,0,0,6.4-5.18c1.84-2,3-5.14,1.62-7.54-1.89-3.4-7.51-3.67-8.73-7.42-.93-2.86,1.32-5.64,2.23-8.21,1.07-3-.36-6.75-2.69-7.42a13.27,13.27,0,0,0-5.06-.23,14.18,14.18,0,0,0-8.77,5.81c-.7.92-1.28,1.95-2,2.84-2.52,3.07-5.94,3.68-9.26,5.4a12.77,12.77,0,0,0-6.74,7.69c-1.05,3.93.29,8,.83,12.06a10.22,10.22,0,0,1,0,3.82,13.83,13.83,0,0,1-2.73,4.57c-1.26,1.66-2.55,3.26-3.65,5a24.21,24.21,0,0,0-4,11.74A16.26,16.26,0,0,0,802.4,412Z" fill="#3aafa9"/><path d="M802.4,412a33.33,33.33,0,0,0,2.42,3.79c2.55,3.55,5.49,6.9,7.1,10.95a15.29,15.29,0,0,0,2.68,5.42c3.28,3.32,5.19-.23,6.12-3,2.3-6.77,4.61-13.36,10.32-17.94a55,55,0,0,0,8.26-7.13c2.33-2.8,3.79-6.69,2.6-10.13-.71-2.08-2.31-3.83-2.61-5.94-.39-2.71,1.38-5.3,3.44-7.09a69.28,69.28,0,0,0,6.4-5.18c1.84-2,3-5.14,1.62-7.54-1.89-3.4-7.51-3.67-8.73-7.42-.93-2.86,1.32-5.64,2.23-8.21,1.07-3-.36-6.75-2.69-7.42a13.27,13.27,0,0,0-5.06-.23,14.18,14.18,0,0,0-8.77,5.81c-.7.92-1.28,1.95-2,2.84-2.52,3.07-5.94,3.68-9.26,5.4a12.77,12.77,0,0,0-6.74,7.69c-1.05,3.93.29,8,.83,12.06a10.22,10.22,0,0,1,0,3.82,13.83,13.83,0,0,1-2.73,4.57c-1.26,1.66-2.55,3.26-3.65,5a24.21,24.21,0,0,0-4,11.74A16.26,16.26,0,0,0,802.4,412Z" fill="#fff" opacity="0.2" style="isolation:isolate"/><path d="M816.64,423.75h0a.71.71,0,0,0,.51-.86c-6.65-25.32.3-50.57,19.56-71.13a.69.69,0,0,0,0-1h0a.7.7,0,0,0-1,0l0,0c-19.61,20.91-26.71,46.64-19.9,72.45A.7.7,0,0,0,816.64,423.75Z" fill="#fff"/><path d="M816.41,387a.69.69,0,0,0,.49-.34c3.72-6.71,15.5-13.21,24.29-15.38a.71.71,0,0,0,.52-.86.68.68,0,0,0-.81-.53h0c-9.28,2.3-21.24,8.91-25.23,16.06a.71.71,0,0,0,.28,1A.62.62,0,0,0,816.41,387Z" fill="#fff"/><path d="M818.47,435.42c6.8-20,26-33.85,44.39-38.47,11-2.77,10.95-11.87,7.42-15.14-5.39-4.95-21-6.42-33.81,3.27s-24.14,22.68-22.17,50.2Z" fill="#3aafa9"/><path d="M818.47,435.42c6.8-20,26-33.85,44.39-38.47,11-2.77,10.95-11.87,7.42-15.14-5.39-4.95-21-6.42-33.81,3.27s-24.14,22.68-22.17,50.2Z" fill="#def2f1"/><path d="M816.17,432.18a.61.61,0,0,0,.61-.56c4.45-35.08,33.55-47.49,48.11-46.23a.62.62,0,0,0,.65-.59h0a.64.64,0,0,0-.55-.7c-15-1.22-44.84,11.41-49.41,47.36a.63.63,0,0,0,.51.71Z" fill="#3aafa9"/><path d="M189.51,377.5a.41.41,0,0,0,.35-.11.52.52,0,0,0,0-.68c-6.1-7.42-13.19-10.86-26.23-14.54-9.28-2.57-14.44-5.54-15.33-8.51a4.28,4.28,0,0,1,1-3.9c1.81-2.42,6.72-3.27,12.51-2.14a30,30,0,0,1,7.72,2.6c9.51,4.76,18.15,14.71,21,24.2a.45.45,0,0,0,.33.32.38.38,0,0,0,.21,0,.5.5,0,0,0,.29-.61c-3-9.71-11.75-19.89-21.47-24.74a30.43,30.43,0,0,0-7.79-2.67c-6.24-1.2-11.37-.27-13.36,2.46a5.32,5.32,0,0,0-1.16,4.79c1,3.43,6.09,6.34,16,9.12,12.73,3.62,19.7,6.9,25.72,14.32a.36.36,0,0,0,.23.15Z" fill="#3aafa9"/><path d="M190.67,377.11a.53.53,0,0,0,.25,0,.49.49,0,0,0,.19-.65c-6.87-14.25-21.62-22.9-33.18-25.16a29.38,29.38,0,0,0-3.85-.61.47.47,0,0,0-.46.45.46.46,0,0,0,.36.49,30.37,30.37,0,0,1,3.67.55c11.08,2.15,26.06,10.8,32.75,24.69a.37.37,0,0,0,.29.24Z" fill="#3aafa9"/><path d="M189.51,377.5a.41.41,0,0,0,.35-.11.52.52,0,0,0,0-.68c-6.1-7.42-13.19-10.86-26.23-14.54-9.28-2.57-14.44-5.54-15.33-8.51a4.28,4.28,0,0,1,1-3.9c1.81-2.42,6.72-3.27,12.51-2.14a30,30,0,0,1,7.72,2.6c9.51,4.76,18.15,14.71,21,24.2a.45.45,0,0,0,.33.32.38.38,0,0,0,.21,0,.5.5,0,0,0,.29-.61c-3-9.71-11.75-19.89-21.47-24.74a30.43,30.43,0,0,0-7.79-2.67c-6.24-1.2-11.37-.27-13.36,2.46a5.32,5.32,0,0,0-1.16,4.79c1,3.43,6.09,6.34,16,9.12,12.73,3.62,19.7,6.9,25.72,14.32a.36.36,0,0,0,.23.15Z" fill="#3aafa9"/><path d="M190.67,377.11a.53.53,0,0,0,.25,0,.49.49,0,0,0,.19-.65c-6.87-14.25-21.62-22.9-33.18-25.16a29.38,29.38,0,0,0-3.85-.61.47.47,0,0,0-.46.45.46.46,0,0,0,.36.49,30.37,30.37,0,0,1,3.67.55c11.08,2.15,26.06,10.8,32.75,24.69a.37.37,0,0,0,.29.24Z" fill="#3aafa9"/><path d="M206.62,351a35.2,35.2,0,0,1-2.08,3.35c-2.18,3.13-8.68,12.6-10,16.18-.64,1.64-3.49,7.27-3.49,7.27s-4.45-23.14-9.48-27.12a47.63,47.63,0,0,1-7.33-6.11,9.54,9.54,0,0,1-2.42-8.83c.61-1.82,2-3.37,2.21-5.28.3-2.38-1.28-4.62-3.12-6.16a55.27,55.27,0,0,1-5.65-4.45c-1.65-1.75-2.66-4.46-1.49-6.56,1.61-3,6.53-3.33,7.54-6.58.78-2.52-1.24-4.91-2.06-7.15-1-2.64.22-5.94,2.24-6.57a11.33,11.33,0,0,1,4.45-.29,12.36,12.36,0,0,1,7.75,5c.64.8,1.16,1.67,1.81,2.44,2.26,2.66,5.24,3.15,8.18,4.6a11.18,11.18,0,0,1,5.93,6.64c1,3.43-.13,7-.56,10.56a8.93,8.93,0,0,0,.09,3.34,12.44,12.44,0,0,0,2.45,4,46.2,46.2,0,0,1,3.26,4.36,21,21,0,0,1,3.67,10.21A14.2,14.2,0,0,1,206.62,351Z" fill="#3aafa9"/><path d="M206.62,351a35.2,35.2,0,0,1-2.08,3.35c-2.18,3.13-8.68,12.6-10,16.18-.64,1.64-3.49,7.27-3.49,7.27s-4.45-23.14-9.48-27.12a47.63,47.63,0,0,1-7.33-6.11,9.54,9.54,0,0,1-2.42-8.83c.61-1.82,2-3.37,2.21-5.28.3-2.38-1.28-4.62-3.12-6.16a55.27,55.27,0,0,1-5.65-4.45c-1.65-1.75-2.66-4.46-1.49-6.56,1.61-3,6.53-3.33,7.54-6.58.78-2.52-1.24-4.91-2.06-7.15-1-2.64.22-5.94,2.24-6.57a11.33,11.33,0,0,1,4.45-.29,12.36,12.36,0,0,1,7.75,5c.64.8,1.16,1.67,1.81,2.44,2.26,2.66,5.24,3.15,8.18,4.6a11.18,11.18,0,0,1,5.93,6.64c1,3.43-.13,7-.56,10.56a8.93,8.93,0,0,0,.09,3.34,12.44,12.44,0,0,0,2.45,4,46.2,46.2,0,0,1,3.26,4.36,21,21,0,0,1,3.67,10.21A14.2,14.2,0,0,1,206.62,351Z" fill="#fff" opacity="0.2" style="isolation:isolate"/><path d="M194.36,361.42h0a.64.64,0,0,1-.46-.75c5.46-22.26-1-44.24-18.09-61.95a.61.61,0,0,1,0-.86h0a.61.61,0,0,1,.86,0l0,0c17.4,18,24,40.44,18.38,63.1A.63.63,0,0,1,194.36,361.42Z" fill="#fff"/><path d="M194.05,329.31a.65.65,0,0,1-.43-.31c-3.36-5.82-13.76-11.33-21.48-13.11a.62.62,0,0,1-.46-.74.61.61,0,0,1,.69-.49l.06,0c8.14,1.88,18.7,7.51,22.26,13.69a.67.67,0,0,1-.24.87A.68.68,0,0,1,194.05,329.31Z" fill="#fff"/><path d="M187.73,377.41c-3.22-17.69-17.08-31.46-31.17-37.27-8.52-3.48-7.42-11.25-4.26-13.64,4.86-3.66,17.5-3.3,26.72,6.25s16.78,21.76,12.15,45Z" fill="#3aafa9"/><path d="M187.73,377.41c-3.22-17.69-17.08-31.46-31.17-37.27-8.52-3.48-7.42-11.25-4.26-13.64,4.86-3.66,17.5-3.3,26.72,6.25s16.78,21.76,12.15,45Z" fill="#def2f1"/><path d="M189.91,374.88a.49.49,0,0,1-.42-.53c.33-30.3-21.56-43.78-33.33-44.25a.56.56,0,0,1,.08-1.1h0c12.11.49,34.56,14.29,34.23,45.33a.58.58,0,0,1-.5.57Z" fill="#3aafa9"/><path d="M799.74,440.3a24.69,24.69,0,0,1-20.15,1.07c.86-8.91-4.59-28.06-9.25-55.92l28.88-1.17V429Z" fill="#fff"/><path d="M803.63,450.12a21.26,21.26,0,0,0-.77-7s-2.05-.29-2.64,3.8,1.64,22.26-2.6,28.2-23.12-1.38-23.57-5.09c0,1.56-.13,8.9,3.3,13.91s14.63,3,18.59,1,6.07-6.16,7.33-10.39.36-6.6-.28-13.95A47.14,47.14,0,0,1,803.63,450.12Z" fill="#f0f0f0"/><path d="M779,437.2l-.14,3.2c-.08,2.13-.17,4.26-.44,6.37-1,7.55-4.24,16.25-4.38,23.86a18.22,18.22,0,0,0,2.21,8.39c1.89,3.28,6.16,6.36,9.43,6.42,6.56.12,9.14-1.82,11.48-4.95,4.89-6.5,6.21-10.55,4.89-17.81A43.47,43.47,0,0,1,800.9,452c0-1.87,1.88-7.1,1.94-8.16a34,34,0,0,0-1.11-7.42c-.1-.44-.48-1.82-.58-2.27-.5-2.27,0-3.57-.82-4.57a1.44,1.44,0,0,0-1.05-.5v2.68c-.1,1.66-.65,1.49-.68,2.72,0,1.73.35,3.63.16,4.11s-.33.07-.84-.39-1.07-.2-1.62,1a10.15,10.15,0,0,0-.52-3.5c-1.14-1.35-6.75-3-8.4-3C784.46,432.85,779.1,435.28,779,437.2Z" fill="#fafafa"/><path d="M800.23,446.93c-2,4.68.25,15.17-.88,14.7a10.36,10.36,0,0,1-2.64-2.6l-1.48,3.44s2.45,4.9,2.43,6.25-1.7,4.45-5.31,5.94-10.18.75-12.36-.21a10.78,10.78,0,0,1-4.75-6.15c-.21-1.48,1.57-4.08,1.57-4.08l-.26-4.45-1,.51a52.7,52.7,0,0,0-1.49,10.38,18.22,18.22,0,0,0,2.21,8.39c1.89,3.28,6.16,6.36,9.43,6.42,6.56.12,9.14-1.82,11.48-5,4.89-6.5,6.21-10.55,4.89-17.81A43.47,43.47,0,0,1,800.9,452c0-1.87,1.88-7.1,1.94-8.16a33.86,33.86,0,0,0-1.11-7.42C802.58,440.66,802.19,442.26,800.23,446.93Z" fill="#17252a"/><path d="M785.48,465.54c-2.79-.19-6.66-.37-6.69-5.53s-.48-12.19-.48-12.19h0c-.44,3-1.19,5.94-1.91,9h0s-1.49,7.9.53,10.46,14.37,2.29,17.16.3,3.23-6.1,3.72-13.36.92-15.79.92-15.79c-.22.57-.33.08-.84-.38s-1.07-.21-1.62,1c-.33,4.73-1.65,18.82-2.18,21.78S788.36,465.74,785.48,465.54Z" fill="#3aafa9"/><path d="M777.36,463.84l.42,2.1A30.72,30.72,0,0,1,795,460.6l.62-2.55C782.63,457.86,777.36,463.84,777.36,463.84Z" fill="#37474f"/><path d="M778,456.79v3c7.81-5.66,18.28-5.5,18.28-5.5l.36-2.87C783.53,451.15,778,456.79,778,456.79Z" fill="#37474f"/><path d="M778.31,451v2.9a35.74,35.74,0,0,1,18.28-7.1l.33-2.3C783.91,444.32,778.31,451,778.31,451Z" fill="#37474f"/><path d="M778.27,444.19v3c8-6.47,19.19-5,19.19-5l.25-2.72C785.15,437.76,778.27,444.19,778.27,444.19Z" fill="#37474f"/><path d="M779.45,483.77c1.49.52.4-4.94,2.85-5.32s8.83-1.33,9.2.17,1.24,5.09,2.36,4.67,5.11-.75,6.93-4.45,3.31-6.86,2.84-11.07-1.93-11.87-1.17-15,1.11-2.86,1.11-2.86a6.27,6.27,0,0,1,.41,2.15c-.13.53-.23.9-.4,1.48-.5,1.68-.6,3.92.15,8.7,1,6.25,1.49,9.56-1.39,15.88S798.2,488.26,786.56,489c-10.24.62-13.06-10.39-12.55-17C774.79,475.89,775,482.08,779.45,483.77Z" fill="#17252a"/><path d="M777.78,465.94a115.53,115.53,0,0,1,16.22,0l.58-2.22a35.83,35.83,0,0,0-17.22,0Z" fill="#17252a"/><path d="M794.58,463.79s-2.26-6.35-16.62-7a3.58,3.58,0,0,0,0,3s10.93.46,16.1,6.3Z" fill="#17252a"/><path d="M795.61,458.05s-3-6.38-17.3-7a2.8,2.8,0,0,0,0,2.9s11.52.84,16.68,6.69Z" fill="#17252a"/><path d="M796.54,451.34s-3.91-6.48-18.27-7.14a4.33,4.33,0,0,0,0,3s12.79,1.26,18,7.09Z" fill="#17252a"/><path d="M796.92,444.51s-3.92-5.69-18.3-6.33a3.15,3.15,0,0,0,0,2.65s12.85.14,18,5.94Z" fill="#17252a"/><path d="M742.52,432.15c-4.17,8.91-11.8,6.27-20.36.61l-3-58.89,26.37,6.86Z" fill="#fff"/><path d="M749.4,452.53c-3,3.06-9.58,3-15.42,4.64a17.39,17.39,0,0,0-3,1.22h0c-5.21,2.6-11.11,7.51-20.92,8.44-11.77,1.13-20.88-2.28-22.72-4s-1.65-3-1.68-5.35c2.45,3.3,9.18,5.16,17.23,5.17s13.24-3.22,21.26-8.54a27,27,0,0,1,13.36-5.18,17.55,17.55,0,0,0,2-.39c4.17-1,8.59-2.77,9.53-5a.85.85,0,0,0,.09-.22A28,28,0,0,1,749.4,452.53Z" fill="#f0f0f0"/><path d="M727.08,428.71A10.1,10.1,0,0,0,723,426a6.86,6.86,0,0,0-4.66,2.54c-.9,1-2.08,3.34-3.62,5.06-5.13,5.73-6.69,7.55-15.79,12.58-2.43,1.35-9.11,4.71-11.52,6.13a4.95,4.95,0,0,0,1.16,8.46c3.85,2,16.77,4.65,26.64.34,10.17-4.45,13.36-9.82,20.78-10.7,4.7-.56,11.87-3.16,12.89-5.39.74-5.12-.65-6.44-2.06-10.62-.68-2-.79-4.08-1.37-6.07-.19-.64.21-3-.71-3.8a2.54,2.54,0,0,0-1.73-.83c0,.22-.17,2.05-.17,2.05a12.34,12.34,0,0,1-1.48,1.1c-1,.8-1,1.7,0,3.73s-.43,3.54-3.06,2.5a42.41,42.41,0,0,1-3.81-2.21,7.38,7.38,0,0,0-4-.94c-1.63.39-2.21,2.45-3.56,4C727.94,432.32,728.91,430.83,727.08,428.71Z" fill="#fafafa"/><path d="M715.21,461.09c10.17-4.45,13.36-9.82,20.78-10.7,4.7-.56,11.87-3.16,12.89-5.39a13.67,13.67,0,0,0-1.33-8.66c-.6,4.73-4.81,4.2-10.26,4.52s-12.17,9.2-15.58,9.09-11-2.79-11-2.79l-3.6,2.39c1.48,2.4,8.52,3.07,6.08,4.45s-5.06.75-13.35,1.59c-5.08.51-10.62-2.59-9.4-5-1.23.67-2.33,1.26-3,1.68a4.92,4.92,0,0,0-.84,6.93,4.86,4.86,0,0,0,2,1.53C692.42,462.74,705.34,465.39,715.21,461.09Z" fill="#17252a"/><path d="M749.4,452.53c-3,3.06-9.58,3-15.42,4.64a17.39,17.39,0,0,0-3,1.22h0c-1.23.58-1.22-.4-.12-1.94a38.79,38.79,0,0,1,6.64-7.54,8.48,8.48,0,0,1,3.93-1.86c4.67-.7,7-2.4,7.61-3.56a.85.85,0,0,0,.09-.22A27.7,27.7,0,0,1,749.4,452.53Z" fill="#e0e0e0"/><path d="M747.74,450.12c.13,1.71.12,2-1.29,2.56a58.3,58.3,0,0,1-8.33,2.18c-3,.52-2.46-.42-2.49-1s5-3.47,6.25-4.05S747.74,450.12,747.74,450.12Z" fill="#3aafa9"/><path d="M734,457.17a17.39,17.39,0,0,0-3,1.22h0c-5.21,2.6-11.11,7.51-20.92,8.44a48.87,48.87,0,0,1-5.67.23l-2-.09c-3.45-.11-6.39-.82-8.56-3-1-1,.43-5.73-.61-6.29a16.58,16.58,0,0,1-7.57-2s-1.48,5.71.35,8.1c3.45,4,15.28,5.86,24.63,4.77,9.88-1.15,15.35-5.55,19.6-8,4.75-2.65,9.4-2.37,13.66-3.55a12.45,12.45,0,0,0,5.73-2.84l-.11-1.73C746.49,455.59,739.82,455.53,734,457.17Z" fill="#17252a"/><path d="M727.22,438.92a90.82,90.82,0,0,1,9.06-6.93l-1.85-1.14a7.38,7.38,0,0,0-3.95-.94c-1.63.39-2.21,2.45-3.56,4-3.18,4.25-16.16,12.28-19.47,13.7s-7.84-1.85-7.84-1.85h-.09l-.59.34c-1,.58-3,1.48-4.87,2.56h0a12.86,12.86,0,0,0,12.82,3.2C714.78,449.63,723.06,442.57,727.22,438.92Z" fill="#3aafa9"/><path d="M702.61,444c2.88-1.71,8.61-1.6,12.51,1.62L713,446.93a10.08,10.08,0,0,0-6.87-1.48,81,81,0,0,0-8.22,1.22Z" fill="#37474f"/><path d="M707.4,440.86c2.9-1.7,10.39-1.7,13.17.37l-1.93,1.83a13.82,13.82,0,0,0-7.24-1,66,66,0,0,0-7.42,1.07Z" fill="#37474f"/><path d="M711.19,437.47c2.89-1.71,10.95-2.26,14.25,0l-2,1.84s-1.39-1-6.1-1a26.65,26.65,0,0,0-8.62,1.48Z" fill="#37474f"/><path d="M715.06,432.91c2.88-1.71,11.55-3,15.47.19-.23.94-1.37,1.56-2.5,1.87,0,0-1.38-1-6.08-1a29.4,29.4,0,0,0-9.1,1.63Z" fill="#37474f"/><path d="M697.94,446.7a24.42,24.42,0,0,1,9.35,3.68,3.18,3.18,0,0,0,1.94-1.21,11.39,11.39,0,0,0-8.53-4A3,3,0,0,0,697.94,446.7Z" fill="#17252a"/><path d="M702.61,444a7.94,7.94,0,0,1,5.12,6.1,3.59,3.59,0,0,0,2.09-1.26s-1.48-4.57-4.91-6.25A3.15,3.15,0,0,0,702.61,444Z" fill="#17252a"/><path d="M707.4,440.86s4.86,1.76,5.63,6.07a3.66,3.66,0,0,0,2.09-1.27,8.7,8.7,0,0,0-5.56-6.62A2.74,2.74,0,0,0,707.4,440.86Z" fill="#17252a"/><path d="M712,436.59a10.86,10.86,0,0,1,6.64,6.47s1.6-.62,1.93-1.83a11.77,11.77,0,0,0-6.62-6.79A2.51,2.51,0,0,0,712,436.59Z" fill="#17252a"/><path d="M716.12,431.77s5.93,2.62,7.42,7.42c0,0,1.58-.63,1.92-1.81,0,0-2.79-6.44-7.67-8.12A2.81,2.81,0,0,0,716.12,431.77Z" fill="#17252a"/><path d="M790.94,216.64c2,35.44,1.83,49.69,3.19,115a104.85,104.85,0,0,1,5.61,33.63c-.07,18.72,0,40.68,0,40.68s-13.89,9.22-25.5,2.82c0,0-10-43.41-14-66.11-3.56-19.95-7.42-49.15-7.42-49.15l-3.46,41.7a122,122,0,0,1,.14,30.43c-1.89,16.6-4.46,36.56-4.46,36.56s-12.12,7.89-25.22,1.32c0,0-3.15-61-3.57-70.7-.46-11.07,0-123.5,0-123.5Z" fill="#17252a"/><path d="M769.44,390.76A43.49,43.49,0,0,0,785,392a30.88,30.88,0,0,0,15.48-5.29l-.22,19.67A30.08,30.08,0,0,1,773.78,409Z" fill="#110f24"/><path d="M747.7,383.94a41,41,0,0,1-15.94,3.51c-9.59.29-13.48-3.51-13.48-3.51l1.25,19.66s3.58,2.86,12,2.8a31.18,31.18,0,0,0,14-3.22Z" fill="#110f24"/><path d="M716.12,328.52s16-1.48,25.09,3.13c0,0-17.17,3-25,1.12C716.16,331.92,716.13,330.47,716.12,328.52Z" fill="#fff"/><path d="M739.06,334.52s-12.17,5.09-20.41,2.61c0,0,2.47,3.28,10.21,2.29S739.06,334.52,739.06,334.52Z" fill="#fff"/><path d="M790.09,334.22c-6.15-1.48-18.59-3.8-28.52,3.21a76.46,76.46,0,0,1,13.71-1.84C783.91,335.11,790.09,334.22,790.09,334.22Z" fill="#fff"/><path d="M786.21,337.34c-5.84,2.88-22.74,1.39-22.74,1.39a21.6,21.6,0,0,0,11.16,2.33A22.08,22.08,0,0,0,786.21,337.34Z" fill="#fff"/><path d="M752.74,293.46l-7.58-38.59s-14.62-.93-22.86-8.9c0,0,.42,9.05,18.87,13.35l7.34,35,.77,40.75Z" fill="#110f24"/><path d="M705.46,258.4a2.12,2.12,0,0,1,.88,1.93,6.61,6.61,0,0,1-3,5.17,2.11,2.11,0,0,1-2.11.2l-16.68-9.61a2.12,2.12,0,0,1-.88-1.93,6.57,6.57,0,0,1,3-5.15,2.08,2.08,0,0,1,2.11-.21Z" fill="#455a64"/><path d="M703.35,265.5a1.83,1.83,0,0,1-3-1.73,6.58,6.58,0,0,1,3-5.14,1.81,1.81,0,0,1,3,1.7A6.58,6.58,0,0,1,703.35,265.5Z" fill="#e0e0e0"/><path d="M718.33,218.36l-13.08,31.52-20-9.73L698.08,209C699.73,204.81,722.35,211,718.33,218.36Z" fill="#17252a"/><path d="M681.51,457.74a2,2,0,0,0-1.06-1.68,6.16,6.16,0,0,0-5.56-.31,2,2,0,0,0-1.25,1.48c0,.51-.13,2.53-.16,3a2,2,0,0,0,1,1.68,6.22,6.22,0,0,0,5.57.31,2,2,0,0,0,1.24-1.48A20,20,0,0,1,681.51,457.74Z" fill="#455a64"/><path d="M674.81,455.75a2,2,0,0,0-1.24,1.48,2,2,0,0,0,1.07,1.66,6.14,6.14,0,0,0,5.55.33,1.93,1.93,0,0,0,1.24-1.48,2,2,0,0,0-1-1.68A6.18,6.18,0,0,0,674.81,455.75Z" fill="#37474f"/><path d="M690.06,305.48A2,2,0,0,0,689,303.8a6.16,6.16,0,0,0-5.56-.31,2,2,0,0,0-1.25,1.48c0,.52-8.59,151.73-8.61,152.25a1.93,1.93,0,0,0,1.06,1.66,6.13,6.13,0,0,0,5.56.31,1.92,1.92,0,0,0,1.23-1.48Z" fill="#e0e0e0"/><path d="M690.06,305.48A2,2,0,0,0,689,303.8a6.16,6.16,0,0,0-5.56-.31,2,2,0,0,0-1.25,1.48c0,.52-8.59,151.73-8.61,152.25a1.93,1.93,0,0,0,1.06,1.66,6.13,6.13,0,0,0,5.56.31,1.92,1.92,0,0,0,1.23-1.48Z" opacity="0.2" style="isolation:isolate"/><path d="M683.44,303.49a1.7,1.7,0,0,0-.18,3.22,6.17,6.17,0,0,0,5.55.31,2,2,0,0,0,1.25-1.48,2,2,0,0,0-1.06-1.68A6.17,6.17,0,0,0,683.44,303.49Z" fill="#e0e0e0"/><path d="M692.43,263.61a2,2,0,0,0-1.07-1.66,6.14,6.14,0,0,0-5.55-.33,2,2,0,0,0-1.24,1.49c0,.52-2.35,41.36-2.38,41.86a2,2,0,0,0,1.07,1.68,6.19,6.19,0,0,0,5.56.31,2,2,0,0,0,1.24-1.48C690.09,305,692.4,264.13,692.43,263.61Z" fill="#455a64"/><path d="M685.81,261.65a1.71,1.71,0,0,0-1.17,2.11,1.69,1.69,0,0,0,1,1.11,6.14,6.14,0,0,0,5.55.31,1.69,1.69,0,0,0,.18-3.2A6.14,6.14,0,0,0,685.81,261.65Z" fill="#37474f"/><path d="M734.29,126.49c-8.22-.49-17.58,1.48-21.45,11.87s-7,34.43-7.5,40.07-1.72,15.88-1.72,15.88S690.26,234.09,689,236.59s-5.54,4.32-12,9.41c-2.24,1.76-4.23,3.47-1.92,9.73.76,2.08,1.2,4.28,1.92,6.37s1.48,4.61,3.93,4.91a10.24,10.24,0,0,1,1.75.13,3.67,3.67,0,0,1,1.14.72,4.68,4.68,0,0,0,3.76,1.29,10.87,10.87,0,0,1,1.1-.36,4.81,4.81,0,0,1,3.25.95,3.58,3.58,0,0,0,3.47.49,8.47,8.47,0,0,0,2.15-1.85,26.26,26.26,0,0,0,2.55-3.31l-4.54-2.62a6.39,6.39,0,0,1,.18-4.86,10.21,10.21,0,0,1,2.74-3.18l5.21,3a16.84,16.84,0,0,0,1.41-5.63c.46-3.78-1.39-5.4,1.49-11.27s16.19-30.49,18.47-34.26c3.12-5.1,3.58-8.43,4.34-13.63,1.24-8.58,6.65-41.56,6.65-41.56Z" fill="#fff"/><path d="M698,209c7.93-2.16,19.72,3.52,20.3,9.35l5.28-9.58c-.92-5.73-13.43-11.88-21.87-8.91Z" fill="#17252a"/><path d="M736.52,126.12c-11.25-1.49-17.91.56-23.39,9-3.92,6.06-6.71,28.2-9.51,45.28A35.15,35.15,0,0,0,725,183.58C731.62,163,736.52,126.12,736.52,126.12Z" fill="#3aafa9"/><path d="M763.13,125.12c7.08.6,18.45,1.49,24,2.49,2.55,7.89,3.64,23.75,3.67,29.6.07,12.83.17,41.92.17,41.92,0,17.32,1.34,25.67,1.28,33.21-9.6,9.83-53.11,16.1-76.75.86,0,0,.41-10.31.46-19.07.07-16.32.65-39.4,2.8-59.25C721,134.22,732,126.5,735.66,126.16Z" fill="#f0f0f0"/><path d="M775.91,126.29v-.1c-4.9-.5-9.69-.85-12.78-1.1L744,125.8c-3.18,5.58-3.88,11.19,2.87,13.36C754.11,141.61,770.3,140.44,775.91,126.29Z" fill="#3aafa9"/><path d="M819.08,277.56a2.12,2.12,0,0,1,1.1,1.81,6.58,6.58,0,0,1-2.38,5.46,2.06,2.06,0,0,1-2.08.45l-17.66-7.64a2.11,2.11,0,0,1-1.08-1.83,6.54,6.54,0,0,1,2.37-5.46,2.12,2.12,0,0,1,2.07-.45Z" fill="#455a64"/><path d="M817.8,284.83a1.82,1.82,0,0,1-3.16-1.36A6.54,6.54,0,0,1,817,278a1.83,1.83,0,0,1,3.17,1.36A6.58,6.58,0,0,1,817.8,284.83Z" fill="#e0e0e0"/><path d="M818.54,489.9a2,2,0,0,0-1.23-1.49,6.16,6.16,0,0,0-5.56.33,2,2,0,0,0-1.07,1.68l.18,3a2,2,0,0,0,1.24,1.49,6.18,6.18,0,0,0,5.57-.31,2,2,0,0,0,1.05-1.68Z" fill="#455a64"/><path d="M811.75,488.71a1.69,1.69,0,0,0,.17,3.2,6.18,6.18,0,0,0,5.57-.31,1.7,1.7,0,0,0,.93-2.22,1.73,1.73,0,0,0-1.11-1A6.16,6.16,0,0,0,811.75,488.71Z" fill="#37474f"/><path d="M809.82,337.65a2,2,0,0,0-1.25-1.48,6.13,6.13,0,0,0-5.56.32,2,2,0,0,0-1.06,1.66l8.74,152.24a1.94,1.94,0,0,0,1.23,1.48,6.22,6.22,0,0,0,5.57-.31,2,2,0,0,0,1-1.68Z" fill="#e0e0e0"/><path d="M809.82,337.65a2,2,0,0,0-1.25-1.48,6.13,6.13,0,0,0-5.56.32,2,2,0,0,0-1.06,1.66l8.74,152.24a1.94,1.94,0,0,0,1.23,1.48,6.22,6.22,0,0,0,5.57-.31,2,2,0,0,0,1-1.68Z" opacity="0.2" style="isolation:isolate"/><path d="M803,336.43a1.69,1.69,0,0,0,.19,3.21,6.11,6.11,0,0,0,5.55-.33,1.64,1.64,0,0,0-.18-3.14A6.13,6.13,0,0,0,803,336.43Z" fill="#e0e0e0"/><path d="M806.73,284.21a1.93,1.93,0,0,0-1.25-1.48,6.13,6.13,0,0,0-5.56.32,1.92,1.92,0,0,0-1,1.66L802,338.14a1.93,1.93,0,0,0,1.25,1.48,6.13,6.13,0,0,0,5.56-.32,1.94,1.94,0,0,0,1.06-1.67Z" fill="#455a64"/><path d="M799.92,283a1.94,1.94,0,0,0-1,1.67,1.91,1.91,0,0,0,1.24,1.48,6.12,6.12,0,0,0,5.57-.33,1.69,1.69,0,0,0-.2-3.2A6.14,6.14,0,0,0,799.92,283Z" fill="#37474f"/><path d="M816.55,226.42l.42,40.23-21.71-4.6-1.62-34.93C793,221.48,816.69,218.36,816.55,226.42Z" fill="#17252a"/><path d="M797,257.2c.18,2.79-1.72,5.43-7.52,11.2-2,2-3.82,3.94-.8,9.9,1,2,1.69,4.1,2.62,6.1s2,4.45,4.45,4.45a10.34,10.34,0,0,1,1.76,0,4,4,0,0,1,1.21.6,4.61,4.61,0,0,0,3.88.84c.37-.13.69-.35,1.06-.49a4.9,4.9,0,0,1,3.33.58,3.55,3.55,0,0,0,3.5.11,8.22,8.22,0,0,0,1.93-2.1,25.94,25.94,0,0,0,2.17-3.57l-4.81-2.08c-.92-.4,0-3.56.35-4.2a7,7,0,0,1,4.46-2.88,6.47,6.47,0,0,0,2.7-5.39,17.7,17.7,0,0,0-1.16-6.15c-1.13-3.33-.56-17.56-.34-26.86s.78-24,.67-27.95-.67-13.09-1.78-21.95-4.26-44.9-10.88-52.31a19.75,19.75,0,0,0-15.48-6.53c-2,2.57-6.95,17.33-5.54,26.37s8.91,51.65,8.91,51.65S796.7,253.42,797,257.2Z" fill="#fff"/><path d="M793.58,227.12c6.15-5.48,19.8-5.67,22.92-.7l.19-10.94c-3.39-4.7-17.81-4-24.09,2.33Z" fill="#17252a"/><path d="M811.76,156.78c-2.28-15.75-4.12-17.71-7.27-22.64s-10.08-6.87-17.32-6.55c-8,11.87-4.61,32.38-4.61,32.38l5.26,30.6c8,2.68,27.61-1.17,27.46-6.19C815.28,184.38,814,171.94,811.76,156.78Z" fill="#3aafa9"/><path d="M749.06,87.68l34.13-1.57c6.44,5.16,18.39,16,18.29,18.89h0v2h0a.9.9,0,0,1-.08.23c-1.27,2.27-5.65,3.55-12.42,3.49-8-.09-20.43-1.17-23.62-4.06C760.55,102.31,749,89.59,749,89.59h1.72Z" fill="#3aafa9"/><path d="M783.1,88c6.74,5.4,19.49,17,18.23,19.29s-5.66,3.55-12.42,3.49c-8-.09-20.44-1.17-23.63-4.07C760.47,102.37,749,89.65,749,89.65Z" fill="#3aafa9"/><path d="M783.13,88c6.73,5.4,19.49,17,18.21,19.29s-5.64,3.55-12.4,3.49c-8-.09-20.45-1.17-23.64-4.07C760.49,102.37,749,89.65,749,89.65Z" opacity="0.3" style="isolation:isolate"/><path d="M783.1,88c.09,1-3.44,3-3.44,3l1.13-5.94A3.5,3.5,0,0,1,783.1,88Z" fill="#263238"/><path d="M781.84,72.84c-1.84-4-7.14-4.94-7.14-4.94s-1.48-3-6.75-6.26-13-4.12-21.8-4.46c-10.21-.32-18.07,7.07-19.66,16.86A15.81,15.81,0,0,0,725.35,79c-.35,11.22,8.34,18.47,19.56,18.83a20.31,20.31,0,0,0,18.1-10,101.27,101.27,0,0,1,7.91,7.73l-.61,7.57,1.14,9.6a49.65,49.65,0,0,1,2.75-6.47,62.92,62.92,0,0,0,5.94-12.48C783.15,85,783.45,76.37,781.84,72.84Z" fill="#17252a"/><path d="M770.67,94.43c1.78,1.63,3.38-2.43,5-4s6.66-3.59,9,1.75-2.54,12.85-6.44,14.23a5,5,0,0,1-6.21-2.28l.17,23.42c-6.07,10.25-17.38,10.38-22.81,9.69s-6.47-6.43-2.36-10.9l-.14-7.42a39.06,39.06,0,0,1-8.78.2c-5-.94-7.42-4.77-8.82-10.23-2.16-8.75-2.73-23.37,1.07-40.16,5.72-4.17,25.08-3.9,36.6,3.86C767.4,89.39,768.87,92.78,770.67,94.43Z" fill="#fff"/><path d="M746.81,118.9s11.6-1.9,15.56-3.85a12.89,12.89,0,0,0,5.55-5.17,17.5,17.5,0,0,1-3.26,6.2c-3,3.55-17.81,5.67-17.81,5.67Z" fill="#def2f1"/><path d="M755.71,51.68c-14.07-1.86-23.06,3.87-27.75,15.15a21.94,21.94,0,0,0-1.49,7.29c8.6-6.07,27.24-4.35,39,.87a51.35,51.35,0,0,1,15.63,10.78,10.42,10.42,0,0,1,2,2.43,29.51,29.51,0,0,0,1.69-8.42C785.69,63.43,772.29,53.89,755.71,51.68Z" fill="#3aafa9"/><path d="M731.27,67.24a35.14,35.14,0,0,1,19.51-1.12c.86-4.63,1.49-9.44-8.62-8.7C734,58,731.27,67.24,731.27,67.24Z" fill="#17252a"/><path d="M663.31,413.9c-2.22,6.05-2.86,10.21-13.72,19.65a87.13,87.13,0,0,1-10.39,8.28c-5.86,4.21-14,2.14-14.49-2,0-.39-.23-1.93-.31-2.5-.25-1.48.54-3.31,2.79-5.15l2.51-2.05c12.53-9.89,17.35-11.39,20.52-21.8A131.06,131.06,0,0,0,654.51,389c2.27-13.35,2.67-26.84.4-31.4h0C653,359,647.49,363,645,365.13c-5.4,4.46-14.2,4.57-14.65,1.28l-.17-1.48a2.41,2.41,0,0,1,.25-1.35c1.84-3.86,7.19-7,10.85-9.18,2-1.2,8.9-6,13-6.39,3-.25,10.62,2.24,12.63,4.3a12.79,12.79,0,0,1,1.85,2.17C673.48,361.65,669.78,396.31,663.31,413.9Z" opacity="0.2" style="isolation:isolate"/><path d="M661.9,411.21c-2.15,6-2.25,10.17-12.46,19.41a72.68,72.68,0,0,1-10.61,8.64c-5.24,3.76-12.26,2.49-14.06-.79a3.06,3.06,0,0,1-.41-1.14c-.25-1.48.53-3.31,2.79-5.15l2.51-2.05c12.52-9.89,17.34-11.39,20.52-21.8A132.35,132.35,0,0,0,654.47,389c2.27-13.35,2.67-26.84.4-31.4h0a32.93,32.93,0,0,1,8.18-4.13,3.74,3.74,0,0,1,3.26.76h0C672.2,359.18,668.06,393.82,661.9,411.21Z" fill="#17252a"/><path d="M630.4,363.52c-2.15,4.52,7.82,4.91,14.13.23,3.91-2.89,8.9-7.42,13.19-9.7s7.57-3,9.16-1.8c-2-2.05-9.62-4.57-12.66-4.32-4,.35-11,5.2-13,6.39C637.6,356.51,632.24,359.6,630.4,363.52Z" fill="#17252a"/><path d="M640.73,346.39a2.08,2.08,0,0,0-1.41-1.48,6.5,6.5,0,0,0-5.84.68,2,2,0,0,0-1,1.82c0,.54,1.61,13.92,1.67,14.46a2.07,2.07,0,0,0,1.49,1.48,6.49,6.49,0,0,0,5.83-.68,2.06,2.06,0,0,0,1-1.82C642.34,360.31,640.79,346.92,640.73,346.39Z" fill="#f0f0f0"/><path d="M633.48,345.53a1.8,1.8,0,0,0,.39,3.37,6.51,6.51,0,0,0,5.83-.68,1.74,1.74,0,0,0-.38-3.31A6.53,6.53,0,0,0,633.48,345.53Z" fill="#e0e0e0"/><path d="M643.22,340.69a3.57,3.57,0,0,0-2.46-2.71,11.36,11.36,0,0,0-10.26,1.2,3.62,3.62,0,0,0-1.78,3.2c.1.94.58,5,.7,5.94a3.59,3.59,0,0,0,2.46,2.7,11.42,11.42,0,0,0,10.26-1.19,3.66,3.66,0,0,0,1.78-3.2C643.8,345.66,643.34,341.63,643.22,340.69Z" fill="#455a64"/><path d="M630.5,339.18a3.14,3.14,0,0,0,.68,5.93,11.45,11.45,0,0,0,10.26-1.2,3.14,3.14,0,0,0-.68-5.93A11.36,11.36,0,0,0,630.5,339.18Z" fill="#37474f"/><path d="M649.16,333.75c-.08,7.57-4.75,11.87-12.28,12.79S623.53,344.42,622,337c-2-9.83,4.46-14.34,12-15.23S649.25,324.28,649.16,333.75Z" fill="#263238"/><path d="M605,400.63c-2.82,5.82-3.88,9.89-15.62,18.2a87.12,87.12,0,0,1-11.19,7.22c-6.26,3.59-14.09.73-14.21-3.44,0-.39,0-1.94-.08-2.52-.09-1.49.86-3.22,3.28-4.84l2.72-1.78c13.43-8.61,18.39-9.63,22.57-19.66A132.29,132.29,0,0,0,598.68,375c3.6-13.08,5.33-26.45,3.52-31.17h0c-2,1.16-7.85,4.65-10.58,6.47-5.82,3.86-14.59,3.15-14.69-.16v-1.48a2.35,2.35,0,0,1,.4-1.31c2.2-3.67,7.85-6.25,11.69-8.06,2.11-1,9.52-5.15,13.55-5.07,3,0,10.39,3.28,12.13,5.52a12.3,12.3,0,0,1,1.64,2.34C620.31,349.64,613.24,383.79,605,400.63Z" opacity="0.2" style="isolation:isolate"/><path d="M603.89,397.83c-2.73,5.77-3.25,9.9-14.32,18.09a74.68,74.68,0,0,1-11.42,7.54c-5.58,3.22-12.44,1.26-13.91-2.17a3.59,3.59,0,0,1-.3-1.2c-.09-1.49.86-3.22,3.28-4.84l2.72-1.78c13.43-8.61,18.39-9.63,22.57-19.66A132.29,132.29,0,0,0,598.68,375c3.6-13.08,5.33-26.45,3.52-31.17h0a32.82,32.82,0,0,1,8.53-3.31,3.72,3.72,0,0,1,3.18,1.09h0C619.3,347.07,611.76,381.13,603.89,397.83Z" fill="#17252a"/><path d="M577.27,347.24c-2.6,4.3,7.29,5.68,14,1.64,4.19-2.49,9.65-6.44,14.09-8.35s7.85-2.27,9.29-.89c-1.74-2.23-9.1-5.49-12.16-5.54-4-.07-11.44,4.07-13.55,5.06C585.05,341,579.48,343.57,577.27,347.24Z" fill="#17252a"/><path d="M589.23,331.22a2.07,2.07,0,0,0-1.25-1.67,6.5,6.5,0,0,0-5.93.1,2.09,2.09,0,0,0-1.19,1.72c0,.54.24,14,.25,14.55a2.06,2.06,0,0,0,1.25,1.67,6.44,6.44,0,0,0,5.86-.1,2,2,0,0,0,1.19-1.71C589.5,345.23,589.23,331.77,589.23,331.22Z" fill="#f0f0f0"/><path d="M582.08,329.65a1.8,1.8,0,0,0,0,3.4A6.53,6.53,0,0,0,588,333a1.8,1.8,0,0,0,1.12-2.28,1.78,1.78,0,0,0-1.12-1.12A6.5,6.5,0,0,0,582.08,329.65Z" fill="#e0e0e0"/><path d="M592.29,325.79a3.69,3.69,0,0,0-2.2-3,11.39,11.39,0,0,0-10.31.18,3.62,3.62,0,0,0-2.09,3c0,.95.08,5,.1,5.94a3.6,3.6,0,0,0,2.18,3,11.4,11.4,0,0,0,10.39-.17,3.6,3.6,0,0,0,2.08-3C592.36,330.81,592.3,326.74,592.29,325.79Z" fill="#455a64"/><path d="M579.78,323a3.15,3.15,0,0,0,.09,5.94,11.44,11.44,0,0,0,10.38-.18,3.15,3.15,0,0,0-.1-5.94A11.39,11.39,0,0,0,579.78,323Z" fill="#37474f"/><path d="M598.88,319.53c-.83,7.52-5.94,11.35-13.48,11.5s-13.15-3.44-13.92-11c-1-10,5.86-13.81,13.43-14S599.89,310.06,598.88,319.53Z" fill="#263238"/><path d="M643.23,299.06s5-32.64,6.48-81.35c.87-28.2-9.62-40.07-16.42-51.55l-56.32,2c-5,27.35-11.42,89.29-11.23,117.24,0,5.93,2.52,20.55,3.66,29.23s29.28,9.84,31.17.89-1.63-28.19-1.63-28.19l7-35.06s1.79,28,4.82,50.06c1.07,7.7,4.93,20.33,9.35,31.71,3,7.65,29.56,5.26,29.56-3.54C649.71,310.42,643.53,303,643.23,299.06Z" fill="#17252a"/><path d="M606,252.41l-4.21-34.25s-11.73-.91-19.4-8.91c0,0,2.45,9.32,15.26,12.76l5.74,29.68-4.45,35.49Z" fill="#110f24"/><path d="M592.56,100.28c-17.12,1.32-20.17,7.42-32.16,20.78-5.94,6.55-11.43,13-15.14,17.55-4-3.55-7.82-2.76-9-2.12-2,1-9.82,7.3,1.41,18.89,8,8.27,14.6,3,20-1.07,10.87-8.17,29.13-28.58,29.13-28.58Z" fill="#fff"/><path d="M544,139.53c-1.84-.65-4.45.76-4.37,2.29,0,0-2-1.81-1.48-3.73S541.53,136,544,139.53Z" fill="#fff"/><path d="M540.3,131.34c-1.72-2.26-2.64-3.32-4.23-5.68-3-4.46-5.81-8.91-8.56-13.36-1.07-1.77-2.14-3.53-3.12-5.34-.3-.6-.6-1.19-.89-1.78-1.08-2.29.15-4.68.89-6.86a13.57,13.57,0,0,0,.32-8.61c-.33-1.08-.82-2.13-1.09-3.25a21.7,21.7,0,0,1-.35-2.79,1.11,1.11,0,0,0-.18-.61.75.75,0,0,0-.7-.28,1.55,1.55,0,0,0-.71.33,4.29,4.29,0,0,0-1.49,2.61,9.16,9.16,0,0,0-.17,1.74c0,.72.11,1.48.16,2.15a4.8,4.8,0,0,1-.3,2.12c-.28.65-1.24,1.84-2,1.29a2.13,2.13,0,0,1-.46-.44,10,10,0,0,1-.74-9.78c1-1.92,2.67-3.4,3.82-5.24.28-.46.53-1.1.19-1.49a1.35,1.35,0,0,0-1-.35,7.46,7.46,0,0,0-4.46,1.48,4.72,4.72,0,0,1-1.48.88,6.21,6.21,0,0,1-1.29.07A4.21,4.21,0,0,0,510,79c-.65.54-1.12,1.25-1.75,1.83a23.67,23.67,0,0,1-2.12,1.48,12.75,12.75,0,0,0-3,3.37,7,7,0,0,0-1.1,3.67c-.25,2.8.89,5.83,1.67,8.51a69.41,69.41,0,0,0,3.72,8.75c1.19,2.56,4,6.42,5.76,9.94,2.77,5.37,9.38,20.12,13.53,27.88s7.34,10.17,12,14c4.91,4,9.33-5.37,5.31-10.57a51.12,51.12,0,0,1-5.43-7.86c-.59-1.7,1.25-3.36,3.34-2.08a16.15,16.15,0,0,1,2.39,2l1.28-1.57S544.61,137,540.3,131.34Z" fill="#def2f1"/><path d="M528.74,147.89a39.62,39.62,0,0,0,9.94,10.39c4.92,4,9.34-5.38,5.32-10.57-2.84-3.67-4.16-5.34-4.45-6.41a2.16,2.16,0,0,1,3.1-2.7,5.49,5.49,0,0,1,1.72,1.14l1.27-1.57L543.21,135h0C539.12,135.2,532.23,137.71,528.74,147.89Z" fill="#455a64"/><path d="M537.16,140.56a1.25,1.25,0,0,1-1.25,1.24,1.26,1.26,0,1,1,1.25-1.27Z" fill="#37474f"/><path d="M543.2,153.63c.29-2.09,0-3.49-2.81-6.54s-3.41-4.9-5-3.82-3,4.45-.15,8.62S542.34,159.7,543.2,153.63Z" fill="#fff"/><path d="M599.34,99.42a96.88,96.88,0,0,1,21.26-.34,84.65,84.65,0,0,1,15.67,4c3.57,1.49,3.25,11.06,1.37,22.44S632,161,632,161c1.49,6.44,12.07,18.25,14.84,31.24,0,0-12.66,12.32-41.92,12.32-23.93,0-32-9.6-32-9.6,1.41-11.88,3-18.32,4-30.44,0,0-2.21-13-2.79-20.91a18.63,18.63,0,0,1-4-8.57c-1.25-7.42,2.17-13.35,9.69-21.6s12.79-13.18,12.79-13.18S594.23,100,599.34,99.42Z" fill="#3aafa9"/><path d="M620.08,141.28a16.31,16.31,0,0,1-15.74,8.21,17.26,17.26,0,0,1-14.41-9.57s.12,12,14.32,12.45S620.08,141.28,620.08,141.28Z" opacity="0.2" style="isolation:isolate"/><path d="M587.6,38.9c-6.13-2.15-13.58,3.19-12.72,13.52.45,5.24,4.79,16.32-.86,16.32,0,0,1.84,3.57,7.76,1.49S620,89.83,620,89.83s6.26-9.48,10-15c4.45-6.39,10.39-18.71,1.33-25.11,0,0,.67-10.79-8.07-16.69S594.93,26.69,587.6,38.9Z" fill="#17252a"/><path d="M585.62,46.69s-5.56,5.94-5.09,24.31c.32,11.87,4.06,17.56,9.67,20.08a19.33,19.33,0,0,0,9.14,1v7.32s-13.36,11.71-2.72,13.74a23.5,23.5,0,0,0,16.73-4c4.88-3.38,7.25-10.07,7.25-10.07V81s4.46,3.43,8,.19c4.54-4.11,5.34-10.17,2-12.79-5-3.86-8.76-.11-10.08,2.27s-5,1.62-3.89-4,1.74-14.84-5.18-19.07C605.82,44.18,593.55,58,585.62,46.69Z" fill="#fff"/><path d="M599.34,92.1a35.77,35.77,0,0,0,13.19-3.89,14.22,14.22,0,0,0,4.76-5.58s-.92,5.61-4.2,7.88C607.9,94.11,599.34,95,599.34,95Z" fill="#def2f1"/><path d="M638.23,158.85s.36,7.42,3.43,9.5,9.2,2.12,11.77-2.18,1.83-11.87,1.83-11.87Z" fill="#fff"/><path d="M634,102.33c6.9,1.93,11.87,3.81,13.87,11.87s7,30.42,8.33,44.24c1.11,11.34-14.38,11.71-18,.4-2-6.07-6.88-25.85-8.31-31C627.34,118.55,628.87,106.47,634,102.33Z" fill="#fff"/><path d="M638.55,170.77c-.12,2.84-.39,5.67-.67,8.5-.54,5.26-1.15,10.53-1.9,15.76-.3,2-.6,4.09-1,6.1-.13.66-.28,1.31-.44,2-.61,2.45-3.09,3.5-5,4.73a13.53,13.53,0,0,0-5.71,6.43c-.45,1-.74,2.16-1.25,3.19a17.9,17.9,0,0,1-1.48,2.39,1.24,1.24,0,0,0-.27.58.77.77,0,0,0,.37.66,1.45,1.45,0,0,0,.76.21,4.31,4.31,0,0,0,2.8-1.08A10.29,10.29,0,0,0,626,219c.44-.57.81-1.19,1.24-1.77a4.86,4.86,0,0,1,1.58-1.48c.63-.34,2.12-.64,2.4.29a1.86,1.86,0,0,1,.07.66,8.25,8.25,0,0,1-.83,3.08,8.55,8.55,0,0,1-4.81,4.93c-2,.83-4.22.92-6.27,1.6-.54.18-1.13.51-1.13,1.06a1.31,1.31,0,0,0,.58.95,7.45,7.45,0,0,0,4.33,1.69,4.37,4.37,0,0,1,1.68.24,5.49,5.49,0,0,1,1,.77,4.24,4.24,0,0,0,2.43.83c.83,0,1.66-.24,2.51-.28a24.87,24.87,0,0,1,2.58.19,12.68,12.68,0,0,0,4.45-.65,6.93,6.93,0,0,0,3.18-2.14c2-2,3-5.06,4.15-7.63a72.69,72.69,0,0,0,2.68-9.12c.72-2.74,1.05-7.43,1.88-11.33,1.28-5.93,5.57-21.49,7.29-30.12s.81-12.51-.36-18.41c-1.22-6.21-10.62-1.78-10.82,4.78-.13,4.63-.47,8.91-1.19,9.8-1.6,2-4.11-3.83-4.11-3.83a13,13,0,0,1-2.39-4.54A73.59,73.59,0,0,1,638.55,170.77Z" fill="#def2f1"/><path d="M657.62,167.15c.83-6.23,0-9.78-1-14.84-1.22-6.22-10.63-1.78-10.82,4.78-.13,4.63-.47,8.9-1.19,9.79-1.6,2-4.11-3.83-4.11-3.83a12.94,12.94,0,0,1-2.39-4.54,68.45,68.45,0,0,1,.48,7.7h0c.85,2.44,3.68,4.46,8.81,4.92A12.46,12.46,0,0,0,657.62,167.15Z" fill="#455a64"/><path d="M650.43,153c-1.63,1.34-2.37,2.55-2.37,6.71s-.82,5.94,1.11,6.23,5.2-1.29,5.94-6.23S655.18,149.09,650.43,153Z" fill="#fff"/><path d="M648.19,168.16a1.26,1.26,0,1,1-1.26-1.26h0A1.26,1.26,0,0,1,648.19,168.16Z" fill="#37474f"/><path d="M356.39,386.61c4.45,2.37,12.14,2.25,17.52-.61l5.75-49.4-23.75-1.31Z" fill="#c8856a"/><path d="M353.54,382.69a13.71,13.71,0,0,0-1.19,7.14c.19,2.14,1.59,4.85,1.19,9.7s-1.49,6.41-1.84,9.84-.17,8,1.94,11.19,5.82,6.25,14.52,5.66c9.77-.66,11.44-5.94,11.44-10.05Z" fill="#263238"/><path d="M355.66,376a1.77,1.77,0,0,0-1,.7c-.7.93-.46,2.36-.69,3.47-.09.42-.16.85-.23,1.28-.57,3.25.25,6.56.32,9.87a55.05,55.05,0,0,1-1.62,11.56c-1.32,6.9-1.29,11.2,4.86,15.71a17.34,17.34,0,0,0,10.85,3.31c3,0,7.55-1.48,9.06-3.07a10.64,10.64,0,0,0,2.79-5.07c0-7.28-3.13-15.38-3.93-22.61-.4-3.6-.53-7.54-.73-11.17a1.32,1.32,0,0,0-.21-.77,1.2,1.2,0,0,0-.6-.36c-4.8-1.63-10.85-.74-15.78.24-.41.09-.89.22-1.05.62a1,1,0,0,0,0,.54,15.54,15.54,0,0,1-.27,2.89c0,.24-.16.52-.4.52s-.62-2-.65-2.27v-5.46A2,2,0,0,0,355.66,376Z" fill="#37474f"/><path d="M380,413.77a8.18,8.18,0,0,0-.74-4.14c-3.37-6.64-22.45-5.44-27.51,1.48.16,4.2.66,6.54,4.26,9.47,3,2.39,9,3,12.76,2.67a14.31,14.31,0,0,0,8.31-3.46A7.64,7.64,0,0,0,380,413.77Z" fill="#455a64"/><path d="M404.88,378.53c3.74,8.09,13.08,6.15,20.68,1l2.55-53.76-26,5.84Z" fill="#c8856a"/><path d="M458.24,399.15a5.68,5.68,0,0,1-.24,4.21c-.58,1.23-7,4.86-15.69,4.28a36.06,36.06,0,0,1-17.95-6.28c-3.31-2.18-9.31-3.06-13.61-3.31s-9.95-2.39-10.88-4.45.15-5.48.15-5.48Z" fill="#263238"/><path d="M428.07,376c1.91,3.7,6.24,5.58,9.69,7.42,1.48.85,3.28,1.59,4.86,2.36,2.1,1,4.32,1.4,6.44,2.24a37.12,37.12,0,0,1,6.91,3.37c3.41,2.3,3.85,8.07,0,10.39-3.34,2-12.16,4.1-21.39,1.48-5-1.48-13.18-7.27-19.78-7.79-4.2-.32-12.14-1.48-14.84-4.69-.86-4.64.32-5.93,1.48-9.78.52-1.84.54-3.75,1-5.58a2.08,2.08,0,0,1,.77-1.48,4.31,4.31,0,0,1,1.49-.65l.13,2.1s.3,1,2.63,2.32a10,10,0,0,1,3.77,3.74,4.28,4.28,0,0,0,.87,1.24,1.13,1.13,0,0,0,1.49.09,1.63,1.63,0,0,0,.26-1.48,32.38,32.38,0,0,1-.23-3.55,1.16,1.16,0,0,1,.1-.61,1.07,1.07,0,0,1,.39-.4c2.68-2,8.65-2.1,11.87-2.49a2,2,0,0,1,1.23.13,2.3,2.3,0,0,1,.76,1.13Z" fill="#37474f"/><path d="M402,378.24a27.32,27.32,0,0,1-.63,2.82c-1.1,3.87-2.28,5.13-1.48,9.78,2.08,2.45,7.24,3.71,11.43,4.3C412.77,387.22,407.81,381.28,402,378.24Z" fill="#455a64"/><path d="M456.14,391.19a32.45,32.45,0,0,0-6.13-2.68,14.83,14.83,0,0,0-13.71,15.24c8.45,2.33,16.59.16,19.72-1.68C459.91,399.8,459.54,393.48,456.14,391.19Z" fill="#455a64"/><path d="M361.15,172.22c-1,31.32-3,53.24-2.79,110.88a256,256,0,0,0-3,31.52c-.4,14.42.31,52.13.31,52.13s11.3,4,21.46,0c0,0,9.75-55.38,12.87-75.51,2.73-17.67,6.32-47.75,6.32-47.75l3.19,41.22a124.77,124.77,0,0,0-1.7,29.58c.66,9.45,5.32,50.61,5.32,50.61s12.22,4,23.61-2.07c0,0,4.46-70.73,4.68-79.3.18-9.77-2.88-119.7-2.88-119.7Z" fill="#17252a"/><path d="M396.29,243.55,400,210.1s12.33-1.49,19.44-8.71c0,0,0,7.27-14.93,12.82l-5.23,26.95.21,43.55Z" fill="#110f24"/><path d="M495.26,157.33c-4.69-2.57-12.12-2.11-14.57-.76s-6.6,5.25-8.91,5.68a81.73,81.73,0,0,0,14.24-.84A22.18,22.18,0,0,0,495.26,157.33Z" fill="#def2f1"/><path d="M467.81,181.51c2.1.46,3.62,1.64,8.9,1.27,2.78-.2,10.84-7.81,10.84-7.81l-12.08-1.26Z" fill="#def2f1"/><path d="M487.71,131.3v.16q-.36,10.8-.7,21.58-.93,28.31-1.84,56.58c-.68,21.61-.87,28-1.57,49.58-.67,20.44-.82,27-1.49,47.49-.5,15.41-.65,21.7-1.15,37.1-.21,6.47-.83,25.23-1,31.69h0A1.75,1.75,0,0,1,478.8,377a5.57,5.57,0,0,1-5.07-.18,1.18,1.18,0,0,1-.25-.19,1.29,1.29,0,0,1-.21-.19,1.48,1.48,0,0,1-.54-1.14c.18-5.51.78-23.3.95-28.81.46-14.16.58-19.29,1-33.41.63-19.29.73-24.79,1.37-44.12.67-21,.83-26.71,1.48-47.69q.93-28.64,1.86-57.27l1.07-33.2a.74.74,0,0,1,0-.21,1.51,1.51,0,0,1,.86-1.09,4.88,4.88,0,0,1,3-.46,5.51,5.51,0,0,1,2.14.66A2.08,2.08,0,0,1,487.71,131.3Z" fill="#3aafa9"/><path d="M487.71,131.3v.16q-.36,10.8-.7,21.58-.93,28.31-1.84,56.58c-.68,21.61-.87,28-1.57,49.58-.67,20.44-.82,27-1.49,47.49-.5,15.41-.65,21.7-1.15,37.1-.21,6.47-.83,25.23-1,31.69h0A1.75,1.75,0,0,1,478.8,377a5.57,5.57,0,0,1-5.07-.18,1.18,1.18,0,0,1-.25-.19,1.29,1.29,0,0,1-.21-.19,1.48,1.48,0,0,1-.54-1.14c.18-5.51.78-23.3.95-28.81.46-14.16.58-19.29,1-33.41.63-19.29.73-24.79,1.37-44.12.67-21,.83-26.71,1.48-47.69q.93-28.64,1.86-57.27l1.07-33.2a.74.74,0,0,1,0-.21,1.51,1.51,0,0,1,.86-1.09,4.88,4.88,0,0,1,3-.46,5.51,5.51,0,0,1,2.14.66A2.08,2.08,0,0,1,487.71,131.3Z" fill="#fff"/><path d="M487.71,131.3v.16q-.36,10.8-.7,21.58-.93,28.31-1.84,56.58c-.68,21.61-.87,28-1.57,49.58-.67,20.44-.82,27-1.49,47.49-.5,15.41-.65,21.7-1.15,37.1-.21,6.47-.83,25.23-1,31.69h0A1.75,1.75,0,0,1,478.8,377a5.57,5.57,0,0,1-5.07-.18,1.18,1.18,0,0,1-.25-.19,1.29,1.29,0,0,1-.21-.19c2.7.43,4.2-14.77,4.45-23.51s6.58-208.18,6.58-219.64V129a5.37,5.37,0,0,1,2.13.67A2.07,2.07,0,0,1,487.71,131.3Z" fill="#3aafa9" opacity="0.4" style="isolation:isolate"/><path d="M487.71,131.3a1.49,1.49,0,0,1-.88,1.26,4.57,4.57,0,0,1-2.52.49,5.64,5.64,0,0,1-2.54-.69,2.13,2.13,0,0,1-1.23-1.61.74.74,0,0,1,0-.21,1.58,1.58,0,0,1,.86-1.1,4.92,4.92,0,0,1,3-.46,5.41,5.41,0,0,1,2.14.67A2.06,2.06,0,0,1,487.71,131.3Z" fill="#3aafa9"/><path d="M486,185.54q.38-12,.77-23.94h-7.18v2.28q-.35,10.5-.69,21c.86-.21,1.84-.4,1.84-.4A52.24,52.24,0,0,0,486,185.54Z" opacity="0.1" style="isolation:isolate"/><path d="M495.26,157.33c2.3,1.48,2.54,5.28,1.32,7.92s-.89,4.45-1.32,6.16-2.42,2.31-2.42,3.41,1.49,1.65-.89,3.62A13,13,0,0,1,486,182a33.84,33.84,0,0,1-7.17-.68c-1.57-.3-1.49-3.51,3-4.45,0,0-1.94,0-3.29.08s-3.48-.25-1.4-3.85,6.43-11.65,8.53-13.49A9.71,9.71,0,0,1,495.26,157.33Z" fill="#fff"/><path d="M495.43,161.67a37.19,37.19,0,0,0-9-2l-1.25-.17c-2.55,1.38-5.86,10.08-7.91,13.6-1.1,1.9-1,3-.5,3.38.19-.65.4-1.32.6-2,1.36-4.46,3.09-5.72,6.82-7.2s5.93-1,8-1.49C494.07,165.38,496.38,163.45,495.43,161.67Z" fill="#def2f1"/><path d="M481.07,171.59c-1.4-.51-.78-3,1.19-4.56a26.38,26.38,0,0,1,5.08-3,28.15,28.15,0,0,1,3-1.31c.4-.15,1-.21,1.24-.55a1.19,1.19,0,0,0,0-1.21,2.51,2.51,0,0,0-1.26-1,6.84,6.84,0,0,0-5.83,0,12.66,12.66,0,0,0-2.73,2.64,63.69,63.69,0,0,0-7.56,10.24c-2.07,3.59,3,4.26,4.38,4.2h0c-2.16-.24-1.48-4.45,2.39-5.36" fill="#def2f1"/><path d="M457.49,163.83a63.14,63.14,0,0,0,11.65-.84,42.74,42.74,0,0,0,8.91-3.53,11.76,11.76,0,0,1,8.4-.86c5,1,6.51,1.59,9,2,.94,1.78-1.36,3.71-3.21,4.1-2.14.44-4.3,0-8,1.48s-5.46,2.77-6.82,7.2c-1.41,4.69-2.19,8.5-7.85,8.78s-14.84.6-18.46,1Z" fill="#fff"/><path d="M460.21,182.58s-2.48-1.48-2.33-8.46c.16-7.3,3-10.38,3-10.38l5.33-.32a28.73,28.73,0,0,0-1.59,10.11,23.1,23.1,0,0,0,1.59,8.74Z" fill="#17252a"/><path d="M413.88,92.07c11.4,2.73,13.87,5.11,16.43,18.37s5.61,45.71,5.61,45.71,16.16,3.42,21.5,4.59c4.45,1,3.46,3,3.46,3s-2.78,3-3,10.38c-.15,7,2.33,8.46,2.33,8.46s-.1,2.36-6,2.07c-5.54-.29-19.46-2.56-29.68-4.17-10.63-1.7-11.44-5.94-14.35-24.06s-5.54-41.23-5.54-41.23Z" fill="#fafafa"/><path d="M435.92,156.15c-9-1.94-17.32,4.45-17.32,4.45s5.31-7.76,17.06-7.07Z" fill="#e0e0e0"/><path d="M486.42,158.6c3,.48,6,1.32,9,1.9h0a2,2,0,0,1,.12,1.49,3.28,3.28,0,0,1-.82,1.26,5,5,0,0,1-2.61,1.36,5.43,5.43,0,0,0,2.49-1.48,3.28,3.28,0,0,0,.75-1.22,1.76,1.76,0,0,0-.14-1.35h.08a40.06,40.06,0,0,1-4.46-1Z" fill="#def2f1"/><path d="M492,174.09a13.1,13.1,0,0,1-2.3,1.38,23.49,23.49,0,0,1-2.45,1.13,5.8,5.8,0,0,1-2.66.48,15,15,0,0,1-2.67-.25h2.67a9.52,9.52,0,0,0,1.31-.12c.43-.11.84-.27,1.26-.4.83-.32,1.65-.67,2.46-1A15.5,15.5,0,0,0,492,174.09Z" fill="#def2f1"/><path d="M492.93,167.77a23.42,23.42,0,0,1-2.86,1.87,28.5,28.5,0,0,1-3,1.49,11.67,11.67,0,0,1-3.37.47,24,24,0,0,1-3.39,0l3.39-.22a11.81,11.81,0,0,0,3.28-.56,27.87,27.87,0,0,0,3-1.4C491,168.9,492,168.35,492.93,167.77Z" fill="#def2f1"/><path d="M424.58,115.52c-1.38-10-2.72-23.57-18.3-24.19l-20.24-1c-5,1.29-31.17,10.27-31.17,10.27l6.68,38.83s-.12,34.33.25,51.16c14.4,9.12,49.93,6.73,65.14-2.44C427.59,174.3,426,125.48,424.58,115.52Z" fill="#fafafa"/><path d="M418.06,194.74v4.87a19.82,19.82,0,0,0,11.21-4.87l.15-5.94Z" fill="#110f24"/><path d="M428.11,127.79c-.55-12.74-2.61-23.74-7.42-29.68s-7.64-7.67-18.88-7.42V92a8.17,8.17,0,0,1,4.62,3.53c2,3.16,3.89,8.39,6.28,17.48,3.26,12.38,5.13,40.07,5.29,54.91s0,26.88,0,26.88,9-2.21,11.36-5.94c2.09-5.59-.17-6.81-.14-10.39C429.45,161.53,428.5,137.11,428.11,127.79Z" fill="#3aafa9"/><path d="M428.11,127.79c-.55-12.74-2.61-23.74-7.42-29.68s-7.64-7.67-18.88-7.42V92a8.17,8.17,0,0,1,4.62,3.53c2,3.16,3.89,8.39,6.28,17.48,3.26,12.38,5.13,40.07,5.29,54.91s0,26.88,0,26.88,9-2.21,11.36-5.94c2.09-5.59-.17-6.81-.14-10.39C429.45,161.53,428.5,137.11,428.11,127.79Z" opacity="0.3" style="isolation:isolate"/><path d="M360.13,191.53a30.33,30.33,0,0,0-.34,5.79c.25,1.39,3.11,3.56,8.77,5.34a65.89,65.89,0,0,0,23.74,3.73V201Z" fill="#110f24"/><path d="M387.76,112.36c-1.6-6.8-6.14-14.19-6.28-20.78L355,100.49c-5.18,2.37-6.72,5.15-6.23,10.82l9.72,39.57s2.09,24.74,2.17,28.72-3.28,6.31-1,11.31c8.53,9.26,32.65,10.13,32.65,10.13s-.72-18.56-1.49-52.9C390.42,128.85,389.81,121,387.76,112.36Z" fill="#3aafa9"/><path d="M387.76,112.36c-1.6-6.8-6.14-14.19-6.28-20.78L355,100.49c-5.18,2.37-6.72,5.15-6.23,10.82l9.72,39.57s2.09,24.74,2.17,28.72-3.28,6.31-1,11.31c8.53,9.26,32.65,10.13,32.65,10.13s-.72-18.56-1.49-52.9C390.42,128.85,389.81,121,387.76,112.36Z" opacity="0.3" style="isolation:isolate"/><path d="M399.13,199.46l-5.73,2.22C414.17,264,471,348.6,471,348.6l5.74-2.22S419.92,261.83,399.13,199.46Z" fill="#17252a"/><path d="M359,99.74c-14,4-17.81,10.91-15.48,28,1.87,14.11,5.67,27.63,7.63,35.81,1.57,6.63,1.48,8.9,8.53,14.63s29,19.11,34.82,24.37a32.34,32.34,0,0,1,3.71,4c1,1.29,1.63,2.73,2.67,4a34.66,34.66,0,0,0,7.42,6.78,9.4,9.4,0,0,0,2.82,1.48,4,4,0,0,0,3.08-.32,1.69,1.69,0,0,1,.49-.27,1.62,1.62,0,0,1,.76.07,4.31,4.31,0,0,0,4-1.21,3.79,3.79,0,0,1,.8-.75,2.34,2.34,0,0,1,1.28-.13,11,11,0,0,0,2.36.1,2.56,2.56,0,0,0,2-1.15,4.7,4.7,0,0,1,.44-1.09,2.35,2.35,0,0,1,.63-.41l3.41-1.68a2.53,2.53,0,0,0,1.07-.82c.45-.74,0-1.69-.5-2.43l-2.74-4.33a5.38,5.38,0,0,0-1.3-1.35,1.79,1.79,0,0,0-2.17-.17,23,23,0,0,1-2.11-1.84,13.93,13.93,0,0,0,4,.29,4.24,4.24,0,0,0,2.85-1.61c.44-.64.56-1.7-.14-2.06a1.63,1.63,0,0,0-.47-.16A42,42,0,0,1,420,194a38.07,38.07,0,0,0-4.22-1.78,37,37,0,0,0-4.3-.92c-1.19-.27-2.43-.83-3.61-1.22a16.33,16.33,0,0,1-3.78-1.72,33.69,33.69,0,0,1-4-3.5c-2.77-2.58-5.59-5.12-8.43-7.63Q382.33,169,372.87,161l-5-32.87S368.38,105.21,359,99.74Z" fill="#fff"/><path d="M358.94,99.12c-4,.91-9.91,2.45-14.57,8.24s-2.62,19.2-.92,28.58,6.63,32.74,7.7,35.5,4.73,5.83,9.42,9.23,15.48,12.41,18.09,13.52a6,6,0,0,0,4.54.21s-1.29-3.91,2.59-8.91a14.79,14.79,0,0,1,8.68-5.71s1.17-2.41-3-5.86-16.7-14.53-16.7-14.53-3.81-26.71-4.86-32S369.05,105.06,358.94,99.12Z" fill="#fafafa"/><path d="M374.79,159.37c-3.47-2.22-11.49-.34-13.92,2.48,2.27-4.79,9.13-7,13.47-5.5Z" fill="#e0e0e0"/><path d="M383.22,194.4s-1.29-3.91,2.58-8.91a14.79,14.79,0,0,1,8.68-5.71l4.56,4.14s-3.82.52-7.59,5.39-3.47,8.37-3.47,8.37Z" fill="#17252a"/><path d="M404.62,188.68c-3.33.89-9.22,4.32-11.22,13,0,0-3.49-2.64-3.61-2.71a15.4,15.4,0,0,1,11.87-12.6Z" fill="#17252a"/><path d="M378,40a11.25,11.25,0,0,0-8.74-1,4.89,4.89,0,0,0-3.19,3.4c-.06,1.23-.06,2.47,0,3.71a12.72,12.72,0,0,1-1.72,4.45,5.64,5.64,0,0,0-.61,4.55c.49,1.13,1.49,1.49,1.61,2.79a24.76,24.76,0,0,1-.67,4.46,8.1,8.1,0,0,0,3.44,7.42c1,.69,2.23,1.14,3.28,1.79a6,6,0,0,1,2.52,3.53,11,11,0,0,0,7.57,6.16l-.3-9.67-.4-6.76s4.29-5.93,4.74-10.78c.58-6.24-.76-8.79-.76-8.79A62,62,0,0,0,378,40Z" fill="#17252a"/><path d="M384.43,51a18.08,18.08,0,1,0,17.92-18.23h0A18.09,18.09,0,0,0,384.43,51Z" fill="#17252a"/><path d="M372.93,74.32a5.31,5.31,0,0,0,6.12-1l.77,20.67a15.91,15.91,0,0,0,7.27,7c5,2.14,11.28,3.13,15.42,1.49s6.34-4.83.33-9.92l-.23-6.11a37.41,37.41,0,0,0,7-.09c4.46-.73,7.22-4.27,8.51-9.08,2.07-7.75,1.48-19.29-1.58-34.34-5-3.82-21.34-4.32-31.74,2.37.56,8.91-.79,11.87-1.1,13.22s-2,4.84-3.11,5c-2.14.32-2.48-2-3.85-3.4a5.81,5.81,0,0,0-8.11,1.34,5.63,5.63,0,0,0-.64,1.15C365.8,67.42,369.86,73.18,372.93,74.32Z" fill="#fff"/><path d="M402.61,86.42c-7.07-.67-15.89-3.89-18.18-7.11a24.67,24.67,0,0,1-3.14-5.94s.31,5.58,2,8.42,8.31,7.58,19.41,8.25Z" fill="#def2f1"/><path d="M389.94,126.69c-1.82-7.21-4.21-19.57-6.8-18.46-3.77,1.65-5.19,3.25-6.63,1a50.78,50.78,0,0,1-3.58-8.74,58.11,58.11,0,0,1-1.84-5.93,51,51,0,0,1,4.46-5.17c1.92-1.81,2.34-2.28,4-2.4l.17,3s1.05,2.33,5.69,5.44S389.15,108.23,389.94,126.69Z" fill="#17252a"/><path d="M414.38,120.88c.08-10.69-1.75-18.15.76-17.44s3.38.89,3.46-.46-3.39-7.58-5.67-10.12a14.16,14.16,0,0,0-10.24-5.24l.15,4.91a17.22,17.22,0,0,1,3.26,5.12A178.23,178.23,0,0,1,414.38,120.88Z" fill="#17252a"/><path d="M419.27,30.83h0c-.9-1.34-.33-3.13-.7-4.69a4.74,4.74,0,0,0-3.43-3.42,7.47,7.47,0,0,0-4.84.49c-1.71.75-3.49,2-5.24,1.38-1.36-.47-2.12-1.91-3.25-2.82A6.41,6.41,0,0,0,397,20.69a18.66,18.66,0,0,0-4.78,1.48,11.36,11.36,0,0,1-3.69,1.38c-1.24,0-2.51-.62-3.79-.62a6.81,6.81,0,0,0-6.13,4.2,12.25,12.25,0,0,1-1.17,3,15,15,0,0,1-2.73,2.15A5.74,5.74,0,0,0,373,38.19c.87,2.79,4.87,5.15,7.72,4.17a4.45,4.45,0,0,0,8,2.19,5.66,5.66,0,0,0,4.46,3A6.18,6.18,0,0,0,399,45c-.18,1.83,1.65,3.21,3.37,3.82a9.17,9.17,0,0,0,3.48.55,23.09,23.09,0,0,0,3.19-1,11.86,11.86,0,0,1,3.15,0,5.41,5.41,0,0,0,4.82-1.75c.79-1.09,1-2.64,2.08-3.4a16.69,16.69,0,0,1,1.78-.8,3.7,3.7,0,0,0,1.71-2.36,8.74,8.74,0,0,0,.16-3,7.27,7.27,0,0,0-2-4.82A9.38,9.38,0,0,1,419.27,30.83Z" fill="#17252a"/><path d="M398.38,60.08a2,2,0,1,1-4,0h0A2,2,0,0,1,396.33,58h0a2,2,0,0,1,2,2Z" fill="#263238"/><path d="M415.87,59.69a2,2,0,0,1-1.93,2.08h0a2.06,2.06,0,1,1,1.95-2.17A.28.28,0,0,1,415.87,59.69Z" fill="#263238"/><path d="M388.43,53.59,373.13,59a5,5,0,0,1,4.45,2L388.43,57Z" fill="#3aafa9"/><path d="M423.67,52.86l-1-.1a29,29,0,0,0-10,.51c-3.2,1-4.35,2.18-6.11,2.22s-3.08-1.07-6.46-2a33.28,33.28,0,0,0-10.68-.13l-1.09.15a1.81,1.81,0,0,0-1.23,1.82,4.16,4.16,0,0,0,1,2.1,2.24,2.24,0,0,1,.34.83,35.63,35.63,0,0,0,1.2,5.77A7,7,0,0,0,391,66.12a5.74,5.74,0,0,0,.7.59l.4.27a5.63,5.63,0,0,0,1.19.56h.2l.31.09h.33a7.62,7.62,0,0,0,1.05.16h1a7.57,7.57,0,0,0,7.42-4.45c1.13-2.21.9-5.31,3-5.34h.38c1.49.33,1.25,3.17,2.15,5.21a8.41,8.41,0,0,0,1.4,2.22c.1.12.22.23.34.35l.18.16.19.15.17.13.19.13.15.09h.1a6.73,6.73,0,0,0,1.72.69h.18a10.21,10.21,0,0,0,2.14.19,6.46,6.46,0,0,0,6.26-4.14,36.76,36.76,0,0,0,1.35-5.83,1.93,1.93,0,0,1,.4-.78,4.27,4.27,0,0,0,1-2.15C424.77,53.75,424.22,52.92,423.67,52.86Zm-21.16,8.61a6.62,6.62,0,0,1-1.59,3.07,6.14,6.14,0,0,1-4.81,1.84,5.06,5.06,0,0,1-4.61-2.1,1.14,1.14,0,0,1-.15-.23l-.13-.2-.11-.21-.09-.18a.38.38,0,0,0,0-.15v-.12l-.1-.22c-.08-.21-.15-.42-.21-.64h0a1.68,1.68,0,0,0-.12-.38c0-.21-.1-.42-.13-.63V61.1c-.31-1.48-.65-4.54.12-5.25s2.77-1.49,6-1.18H397a7.49,7.49,0,0,1,1.48.24,2.16,2.16,0,0,1,.57.14,11,11,0,0,1,1.48.46l.45.17.47.23h.09l.18.09a3,3,0,0,1,.83.86C403.07,57.75,402.87,59.82,402.51,61.47Zm19.08-1a6.94,6.94,0,0,1-3.19,5A5.24,5.24,0,0,1,416,66a5.07,5.07,0,0,1-4.84-2.21h0l-.09-.13-.09-.18h0c0-.09-.08-.16-.11-.24a1.48,1.48,0,0,1-.12-.29.24.24,0,0,1,0-.12v-.21a.14.14,0,0,1,0-.09,7.23,7.23,0,0,1-.3-1.13,7.51,7.51,0,0,1,.19-4.64c.63-1,3.06-2.05,5.39-2.38a12.32,12.32,0,0,1,1.48-.13h1.74a1.4,1.4,0,0,1,.74.13h.71a.73.73,0,0,1,.36.15h0a2.69,2.69,0,0,1,.8.52c.49.82.05,3.86-.29,5.4Z" fill="#3aafa9"/><path d="M421.54,60.46a7,7,0,0,1-3.2,5,5.24,5.24,0,0,1-2.43.58,5.07,5.07,0,0,1-4.84-2.21h0l-.09-.13a1.42,1.42,0,0,1-.08-.18h0c0-.09-.09-.16-.12-.24a1.48,1.48,0,0,1-.12-.29.24.24,0,0,1,0-.12v-.21a.14.14,0,0,1,0-.09,7.23,7.23,0,0,1-.3-1.13,7.59,7.59,0,0,1,.19-4.64c.63-1,3.06-2.05,5.39-2.38a12.32,12.32,0,0,1,1.48-.13h1.74a1.4,1.4,0,0,1,.74.13h.72a.73.73,0,0,1,.35.15h0a2.69,2.69,0,0,1,.8.52C422.32,55.88,421.88,58.92,421.54,60.46Z" fill="#17252a"/><path d="M402.51,61.47a6.62,6.62,0,0,1-1.59,3.07,6.14,6.14,0,0,1-4.81,1.84,5.06,5.06,0,0,1-4.61-2.1,1.14,1.14,0,0,1-.15-.23l-.13-.2-.11-.21-.09-.18a.38.38,0,0,0,0-.15v-.12l-.1-.22c-.08-.21-.15-.42-.21-.64h0a1.68,1.68,0,0,0-.12-.38c0-.21-.1-.42-.13-.63V61.1c-.31-1.48-.65-4.54.12-5.25s2.77-1.49,6-1.18H397a7.49,7.49,0,0,1,1.48.24,2.16,2.16,0,0,1,.57.14,11,11,0,0,1,1.48.46l.45.17.47.23h.09l.18.09a3,3,0,0,1,.83.86C403.07,57.75,402.87,59.82,402.51,61.47Z" fill="#17252a"/><path d="M511.59,403.26c-.86-1.11-4.26-2.21-4.38-3.43-.11-1,1.27-1.94,1.69-2.72a5.28,5.28,0,0,0-.53-5.19c-1.13-1.65-3.51-2.28-4.46-3.93s-.75-3.53-2.73-4.9c-3.37-2.3-7.27.49-10.83.42-2,0-2.72-1.81-4.32-2.76a7.82,7.82,0,0,0-5-.73,6,6,0,0,0-2.43.9c-.86.76-.3,1.18-1.49,1.28-.93,0-2.07-.42-3.05-.44a10.44,10.44,0,0,0-10.59,10.65c-3.91-.7-6.32,2.12-7.22,5.7-.54,2.12-1.15,8.75,1.81,9.81-4.23-1.22,1,14.41,4,11.47-.37,3.37,2.67,6.83,5.48,8.33,1.23.66,2.8.54,3.84,1.08s1.71,1.6,2.7,2.14a6.5,6.5,0,0,0,3.53.81,11.05,11.05,0,0,0,1.49.95c1.05.58,2.15,1.1,3.22,1.66a41.32,41.32,0,0,0,7.51,3.49,12.22,12.22,0,0,0,1.48.34,8,8,0,0,0,2.88.14c.71-.15,1.13-.86,1.71-.89,1.09,0,1.94.37,3-.2a2.48,2.48,0,0,0,1.18-2.43c1.7-.52,2-3,1.14-4.29a8.22,8.22,0,0,0-1.31-1.57,2.6,2.6,0,0,0,0-.88,9.46,9.46,0,0,0,9.16-9.76,8.93,8.93,0,0,0-.39-2.41c-.66-2.55.14-3,1.89-4.81C512.66,408.93,513.58,405.83,511.59,403.26Z" fill="#3aafa9"/><path d="M511.59,403.26c-.86-1.11-4.26-2.21-4.38-3.43-.11-1,1.27-1.94,1.69-2.72a5.28,5.28,0,0,0-.53-5.19c-1.13-1.65-3.51-2.28-4.46-3.93s-.75-3.53-2.73-4.9c-3.37-2.3-7.27.49-10.83.42-2,0-2.72-1.81-4.32-2.76a7.82,7.82,0,0,0-5-.73,6,6,0,0,0-2.43.9c-.86.76-.3,1.18-1.49,1.28-.93,0-2.07-.42-3.05-.44a10.44,10.44,0,0,0-10.59,10.65c-3.91-.7-6.32,2.12-7.22,5.7-.54,2.12-1.15,8.75,1.81,9.81-4.23-1.22,1,14.41,4,11.47-.37,3.37,2.67,6.83,5.48,8.33,1.23.66,2.8.54,3.84,1.08s1.71,1.6,2.7,2.14a6.5,6.5,0,0,0,3.53.81,11.05,11.05,0,0,0,1.49.95c1.05.58,2.15,1.1,3.22,1.66a41.32,41.32,0,0,0,7.51,3.49,12.22,12.22,0,0,0,1.48.34,8,8,0,0,0,2.88.14c.71-.15,1.13-.86,1.71-.89,1.09,0,1.94.37,3-.2a2.48,2.48,0,0,0,1.18-2.43c1.7-.52,2-3,1.14-4.29a8.22,8.22,0,0,0-1.31-1.57,2.6,2.6,0,0,0,0-.88,9.46,9.46,0,0,0,9.16-9.76,8.93,8.93,0,0,0-.39-2.41c-.66-2.55.14-3,1.89-4.81C512.66,408.93,513.58,405.83,511.59,403.26Z" opacity="0.35" style="isolation:isolate"/><path d="M424.18,384.83a4,4,0,0,0,.65-.82,14.44,14.44,0,0,0,1.48-5.34c.75-4.38,1.49-8.74,2.22-13.11a17.76,17.76,0,0,0,.34-5.77,6,6,0,0,0-3.15-4.6,3.68,3.68,0,0,0-4.87,1.75c-.13-1.88-.34-3.75-.61-5.61a4.45,4.45,0,0,0-1.06-2.73c-1.38-1.33-3.76-.49-5.14.85.67-4.62,3.47-8.91,3.27-13.55a4.18,4.18,0,0,0-.78-2.49c-1-1.22-2.77-1.31-4.34-1.31l4.6-2.46a11.31,11.31,0,0,0,3.08-2.13,3.82,3.82,0,0,0,1.09-3.42,2.37,2.37,0,0,0-2.83-1.77h0a11,11,0,0,1,2.61-1.48c.88-.52,1.65-1.49,1.25-2.48a2.21,2.21,0,0,0-.83-.91,9.24,9.24,0,0,0-8.12-.83,23.07,23.07,0,0,0-7.2,4.36c.42-.69-.35-1.63-1.17-1.66a3.24,3.24,0,0,0-2.13,1.06,29.27,29.27,0,0,0-8.3,15.47,1.77,1.77,0,0,0-2.49-.16l-.06.06a4.52,4.52,0,0,0-1.16,2.6,23.19,23.19,0,0,0,.07,8.59,17.25,17.25,0,0,0,3,6.72c-1.68-1.67-4.86-1.32-5.23,1.23-.55,3.68,2.42,5.94,5,8-.54.47-1.37.5-1.81,1.29a4,4,0,0,0,0,3.71,16.88,16.88,0,0,0,6.22,5.34c-5.17,3.43,7.06,8.58,9.46,10.06a9.05,9.05,0,0,1,3.57,3.56,20.9,20.9,0,0,1,1.36,3c.25.64.48,2,1.13,2.33,2.09,1.16,6.25-3.93,7.66-5.07C422,386.21,423.29,385.66,424.18,384.83Z" fill="#3aafa9"/><path d="M424.18,384.83a4,4,0,0,0,.65-.82,14.44,14.44,0,0,0,1.48-5.34c.75-4.38,1.49-8.74,2.22-13.11a17.76,17.76,0,0,0,.34-5.77,6,6,0,0,0-3.15-4.6,3.68,3.68,0,0,0-4.87,1.75c-.13-1.88-.34-3.75-.61-5.61a4.45,4.45,0,0,0-1.06-2.73c-1.38-1.33-3.76-.49-5.14.85.67-4.62,3.47-8.91,3.27-13.55a4.18,4.18,0,0,0-.78-2.49c-1-1.22-2.77-1.31-4.34-1.31l4.6-2.46a11.31,11.31,0,0,0,3.08-2.13,3.82,3.82,0,0,0,1.09-3.42,2.37,2.37,0,0,0-2.83-1.77h0a11,11,0,0,1,2.61-1.48c.88-.52,1.65-1.49,1.25-2.48a2.21,2.21,0,0,0-.83-.91,9.24,9.24,0,0,0-8.12-.83,23.07,23.07,0,0,0-7.2,4.36c.42-.69-.35-1.63-1.17-1.66a3.24,3.24,0,0,0-2.13,1.06,29.27,29.27,0,0,0-8.3,15.47,1.77,1.77,0,0,0-2.49-.16l-.06.06a4.52,4.52,0,0,0-1.16,2.6,23.19,23.19,0,0,0,.07,8.59,17.25,17.25,0,0,0,3,6.72c-1.68-1.67-4.86-1.32-5.23,1.23-.55,3.68,2.42,5.94,5,8-.54.47-1.37.5-1.81,1.29a4,4,0,0,0,0,3.71,16.88,16.88,0,0,0,6.22,5.34c-5.17,3.43,7.06,8.58,9.46,10.06a9.05,9.05,0,0,1,3.57,3.56,20.9,20.9,0,0,1,1.36,3c.25.64.48,2,1.13,2.33,2.09,1.16,6.25-3.93,7.66-5.07C422,386.21,423.29,385.66,424.18,384.83Z" fill="#def2f1"/><path d="M504.34,401.26l1.37-.3C505.69,400.28,505.4,400,504.34,401.26Z" fill="#37474f"/><path d="M525.48,412.86a7.75,7.75,0,0,0,.68-4.45c-.15-1.09-1.19-2.64-.61-3.67.34-.61,1.14-.74,1.63-1.2a4.1,4.1,0,0,0,1.34-2.51,25.39,25.39,0,0,0-.28-3.37c0-1.48.89-2.1,1.48-3.26a12.28,12.28,0,0,0,1.31-4c.31-2.19-1.37-3.6-.23-5.65a4.81,4.81,0,0,0,.64-2.08c.12-.83.88-1.39,1-2.23a3.81,3.81,0,0,0-.67-3.44c-2.72-2.39-6.09.25-8.3,1.86-3.45,2.49-8,2.7-11.5,5a11,11,0,0,1-5,1.79,15.13,15.13,0,0,1-3.92,0,29.3,29.3,0,0,0-.34,7.42,9.83,9.83,0,0,0,3.19,6.49,2.32,2.32,0,0,1,1,1.22l-1.15.26a11.11,11.11,0,0,1-.29,2,6.33,6.33,0,0,0,.72,5.09,2.88,2.88,0,0,1,.46,4l-.26.28a6.9,6.9,0,0,0,.34,6.85,5.48,5.48,0,0,1,1.22,2.26,9.5,9.5,0,0,1-.4,2.42c-.13,1.26.56,2.1.88,3.25a9.08,9.08,0,0,0,.2,1.14c.23.59.69,1.07.94,1.65a5.46,5.46,0,0,1,.49,2.52,24.34,24.34,0,0,0,.34,5.59,7.24,7.24,0,0,0,2.79,4.19,15.08,15.08,0,0,0,2.14,1.48c1.07.58,2.16,1.09,3.22,1.66a42.33,42.33,0,0,0,7.51,3.49,12.22,12.22,0,0,0,1.48.34,8.21,8.21,0,0,0,2.88.14c.7-.15,1.11-.86,1.71-.89,1.08,0,1.93.37,3-.2a2.45,2.45,0,0,0,1.16-2.43c1.71-.52,2-3,1.16-4.29a10.29,10.29,0,0,0-3.46-3.23c-1.48-.91-3.78-1.7-4.35-3.48a4.73,4.73,0,0,0-1.06-2.34c-.81-.82-2.1-1.81-2.32-3-.33-1.62.88-3.15.7-4.79a3.7,3.7,0,0,0-.28-1.18c-.24-.49-.75-.81-.94-1.32-.39-1.06.89-2.27.91-3.41a6,6,0,0,0-.75-2.39,8.52,8.52,0,0,1-.89-2.11A2.9,2.9,0,0,1,525.48,412.86Z" fill="#3aafa9"/><path d="M525.48,412.86a7.75,7.75,0,0,0,.68-4.45c-.15-1.09-1.19-2.64-.61-3.67.34-.61,1.14-.74,1.63-1.2a4.1,4.1,0,0,0,1.34-2.51,25.39,25.39,0,0,0-.28-3.37c0-1.48.89-2.1,1.48-3.26a12.28,12.28,0,0,0,1.31-4c.31-2.19-1.37-3.6-.23-5.65a4.81,4.81,0,0,0,.64-2.08c.12-.83.88-1.39,1-2.23a3.81,3.81,0,0,0-.67-3.44c-2.72-2.39-6.09.25-8.3,1.86-3.45,2.49-8,2.7-11.5,5a11,11,0,0,1-5,1.79,15.13,15.13,0,0,1-3.92,0,29.3,29.3,0,0,0-.34,7.42,9.83,9.83,0,0,0,3.19,6.49,2.32,2.32,0,0,1,1,1.22l-1.15.26a11.11,11.11,0,0,1-.29,2,6.33,6.33,0,0,0,.72,5.09,2.88,2.88,0,0,1,.46,4l-.26.28a6.9,6.9,0,0,0,.34,6.85,5.48,5.48,0,0,1,1.22,2.26,9.5,9.5,0,0,1-.4,2.42c-.13,1.26.56,2.1.88,3.25a9.08,9.08,0,0,0,.2,1.14c.23.59.69,1.07.94,1.65a5.46,5.46,0,0,1,.49,2.52,24.34,24.34,0,0,0,.34,5.59,7.24,7.24,0,0,0,2.79,4.19,15.08,15.08,0,0,0,2.14,1.48c1.07.58,2.16,1.09,3.22,1.66a42.33,42.33,0,0,0,7.51,3.49,12.22,12.22,0,0,0,1.48.34,8.21,8.21,0,0,0,2.88.14c.7-.15,1.11-.86,1.71-.89,1.08,0,1.93.37,3-.2a2.45,2.45,0,0,0,1.16-2.43c1.71-.52,2-3,1.16-4.29a10.29,10.29,0,0,0-3.46-3.23c-1.48-.91-3.78-1.7-4.35-3.48a4.73,4.73,0,0,0-1.06-2.34c-.81-.82-2.1-1.81-2.32-3-.33-1.62.88-3.15.7-4.79a3.7,3.7,0,0,0-.28-1.18c-.24-.49-.75-.81-.94-1.32-.39-1.06.89-2.27.91-3.41a6,6,0,0,0-.75-2.39,8.52,8.52,0,0,1-.89-2.11A2.9,2.9,0,0,1,525.48,412.86Z" fill="#def2f1"/><path d="M465.92,417.21a18.34,18.34,0,0,0-3.17-1.41c-2.73-1-6.56-1.49-9.06.25s-3.2,5.63-3.53,8.52c-.13,1.26.57,2.11.86,3.25a11,11,0,0,0,.23,1.14c.22.58.68,1.07.93,1.65a5.73,5.73,0,0,1,.49,2.52,22.69,22.69,0,0,0,.34,5.58,7.11,7.11,0,0,0,2.79,4.2,15.75,15.75,0,0,0,2.14,1.49c1.05.56,2.15,1.08,3.22,1.66a40.58,40.58,0,0,0,7.51,3.47,12.67,12.67,0,0,0,1.48.34A7.7,7.7,0,0,0,473,450c.71-.16,1.12-.88,1.72-.89,1.08,0,1.93.37,3-.19a2.51,2.51,0,0,0,1.17-2.44c1.71-.53,2-3,1.14-4.29a10.6,10.6,0,0,0-3.31-3.22c-1.48-.9-3.78-1.69-4.35-3.47a4.55,4.55,0,0,0-1.08-2.34c-.8-.82-2.08-1.83-2.31-3-.33-1.63.89-3.16.71-4.81-.14-1.23-1.06-1.88-1.38-3-.24-.87,0-1.81-.25-2.67A4.48,4.48,0,0,0,465.92,417.21Z" fill="#3aafa9"/><path d="M465.92,417.21a18.34,18.34,0,0,0-3.17-1.41c-2.73-1-6.56-1.49-9.06.25s-3.2,5.63-3.53,8.52c-.13,1.26.57,2.11.86,3.25a11,11,0,0,0,.23,1.14c.22.58.68,1.07.93,1.65a5.73,5.73,0,0,1,.49,2.52,22.69,22.69,0,0,0,.34,5.58,7.11,7.11,0,0,0,2.79,4.2,15.75,15.75,0,0,0,2.14,1.49c1.05.56,2.15,1.08,3.22,1.66a40.58,40.58,0,0,0,7.51,3.47,12.67,12.67,0,0,0,1.48.34A7.7,7.7,0,0,0,473,450c.71-.16,1.12-.88,1.72-.89,1.08,0,1.93.37,3-.19a2.51,2.51,0,0,0,1.17-2.44c1.71-.53,2-3,1.14-4.29a10.6,10.6,0,0,0-3.31-3.22c-1.48-.9-3.78-1.69-4.35-3.47a4.55,4.55,0,0,0-1.08-2.34c-.8-.82-2.08-1.83-2.31-3-.33-1.63.89-3.16.71-4.81-.14-1.23-1.06-1.88-1.38-3-.24-.87,0-1.81-.25-2.67A4.48,4.48,0,0,0,465.92,417.21Z" fill="#def2f1"/><path d="M459.72,353.66c-3.22.36-5.39-2.36-9.42,0-1.07.63-1.49,2.12-2.19,3.19-1.23,1.8-3,1.89-4.94,2.11-3.65.43-8.74,1.35-9.72,5.42-.9,3.74-3.31,3.53-6.56,5.09a13.35,13.35,0,0,0-5.21,4c-1.84,2.57-.6,3.74-1,6.44-.32,2.11-3.2,3.78-4.6,5.28-2.07,2.24-4.34,5-5,8.09a5.77,5.77,0,0,0,.15,3.44c.48,1,1.59,1.58,2.06,2.6,1.09,2.41-.72,4.45-1.21,6.74-.43,1.94-.4,4.45,1.33,5.79s3.71,1,4.75,3.17c.92,1.9.33,4.23,1,6.24a7.18,7.18,0,0,0,4.32,4.64,17.29,17.29,0,0,1,4.27,1.75c1.84,1.35,2.13,3,3.21,4.88a7.69,7.69,0,0,0,4.87,3.89c2.52.54,5.28-.34,7.73.7,3.58,1.48,5.25,6.8,9.81,6.38,1.9-.16,3.41-1.78,5.43-1.91s3.89.75,5.94.65c3.07-.18,3.13-2,4.45-4.05s3.44-.86,5-2.08,1.48-5.94,1.48-7.73a7.2,7.2,0,0,1,.16-3.13,12.72,12.72,0,0,0,1.25-3c.28-2.46-1.49-4-2.08-6.14,1.32-.3,2.76.25,4.13-.32a49.43,49.43,0,0,0,5.19-2.86,5.21,5.21,0,0,0-.84,6.54,4.54,4.54,0,0,1,1.06,2,4.31,4.31,0,0,1-.86,2.33,6.9,6.9,0,0,0,.34,6.85,5.56,5.56,0,0,1,1.24,2.27,11,11,0,0,1-.42,2.42c-.13,1.26.56,2.11.88,3.25a8.92,8.92,0,0,0,.2,1.15c.23.59.69,1.06.94,1.64a5.5,5.5,0,0,1,.49,2.53,24.34,24.34,0,0,0,.34,5.59,7.27,7.27,0,0,0,2.79,4.19,15.08,15.08,0,0,0,2.14,1.48c1.07.56,2.16,1.08,3.22,1.66a43.05,43.05,0,0,0,7.51,3.49c.5.13,1,.24,1.55.34a8,8,0,0,0,2.88.13c.72-.16,1.13-.86,1.71-.89,1.1,0,1.93.38,3-.19a2.51,2.51,0,0,0,1.17-2.43c1.69-.54,1.94-3,1.14-4.29a10.38,10.38,0,0,0-3.45-3.24c-1.49-.9-3.79-1.69-4.34-3.47a4.72,4.72,0,0,0-1.08-2.34c-.8-.82-2.09-1.83-2.32-3a4.76,4.76,0,0,1,.35-2.27,4.36,4.36,0,0,0,0-2.21c-.26-.89-.81-1.67-1.1-2.53a3.33,3.33,0,0,1,.15-2.48,5.82,5.82,0,0,0-.51-4.88,2,2,0,0,1-.15-2.73,7.82,7.82,0,0,0,.33-5.93c-.27-.75-.64-1.61-.25-2.3a3.31,3.31,0,0,1,.92-.87,4.63,4.63,0,0,0,1.61-3.19c0-.84-.81-1.39-.9-2.19-.13-1.09.47-1.25,1.05-1.93a12.28,12.28,0,0,0,1.61-2.42,7.84,7.84,0,0,0,1.3-.64,5.62,5.62,0,0,0,2.46-3.14,23.7,23.7,0,0,0,.23-3.57,6.25,6.25,0,0,0,6.47-.84,9.81,9.81,0,0,0,3.34-5.86,6.18,6.18,0,0,0,6.1-3.18,12.81,12.81,0,0,0,1.39-7.09,6.82,6.82,0,0,0,4.68-1l1.24-6.88a2.62,2.62,0,0,0,3.59-.88,1.19,1.19,0,0,0,.12-.22c1.32-2.5-.32-7.33-.83-8.46a23.83,23.83,0,0,0-1.78-3.62,4.58,4.58,0,0,0,2.12-.88,3,3,0,0,0,1.15-1.94,5,5,0,0,0-1.21-3.25,17.59,17.59,0,0,0-5.13-4.78c-1-.67-2.69-1.13-3.43-2a19.76,19.76,0,0,1-1.48-3.4,37.27,37.27,0,0,0-10.84-13.68,27.3,27.3,0,0,0-7.7-4,31.15,31.15,0,0,0-4.55-1.12,15,15,0,0,1-3.48-.92,8,8,0,0,0-3.77-.1,6.91,6.91,0,0,0-2.73,1c-2.05,1.4-2.18,3.73-4.7,5-1.34.67-1.49,1.92-3.18,2.4a31.8,31.8,0,0,0-4.29,1c-3,1.34-3,3.63-3.11,5.94C476.07,341.34,459.72,353.66,459.72,353.66Z" fill="#fff"/><path d="M532.42,347.16l-13.7,1.37-14.92-3.77-11.74-10.88c.37,6.41,5.93,18.92,18.81,22.11a24.76,24.76,0,0,0,17.81-2.09,8.35,8.35,0,0,0,4.45-6.14v0C533.21,347.53,532.39,347.36,532.42,347.16Z" fill="#def2f1"/><path d="M533.77,303.47c.92.91,1.84,1.81,2.78,2.7a36.45,36.45,0,0,0,7.18,5.49,11.17,11.17,0,0,0,5.8,1.56,4.65,4.65,0,0,0,2.48-.59c.54-.49.27-1,.34-1.56,3-.58,1.25-3.29.2-4.9,3.54-.1.35-3.37-.66-4.55-2.86-3.39-3.9-8.31-7.42-11.18-1.61-1.33-3.57-1.7-6.79-2.16a49.51,49.51,0,0,0-9.81-.35c-1.83.11-5.94.64-6.3,2.79-.19,1.22,2,2.29,3.15,3.58s2.64,2.87,4,4.14C530.45,300.09,532.1,301.8,533.77,303.47Z" fill="#17252a"/><path d="M496.52,323.25c.55,2.29,5.38,9.35,4.34,11.49-.67,1.37-2.32,2.14-1.84,3.68.63,2.09,3.4,4.36,5.18,5.52a26.88,26.88,0,0,0,8.35,3.62c4,1,8.27.48,12.39.2a10.23,10.23,0,0,0,8-4.46,4.2,4.2,0,0,0,3.44-2.31,8.57,8.57,0,0,0,5.5,2.82,6.43,6.43,0,0,0,2.88-.46c.37-.18,2.33-1.6,2-2.18.56.92,1.26,1.91,2.33,2.07a2.9,2.9,0,0,0,1.73-.38,7.52,7.52,0,0,0,3.92-4.81,2.11,2.11,0,0,0,2.66,1,4.27,4.27,0,0,0,2.16-2.15,5,5,0,0,0,.7-3.06,1.87,1.87,0,0,0,2.32.36,3,3,0,0,0,1.33-2.1,7.29,7.29,0,0,0-.12-2.55.89.89,0,0,0,1.09.11,2,2,0,0,0,.71-.91,7.31,7.31,0,0,0,.09-5.21c-.56-1.69-.79-3.89-2.11-5.07a13.86,13.86,0,0,0-5-3.08,19.7,19.7,0,0,1-6.16-3.65c-1.59-1.39-3.71-2.77-3.85-5.12a20.87,20.87,0,0,0-.09-3,5.39,5.39,0,0,0-2.18-3.49c-1.2-1-2.3-1.84-3.46-3a47.7,47.7,0,0,0-4.08-3.29c-7.91-6.15-20.77-4.46-30.4,0C494.52,300.24,493.33,310.24,496.52,323.25Z" fill="#fff"/><path d="M518.78,340.31a13.65,13.65,0,0,0,5.44,7.51h.72a10.23,10.23,0,0,0,8-4.46,4.2,4.2,0,0,0,3.44-2.31C527.61,345,518.78,340.31,518.78,340.31Z" fill="#def2f1"/><path d="M533,343.27c-6.47,4.9-17.38,3.82-24.33-.43-5.68-3.47-9-9.89-8.77-18.26,0,0-5.73,1.91-6.41,6.23A20.77,20.77,0,0,0,503,348.36c6.68,4.46,22.09,8.69,29.68,1.19A5.33,5.33,0,0,0,533,343.27Z" fill="#17252a"/><path d="M514.41,298.75c.6-.47-.86-2.36-3-3-3.73-.92-9,1-12.1,3.07s-6.47,4.6-8.1,8.14a55,55,0,0,0-4.45,14.22c-.39,2.42-1.19,5.94.28,8.18a3,3,0,0,0,1.75,1.27,1.47,1.47,0,0,0,1.29-.32s-.32,1.7-.38,2.11a15.86,15.86,0,0,0-.15,2.18,5.42,5.42,0,0,0,1.63,4.35c1.81,1.6,4,.9,5.77-.18,2.2,3,7.28.26,7.63-3,2.41,1.19,4.77-1.34,4.82-3.87,2.79,1.11,3.08-2.07,2.25-6.83-.21-1.19-.39-2.43-.63-3.59a44.48,44.48,0,0,1-.83-14.32A14,14,0,0,1,514.41,298.75Z" fill="#17252a"/><path d="M562.12,326.46c-1.71,1.11-6.16.3-8-1.16a4,4,0,0,1-.48-5.69l.08-.1a14.38,14.38,0,0,1,6.46-3.68,4.69,4.69,0,0,1,4.17,3.06C564.85,321.24,564.46,325,562.12,326.46Z" fill="#17252a"/><path d="M479.93,415.29a5.36,5.36,0,0,0-.12-.87,17.84,17.84,0,0,1-.5-3.92,4.85,4.85,0,0,0-1-3.78,24.62,24.62,0,0,1-2.19-3.34c-1-1.66-2.6-1.92-4.34-2.44a19.46,19.46,0,0,1-4.33-2.33,9.59,9.59,0,0,0-6.32-.77c-1.74.31-2.63,1.56-4.17,2.11s-6.77,1.48-6.22,4c.85-.4,1.34-1.35,2.26-1.79a8.39,8.39,0,0,1,4.24-.45c2.39,0,4.25-1.48,6.71-.89a8.47,8.47,0,0,1,4.2,2.18c1.14,1.17,1,2.15,1.33,3.59s1.33,1.32,2.39,1.9a7.45,7.45,0,0,1,2.56,2.7,6.08,6.08,0,0,1,.72,3.45c-.07.66-.26.9-.28,1.48h0c1.32-.3,2.76.25,4.13-.31A3,3,0,0,0,479.93,415.29Z" fill="#def2f1"/><path id="freepik--Harness--inject-169" d="M484.22,413c-6.83-15.34-7.82-25.82-7.82-25.82l8.41-6.26c6.39,5.82,17.81,11.31,33.05,8.9,13.36-2.1,14.76-7.6,14.76-7.6l1.23-9.29s-6.27,6.88-22,5.18-31.17-19.17-33.24-39l-18.85,14.55s-4,36.37,19.29,62.21A8.55,8.55,0,0,0,484.22,413Z" fill="#17252a"/><path d="M365.6,388.79a1.75,1.75,0,0,1,2.39-.65h0l1.49.87a36.61,36.61,0,0,1,14.84,16.07l4.45,9.55h0L403,444.56a1.75,1.75,0,0,1-.84,2.33,1.57,1.57,0,0,1-.74.16,1.73,1.73,0,0,1-1.59-1l-13.93-29.42-17.48-9.92a1.75,1.75,0,0,1,1.53-3.15l.19.1,13.18,7.42-2.15-4.57A33.14,33.14,0,0,0,367.77,392l-1.48-.86A1.76,1.76,0,0,1,365.6,388.79Z" fill="#fafafa"/><path d="M368.63,405.68c-5,9.38-3.35,21.32-3.18,25.4s-1.85,3.28-3,0-4.22-16.68,1-28.37Z" fill="#ebebeb"/><path d="M378.14,434.84a26.13,26.13,0,0,0-11.87-20.48c-3.44-2-6.51-2.06-8.67-.62h0l-5,2.85,17,28.82,5-2.84h0C376.75,441.35,378.14,438.7,378.14,434.84Z" fill="#455a64"/><path d="M361,417.48A26.13,26.13,0,0,1,372.83,438c0,7.55-5.3,10.61-11.87,6.84s-11.87-13-11.87-20.5S354.43,413.65,361,417.48Z" fill="#3aafa9"/><path d="M361,426.26a9.2,9.2,0,0,1,4.17,7.21c0,2.66-1.87,3.74-4.17,2.41a9.22,9.22,0,0,1-4.16-7.21C356.8,426,358.66,424.9,361,426.26Z" fill="#263238"/><path d="M365.13,405.28c-5,9.39-3.36,21.34-3.18,25.42s-1.87,3.28-3,0-4.21-16.68,1-28.39Z" fill="#fafafa"/><polygon points="343.98 496.99 320.25 483.28 396.2 439.41 419.95 453.12 343.98 496.99" fill="#3aafa9"/><polygon points="310.25 497.13 310.25 502.63 333.98 516.32 333.98 510.85 310.25 497.13" fill="#3aafa9"/><polygon points="310.25 497.13 310.25 502.63 333.98 516.32 333.98 510.85 310.25 497.13" opacity="0.3" style="isolation:isolate"/><polygon points="409.95 466.98 409.95 472.47 333.98 516.32 333.98 510.85 409.95 466.98" fill="#3aafa9"/><polygon points="409.95 466.98 409.95 472.47 333.98 516.32 333.98 510.85 409.95 466.98" opacity="0.15" style="isolation:isolate"/><path d="M295,270l68.73,46.55a21.48,21.48,0,0,1,8,15l7.7,79.79a1.36,1.36,0,0,1-.65,1.25,1.32,1.32,0,0,1-1.38,0h0l-24.86-14.49v-5.23L373.2,405l-9.08-68.27a21.43,21.43,0,0,0-9.68-14.56l-55.4-35C288.4,280.29,285.51,277.46,295,270Z" fill="#3aafa9"/><path d="M295,270l68.73,46.55a21.48,21.48,0,0,1,8,15l7.7,79.79a1.36,1.36,0,0,1-.65,1.25,1.32,1.32,0,0,1-1.38,0h0l-24.86-14.49v-5.23L373.2,405l-9.08-68.27a21.43,21.43,0,0,0-9.68-14.56l-55.4-35C288.4,280.29,285.51,277.46,295,270Z" fill="#110f24"/><path d="M354.44,322.05,299,287c-7.15-4.45-9-9-6.56-13.66-1,3.42.91,6.72,22.53,19.2s44.52,27,47.92,30.76c5.86,6.33,6.1,20.23,8.34,40.07s4,36.64,4.63,42.09c.52,4.53-2,2.43-3.89,1.48-1.61-.81-15.19-9.23-19.45-11.87v-2.31l20.64,12.08-9.08-68.27A21.41,21.41,0,0,0,354.44,322.05Z" opacity="0.2" style="isolation:isolate"/><path d="M314.26,308.76l-2.74-1.58a38.86,38.86,0,0,0-18.69-5.81h-.49a22.55,22.55,0,0,0-3,.17,32.07,32.07,0,0,0-21.91,12.22,3.65,3.65,0,0,0-.29.37c-.2.22-.37.46-.54.68l-.32.48-.42.59c-.24.38-.49.77-.71,1.19-.09.13-.16.28-.25.43l-.32.59h0a31.68,31.68,0,0,0-3.85,15.3v6.2c0,27.3,19.14,60.46,42.77,74.09l2.71,1.58A38.94,38.94,0,0,0,325,421.08h1.87a3.33,3.33,0,0,0,.95-.09h.73a32.1,32.1,0,0,0,22.4-13c.22-.3.43-.61.65-.92l.07-.11c.24-.37.49-.74.72-1.12a31.94,31.94,0,0,0,4.73-16.77v-6.22C357,355.56,337.88,322.39,314.26,308.76Zm-9.4,96.46c-19.93-11.49-36.11-39.48-36.11-62.49s16.18-32.37,36.11-20.86S341,361.39,341,384.41s-16.17,32.37-36.12,20.85Z" fill="#fff"/><path d="M306.23,313.4l-2.72-1.59c-11.69-6.73-22.26-7.42-30-3.13l-.59.36-.15.09c-.24.15-.46.28-.68.44s-.46.31-.68.48a12.56,12.56,0,0,0-1.29,1l-.61.56a13.36,13.36,0,0,0-1.19,1.19l-.56.64-.54.67c-.19.22-.37.46-.53.68l-.33.48-.41.59c-.24.38-.49.77-.72,1.19-.09.13-.16.28-.25.43l-.31.59-.3.59a23.8,23.8,0,0,0-1,2.26,12.35,12.35,0,0,0-.46,1.25h0c-.27.77-.51,1.57-.73,2.39-.12.44-.22.89-.33,1.36s-.23,1-.32,1.57l-.14.76c-.07.45-.13.89-.19,1.34s-.13,1-.18,1.48v.24c0,.44-.09.87-.12,1.32v6.94c0,27.3,19.15,60.46,42.77,74.09l2.72,1.58a38.77,38.77,0,0,0,18.95,5.9h1.48a3.33,3.33,0,0,0,.95-.09h.48a5,5,0,0,0,.95-.14,7.81,7.81,0,0,0,.82-.14,7.6,7.6,0,0,0,.8-.17c.5-.11,1-.25,1.48-.41l.62-.2.69-.25.58-.24a11,11,0,0,0,1.21-.55l.6-.31.14-.09.24-.11c.12,0,.24-.15.37-.21,7.6-4.54,12.28-14.06,12.28-27.55v-3.14C349,360.19,329.79,327,306.23,313.4Zm-1.37,91.86c-19.93-11.53-36.11-39.52-36.11-62.53s16.18-32.37,36.11-20.86S341,361.39,341,384.41,324.81,416.78,304.86,405.26Z" fill="#455a64"/><path d="M331.72,399.36c-5.71,6.79-15.59,7.76-26.86,1.27-17.72-10.22-32.1-35.1-32.1-55.59,0-9.16,2.88-15.86,7.64-19.59-3.32,3.92-5.25,9.78-5.25,17.28,0,20.46,14.38,45.35,32.12,55.59C317.06,404,325.85,404,331.72,399.36Z" fill="#3aafa9"/><path d="M331.72,399.36c-5.71,6.79-15.59,7.76-26.86,1.27-17.72-10.22-32.1-35.1-32.1-55.59,0-9.16,2.88-15.86,7.64-19.59-3.32,3.92-5.25,9.78-5.25,17.28,0,20.46,14.38,45.35,32.12,55.59C317.06,404,325.85,404,331.72,399.36Z" opacity="0.2" style="isolation:isolate"/><path d="M304.86,321.87c-19.94-11.51-36.11-2.18-36.11,20.86s16.17,51,36.11,62.53S341,407.44,341,384.49,324.81,333.39,304.86,321.87Zm0,78.76c-17.72-10.24-32.1-35.13-32.1-55.59s14.38-28.78,32.1-18.54S337,361.63,337,382.1,322.6,410.87,304.86,400.63Z" fill="#3aafa9"/><path d="M335.88,371.92l-.23-1.09-28-7.49-.62-.94,20.55-11.87c-.18-.28-.34-.56-.5-.84l-20.56,11.87-.49-1,7.41-27.66c-.27-.26-.55-.49-.83-.73l-7.29,27.23-1-1.13-7.22-35.11-1.06-.3,7.07,34.61-1.12-.18L282.82,324c-.29.15-.59.3-.87.48l19.29,33.37-.42,1.07-26.71-23.67c-.12.34-.21.7-.31,1l27.07,24,.49,1.49-27.71-7.42a5.68,5.68,0,0,0,.21,1.06l28.2,7.56.63.93-21,12,.48.86,21-12.09.49,1-7.62,28.45.81.75,7.51-28,1,1.12,7.42,36.08,1.06.28-7.28-35.62,1.13.18,19.67,34.14c.3-.17.58-.35.85-.52l-19.66-34.14.41-1.06,26.91,23.86.26-1.09L308.88,366l-.47-1.48Z" fill="#ebebeb"/><path d="M306.73,348.62c-3.43-2-6.5-2.1-8.68-.72-.46.29-1,.54-1.59.88l-.47.3h0a5.58,5.58,0,0,0-.6.49l-.12.12a4.8,4.8,0,0,0-.47.53l-.16.21a4.07,4.07,0,0,0-.37.55l-.18.32a5,5,0,0,0-.28.57l-.18.44a2.16,2.16,0,0,1-.2.55c-.06.19-.1.4-.14.59s-.09.35-.12.52a5.39,5.39,0,0,0-.12.79v1.78c0,7.67,5.4,17,12,20.85a13.32,13.32,0,0,0,1.24.64c.4.18.49.19.72.3l.49.19.48.13.69.2H309l.87.13h0a6.29,6.29,0,0,0,3.92-.92c.58-.34,1.1-.59,1.77-1,2.1-1.27,3.41-3.94,3.41-7.71C318.77,361.79,313.38,352.46,306.73,348.62Zm-3.44,23.13c-2.06-1.61-5-6.48-6.1-9.2.64.42,1.35.89,2.11,1.29,3.13,1.62,3.05-.58,4.33,1s1,5.26,0,7.19A1.56,1.56,0,0,1,303.29,371.75Zm6.1-14.26a3.92,3.92,0,0,0-.51.22L307,358.77a2.39,2.39,0,0,0-.92.92,16.71,16.71,0,0,1-3.21-9c2.7.92,7.19,4.66,7.87,6.12a1.4,1.4,0,0,1,.13.34,8.68,8.68,0,0,0-1.51.34Zm-9.13-1.59c1,3.64,2.52,4.19,2.63,5.38-2.38-.38-6.22-2.69-6.47-5a9.15,9.15,0,0,1,2.07-6.12C299.49,350.69,299.43,352.92,300.26,355.9Zm6.8,19.09c-1.25-1.16.15-2.27.78-4.65a6.28,6.28,0,0,0,0-3.44c2.47,1.94,6.16,7.05,5.21,8.56l-.13.15C310.83,376.16,307.93,375.79,307.06,375Zm5.93-7.93c-2.61-3.48-3.65-2.28-4.29-4.15a2.4,2.4,0,0,1,.87-2.51,3.08,3.08,0,0,1,3.78,1.28,22.78,22.78,0,0,1,2,9c-.68-.93-1.47-2.27-2.47-3.63Z" fill="#e0e0e0"/><path d="M306.73,348.62c-3.43-2-6.5-2.1-8.68-.72-.46.29-1,.54-1.59.88l-.47.3h0a5.58,5.58,0,0,0-.6.49l-.12.12a4.8,4.8,0,0,0-.47.53l-.16.21a4.07,4.07,0,0,0-.37.55l-.18.32a5,5,0,0,0-.28.57l-.18.44a2.16,2.16,0,0,1-.2.55c-.06.19-.1.4-.14.59s-.09.35-.12.52a5.39,5.39,0,0,0-.12.79v1.78c0,7.67,5.4,17,12,20.85a13.32,13.32,0,0,0,1.24.64c.4.18.49.19.72.3l.49.19.48.13.69.2H309l.87.13h0a6.29,6.29,0,0,0,3.92-.92c.58-.34,1.1-.59,1.77-1,2.1-1.27,3.41-3.94,3.41-7.71C318.77,361.79,313.38,352.46,306.73,348.62Zm-3.44,23.13c-2.06-1.61-5-6.48-6.1-9.2.64.42,1.35.89,2.11,1.29,3.13,1.62,3.05-.58,4.33,1s1,5.26,0,7.19A1.56,1.56,0,0,1,303.29,371.75Zm6.1-14.26a3.92,3.92,0,0,0-.51.22L307,358.77a2.39,2.39,0,0,0-.92.92,16.71,16.71,0,0,1-3.21-9c2.7.92,7.19,4.66,7.87,6.12a1.4,1.4,0,0,1,.13.34,8.68,8.68,0,0,0-1.51.34Zm-9.13-1.59c1,3.64,2.52,4.19,2.63,5.38-2.38-.38-6.22-2.69-6.47-5a9.15,9.15,0,0,1,2.07-6.12C299.49,350.69,299.43,352.92,300.26,355.9Zm6.8,19.09c-1.25-1.16.15-2.27.78-4.65a6.28,6.28,0,0,0,0-3.44c2.47,1.94,6.16,7.05,5.21,8.56l-.13.15C310.83,376.16,307.93,375.79,307.06,375Zm5.93-7.93c-2.61-3.48-3.65-2.28-4.29-4.15a2.4,2.4,0,0,1,.87-2.51,3.08,3.08,0,0,1,3.78,1.28,22.78,22.78,0,0,1,2,9c-.68-.93-1.47-2.27-2.47-3.63Z" opacity="0.2" style="isolation:isolate"/><path d="M304.86,349.67c-6.63-3.84-12-.73-12,6.95s5.4,17,12,20.85,12,.72,12-7S311.51,353.51,304.86,349.67Zm-3,.82c2.39,0,8.11,4.67,8.91,6.32s-1.29,1-3.21,1.72c-2.45.86-1.29,3.22-2.73,2.63-2.12-.86-5.34-10.72-3-10.67Zm-3.57-.37c1.21.2,1.07,2.61,2,5.78,1.11,4,2.86,4.28,2.61,5.78-.37,2.19-7.94-1.09-8.31-4.32s2.56-7.45,3.72-7.24Zm3.14,22.67c-2.61-2-6.56-9.27-6.59-10.8s2,.58,4.46,1.85c3.13,1.62,3.05-.58,4.33,1,1.84,2.23.39,10-2.21,8ZM313,375.46c-1.25,2-6.56,1.71-7.81.57s.15-2.26.79-4.65c.81-3-1-4.63,0-5.19,1.51-.82,8.24,7.3,7,9.27ZM311.11,368c-2.61-3.48-3.65-2.28-4.28-4.15-.94-2.73,4.64-5.52,6.48-2.27s2.5,10.38,1.76,11.14-1.9-1.91-4-4.66Z" fill="#e0e0e0"/><path d="M304.86,367.82c2,1.17,3.68.22,3.68-2.12a8.16,8.16,0,0,0-3.68-6.38c-2-1.18-3.68-.23-3.68,2.12A8.13,8.13,0,0,0,304.86,367.82Z" fill="#455a64"/><path d="M287.91,452c-5,9.39-3.34,21.34-3.16,25.42s-1.87,3.28-3,0-4.2-16.68,1-28.39Z" fill="#ebebeb"/><path d="M297.43,481.19c0-7.54-5.3-16.73-11.88-20.5-3.42-2-6.5-2.05-8.66-.61h0l-5,2.85,17,28.82,5-2.83h0C296,487.7,297.43,485,297.43,481.19Z" fill="#455a64"/><path d="M280.26,463.76a26.18,26.18,0,0,1,11.87,20.48c0,7.54-5.3,10.61-11.87,6.83a26.11,26.11,0,0,1-11.88-20.48C268.41,463.05,273.71,460,280.26,463.76Z" fill="#3aafa9"/><path d="M280.26,472.61a9.21,9.21,0,0,1,4.15,7.21c0,2.66-1.85,3.74-4.15,2.4a9.18,9.18,0,0,1-4.17-7.21C276.09,472.38,278,471.29,280.26,472.61Z" fill="#263238"/><path d="M284.41,451.61c-5,9.39-3.35,21.34-3.17,25.42s-1.86,3.28-3,0-4.22-16.68,1-28.39Z" fill="#fafafa"/><path d="M204.59,269.07l6.12-10.58-25.89-15h0a3,3,0,0,0-3.09.28,9.51,9.51,0,0,0-4.33,7.42,3.1,3.1,0,0,0,1.21,2.76h0Z" fill="#455a64"/><path d="M203.34,266.21c0,2.74,1.93,3.87,4.32,2.49a9.57,9.57,0,0,0,4.32-7.49c0-2.76-1.93-3.88-4.32-2.5A9.57,9.57,0,0,0,203.34,266.21Z" fill="#37474f"/><path d="M208.1,262a1.12,1.12,0,0,1,.94-.14l.25.14,17.27,9.9-.28.22-.87.63a19.26,19.26,0,0,0-1.92,1.48l-.5.48-15.69-9-.47-.26a1.28,1.28,0,0,1-.21-.85A3.41,3.41,0,0,1,208.1,262Z" fill="#e0e0e0"/><path d="M260,237.2l6.13-10.59-25.91-15h0a3,3,0,0,0-3.1.26,9.57,9.57,0,0,0-4.32,7.5,3.07,3.07,0,0,0,1.2,2.74h0Z" fill="#455a64"/><path d="M258.78,234.41c0,2.76,1.93,3.87,4.32,2.49a9.55,9.55,0,0,0,4.33-7.42c0-2.76-1.94-3.89-4.33-2.51A9.55,9.55,0,0,0,258.78,234.41Z" fill="#37474f"/><path d="M263.29,230.49a1.19,1.19,0,0,1,.95-.17l.26.17,17.25,9.9a2,2,0,0,1-.28.2c-.28.23-.58.43-.87.64a16.57,16.57,0,0,0-1.9,1.49l-.51.49-15.68-9L262,234a1.31,1.31,0,0,1-.24-.81A3.39,3.39,0,0,1,263.29,230.49Z" fill="#e0e0e0"/><path d="M286.16,402.4,215,361.31a10,10,0,0,1-4.45-7.8v-4.18a10,10,0,0,1,4.45-7.79l71.13-41.07a10,10,0,0,1,9,0l71.13,41.07a10,10,0,0,1,4.45,7.79v4.24a10,10,0,0,1-4.45,7.79l-71.13,41.05A10,10,0,0,1,286.16,402.4Z" fill="#3aafa9"/><path d="M287.48,403a7.05,7.05,0,0,1-1.32-.58L215,361.31a10,10,0,0,1-4.45-7.8v-4.18a10,10,0,0,1,3.64-7.18c-1.59,1.48-1.31,3.34.84,4.58l70.79,40.87Z" opacity="0.3" style="isolation:isolate"/><path d="M370.63,349.33v4.24a9.88,9.88,0,0,1-4.45,7.79l-71.13,41.05a10,10,0,0,1-7.67.55l-1.65-15.36.34.2a9.91,9.91,0,0,0,8.91,0l71.13-41.07c2.16-1.24,2.45-3.17.84-4.58A10,10,0,0,1,370.63,349.33Z" opacity="0.15" style="isolation:isolate"/><path d="M309.25,313.71l-71.14,41.08a9.38,9.38,0,0,1-5.25,1l-.81-.09h-.16l-.46-.07h0l-.7-.2a6.9,6.9,0,0,1-1.48-.64l-3.67-2.12a12.68,12.68,0,0,1-5.4-7.7l-10.82-60.38a7,7,0,0,1-.1-1.12v-.44a7.54,7.54,0,0,1,.49-2.21,8,8,0,0,1,2.37-3.39l.32-.24c.15-.11.31-.21.47-.31L284,235.86a10,10,0,0,1,8.9,0l3.67,2.11a9.36,9.36,0,0,1,2.15,1.76,4.61,4.61,0,0,1,.37.4,15,15,0,0,1,1.31,1.77,3.34,3.34,0,0,1,.25.4l.21.37c.1.18.18.34.27.52s.17.36.25.54l.18.44a.28.28,0,0,0,.07.22,2.91,2.91,0,0,1,.12.39,1.83,1.83,0,0,0,.15.52l.09.38,10.82,60.39A7.88,7.88,0,0,1,309.25,313.71Z" fill="#455a64"/><path d="M221.89,291.9l10.82,60.37a3.4,3.4,0,0,0,5.41,2.52l71.13-41.06a7.92,7.92,0,0,0,3.58-7.7L302,245.64a3.41,3.41,0,0,0-3.64-3.17,3.32,3.32,0,0,0-1.77.65l-71.13,41.06A8,8,0,0,0,221.89,291.9Z" fill="#37474f"/><path d="M236.3,355.52a11,11,0,0,1-3.43.31c-.27,0-.54-.05-.8-.09l-.62-.1h0l-.7-.2a7.24,7.24,0,0,1-1.49-.63l-3.66-2.13a12.64,12.64,0,0,1-5.4-7.7L209.38,284.6a7,7,0,0,1-.11-1.12V283a8,8,0,0,1,.49-2.21L222.45,288a7.31,7.31,0,0,0-.46,3.87l10.82,60.37a3.35,3.35,0,0,0,3.56,3.13A.41.41,0,0,0,236.3,355.52Z" fill="#263238"/><path d="M382.16,386.22c0,3.89-2.55,41.76-2.55,43.53a48.52,48.52,0,0,0,.73,9.16,20,20,0,0,0,1.1,3.79c.52,1.41,1.48,3.36.8,4.66a5.67,5.67,0,0,1-1.49,1.56,12.3,12.3,0,0,1-8.83,2.42,9.19,9.19,0,0,1-4.63-1.62c-2.67-2-3.57-5.37-4.89-8.26-1.49-3.13-.42-4.68-.49-8-.08-3.72-3.27-14.73-7.13-42.83C361.21,384.1,374.74,383.86,382.16,386.22Z" fill="#fff"/><path d="M359.18,447.51a10.33,10.33,0,0,0,.65,4c.44,1.35,5.09,4.69,6.69,6.93s1.81,3.13,3.64,6.19c2,3.38,3.07,7.51,12.32,11.05a28.63,28.63,0,0,0,20,1c4.45-1.26,5.81-3.44,5.81-3.44s1.68-5.3-1.23-6.58S359.18,447.51,359.18,447.51Z" fill="#110f24"/><path d="M383.41,435.63a10.87,10.87,0,0,1,1.29,3.63,25.82,25.82,0,0,0,5.36,8.52c9.88,11.68,19.54,11.71,19,21.52-.3,2.76-5.57,6.71-17.54,6.65-6.12,0-15.24-4.46-17.81-8.42s-3.68-7.31-5.8-10.19-7.42-6.49-8.65-9.83a14.08,14.08,0,0,1-.27-6.16c.21-1.66,1.25-4.83,1.48-6.5s0-2.86,1.49-3l.59,2.61c1.23,4.32,2.11,4.08,3.67,5.22a30.74,30.74,0,0,1,4.24,4.59c-.7-3-1.84-4.81-.3-6.19s3.58-2,7.54-2.63S382.82,435,383.41,435.63Z" fill="#3aafa9"/><path d="M391.5,476c-6.12,0-15.24-4.46-17.81-8.42a35.46,35.46,0,0,1-2.34-4c.19.24.38.51.56.7.4.43.8.86,1.23,1.26a13.46,13.46,0,0,0,5.8,3.62c2,.49,6.89,1.86,8.54,0a3.77,3.77,0,0,0-.34-4.32c-.39-.61-1.58-2-1.58-2a22.63,22.63,0,0,1,6.16-3.49,22,22,0,0,1,6.46-1.35,9.44,9.44,0,0,0,2.45,2.09,7.83,7.83,0,0,0,3.35.91,5.91,5.91,0,0,0,1.16-.27,9.77,9.77,0,0,1,4,8.76C408.74,472.06,403.47,476,391.5,476Z" fill="#17252a"/><path d="M390.06,447.78a52.1,52.1,0,0,0,8.83,8.15c2.17,3.44,1.33,4.33-.33,3.22s-6.51-8.28-10.65-14.06C388.62,446,389.35,446.93,390.06,447.78Z" fill="#17252a"/><path d="M363.58,440.46a8.35,8.35,0,0,1-3.39-4.54c.08-.38.16-.75.22-1.05.27-1.8,0-2.88,1.48-3l.6,2.61c1.23,4.32,2.1,4.08,3.66,5.23a30.73,30.73,0,0,1,4.25,4.58c4.17,5.23,5,7.67,9.39,12s8.4,5.93,8.13,6.85-1.9,1.84-5.93-.95-9.23-9.63-11.36-13.26S365.84,441.84,363.58,440.46Z" fill="#17252a"/><path d="M385.56,463.26a.69.69,0,0,0,.34-.14,20,20,0,0,1,12.54-4.55.63.63,0,0,0,.6-.64.6.6,0,0,0-.62-.59h0A21.3,21.3,0,0,0,385,462.19a.62.62,0,0,0-.07.86A.58.58,0,0,0,385.56,463.26Z" fill="#ebebeb"/><path d="M382,459.47a.61.61,0,0,0,.32-.13,22.22,22.22,0,0,1,13.36-4.64.61.61,0,0,0,.6-.6s0,0,0-.06a.62.62,0,0,0-.65-.59h0a23.34,23.34,0,0,0-14,4.91.63.63,0,0,0-.09.89A.58.58,0,0,0,382,459.47Z" fill="#ebebeb"/><path d="M377.52,456.06a.64.64,0,0,0,.36-.15,24.32,24.32,0,0,1,14.66-5.12.71.71,0,0,0,.65-.73.68.68,0,0,0-.7-.66h0A25.76,25.76,0,0,0,377,454.83a.69.69,0,0,0-.12,1l0,0A.74.74,0,0,0,377.52,456.06Z" fill="#ebebeb"/><path d="M374.31,452.44a.68.68,0,0,0,.36-.15,24.12,24.12,0,0,1,14.37-5,.67.67,0,0,0,.57-.77.69.69,0,0,0-.57-.58,25.35,25.35,0,0,0-15.17,5.32.69.69,0,0,0-.11.95A.7.7,0,0,0,374.31,452.44Z" fill="#ebebeb"/><path d="M371.64,448.15A.68.68,0,0,0,372,448a23.82,23.82,0,0,1,14.36-5,.69.69,0,1,0,0-1.37A25.26,25.26,0,0,0,371.2,447a.67.67,0,0,0,.44,1.2Z" fill="#ebebeb"/><path d="M346.5,398c0,3.88,1.61,43,1.84,48.32a95.43,95.43,0,0,0,1.38,10.38,21,21,0,0,0,1.12,3.8c.5,1.49,1.48,3.36.78,4.66a5.38,5.38,0,0,1-1.48,1.49,12.36,12.36,0,0,1-8.83,2.43,9.19,9.19,0,0,1-4.63-1.62c-2.69-2-3.58-5.38-4.91-8.26-1.49-3.15-.4-4.69-.48-8-.07-3.72-12.6-45.54-13.18-49.22C324.55,395.45,339.08,395.66,346.5,398Z" fill="#fff"/><path d="M373.44,347.49c-8-5.83-44.4-24.46-63.18-36.17-4.26-2.65-7.51-8.66-7.51-8.66l-1.48-3.06c-19.47,1.48-43.2,9.56-59.85,10.6,0,10.93-.09,24.42,5.39,34,3.56,6.25,12,13.36,17.45,15.9a550.72,550.72,0,0,0,51.42,21.21c-1.07,4.8.4,14.76,1.81,21,1.78,7.89,5.76,20.06,8.64,28.57,6.19,4.7,19-.29,21.47-3.48-.61-15.06-.81-34.8-1.16-52.12l7.75,2.41a56,56,0,0,0,.07,13c1.13,8,2.28,16.8,4.46,26.5,6.19,4.71,19.29,3.45,21.77.26,1-14.34,2.56-27.19,3-45.1C384,356.63,381.48,353.37,373.44,347.49Z" fill="#3aafa9"/><path d="M373.44,347.49c-8-5.83-44.4-24.46-63.18-36.17-4.26-2.65-7.51-8.66-7.51-8.66l-1.48-3.06c-19.47,1.48-43.2,9.56-59.85,10.6,0,10.93-.09,24.42,5.39,34,3.56,6.25,12,13.36,17.45,15.9a550.72,550.72,0,0,0,51.42,21.21c-1.07,4.8.4,14.76,1.81,21,1.78,7.89,5.76,20.06,8.64,28.57,6.19,4.7,19-.29,21.47-3.48-.61-15.06-.81-34.8-1.16-52.12l7.75,2.41a56,56,0,0,0,.07,13c1.13,8,2.28,16.8,4.46,26.5,6.19,4.71,19.29,3.45,21.77.26,1-14.34,2.56-27.19,3-45.1C384,356.63,381.48,353.37,373.44,347.49Z" fill="#17252a"/><path d="M328.58,465.26a9.88,9.88,0,0,0,.65,4c.43,1.37,5.07,4.71,6.69,6.95a69.66,69.66,0,0,1,3.64,6.19c2,3.38,3.05,7.51,12.32,11.05a28.63,28.63,0,0,0,20,1c4.45-1.28,5.81-3.45,5.81-3.45s1.68-5.29-1.23-6.57S328.58,465.26,328.58,465.26Z" fill="#110f24"/><path d="M352.81,453.37A11.56,11.56,0,0,1,354.1,457a25.63,25.63,0,0,0,5.36,8.5c9.87,11.68,19.54,11.73,19,21.54-.28,2.74-5.55,6.7-17.52,6.65-6.13,0-15.26-4.46-17.81-8.42s-3.68-7.32-5.82-10.19-7.42-6.49-8.63-9.83a13.68,13.68,0,0,1-.33-6.23c.19-1.66,1.23-4.82,1.48-6.49s0-2.86,1.49-3l.59,2.61c1.23,4.32,2.11,4.06,3.67,5.22a30.74,30.74,0,0,1,4.24,4.59c-.7-3-1.84-4.81-.3-6.19s3.57-2,7.54-2.63S352.2,452.74,352.81,453.37Z" fill="#3aafa9"/><path d="M361,493.7c-6.13,0-15.26-4.46-17.81-8.42a41.9,41.9,0,0,1-2.36-4c.21.24.39.5.56.7.4.43.82.84,1.25,1.26a13.56,13.56,0,0,0,5.8,3.62c2,.49,6.89,1.85,8.52-.07.94-1.09.58-2.9-.33-4.32-.38-.6-1.58-2-1.58-2a22.28,22.28,0,0,1,12.61-4.84,9.41,9.41,0,0,0,2.45,2.08,8,8,0,0,0,3.35.92,5.34,5.34,0,0,0,1.18-.28,9.77,9.77,0,0,1,3.94,8.77C378.14,489.79,372.83,493.75,361,493.7Z" fill="#17252a"/><path d="M359.47,465.51a50.18,50.18,0,0,0,8.83,8.15c2.17,3.46,1.32,4.33-.34,3.24s-6.51-8.28-10.64-14.06C358,463.78,358.75,464.68,359.47,465.51Z" fill="#17252a"/><path d="M333,458.21a8.26,8.26,0,0,1-3.39-4.54c.08-.38.16-.76.2-1.07.27-1.79,0-2.86,1.49-3l.59,2.62c1.23,4.32,2.11,4.06,3.67,5.22a30.74,30.74,0,0,1,4.24,4.59c4.17,5.22,5,7.67,9.39,12s8.39,5.94,8.14,6.86-1.9,1.84-5.94-.95-9.23-9.63-11.37-13.27S335.24,459.59,333,458.21Z" fill="#17252a"/><path d="M355,481a.59.59,0,0,0,.33-.15,20.18,20.18,0,0,1,12.55-4.56.64.64,0,0,0,.6-.62.61.61,0,0,0-.63-.59h0a21.28,21.28,0,0,0-13.36,4.83.63.63,0,0,0-.07.88A.68.68,0,0,0,355,481Z" fill="#ebebeb"/><path d="M351.42,477.22a.64.64,0,0,0,.32-.13,22.17,22.17,0,0,1,13.36-4.65.62.62,0,0,0,.61-.63v0a.64.64,0,0,0-.66-.61,23.47,23.47,0,0,0-14,4.93.64.64,0,0,0-.1.88A.59.59,0,0,0,351.42,477.22Z" fill="#ebebeb"/><path d="M346.92,473.87a.56.56,0,0,0,.35-.15,24.47,24.47,0,0,1,14.65-5.12.68.68,0,0,0,.67-.7h0a.7.7,0,0,0-.73-.67h0a25.89,25.89,0,0,0-15.46,5.43.69.69,0,0,0-.13,1,.68.68,0,0,0,.65.26Z" fill="#ebebeb"/><path d="M343.64,470.19A.74.74,0,0,0,344,470a23.9,23.9,0,0,1,14.37-5,.69.69,0,0,0,.65-.71.68.68,0,0,0-.71-.65h0A25.21,25.21,0,0,0,343.15,469a.66.66,0,0,0-.11.93v0A.65.65,0,0,0,343.64,470.19Z" fill="#ebebeb"/><path d="M341,465.9a.59.59,0,0,0,.34-.15,24,24,0,0,1,14.37-5,.68.68,0,0,0,.57-.78.67.67,0,0,0-.57-.57,25.27,25.27,0,0,0-15.17,5.31.69.69,0,0,0-.11,1h0A.75.75,0,0,0,341,465.9Z" fill="#ebebeb"/><path d="M349.68,376.26c-1.25-11.87-2.06-16-9.71-22-5.31-4.16-36.47-20.14-36.47-20.14s4.45-6.62,2.67-11.3c-1.49,6.39-4.07,8.91-8.91,12.63,0,0,36.78,18.85,39.76,20.78s6.57,5.06,7.67,8.38a53.48,53.48,0,0,1,1.84,10.65Z" fill="#110f24"/><path d="M283.55,234.33c11-1.73,17.42,4.25,29.28,15.73l18.45,18s12.74-24.56,13.18-28.39c.51-4.62-1.34-7.42-1.68-12.45s.18-8.25-.83-10.39,3.11-2.29,4.55.4,1.32,6.31,2.53,5.76,2.65-8.21,2.16-13.85,2.73-6.82,3.74-4.95a15.35,15.35,0,0,1,1.31,3.13,12.16,12.16,0,0,1,1.48-.15,2.37,2.37,0,0,1,2,.7,20.57,20.57,0,0,0,1.48,1.76,12.71,12.71,0,0,0,2,1.16c4.87,2.89,3.76,11.58,3.18,16.18-1.2,9.58-5.94,14-7.57,17.46-.58,1.26-1.4,5.58-3.7,14.5-2.61,10.18-4.85,20.67-10.38,30.65-4.69,8.34-10.84,6.87-16.94,3C319.15,287,294.41,267,294.41,267,285.36,253.68,283.55,234.33,283.55,234.33Z" fill="#fff"/><path d="M351.77,226.87s4.31,6.81.28,13.35c0,0,3.27-1.64,3-7.52A7.73,7.73,0,0,0,351.77,226.87Z" fill="#def2f1"/><path d="M331.28,268s-3.49,5-3.49,14.84a20.57,20.57,0,0,1,1.6-16.59Z" fill="#def2f1"/><path id="freepik--Hair--inject-169" d="M263.1,170.09c-2.27-4.59-13.88-5.26-19.69,1.66s-1.49,7.26-10.29,14.1a14.46,14.46,0,0,0-4.24,17.32c2.46,5.7-1.28,9.48-4.74,13.72-2.19,2.68-4,6.36-2.53,9.47,1.33,2.78,5,4.34,5.25,7.42.16,1.93-1.17,3.64-2,5.4A12.46,12.46,0,0,0,227.22,252a18.8,18.8,0,0,0,8.65,5.37c3,1,5.31,2.78,8.49,3.43,6.5,1.34,14.11.77,19.62-3.25,10-7.33,10.22-15.62,7.42-23.33s1.48-11.63,2.76-20.55-1-15.6-4.66-22.51S263.1,170.09,263.1,170.09Z" fill="#17252a"/><path d="M309.91,310.83l-9-11.87-.22-17c9.35-6.06,8.63-17,4.82-23.75-4.24-7.52-13.36-16.91-21.95-23.9l-6.37.32L256,237.91l-10.58,3c4.63,6.38,8,14.08,4.87,23.95A16.57,16.57,0,0,1,237.5,276a110.13,110.13,0,0,0,2.41,19c2.4,11.41-.46,22.53,2.09,37,13.71,4.89,36.42,4.89,51.7-3.37C308.73,320.46,309.91,310.83,309.91,310.83Z" fill="#3aafa9"/><path d="M286.22,284.09c-6.22,5.94-18.37,7.14-25.23-.64,0,0,1.7,7.81,12.29,8.09S286.22,284.09,286.22,284.09Z" opacity="0.2" style="isolation:isolate"/><path d="M250.93,182.05c-4.08-3.76,4.45-11.38,10.39-11.87s5.37,4.2,5.37,4.2Z" fill="#3aafa9"/><path d="M297.35,181.32c-2.77-4.09-7.76-5.55-10.58-4.24-2.51-3.47-7.64-5.48-11.87-5.79-16.21-1.16-21.52,6.78-22.44,9.75-7.67,1-16.32,13.64-8.82,28.2,3.31,6.38,10.56,14,11.14,17.67l9.21-1.2a18.28,18.28,0,0,1,11.87-15c11.19-4.26,17.53-6.93,19.3-9.17A16.33,16.33,0,0,0,297.35,181.32Z" fill="#17252a"/><path d="M295.11,193.79a40,40,0,0,1,.71,5.34,84,84,0,0,1,.2,10.76c-.64,12.78-4.6,16.74-8,18.31-2.14,1-5.37,1.31-10.14,1l-.38,7.6s9.27,8.83-1.18,11.71a18.49,18.49,0,0,1-15.24-3.07,21.48,21.48,0,0,1-6.23-7.82l-.09-18.08s-5.21,2.64-8.9-1.48c-3.42-3.82-4-8.6-1.07-11.74s8.35-2.64,11,1.7c1.87,3.09,2.26.6,3.43-2.86s2.82-4.75,4-6.6c4.14-6.31,1.8-7.42,6.31-11.62a8.1,8.1,0,0,1,10.39.4c.53.5,1.22,1.18,1.8,1.63C285.36,183.34,293.2,184.78,295.11,193.79Z" fill="#fff"/><path d="M283.79,186.72c-2.21,1.62-.92,6.25-2.14,9.83-.83,2.42-2.58,5-5.53,5a9.36,9.36,0,0,0,3.68-7.87c0-3.05-.76-6.24.68-8.08S283.79,186.72,283.79,186.72Z" fill="#263238"/><path d="M277.85,229.18c-9.27-1.07-18.39-4.55-20.58-9.91.19.53.32,5.46,4.52,8.19,5.72,3.71,15.91,4.6,15.91,4.6Z" fill="#def2f1"/><path d="M288.8,432.23a1.73,1.73,0,0,1,2.37-.65h0l1.49.86a36.67,36.67,0,0,1,14.84,16.07l4.52,9.56h0L326.23,488a1.75,1.75,0,0,1-.83,2.33,1.72,1.72,0,0,1-2.32-.79l0,0-13.94-29.4-17.53-10a1.73,1.73,0,0,1-.66-2.36v0a1.77,1.77,0,0,1,2.39-.66l13.18,7.42-2.17-4.57A33.15,33.15,0,0,0,291,435.4l-1.49-.87A1.74,1.74,0,0,1,288.8,432.23Z" fill="#fafafa"/><path d="M214.42,313.59l1.24,6.83,63.53,43.39a21.46,21.46,0,0,1,8,15l7.7,79.81a1.33,1.33,0,0,1-.65,1.23,1.28,1.28,0,0,1-1.38,0h0L268,445.35v-5.23l20.64,12.08-9.08-68.26a21.41,21.41,0,0,0-9.68-14.56l-55.4-35C203.87,327.57,204.94,321,214.42,313.59Z" fill="#3aafa9"/><path d="M214.42,313.59l1.24,6.83,63.53,43.39a21.46,21.46,0,0,1,8,15l7.7,79.81a1.33,1.33,0,0,1-.65,1.23,1.28,1.28,0,0,1-1.38,0h0L268,445.35v-5.23l20.64,12.08-9.08-68.26a21.41,21.41,0,0,0-9.68-14.56l-55.4-35C203.87,327.57,204.94,321,214.42,313.59Z"/><path d="M269.91,369.33l-55.4-35c-7.15-4.53-9-9-6.56-13.68-1,3.43.89,6.73,22.53,19.2s44.52,27,47.92,30.78c5.86,6.32,6.1,20.21,8.34,40.07s4,36.65,4.63,42.1c.52,4.53-2,2.42-3.89,1.48-1.61-.81-15.19-9.21-19.45-11.87v-2.31l20.64,12.08L279.59,384A21.4,21.4,0,0,0,269.91,369.33Z" fill="#110f24"/><path d="M229.38,358l-2.71-1.57A39,39,0,0,0,208,350.69h-.49a26.56,26.56,0,0,0-3,.17,32,32,0,0,0-21.91,12.23l-.31.37a5.82,5.82,0,0,0-.52.68c-.12.16-.22.33-.34.47l-.4.6c-.25.38-.49.77-.73,1.17a4.92,4.92,0,0,1-.24.45c-.08.14-.2.38-.32.59h0a32.06,32.06,0,0,0-3.86,15.3v6.2c0,27.29,19.14,60.46,42.77,74.09l2.73,1.58a38.9,38.9,0,0,0,18.7,5.82h1.85a4.3,4.3,0,0,0,1-.07h.73A31.94,31.94,0,0,0,266,457.23c.22-.29.44-.61.65-.92v-.12c.25-.35.49-.72.73-1.11a32,32,0,0,0,4.79-16.83V432C272.15,404.82,253,371.65,229.38,358ZM220,454.58c-19.94-11.52-36.1-39.52-36.1-62.54s16.19-32.44,36.1-20.91,36.11,39.52,36.11,62.54S240,466,220,454.58Z" fill="#fff"/><path d="M221.37,362.66l-2.73-1.58c-11.68-6.75-22.26-7.42-30-3.13a4.54,4.54,0,0,0-.6.36l-.15.09-.69.44-.67.48a12.56,12.56,0,0,0-1.29,1l-.61.55a16.84,16.84,0,0,0-1.19,1.2c-.21.21-.38.43-.56.64s-.37.43-.55.67a5.82,5.82,0,0,0-.52.68c-.12.16-.22.33-.34.48l-.4.59c-.25.38-.49.77-.73,1.17a4.92,4.92,0,0,1-.24.45c-.09.14-.2.38-.32.59l-.3.59c-.36.72-.68,1.49-1,2.24-.16.42-.33.84-.46,1.27h0c-.27.77-.5,1.57-.71,2.39-.12.44-.24.89-.34,1.35s-.23,1.05-.33,1.58l-.13.76c-.08.45-.14.88-.2,1.32s-.13,1-.17,1.49v.23c0,.45-.08.88-.11,1.32v.54a10.69,10.69,0,0,1-.07,1.48,13.19,13.19,0,0,0,0,1.78v3.15c0,27.29,19.14,60.46,42.77,74.08l2.73,1.59a38.65,38.65,0,0,0,19.08,5.83H242a4.35,4.35,0,0,0,1-.07h.48l.93-.14.83-.14a7.1,7.1,0,0,0,.8-.17c.51-.12,1-.25,1.49-.41l.62-.2.68-.25.57-.24a10.16,10.16,0,0,0,1.22-.55,4.75,4.75,0,0,0,.59-.31l.16-.09.22-.13.39-.21c7.58-4.45,12.27-14,12.27-27.53v-3.14C264.14,409.45,245,376.28,221.37,362.66ZM220,454.58c-19.94-11.52-36.1-39.52-36.1-62.54s16.19-32.44,36.1-20.91,36.11,39.52,36.11,62.54S240,466,220,454.58Z" fill="#455a64"/><path d="M246.87,448.64c-5.72,6.8-15.62,7.76-26.87,1.28-17.8-10.24-32.1-35.13-32.1-55.61,0-9.14,2.88-15.86,7.63-19.57-3.31,3.88-5.24,9.73-5.24,17.24,0,20.46,14.37,45.35,32.1,55.59C232.19,453.24,241,453.23,246.87,448.64Z" fill="#3aafa9"/><path d="M246.87,448.64c-5.72,6.8-15.62,7.76-26.87,1.28-17.8-10.24-32.1-35.13-32.1-55.61,0-9.14,2.88-15.86,7.63-19.57-3.31,3.88-5.24,9.73-5.24,17.24,0,20.46,14.37,45.35,32.1,55.59C232.19,453.24,241,453.23,246.87,448.64Z" opacity="0.2" style="isolation:isolate"/><path d="M220,371.13C200.06,359.6,183.9,369,183.9,392s16.16,51,36.07,62.6,36.11,2.18,36.11-20.78S240,382.65,220,371.13Zm0,78.76c-17.8-10.24-32.09-35.13-32.09-55.59s14.39-28.77,32.09-18.54,32.1,35.13,32.1,55.59S237.78,460.13,220,449.89Z" fill="#3aafa9"/><path d="M251,421.17a4.55,4.55,0,0,0-.24-1.08l-28-7.5-.63-.93,20.55-11.87-.5-.85L221.7,410.81l-.49-1,7.42-27.69-.83-.74-7.31,27.2-1-1.11-7.18-35.07-1.07-.3,7.08,34.6-1.13-.17-19.29-33.37c-.29.16-.58.31-.86.49L216.35,407l-.41,1.07-26.71-23.67c-.11.34-.21.68-.3,1.06l27.07,24,.47,1.49-27.7-7.42a5.71,5.71,0,0,0,.2,1.08l28.2,7.55.64.94-21,12.09.48.86,21-12.09.49,1-7.63,28.45.83.74,7.51-28,1,1.13,7.42,36.08,1,.28L221.68,418l1.11.18,19.7,34.14c.28-.15.56-.33.84-.51L223.66,417.7l.41-1.06L251,440.51c.1-.36.19-.71.28-1.09L224,415.21l-.47-1.49Z" fill="#ebebeb"/><path d="M221.86,397.87c-3.41-2-6.49-2.09-8.68-.73-.45.3-1,.54-1.59.89-.16.1-.31.19-.46.3H211a4.55,4.55,0,0,0-.58.49l-.13.12c-.17.17-.33.35-.48.53l-.16.21c-.12.18-.25.36-.37.55l-.18.33c-.09.18-.19.37-.27.56l-.17.45c-.06.15-.14.35-.2.55s-.1.4-.15.59l-.13.52a7.76,7.76,0,0,1-.1.79,2.08,2.08,0,0,0,0,.44,10,10,0,0,0,0,1.34c0,7.67,5.38,17,12,20.85.42.23.83.46,1.23.64l.72.29.49.19.49.14.68.18H224l.86.13h0a6.32,6.32,0,0,0,3.91-.92c.6-.34,1.12-.59,1.77-1,2.12-1.28,3.41-3.94,3.41-7.71C233.89,411.05,228.51,401.72,221.86,397.87ZM218.49,421c-2.08-1.62-5-6.49-6.1-9.2a21.63,21.63,0,0,0,2.11,1.29c3.13,1.62,3-.58,4.32.95s1,5.25,0,7.18A1.9,1.9,0,0,1,218.49,421Zm6.1-14.26a3.38,3.38,0,0,0-.52.22l-1.84,1a2.39,2.39,0,0,0-.92.92,16.6,16.6,0,0,1-3.21-9,20.24,20.24,0,0,1,7.87,6.11,2.37,2.37,0,0,1,.13.34,6.6,6.6,0,0,0-1.57.35Zm-9.14-1.59c1,3.63,2.54,4.18,2.63,5.37-2.36-.37-6.21-2.69-6.48-5a9.29,9.29,0,0,1,2.08-6.11c.95.44.89,2.72,1.71,5.7Zm6.81,19.07c-1.26-1.14.13-2.26.77-4.63a6.52,6.52,0,0,0,0-3.45c2.47,2,6.16,7.05,5.21,8.57a.79.79,0,0,1-.12.15c-2.21.55-5,.17-5.92-.64Zm5.94-7.91c-2.63-3.49-3.65-2.29-4.29-4.16a2.39,2.39,0,0,1,.84-2.51,3.11,3.11,0,0,1,3.8,1.28,22.66,22.66,0,0,1,2,9c-.74-1-1.53-2.27-2.52-3.59Z" fill="#e0e0e0"/><path d="M221.86,397.87c-3.41-2-6.49-2.09-8.68-.73-.45.3-1,.54-1.59.89-.16.1-.31.19-.46.3H211a4.55,4.55,0,0,0-.58.49l-.13.12c-.17.17-.33.35-.48.53l-.16.21c-.12.18-.25.36-.37.55l-.18.33c-.09.18-.19.37-.27.56l-.17.45c-.06.15-.14.35-.2.55s-.1.4-.15.59l-.13.52a7.76,7.76,0,0,1-.1.79,2.08,2.08,0,0,0,0,.44,10,10,0,0,0,0,1.34c0,7.67,5.38,17,12,20.85.42.23.83.46,1.23.64l.72.29.49.19.49.14.68.18H224l.86.13h0a6.32,6.32,0,0,0,3.91-.92c.6-.34,1.12-.59,1.77-1,2.12-1.28,3.41-3.94,3.41-7.71C233.89,411.05,228.51,401.72,221.86,397.87ZM218.49,421c-2.08-1.62-5-6.49-6.1-9.2a21.63,21.63,0,0,0,2.11,1.29c3.13,1.62,3-.58,4.32.95s1,5.25,0,7.18A1.9,1.9,0,0,1,218.49,421Zm6.1-14.26a3.38,3.38,0,0,0-.52.22l-1.84,1a2.39,2.39,0,0,0-.92.92,16.6,16.6,0,0,1-3.21-9,20.24,20.24,0,0,1,7.87,6.11,2.37,2.37,0,0,1,.13.34,6.6,6.6,0,0,0-1.57.35Zm-9.14-1.59c1,3.63,2.54,4.18,2.63,5.37-2.36-.37-6.21-2.69-6.48-5a9.29,9.29,0,0,1,2.08-6.11c.95.44.89,2.72,1.71,5.7Zm6.81,19.07c-1.26-1.14.13-2.26.77-4.63a6.52,6.52,0,0,0,0-3.45c2.47,2,6.16,7.05,5.21,8.57a.79.79,0,0,1-.12.15c-2.21.55-5,.17-5.92-.64Zm5.94-7.91c-2.63-3.49-3.65-2.29-4.29-4.16a2.39,2.39,0,0,1,.84-2.51,3.11,3.11,0,0,1,3.8,1.28,22.66,22.66,0,0,1,2,9c-.74-1-1.53-2.27-2.52-3.59Z" opacity="0.2" style="isolation:isolate"/><path d="M220,398.93c-6.64-3.85-12-.73-12,6.94s5.39,17,12,20.85,12,.73,12-6.94S226.65,402.75,220,398.93Zm-3,.81c2.37,0,8.1,4.68,8.9,6.32s-1.31,1-3.22,1.72c-2.43.87-1.28,3.23-2.72,2.63C217.88,409.55,214.65,399.67,217,399.74Zm-3.59-.37c1.23.21,1.08,2.61,2,5.79,1.12,4,2.87,4.27,2.63,5.77-.37,2.2-7.95-1.08-8.31-4.33s2.52-7.44,3.74-7.23Zm3.14,22.68c-2.6-2-6.54-9.28-6.57-10.81s2,.58,4.45,1.86c3.13,1.62,3-.58,4.32.95,1.88,2.21.43,10-2.18,8Zm11.58,2.67c-1.25,2-6.55,1.7-7.81.56s.15-2.25.8-4.64c.8-3-1-4.63,0-5.2,1.58-.81,8.27,7.3,7,9.28Zm-1.92-7.42c-2.61-3.49-3.65-2.29-4.29-4.16-.93-2.73,4.65-5.52,6.49-2.27s2.49,10.39,1.75,11.15-1.87-1.92-3.93-4.66Z" fill="#e0e0e0"/><path d="M220,417.07c2,1.18,3.69.23,3.69-2.12a8.14,8.14,0,0,0-3.69-6.38c-2-1.17-3.68-.22-3.68,2.12A8.13,8.13,0,0,0,220,417.07Z" fill="#455a64"/><path d="M261.07,337.52c3.23,1.64,7.57.75,12.42,1.78s7.89,2.42,10.24,2,1.36,3.62-1.62,4.27-6.42-.44-6.22.86,7.16,4.8,12.72,5.94,5.82,4.45,3.74,4.94a15.86,15.86,0,0,1-3.37.42,8.21,8.21,0,0,1-.27,1.48,2.31,2.31,0,0,1-1.23,1.78,21,21,0,0,0-2.09.94,11.87,11.87,0,0,0-1.6,1.57c-4.11,3.9-12.16.45-16.42-1.35-8.9-3.77-11-8.9-15.83-11.87s-23.48-13.21-33.87-19.81c-8.4-5.33-7.68-8.05-4.55-20.45,2.73-10.79,11.29-41.38,14-51.17,3.13-11.25,7.29-15.81,18.35-18.06,5.74,4.54,10.75,20.77,1.58,38.12l-11,37.22s2.59,2.64,12,11C254.86,333.32,257.83,335.85,261.07,337.52Z" fill="#fff"/><path d="M235.94,316.19s-5.65-3.58-15.3-.33c0,0,5.17-5.52,16-1.9Z" fill="#def2f1"/><path d="M272.18,139.68l-4.58-8.62,3.69-10.66v-6.53L260,120.4v6.52l4.87,8.41a.64.64,0,0,0,.33.3h0Z" fill="#3aafa9"/><path d="M272.18,139.68l-4.58-8.62,3.69-10.66v-6.53L260,120.4v6.52l4.87,8.41a.64.64,0,0,0,.33.3h0Z" opacity="0.3" style="isolation:isolate"/><path d="M293.29,67.91A7.48,7.48,0,0,0,289.9,62l-2.76-1.59a7.38,7.38,0,0,0-6.78,0L240.75,83.24a7.43,7.43,0,0,0-3.4,5.94v44.09a7.54,7.54,0,0,0,3.4,5.94l2.75,1.58a7.38,7.38,0,0,0,6.78,0l16.8-9.73,4.84,8.37a.71.71,0,0,0,1,.28.68.68,0,0,0,.34-.42l5.14-14.84,11.53-6.64a7.44,7.44,0,0,0,3.38-5.94Z" fill="#3aafa9"/><path d="M258,105.1a19.57,19.57,0,0,1,1.62-7.58h0a13.11,13.11,0,0,1,4.84-6.25c3.29-1.94,6.05,2,6.5,6.68.38-5.15,3.08-12.32,6.39-14.25a3.62,3.62,0,0,1,4.87.48h0a8.6,8.6,0,0,1,1.66,5.65c0,7.9-4.7,15-8.67,22.56l-4.18,7.89-4.23-3C262.86,114.54,258.08,113,258,105.1Z" fill="#fafafa"/><path d="M237.38,133.19a7.43,7.43,0,0,0,3.4,5.94l2.75,1.59a7.54,7.54,0,0,0,6.2.27c-1.6.6-2.81-.3-2.81-2.23V94.61a7,7,0,0,1,1-3.34l-9.52-5.5a7,7,0,0,0-1,3.33Z" opacity="0.3" style="isolation:isolate"/><path d="M293.17,67c-.39-1.49-1.69-1.9-3.27-1l-39.59,22.8a6.58,6.58,0,0,0-2.39,2.52l-9.53-5.49a6.93,6.93,0,0,1,2.36-2.54l39.61-22.79a7.56,7.56,0,0,1,6.78,0l2.76,1.6A7.43,7.43,0,0,1,293.17,67Z" fill="#fff" opacity="0.3" style="isolation:isolate"/></g></svg>