<svg id="Layer_3" data-name="Layer 3" xmlns="http://www.w3.org/2000/svg" viewBox="0 0 500 500"><title>ENABLE UPDATED</title><rect x="5.55" y="-1.22" width="500" height="500" fill="#3aafa9"/><path d="M183.07,385.84l17.32-77.72A65.06,65.06,0,0,1,235.8,263.6l51.1-24.44L339.32,261a69.22,69.22,0,0,1,41.16,49.71l15.76,75.17Z" fill="#2b7a78"/><path d="M254.51,361s13.67-17.92,20.24-16.78,18.72,22.58,18.72,22.58h54.19l1.53-13.72s34.67,6.29,47.05,32.77H260.61Z" fill="#fff"/><path d="M349.19,354.73a1.66,1.66,0,0,1-1.66-1.49L342.83,307a1.66,1.66,0,1,1,3.3-.34l4.71,46.26a1.67,1.67,0,0,1-1.49,1.83Z" fill="#17252a"/><path d="M262.61,231.35v36s-2.57,22.29,11.71,20.29,29.45-41.47,29.45-41.47l-2.36-35Z" fill="#fff"/><polygon points="303.25 238.25 262.63 264.29 262.63 231.34 301.39 211.13 303.25 238.25" fill="#def2f1"/><ellipse cx="268.74" cy="192.61" rx="53.43" ry="37.36" transform="translate(-7.91 373.69) rotate(-68.84)" fill="#fff"/><path d="M308.31,186s-19.89-10.88-30.75-36.22c0,0-50.86,39.82-62.86,15.43s17.71-43.62,21.14-27.05c0,0,27.4-44.38,72.47-14.86S308.31,186,308.31,186Z" fill="#17252a"/><path d="M315.68,198c-2.9,8.07-9.07,13.24-13.78,11.55s-6.2-9.61-3.3-17.68,9.07-13.24,13.78-11.55S318.58,189.92,315.68,198Z" fill="#fff"/><rect x="90.59" y="319.92" width="48.58" height="65.93" fill="#042e3c"/><path d="M72.15,353.11a10.41,10.41,0,0,0,18.44,6.61v14a21.58,21.58,0,0,1-8,1.5,22.11,22.11,0,1,1,0-44.22,21.58,21.58,0,0,1,8,1.51v14a10.41,10.41,0,0,0-18.44,6.64Z" fill="#042e3c"/><path d="M104.21,270.64c6-9.12,14.67-16.5,19.05-26.49,6-13.73,2.86-29.9,7.46-44.17,6.67-20.71,27.77-32.9,40.15-50.8,13.46-19.49,15.56-46.27,5.29-67.61-4.69-9.75-12-18.56-21.89-23-11.67-5.32-25.89-3.82-36.86,2.8S98.66,79.27,95.21,91.62c-8.52,30.44,8,63.25,1.42,94.18C92.74,204.19,81,220.18,77.07,238.56c-3.44,16-.2,33.08,8.05,47.1,2.42,4.11,9.15,17.09,12.75,8.16,1.36-3.38.52-7.54,1.26-11.11A35.24,35.24,0,0,1,104.21,270.64Z" fill="#fff"/><rect x="63.63" y="385.84" width="379.93" height="17.91" fill="#17252a"/><path d="M418,403.75c-69.19,49.65-218.21,59.31-307.61,0Z" fill="#17252a"/><path d="M164.55,367.21h96.78a2.85,2.85,0,0,1,2.85,2.85v14.58a2.86,2.86,0,0,1-2.85,2.85H164.55Z" fill="#042e3c"/><path d="M161.39,371.16v12.32a.84.84,0,0,1-.85.82H128a1.63,1.63,0,0,0-1.66,1.59h0a1.64,1.64,0,0,0,1.66,1.59H164a1.79,1.79,0,0,0,1.79-1.79V369a1.79,1.79,0,0,0-1.79-1.78H128a1.63,1.63,0,0,0-1.66,1.59h0a1.63,1.63,0,0,0,1.66,1.59h32.58A.83.83,0,0,1,161.39,371.16Z" fill="#2b7a78"/><path d="M132.83,370.35h29.85a0,0,0,0,1,0,0v14a0,0,0,0,1,0,0H132.83a3.36,3.36,0,0,1-3.36-3.36V373.7A3.36,3.36,0,0,1,132.83,370.35Z" transform="translate(292.16 754.65) rotate(180)" fill="#fff"/><path d="M187.81,367.21s3.87,8.71.07,20.28h5a28.56,28.56,0,0,0,0-20.27Z" fill="#2b7a78"/><path d="M179.22,367.21s3.87,8.71.06,20.28h5a28.49,28.49,0,0,0,0-20.27Z" fill="#2b7a78"/><rect x="141.89" y="372.35" width="17.42" height="1.28" fill="#e3eaff"/><rect x="138.36" y="381.11" width="17.42" height="1.28" fill="#e3eaff"/><rect x="144.63" y="378.44" width="17.42" height="1.28" fill="#e3eaff"/><path d="M209.49,346.45H113.36a2.8,2.8,0,0,0-3,2.57v15.63a2.8,2.8,0,0,0,3,2.57h96.13Z" fill="#2b7a78"/><path d="M212.72,350.49v12.63a.86.86,0,0,0,.88.83H247a1.66,1.66,0,0,1,1.69,1.63h0a1.66,1.66,0,0,1-1.69,1.63H210a1.83,1.83,0,0,1-1.83-1.83V348.23a1.82,1.82,0,0,1,1.83-1.82H247a1.65,1.65,0,0,1,1.69,1.62h0a1.66,1.66,0,0,1-1.69,1.63H213.59A.85.85,0,0,0,212.72,350.49Z" fill="#042e3c"/><path d="M215.21,349.66h30.21a0,0,0,0,1,0,0V364a0,0,0,0,1,0,0H215.21a3.23,3.23,0,0,1-3.23-3.23V352.9A3.23,3.23,0,0,1,215.21,349.66Z" fill="#fff"/><path d="M130.41,346.45s-3.87,8.92-.07,20.77h-5a29.9,29.9,0,0,1,0-20.76Z" fill="#042e3c"/><path d="M189.88,346.45s-3.88,8.92-.07,20.77h-5a29.9,29.9,0,0,1,0-20.76Z" fill="#042e3c"/><rect x="214.94" y="352.11" width="24.71" height="1.29" fill="#e3eaff"/><rect x="228.56" y="355.34" width="15.44" height="1.29" fill="#e3eaff"/><rect x="213.26" y="361.49" width="19.96" height="1.29" fill="#e3eaff"/><rect x="217.68" y="358.55" width="9.36" height="1.28" fill="#e3eaff"/><polygon points="226.99 370.06 221.58 367.55 216.69 370.06 216.69 356.83 226.99 356.83 226.99 370.06" fill="#3aafa9"/></svg>