<svg xmlns="http://www.w3.org/2000/svg" viewBox="0 0 500 500"><title>ENABLE UPDATED</title><g id="OBJECTS"><circle cx="228.9" cy="251.76" r="184.17" fill="#def2f1"/><path d="M107,218.75s-1.6-82.94,62.71-97.48,61.46-12,70.2-9.4,35.81,6.84,42,7.69,14.63,18.82-15.53,20.95c0,0,61.25,8.16,91.81,40.24,20,20.95.22,21.51-8.65,18.86,0,0,27.28,13.6,9.24,25.2-7.67,4.94-23.36-4.76-23.36-4.76s22.62,12.18,2.22,18.38c-4.66,1.42-13.31-1.71-13.31-1.71s-.42,11.13-19.95,11.18c-13.75,0-44.11-13.74-65.27-11.6s-50.34-4.29-81.83-4.07S123.19,217.26,107,218.75Z" fill="#fff"/><path d="M211.58,214.66c4.18,4.16,5.55,8.41,6.82,13.91-.36-1.57,1.25-3.87,1.77-5.36,4-11.53,3.85-24.84,5.55-36.82,1.46-10.31,4.91-23,13.72-29.69,8.21-6.27,18.77-9.63,29.17-10.14,4.52-.21,9-.46,13.56-.52,2.4,0,4.79.15,7.18.16,1.66,0,3.28.71,4.91.57-3.49-1.61-7.59-2-11.32-2.9-4.51-1.09-9-2.15-13.65-2.8-5.85-.84-11.77,0-17.66.57s-12.19,1.3-18.13,1.79c-4.92.4-9,.61-13.2,3.56-8.45,6-12.29,16.45-17.73,24.74-5,7.58-16.41,18-26.21,18.39-5,.22-12.52.58-17.31-.77-2.25-.63-4.94-2.62-6.71-4.1s-4-5.62-6.74-4.77c-8.29,2.55,2.14,14.76,5.5,17.33,5.07,3.89,12.17,4,18.3,4.93,7.84,1.15,15.82,1,23.66,2.2C199.44,205.91,206.56,209.66,211.58,214.66Z" fill="#3aafa9"/><path d="M178.07,190.72l1.31-.35a18.69,18.69,0,0,0,3.42-1.52,42.52,42.52,0,0,0,10.08-8.7,150.17,150.17,0,0,0,11.45-15c2-2.86,4-5.82,6-8.82a110.25,110.25,0,0,1,6.69-9.06,13.91,13.91,0,0,1,5.06-3.9,30.62,30.62,0,0,1,5.79-1.81,108.55,108.55,0,0,1,11.15-1.65c3.59-.32,7-.56,10.3-.63l9.14-.13c5.64-.06,10.33-.17,13.63-.37s5.21-.4,5.2-.4l.15.49a37.63,37.63,0,0,1-4.95,1.91,76.91,76.91,0,0,1-13.69,2.87c-2.86.34-6,.68-9.22.89s-6.7.29-10.21.42a84.85,84.85,0,0,0-10.66.73,25.69,25.69,0,0,0-5,1.22,9.35,9.35,0,0,0-3.88,2.71,105.69,105.69,0,0,0-6.83,8.47l-6.45,8.58a150.62,150.62,0,0,1-12.49,14.55,44,44,0,0,1-10.88,8.34,19.13,19.13,0,0,1-3.67,1.39l-1.33.28Z" fill="#2b7a78"/><path d="M270.52,240.28a22.54,22.54,0,0,1-3-.41c-1.74-.48-3.45-1.12-5.22-1.55-9.73-2.36-20.63-3.25-30.59-1.56-1.46.25-4.78,0-5.95.6,7.67-3.79,13.9-6.63,18-14.23,3.14-5.75,6.06-11.77,7.57-17.57,2.2-8.44,2.59-18.18,2.88-26.89.11-3.47-2.42-23.8,2-25.24,3.62-1.16,6.08,14.56,6.26,16.66,1,12.15-2.16,28.83-7.57,39.79-2.25,4.56-6.3,9.05-6.31,14.34,0,3.44,2,6.09,4.85,7.94a62.07,62.07,0,0,0,10.89,5.33c2.73,1.07,5.43,2,8.05,3.3A5.85,5.85,0,0,0,270.52,240.28Z" fill="#3aafa9"/><path d="M349.39,199.81s-5.39-3.4-13.82-7.95a330.26,330.26,0,0,0-31.67-15c-3-1.18-6-2.23-8.89-3.29l-8.72-2.82c-2.83-.85-5.54-1.79-8.12-2.63s-5.06-1.5-7.33-2.21c-2.3-.54-4.41-1.12-6.29-1.62s-3.54-.77-4.91-1.13c-2.75-.58-4.35-1-4.35-1l0-.51s1.62-.17,4.5-.28a35.15,35.15,0,0,1,5.19,0c2,.15,4.26.32,6.73.57s5,.89,7.82,1.44,5.59,1.49,8.53,2.36c2.88,1,5.82,2.18,8.78,3.41s5.89,2.61,8.8,4,5.83,2.77,8.62,4.29,5.58,2.92,8.19,4.42c5.29,2.9,10,5.92,14.07,8.5,8.06,5.23,13.16,9.07,13.16,9.07Z" fill="#3aafa9"/><path d="M338.74,222.42l-3.67-1.37c-2.31-.93-5.72-2-9.62-3.76l-6.36-2.74c-2.27-1-4.55-2.12-7-3.23L297,204.24l-7.74-3.32c-2.55-1.1-5.06-2.14-7.52-3s-4.73-2.07-6.92-3-4.34-1.66-6.28-2.47a41.72,41.72,0,0,0-5.36-2c-1.62-.52-3-1-4.21-1.44-2.35-.82-3.72-1.39-3.72-1.39l.07-.51s1.44,0,4,.12c1.28,0,2.83.15,4.62.3a29.61,29.61,0,0,1,5.88,1c2.13.49,4.43,1.08,6.85,1.75S281.47,192,284,193a72,72,0,0,1,7.47,3.61l7.53,4c10,5.49,19.81,11.07,27.25,15.06,3.68,2.1,7,3.47,9.2,4.6L339,222Z" fill="#3aafa9"/><path d="M324.28,237l-3.31-.6-3.81-.71c-1.47-.25-3.08-.81-4.88-1.27-3.61-.92-7.73-2.21-12.07-3.71s-8.95-3.16-13.57-4.76l-13.54-4.58c-2.12-.77-4.15-1.64-6.07-2.4s-3.75-1.46-5.42-2.18-3.18-1.42-4.57-1.88-2.58-1-3.56-1.44c-2-.82-3.12-1.39-3.12-1.39l.09-.51s1.25,0,3.44.14a47.68,47.68,0,0,1,9,1.17c1.82.39,3.79.86,5.86,1.41s4.16,1.31,6.33,2.09,4.38,1.71,6.54,2.76l6.66,3c4.46,2,8.88,4,13.07,5.78s8.09,3.48,11.48,4.73c1.7.63,3.21,1.34,4.66,1.74l3.7,1.11,3.22,1Z" fill="#3aafa9"/><path d="M106.94,357.35s0-.28.15-.79C109,347,130,254.91,232,307.93c0,0,25.35,8,35,7.82,9.47-.18,12.89-19.1,16.91-29.21s12.63-12,14.71-10.44-.52,9.16-.52,9.16S306,265.2,318.41,268.7c4.2,1.19,2.06,8.78,2.06,8.78s7.36-17.81,19.3-14.43c5.41,1.52,2.09,13.5,2.09,13.5s6.46-3.31,9.35,1.87c3.59,6.42-16.75,45.88-25.7,59.41-10.82,16.37-42,40.86-66.36,40.75C230.45,378.46,154.19,326.38,106.94,357.35Z" fill="#fff"/><path d="M268.63,320.89s-5.57,6.27-2.14,9.76c5.42,5.5,19.68,5.11,19.68,5.11s7.88-7.3,1.54-13.55C284.37,318.91,268.63,320.89,268.63,320.89Z" fill="#3aafa9"/><path d="M203.93,338.75s.65-.22,1.92-.51a56.29,56.29,0,0,1,5.54-1.1c2.4-.39,5.34-.68,8.72-.95a95.24,95.24,0,0,1,11.4-.06A119,119,0,0,1,245,337.45a69.34,69.34,0,0,1,7.25,1.38l7.47,1.69a52.22,52.22,0,0,0,7.6,1.4,36.14,36.14,0,0,0,7.78-.05c5.13-.59,10.3-2.66,13.58-6.57a13.5,13.5,0,0,0,3.23-6.62,12.21,12.21,0,0,0,.1-1.7,4.79,4.79,0,0,0-.14-1,4.07,4.07,0,0,1-.22-.58,7.08,7.08,0,0,0-2.27-2.41c-4.2-2.6-9.67-3.37-14.67-3.69-1.26-.06-2.52-.09-3.77-.08s-2.55,0-3.85-.14a62.61,62.61,0,0,1-7.42-1.27,110.45,110.45,0,0,1-12.94-3.92c-7.86-2.83-14.13-5.83-18.53-7.87l-6.86-3.32,7.09,2.79c4.49,1.81,11.38,3.64,18.93,6.6a108.39,108.39,0,0,0,12.76,3.59,61.56,61.56,0,0,0,7.05.95c1.2,0,2.56,0,3.72.05s2.62,0,3.95,0c5.27.32,10.87.86,16.08,4a9.83,9.83,0,0,1,3.29,3.5c.18.45.34.91.48,1.37a6.89,6.89,0,0,1,.16,1.08,13.39,13.39,0,0,1-.08,2.42,16.32,16.32,0,0,1-3.83,8.15c-4,4.62-9.92,6.81-15.52,7.39a39.1,39.1,0,0,1-8.38,0,55.66,55.66,0,0,1-7.93-1.56l-7.41-1.82a67.69,67.69,0,0,0-7.07-1.63,117,117,0,0,0-13.18-1.78c-4.11-.45-7.89-.42-11.26-.5s-6.29.17-8.69.41-4.3.45-5.57.69S203.93,338.75,203.93,338.75Z" fill="#3aafa9"/><path d="M298.41,284.31s-2.75,9.12-5.83,18.15c-1.55,4.53-3.13,9-4.58,12.4-.36.84-.68,1.62-1,2.3a21,21,0,0,1-1,1.88l-1,1.65-3.29-3,.78-1.1c.25-.38.59-.71.94-1.31s.75-1.31,1.17-2.07c1.74-3,3.84-7.29,5.89-11.56C294.6,293,298.41,284.31,298.41,284.31Z" fill="#3aafa9"/><path d="M320.47,277.48a215.13,215.13,0,0,1-11.18,24.71c-1.6,3-3.33,5.95-5,8.67s-3.49,5.17-5.09,7.22c-.8,1-1.63,1.92-2.31,2.73a23.14,23.14,0,0,1-1.91,2c-1.12,1.09-1.75,1.72-1.75,1.72l-2.85-3.46,1.69-1.41a21.27,21.27,0,0,0,1.9-1.7c.69-.71,1.53-1.46,2.36-2.37,1.67-1.81,3.55-4,5.45-6.51s3.81-5.24,5.63-8.06A214.9,214.9,0,0,0,320.47,277.48Z" fill="#3aafa9"/><path d="M341.86,276.55a7.85,7.85,0,0,0-3.2,1.53,30,30,0,0,0-6.46,6.78,82.27,82.27,0,0,0-6.78,11.41c-2.11,4.36-4.31,9.16-6.8,13.79-4.93,9.28-10.76,18.25-17,23.74a23.89,23.89,0,0,1-8.84,5.25,16,16,0,0,1-3,.57l-1.11.06.08-4.48h.76a11.42,11.42,0,0,0,2.18-.3,20,20,0,0,0,7.5-4c5.84-4.64,12.05-13.1,17.33-22,2.7-4.45,5-9.06,7.48-13.36a83.35,83.35,0,0,1,7.59-11.14,30.4,30.4,0,0,1,7-6.47A8,8,0,0,1,341.86,276.55Z" fill="#3aafa9"/><path d="M268.63,320.89s5.07,4.62-2.14,9.76C266.49,330.65,263.07,326.52,268.63,320.89Z" fill="#3aafa9"/><path d="M268.29,268.49a93.9,93.9,0,0,0-1.65-15.4c-.42-2.55-.84-5.13-1.17-7.81l2.9-.36c.33,2.65.74,5.18,1.16,7.7a98.69,98.69,0,0,1,1.69,15.86Z" fill="#2b7a78"/><path d="M328.91,221.94c-17.11,5.35-61.34,4.09-61.55,55h0v37.23h3.86v-37C329.48,275,325.13,225.72,328.91,221.94Z" fill="#2b7a78"/><path d="M223.67,235.43c8.51,1.49,33.32,1.49,39.75,41.71C235.77,279,223.67,235.43,223.67,235.43Z" fill="#2b7a78"/><path d="M244,191.27s-11.74,42.82,21.6,54.49l.83.31c0-.06,0-.14,0-.2l0,.1c.49.54.93.17,1.2-.31v.13C284.17,207.46,253.58,196.39,244,191.27Z" fill="#2b7a78"/><path d="M270.24,289l-2.92-.09c.08-2.47-1.19-5.05-2.15-6.78a33,33,0,0,0-2.1-3.25,16.26,16.26,0,0,0-1.33-1.52c-.44-.47-.88-.93-1.29-1.44l2.29-1.82c.35.44.73.84,1.12,1.25a19.37,19.37,0,0,1,1.56,1.8,32,32,0,0,1,2.3,3.56C268.85,282.76,270.34,285.83,270.24,289Z" fill="#2b7a78"/><path d="M270.43,272.78s.29-1.1.86-3,1.41-4.62,2.7-7.78c.59-1.61,1.42-3.28,2.26-5.06a50.64,50.64,0,0,1,3.15-5.38,46.38,46.38,0,0,1,4.07-5.32l2.41-2.47c.94-1,1.76-1.51,2.64-2.28a47.42,47.42,0,0,1,5.73-3.93c2-1.07,4-2.1,6-2.91,3.95-1.71,7.71-3,10.9-4.07l4.35-1.53c1.31-.44,2.41-.89,3.32-1.28,1.82-.76,2.89-1.15,2.89-1.15s-.94.62-2.64,1.66c-.85.52-1.89,1.14-3.12,1.76s-2.61,1.41-4.16,2.09c-3.06,1.48-6.72,3-10.46,4.86-1.91.85-3.73,2-5.64,3a44.46,44.46,0,0,0-5.31,3.75c-.82.7-1.88,1.45-2.51,2.1l-2.31,2.3A57,57,0,0,0,281.5,253c-1.27,1.63-2.31,3.35-3.35,5s-1.9,3.2-2.64,4.71c-1.57,3-2.84,5.5-3.69,7.29S270.43,272.78,270.43,272.78Z" fill="#17252a"/><path d="M274.93,263.16s.19-.47.55-1.25a5.4,5.4,0,0,1,1-1.29,8.42,8.42,0,0,1,1.74-1.31,12.43,12.43,0,0,1,2.34-.95,14,14,0,0,1,2.74-.56,19.23,19.23,0,0,1,3-.12l.75,0,.8.11,1.44.2a21.08,21.08,0,0,1,2.9.65c1,.25,1.86.56,2.73.81s1.7.56,2.46.73,1.48.47,2.17.56,1.33.25,1.91.38l1.5.14,1.35.16s-.46.17-1.3.42c-.42.11-.94.29-1.54.4s-1.3.13-2.06.17a13.81,13.81,0,0,1-2.46-.08,17.09,17.09,0,0,1-2.65-.38c-.89-.18-1.86-.33-2.7-.55a20,20,0,0,0-2.75-.53l-1.43-.24-.62-.11-.68-.06c-.89-.07-1.78-.13-2.63-.13a24,24,0,0,0-2.45.13,18.28,18.28,0,0,0-2.14.37,11.13,11.13,0,0,0-1.69.64c-.43.29-.95.4-1.24.75C275.32,262.84,274.93,263.16,274.93,263.16Z" fill="#17252a"/><path d="M283.7,249.64l1.13-.95a11.14,11.14,0,0,1,1.37-1c.56-.34,1.2-.73,1.94-1.13s1.56-.69,2.45-1a27.37,27.37,0,0,1,3-.76c1-.06,2-.23,3-.21s2.31.14,3.38.3l3.13.59c.5.09,1,.2,1.49.32l.66.15.74.12a26.84,26.84,0,0,0,2.75.42,21.92,21.92,0,0,0,2.37.14c.75,0,1.46-.06,2.09-.07l1.62-.25,1.47-.18s-.45.28-1.28.74c-.42.21-.93.51-1.54.77s-1.35.44-2.16.66a13.44,13.44,0,0,1-2.7.37,15.71,15.71,0,0,1-2.91,0l-.74,0-.83-.1c-.51-.06-1-.14-1.54-.23l-3.06-.47c-1-.19-1.91-.24-2.86-.37l-3,0-2.58.29c-.84.2-1.65.35-2.41.49s-1.4.4-2,.56-1.14.39-1.59.52Z" fill="#17252a"/><path d="M301.24,236.12a30,30,0,0,1,3.15-.64c.47-.07,1-.15,1.52-.2s1.08-.21,1.66-.28c1.13-.22,2.34-.36,3.54-.51s2.38-.54,3.52-.72a15,15,0,0,0,1.64-.31c.5-.15,1-.28,1.44-.39,1.82-.43,3.14-.61,3.14-.61a28.38,28.38,0,0,1-2.68,1.78c-.42.25-.88.52-1.38.77a7.63,7.63,0,0,1-1.64.62c-1.15.37-2.41.7-3.67,1-1.3.12-2.6.24-3.82.27a13.92,13.92,0,0,1-3.26-.19C302.5,236.45,301.24,236.12,301.24,236.12Z" fill="#17252a"/><path d="M249.47,201.34s.54.56,1.42,1.58,2.17,2.43,3.54,4.28a67.79,67.79,0,0,1,4.52,6.48,38,38,0,0,1,2.26,3.86l2.07,4.15c.54,1.47,1.09,2.93,1.63,4.37a32,32,0,0,1,1.17,4.36,22.47,22.47,0,0,1,.75,4.14c.15,1.33.25,2.59.34,3.75a17.5,17.5,0,0,1,0,3.17c-.06.94-.1,1.75-.14,2.43-.09,1.34-.18,2.1-.18,2.1s-.17-.76-.39-2.08c-.11-.66-.23-1.46-.38-2.38s-.24-1.94-.55-3-.56-2.29-.82-3.55a33.13,33.13,0,0,0-1.1-3.88c-.45-1.33-.75-2.74-1.35-4.09l-1.64-4.13c-1.27-2.7-2.5-5.43-3.87-7.9-.69-1.24-1.25-2.49-1.92-3.61s-1.23-2.22-1.77-3.22c-1.08-2-2-3.71-2.62-4.9S249.47,201.34,249.47,201.34Z" fill="#17252a"/><path d="M250.57,228.57a4,4,0,0,0,.59.6,7.36,7.36,0,0,0,1.85,1l1.33.57,1.51.59c1.08.41,2.19.92,3.3,1.42l1.62.74a17.76,17.76,0,0,1,1.62.85,10.1,10.1,0,0,1,2.6,2.09,4,4,0,0,1,.77,1.11,3.75,3.75,0,0,1,.42.94,7.28,7.28,0,0,1,.19.85s-.23-.24-.56-.64a6.56,6.56,0,0,0-1.65-1.32,19.67,19.67,0,0,0-2.64-1.31l-3.33-1.34c-1.09-.54-2.19-1.08-3.18-1.66a12.57,12.57,0,0,1-1.45-.9,12,12,0,0,1-1.23-.93,6.09,6.09,0,0,1-1.52-1.83A3,3,0,0,1,250.57,228.57Z" fill="#17252a"/><path d="M245.73,203.35s.1.24.23.66a2.83,2.83,0,0,0,.37.67,9.13,9.13,0,0,0,.58.75,12.32,12.32,0,0,0,1.8,1.66c.34.29.72.55,1.1.84s.74.55,1.18.82c.82.57,1.63,1,2.44,1.54A13,13,0,0,1,255.5,212a5.52,5.52,0,0,1,1.09,1.54,6.55,6.55,0,0,1,.28.64l-.5-.48a8.22,8.22,0,0,0-1.4-1.06,17.88,17.88,0,0,0-2.18-1.18,26.44,26.44,0,0,1-2.61-1.44,12,12,0,0,1-3.94-4.08,3.5,3.5,0,0,1-.42-1,3.26,3.26,0,0,1-.14-.82C245.7,203.61,245.73,203.35,245.73,203.35Z" fill="#17252a"/><path d="M246.64,215.41l.68.66a10.69,10.69,0,0,0,1.88,1.48c1.63,1.11,4.14,2,6.64,3.12s5,2.46,6.36,4.15A4.34,4.34,0,0,1,263,226a3.46,3.46,0,0,1,.45,1c.18.59.26.91.26.91s-.19-.28-.51-.78a6.71,6.71,0,0,0-1.61-1.74c-1.47-1.28-3.93-2.26-6.4-3.4s-5-2.32-6.52-3.81a7.87,7.87,0,0,1-1.6-1.95Z" fill="#17252a"/><path d="M271.72,275s.86-.17,2.37-.4l2.73-.4a29.82,29.82,0,0,0,3.45-.73l3.93-.92,4.43-1.56c1.58-.47,3-1.25,4.59-1.86l2.33-1,2.3-1.08a46.62,46.62,0,0,0,4.4-2.33c1.34-1,2.8-1.73,4-2.76s2.48-1.9,3.57-2.88,2.11-1.92,3.07-2.79,1.75-1.75,2.51-2.47,1.39-1.42,1.9-2c1-1.11,1.67-1.73,1.67-1.73s-.42.77-1.22,2.08c-.4.65-.89,1.44-1.51,2.32a32,32,0,0,1-2.11,2.91,37.23,37.23,0,0,1-2.79,3.23l-1.63,1.7L307.87,264a42.66,42.66,0,0,1-4.11,3.13,49.73,49.73,0,0,1-4.69,2.61l-2.44,1.08-2.46,1a41.55,41.55,0,0,1-4.81,1.65l-4.54,1.19c-1.66.25-3,.36-4.36.5a18,18,0,0,1-3.59.15l-2.75-.12C272.6,275.12,271.72,275,271.72,275Z" fill="#17252a"/><path d="M238.27,259.75s1.45,1,3.43,2.75c1,.86,2.08,2,3.26,3.07.59.55,1.21,1.1,1.8,1.69s1.3,1,2,1.58l1,.8.24.2s.15.12.05.05l.14.08.56.33c.75.39,1.45.93,2.16,1.27,1.38.61,2.69,1.25,3.93,1.7l2.94,1.2c.71.3,1.11.5,1.11.5a35.4,35.4,0,0,1-4.39-.49,24.52,24.52,0,0,1-4.51-1.21,24.15,24.15,0,0,1-2.28-1.13l-.57-.31-.14-.07a2.05,2.05,0,0,1-.22-.15l-.26-.21-1.07-.84c-.69-.59-1.44-1.12-2.05-1.76s-1.18-1.29-1.74-1.9a41.48,41.48,0,0,1-2.78-3.54C239.23,261.24,238.27,259.75,238.27,259.75Z" fill="#17252a"/><path d="M232.37,306.57c.34-.49.74-1,1.11-1.44.23-.27.3-.42.65-.79l.62-.63a23.19,23.19,0,0,1,2.94-2.37,21.82,21.82,0,0,1,3.2-1.68,16.18,16.18,0,0,1,3.19-1.07c.52-.12,1-.26,1.51-.34l1.47-.1a7.8,7.8,0,0,1,2.54.12,5.07,5.07,0,0,1,1.88.48c1,.44,1.51.7,1.51.7l-1.63-.14a5.93,5.93,0,0,0-1.8.07,9.57,9.57,0,0,0-2.25.42,14.78,14.78,0,0,0-2.57.88A21.58,21.58,0,0,0,242,302c-.94.44-1.79,1.16-2.72,1.7a18.4,18.4,0,0,0-2.47,2.11l-.64.61c-.07.05-.33.39-.49.57s-.49.59-.74.89l1.17.38c1.19.37,2.38.76,3.56,1.17a15.34,15.34,0,0,1,5.27-4.11c4.78-2.13,11.53-3.16,13.21,3.17a7.71,7.71,0,0,1,0,4,11.56,11.56,0,0,1,8.67-1,12.42,12.42,0,0,1,2.48.92c-9.2-22.23-29.57-22.12-39.85-6.54l2.71,1C232.23,306.78,232.29,306.67,232.37,306.57Z" fill="#17252a"/><path d="M294.79,327.4a15.1,15.1,0,0,1-1.52,6.45,14.06,14.06,0,0,1-1.26,2.28,26.32,26.32,0,0,1-3.46,3.62,6.44,6.44,0,0,0,3-.11,31,31,0,0,0,3-.76,13.89,13.89,0,0,0,3.08-1.24,25.08,25.08,0,0,0,4.54-3.54,9.56,9.56,0,0,0,2.84-4.06c.56-1.7-.11-3.86-.88-5.43a4.8,4.8,0,0,0-.81-1.22c-1.18-1.21-3.05-1.14-3.94-2.71s-.82-3.14-1.52-4.62a18.41,18.41,0,0,0-2.28-3.71,21.45,21.45,0,0,0-7.35-6c-7-3.35-13.34,1.3-17.56,6.8a10.37,10.37,0,0,1,3.61,4l1.82.09c-.62-.94-.71-2.24.05-4,2.52-5.64,15-4.86,13.13,1.14a5.52,5.52,0,0,1-.47,1.09,7,7,0,0,1-3.89,2.92,24,24,0,0,1,3.43,1.19c.36-.27.72-.54,1.05-.82a15.88,15.88,0,0,0,1.29-1.32,6.77,6.77,0,0,0,1-1.33,5.16,5.16,0,0,0,.61-1.29,2.88,2.88,0,0,0,.31-1.1l.19-1.07s.16.35.39,1a2.81,2.81,0,0,1,.23,1.29,4.8,4.8,0,0,1-.16,1.73c-.08.32-.17.65-.25,1s-.31.62-.47.95c-.31.61-1.36,1.26-1.43,1.94s1.38,1.56,1.91,2.12A6.8,6.8,0,0,1,294.79,327.4Z" fill="#17252a"/><path d="M236.18,306.39l.64-.61a18.4,18.4,0,0,1,2.47-2.11c.93-.54,1.78-1.26,2.72-1.7a21.58,21.58,0,0,1,2.73-1.29,14.78,14.78,0,0,1,2.57-.88,9.57,9.57,0,0,1,2.25-.42,5.93,5.93,0,0,1,1.8-.07l1.63.14s-.51-.26-1.51-.7a5.07,5.07,0,0,0-1.88-.48,7.8,7.8,0,0,0-2.54-.12l-1.47.1c-.49.08-1,.22-1.51.34a16.18,16.18,0,0,0-3.19,1.07,21.82,21.82,0,0,0-3.2,1.68,23.19,23.19,0,0,0-2.94,2.37l-.62.63c-.35.37-.42.52-.65.79-.37.48-.77.95-1.11,1.44-.08.1-.14.21-.21.31.93.34,1.86.66,2.79,1,.25-.3.5-.59.74-.89S236.11,306.44,236.18,306.39Z" fill="#17252a"/><path d="M258.15,312.48a7.71,7.71,0,0,0,0-4c-1.68-6.33-8.43-5.3-13.21-3.17a15.34,15.34,0,0,0-5.27,4.11c3.59,1.22,7.13,2.58,10.71,3.84,1.71.6,3.45,1.1,5.2,1.54A8.11,8.11,0,0,1,258.15,312.48Z" fill="#17252a"/><path d="M288.85,315.54a5.52,5.52,0,0,0,.47-1.09c1.87-6-10.61-6.78-13.13-1.14-.76,1.72-.67,3-.05,4a44.9,44.9,0,0,1,8.82,1.19A7,7,0,0,0,288.85,315.54Z" fill="#17252a"/><path d="M258.15,312.48a8.11,8.11,0,0,0-2.56,2.3,82,82,0,0,0,15,2.21c1.23.08,2.46.13,3.7.19a10.37,10.37,0,0,0-3.61-4,12,12,0,0,0-1.41-.8,12.42,12.42,0,0,0-2.48-.92A11.56,11.56,0,0,0,258.15,312.48Z" fill="#17252a"/><path d="M291.37,321.25c.12-.13.89-1.85,1.19-2.54.16-.33.33-.64.47-.95s.17-.67.25-1a4.8,4.8,0,0,0,.16-1.73,2.81,2.81,0,0,0-.23-1.29c-.23-.68-.39-1-.39-1l-.19,1.07a2.88,2.88,0,0,1-.31,1.1,5.16,5.16,0,0,1-.61,1.29,6.77,6.77,0,0,1-1,1.33,15.88,15.88,0,0,1-1.29,1.32c-.33.28-.69.55-1.05.82.24.11.49.21.73.33A23.07,23.07,0,0,1,291.37,321.25Z" fill="#17252a"/><path d="M107,218.75s-30.74,0-62.16,27.26c0,0,0-74.53,50.46-121,0,0,52.47-12,133.61-15.13" fill="#fff"/><path d="M165.58,349.87S108,350.55,92,375c0,0-29-33.91-34.11-54.67,0,0,55.62-32.6,120.23-28.67Z" fill="#fff"/></g></svg>