<svg xmlns="http://www.w3.org/2000/svg" xmlns:xlink="http://www.w3.org/1999/xlink" viewBox="0 0 500 500"><defs><linearGradient id="linear-gradient" x1="61.9" y1="318.58" x2="410.67" y2="318.58" gradientUnits="userSpaceOnUse"><stop offset="0" stop-color="#3aafa9"/><stop offset="1" stop-color="#2b7a78"/></linearGradient><linearGradient id="linear-gradient-2" x1="319.91" y1="223.67" x2="139.39" y2="503.38" xlink:href="#linear-gradient"/><linearGradient id="linear-gradient-3" x1="188.59" y1="349.57" x2="196.65" y2="407.2" gradientUnits="userSpaceOnUse"><stop offset="0" stop-color="#2b7a78"/><stop offset="1" stop-color="#17252a"/></linearGradient><clipPath id="clip-path"><circle cx="-270" cy="243.7" r="184.17" fill="none"/></clipPath></defs><title>ENABLE UPDATED</title><g id="OBJECTS"><path d="M391.66,341.33c-7.53,8-36.42,40.25-42,44.3-66.1,47.66-133.26,38.37-149.88,35-24.55-5-74.64-34.62-108.94-75.15-51.9-61.33-41.18-138-.92-201.8C97.24,132,136.14,67.24,215.2,56.86c47.84-6.29,103.62,6.39,144,40.39C444,168.62,448.66,281,391.66,341.33Z" fill="#def2f1"/><path d="M61.9,297.88c62.61,187.05,282.92,77.67,348.77,14.82C280.66,210,131.76,213.42,61.9,297.88Z" fill="url(#linear-gradient)"/><path d="M94.52,335.06c178.91-70.14,195.62-89,332.9-62.19-7.22,38.84-35.74,84.86-70.76,114.05Z" fill="url(#linear-gradient-2)"/><path d="M64.65,306.07c80.46,183.84,298.09,132.57,346,12.6C228.24,366.16,238.52,207.37,64.65,306.07Z" fill="#3aafa9"/><path d="M159.36,330c-2.3-7.3,9,3.11,24.07,1.21s13.94-11.77,17.11-6.06,18.56,31.92,16.53,42.3a32.32,32.32,0,0,1-7.22,14.32,6.13,6.13,0,0,1-6.5,1.88c-7.71-2.39-25.32-8.72-30.27-17.95C166.67,353.82,161.66,337.35,159.36,330Z" fill="url(#linear-gradient-3)"/><path d="M127.31,219.72l13.59-10.27s11.22,11.94,51.4,27.19c0,0,7.23,14.31-4.1,72.46a6.9,6.9,0,0,1-10,2.84,5.71,5.71,0,0,1-2.14-2.79s-2.44-46,5.18-54.73c0,0-23.07-5.17-33-4.6C139.25,250.33,97.41,249.42,127.31,219.72Z" fill="#17252a"/><path d="M179.33,143.81c-3.42-4.91-13-26.35-36.21-27.43-.17,0-.35.1-.56.1h-.05a50.5,50.5,0,0,0-6.09.15c-13.18,1-29.47,4.59-39.27,10.09l10,24.25s14.81-1.08,14.15,2.33c-7.23,16.29-16.09,45.23-14.87,59.21,12.75,11.11,24.38,10.46,33.46,6.21,0,0,8.42-21.93,21.2-39.2a18.36,18.36,0,0,1,8-.39c1.38.25,5.76-11.82,6.21-13.14C180.46,150.83,180.06,144.85,179.33,143.81Z" fill="#3aafa9"/><path d="M139.86,218.71c-13.62,2.3-24.42-2.06-33.64-10.2-16.68,37.78,5.34,145.89,5.34,145.89l13.53-1c-4-43.16,5.76-101.83,5.76-101.83Z" fill="#17252a"/><path d="M151.76,111.21l-2.41,10.26a8.83,8.83,0,0,0,8.77,10.87,20,20,0,0,0,7.67-1.77,2.68,2.68,0,0,0,1.6-2.41l.31-14.36Z" fill="#fff"/><path d="M167.53,121.65c-.67.54-4,3.16-8.11,2.44-4.72-.82-8.59-5.72-8.62-11.88Z" fill="#3aafa9"/><path d="M179.77,96.18s-1.39,17.16-7.61,22.78S153,121.41,147.9,108.85l7.25-22.44Z" fill="#fff"/><path d="M155,100.66a.85.85,0,0,0,1.06-.75A21.86,21.86,0,0,1,157.7,93s-.76-2.2,5.7.8,16.18,7.38,21.54,4.1,1.55-10.8-4.54-14.62a1.69,1.69,0,0,1-.81-1.35c-.1-2.62-1-7.28-6.17-8.58s-8,1.18-9.07,2.66a.83.83,0,0,1-1.31.06c-1.67-1.93-.94-4.65-7-1.54-7.75,4-10.12,8.16-10.12,8.16s-4.41-3.71-8,1.4c-3.08,4.38,1.9,7.72,3.39,8.59a.82.82,0,0,1,.42.67c.15,2.17,1.06,11.64,6.13,16.7a.85.85,0,0,0,1.4-.33l3.13-8.94a.85.85,0,0,1,1-.54Z" fill="#2b7a78"/><path d="M155.22,102.42s-2.78-9-6-5.81,1.45,9.41,5.42,10.42Z" fill="#fff"/><path d="M190.24,349a4.58,4.58,0,0,1-2.58-1.25.46.46,0,0,1,.58-.72c1.28,1,2,1.17,2.29.95s1.84-2-5.07-16.64a.47.47,0,0,1,.84-.4c3.39,7.17,7,16.06,4.8,17.77A1.32,1.32,0,0,1,190.24,349Z" fill="#def2f1"/><path d="M201.25,378.18a.32.32,0,0,1-.14,0c-.78-.26-19.15-6.38-23.51-11.18s-12.93-30.22-13.3-31.3a.46.46,0,1,1,.88-.3c.09.27,8.89,26.34,13.11,31s22.92,10.86,23.11,10.92a.47.47,0,0,1,.29.59A.46.46,0,0,1,201.25,378.18Z" fill="#def2f1"/><ellipse cx="165.42" cy="89" rx="8.86" ry="40.08" transform="matrix(0.17, -0.99, 0.99, 0.17, 50.05, 237.25)" fill="#17252a"/><path d="M146.75,87.63a3,3,0,0,1-1.65-4l7-17a2.77,2.77,0,0,1,2.62-1.54l22.69,1.67a2.82,2.82,0,0,1,2.5,2.1l4,21.71C169.93,92.64,159.5,92.28,146.75,87.63Z" fill="#17252a"/><path d="M121.41,360.21s6.64,5.57,9.26,13.53c.64,1.95-.95,6.4-3,6.4H114.2c-2,0-5.21-4.71-4.87-6.65C110.19,368.65,114.39,360.23,121.41,360.21Z" fill="#110f24"/><path d="M111.06,368.44a16.6,16.6,0,0,0-2.21,9.83c.4,7,16.63,9.24,19.35,8.62,5.75-6.33,2.63-14.12,1.14-16.51,0,0,3.23,8.6-7.55,8.6S111.06,368.44,111.06,368.44Z" fill="#110f24"/><path d="M111.45,367.1l-7.89-49a1.29,1.29,0,0,1,1.68-1.42c6,1.87,12.42,1.26,19.2-2l1.73,51.1C120.64,370.54,115.86,370.08,111.45,367.1Z" fill="#110f24"/><path d="M180.38,307.81s-6.65.88-6.39,14.69c0,0,16.58,12.67,37.77,14.33,1.59.13-3-10.55-3.72-12C204.79,318,195.94,314.09,180.38,307.81Z" fill="#110f24"/><path d="M208,324.84c-3.55,1.46-4.74,6.74-14.25,4.06A82.43,82.43,0,0,1,174,320.39c0,.24,0,.49,0,.75a2.67,2.67,0,0,0,1.1,2.2c4.15,3.08,19.57,13.66,37.64,15.07a2.08,2.08,0,0,0,2-3A52.08,52.08,0,0,0,208,324.84Z" fill="#110f24"/><path d="M175.83,279.78l17.25,2.46a1.28,1.28,0,0,1,1.07,1.49l-5.61,30.53L174.11,319l.53-38.26A1,1,0,0,1,175.83,279.78Z" fill="#110f24"/><path d="M175.69,164C161.59,153.43,153.24,182,153,183a78.71,78.71,0,0,0-.72,36.94,2.07,2.07,0,0,0,2.88,1.44,27.58,27.58,0,0,1,8.66-2.12C165.59,193,175.69,164,175.69,164Z" fill="#3aafa9"/><path d="M136.35,160.29l.43-43.85a.75.75,0,0,1,.77-.75l6.95.18a.71.71,0,0,1,.69.75l-2.56,44.75Z" fill="#17252a"/><path d="M155,164.83l15.61-33.55a.57.57,0,0,1,1-.1l4.28,5.89a.93.93,0,0,1,.06,1L159.09,168.3Z" fill="#17252a"/><path d="M152.1,219.16a71.33,71.33,0,0,0,5.38,16.58l1.58,18.68,11.53-12.72A66.79,66.79,0,0,1,163.67,218,82.32,82.32,0,0,0,152.1,219.16Z" fill="#fff"/><path d="M159.06,233.28s-10.52,5.5-8.65,12.45a37.1,37.1,0,0,0,4.21,10.41l6.57-4.07Z" fill="#fff"/><path d="M113.18,211.32c8.75-21.78,18.71-45.34,19.74-55.62a1.33,1.33,0,0,1,1.65-1.13c11.35,2.77,15.76,4.56,26.44,10.35a1,1,0,0,1,.48,1.33l-18.57,53.59Z" fill="#17252a"/><path d="M184.9,327.68c-12.1-25.57-26.54-81.06-29.31-106.29l7.91-19s3.42-10.09-2.43-9.76-22.6,1.42-27.23,2.54-2.11,10.34,4.94,13.35,9.16,13.81,9.16,13.81c3.4,25.05,17.71,81.28,29.3,107.45S197,353.26,184.9,327.68ZM140.23,204.76l20.06-1.14-8,16.72S148,207.75,140.23,204.76Z" fill="#2b7a78"/><path d="M146.67,192.69c-3.22-5.11-13.19-3.67-13.19-3.67a64.73,64.73,0,0,1-10.41-12.34,86.78,86.78,0,0,0-8.77,8.7c3.14,3.06,5.26,4.78,5.26,4.78l20.67,14.6s5,2.24,7.1,1.46S149.89,197.8,146.67,192.69Z" fill="#fff"/><path d="M98.89,125.85c-8.81,3.47-11.28,4.58-10.14,16.31,3.58,21.54,21.43,39.56,28.2,45.72,2.35-3.08,5.2-5.8,7.71-8.91C109.22,157.39,98.89,125.85,98.89,125.85Z" fill="#3aafa9"/><path d="M105.6,202.52c12.79,7.26,24.74,11.67,37,12l-.86,3.69c-12.27,4.81-24.5,2-37-7.15Z" fill="#17252a"/><path d="M117,188.31a.42.42,0,0,1-.3-.12l-6-5.94a.43.43,0,0,1,0-.61.45.45,0,0,1,.62,0l6,5.94a.44.44,0,0,1,0,.62A.45.45,0,0,1,117,188.31Z" fill="#2b7a78"/><path d="M124.75,179.65a.46.46,0,0,1-.35-.17A80.24,80.24,0,0,1,116,165.89a.42.42,0,0,1,.2-.58.44.44,0,0,1,.58.2A79.6,79.6,0,0,0,125.09,179a.42.42,0,0,1-.08.6A.43.43,0,0,1,124.75,179.65Z" fill="#2b7a78"/><path d="M364.26,214.51c-1.61-14.46,4.28-30.76,7.5-45.86,1.7-8,2.65-15.93,1.69-24.08s-4.4-17-.59-24.85c7.68-15.88,24.1-7.86,33.18,4.69,10.54,14.57,12.65,37.76,16.16,55.7,2.11,10.81,5.5,21.95,6.41,32.92,1.5,18.17-3.09,30.56-12.08,38.69a26.21,26.21,0,0,1-31.25,2.92C376.32,249.16,366.85,237.85,364.26,214.51Z" fill="#2b7a78"/><path d="M400,282.57a.41.41,0,0,0,.23-.28c1.57-7.49,4.81-28,5.86-52.23a345.74,345.74,0,0,0-1.4-51,237.29,237.29,0,0,0-12-55,.4.4,0,0,0-.76.28,236,236,0,0,1,12,54.82,346.85,346.85,0,0,1,1.4,50.91c-1.05,24.15-4.28,44.65-5.85,52.11a.4.4,0,0,0,.31.48A.52.52,0,0,0,400,282.57Z" fill="#fff"/><path d="M285.56,253.79c-18.47-.81-36-25-31.54-37.59,3-8.5,14-6.18,19.09-15.91,6.48-12.43-7.73-23.52-8.61-46.08-.75-19.2,8.33-41.94,19.24-43.24,11.41-1.35,27.92,20.43,26.27,38.94-1.07,12-9.26,16.43-7,26.1,2.65,11.21,15.06,11.1,19.74,21C331.19,214.76,310,254.86,285.56,253.79Z" fill="#2b7a78"/><path d="M296.75,256.85a.59.59,0,0,1-.29.07.67.67,0,0,1-.66-.68c.75-49.77-15.44-99.54-15.61-100a.68.68,0,0,1,.43-.85.67.67,0,0,1,.84.43c.17.5,16.43,50.48,15.68,100.47A.68.68,0,0,1,296.75,256.85Z" fill="#fff"/><path d="M373.49,208c1.74-15.66-4.63-33.29-8.11-49.64-1.85-8.64-2.88-17.24-1.84-26.06s4.76-18.36.64-26.9c-8.31-17.18-26.08-8.5-35.91,5.09-11.41,15.76-13.69,40.86-17.49,60.27-2.29,11.71-6,23.76-6.94,35.63-1.62,19.67,3.35,33.07,13.08,41.87a28.35,28.35,0,0,0,33.82,3.16C360.44,245.49,370.69,233.24,373.49,208Z" fill="#3aafa9"/><path d="M334.81,281.64a.42.42,0,0,1-.25-.3c-1.7-8.1-5.21-30.34-6.34-56.52a376.17,376.17,0,0,1,1.51-55.24c2.29-21.79,6.68-41.82,13-59.55a.44.44,0,0,1,.56-.26.43.43,0,0,1,.26.56c-6.33,17.65-10.7,37.62-13,59.33a374.33,374.33,0,0,0-1.5,55.1c1.12,26.14,4.63,48.32,6.32,56.4a.43.43,0,0,1-.33.51A.41.41,0,0,1,334.81,281.64Z" fill="#fff"/><path d="M339.2,396.29a105.1,105.1,0,0,1-22.57,2.14c-7.63,0-14.61-1.2-22.23-.22-9.91,1.28-19.19,4-29.18,5.2a324.45,324.45,0,0,1-33.5,2.16c-12.53.17-24.41-2.81-36.65-4.18-13.41-1.5-27.07-1.35-40.45-3-7.71-.94-15.92-3.77-12.36-8.65A10,10,0,0,1,144,388c3.69-3.09,9-5.49,14.13-7.81,2.14-1,4.24-1.92,6.18-2.9,19.63-9.9,40.58-18.82,64.1-23.74,11.27-2.36,24.82-3.19,36.15-.18C289.22,360,318,370.5,334,379.65,347.09,387.07,351.79,393.58,339.2,396.29Z" fill="#2b7a78"/><path d="M346.7,360.92c-22.56-.76-23.22-4.94-39.37-5.95-13.2-.84,2.6-5.31,22.58-11,4.45-1.26,9.1-2.59,13.69-3.95,19.11-5.67,32.13,5.31,37.3,10.94a30.83,30.83,0,0,1,2.5,3.06C388.49,358,369.25,361.68,346.7,360.92Z" fill="#2b7a78"/><g clip-path="url(#clip-path)"><path d="M-625.57,429.52s150-143.1,343.34-151.89c64.93-2.95,330.81,56.23,554.71,102.72,9.41,2,244.07,48.75,276,50.16Z" fill="#3aafa9"/></g></g></svg>