<svg xmlns="http://www.w3.org/2000/svg" xmlns:xlink="http://www.w3.org/1999/xlink" viewBox="0 0 500 500"><defs><clipPath id="clip-path"><circle cx="-790" cy="243.7" r="184.17" fill="none"/></clipPath></defs><title>ENABLE UPDATED</title><g id="OBJECTS"><path d="M408.34,380.1s50.82-54.56,8.59-113.64c-37.46-52.41-81.14-48.83-113.19-27.56-13.65,9.06-53,1.12-86.49-52.21C171.57,114,13.24,158.07,42.11,270c14,54.15-42.52,56.11-13.74,110.24Z" fill="#def2f1"/><rect x="19.26" y="380.18" width="436.73" height="1.16" rx="0.58" fill="#110f24"/><path d="M222.26,251.76c0-.1.58-12-5.15-14.7l.4-.39a11.69,11.69,0,0,1,6.7,7.76c.87,3,.21,3.63.21,3.74Z" fill="#2b7a78"/><path d="M193.07,135.45a36.17,36.17,0,0,0,8.27,23.08,30.25,30.25,0,0,1,6.95,19.24V187.9A11.75,11.75,0,0,0,220,199.62h18.75a11.75,11.75,0,0,0,11.71-11.72V177.75a30.39,30.39,0,0,1,7-19.27,36.31,36.31,0,0,0-34.59-58.75c-.47.08-.94.18-1.4.28A36.31,36.31,0,0,0,193.07,135.45Z" fill="#3aafa9"/><path d="M193.07,135.45a36.17,36.17,0,0,0,8.27,23.08,30.25,30.25,0,0,1,6.95,19.24V187.9A11.75,11.75,0,0,0,220,199.62h2.88A11.76,11.76,0,0,0,234.6,187.9V177.75a30.39,30.39,0,0,1,7-19.27A36.33,36.33,0,0,0,221.46,100,36.31,36.31,0,0,0,193.07,135.45Z" fill="#110f24"/><path d="M221.31,167.45a23.05,23.05,0,0,0,2.86,2.13c1.48,1,4.24,1.61,4.81,8.72,0,6.31,0,22.2,0,22.37h.71c0-.17,0-15.37,0-21.94h0s0-.16,0-.43c0-.7,0-1.28,0-1.71.05-4.09,4.52-6.93,4.57-7h0c2.94-1.8,6.18-5.21,6.18-9.51a11.11,11.11,0,0,0-22.21,0A10.4,10.4,0,0,0,221.31,167.45Zm.48-.18a10.36,10.36,0,0,1-2.84-7.14c0-5.73,4.66-10,10.4-10a10.07,10.07,0,0,1,10.4,10c0,4.09-2.84,7.6-5.65,9.26a13.22,13.22,0,0,0-2.43,1.82,8.32,8.32,0,0,0-2.5,4,8.54,8.54,0,0,0-4.6-5.87A12.35,12.35,0,0,1,221.79,167.27Z" fill="#fff"/><path d="M238.68,199.62l0,.31-.51,3.95-.14,1h0l-.14,1.05-.51,3.95-.14,1h0l-.13,1.05-.08.57c-.26,2-2.55,3.54-5.29,3.54h-6.17a7,7,0,0,1-1.85-.25h0a5.46,5.46,0,0,1-1.44-.6l0,0a4.46,4.46,0,0,1-.94-.71,3.36,3.36,0,0,1-1-1.92L220,211.1l-.14-1h0v0h0l-.14-.94-.52-3.66-.14-1v0l-.14-.95-.56-4Z" fill="#3aafa9"/><path d="M236.23,199.62h-3.48c-5.63,1.62-11.21,3.23-13.8,4l.14.95v0l.14,1c2.09-.58,7.12-2,19.41-5.58l0-.31Z" fill="#110f24"/><path d="M219.89,210.11h0v0h0l.14,1c2.42-.68,7.42-2.11,17.82-5.13l.14-1.05h0l.14-1c-6.58,1.9-14.54,4.2-18.38,5.29Z" fill="#110f24"/><path d="M222.21,215.26l0,0a5.46,5.46,0,0,0,1.44.6h0L237.07,212l.13-1.05h0l.14-1-16.07,4.63A4.46,4.46,0,0,0,222.21,215.26Z" fill="#110f24"/><path d="M207.29,228.26s-.65,6.1,2.54,8.7,9,.7,9,.7.66-6.1-2.54-8.7S207.29,228.26,207.29,228.26Z" fill="#2b7a78"/><path d="M221.28,274a69.19,69.19,0,0,1,3.12-30.14,56.43,56.43,0,0,0,2.24-27.78h3.74c.1.54.36,13-3.63,30.06-3.58,15.36,3.11,27.86,1.69,27.86Z" fill="#2b7a78"/><path d="M229.14,232.77c0-.08,1.8-10.32,6.6-11.49h0a9,9,0,0,0-6.4,4.68c-1.13,2.13-.73,2.73-.76,2.82Z" fill="#2b7a78"/><rect x="80.91" y="308.81" width="56.63" height="7.07" rx="3.53" fill="#110f24"/><path d="M94.64,315.88,94,320l-9.74,59.87a.49.49,0,0,1-.51.37.76.76,0,0,1-.84-.75l7.73-61.31.29-2.32Z" fill="#110f24"/><path d="M94.64,315.88,94,320c-.47-1.65-3.36-1.82-3.36-1.82l.29-2.32Z" fill="#110f24"/><path d="M134.74,380.26a.49.49,0,0,1-.51-.37L124.49,320l-.42-2.58-.25-1.56h3.74l.29,2.32.23,1.81,7.5,59.5A.76.76,0,0,1,134.74,380.26Z" fill="#110f24"/><path d="M128.08,320c-1-2-4-2.57-4-2.57h0l-.25-1.56h3.74l.29,2.32Z" fill="#110f24"/><path d="M118.51,169.76c0-.34-.28-4-5.87-4.2,0,0,2.75.33,3.22,1.54,0,0-1.87-1.5-3.39-1s-2.42,3.15-2.43,4,.84,3.71,1.81,3.95a2.88,2.88,0,0,0,1.17,0,13.9,13.9,0,0,0-.75,1.34c-2.23,4.58.07,9,2,8.56,1.22-.32,1.56,1.75,1.56,1.75l11.76-9.52S123.22,167.25,118.51,169.76Z" fill="#2b7a78"/><path d="M147.37,222.21s2.33-.45,2.86,0,3.06,3,2.52,3.87-3.13-.7-3.67-.84-2.05-.74-2.05-.74Z" fill="#fff"/><path d="M122.6,304.62l-2.5.93s-10.85-15.05-12.19-28.3a20.51,20.51,0,0,1,.36-6.77s-.1-.6-.29-1.67c-.09-.5-.19-1.1-.31-1.79-.36-2-.84-4.79-1.4-7.94-1.27-7.25-2.93-16.51-4.21-23.32l.67-.22,7.29-2.35,1.5-4.78L117,227s1.21,2.37,2.29,13.57c.2,1.47.38,3.09.52,4.84a96.07,96.07,0,0,1-.52,19.62c-.25,1.94-.56,3.95-.95,6a26.66,26.66,0,0,0-.21,6C118.63,287.79,122.6,304.62,122.6,304.62Z" fill="#3aafa9"/><path d="M119.76,245.39,108,268.81c-.09-.5-.19-1.1-.31-1.79-.36-2-.84-4.79-1.4-7.94-1.27-7.25-2.93-16.51-4.21-23.32l.67-.22,7.29-2.35,1.5-4.78L117,227s1.21,2.37,2.29,13.57C119.44,242,119.62,243.64,119.76,245.39Z" fill="#2b7a78"/><path d="M114.58,230l-.28-2.34c-4.56,1.21-16.77-3.39-16.77-3.39s-4.42,3.89-3.84,13.21c.28,4.55.8,23.89,1.34,29.61.19,2.08.37,3.55.44,4.14h0a.79.79,0,0,1-.14.51,27.27,27.27,0,0,0-2,4.2c-5.31,14.15.82,31.57.82,31.57l1.59-.64s3.48-19.39,6.32-28a17.46,17.46,0,0,1,1.36-3.28,36.54,36.54,0,0,0,3.41-9.1,224,224,0,0,0,4.6-24.14C111.58,242.39,114.58,230,114.58,230Z" fill="#fff"/><path d="M147.37,222.21,147,224.5l-.42,0c-.83,0-2.85-.17-5.14-.41-3.44-.34-7.53-.95-9.15-1.95-2.48-1.51-6.54-6.15-9.19-10.78a2.27,2.27,0,0,1-.19-.34,16.58,16.58,0,0,1-2.42-6.84,9.54,9.54,0,0,1,.32-3.1,7.8,7.8,0,0,1,1.4-2.8,1.35,1.35,0,0,1,.26-.32,6.64,6.64,0,0,1,1.8-1.54c.45-.18,1,0,1.46.59v0a8.66,8.66,0,0,1,1.3,1.93s0,0,0,.06l.3.56a.66.66,0,0,1,.08.13c.21.44.41.89.62,1.37,2.33,5.06,4.8,12.74,6.87,15,.88,1,4.95,2.91,8.18,4.35C145.48,221.46,147.37,222.21,147.37,222.21Z" fill="#fff"/><path d="M123.3,201.62a14.18,14.18,0,0,1-5.26,1.24c-7.85.43-9.63-6.46-10-11a6.62,6.62,0,0,1,2.7-.34c.55,0,1.13.09,1.61.15,1-.5,2.69-2.94,3.69-7l.34.16,5.66,2.66s-.6,1.85-1,3.61a7.12,7.12,0,0,0-.39,3.09c.45.18.71.3.71.3h0A40.37,40.37,0,0,1,123.3,201.62Z" fill="#fff"/><path d="M122.08,187.44s-.6,1.85-1,3.61c-3.32-.92-4.32-4.4-4.62-6.27Z" fill="#3aafa9"/><path d="M122.78,189.4s-7.92-1.84-6.71-6.76,1-8.46,6.13-7.5,5.63,3.08,5.62,4.82S124.87,189.75,122.78,189.4Z" fill="#fff"/><path d="M128.27,177.17c-.86-1.78-1.86-1.69-2.49-1.37a5.68,5.68,0,0,0-7.37-.63A9.66,9.66,0,0,1,114,180s1.21,1.25,4.74,1.22a5.84,5.84,0,0,0,3.15-1.18,19.12,19.12,0,0,1-4.13,3.08c4.41-.85,7.38-6,7.68-6.5a6.42,6.42,0,0,1,1.15,2.72c.08,1.35-.38,4,.39,4.07C126.94,183.36,129.54,179.84,128.27,177.17Z" fill="#2b7a78"/><path d="M128.12,201.05c-.28-.86-2.19-4.19-2.19-4.19h0a16.24,16.24,0,0,0-4.57-2.42h0c0,.2,1.48,5.38,1,6.48s-10.57-2.5-11.12-3.33c-.44-.67-.45-4.18-.44-5.55,0-.34,0-.55,0-.55s-3.75-.51-5.86.35a16.24,16.24,0,0,1,1.14,3.8c0,.19,0,.38.07.57a7.92,7.92,0,0,1,0,1.19,2.31,2.31,0,0,1-.72,1.43,11.4,11.4,0,0,1-1.51,1.25l-1.24.9h0a100.85,100.85,0,0,1-.31,10.32,6.87,6.87,0,0,1-1,2.93,8.07,8.07,0,0,1-.74,1c-2.22,2.48-6.14,7.43-5.28,10.51.06,2.91,24.57,6.72,24,3.53,0,0,3.68-17.74,5.67-22,.07-.15.14-.31.2-.46a10,10,0,0,0,.31-5A4.55,4.55,0,0,1,128.12,201.05Z" fill="#3aafa9"/><path d="M112.8,223.31c-4.83-.05-8.92-5.07-11.42-9.08a6.87,6.87,0,0,0,1-2.93,100.85,100.85,0,0,0,.31-10.32h0l1.24-.9a11.4,11.4,0,0,0,1.51-1.25C109.4,205.52,119.36,223.38,112.8,223.31Z" fill="#2b7a78"/><path d="M131.07,225.94l-.66,2.42-2.16-.4c-.39-.07-.62-.13-.62-.13-1.06-.21-2.33-.49-3.71-.79h0c-2.36-.57-5-1.25-7.24-2a19.89,19.89,0,0,1-3.86-1.72,2.14,2.14,0,0,1-.26-.19c-2.21-1.61-4.84-6.33-6.88-11.4-.29-.7-.55-1.4-.82-2.08a51.89,51.89,0,0,1-2.15-7.18,21,21,0,0,1-.51-3.43,7.85,7.85,0,0,1,0-1c0-5.48,2.76-6.24,2.76-6.24l.19-.06c.47-.07,1,.25,1.47.87a16.84,16.84,0,0,1,2,3.58c1.07,2.43,2.21,5.59,3.27,8.73.58,1.72,1.15,3.44,1.72,5,.32,1,.64,1.87.94,2.7a26.6,26.6,0,0,0,1.59,3.69,9,9,0,0,0,2.33,2.1,80.68,80.68,0,0,0,7.49,4.65c1,.61,2.06,1.16,2.89,1.61C130.18,225.47,131.07,225.94,131.07,225.94Z" fill="#fff"/><path d="M108.6,196.22c-3.64-1-6.45,1.84-6.45,1.84,0-5.47,2.77-6.22,2.77-6.22C106,191.38,107.29,193.28,108.6,196.22Z" fill="#3aafa9"/><path d="M103.4,308.81H90.82a7,7,0,0,1,.35-3.37c.63-1.4,1.62-2,1.38-3.72a4.53,4.53,0,0,0,3.92,1.5,13.83,13.83,0,0,0,2.19,2.83C99.48,306.64,103.15,306.43,103.4,308.81Z" fill="#030231"/><path d="M130.42,308.81H117.84a5.25,5.25,0,0,1,.35-3.37,2.44,2.44,0,0,0-.09-2.9,4.75,4.75,0,0,0,2.12.4,4.3,4.3,0,0,0,1.87-.66,43.77,43.77,0,0,0,3.59,3.77C126.5,306.64,130.17,306.43,130.42,308.81Z" fill="#030231"/><path d="M135,244.71l1.74.71,8.35,3.43a6.53,6.53,0,0,0,8.49-3.56l.81-2c.53-.35,1.08-.72,1.64-1.12,9.12-6.56,19-.18,19-.18a1.46,1.46,0,0,0,.13-.68,1.66,1.66,0,0,0-.4-1c-6.14-4.27-14.89-4.78-18.74-4.78-1.22,0-1.95.05-1.95.05l-.23-.1c1.56-5.27-.35-10.64-4.6-12.39a7.44,7.44,0,0,0-2.81-.55,9.28,9.28,0,0,0-5.27,1.73,12.53,12.53,0,0,0-3.9,4.44,2,2,0,0,0-2.4,1.18l-3,7.29A5.81,5.81,0,0,0,135,244.71Zm12.11-15.66-.47-.19a1.55,1.55,0,0,0-.63-.13,1.69,1.69,0,0,0-1.56,1l-3.4-1.39a2,2,0,0,0-2.47.83l-.5-.2a11.52,11.52,0,0,1,3.94-4.28,8,8,0,0,1,5.21-1.26,6.41,6.41,0,0,1,1.64.43c3.79,1.56,5.48,6.41,4.1,11.21l-.37-.15a2,2,0,0,0-1.17-2.33l-3.4-1.39A1.68,1.68,0,0,0,147.09,229.05Z" fill="#3aafa9"/><path d="M154.37,243.3c.53-.35,1.08-.72,1.64-1.12,9.12-6.56,19-.18,19-.18a1.46,1.46,0,0,0,.13-.68,19,19,0,0,0-13-2.9C154.64,239.63,153.28,240.67,154.37,243.3Z" fill="#2b7a78"/><path d="M135,244.71l1.74.71c-2.61-1.42.62-7.44,2.51-11.41s4.75-2.16,4.75-2.16a2.28,2.28,0,0,1,2.06-1.26,1.58,1.58,0,0,1,1.05-1.54l-.47-.19a1.55,1.55,0,0,0-.63-.13,1.69,1.69,0,0,0-1.56,1l-3.4-1.39a2,2,0,0,0-2.47.83l-.5-.2a11.52,11.52,0,0,1,3.94-4.28,8,8,0,0,1,5.21-1.26,3.7,3.7,0,0,1-.83-1,9.28,9.28,0,0,0-5.27,1.73,12.53,12.53,0,0,0-3.9,4.44,2,2,0,0,0-2.4,1.18l-3,7.29A5.81,5.81,0,0,0,135,244.71Z" fill="#2b7a78"/><path d="M138.9,228.28c-1.21.51-2.91,2.29-5.64,1.21a44,44,0,0,0-5-1.53c-.39-.07-.62-.13-.62-.13l1.08-3.14a.42.42,0,0,0,.13,0c.7.15,4.25.91,5.92.53,1.87-.44,5,1.81,5,1.81S140.11,227.79,138.9,228.28Z" fill="#fff"/><path d="M173.06,247.27c0-1.13,2.06-4.64,2.06-4.64s2,3.51,2,4.64a2.06,2.06,0,1,1-4.11,0Z" fill="#fff"/><path d="M209.92,205.61s-5.18-7.31-11.06-9.46c0,0,2.2,17.15-1,17.36s-1.07-19.28-1.07-19.28-15.33-8.51-21.55-8.28c0,0,8.81,17.14,5.64,16.56s-13.16-18-13.16-18-16-3.94-19.15,5.49.75,14.46,3.11,15.2,17.74,1.44,17.23,3.41-11.08,4.56-16.77,2.43c0,0,5.47,16.14,13.9,15.83s11.32-5.34,16.54-5.44,8.92,1.52,6.24,2.77-11.4-.21-15.8,3.11-7.92,5.31-.23,7.37,19.3-.27,24.8-3.94c0,0,4.51-.37,8.05,20.44,1.37,8,.32,19.91.32,19.91l2.85-.43A101.73,101.73,0,0,0,202,228S216.24,217.4,209.92,205.61Z" fill="#2b7a78"/><path d="M256.62,236.39s-17.21-7.23-11.05-20.38c0,0,5.19-8.24,11.44-10.91,0,0-1.38,18.73,2.12,18.77s0-21,0-21,16.12-10.13,22.88-10.24c0,0-8.55,19.1-5.14,18.28s13.21-20.28,13.21-20.28,17.11-5.22,21.08,4.82,0,15.73-2.48,16.67-19.15,2.6-18.47,4.71,12.28,4.29,18.32,1.64c0,0-5,17.82-14.13,18s-12.6-5.13-18.26-4.93-9.58,2.18-6.61,3.37,12.35-.9,17.32,2.44,8.9,5.3.68,8-23.44,3.31-27.19-2.82Z" fill="#3aafa9"/><path d="M303.58,199.61s-43.64,19.8-47,36.78a34.71,34.71,0,0,1-2.53,16.23l.36,3.24s3.5-11.54,5.92-13.34C260.37,242.52,248.62,229.43,303.58,199.61Z" fill="#2b7a78"/><path d="M254.09,252.62s-5.79,11.4-.34,23.87l1.74-.69s-3.36-14-.51-21.59S254.09,252.62,254.09,252.62Z" fill="#5662d4"/><path d="M191,158.08c7,7.51,3.38,22.41,3.38,22.41s-15.1,2.73-22.15-4.77-3.38-22.41-3.38-22.41S184,150.58,191,158.08Z" fill="#2b7a78"/><path d="M191,158.08c7,7.51,3.38,22.41,3.38,22.41l-25.53-27.18S184,150.58,191,158.08Z" fill="#3aafa9"/><path d="M272.16,181.91c-3.68,4.26-12,3.12-12,3.12s-2.35-8.06,1.33-12.32,12-3.12,12-3.12S275.84,177.65,272.16,181.91Z" fill="#2b7a78"/><path d="M272.16,181.91c-3.68,4.26-12,3.12-12,3.12l13.32-15.44S275.84,177.65,272.16,181.91Z" fill="#3aafa9"/><polygon points="294.23 254.39 294.22 254.46 292.56 280.08 286.36 375.18 170.63 375.18 163.82 281.38 161.94 255.53 161.86 254.39 294.23 254.39" fill="#3aafa9"/><path d="M294.22,254.46l-1.67,25.62A202.53,202.53,0,0,0,228,269.74c-39.86,0-64.22,11.64-64.22,11.64l-1.88-25.85Z" fill="#2b7a78"/><polygon points="298.25 267.93 157.66 267.93 156.05 251.59 300.03 251.59 298.25 267.93" fill="#3aafa9"/><polygon points="288.14 380.25 168.15 380.25 166.78 374.56 289.67 374.56 288.14 380.25" fill="#2b7a78"/><path d="M229.21,378.06v-1s-4.55-5.05-5.94-7.61l-3.84-7.1-5,1.25,6.38,9Z" fill="#fff"/><path d="M201.16,248c.88-3.62-.4-5.3-1.55-6.19a5.41,5.41,0,0,0-1.8-2.65,6.58,6.58,0,0,0-3.52-.68,1.61,1.61,0,0,1,.74-.35,5.47,5.47,0,0,0-1.95.51c-8.38-3.23-9.7,9.11-9.52,12s.15,6.25-4.21,8.5c-8.32,4.32,2.76,20.56,2.76,20.56-.21-2.31,10.49-14.54,16.07-18.21a16.1,16.1,0,0,0,1.87-5.81,15.18,15.18,0,0,1-1.14,5.26C201.45,258.53,201.83,252.91,201.16,248Z" fill="#110f24"/><path d="M197.84,261.61s-2.69,1.42-4.74.86-3.18-3-3.15-3c.81-.16,1.05-1.28,1-6.09l.37.07,6.2,1.23s-.14,2-.15,3.78C197.4,260,197.49,261.44,197.84,261.61Z" fill="#fff"/><path d="M197.55,254.65s-.14,2-.15,3.78c-3.47-.09-5.3-3.26-6.05-5Z" fill="#3aafa9"/><path d="M222.25,367l-3.28.1-3.56.11a70.31,70.31,0,0,1-12.82-23.81c-.11-.34-.22-.69-.34-1-2.52-7.35-7.75-16.58-10.51-24.94-.44-1.33-.83-2.58-1.18-3.76-.12-.38-.23-.76-.33-1.12a88.59,88.59,0,0,1-3.16-16.64l19.89.16A370.81,370.81,0,0,0,222.25,367Z" fill="#2b7a78"/><path d="M204.18,284.62c-.05,9.47,1.39,13.53,1.39,13.53a26.8,26.8,0,0,1-18.65,1.14c-.11,0-8.38-1.92-8.38-1.92.17-.39,1.68-6.77,1.84-7.12,2.14-4.59,3.76-6.6,4-8a29.78,29.78,0,0,0,.24-7.93,63.21,63.21,0,0,0-2.45-12.46A64.38,64.38,0,0,0,190.4,259a6.38,6.38,0,0,0,4.43,1.65c2-.05,2.67-.91,2.57-1.85,2.15,1.19,3.86,2.32,3.86,2.32,1.83,3.17,5.53,6.25,5.8,11.12C207.13,273.48,204.18,284.35,204.18,284.62Z" fill="#3aafa9"/><path d="M198.71,256.39s-8.21.13-8.22-5-1.07-8.54,4.17-8.84,6.26,1.65,6.68,3.35S200.84,256.22,198.71,256.39Z" fill="#fff"/><path d="M198.4,242.44s-2.24,6-5.69,6.89-5,0-5,0a9.76,9.76,0,0,0,3.2-5.77S196.71,239.59,198.4,242.44Z" fill="#110f24"/><path d="M197.85,242.93a7.28,7.28,0,0,1,2.08,2.64c.41,1.3.6,4,1.38,3.89,0,0,1.69-4.07-.21-6.38S197.85,242.93,197.85,242.93Z" fill="#110f24"/><path d="M192.56,376.83c-.28-1.53-.81-4.19-.81-4.19l.12-9.43h-5.72l2.14,9a9.29,9.29,0,0,1-.44,3.77s-.55,2.51,1.91,2.55S192.84,378.37,192.56,376.83Z" fill="#fff"/><path d="M187.85,376a17.25,17.25,0,0,0-.19,4.26s.73,0,2.52,0,2.61,0,2.61,0a17.44,17.44,0,0,0-.4-4.32S190.64,378.56,187.85,376Z" fill="#17252a"/><polygon points="211.62 291.19 215.5 303.01 213.28 303.89 206.88 293.45 211.62 291.19" fill="#fff"/><path d="M232.14,380.26s-4.95.09-5.79,0-1.49-1.62-2.4-3.43a3.07,3.07,0,0,0-2.06-1.38l0,4.81h-1.25l-1.3-5.07c-.8-1.48-.19-2.82.37-4,.66,0,2.57.45,5.93,4.23a4.37,4.37,0,0,0,3.53,1.65l0,0C232.05,378.37,232.14,380.26,232.14,380.26Z" fill="#17252a"/><path d="M212.58,292.34s-.6-1.54-1.39-3.49-2.81-20.92-4.13-23.74-5.89-4.64-5.89-4.64l-3.77-1.63s4.75,11.73,4.89,14.1.55,38.82.55,38.82-.28,1.67,2.94,1,4.05-1.4,4.05-1.4-1.17-8.54-1.87-16.92A9.49,9.49,0,0,0,212.58,292.34Z" fill="#2b7a78"/><path d="M219,367.09l-3.56.11a70.31,70.31,0,0,1-12.82-23.81c-.11-.34-.22-.69-.34-1-2.52-7.35-7.75-16.58-10.51-24.94-.44-1.33-.83-2.58-1.18-3.76-.12-.38-.23-.76-.33-1.12l2.93-2.23S202,324.55,204.68,338C207,349.59,216.52,363.6,219,367.09Z" fill="#17252a"/><path d="M193.46,339.2c0,6.52-.28,21.5-1.12,27.71h-3.15c-1.75,0-2.61,0-2.61,0-2.13-10.79-3.65-19.71-4.75-27.4-.91-6.31-1.71-11.72-2.33-16.38s-1.06-8.62-1.21-11.93c0-.53,0-1,0-1.53s0-1,0-1.44l17.19-1.68C195.2,317.94,193.44,335.41,193.46,339.2Z" fill="#2b7a78"/><path d="M189.19,366.91c-1.75,0-2.61,0-2.61,0-2.13-10.79-3.65-19.71-4.75-27.4-.91-6.31-1.71-11.72-2.33-16.38s-1.06-8.62-1.21-11.93l6.31,3.71s-4,1.42-2.49,12.17S187.05,365.38,189.19,366.91Z" fill="#17252a"/><path d="M190,311.06s-1.21,4.38-5.4,3.82a50.69,50.69,0,0,1-10.15-3.07s1.79-5.66,4-13.09c2.69-9,6-20.6,7.6-27.91a48.23,48.23,0,0,0,.86-5l3.47-6.75s5.18,11.64,5.46,14.57S190,311.06,190,311.06Z" fill="#2b7a78"/><path d="M185.81,273.2l4.59-14.13a73.56,73.56,0,0,0-8.7,3.19s-1.82,2.35-2.94,7.75c0,0-1.19,13,1.46,17.73,0,0,8.38,1.68,21.79-2.93v-3.07s-14.67.77-17.67,1.11Z" fill="#fff"/><path d="M189.81,279.78c-.19,4.75-1.3,14-11.26,18.9l-.08,0c2.69-9,6-20.6,7.6-27.91C187.9,273.54,189.91,277.17,189.81,279.78Z" fill="#17252a"/><path d="M190.4,259.07s-8.5.6-10.55,5.17-2.7,19.73-.09,24.2c0,0,3.59,1,9.93-.17l.24,0s2-5,.21-5.93c0,0-5.36.27-4.8-1.49S190.4,259.07,190.4,259.07Z" fill="#2b7a78"/><path d="M211.72,283.63l-.25.81-13.95-4.34a.53.53,0,0,1-.1-.49.42.42,0,0,1,.35-.32Z" fill="#17252a"/><polygon points="212.73 284.4 211.72 283.63 211.47 284.44 212.73 284.4" fill="#17252a"/><path d="M214.94,302.68s3.54,2,4,3.45.15,4.61-.42,4.56-1.4-3.35-1.86-3.58-1.12-.93-1.12-.42.47,1.44.23,1.58-1-1.3-1.49-1.58-.73-2.58-1.22-3.2S214.94,302.68,214.94,302.68Z" fill="#fff"/><path d="M202,281.74s3.16-1.95,4.49-1.65,4.71,2.75,3.08,3.28-2.94,0-3.57.36-1.09,1.09-4,1.08S202,281.74,202,281.74Z" fill="#fff"/><path d="M339.3,290.23s-4,2.29-5.16,2.29-5.56-.86-6.8-.23a14.78,14.78,0,0,0-3.89,4c-.75,1.5,3,.84,4.83-.43a1.09,1.09,0,0,1,.89-.19,8.85,8.85,0,0,0,3.79.21c1.25-.46,7.85-1,7.85-1Z" fill="#fff"/><path d="M370,259s-4.18,29.72-11.1,32.38c-3.42,1.31-18.51,4.29-23,4.59,0,0-1.09-.89-.83-4.5,0,0,15.82-5.81,18.07-9,3.34-4.7-2.08-19.19,2.12-23.61S366.52,252.57,370,259Z" fill="#2b7a78"/><path d="M368.57,321.59a53,53,0,0,1-4.08,5.85c-4.5,5.67-9.39,10.35-10.24,14.77a20.38,20.38,0,0,1-.79,2.83c-.35,1-.79,2.07-1.3,3.18a98.2,98.2,0,0,1-7.61,13c-4.92,7.29-9.55,13.37-9.55,13.37l-8.48-.36c.34-.85,4-10.92,9-23.22l6.21-15.44c.28-.68.55-1.36.82-2,.63-1.56,1.26-3.11,1.86-4.61l8.35-20.76s18.59-7,20.52-2.47C374.86,309.45,373.56,313.13,368.57,321.59Z" fill="#17252a"/><path d="M334.74,373.05s-.44,7-1.79,7.1c-.18,0-6.87,0-6.87,0l-8.54-.05a2.77,2.77,0,0,1,2.55-2.5c2.5-.43,6.67-2.19,8.19-5.49C329.87,368.66,334.74,373.05,334.74,373.05Z" fill="#17252a"/><path d="M344,353.73s5.9,3.79,5.33,5c-.08.17-3.34,6-3.34,6l-4.21,7.44a2.78,2.78,0,0,1-.93-3.45c.83-2.39,1.34-6.9-.8-9.83C337.79,355.84,344,353.73,344,353.73Z" fill="#17252a"/><path d="M339.55,360.73s5,.49,6.46-5.61c0,0-5.37-19.26-8.67-23.35-.15-.18-.11-.39.09-.61,2.49-2.81,30.15-8.52,33.76-14.14a17.27,17.27,0,0,0,2.34-5.39,12.7,12.7,0,0,0,.17-5.8l-27.62-.8s-22.94,14.34-25.61,24.09C318.89,334.92,339.55,360.73,339.55,360.73Z" fill="#2b7a78"/><path d="M337.43,331.16c2.49-2.81,30.15-8.52,33.76-14.14a17.27,17.27,0,0,0,2.34-5.39v-3.49l-11.74-1.85s-3.33,10.24-13.19,14.09C339.36,324,337.61,330.36,337.43,331.16Z" fill="#17252a"/><path d="M353.64,257.12c5.59,1.45,14.85-3.73,14.85-3.73a13.71,13.71,0,0,1-4.93-7.73c-.07-.27-.13-.54-.18-.82l-2.87-.61-4.27,3.82a35,35,0,0,0,.63,4.32c.09.48.2,1,.32,1.53A13.15,13.15,0,0,0,353.64,257.12Z" fill="#fff"/><path d="M374.41,280.29c-.8,10.76.25,27.13-.66,30-.78,2.45-9.71,1-13.28.18-1.32-.31-2.91-.74-4.56-1.25-4.61-1.42-9.62-3.46-10.16-5a1.54,1.54,0,0,1-.05-.17,1.38,1.38,0,0,1,0-.64,10.71,10.71,0,0,0,1-3.51c.09-2.13.08-4.63.16-7.33,0-.3,0-.64,0-.94v-.28c.07-3,.23-6.17.41-9.3.12-2,.25-3.92.41-5.79a78.1,78.1,0,0,1,1.65-11.82,19,19,0,0,1,6.1-9.42l1.7-1.46a9.8,9.8,0,0,0,6.17-.82c2.19-1,2.95-1.78,3.33-1.5C371.71,255.15,375.35,267.12,374.41,280.29Z" fill="#3aafa9"/><path d="M355.91,309.19c-4.61-1.42-9.62-3.46-10.16-5a1.54,1.54,0,0,1-.05-.17c0-.22,0-.43,0-.64a10.71,10.71,0,0,0,1-3.51c.09-2.13.08-4.63.16-7.33,0-.3,0-.64,0-.94v-.28l18.6-23.71S378,293.69,355.91,309.19Z" fill="#2b7a78"/><path d="M356.24,248.05a35,35,0,0,0,.63,4.32c4.17-1.35,6.06-5.11,6.69-6.71-.07-.27-.13-.54-.18-.82l-2.87-.61Z" fill="#3aafa9"/><path d="M355.68,250.46s9.09-1.52,8.05-7.16-.55-9.65-6.4-8.92-6.57,3.09-6.69,5.06S353.29,250.71,355.68,250.46Z" fill="#fff"/><path d="M342.22,297.15l-22.69.48-6.32-19.45a.42.42,0,0,0-.53-.27h0a.41.41,0,0,0-.27.53L319,298.66a.5.5,0,0,0,.5.36l22.77-.49Z" fill="#17252a"/><path d="M341.79,299.64s-7.44,2-10.23,1.76-5.11-1.54-5.46-2.23-1.09-1.92.81-1.69,4.49.63,4.57.26-1.55-.33-1.55-.33-.49-.71.13-.74,2.43-.52,3.1-.18,1.29,1.57,1.78,1.52,6.23-2.58,6.23-2.58Z" fill="#fff"/><path d="M368.14,260.21s-.88,30-7.47,33.41c-3.25,1.68-17.93,6.3-22.33,7.09,0,0-1.19-.76-1.32-4.38,0,0,15.08-7.52,17-10.9,2.81-5-4.18-18.86-.49-23.71S364,254.21,368.14,260.21Z" fill="#3aafa9"/><path d="M363.56,245.66a4.33,4.33,0,0,0-1.09-3s.41-1.94-.35-2.26-.93,1.31-1.29,1.06a7.85,7.85,0,0,1-2.59-3.27c-.67-1.79-6.82.38-7.54.7s-3-.86-3.47-1.82a13.47,13.47,0,0,0,1.86-1.79c.57-.77,4.61-6,10.24-4.48s6.4,4.16,6.08,6.46S365.87,244.89,363.56,245.66Z" fill="#17252a"/><rect x="348.93" y="318.72" width="45.91" height="12.01" rx="6" fill="#110f24"/><path d="M357.5,330.73l-.67,3.18-9.74,46c0,.16-.24.28-.51.28-.5,0-.89-.27-.83-.58l7.72-47.09.29-1.78Z" fill="#110f24"/><path d="M357.5,330.73l-.67,3.18c-.46-1.27-3.36-1.4-3.36-1.4l.29-1.78Z" fill="#110f24"/><path d="M397.61,380.18c-.26,0-.48-.12-.51-.28l-9.74-46-.42-2-.25-1.19h3.74l.29,1.78.23,1.39,7.49,45.7C398.5,379.91,398.11,380.18,397.61,380.18Z" fill="#110f24"/><path d="M391,333.9c-.95-1.51-4-2-4-2h0l-.25-1.19h3.74l.29,1.78Z" fill="#110f24"/><path d="M308.23,380.16a.8.8,0,0,1-1-.57L298,342.08l-1.8-7.25-3.53-14.25-5.39-21.7,5.06-.33,3,14.71,4.28,21.14,2.15,10.65,7,34.38A.62.62,0,0,1,308.23,380.16Z" fill="#2b7a78"/><path d="M295.29,313.26l-.07.21s-2.49,3.61-2.58,7.11l-5.39-21.7,5.06-.33Z" fill="#110f24"/><path d="M290.87,298.88l-8.93,35.95-1.8,7.25-9.31,37.51a.78.78,0,0,1-.94.57.63.63,0,0,1-.46-.73l7-34.38,2.16-10.65,7.25-35.85Z" fill="#2b7a78"/><path d="M281.94,334.83l-1.8,7.25c-2.12.14-3.75,3-3.75,3l2.16-10.65,3.38-.34S281.94,334.35,281.94,334.83Z" fill="#110f24"/><path d="M261,298.88l-8.92,35.95-1.8,7.25L241,379.59a.78.78,0,0,1-.94.57.62.62,0,0,1-.46-.73l7-34.38,2.16-10.65L256,298.55Z" fill="#2b7a78"/><path d="M252.11,334.83l-1.8,7.25c-2.13.14-3.75,3-3.75,3l2.16-10.65,3.37-.34S252.11,334.35,252.11,334.83Z" fill="#110f24"/><polygon points="283.82 340.23 240.87 340.23 256.08 284.04 297.97 284.04 283.82 340.23" fill="#2b7a78"/><polygon points="282.54 340.23 239.59 340.23 254.8 284.04 296.69 284.04 282.54 340.23" fill="#fff"/><g clip-path="url(#clip-path)"><path d="M-1145.57,429.52s150-143.1,343.34-151.89c64.93-2.95,330.81,56.23,554.71,102.72,9.41,2,244.07,48.75,276,50.16Z" fill="#3aafa9"/></g></g></svg>