<svg width="15" height="15" viewBox="0 0 15 15" fill="none" xmlns="http://www.w3.org/2000/svg">
<path d="M7.26731 0C3.25996 0 0 3.25996 0 7.26731C0 11.2747 3.25996 14.5346 7.26731 14.5346C11.2747 14.5346 14.5346 11.2747 14.5346 7.26731C14.5346 3.25996 11.2747 0 7.26731 0ZM10.7235 11.0263C10.6054 11.1444 10.4504 11.2038 10.2954 11.2038C10.1404 11.2038 9.98524 11.1444 9.86725 11.0263L6.83916 7.9983C6.72528 7.88508 6.66174 7.73117 6.66174 7.57015V3.63366C6.66174 3.29877 6.93298 3.02808 7.26731 3.02808C7.60165 3.02808 7.87288 3.29877 7.87288 3.63366V7.31943L10.7235 10.17C10.9603 10.4068 10.9603 10.7895 10.7235 11.0263Z" fill="#3AAFA9"/>
</svg>
