<svg width="20" height="20" viewBox="0 0 20 20" fill="none" xmlns="http://www.w3.org/2000/svg">
<g clip-path="url(#clip0)">
<path d="M8.17861 1.68994H1.86707C1.65783 1.68994 1.45716 1.77306 1.3092 1.92102C1.16125 2.06897 1.07813 2.26964 1.07812 2.47888V8.79043C1.07813 8.99967 1.16125 9.20034 1.3092 9.3483C1.45716 9.49625 1.65783 9.57937 1.86707 9.57937H8.17861C8.38785 9.57937 8.58852 9.49625 8.73648 9.3483C8.88444 9.20034 8.96756 8.99967 8.96756 8.79043V2.47888C8.96756 2.26964 8.88444 2.06897 8.73648 1.92102C8.58852 1.77306 8.38785 1.68994 8.17861 1.68994ZM7.38967 8.00149H2.65601V3.26783H7.38967V8.00149Z" fill="white"/>
<path d="M17.6459 1.68994H11.3344C11.1251 1.68994 10.9244 1.77306 10.7765 1.92102C10.6285 2.06897 10.5454 2.26964 10.5454 2.47888V8.79043C10.5454 8.99967 10.6285 9.20034 10.7765 9.3483C10.9244 9.49625 11.1251 9.57937 11.3344 9.57937H17.6459C17.8551 9.57937 18.0558 9.49625 18.2038 9.3483C18.3517 9.20034 18.4348 8.99967 18.4348 8.79043V2.47888C18.4348 2.26964 18.3517 2.06897 18.2038 1.92102C18.0558 1.77306 17.8551 1.68994 17.6459 1.68994ZM16.857 8.00149H12.1233V3.26783H16.857V8.00149Z" fill="white"/>
<path d="M8.17861 11.1572H1.86707C1.65783 11.1572 1.45716 11.2403 1.3092 11.3883C1.16125 11.5363 1.07813 11.7369 1.07812 11.9462V18.2577C1.07813 18.467 1.16125 18.6676 1.3092 18.8156C1.45716 18.9635 1.65783 19.0467 1.86707 19.0467H8.17861C8.38785 19.0467 8.58852 18.9635 8.73648 18.8156C8.88444 18.6676 8.96756 18.467 8.96756 18.2577V11.9462C8.96756 11.7369 8.88444 11.5363 8.73648 11.3883C8.58852 11.2403 8.38785 11.1572 8.17861 11.1572ZM7.38967 17.4688H2.65601V12.7351H7.38967V17.4688Z" fill="white"/>
<path d="M17.6459 11.1572H11.3344C11.1251 11.1572 10.9244 11.2403 10.7765 11.3883C10.6285 11.5363 10.5454 11.7369 10.5454 11.9462V18.2577C10.5454 18.467 10.6285 18.6676 10.7765 18.8156C10.9244 18.9635 11.1251 19.0467 11.3344 19.0467H17.6459C17.8551 19.0467 18.0558 18.9635 18.2038 18.8156C18.3517 18.6676 18.4348 18.467 18.4348 18.2577V11.9462C18.4348 11.7369 18.3517 11.5363 18.2038 11.3883C18.0558 11.2403 17.8551 11.1572 17.6459 11.1572ZM16.857 17.4688H12.1233V12.7351H16.857V17.4688Z" fill="white"/>
</g>
<defs>
<clipPath id="clip0">
<rect width="18.9346" height="18.9346" fill="white" transform="translate(0.289062 0.900879)"/>
</clipPath>
</defs>
</svg>
