<svg width="19" height="20" viewBox="0 0 19 20" fill="none" xmlns="http://www.w3.org/2000/svg">
<g clip-path="url(#clip0)">
<path d="M10.6813 16.9333C6.1079 16.9333 2.40039 13.2259 2.40039 8.65244C2.40039 4.07901 6.10786 0.371582 10.6813 0.371582C15.2547 0.371582 18.9622 4.07905 18.9622 8.65248C18.9622 13.2259 15.2547 16.9333 10.6813 16.9333ZM10.6813 2.73757C7.41456 2.73757 4.76637 5.38575 4.76637 8.65248C4.76637 11.9192 7.41456 14.5674 10.6813 14.5674C13.948 14.5674 16.5962 11.9192 16.5962 8.65248C16.5962 5.38575 13.948 2.73757 10.6813 2.73757Z" fill="white"/>
<path d="M1.21768 19.2994C0.903226 19.3012 0.601005 19.1777 0.377764 18.9563C-0.0861279 18.4962 -0.089186 17.7472 0.370914 17.2833C0.373197 17.281 0.375481 17.2787 0.377764 17.2765L4.82578 12.8284C5.30598 12.3646 6.07132 12.3778 6.53521 12.858C6.9991 13.3382 6.98585 14.1036 6.50565 14.5674L2.05759 18.9563C1.83435 19.1777 1.53213 19.3012 1.21768 19.2994Z" fill="white"/>
</g>
<defs>
<clipPath id="clip0">
<rect width="18.9346" height="18.9346" fill="white" transform="translate(0.027832 0.368164)"/>
</clipPath>
</defs>
</svg>
