<svg width="16" height="16" viewBox="0 0 16 16" fill="none" xmlns="http://www.w3.org/2000/svg">
<g clip-path="url(#clip0)">
<path d="M14.0488 5.32311C14.0504 5.923 13.9331 6.51725 13.7035 7.07147C13.4739 7.62568 13.1366 8.12885 12.7112 8.55186L6.9457 14.3174C6.33181 14.9305 5.49959 15.2747 4.63199 15.2744C3.76439 15.2741 2.9324 14.9293 2.31891 14.3158C1.70542 13.7024 1.36064 12.8704 1.36035 12.0028C1.36007 11.1352 1.7043 10.3029 2.31738 9.68905L8.15474 3.85185C8.33828 3.66691 8.55653 3.52002 8.79698 3.41962C9.03742 3.31922 9.29531 3.26728 9.55587 3.26679C9.81643 3.26629 10.0745 3.31725 10.3154 3.41673C10.5562 3.51622 10.775 3.66227 10.9592 3.84652C11.1435 4.03077 11.2895 4.24958 11.389 4.4904C11.4885 4.73122 11.5394 4.98932 11.5389 5.24988C11.5384 5.51044 11.4865 5.76834 11.3861 6.00878C11.2857 6.24921 11.1388 6.46746 10.9538 6.651L6.53105 11.0737C6.48817 11.1165 6.43002 11.1406 6.36939 11.1406C6.30875 11.1406 6.2506 11.1165 6.20772 11.0737L5.56108 10.427C5.51821 10.3842 5.49413 10.326 5.49413 10.2654C5.49413 10.2047 5.51821 10.1466 5.56108 10.1037L9.98388 5.68103C10.0403 5.62461 10.085 5.55764 10.1156 5.48393C10.1461 5.41022 10.1618 5.33121 10.1618 5.25143C10.1618 5.17164 10.1461 5.09264 10.1156 5.01892C10.085 4.94521 10.0403 4.87824 9.98388 4.82182C9.86793 4.71172 9.71415 4.65033 9.55426 4.65033C9.39437 4.65033 9.24058 4.71172 9.12464 4.82182L3.28728 10.659C2.93078 11.0155 2.7305 11.4991 2.73051 12.0032C2.73051 12.5074 2.9308 12.9909 3.28732 13.3474C3.64383 13.7039 4.12736 13.9042 4.63153 13.9042C5.13571 13.9042 5.61923 13.7039 5.97574 13.3474L11.7414 7.58198C12.3404 6.9829 12.677 6.17037 12.677 5.32314C12.677 4.47592 12.3404 3.66339 11.7414 3.06431C11.1423 2.46523 10.3298 2.12868 9.48252 2.12868C8.6353 2.12868 7.82277 2.46524 7.22369 3.06432L4.70187 5.58614C4.659 5.62901 4.60084 5.6531 4.54021 5.6531C4.47958 5.6531 4.42142 5.62901 4.37854 5.58614L3.73191 4.9395C3.68904 4.89663 3.66495 4.83847 3.66495 4.77784C3.66495 4.71721 3.68904 4.65905 3.73191 4.61617L6.25373 2.09445C6.89233 1.45588 7.70594 1.02101 8.59168 0.844821C9.47743 0.668637 10.3955 0.759053 11.2299 1.10464C12.0642 1.45022 12.7774 2.03545 13.2792 2.78633C13.7809 3.53721 14.0488 4.42001 14.0488 5.32311Z" fill="#3AAFA9"/>
</g>
<defs>
<clipPath id="clip0">
<rect width="14.6334" height="14.6334" fill="white" transform="translate(0.387695 0.756836)"/>
</clipPath>
</defs>
</svg>
