<svg width="25" height="24" viewBox="0 0 25 24" fill="none" xmlns="http://www.w3.org/2000/svg">
<path fill-rule="evenodd" clip-rule="evenodd" d="M16.5752 6V17.5C16.5752 19.71 14.7852 21.5 12.5752 21.5C10.3652 21.5 8.5752 19.71 8.5752 17.5V5C8.5752 3.62 9.6952 2.5 11.0752 2.5C12.4552 2.5 13.5752 3.62 13.5752 5V15.5C13.5752 16.05 13.1252 16.5 12.5752 16.5C12.0252 16.5 11.5752 16.05 11.5752 15.5V6H10.0752V15.5C10.0752 16.88 11.1952 18 12.5752 18C13.9552 18 15.0752 16.88 15.0752 15.5V5C15.0752 2.79 13.2852 1 11.0752 1C8.8652 1 7.0752 2.79 7.0752 5V17.5C7.0752 20.54 9.5352 23 12.5752 23C15.6152 23 18.0752 20.54 18.0752 17.5V6H16.5752Z" fill="#110F24" fill-opacity="0.4"/>
</svg>
