<svg width="17" height="17" viewBox="0 0 17 17" fill="none" xmlns="http://www.w3.org/2000/svg">
<path fill-rule="evenodd" clip-rule="evenodd" d="M1.4165 13.7451C1.4165 14.4815 2.05077 15.0784 2.83317 15.0784H12.3349L15.5832 12.0212V3.0784C15.5832 2.34203 14.9489 1.74507 14.1665 1.74507H2.83317C2.05077 1.74507 1.4165 2.34203 1.4165 3.0784V13.7451ZM2.83311 3.07841H14.1664V10.4117H12.0416C11.2592 10.4117 10.6249 11.0087 10.6249 11.7451V13.7451H2.83311V3.07841ZM12.0416 11.7451H13.873L12.0416 13.4688V11.7451ZM4.95811 10.4117V11.7451H9.20811V10.4117H4.95811ZM4.95811 9.07841V7.74507H12.0414V9.07841H4.95811ZM4.95811 5.07841V6.41174H12.0414V5.07841H4.95811Z" fill="#3AAFA9"/>
</svg>
