<svg width="45" height="45" viewBox="0 0 45 45" fill="none" xmlns="http://www.w3.org/2000/svg">
<path d="M14.373 19.1699C14.373 19.6312 14.2503 20.0417 14.0049 20.4014C13.7637 20.7611 13.4357 21.0425 13.021 21.2456C13.5034 21.453 13.8843 21.7555 14.1636 22.1533C14.4471 22.5511 14.5889 23.0018 14.5889 23.5054C14.5889 24.3052 14.318 24.9421 13.7764 25.416C13.2389 25.89 12.5301 26.127 11.6499 26.127C10.7612 26.127 10.0482 25.89 9.51074 25.416C8.97754 24.9378 8.71094 24.3009 8.71094 23.5054C8.71094 23.006 8.84635 22.5553 9.11719 22.1533C9.39225 21.7513 9.771 21.4466 10.2534 21.2393C9.84294 21.0361 9.51921 20.7547 9.28223 20.395C9.04525 20.0353 8.92676 19.627 8.92676 19.1699C8.92676 18.3913 9.17643 17.7734 9.67578 17.3164C10.1751 16.8594 10.8332 16.6309 11.6499 16.6309C12.4624 16.6309 13.1183 16.8594 13.6177 17.3164C14.1213 17.7734 14.373 18.3913 14.373 19.1699ZM13.4146 23.48C13.4146 22.9637 13.2495 22.5426 12.9194 22.2168C12.5936 21.891 12.1662 21.728 11.6372 21.728C11.1082 21.728 10.6829 21.8888 10.3613 22.2104C10.0439 22.5321 9.88525 22.9552 9.88525 23.48C9.88525 24.0047 10.0397 24.4173 10.3486 24.7178C10.6618 25.0182 11.0955 25.1685 11.6499 25.1685C12.2 25.1685 12.6317 25.0182 12.9448 24.7178C13.258 24.4131 13.4146 24.0005 13.4146 23.48ZM11.6499 17.5957C11.1886 17.5957 10.8141 17.7396 10.5264 18.0273C10.2428 18.3109 10.1011 18.6981 10.1011 19.189C10.1011 19.6587 10.2407 20.0396 10.52 20.3315C10.8035 20.6193 11.1802 20.7632 11.6499 20.7632C12.1196 20.7632 12.4941 20.6193 12.7734 20.3315C13.057 20.0396 13.1987 19.6587 13.1987 19.189C13.1987 18.7192 13.0527 18.3363 12.7607 18.04C12.4688 17.7438 12.0985 17.5957 11.6499 17.5957ZM17.7754 20.8076H18.6577C19.2121 20.7992 19.6479 20.6532 19.9653 20.3696C20.2827 20.0861 20.4414 19.7031 20.4414 19.2207C20.4414 18.1374 19.9019 17.5957 18.8228 17.5957C18.3149 17.5957 17.9087 17.7417 17.604 18.0337C17.3035 18.3215 17.1533 18.7044 17.1533 19.1826H15.979C15.979 18.4505 16.2456 17.8433 16.7788 17.3608C17.3162 16.8742 17.9976 16.6309 18.8228 16.6309C19.6945 16.6309 20.3779 16.8615 20.873 17.3228C21.3682 17.784 21.6157 18.4251 21.6157 19.2461C21.6157 19.6481 21.4845 20.0374 21.2222 20.4141C20.964 20.7907 20.6107 21.0721 20.1621 21.2583C20.6699 21.4191 21.0614 21.6857 21.3364 22.0581C21.6157 22.4305 21.7554 22.8854 21.7554 23.4229C21.7554 24.2523 21.4845 24.9103 20.9429 25.397C20.4012 25.8836 19.6966 26.127 18.8291 26.127C17.9616 26.127 17.2549 25.8921 16.709 25.4224C16.1673 24.9526 15.8965 24.3327 15.8965 23.5625H17.0771C17.0771 24.0492 17.2358 24.4385 17.5532 24.7305C17.8706 25.0225 18.2959 25.1685 18.8291 25.1685C19.3962 25.1685 19.8299 25.0203 20.1304 24.7241C20.4308 24.4279 20.5811 24.0026 20.5811 23.4482C20.5811 22.9108 20.416 22.4982 20.0859 22.2104C19.7559 21.9227 19.2798 21.7746 18.6577 21.7661H17.7754V20.8076ZM23.2661 18.5352C23.2661 17.9808 23.4417 17.5238 23.793 17.1641C24.1484 16.8044 24.6034 16.6245 25.1577 16.6245C25.7205 16.6245 26.1755 16.8065 26.5225 17.1704C26.8737 17.5301 27.0493 17.9977 27.0493 18.5732V19.0239C27.0493 19.5825 26.8716 20.0396 26.5161 20.395C26.1649 20.7463 25.7163 20.9219 25.1704 20.9219C24.6203 20.9219 24.1654 20.7463 23.8057 20.395C23.446 20.0396 23.2661 19.5677 23.2661 18.9795V18.5352ZM24.1421 19.0239C24.1421 19.354 24.2352 19.627 24.4214 19.8428C24.6076 20.0544 24.8573 20.1602 25.1704 20.1602C25.4709 20.1602 25.7121 20.0565 25.894 19.8491C26.0802 19.6418 26.1733 19.3582 26.1733 18.9985V18.5352C26.1733 18.2051 26.0824 17.9321 25.9004 17.7163C25.7184 17.5005 25.4709 17.3926 25.1577 17.3926C24.8446 17.3926 24.597 17.5005 24.415 17.7163C24.2331 17.9321 24.1421 18.2135 24.1421 18.5605V19.0239ZM27.7666 23.7339C27.7666 23.1795 27.9422 22.7246 28.2935 22.3691C28.6489 22.0094 29.1038 21.8296 29.6582 21.8296C30.2126 21.8296 30.6675 22.0073 31.0229 22.3628C31.3784 22.7183 31.5562 23.1901 31.5562 23.7783V24.229C31.5562 24.7834 31.3784 25.2404 31.0229 25.6001C30.6717 25.9556 30.221 26.1333 29.6709 26.1333C29.1208 26.1333 28.6659 25.9577 28.3062 25.6064C27.9465 25.251 27.7666 24.7791 27.7666 24.1909V23.7339ZM28.6426 24.229C28.6426 24.5633 28.7357 24.8384 28.9219 25.0542C29.1081 25.2658 29.3577 25.3716 29.6709 25.3716C29.9756 25.3716 30.2189 25.2679 30.4009 25.0605C30.5828 24.849 30.6738 24.5633 30.6738 24.2036V23.7339C30.6738 23.3996 30.5807 23.1266 30.3945 22.915C30.2126 22.7035 29.9671 22.5977 29.6582 22.5977C29.3577 22.5977 29.1123 22.7035 28.9219 22.915C28.7357 23.1224 28.6426 23.4038 28.6426 23.7593V24.229ZM25.437 25.3018L24.7705 24.8828L29.2837 17.6592L29.9502 18.0781L25.437 25.3018Z" fill="#3AAFA9"/>
<mask id="path-2-inside-1" fill="white">
<path d="M42.9979 22.5546C43.8364 22.5546 44.5215 23.2352 44.4644 24.0717C44.1807 28.2244 42.737 32.2257 40.2831 35.6128C37.5316 39.4109 33.6507 42.2428 29.1942 43.7043C24.7377 45.1658 19.9334 45.1823 15.467 43.7514C11.0006 42.3204 7.10038 39.5152 4.3229 35.736C1.54542 31.9569 0.0326586 27.397 0.000522514 22.7071C-0.0316135 18.0172 1.41851 13.437 4.14395 9.62012C6.86938 5.80327 10.7308 2.94487 15.1772 1.45285C19.1425 0.122245 23.3924 -0.0609773 27.4403 0.908183C28.2558 1.10341 28.7008 1.96048 28.4504 2.76072C28.2001 3.56095 27.3492 4.00045 26.5318 3.81402C23.0967 3.03064 19.5018 3.20449 16.1432 4.33151C12.3034 5.61999 8.96868 8.08845 6.61504 11.3846C4.26141 14.6808 3.0091 18.6362 3.03685 22.6863C3.06461 26.7364 4.371 30.6743 6.76958 33.9379C9.16816 37.2015 12.5364 39.624 16.3935 40.8597C20.2505 42.0955 24.3994 42.0812 28.248 40.8191C32.0965 39.557 35.448 37.1114 37.8242 33.8315C39.9026 30.9625 41.1419 27.5835 41.4198 24.0712C41.486 23.2354 42.1594 22.5546 42.9979 22.5546Z"/>
</mask>
<path d="M42.9979 22.5546C43.8364 22.5546 44.5215 23.2352 44.4644 24.0717C44.1807 28.2244 42.737 32.2257 40.2831 35.6128C37.5316 39.4109 33.6507 42.2428 29.1942 43.7043C24.7377 45.1658 19.9334 45.1823 15.467 43.7514C11.0006 42.3204 7.10038 39.5152 4.3229 35.736C1.54542 31.9569 0.0326586 27.397 0.000522514 22.7071C-0.0316135 18.0172 1.41851 13.437 4.14395 9.62012C6.86938 5.80327 10.7308 2.94487 15.1772 1.45285C19.1425 0.122245 23.3924 -0.0609773 27.4403 0.908183C28.2558 1.10341 28.7008 1.96048 28.4504 2.76072C28.2001 3.56095 27.3492 4.00045 26.5318 3.81402C23.0967 3.03064 19.5018 3.20449 16.1432 4.33151C12.3034 5.61999 8.96868 8.08845 6.61504 11.3846C4.26141 14.6808 3.0091 18.6362 3.03685 22.6863C3.06461 26.7364 4.371 30.6743 6.76958 33.9379C9.16816 37.2015 12.5364 39.624 16.3935 40.8597C20.2505 42.0955 24.3994 42.0812 28.248 40.8191C32.0965 39.557 35.448 37.1114 37.8242 33.8315C39.9026 30.9625 41.1419 27.5835 41.4198 24.0712C41.486 23.2354 42.1594 22.5546 42.9979 22.5546Z" stroke="#3AAFA9" stroke-width="4" mask="url(#path-2-inside-1)"/>
</svg>
