<svg width="20" height="20" viewBox="0 0 20 20" fill="none" xmlns="http://www.w3.org/2000/svg">
<g clip-path="url(#clip0)">
<path d="M9.5575 0.246826C5.5607 0.246826 2.30908 3.49844 2.30908 7.49524C2.30908 8.77459 2.64709 10.0324 3.28655 11.1326C3.43562 11.3891 3.60226 11.639 3.78192 11.8755L9.24256 19.1815H9.8724L15.3331 11.8756C15.5127 11.639 15.6793 11.3891 15.8284 11.1326C16.4679 10.0324 16.8059 8.77459 16.8059 7.49524C16.8059 3.49844 13.5543 0.246826 9.5575 0.246826ZM9.5575 9.89905C8.23204 9.89905 7.15369 8.8207 7.15369 7.49524C7.15369 6.16978 8.23204 5.09143 9.5575 5.09143C10.883 5.09143 11.9613 6.16978 11.9613 7.49524C11.9613 8.8207 10.883 9.89905 9.5575 9.89905Z" fill="#3AAFA9"/>
</g>
<defs>
<clipPath id="clip0">
<rect width="18.9346" height="18.9346" fill="white" transform="translate(0.090332 0.246826)"/>
</clipPath>
</defs>
</svg>
