<svg width="20" height="20" viewBox="0 0 20 20" fill="none" xmlns="http://www.w3.org/2000/svg">
<path d="M12.6372 10.7028C13.3767 12.5739 13.926 14.5002 14.2828 16.4682C14.792 16.1577 15.2677 15.7848 15.7004 15.3524C16.8236 14.229 17.5486 12.8133 17.8048 11.277C16.7013 10.8205 15.4926 10.5679 14.2259 10.5679C13.6843 10.5679 13.1537 10.6144 12.6372 10.7028Z" fill="white"/>
<path d="M15.7061 4.69586C15.7038 4.69378 15.7017 4.69152 15.6997 4.68945C14.2755 3.26531 12.382 2.48096 10.3681 2.48096C9.58051 2.48096 8.81142 2.60141 8.08154 2.8327C9.2512 4.29831 10.2802 5.86231 11.1622 7.51528C12.8237 6.80972 14.354 5.85401 15.7061 4.69586Z" fill="white"/>
<path d="M16.2988 5.36328C14.8805 6.58157 13.2954 7.56875 11.5708 8.30673C11.8251 8.81852 12.0652 9.33859 12.2918 9.8664C12.9248 9.74594 13.5704 9.68449 14.2257 9.68449C15.4948 9.68449 16.7291 9.91277 17.9005 10.362C17.9056 10.2487 17.9084 10.135 17.9084 10.0212C17.9084 8.30994 17.3422 6.68637 16.2988 5.36328Z" fill="white"/>
<path d="M5.72705 15.9648C7.04713 16.9999 8.66448 17.5612 10.3682 17.5612C11.4511 17.5612 12.499 17.3341 13.4579 16.9032C13.0984 14.8204 12.5229 12.811 11.7552 10.8984C9.08672 11.6266 6.88822 13.5047 5.72705 15.9648Z" fill="white"/>
<path d="M10.2257 10.4922C10.6135 10.3282 11.0089 10.1891 11.4104 10.0749C11.1986 9.5897 10.9737 9.11128 10.7371 8.63965C8.70016 9.39592 6.55821 9.77933 4.35782 9.77933C3.8466 9.77933 3.33878 9.75822 2.83472 9.71712C2.83058 9.81797 2.82812 9.91939 2.82812 10.0214C2.82812 12.0353 3.61248 13.9288 5.03662 15.3529C5.03699 15.3533 5.03756 15.3539 5.03813 15.3543C5.53068 14.372 6.17479 13.4791 6.95972 12.6941C7.90317 11.7507 9.00195 11.0099 10.2257 10.4922Z" fill="white"/>
<path d="M10.3234 7.84566C9.42863 6.18854 8.38188 4.62511 7.20204 3.17383C6.40694 3.54216 5.67442 4.05131 5.03635 4.68938C3.89553 5.8302 3.16565 7.27243 2.92041 8.83643C3.39449 8.87526 3.87366 8.89543 4.35774 8.89543C6.45181 8.89524 8.46124 8.52465 10.3234 7.84566Z" fill="white"/>
</svg>
