<svg xmlns="http://www.w3.org/2000/svg" viewBox="0 0 421.4 403.78"><title>ENABLE UPDATED</title><g id="OBJECTS"><path d="M282.6,299.82A8,8,0,0,0,292.8,305l16.91-5.64a8.05,8.05,0,1,0-5.08-15.28l-9.24,3.08-23.88-73.34a8,8,0,0,0-9.43-5.35l-36.77,8.34a64,64,0,0,0-39.88-31.39l-1.68-21.22a9.93,9.93,0,0,1-1.27,2L169.06,182.6l0,.67h-.61l-9.85,12a53.65,53.65,0,0,1,10.44-1h.4c.31,0,.6,0,.9,0a52.81,52.81,0,0,1,36.5,15.46,53.88,53.88,0,0,1,7.57,9.56,52.37,52.37,0,0,1,6.36,15.08,52.89,52.89,0,0,1-51.33,65.65h-.4a52.89,52.89,0,0,1-37.39-90.29c.71-.7,1.45-1.39,2.2-2.06a9.75,9.75,0,0,1-2.4-5.41,9.88,9.88,0,0,1,2.14-7.21l1.89-2.29A63.9,63.9,0,1,0,233,247.17,64.18,64.18,0,0,0,231.15,232l27.33-6.2Z" fill="#3aafa9"/><path d="M139.5,122.61A33.5,33.5,0,0,0,166,155.35l.67-.81.57-.69a9.72,9.72,0,0,1,13.71-1.37,9.22,9.22,0,0,1,1.87,2l.07.1a33.49,33.49,0,1,0-43.37-32Z" fill="#3aafa9"/><path d="M142.37,214.35l-6.85-5.46a8.66,8.66,0,0,1-1.24-1.18c-.74.67-1.48,1.36-2.19,2.06a52.88,52.88,0,0,0,37.19,90.28h.2a52.89,52.89,0,0,0,45-80.73,53.88,53.88,0,0,0-7.57-9.56,52.81,52.81,0,0,0-36.5-15.46c-.3,0-.59,0-.9,0h-.14a53.78,53.78,0,0,0-10.3,1l-3.66,4.47,6.83,5.44a42.45,42.45,0,0,1,7.27-.64c.58,0,1.15,0,1.72,0a42.6,42.6,0,1,1-28.83,9.72Z" fill="#2b7a78"/><path d="M179.12,164.05a6.36,6.36,0,0,0-.45-8.55l-.44-.41a6.35,6.35,0,0,0-8.9.86l-.05,0-2.8,3.43-30.95,37.82a6.34,6.34,0,0,0,1,9l36,28.64,4.5,3.58a6.36,6.36,0,0,0,7.92-10l-13.8-11-21.64-17.22,18.48-22.59Z" fill="#3aafa9"/></g></svg>