<svg xmlns="http://www.w3.org/2000/svg" viewBox="0 0 421.4 403.78"><title>ENABLE UPDATED</title><g id="OBJECTS"><path d="M267.93,169.57l-.2-.27-1.58,1.62-.07.08L264,173.13h0L262.1,175c-1.55,1.55-3,3-4.53,4.41l0,0-2.21,2.07-.07.06-2,1.86,0,0c-.7.65-1.41,1.27-2.08,1.87l0,0-.18.14a10.15,10.15,0,0,1,2,.61,9.93,9.93,0,1,1-13.72,8.14c-3.57,2.07-6.59,3.06-9.27,3.06a10.33,10.33,0,0,1-3.3-.53,18.4,18.4,0,0,1,.66,3.76,15.87,15.87,0,0,1-4.5,12.44c-11.93,11.92-29.18,18.92-40.06,19.67h-.38a5.64,5.64,0,0,1-5.64-6c.69-10.1,6.26-26.65,19.66-40.06a15.83,15.83,0,0,1,11.3-4.54,18.06,18.06,0,0,1,4.95.71,10.24,10.24,0,0,1-.54-3.33,16.4,16.4,0,1,1,14.57-24.07l1.09-1.17.07-.07,2.06-2.2,0,0c1.42-1.49,2.87-3,4.41-4.52l1.93-1.9h0l2.13-2.07.19-.18.08-.08a87.4,87.4,0,1,0,3.47,150.46l0,0,.15-.13A87.57,87.57,0,0,0,259,280.11c.53-.46,1-1,1.49-1.47,1.13-1.62,2.63-3.07,3.09-5.08l.13-.29c4.21-23.91-24.52-20.48-25.15-38.13-.51-14.44,17.91-17.22,27.8-22.88,2.34-1.92,5-4.1,5.88-6.55.33-.93.77-1.8,1.17-2.69,1.88-5.59,1.53-9.55,1-15A41.89,41.89,0,0,0,267.93,169.57Zm-120.52-2.46a14,14,0,1,1,7.39,18.37A14,14,0,0,1,147.41,167.11Zm-16.93,62.26A16.4,16.4,0,1,1,152,220.71,16.4,16.4,0,0,1,130.48,229.37Zm62.92,38.76A21.43,21.43,0,1,1,182.07,240,21.44,21.44,0,0,1,193.4,268.13ZM244.64,272a13,13,0,1,1-6.85-17A13,13,0,0,1,244.64,272Z" fill="#3aafa9"/><path d="M154.8,185.48a14,14,0,1,0-7.39-18.37A14,14,0,0,0,154.8,185.48Z" fill="#fff"/><path d="M143.34,199.19A16.4,16.4,0,1,0,152,220.71,16.4,16.4,0,0,0,143.34,199.19Z" fill="#fff"/><path d="M218.72,147.91a16.4,16.4,0,1,0-6.5,31.49c0-4,2.22-9.13,8.19-16.64l0,0,1.72-2.06,0,0,2-2.4,0,0c.6-.68,1.23-1.38,1.88-2.09l0,0,.77-.83A16.27,16.27,0,0,0,218.72,147.91Z" fill="#fff"/><path d="M220.81,261.82a13,13,0,1,0,17-6.84A12.95,12.95,0,0,0,220.81,261.82Z" fill="#fff"/><path d="M245.28,204.37a9.93,9.93,0,0,0,7.78-18.27,10.15,10.15,0,0,0-2-.61l-2.27,1.91h0l-2,1.71,0,0a61.93,61.93,0,0,1-7.39,5.16A9.91,9.91,0,0,0,245.28,204.37Z" fill="#fff"/><path d="M182.07,240a21.43,21.43,0,1,0,11.33,28.12A21.43,21.43,0,0,0,182.07,240Z" fill="#fff"/><path d="M265,167.92c.31-.33.63-.67,1-1l0-.06c28.11-29.38,59.87-71.12,53.81-77.18a3.06,3.06,0,0,0-2.25-.75c-10.74,0-48,28.82-74.92,54.57l-1.06,1-.2.19-.85.82L264,169C264.32,168.62,264.65,168.27,265,167.92Z" fill="#3aafa9"/><path d="M224.33,162.55c-.33.4-.61.76-.92,1.15s-.63.77-.92,1.14c-5.29,6.68-7.23,11.06-7.34,14.3a7.91,7.91,0,0,0,1.81,5.3,47.29,47.29,0,0,0,4,4.11,49.73,49.73,0,0,0,4,3.88,8,8,0,0,0,5.14,1.94c2.61,0,6-1.29,10.83-4.6,1.17-.81,2.4-1.7,3.75-2.77l1.14-.92.3-.24.84-.69L228.3,166.52Z" fill="#3aafa9"/><path d="M236.51,149.45c-1.6,1.6-3,3.08-4.42,4.52l-1,1.06-1,1.06L253.4,179.4c.33-.31.7-.68,1-1l1.07-1C257,176,258.44,174.57,260,173l1.9-1.93,1-1,1-1-23.45-23.46-1.05,1-1,1Z" fill="#3aafa9"/><path d="M229.09,157.17l-1,1.08-.08.1c-.63.68-1.22,1.34-1.79,2l-1,1.11-1,1.1,4,4,18.63,18.63c.36-.29.75-.64,1.11-1l1.11-1,2.09-1.87,1.07-1,1.09-1-23.32-23.31C229.73,156.47,229.44,156.8,229.09,157.17Z" fill="#3aafa9"/><path d="M219.51,190a17.32,17.32,0,0,0-4.23-3.05,16.2,16.2,0,0,0-7.47-2,12.88,12.88,0,0,0-9.23,3.68c-1.33,1.33-2.55,2.69-3.72,4.07l-.46.53c-1.09,1.31-2.1,2.64-3.05,4l-.52.73c-.91,1.32-1.77,2.64-2.55,4l-.43.74c-.78,1.34-1.51,2.69-2.16,4l-.09.16c-.15.31-.28.62-.43.93-.25.52-.49,1-.71,1.54l-.5,1.17c-.2.5-.41,1-.59,1.48s-.3.77-.44,1.16-.35,1-.51,1.43-.26.75-.37,1.13-.3.93-.43,1.39-.2.72-.31,1.07-.24.92-.34,1.38-.16.62-.23.93l0-.1c1.6-6.44,4.52-14,6.58-15.71,1.34-3.42,5.81.57,3.24,6.13s-2.07,5.7-1.23,6.79,5.86-8,8.43-4.75-8.84,6.79-7.2,10.18,10.57-4.42,13.23-2.21a4.65,4.65,0,0,1,1.46,1.57,67.65,67.65,0,0,0,15.58-11.41c4.24-4.23,4.73-10.91,1.8-16.56A17.49,17.49,0,0,0,219.51,190Z" fill="#2b7a78"/><path d="M203.82,220.74c-2.66-2.21-11.59,5.6-13.23,2.21s9.78-6.92,7.2-10.18-7.59,5.84-8.43,4.75-1.34-1.22,1.23-6.79-1.9-9.55-3.24-6.13c-2.06,1.72-5,9.27-6.58,15.71l0,.1c-1,4.13-1.51,7.78-.86,9.08,5.8,4.18,24.84-6.84,24.84-6.84s.69.12.56-.34A4.65,4.65,0,0,0,203.82,220.74Z" fill="#fff"/></g></svg>