<svg xmlns="http://www.w3.org/2000/svg" viewBox="0 0 421.4 403.78"><title>ENABLE UPDATED</title><g id="OBJECTS"><path d="M224.24,82.24c-31.64,20.61-41.47,37.17-44.24,43.41-.52,1-1,2-1.43,3.08-7.07,17.08-2.13,35.41,11,40.86s29.61-4,36.69-21.1c.42-1,.82-2.11,1.17-3.19,2.45-6.37,7.2-25-.61-62A1.7,1.7,0,0,0,224.24,82.24Z" fill="#3aafa9"/><path d="M321.41,220.28l.07-.19c-16,0-25.76-9.74-37.51-17.94-8.54-6-18.11-11.11-31.89-11.11-6.19,0-11.44.05-15.9.18H203.69a8.61,8.61,0,0,0,0,17.21H234.2a12.9,12.9,0,0,1,4.14,24l-11.86,3.15c-4,1-7.84,2-11.4,3l-.78.2c-13.39,3.55-27.82,7.34-30.43,8a16.08,16.08,0,0,1-4.71-.33l-48-31.15L122.4,209h0a10.38,10.38,0,0,0-1.3-.74,11.8,11.8,0,0,0-2-.83,12.12,12.12,0,0,0-1.69-.37,13.14,13.14,0,0,0-1.89-.16,12.12,12.12,0,0,0-2.5.26A13.83,13.83,0,0,0,100.32,221a13.62,13.62,0,0,0,4.13,9.77v0l.06.05a14.36,14.36,0,0,0,3.41,2.47l3.31,2.41,75.32,54.6h0l.93.36a16.54,16.54,0,0,0,5.38,1,17.26,17.26,0,0,0,3.23-.32l.37-.1c25.52-6.5,78.24-19.9,102.92-26l1.78-.66c6.3-1.58,14.88-3.46,20.26-3.46v-3.6h.07l-.07-5V220.28Z" fill="#3aafa9"/><path d="M154,94.32c-9.08,33.86-4.8,50.07-2.5,55.51.33.93.7,1.85,1.1,2.73,6.69,14.55,23.17,21.32,36.74,15.08s19.17-23.15,12.48-37.7c-.41-.88-.87-1.76-1.36-2.62-2.64-5.29-12.15-19.09-43.76-34.24A2,2,0,0,0,154,94.32Z" fill="#3aafa9"/><path d="M229.62,131.44A41.67,41.67,0,0,1,188,173.11c-23,0-38.39-18.66-38.39-41.67S164.94,126,188,126,229.62,108.43,229.62,131.44Z" fill="#3aafa9"/></g></svg>