<svg xmlns="http://www.w3.org/2000/svg" viewBox="0 0 421.4 403.78"><title>ENABLE UPDATED</title><g id="OBJECTS"><path d="M98.3,294.66a2.4,2.4,0,0,0,0,4.8H268.63a24,24,0,0,0,0-48H98.3a2.4,2.4,0,1,0,0,4.8,19.21,19.21,0,0,1,0,38.42Z" fill="#3aafa9"/><path d="M268.63,299.46H98.3a2.4,2.4,0,0,1-2.4-2.4v9.26a9.4,9.4,0,0,0,2.4.34H268.63a31.21,31.21,0,0,0,0-62.42H98.3a9.4,9.4,0,0,0-2.4.34v9.26a2.4,2.4,0,0,1,2.4-2.4H268.63a24,24,0,0,1,0,48Z" fill="#2b7a78"/><path d="M77.5,232.23a2.41,2.41,0,0,0,0,4.81H247.83a24,24,0,0,0,0-48H77.5a2.4,2.4,0,1,0,0,4.8,19.21,19.21,0,1,1,0,38.41Z" fill="#3aafa9"/><path d="M247.83,237H77.5a2.4,2.4,0,0,1-2.4-2.4v9.26a9.46,9.46,0,0,0,2.4.34H247.83a31.21,31.21,0,1,0,0-62.42H77.5a9.46,9.46,0,0,0-2.4.34v9.26a2.4,2.4,0,0,1,2.4-2.4H247.83a24,24,0,0,1,0,48Z" fill="#2b7a78"/><path d="M123.18,169.81a2.41,2.41,0,0,0,0,4.81H293.51a24,24,0,1,0,0-48H123.18a2.4,2.4,0,0,0,0,4.8,19.21,19.21,0,1,1,0,38.41Z" fill="#3aafa9"/><path d="M293.51,174.62H123.18a2.41,2.41,0,0,1-2.4-2.41v9.27a9.59,9.59,0,0,0,2.4.34H293.51a31.21,31.21,0,1,0,0-62.42H123.18a9.59,9.59,0,0,0-2.4.34V129a2.4,2.4,0,0,1,2.4-2.4H293.51a24,24,0,1,1,0,48Z" fill="#2b7a78"/></g></svg>