<svg width="20" height="19" viewBox="0 0 20 19" fill="none" xmlns="http://www.w3.org/2000/svg">
<path d="M8.56587 10.4437C8.50668 10.4437 7.26502 10.4441 6.69235 10.4435C6.39753 10.4433 6.29235 10.3374 6.29235 10.0407C6.29197 9.27856 6.29178 8.51644 6.29235 7.75433C6.29254 7.4614 6.40375 7.34962 6.6948 7.34943C7.26747 7.34905 8.50235 7.34924 8.56587 7.34924C8.56587 7.29702 8.56568 6.19674 8.56587 5.69004C8.56625 4.94094 8.6999 4.22387 9.08048 3.56732C9.47012 2.89531 10.0371 2.43499 10.7638 2.16882C11.2292 1.99823 11.7123 1.93018 12.2062 1.9298C12.8241 1.92943 13.442 1.92999 14.0601 1.93112C14.3257 1.9315 14.4436 2.04894 14.4441 2.31642C14.4452 3.03329 14.4452 3.75017 14.4441 4.46685C14.4437 4.73717 14.3308 4.84574 14.0592 4.84876C13.5527 4.85423 13.0458 4.85083 12.5399 4.87119C12.0288 4.87119 11.76 5.12077 11.76 5.6497C11.7478 6.20918 11.7549 6.76922 11.7549 7.34905C11.8028 7.34905 13.2571 7.34886 13.9369 7.34905C14.2456 7.34905 14.3512 7.45518 14.3512 7.76564C14.3512 8.52361 14.351 9.28176 14.3504 10.0397C14.3502 10.3457 14.2511 10.4433 13.9404 10.4435C13.2607 10.4439 11.8121 10.4437 11.7487 10.4437V16.5785C11.7487 16.9055 11.6458 17.0098 11.3231 17.0098C10.5363 17.0098 9.74929 17.01 8.96248 17.0098C8.67728 17.0098 8.56606 16.8989 8.56606 16.6137C8.56587 14.6158 8.56587 10.5138 8.56587 10.4437Z" fill="white"/>
</svg>
