<svg width="20" height="20" viewBox="0 0 20 20" fill="none" xmlns="http://www.w3.org/2000/svg">
<path d="M2.69617 5.10182H11.3745C11.3745 5.5203 11.5408 5.92164 11.8367 6.21755C12.1326 6.51346 12.5339 6.6797 12.9524 6.6797H14.5303C14.9488 6.6797 15.3501 6.51346 15.6461 6.21755C15.942 5.92164 16.1082 5.5203 16.1082 5.10182H16.8971C17.1064 5.10182 17.3071 5.0187 17.455 4.87074C17.603 4.72279 17.6861 4.52212 17.6861 4.31287C17.6861 4.10363 17.603 3.90296 17.455 3.75501C17.3071 3.60705 17.1064 3.52393 16.8971 3.52393H16.1082C16.1082 3.10545 15.942 2.70411 15.6461 2.4082C15.3501 2.11229 14.9488 1.94604 14.5303 1.94604H12.9524C12.5339 1.94604 12.1326 2.11229 11.8367 2.4082C11.5408 2.70411 11.3745 3.10545 11.3745 3.52393H2.69617C2.48693 3.52393 2.28626 3.60705 2.1383 3.75501C1.99035 3.90296 1.90723 4.10363 1.90723 4.31287C1.90723 4.52212 1.99035 4.72279 2.1383 4.87074C2.28626 5.0187 2.48693 5.10182 2.69617 5.10182ZM12.9524 3.52393H14.5303V4.31287V5.10182H12.9524V3.52393ZM16.8971 9.04653H9.79666C9.79666 8.62805 9.63042 8.22671 9.33451 7.9308C9.0386 7.63489 8.63725 7.46865 8.21877 7.46865H6.64089C6.2224 7.46865 5.82106 7.63489 5.52515 7.9308C5.22924 8.22671 5.063 8.62805 5.063 9.04653H2.69617C2.48693 9.04653 2.28626 9.12965 2.1383 9.27761C1.99035 9.42557 1.90723 9.62624 1.90723 9.83548C1.90723 10.0447 1.99035 10.2454 2.1383 10.3933C2.28626 10.5413 2.48693 10.6244 2.69617 10.6244H5.063C5.063 11.0429 5.22924 11.4442 5.52515 11.7402C5.82106 12.0361 6.2224 12.2023 6.64089 12.2023H8.21877C8.63725 12.2023 9.0386 12.0361 9.33451 11.7402C9.63042 11.4442 9.79666 11.0429 9.79666 10.6244H16.8971C17.1064 10.6244 17.3071 10.5413 17.455 10.3933C17.603 10.2454 17.6861 10.0447 17.6861 9.83548C17.6861 9.62624 17.603 9.42557 17.455 9.27761C17.3071 9.12965 17.1064 9.04653 16.8971 9.04653ZM6.64089 10.6244V9.04653H8.21877V9.83548V10.6244H6.64089ZM16.8971 14.5691H14.5303C14.5303 14.1507 14.3641 13.7493 14.0682 13.4534C13.7723 13.1575 13.3709 12.9913 12.9524 12.9913H11.3745C10.9561 12.9913 10.5547 13.1575 10.2588 13.4534C9.9629 13.7493 9.79666 14.1507 9.79666 14.5691H2.69617C2.48693 14.5691 2.28626 14.6523 2.1383 14.8002C1.99035 14.9482 1.90723 15.1488 1.90723 15.3581C1.90723 15.5673 1.99035 15.768 2.1383 15.9159C2.28626 16.0639 2.48693 16.147 2.69617 16.147H9.79666C9.79666 16.5655 9.9629 16.9668 10.2588 17.2628C10.5547 17.5587 10.9561 17.7249 11.3745 17.7249H12.9524C13.3709 17.7249 13.7723 17.5587 14.0682 17.2628C14.3641 16.9668 14.5303 16.5655 14.5303 16.147H16.8971C17.1064 16.147 17.3071 16.0639 17.455 15.9159C17.603 15.768 17.6861 15.5673 17.6861 15.3581C17.6861 15.1488 17.603 14.9482 17.455 14.8002C17.3071 14.6523 17.1064 14.5691 16.8971 14.5691ZM11.3745 16.147V14.5691H12.9524V15.3581V16.147H11.3745Z" fill="#3AAFA9"/>
</svg>
