<svg width="19" height="20" viewBox="0 0 19 20" fill="none" xmlns="http://www.w3.org/2000/svg">
<path d="M4.74165 6.81789H2.37482C1.72217 6.81789 1.19141 6.28683 1.19141 5.63447V3.26764C1.19141 2.61529 1.72217 2.08423 2.37482 2.08423H4.74165C5.3943 2.08423 5.92507 2.61529 5.92507 3.26764V5.63447C5.92507 6.28683 5.3943 6.81789 4.74165 6.81789ZM2.37482 3.26764V5.63447H4.74254L4.74165 3.26764H2.37482ZM17.7592 4.45106C17.7592 4.12399 17.4943 3.85935 17.1675 3.85935H7.70019C7.37342 3.85935 7.10848 4.12399 7.10848 4.45106C7.10848 4.77812 7.37342 5.04277 7.70019 5.04277H17.1675C17.4943 5.04277 17.7592 4.77812 17.7592 4.45106ZM4.74165 12.735H2.37482C1.72217 12.735 1.19141 12.2039 1.19141 11.5515V9.18472C1.19141 8.53236 1.72217 8.0013 2.37482 8.0013H4.74165C5.3943 8.0013 5.92507 8.53236 5.92507 9.18472V11.5515C5.92507 12.2039 5.3943 12.735 4.74165 12.735ZM2.37482 9.18472V11.5515H4.74254L4.74165 9.18472H2.37482ZM17.7592 10.3681C17.7592 10.0411 17.4943 9.77642 17.1675 9.77642H7.70019C7.37342 9.77642 7.10848 10.0411 7.10848 10.3681C7.10848 10.6952 7.37342 10.9598 7.70019 10.9598H17.1675C17.4943 10.9598 17.7592 10.6952 17.7592 10.3681ZM4.74165 18.652H2.37482C1.72217 18.652 1.19141 18.121 1.19141 17.4686V15.1018C1.19141 14.4494 1.72217 13.9184 2.37482 13.9184H4.74165C5.3943 13.9184 5.92507 14.4494 5.92507 15.1018V17.4686C5.92507 18.121 5.3943 18.652 4.74165 18.652ZM2.37482 15.1018V17.4686H4.74254L4.74165 15.1018H2.37482ZM17.7592 16.2852C17.7592 15.9581 17.4943 15.6935 17.1675 15.6935H7.70019C7.37342 15.6935 7.10848 15.9581 7.10848 16.2852C7.10848 16.6123 7.37342 16.8769 7.70019 16.8769H17.1675C17.4943 16.8769 17.7592 16.6123 17.7592 16.2852Z" fill="#3AAFA9"/>
</svg>
