<svg width="20" height="20" viewBox="0 0 20 20" fill="none" xmlns="http://www.w3.org/2000/svg">
<path d="M8.91778 13.7551L7.10873 15.5641V3.2677C7.10873 3.05846 7.02561 2.85779 6.87765 2.70984C6.7297 2.56188 6.52903 2.47876 6.31979 2.47876C6.11055 2.47876 5.90988 2.56188 5.76192 2.70984C5.61396 2.85779 5.53084 3.05846 5.53084 3.2677V15.5641L3.7218 13.7551C3.573 13.6114 3.37371 13.5319 3.16685 13.5337C2.95999 13.5355 2.76212 13.6185 2.61584 13.7647C2.46957 13.911 2.38659 14.1089 2.3848 14.3157C2.383 14.5226 2.46252 14.7219 2.60623 14.8707L5.762 18.0265C5.91009 18.1741 6.11069 18.2571 6.31983 18.2571C6.52896 18.2571 6.72956 18.1741 6.87765 18.0265L10.0334 14.8707C10.1777 14.722 10.2576 14.5225 10.256 14.3154C10.2545 14.1082 10.1715 13.91 10.025 13.7635C9.87847 13.617 9.68024 13.534 9.47309 13.5325C9.26593 13.5309 9.06647 13.6109 8.91778 13.7551Z" fill="#3AAFA9"/>
<path d="M9.47547 5.63452H17.3649C17.5741 5.63452 17.7748 5.5514 17.9228 5.40345C18.0707 5.25549 18.1538 5.05482 18.1538 4.84558C18.1538 4.63634 18.0707 4.43567 17.9228 4.28772C17.7748 4.13976 17.5741 4.05664 17.3649 4.05664H9.47547C9.26623 4.05664 9.06556 4.13976 8.9176 4.28772C8.76964 4.43567 8.68652 4.63634 8.68652 4.84558C8.68652 5.05482 8.76964 5.25549 8.9176 5.40345C9.06556 5.5514 9.26623 5.63452 9.47547 5.63452Z" fill="#3AAFA9"/>
<path d="M17.3649 7.2124H9.47547C9.26623 7.2124 9.06556 7.29552 8.9176 7.44348C8.76964 7.59143 8.68652 7.7921 8.68652 8.00134C8.68652 8.21058 8.76964 8.41125 8.9176 8.55921C9.06556 8.70717 9.26623 8.79029 9.47547 8.79029H17.3649C17.5741 8.79029 17.7748 8.70717 17.9228 8.55921C18.0707 8.41125 18.1538 8.21058 18.1538 8.00134C18.1538 7.7921 18.0707 7.59143 17.9228 7.44348C17.7748 7.29552 17.5741 7.2124 17.3649 7.2124Z" fill="#3AAFA9"/>
<path d="M14.9981 10.3682H9.47547C9.26623 10.3682 9.06556 10.4513 8.9176 10.5992C8.76964 10.7472 8.68652 10.9479 8.68652 11.1571C8.68652 11.3664 8.76964 11.567 8.9176 11.715C9.06556 11.8629 9.26623 11.9461 9.47547 11.9461H14.9981C15.2073 11.9461 15.408 11.8629 15.5559 11.715C15.7039 11.567 15.787 11.3664 15.787 11.1571C15.787 10.9479 15.7039 10.7472 15.5559 10.5992C15.408 10.4513 15.2073 10.3682 14.9981 10.3682Z" fill="#3AAFA9"/>
</svg>
