<svg width="68" height="69" viewBox="0 0 68 69" fill="none" xmlns="http://www.w3.org/2000/svg">
<path fill-rule="evenodd" clip-rule="evenodd" d="M46.8348 31.7975L43.8315 28.75L30.0048 42.78L23.9982 36.685L20.9948 39.7325L30.0048 48.875L46.8348 31.7975ZM53.8333 8.625H51V2.875H45.3333V8.625H22.6667V2.875H17V8.625H14.1667C11.0217 8.625 8.52833 11.2125 8.52833 14.375L8.5 54.625C8.5 57.7875 11.0217 60.375 14.1667 60.375H53.8333C56.95 60.375 59.5 57.7875 59.5 54.625V14.375C59.5 11.2125 56.95 8.625 53.8333 8.625ZM53.8333 54.625H14.1667V23H53.8333V54.625Z" fill="white"/>
</svg>
