<svg width="20" height="20" viewBox="0 0 20 20" fill="none" xmlns="http://www.w3.org/2000/svg">
<path d="M17.9045 17.5408V17.5402H17.9082V12.0096C17.9082 9.30399 17.3258 7.21973 14.1627 7.21973C12.642 7.21973 11.6217 8.05422 11.2051 8.84518H11.1612V7.47232H8.16211V17.5402H11.285V12.5549C11.285 11.2424 11.5338 9.97299 13.1593 9.97299C14.761 9.97299 14.7848 11.471 14.7848 12.639V17.5408H17.9045Z" fill="white"/>
<path d="M3.07715 7.47266H6.20383V17.5406H3.07715V7.47266Z" fill="white"/>
<path d="M4.63907 2.46045C3.63925 2.46045 2.82812 3.27157 2.82812 4.27139C2.82812 5.2712 3.63925 6.09929 4.63907 6.09929C5.63888 6.09929 6.45001 5.2712 6.45001 4.27139C6.44925 3.27157 5.63813 2.46045 4.63907 2.46045Z" fill="white"/>
</svg>
