<svg width="13" height="16" viewBox="0 0 13 16" fill="none" xmlns="http://www.w3.org/2000/svg">
<g clip-path="url(#clip0)">
<path d="M3.70282 5.80802H7.87539C8.20301 5.80802 8.46956 5.48534 8.46956 5.08873V0.756836H3.10864V5.08873C3.10864 5.48534 3.37519 5.80802 3.70282 5.80802ZM6.95226 3.02236C6.95226 2.78559 7.11082 2.59364 7.3064 2.59364C7.50198 2.59364 7.66054 2.78559 7.66054 3.02236V4.39996C7.66054 4.63672 7.50198 4.82867 7.3064 4.82867C7.11082 4.82867 6.95226 4.63672 6.95226 4.39996V3.02236Z" fill="white"/>
<path d="M8.63402 9.42065H3.70282C3.37519 9.42065 3.10864 9.7433 3.10864 10.1399V15.3902H9.22817V10.1399C9.22819 9.7433 8.96164 9.42065 8.63402 9.42065Z" fill="white"/>
<path d="M12.109 3.63762L9.83304 0.88242C9.76662 0.801994 9.67655 0.756836 9.58264 0.756836H9.17814V5.08873C9.17814 5.95813 8.59385 6.66545 7.87568 6.66545H3.70312C2.98495 6.66545 2.40067 5.95813 2.40067 5.08873V0.756836H1.42719C0.709038 0.756836 0.124756 1.46416 0.124756 2.33356V13.8135C0.124756 14.6829 0.709038 15.3903 1.42719 15.3903H2.40067V10.1399C2.40067 9.27054 2.98495 8.56325 3.70312 8.56325H8.6343C9.35247 8.56325 9.93675 9.27054 9.93675 10.1399V15.3903H10.9102C11.6284 15.3903 12.2127 14.6829 12.2127 13.8135V3.94075C12.2127 3.82705 12.1754 3.71799 12.109 3.63762Z" fill="white"/>
</g>
<defs>
<clipPath id="clip0">
<rect width="12.088" height="14.6334" fill="white" transform="translate(0.124756 0.756836)"/>
</clipPath>
</defs>
</svg>
