<svg width="20" height="20" viewBox="0 0 20 20" fill="none" xmlns="http://www.w3.org/2000/svg">
<g clip-path="url(#clip0)">
<path d="M18.4648 14.9639L18.3675 14.7534C18.0755 14.0635 14.4786 13.0061 14.1805 12.9892L13.942 13.0075C13.4516 13.1085 12.9113 13.5733 11.7773 14.5784C10.4997 13.9872 8.74986 12.4113 7.92498 11.4805C7.03173 10.4742 5.91737 8.78179 5.51689 7.51746C6.81039 6.37111 7.34928 5.87351 7.38358 5.32002C7.40187 5.02194 6.78491 1.32635 6.13503 0.951578L5.94034 0.828719C5.52662 0.5622 4.9013 0.159362 4.20643 0.30074C4.03862 0.335989 3.87428 0.401772 3.72088 0.496607C3.25481 0.791188 2.11352 1.58318 1.59273 2.61871C1.2715 3.26351 1.12548 9.14797 5.53636 14.1223C9.25548 18.3188 13.7125 19.0888 15.4408 19.1217H15.6685C15.8494 19.1178 15.9886 19.1052 16.0741 19.0876L16.0972 19.0839L16.1691 19.0619C17.2593 18.6714 18.1829 17.6321 18.5297 17.2038C19.1706 16.4107 18.7131 15.4687 18.4648 14.9639Z" fill="#3AAFA9"/>
</g>
<defs>
<clipPath id="clip0">
<rect width="18.8502" height="18.8502" fill="white" transform="translate(0.729004 0.271484)"/>
</clipPath>
</defs>
</svg>
