<svg id="Layer_3" data-name="Layer 3" xmlns="http://www.w3.org/2000/svg" viewBox="0 0 803.87 500"><title>ENABLE UPDATED</title><path d="M42.41,215.43a3.81,3.81,0,0,1,3.81-3.81h81.5a3.81,3.81,0,0,1,3.8,3.81v16.42a3.8,3.8,0,0,1-3.8,3.8H68.45V268.5h49.46a3.93,3.93,0,0,1,3.8,3.8v16.62a3.8,3.8,0,0,1-3.8,3.8H68.45v35h59.27a3.8,3.8,0,0,1,3.8,3.8V348a3.8,3.8,0,0,1-3.8,3.81H46.22A3.81,3.81,0,0,1,42.41,348Z" fill="#fff"/><path d="M160.15,213.23a3.76,3.76,0,0,1,3.81-3.61h5l83.31,88.51h.2v-82.7a3.81,3.81,0,0,1,3.8-3.81h18.42a3.94,3.94,0,0,1,3.81,3.81V350.2a3.76,3.76,0,0,1-3.81,3.6h-4.8l-83.71-91.91H186V348a3.8,3.8,0,0,1-3.8,3.81H164a3.94,3.94,0,0,1-3.81-3.81Z" fill="#fff"/><path d="M447.69,215.43a3.81,3.81,0,0,1,3.8-3.81h45.86c23.83,0,42.25,16,42.25,37,0,15.42-12.61,27.43-22,31.84,10.61,3.4,26,14.22,26,32.64,0,22.43-19.23,38.65-43.66,38.65H451.49a3.8,3.8,0,0,1-3.8-3.81ZM495,270.5c10.21,0,17.22-8,17.22-18s-7-17-17.22-17H473.52V270.5Zm2.8,57.67a17.87,17.87,0,0,0,18-18.22c0-10-10-17.43-20.42-17.43H473.52v35.65Z" fill="#fff"/><path d="M571.23,215.43a3.81,3.81,0,0,1,3.81-3.81h18.42a3.94,3.94,0,0,1,3.8,3.81V327.77h51.07a3.8,3.8,0,0,1,3.8,3.8V348a3.8,3.8,0,0,1-3.8,3.81H575a3.8,3.8,0,0,1-3.81-3.81Z" fill="#fff"/><path d="M672.35,215.43a3.81,3.81,0,0,1,3.8-3.81h81.51a3.81,3.81,0,0,1,3.8,3.81v16.42a3.8,3.8,0,0,1-3.8,3.8H698.38V268.5h49.46a3.94,3.94,0,0,1,3.81,3.8v16.62a3.8,3.8,0,0,1-3.81,3.8H698.38v35h59.28a3.8,3.8,0,0,1,3.8,3.8V348a3.8,3.8,0,0,1-3.8,3.81H676.15a3.8,3.8,0,0,1-3.8-3.81Z" fill="#fff"/><circle cx="364.34" cy="163.46" r="27.42" fill="#fff"/><path d="M363.65,209.62c-21-.26-45.31,57.82-55.92,142.18H418C409,269.65,384.53,209.88,363.65,209.62Zm20.05,81.9-20.62,20.62L363,312h0l-20.62-20.62v0l-6-5.94A14.59,14.59,0,1,1,357,264.84l5.94,6,6-6a14.58,14.58,0,0,1,20.62,20.62l-6,6Z" fill="#fff"/></svg>