<svg xmlns="http://www.w3.org/2000/svg" viewBox="0 0 1020 500"><title>ENABLE UPDATED</title><g id="OBJECTS"><rect y="-0.28" width="1020" height="501.07" fill="#3aafa9"/><path d="M387.08,135.64A9.3,9.3,0,0,0,374,137.28l-.14.18L372,139.9,370,142.39c-1.3,1.66-2.62,3.3-3.93,4.93s-2.65,3.25-4,4.83-2.67,3.15-4,4.66-2.7,3-4.05,4.36q-.19.18-.36.36c-.63-1.53-1.25-3.11-1.85-4.7q-1.08-2.91-2.12-5.89t-2.08-6l-2-6-2-6.08-3.93-12.17-.05-.15a10.65,10.65,0,0,0-20.4,6.08l.88,3.22L321,133c.6,2.11,1.24,4.22,1.87,6.33s1.29,4.21,2,6.32,1.35,4.21,2.06,6.31,1.42,4.21,2.17,6.31,1.54,4.22,2.35,6.34,1.67,4.26,2.62,6.43c.48,1.08,1,2.18,1.52,3.31s1.12,2.28,1.82,3.53c.34.62.74,1.29,1.19,2l.37.56.2.28.22.31.22.31.12.15.13.18c.19.23.37.46.57.69l.73.81.05.05.08.08.2.19.4.38c.27.24.58.49.88.72s.61.43.93.63a12.87,12.87,0,0,0,3.32,1.46,13.56,13.56,0,0,0,4,.48,14,14,0,0,0,3-.42,17.49,17.49,0,0,0,3.82-1.44l.71-.38.64-.37.6-.37.55-.37.13-.08c.67-.46,1.26-.91,1.82-1.35s1.14-.93,1.67-1.39c1-.92,2-1.82,2.86-2.73s1.73-1.8,2.54-2.7c1.61-1.8,3.12-3.59,4.56-5.4s2.82-3.63,4.17-5.45,2.64-3.67,3.92-5.51,2.51-3.71,3.73-5.59c.6-.94,1.21-1.88,1.8-2.83l.89-1.44.9-1.48A9.3,9.3,0,0,0,387.08,135.64Z" fill="#042e3c"/><path d="M384.17,155.75h0c-4.72.42-8.82-1.54-11.85-5.67a20.84,20.84,0,0,1-3.14-6.34.71.71,0,1,1,1.37-.37,19.64,19.64,0,0,0,2.94,5.91c2.75,3.73,6.3,5.44,10.56,5.06a.71.71,0,0,1,.77.64A.72.72,0,0,1,384.17,155.75Z" fill="#3e5477"/><path d="M347.6,167.87a.49.49,0,0,1-.29-.05.51.51,0,0,1-.24-.68c1.39-2.82,5.4-5.72,5.57-5.84a.52.52,0,0,1,.71.11.51.51,0,0,1-.12.71s-4,2.88-5.25,5.47A.48.48,0,0,1,347.6,167.87Z" fill="#3e5477"/><path d="M351.55,163.36a.48.48,0,0,1-.33-.06c-1.12-.66-3.74-.38-4.66-.21a.51.51,0,0,1-.18-1c.37-.07,3.71-.63,5.36.33a.52.52,0,0,1,.18.7A.51.51,0,0,1,351.55,163.36Z" fill="#3e5477"/><path d="M361.51,323.92a2.81,2.81,0,0,1-1.57-.48l-23.18-15.76a2.78,2.78,0,0,1-1.19-1.95l-17-135.35a2.81,2.81,0,0,1,.57-2.06,2.75,2.75,0,0,1,1.85-1.06L363,162a2.78,2.78,0,0,1,3.11,2.42L383,299.57a2.79,2.79,0,0,1-.68,2.19L363.6,323A2.79,2.79,0,0,1,361.51,323.92Zm-20.57-20.14L361,317.45,377.33,299,360.9,167.88l-36.42,4.57Z" fill="#def2f1"/><path d="M333.51,255.05a2.79,2.79,0,0,1-.34-5.55l40.14-5A2.79,2.79,0,1,1,374,250l-40.14,5A2,2,0,0,1,333.51,255.05Z" fill="#def2f1"/><path d="M377.65,452.8a2.79,2.79,0,0,1-2.76-2.44L358.74,321.48a2.79,2.79,0,1,1,5.53-.69l16.15,128.87a2.8,2.8,0,0,1-2.42,3.12Z" fill="#def2f1"/><rect x="309.31" y="159.32" width="67.27" height="11.06" rx="2.01" transform="translate(-17.84 43.92) rotate(-7.14)" fill="#2b7a78"/><rect x="372.94" y="444.08" width="9.19" height="11.81" transform="translate(-53.02 50.43) rotate(-7.14)" fill="#2b7a78"/><polygon points="326.21 423.91 327.84 436.13 341.25 436.13 340.73 423.55 326.21 423.91" fill="#fff"/><path d="M374.33,457.3H323.62a7.13,7.13,0,0,1-.66-2.81c-.32-4.29,1.05-11.14,1.72-15.46.08-.5.15-1,.2-1.4a13.52,13.52,0,0,0,.15-1.76c0-3.52,3.12-2.92,3.12-2.92,5.13,5,10.94-2.51,14.34,0,0,0,1.46,1,5.48,4.67s10.88,6,16.7,8.45c7.53,3.15,9.66,6.29,10.08,8.46A3.93,3.93,0,0,1,374.33,457.3Z" fill="#def2f1"/><path d="M374.33,457.3H323.62a7.13,7.13,0,0,1-.66-2.81h51.79A3.93,3.93,0,0,1,374.33,457.3Z" fill="#042e3c"/><path d="M328.8,457.3h-1.51a11.16,11.16,0,0,0,2.73-8.12A14.32,14.32,0,0,0,324.68,439c.08-.5.15-1,.2-1.4a15.53,15.53,0,0,1,6.34,11.49A12.29,12.29,0,0,1,328.8,457.3Z" fill="#042e3c"/><path d="M347.11,440.57a.84.84,0,0,1-.81-.63.83.83,0,0,1,.61-1l3.17-.79a.83.83,0,0,1,.4,1.62l-3.16.79A.75.75,0,0,1,347.11,440.57Z" fill="#042e3c"/><path d="M344,437.94a.85.85,0,0,1-.82-.64.84.84,0,0,1,.61-1l3.17-.79a.83.83,0,0,1,.4,1.62l-3.16.79Z" fill="#042e3c"/><path d="M350.28,442.41a.84.84,0,0,1-.81-.63.83.83,0,0,1,.61-1l3.17-.79a.83.83,0,0,1,.4,1.62l-3.17.79A.65.65,0,0,1,350.28,442.41Z" fill="#042e3c"/><path d="M353.45,444.18a.83.83,0,0,1-.2-1.64l3.17-.79a.83.83,0,0,1,.4,1.62l-3.17.79A.68.68,0,0,1,353.45,444.18Z" fill="#042e3c"/><path d="M356.9,445.82a.84.84,0,0,1-.81-.63.83.83,0,0,1,.61-1l3.17-.79a.83.83,0,0,1,.4,1.62l-3.17.79Z" fill="#042e3c"/><path d="M360.65,447.22a.84.84,0,0,1-.2-1.65l3.17-.79a.84.84,0,0,1,.4,1.63l-3.17.78A.69.69,0,0,1,360.65,447.22Z" fill="#042e3c"/><path d="M269.53,244.92a.94.94,0,0,1,0,.16c.12.47.25.92.39,1.37h0s0,0,0,.06,0,.17.08.26c.19.59.4,1.16.62,1.71,2.27,5.56,19.82,6.37,37.11,4.44h0c13.4-1.5,26.64-4.66,32.46-8.54,5.45-3.64-6.17-37.27-6.17-37.27l-65.57,13.76S267,234.87,269.53,244.92Z" fill="#2b7a78"/><path d="M309,252.79l10.74,92.72c-1.94,12.24,1.74,54.19,3.42,71.7,0,.47.09.92.13,1.35.39,4,.64,6.44.64,6.44l19.3-.59.42-6.29.09-1.36,5-75.56.09-1.41v-.29c-.15-24.47-2.72-58.22-6.51-95-.06-.57-.11-1.13-.18-1.7-.19-1.88-.39-3.78-.59-5.68-.06-.51-.11-1-.16-1.52l-6.31,2.9-1.55.72-24.79,11.41Z" fill="#2b7a78"/><path d="M333.37,341.09a58.24,58.24,0,0,0,8.8.7,33,33,0,0,0,6.61-.59l.09-1.41v-.29c-6.21,1.44-15.13,0-15.23,0a.82.82,0,1,0-.27,1.61Z" fill="#042e3c"/><path d="M323.19,417.21c0,.47.09.92.13,1.35l2.54-.05,1.62,0,14.66-.32,1.24,0h.3l.09-1.36h-.31l-1.49,0-14.65.32-1.62,0Z" fill="#042e3c"/><path d="M312.29,254l11.57,88.3c-.35,1.94-4,24.17,1.84,74.87.05.45.11.9.16,1.35l1.62,0c-.06-.45-.11-.9-.16-1.35-6.12-52.67-1.9-74.43-1.86-74.65a.76.76,0,0,0,0-.26l-11.58-88.43a.8.8,0,0,0-.9-.69A.81.81,0,0,0,312.29,254Z" fill="#042e3c"/><path d="M326.6,224.74c.08.42,1.66,8.63,7,14.46a18.77,18.77,0,0,0,3.69,3.15,15.87,15.87,0,0,0,3.42,1.66,14,14,0,0,0,1.68.47c-.06-.57-.11-1.13-.18-1.7-.27-.07-.54-.15-.8-.24a13.64,13.64,0,0,1-3.25-1.55,15.87,15.87,0,0,1-3-2.51c-5.3-5.53-6.92-13.94-6.94-14a.8.8,0,0,0-1.58.3Z" fill="#042e3c"/><path d="M313.34,249.45a.66.66,0,0,1-.63.68h0a.65.65,0,0,1-.7-.61c-.12-2.43-.27-4.91-.42-7.39l-.09-1.31c-.52-8.1-1.19-16.06-1.7-21.68q-.06-.67-.12-1.32c-.11-1.23-.21-2.32-.3-3.25l1.33-.21c.09.92.19,2,.3,3.27q.06.65.12,1.32c.5,5.57,1.17,13.45,1.69,21.51l.09,1.33C313.07,244.36,313.22,246.94,313.34,249.45Z" fill="#042e3c"/><path d="M315.26,240.9a17.8,17.8,0,0,1-2.35.89,12.1,12.1,0,0,1-1.32.34,9.19,9.19,0,0,1-1.27.16,4.61,4.61,0,0,1-2.25-.35,2.78,2.78,0,0,1-1.53-2.05c-.48-2.5-1.51-12.82-2.19-20.12-.05-.45-.09-.89-.13-1.31-.11-1.17-.21-2.23-.29-3.14l1.33-.16c.09.91.19,2,.3,3.16q.06.65.12,1.32c.69,7.28,1.71,17.59,2.18,20a1.45,1.45,0,0,0,.81,1.13,4.72,4.72,0,0,0,2.83,0c.45-.1.9-.23,1.32-.36a16.18,16.18,0,0,0,1.84-.72.68.68,0,0,1,.9.29A.64.64,0,0,1,315.26,240.9Z" fill="#042e3c"/><path d="M307.79,242.28v88.17a15.52,15.52,0,0,1-.62,4.33,18.21,18.21,0,0,1-.66,1.79,15.26,15.26,0,0,1-26.79,2.18,15.1,15.1,0,0,1-2.45-8.27c0-7.61,0-12.69,0-12.69-2.11-16.08-5.33-49.53-7.2-69.67,0-.45-.08-.9-.12-1.34a2.29,2.29,0,0,1,0-.25.13.13,0,0,1,0-.06v0h0c0-.45-.08-.89-.13-1.33v-.2c-.75-8-1.21-13.21-1.21-13.21,3.09-1.28,8.59-.48,14.5,1.14.53.14,1.05.29,1.58.45s1.2.36,1.8.55l1.17.37.41.14,1.16.38A195.09,195.09,0,0,1,307.79,242.28Z" fill="#2b7a78"/><path d="M307.17,334.78a18.21,18.21,0,0,1-.66,1.79,34.14,34.14,0,0,1-5.89.45,59.12,59.12,0,0,1-8.8-.69.82.82,0,0,1-.68-.94.83.83,0,0,1,.95-.68C292.19,334.73,301,336.16,307.17,334.78Z" fill="#042e3c"/><path d="M281.61,318c0,.22-.27,10.43-.29,22.82a15.15,15.15,0,0,1-1.6-2.06c0-11.05.27-19.93.28-20.74-1.77-15.12-5.37-66.82-5.41-67.34a.81.81,0,0,1,1.61-.11c0,.52,3.64,52.31,5.41,67.32A.41.41,0,0,1,281.61,318Z" fill="#042e3c"/><path d="M269.57,245.08c.12.47.25.92.39,1.37h0a.13.13,0,0,0,0,.06c0,.08,0,.17,0,.25h.07a12.93,12.93,0,0,0,6.13-.68c4.12-1.49,7.35-4.86,9.7-8.22.84-1.21,1.57-2.42,2.19-3.53.19-.35.37-.7.54-1a37.42,37.42,0,0,0,1.92-4.3.81.81,0,0,0-1.52-.54,38.41,38.41,0,0,1-2,4.32l-.57,1c-.57,1-1.23,2.09-2,3.16-2.2,3.13-5.17,6.25-8.88,7.59a11.4,11.4,0,0,1-5.8.53Z" fill="#042e3c"/><path d="M292.87,101.14s-19.86,6.31-26.81,12.72c-9.39,8.68-1.05,46.66-.88,63.88s-1.39,43.26,2.1,50.39,68.22,10.71,74-1.35c1.66-3.45-6-48.8-4.77-68.45s4.4-33.36,1.58-41.33c-2.29-6.47-23.57-12-23.57-12Z" fill="#042e3c"/><path d="M287.8,198.57s2.29,12,0,22.27c0,0,31.06,4.37,45.26-.92,0,0,1.63-11.9-1.3-21.35A329,329,0,0,1,287.8,198.57Z" fill="#2b7a78"/><path d="M336.9,176.26a.52.52,0,0,1-.51-.5c-.29-17.46-1.46-45.85-1.47-46.13a.51.51,0,0,1,1,0c0,.29,1.18,28.69,1.47,46.16a.51.51,0,0,1-.5.52Z" fill="#2b7a78"/><path d="M289,132.88l1.22,16s27.37,0,37.79-2.18c0,0-.72-10.42-2.66-14.78A245.09,245.09,0,0,1,289,132.88Z" fill="#2b7a78"/><path d="M288.84,115.16S263.25,113,272.93,100s34.56-12.82,45.92-3c8.28,7.14,2.11,20.42,2.11,20.42Z" fill="#042e3c"/><path d="M304.43,116.36c5.86-1.41,9.64-6.34,9.81-6.57a.67.67,0,0,0-.13-1,.69.69,0,0,0-.95.13c-.06.09-4.37,5.67-10.58,6.34-3.56.39-7.09-.89-10.5-3.8a.68.68,0,0,0-.88,1c3.71,3.16,7.59,4.55,11.53,4.12A13.1,13.1,0,0,0,304.43,116.36Z" fill="#2b7a78"/><path d="M280.81,70.18c-1.71,0-.26,5.31,1.27,7,1.15,1.3-5.75,4.9-5.17,8.5s3.64,2.47,3.64,2.47-1.07,4.71.91,6.23S286,93,286,93s-1.28,5.82,2.15,6.36,6.79-8.92,6.79-8.92l-6.44-27.57Z" fill="#042e3c"/><path d="M309.45,77.91s.94-5.58,5.47-5,6.72,15.07-1.63,15.78Z" fill="#def2f1"/><path d="M291,106.7s-.87,1.94,7.47,3.43a17.53,17.53,0,0,0,11.93-2.58,17.08,17.08,0,0,0,1.55-1.25c-1.9-6-1.2-10.14-1-11.13,0-.15.05-.23.05-.23l-22.15-8.56Z" fill="#fff"/><path d="M292.61,94.41s6.4,13.52,17.76,13.14a17.08,17.08,0,0,0,1.55-1.25c-1.9-6-1.2-10.14-1-11.13Z" fill="#def2f1"/><path d="M312.39,60.28s5.29.8,3.42,14.79l-8.38-13.54S308.25,59.17,312.39,60.28Z" fill="#042e3c"/><path d="M301.51,101c8.88.8,15.43-3.66,15.49-11.21,0-1.82-.15-4.43-.4-7.15v-.08c-.06-.58-.11-1.17-.17-1.75,0-.42-.08-.84-.13-1.26-.5-4.84-1.09-9.22-1.09-9.22-2.49-11.89-14.86-15.15-23.93-9.6s-3.89,19.81-3.12,27S293.89,100.27,301.51,101Z" fill="#fff"/><path d="M286.15,75.83S289.41,77,290.06,80s3.84-.16,1.2-3.2,1.67-3.26,2.09-5.73-3.59-2.24-1.49-5.26,5.9,1.35,10.17.1-.53-4,2.05-3.77,11.71,7.77,10,3.2-9.75-11.71-19.89-7.64S284.86,70.66,286.15,75.83Z" fill="#042e3c"/><path d="M288.9,77.64s-2.9-3.76-6.8-1.39-.11,16.49,7.82,13.8Z" fill="#fff"/><path d="M297,191.35a.61.61,0,0,1-.19,0,.56.56,0,0,1-.45-.64c6.73-36.94-1.76-72-1.85-72.37a.55.55,0,0,1,1.07-.27c.09.36,8.64,35.67,1.87,72.84A.57.57,0,0,1,297,191.35Z" fill="#f0ebe6"/><path d="M321.35,191.11h-.19a.56.56,0,0,1-.45-.64c6.73-36.94-1.76-72-1.85-72.37a.55.55,0,0,1,.41-.67.54.54,0,0,1,.66.4c.09.35,8.64,35.67,1.87,72.84A.57.57,0,0,1,321.35,191.11Z" fill="#f0ebe6"/><path d="M280.4,65s-4.82,4-3.38,6.54,6.14-3.15,6.14-3.15S282.31,64.69,280.4,65Z" fill="#042e3c"/><path d="M280.09,71.42l5-4.54.65-.58L287.17,65c10.16-5.64,23.49-6,23.49-6s-3.43-9.47-15.93-8.86A19,19,0,0,0,284,53.69c-.45.34-.87.7-1.27,1.07a12.86,12.86,0,0,0-4,7.71C278,68.31,280.09,71.42,280.09,71.42Z" fill="#2b7a78"/><path d="M285.1,66.88l.65-.58c-2.24-2-3.16-4.85-2.75-8.46a19.1,19.1,0,0,1,1-4.15c-.45.34-.87.7-1.27,1.07a18.68,18.68,0,0,0-.6,3C281.7,61.57,282.72,64.68,285.1,66.88Z" fill="#042e3c"/><path d="M300.63,52s-4.7-1.2-10.59,2.21l1.29,3.34s5.69-2.51,9.87-2.79Z" fill="#042e3c"/><path d="M315.65,64.37s13.74-9.35,6.06-14.79S296.86,50.74,287.17,65C287.17,65,312.79,54.57,315.65,64.37Z" fill="#042e3c"/><path d="M243.7,322.83a2.8,2.8,0,0,1-2-.88l-19.38-20.74a2.82,2.82,0,0,1-.74-2.18L235,161.52a2.82,2.82,0,0,1,1-1.88,2.74,2.74,0,0,1,2-.62l42.62,4.17a2.78,2.78,0,0,1,2.5,3L269.73,303.54a2.8,2.8,0,0,1-1.14,2l-23.26,16.78A2.79,2.79,0,0,1,243.7,322.83Zm-16.49-24.51,16.85,18,20.25-14.61,13-133.28-37.07-3.62Z" fill="#def2f1"/><path d="M270.38,256.53l-.27,0-40.78-4a2.79,2.79,0,0,1,.54-5.55l40.78,4a2.79,2.79,0,0,1-.27,5.56Z" fill="#def2f1"/><path d="M230.9,453.77l-.28,0a2.78,2.78,0,0,1-2.5-3l12.81-130.94a2.78,2.78,0,1,1,5.54.55l-12.8,130.93A2.79,2.79,0,0,1,230.9,453.77Z" fill="#def2f1"/><rect x="226.17" y="155.89" width="68.14" height="11.21" rx="2.04" transform="translate(16.96 -24.57) rotate(5.59)" fill="#2b7a78"/><rect x="226.13" y="444.94" width="9.31" height="11.96" transform="translate(44.99 -20.32) rotate(5.59)" fill="#2b7a78"/><path d="M279.87,116.82a11.71,11.71,0,0,0-16.55,0l-.83.83-.37.37-.34.36c-.45.48-.91,1-1.34,1.43s-.87.95-1.29,1.43l-1.25,1.43c-.83.95-1.61,1.93-2.42,2.9l-2.32,3A138.53,138.53,0,0,0,244.73,141a133.81,133.81,0,0,0-7.08,13.35c-.51,1.17-1,2.33-1.52,3.49l-.38.88c-.13.29-.25.58-.36.88l-.67,1.79c-.46,1.19-.91,2.38-1.35,3.58l-1.1,3.42-.08.24-.58,1.83-.08.23,0,.06v0l0,.06-.12.44c-.15.59-.27,1.19-.36,1.79v.24l0,.22-.05.43,0,.44,0,.22v.19l-.05,1.26c0,.11,0,.2,0,.29v1.84l0,1,.06,1.91.09,1.84.08,1.27,0,.54.11,1.8c.17,2.38.37,4.73.57,7.07s.41,4.68.66,7,.49,4.64.75,7l.83,6.93c.6,4.62,1.2,9.21,1.93,13.84a9.8,9.8,0,0,0,19.47-1.69h0c-.14-9.17-.46-18.4-.75-27.53l-.21-6.83c-.06-2.27-.11-4.53-.15-6.76s-.06-4.46,0-6.49l0-.74v-.7l0-.33v-.16h0l.39-1.12,1-2.91,1.17-2.87.59-1.44c.09-.24.2-.47.31-.71l.33-.7c.44-1,.87-1.9,1.3-2.84.2-.48.46-.94.69-1.41l.71-1.4c.47-.93.93-1.87,1.46-2.78s1-1.83,1.52-2.75,1.07-1.82,1.61-2.73c2.19-3.6,4.5-7.15,7-10.56l1.88-2.55,1.93-2.48,1-1.22c.32-.41.66-.79,1-1.19l1-1.15.24-.29.23-.25.22-.26.14-.17.62-.73A11.71,11.71,0,0,0,279.87,116.82Zm-25.5,59.64h0v0l0,.24,0-.25v0h0Z" fill="#042e3c"/><path d="M254,177.38a.67.67,0,0,1-.31-.07,26.19,26.19,0,0,0-6.21-1.87.66.66,0,0,1,.21-1.3,26.82,26.82,0,0,1,6.61,2,.66.66,0,0,1,.28.89A.67.67,0,0,1,254,177.38Z" fill="#2b7a78"/><path d="M252.94,176.92a.66.66,0,0,1-.61-.4,11.34,11.34,0,0,0-2.05-2.89.66.66,0,0,1,.94-.93,12.89,12.89,0,0,1,2.32,3.3.67.67,0,0,1-.6.92Z" fill="#2b7a78"/><path d="M260.13,240.94a22.06,22.06,0,0,0-4.5-5.73c-1.06-1-1.81-3.21-2.42-4.35h0a3.48,3.48,0,0,0-3.76-3.05,24.38,24.38,0,0,0-4.23.76,10.3,10.3,0,0,0-4.29,2.19,3.52,3.52,0,0,0-1.29,2.86c.63,15.43,6.12,22.11,7.84,23.85s4.28.32,4.28.32a3.13,3.13,0,0,0,3.82-.24c3.28,2.1,4.77-.05,4.77-.05s2.25,3.43,4.27,1.75-2-5.7-2.79-8.79c0-.15-.08-.31-.11-.48,1.5,1.51,3.53,3.1,5.13,2.73C269.77,252.05,260.13,240.94,260.13,240.94Z" fill="#fff"/><path d="M484.83,147.32l.13,1.55.12,1.46c.07,1,.13,1.93.17,2.9.09,1.94.14,3.88.13,5.86s-.08,4-.25,6a56.73,56.73,0,0,1-.84,6.41,33,33,0,0,1-2.24,7.3,22.66,22.66,0,0,1-2.56,4.33,17.87,17.87,0,0,1-2.12,2.34,16.3,16.3,0,0,1-3,2.24,16.9,16.9,0,0,1-3.87,1.68,17.08,17.08,0,0,1-4.2.66,19.48,19.48,0,0,1-7-1.1,22.21,22.21,0,0,1-2.6-1.07l-1-.56-.93-.58a36.33,36.33,0,0,1-3.33-2.44c-1-.84-1.93-1.68-2.8-2.53s-1.67-1.71-2.42-2.57c-1.52-1.72-2.85-3.44-4.1-5.17a99.75,99.75,0,0,1-6.45-10.39c-1.9-3.47-3.61-7-5.19-10.48q-1.19-2.64-2.28-5.32c-.37-.89-.72-1.79-1.08-2.7l-.52-1.38-.56-1.5a12.18,12.18,0,0,1,22.88-8.39l.11.3.37,1,.43,1.13c.3.77.61,1.53.92,2.3q.94,2.29,2,4.56c1.35,3,2.8,6,4.33,8.78a75.81,75.81,0,0,0,4.88,7.86,36.33,36.33,0,0,0,2.57,3.26c.24.28.49.55.74.81.24-.68.48-1.39.7-2.11.44-1.48.84-3,1.2-4.61s.67-3.22.94-4.86c.14-.82.27-1.65.39-2.47l.31-2.36.08-.55a8,8,0,0,1,16,.35Z" fill="#fff"/><path d="M438.25,141l2.93,26.18,12-10.21.64-.55,5.77-4.89s-3.46-10.36-6.13-19.13c-.09-.31-.19-.62-.28-.93l-.52-1.72a68,68,0,0,0-7.24-16.11Z" fill="#2b7a78"/><path d="M449.71,138.11a3.35,3.35,0,0,0,2.26,3.62c1.3.61,2.41,1.14,1.16,5.85s-1.2,7.65.08,9.37l.64-.55c-1.05-1.5-1-4.39.1-8.61,1.33-5,.11-6-1.61-6.83a2.52,2.52,0,0,1-1.79-2.84c0-2.06,1.36-4.07,2.94-5.74-.09-.31-.19-.62-.28-.93C451.37,133.29,449.73,135.63,449.71,138.11Z" fill="#042e3c"/><path d="M470.33,145.77c-.91-1.13-.38-3.59-.67-5.49a22.59,22.59,0,0,1,.51-8.5c1-3.23,4.59-12.56,7.14-13.74s.12,7.12-.35,8.83a6.67,6.67,0,0,0-.15,3s7.07-18.58,9.21-19.28-.84,10.26-1.59,13c0,0,6.11-13.7,7.6-13.72,3,0-3.35,15.37-3.35,15.37S494.41,114,496.23,115s-4.23,13.1-4.23,13.1,4.8-6.8,6.77-6.66-7,15.19-8.69,17.34-3.89,8.65-6.51,11.05C481.8,151.44,473.21,149.35,470.33,145.77Z" fill="#fff"/><path d="M491.22,132.89a.56.56,0,0,0,0-.73c-4-5.28-10.62-5.72-10.89-5.73a.56.56,0,1,0-.07,1.11h0c.07,0,6.35.43,10.07,5.29a.55.55,0,0,0,.78.11Z" fill="#def2f1"/><path d="M481.11,142.66a.55.55,0,0,0,.12-.61c-2.56-6.15,1-9.93,1.07-10a.56.56,0,0,0,0-.79.56.56,0,0,0-.78,0h0c-.17.18-4.14,4.36-1.3,11.18a.56.56,0,0,0,.91.18Z" fill="#def2f1"/><polygon points="403.45 426.27 404.74 436.51 417.79 436.51 418.55 425.74 403.45 426.27" fill="#fff"/><polygon points="438.34 424.61 439.93 436.5 452.98 436.5 452.48 424.26 438.34 424.61" fill="#fff"/><path d="M485.18,457.12H435.82a7,7,0,0,1-.64-2.74c-.31-4.18,1-10.84,1.67-15,.08-.49.15-.95.2-1.37a14.66,14.66,0,0,0,.15-1.71c0-3.43,3-2.84,3-2.84,5,4.89,10.65-2.45,13.95,0,0,0,1.43,1,5.35,4.54s10.58,5.86,16.25,8.23c7.33,3.06,9.4,6.12,9.81,8.23A3.86,3.86,0,0,1,485.18,457.12Z" fill="#2b7a78"/><path d="M485.18,457.12H435.82a7,7,0,0,1-.64-2.74h50.41A3.86,3.86,0,0,1,485.18,457.12Z" fill="#042e3c"/><path d="M440.86,457.12h-1.47a10.81,10.81,0,0,0,2.66-7.91,13.93,13.93,0,0,0-5.2-9.87c.08-.49.15-.95.2-1.37a15.14,15.14,0,0,1,6.17,11.18A12,12,0,0,1,440.86,457.12Z" fill="#b34e01"/><path d="M458.69,440.84a.82.82,0,0,1-.2-1.61l3.09-.76A.81.81,0,1,1,462,440l-3.08.77Z" fill="#f0ebe6"/><path d="M455.62,438.27a.82.82,0,0,1-.19-1.61l3.08-.76a.81.81,0,1,1,.39,1.58l-3.08.76A.64.64,0,0,1,455.62,438.27Z" fill="#f0ebe6"/><path d="M461.77,442.63a.82.82,0,0,1-.19-1.61l3.08-.76a.81.81,0,1,1,.39,1.58l-3.08.76A.69.69,0,0,1,461.77,442.63Z" fill="#f0ebe6"/><path d="M464.86,444.35a.81.81,0,0,1-.79-.62.8.8,0,0,1,.59-1l3.08-.77a.81.81,0,1,1,.4,1.58l-3.09.77Z" fill="#f0ebe6"/><path d="M468.22,445.94a.8.8,0,0,1-.79-.61.82.82,0,0,1,.59-1l3.09-.77a.82.82,0,0,1,1,.6.81.81,0,0,1-.59,1l-3.09.77A.62.62,0,0,1,468.22,445.94Z" fill="#f0ebe6"/><path d="M471.86,447.3a.83.83,0,0,1-.79-.62.82.82,0,0,1,.6-1l3.08-.77a.81.81,0,1,1,.39,1.58l-3.08.77Z" fill="#f0ebe6"/><path d="M383.18,250.39c.12.52.26,1,.41,1.51l0,.06c.2.66.43,1.3.68,1.91,2.21,5.42,19.3,6.21,36.12,4.33,13-1.46,25.94-4.53,31.59-8.31,5.32-3.55-6-36.28-6-36.28L382.18,227S380.75,240.62,383.18,250.39Z" fill="#042e3c"/><path d="M421.62,258.06l10.46,90.25c-2.41,15.18,4.07,77.36,4.07,77.36l18.79-.57,5.46-82.36c-.12-23.84-2.64-56.81-6.34-92.77-.05-.55-.11-1.1-.17-1.66-.19-1.83-.38-3.68-.58-5.53l-.15-1.48L447,244.13l-1.51.69-24.12,11.12Z" fill="#042e3c"/><path d="M439.14,423.09h.1a.77.77,0,0,0,.68-.87c-6.68-54.32-2.35-76.64-2.3-76.86a1.13,1.13,0,0,0,0-.26L426.35,259a.79.79,0,0,0-.88-.68.78.78,0,0,0-.67.88l11.26,85.95c-.36,1.94-4.15,24.79,2.31,77.23A.78.78,0,0,0,439.14,423.09Z" fill="#3aafa9"/><path d="M438.72,230.75c.08.41,1.62,8.41,6.78,14.07a18.09,18.09,0,0,0,3.6,3.07,15,15,0,0,0,3.33,1.61,13.19,13.19,0,0,0,1.63.47c-.05-.55-.11-1.1-.17-1.66-.26-.07-.52-.14-.78-.23a13.35,13.35,0,0,1-3.17-1.51,16.44,16.44,0,0,1-2.93-2.44c-5.15-5.39-6.73-13.57-6.75-13.67a.78.78,0,0,0-1.54.29Z" fill="#3aafa9"/><path d="M425.82,254.8a.64.64,0,0,1-.62.66h0a.64.64,0,0,1-.68-.6c-.12-2.36-.26-4.78-.41-7.19,0-.43-.05-.85-.08-1.28-.51-7.88-1.17-15.63-1.66-21.1,0-.44-.08-.87-.12-1.28-.1-1.2-.2-2.26-.29-3.16l1.29-.21c.09.9.19,2,.3,3.18l.12,1.29c.48,5.42,1.13,13.09,1.64,20.93l.09,1.3C425.56,249.85,425.7,252.36,425.82,254.8Z" fill="#3aafa9"/><path d="M427.68,246.48a16.61,16.61,0,0,1-2.28.87,12.15,12.15,0,0,1-1.29.33,8.63,8.63,0,0,1-1.23.16,4.49,4.49,0,0,1-2.19-.35,2.63,2.63,0,0,1-1.49-2c-.47-2.43-1.47-12.48-2.14-19.59,0-.43-.08-.86-.12-1.27-.11-1.14-.2-2.17-.28-3l1.29-.16c.09.88.18,1.93.29,3.08,0,.41.08.84.12,1.28.67,7.08,1.66,17.12,2.12,19.48a1.43,1.43,0,0,0,.79,1.1,4.58,4.58,0,0,0,2.76,0,12.63,12.63,0,0,0,1.28-.35,14.3,14.3,0,0,0,1.79-.7.67.67,0,0,1,.88.29A.62.62,0,0,1,427.68,246.48Z" fill="#3aafa9"/><path d="M382.28,237.53s.45,5.08,1.17,12.86c.05.49.09,1,.14,1.49v0a.13.13,0,0,0,0,.06c0,.51.09,1,.14,1.55,1.82,19.6,4.95,52.16,7,67.81,0,0-.3,29.46.79,52.2,1,21.12,8.29,46.46,9.32,52.72h19.37l.19-2.78V247.83a189,189,0,0,0-18.06-7.34l-1.53-.51c-1-.31-1.93-.61-2.89-.9l-1.53-.43C390.63,237.07,385.28,236.29,382.28,237.53Z" fill="#042e3c"/><path d="M403,425.4l.15,0a.77.77,0,0,0,.62-.92c-.05-.27-5.35-27.76-7.65-43.33s-1.16-59.17-1.14-59.61c0,0,0-.08,0-.11-1.72-14.61-5.23-65-5.27-65.53a.78.78,0,1,0-1.56.11c0,.51,3.54,50.83,5.27,65.54-.05,1.82-1.1,44.44,1.16,59.83,2.3,15.61,7.61,43.13,7.67,43.4A.78.78,0,0,0,403,425.4Z" fill="#3aafa9"/><path d="M423.24,454v.35c0,.52,0,1-.06,1.39-.05.89-.12,1.43-.12,1.43h-29.4a16.64,16.64,0,0,1,0-2.82c.19-3,1.19-7.75,5.25-10.89,5.56-4.3,3.41-3.4,4.55-5.36.13-.22,1.13-3.55,1.24-3.77.95-2,1.83-3,7.1-3,7,0,7.6,3.39,8.35,5.18a33.82,33.82,0,0,1,1.16,4.15c.18.74.35,1.53.52,2.34.43,2,.84,4.14,1.11,5.83A30.87,30.87,0,0,1,423.24,454Z" fill="#2b7a78"/><path d="M423.24,454v.35c0,.52,0,1-.06,1.39a8.17,8.17,0,0,1-3.05-4c-1.82-5,1-10.9,1.09-11.15l.06,0c.18.74.35,1.53.52,2.34-.66,2-1.42,5.42-.36,8.3A6.79,6.79,0,0,0,423.24,454Z" fill="#042e3c"/><path d="M423.24,454.3c0,1.67-.18,2.82-.18,2.82h-29.4a16.64,16.64,0,0,1,0-2.82Z" fill="#042e3c"/><path d="M412.74,440.44a.75.75,0,0,1-.21,0,14.52,14.52,0,0,0-6.82-.14.84.84,0,1,1-.44-1.62,16,16,0,0,1,7.68.13.84.84,0,0,1-.21,1.65Z" fill="#f0ebe6"/><path d="M413.2,437.28l-.21,0a14.52,14.52,0,0,0-6.82-.14.84.84,0,0,1-1-.59.85.85,0,0,1,.58-1,16.18,16.18,0,0,1,7.69.14.84.84,0,0,1-.21,1.65Z" fill="#f0ebe6"/><path d="M411.48,443.1l-.21,0a14.87,14.87,0,0,0-6.82-.14.83.83,0,1,1-.44-1.61,16,16,0,0,1,7.68.13.84.84,0,0,1-.21,1.65Z" fill="#f0ebe6"/><path d="M410,446.12a.76.76,0,0,1-.21,0A14.82,14.82,0,0,0,403,446a.84.84,0,0,1-.45-1.61,16,16,0,0,1,7.68.13.84.84,0,0,1-.21,1.65Z" fill="#f0ebe6"/><path d="M383.59,251.88v0a.13.13,0,0,0,0,.06c0,.51.09,1,.14,1.55a12.61,12.61,0,0,0,6.5-.58c4-1.46,7.16-4.74,9.44-8a39.51,39.51,0,0,0,2.67-4.44,38.26,38.26,0,0,0,1.86-4.18.78.78,0,0,0-.47-1,.77.77,0,0,0-1,.47,37.81,37.81,0,0,1-1.92,4.2,37.27,37.27,0,0,1-2.48,4.09c-2.14,3.05-5,6.08-8.64,7.39A11.12,11.12,0,0,1,383.59,251.88Z" fill="#3aafa9"/><path d="M395.92,259.21a8.83,8.83,0,0,0,2.12-.28c9.38-2.44,8.89-25.17,8.86-26.14l-1.21,0c0,.22.5,22.72-7.95,24.92a6.08,6.08,0,0,1-5.49-1c-7.34-5.5-8.05-26.7-8.05-26.91l-1.22,0c0,.9.73,22,8.53,27.86A7.26,7.26,0,0,0,395.92,259.21Z" fill="#f0ebe6"/><path d="M454.34,221.64c-.71.67-1.48,1.33-2.29,2l-.6.46a43.29,43.29,0,0,1-4.27,2.83c-.22.14-.44.26-.67.39a68.6,68.6,0,0,1-20.7,7.34c-1.81.35-3.66.63-5.53.86q-3.16.39-6.41.52c-1.59.06-3.2.09-4.82.05l-1,0a69.15,69.15,0,0,1-27.73-6.46l-.33-.16-.19-.55c-1.77-5.35-3.62-18-5-28.66l-.09-.73c-.59-4.72-1.07-9-1.39-12,0-.28-.07-.55-.09-.82-.06-.5-.1-.95-.14-1.35-.17-1.66-.31-3.34-.41-5a218,218,0,0,1,0-24.53l.06-1.38c0-.13,0-.26,0-.4s0-.51,0-.76q.19-3.54.42-7.19c0-.25,0-.49,0-.74.25-4.12.54-8.34.82-12.71.74-11.84,4-20.13,9.58-23.85a8.65,8.65,0,0,1,.76-.47h0a13.12,13.12,0,0,1,4.44-1.56,36.47,36.47,0,0,0,7.36-1.93c.85-.32,1.62-.66,2.33-1,.3-.14.57-.27.83-.41a27.67,27.67,0,0,0,4.44-2.74h19.58a15.11,15.11,0,0,0,6.09,5.1l.78.35c.38.16.77.32,1.16.45.92.35,1.86.65,2.79.92l.77.22c5.51,1.58,10.71,2.67,12,9.2.62,3.13-.55,8.25-1.52,16.52-.05.31-.08.64-.12,1-.17,1.5-.32,3.09-.46,4.8,0,.29,0,.57-.07.88-.24,3.24-.4,6.87-.42,10.91v.75c0,1.05,0,2.11,0,3.21,0,1.61.09,3.28.17,5,0,.94.09,1.91.16,2.89,0,.26,0,.53.05.8l.09,1.34c.13,1.62.27,3.28.44,5,.15,1.51.31,3,.51,4.62.12,1,.24,2,.38,3l.12.85c.05.36.1.72.15,1.1.21,1.45.48,3.22.78,5.19.05.24.09.49.12.74.36,2.34.79,5,1.25,7.74.05.24.1.5.14.75.9,5.29,1.93,11.06,3,16.39.06.32.12.63.19,1C452.81,215.11,453.59,218.68,454.34,221.64Z" fill="#2b7a78"/><path d="M444.8,162.8a10.39,10.39,0,0,1-4.2-3.13,4.8,4.8,0,0,1,.32-6.81,4.37,4.37,0,0,1,3.52-1.17v-.75a5.15,5.15,0,0,0-4,1.38,5.5,5.5,0,0,0-.4,7.81,11.08,11.08,0,0,0,4.82,3.47C444.83,163.33,444.82,163.06,444.8,162.8Z" fill="#042e3c"/><path d="M417.66,114.74c-7.82,0-13.84-8.51-14.09-8.88a.55.55,0,0,1,.9-.63c.06.09,6.18,8.76,13.64,8.41s9.08-6.17,9.15-6.42a.54.54,0,0,1,.67-.38.56.56,0,0,1,.38.68,10.77,10.77,0,0,1-10.15,7.21Z" fill="#042e3c"/><path d="M386.76,184.16a9.65,9.65,0,0,1-8.32,4.24,14.76,14.76,0,0,1-5.08-1c0-.28-.05-.55-.08-.81,6.07,2.33,10.75.42,12.87-2.87a6.5,6.5,0,0,0-1.44-9c-3.93-2.94-2.89-5.35-1.79-7.9s2.2-5.09-.48-9a8.9,8.9,0,0,0-5.76-4,9.54,9.54,0,0,0-3.9.17c0-.25,0-.51,0-.77a10.14,10.14,0,0,1,4-.12,9.62,9.62,0,0,1,6.24,4.33c2.91,4.23,1.6,7.26.55,9.69s-1.91,4.43,1.56,7A7.31,7.31,0,0,1,386.76,184.16Z" fill="#042e3c"/><path d="M412.19,158.11c-6.19-2.36-6.21-6.22-6.22-10.69,0-4.27,0-9.1-5.37-13.52l-.33-.27a5.79,5.79,0,0,0-9.14,6.33c1.41,4.23,1.56,10.1.43,17a13.68,13.68,0,0,0,3.64,12.11c4.07,4.25,10.92,6.47,16,6.47a15.25,15.25,0,0,0,1.83-.11,8.34,8.34,0,0,0,7.3-7.07C420.88,164.09,417.83,160.27,412.19,158.11Zm7.45,10.14a7.61,7.61,0,0,1-6.67,6.44c-5,.61-12.82-1.52-17.24-6.14a12.81,12.81,0,0,1-3.45-11.5,54.19,54.19,0,0,0,.77-8.65,27.52,27.52,0,0,0-1.23-8.67,5,5,0,0,1,1.91-5.76,5,5,0,0,1,6.08.22l.32.27c5.07,4.2,5.09,8.65,5.11,13,0,4.54,0,8.83,6.69,11.38C417.23,160.83,420.11,164.36,419.64,168.25Z" fill="#042e3c"/><path d="M436.45,135.34c-4.57-.92-8.46-4.24-8.89-6.59a1.34,1.34,0,0,1,.62-1.51c4.83-3,6.24-6.87,5.39-14.75a5.85,5.85,0,0,1,1.3-4.66l.15-.16-.77-.23a6.54,6.54,0,0,0-1.4,5.13c.81,7.55-.52,11.22-5.06,14.05a2.07,2.07,0,0,0-.94,2.27c.46,2.58,4.46,6.16,9.45,7.17a12.75,12.75,0,0,0,2.58.26,11.56,11.56,0,0,0,6.52-2c0-.33.07-.65.11-1A11.18,11.18,0,0,1,436.45,135.34Z" fill="#042e3c"/><path d="M416.4,124.07a7.9,7.9,0,0,0-7.08-3,4.56,4.56,0,0,0-4.28,3.44c-.68,2.59,1.09,3.64,2.81,4.66,1.95,1.17,4,2.37,3.77,5.81s1.2,5.75,3.73,6.53a5.19,5.19,0,0,0,1.49.23,4,4,0,0,0,3.5-1.8C423.06,135.36,419.37,127.77,416.4,124.07Zm3.31,15.48a3.61,3.61,0,0,1-4.15,1.24c-2.18-.67-3.38-2.83-3.21-5.78.23-3.89-2.19-5.33-4.13-6.49-1.75-1-3-1.79-2.48-3.85a3.86,3.86,0,0,1,3.66-2.9,6.34,6.34,0,0,1,.76,0,7.36,7.36,0,0,1,5.67,2.79C418.67,128.08,422.24,135.3,419.71,139.55Z" fill="#042e3c"/><path d="M434.17,153.49a8.87,8.87,0,0,0-9.31-5.9c-2.39.28-3.82,1.46-4.15,3.4-.45,2.71,1.67,4.17,3.73,5.58,2.41,1.66,4.68,3.23,3.21,6.75-1.27,3-1.18,5.36.24,6.36a2.9,2.9,0,0,0,1.69.49,8.11,8.11,0,0,0,5.05-2.42c1.15-1.05,1.58-2.74,1.58-4.72A31,31,0,0,0,434.17,153.49Zm0,13.72c-2.17,2-4.56,2.76-5.82,1.87s-1.11-2.78,0-5.47c1.7-4.07-1.05-6-3.47-7.64-2-1.34-3.79-2.61-3.42-4.86.27-1.63,1.42-2.55,3.52-2.8.3,0,.61-.05.91-.05a8,8,0,0,1,4.63,1.51,8.18,8.18,0,0,1,3,4C435.9,160.6,436.13,165.38,434.13,167.21Z" fill="#042e3c"/><path d="M448.7,193.19c-3.47-.39-4.31,1.69-5.26,4.07-.86,2.11-1.82,4.51-4.89,5.94-3.73,1.75-7.75-.06-9.79-2.76-1.52-2-2.33-5.09-.05-7.71a4.69,4.69,0,0,0,1.47-3.34c-.11-1.46-1.35-2.51-2.56-3.53-1.56-1.31-3-2.56-2.54-4.67a4.6,4.6,0,0,1,3.35-3.48,7.4,7.4,0,0,1,1.95-.26,12.49,12.49,0,0,1,8.37,3.92,13.47,13.47,0,0,0,8.69,4.08c0-.24-.08-.49-.11-.73a12.89,12.89,0,0,1-8.07-3.87c-3.33-3.3-7.65-4.81-11-3.84a5.3,5.3,0,0,0-3.86,4c-.59,2.54,1.2,4.06,2.78,5.39,1.14,1,2.21,1.87,2.3,3a4.06,4.06,0,0,1-1.29,2.8c-2.15,2.46-2.14,5.77,0,8.63a9.4,9.4,0,0,0,7.29,3.75,7.89,7.89,0,0,0,3.39-.77c3.33-1.56,4.39-4.2,5.25-6.33,1-2.38,1.62-4,4.71-3.59Z" fill="#042e3c"/><path d="M418.86,186.66c0-.15-.48-3.71-2.94-5.36a5.42,5.42,0,0,0-4.62-.54c-3.61,1-5.47.09-7.62-1a15.17,15.17,0,0,0-5.27-1.72,4.79,4.79,0,0,0-5.36,4.18,5.5,5.5,0,0,0,4.51,6.39,12.13,12.13,0,0,0,7.48-.78c1.91-.7,3.29-1.2,5,.11a9.23,9.23,0,0,0,5.25,2,4.2,4.2,0,0,0,1.94-.43,3,3,0,0,0,1.59-2.83S418.86,186.67,418.86,186.66ZM417,188.88c-1.55.79-4.19.18-6.42-1.49a4.36,4.36,0,0,0-2.67-.95,9.16,9.16,0,0,0-3.07.74,11.38,11.38,0,0,1-7.07.76,4.79,4.79,0,0,1-4-5.56,4.09,4.09,0,0,1,4.56-3.58,14.51,14.51,0,0,1,5,1.65c2.19,1.07,4.26,2.08,8.13,1a4.73,4.73,0,0,1,4,.43c2.1,1.41,2.59,4.55,2.63,4.83A2.24,2.24,0,0,1,417,188.88Z" fill="#042e3c"/><path d="M383,211.29c1.51-1.51,3.39-3.37,2.28-7.13a6.33,6.33,0,0,0-3.23-4c-2.32-1.2-5.25-1-7.29-.67,0,.24.05.49.09.73a17,17,0,0,1,2.82-.26,8.77,8.77,0,0,1,4,.85,5.64,5.64,0,0,1,2.87,3.58c1,3.33-.58,4.89-2.1,6.4s-3.21,3.19-.12,6.49,3,7.58,1.19,9.87a4.4,4.4,0,0,1-3.74,1.73c.06.19.13.37.19.55l.33.16a5.07,5.07,0,0,0,3.79-2c2-2.54,2.09-7.29-1.23-10.83C380.29,214,381.37,212.91,383,211.29Z" fill="#042e3c"/><path d="M443.91,222c-1.83-1.16-4.19-1.28-7-.36a11.21,11.21,0,0,0-6.24,4.8c-1.66,2.32-2.66,3.72-9.51,1.05-7.38-2.87-12.59-1.25-14.32,1.48-1.28,2-.82,4.61,1.23,7.05l1,0c-2.19-2.34-2.79-4.8-1.6-6.69,1-1.53,3.2-2.66,6.41-2.66a19.47,19.47,0,0,1,7,1.48c7,2.73,8.45,1.36,10.37-1.31a10.34,10.34,0,0,1,5.87-4.53c2.6-.85,4.75-.76,6.39.28a7.59,7.59,0,0,1,3,4.65c.23-.12.45-.25.66-.38A8.16,8.16,0,0,0,443.91,222Z" fill="#042e3c"/><path d="M402.39,220.28c-2.36-1-2.18-1.66-1.8-3.15a8.14,8.14,0,0,0-.1-5.25,4.4,4.4,0,0,0-2.51-2.77c-2.82-1.17-6.59.63-6.74.71l-.06,0c-3.24,2.4-2.8,6.28-1.84,10.12,1.24,5,4.38,7.88,8.85,8.18h.37c2.89,0,5.51-2.2,6-4.31C404.93,222.3,404.14,221,402.39,220.28Zm1.46,3.4c-.43,1.88-3,3.92-5.61,3.74-5.29-.36-7.37-4.34-8.19-7.62-1.23-4.9-.78-7.61,1.53-9.34.35-.16,3.72-1.66,6.13-.68a3.71,3.71,0,0,1,2.09,2.34,7.42,7.42,0,0,1,.09,4.83c-.45,1.73-.58,2.85,2.22,4C403.53,221.54,404.14,222.48,403.85,223.68Z" fill="#042e3c"/><path d="M452,223.55a6.49,6.49,0,0,1-2.81-4.81c-.18-2.8,1.5-5.64,2.87-7.45-.07-.32-.14-.64-.2-1-1.47,1.84-3.61,5.12-3.4,8.46a7.1,7.1,0,0,0,3,5.27c.2-.15.4-.3.59-.46Z" fill="#042e3c"/><path d="M422.77,136a6,6,0,0,0,3.66-2.33c5.61-7.26,1.42-28.88,1.24-29.79a.79.79,0,0,0-.94-.63h0a.79.79,0,0,0-.63.94c0,.21,4.23,21.82-.94,28.5a4.34,4.34,0,0,1-3.31,1.81c-8.53.51-17-23-19.51-32.06a.79.79,0,0,0-1-.56.8.8,0,0,0-.56,1,136.35,136.35,0,0,0,6.07,16.68c5.06,11.27,10.13,16.84,15.07,16.55A7.24,7.24,0,0,0,422.77,136Z" fill="#f0ebe6"/><path d="M407.37,70.71l-3-12.29a4.9,4.9,0,0,1,1.32-7.33c4.61-3.23,9.54-.56,9.54-.56s1.13-5.22,5.12-6.13,6,4.19,6,4.19,2.35-4.85,6.68-4.07S436.34,50,436.34,50s5.05-3.39,8.33-.5-1.62,8.5-1.62,8.5,4.63,1.25,4,4.63-5.69,4-5.69,4l-3.19,12Z" fill="#042e3c"/><path d="M431,80.08s2.7-5,6.77-2.92,1.46,16.39-6.65,14.35Z" fill="#def2f1"/><path d="M404.27,101.25s-1.45,1.54,5.93,5.65a17.48,17.48,0,0,0,12.09,1.43,15.93,15.93,0,0,0,1.87-.67c.17-6.32,2.15-10,2.68-10.82l.12-.19L408.84,81.39Z" fill="#fff"/><path d="M409.8,90.19s1.65,14.82,12.49,18.14a15.93,15.93,0,0,0,1.87-.67c.17-6.32,2.15-10,2.68-10.82Z" fill="#def2f1"/><path d="M416.07,99.24c8.12,3.63,15.74,1.55,18.25-5.55.61-1.71,1.29-4.24,1.94-6.88a.24.24,0,0,0,0-.08c.14-.56.27-1.13.41-1.7.1-.41.2-.82.29-1.23,1.09-4.73,1.95-9,1.95-9,1.51-12-9.11-19.1-19.46-16.81S409.39,75.37,407.8,82.36,409.11,96.13,416.07,99.24Z" fill="#fff"/><path d="M409.78,70c0,.29,0,.45,0,.45s1.76,1.17,1.78,5.17l2.57.5a19,19,0,0,0,2-8.28,4.2,4.2,0,0,1,.24-1.24c1.61-4.58,10.76-6.87,16.17-4.42A11.4,11.4,0,0,1,439,70.93a20,20,0,0,1-.26,4.63,14.56,14.56,0,0,0-.67-12.3c-4.22-8.18-16.28-10.7-22.72-5C409.92,63.06,409.71,68.46,409.78,70Z" fill="#042e3c"/><path d="M409.78,70c0,.29,0,.45,0,.45s1.76,1.17,1.78,5.17l2.57.5a19,19,0,0,0,2-8.28,4.2,4.2,0,0,1,.24-1.24Z" fill="#042e3c"/><path d="M420.9,62.52s4.69-.64,6.56.68,4.61,3.11,7.26,2,4.07,4.37,4.07,4.37-.78-9.28-8.3-9.21S423.16,59.79,420.9,62.52Z" fill="#042e3c"/><path d="M411.73,73.17s-1.51-4.49-6-3.52-5.45,15.52,2.9,15.55Z" fill="#fff"/><path d="M406,82.4a1,1,0,1,0,1-1A1,1,0,0,0,406,82.4Z" fill="#f0ebe6"/><path d="M382.09,111.46l-.27.09-.19.06-.19.07-.32.13-.24.1-.21.09-.36.16-.3.14-.28.15-.24.13-.25.13-.21.12c-.59.34-1,.63-1.5.93a28.39,28.39,0,0,0-2.27,1.73,38.55,38.55,0,0,0-3.48,3.3,63.7,63.7,0,0,0-5.3,6.55,106.24,106.24,0,0,0-7.87,13.34c-.29.56-.56,1.12-.84,1.68l-.43.9c-.2.42-.4.85-.59,1.27a34.64,34.64,0,0,0-1.61,4.71,50.9,50.9,0,0,0-1.45,8.48,68.61,68.61,0,0,0-.29,7.93c0,1.3.07,2.59.16,3.88.05.64.1,1.29.16,1.94l.1,1,.12,1.07a8.62,8.62,0,0,0,16.57,2.19l1-2.42c0-.06,0-.21.06-.33l.06-.38.13-.79c.08-.53.17-1.07.25-1.6.18-1.08.35-2.15.54-3.21.38-2.12.78-4.2,1.25-6.17a44.21,44.21,0,0,1,1.59-5.38,16,16,0,0,1,.87-1.93l.6-1,.84-1.44c2.27-3.8,4.6-7.5,7-10.84,1.18-1.65,2.39-3.22,3.52-4.55.56-.67,1.12-1.24,1.55-1.7.22-.21.42-.4.5-.49s.06-.08,0-.05h0l-.05,0-.06,0-.08,0-.26.11-.25.11-.21.08-.14,0-.16.05-.25.09a10.8,10.8,0,0,0-6.62-20.56Z" fill="#fff"/><path d="M394.51,130.87c-4.74,4.59-14.09,16.66-17.71,24.94,0,0-19.22-8.81-21-17.41,0,0,.19-.35.55-1,.11-.18.23-.39.38-.62a117,117,0,0,1,9.7-14l.47-.57a53.83,53.83,0,0,1,9.32-9.08c.2-.14.4-.29.61-.42a18.44,18.44,0,0,1,6.38-3c.24,0,.48-.1.72-.13a8.75,8.75,0,0,1,1.52-.13s12.13-.4,13,11C398.75,123.45,396.7,128.76,394.51,130.87Z" fill="#2b7a78"/><path d="M369,123.15a13.2,13.2,0,0,1-2.06-1l-.47.57a16.07,16.07,0,0,0,2.27,1.07c5.3,2,8.18,5.57,7.7,9.46a7.6,7.6,0,0,1-6.67,6.44,23.16,23.16,0,0,1-13-2.93c-.15.23-.27.44-.38.62A25.13,25.13,0,0,0,368,140.57a13.39,13.39,0,0,0,1.83-.12,8.33,8.33,0,0,0,7.31-7.07C377.68,129.13,374.62,125.32,369,123.15Z" fill="#042e3c"/><path d="M384,109.59c-.24,0-.48.08-.72.13,1.94,6.07,2,10.3.14,12-2.17,2-4.56,2.76-5.81,1.87s-1.12-2.78,0-5.47c1-2.46.44-4.13-.72-5.42-.21.13-.41.28-.61.42a4,4,0,0,1,.66,4.71c-1.28,3.05-1.18,5.36.24,6.36a2.88,2.88,0,0,0,1.69.49,8.13,8.13,0,0,0,5.05-2.42c1.15-1,1.58-2.74,1.58-4.72A27.69,27.69,0,0,0,384,109.59Z" fill="#042e3c"/><path d="M377.16,155.73a.52.52,0,0,1-.24,0,.53.53,0,0,1-.23-.71c5.46-11,10.72-17.38,19.13-26.08a.53.53,0,0,1,.75,0,.53.53,0,0,1,0,.75c-8.33,8.63-13.54,15-18.94,25.82A.53.53,0,0,1,377.16,155.73Z" fill="#042e3c"/><path d="M678,137.93l-1.76,5q-.9,2.55-1.83,5.08c-1.23,3.37-2.49,6.73-3.78,10.05s-2.62,6.59-4,9.75q-1,2.37-2.13,4.61c-.71,1.47-1.46,2.89-2.17,4.08-.18.3-.35.55-.52.83l0,.06,0,0,0,.06-.1.16a6.39,6.39,0,0,1-.81.91,19.41,19.41,0,0,1-3,2.23,42.52,42.52,0,0,1-4,2.19c-1.44.7-2.94,1.36-4.49,2s-3.14,1.23-4.75,1.8-3.26,1.12-4.93,1.64-3.33,1-5,1.5l-2.53.68-1.25.33-1.19.3-.31.08a8,8,0,0,0,3,15.64l1.54-.19,1.45-.2c1-.14,1.92-.3,2.88-.45q2.87-.48,5.73-1.06c3.81-.79,7.63-1.73,11.48-2.92q2.88-.89,5.8-2a59.94,59.94,0,0,0,5.93-2.66,38.61,38.61,0,0,0,6.14-3.91,26.26,26.26,0,0,0,3.16-2.92c.27-.29.53-.6.79-.9l.38-.49.2-.25.09-.12.07-.1c.34-.48.71-1,1-1.46,1.29-1.9,2.35-3.7,3.34-5.48s1.92-3.54,2.79-5.29c1.74-3.51,3.35-7,4.86-10.49s3-7,4.33-10.49c.68-1.76,1.36-3.52,2-5.29l1-2.65,1-2.72a10.71,10.71,0,1,0-20.19-7.18l0,.05Z" fill="#fff"/><path d="M640.3,194.13s-17.74-7-25.1-4.89-4.08,19.49-4.08,19.49l24.58-5Z" fill="#fff"/><path d="M680.8,127.82s-12,29.13-14.95,35.09a93.6,93.6,0,0,0,22.28,16.6L697,159S694.14,131.61,680.8,127.82Z" fill="#2b7a78"/><polygon points="662 419.12 660.45 437.56 674.13 437.77 677.24 420.05 662 419.12" fill="#fff"/><path d="M627.74,459.23l50-.54a6.88,6.88,0,0,0,.63-2.78c.27-4.23-1.15-11-1.86-15.21-.09-.5-.16-1-.22-1.38a13.42,13.42,0,0,1-.16-1.74c0-3.47-3.11-2.84-3.11-2.84-5,5-10.81-2.36-14.13.11,0,0-1.43,1-5.36,4.66s-10.65,6-16.37,8.51c-7.38,3.18-9.45,6.3-9.84,8.43A3.9,3.9,0,0,0,627.74,459.23Z" fill="#2b7a78"/><path d="M627.74,459.23l50-.54a6.88,6.88,0,0,0,.63-2.78l-51.05.54A3.9,3.9,0,0,0,627.74,459.23Z" fill="#042e3c"/><path d="M672.62,458.75l1.49,0a11,11,0,0,1-2.78-8,14.08,14.08,0,0,1,5.16-10.06c-.09-.5-.16-1-.22-1.38a15.32,15.32,0,0,0-6.13,11.39A12.17,12.17,0,0,0,672.62,458.75Z" fill="#042e3c"/><path d="M654.39,442.45a.82.82,0,0,0,.18-1.62l-3.13-.75a.83.83,0,0,0-.38,1.61l3.13.74A.71.71,0,0,0,654.39,442.45Z" fill="#042e3c"/><path d="M657.82,439.72a.82.82,0,0,0,.79-.63.84.84,0,0,0-.61-1l-3.13-.74a.83.83,0,1,0-.38,1.61l3.13.74Z" fill="#042e3c"/><path d="M651.29,444.3a.83.83,0,0,0,.18-1.63l-3.13-.74a.83.83,0,0,0-.38,1.61l3.13.74Z" fill="#042e3c"/><path d="M648.19,446.08a.83.83,0,0,0,.18-1.63l-3.13-.74a.82.82,0,0,0-1,.61.81.81,0,0,0,.61,1l3.13.75Z" fill="#042e3c"/><path d="M644.8,447.73a.83.83,0,0,0,.18-1.63l-3.13-.74a.82.82,0,1,0-.38,1.6l3.13.75Z" fill="#042e3c"/><path d="M641.12,449.14a.8.8,0,0,0,.79-.63.81.81,0,0,0-.61-1l-3.13-.74a.82.82,0,0,0-1,.61.83.83,0,0,0,.61,1l3.13.74A.71.71,0,0,0,641.12,449.14Z" fill="#042e3c"/><path d="M660.29,310.73c-.23,1.79-.42,3.41-.57,4.82,0,.36-.07.74-.11,1.14-1.5,17.75-.16,79,.3,98.14,0,.64,0,1.23,0,1.77.07,2.55-.2,6.39-.2,6.39L678,424.55s.6-3.79,1.09-6.24l.39-1.95c2-10.2,6.41-32.07,10.12-51.26,5.06-26,4-41.52,4-41.52s-1-6.21,2.86-21.3c3.23-12.51,13.95-52.24,17.84-65.45l1.25-4.23s-25.41-17.52-34-9.7c-.67.6-2.94,6.42-3.35,7.28a77.33,77.33,0,0,0-3.62,10.13C669.07,258.7,662.63,292.92,660.29,310.73Z" fill="#042e3c"/><path d="M677,417.48h0a.59.59,0,0,0,.67-.5c.07-.48,7.06-48.33,9.56-62.69,2.11-12.12,2.85-35.89,2.89-37.31,5.72-22.82,20.81-81,21-81.58a.58.58,0,0,0-.42-.72.59.59,0,0,0-.72.43c-.15.58-15.27,58.86-21,81.64a.59.59,0,0,0,0,.13c0,.25-.72,24.86-2.87,37.2-2.51,14.38-9.5,62.25-9.57,62.73A.58.58,0,0,0,677,417.48Z" fill="#2b7a78"/><polygon points="726.33 421.89 727 437.56 742.94 437.86 741.79 423.13 726.33 421.89" fill="#fff"/><path d="M746.55,455.55c0,.12,0,.24,0,.36,0,.55,0,1-.06,1.46-.05.94-.12,1.51-.12,1.51H715.42a16.41,16.41,0,0,1,0-3c.21-3.16,1.26-8.16,5.53-11.46,5.85-4.52,3.59-3.58,4.79-5.64.13-.23,1.19-3.73,1.3-4,1-2.14,1.93-3.16,7.48-3.16,7.35,0,8,3.57,8.78,5.45a34.93,34.93,0,0,1,1.22,4.37c.19.78.37,1.62.56,2.47.45,2.13.87,4.35,1.16,6.13A32.12,32.12,0,0,1,746.55,455.55Z" fill="#2b7a78"/><path d="M746.55,455.55c0,.12,0,.24,0,.36,0,.55,0,1-.06,1.46a8.63,8.63,0,0,1-3.21-4.16c-1.92-5.22,1-11.48,1.15-11.74l.06,0c.19.78.37,1.62.56,2.47-.7,2.13-1.5,5.7-.39,8.73A7.19,7.19,0,0,0,746.55,455.55Z" fill="#042e3c"/><path d="M746.54,455.91c0,1.76-.18,3-.18,3H715.42a16.41,16.41,0,0,1,0-3Z" fill="#042e3c"/><path d="M735.5,441.33a.91.91,0,0,1-.23,0,15.29,15.29,0,0,0-7.17-.15.87.87,0,0,1-1.08-.61.88.88,0,0,1,.61-1.09,17.08,17.08,0,0,1,8.09.14.89.89,0,0,1,.63,1.08A.87.87,0,0,1,735.5,441.33Z" fill="#042e3c"/><path d="M736,437.76a.86.86,0,0,1-.22,0,15.29,15.29,0,0,0-7.17-.15.89.89,0,0,1-1.09-.62.88.88,0,0,1,.62-1.08,16.9,16.9,0,0,1,8.08.14.88.88,0,0,1-.22,1.73Z" fill="#042e3c"/><path d="M734.17,444.13l-.22,0a15.31,15.31,0,0,0-7.17-.15.89.89,0,0,1-1.09-.62.88.88,0,0,1,.62-1.08,16.9,16.9,0,0,1,8.08.14.88.88,0,0,1,.64,1.07A.89.89,0,0,1,734.17,444.13Z" fill="#042e3c"/><path d="M732.62,447.3l-.22,0a15.36,15.36,0,0,0-7.18-.15.88.88,0,0,1-.47-1.7,16.93,16.93,0,0,1,8.09.14.88.88,0,0,1-.22,1.73Z" fill="#042e3c"/><path d="M709.22,245l2.53.61c10.81,2.47,22.16,3.47,30.1,1.57,3.92-.93,6.42-5.73,8-11.09.44-1.47.8-3,1.11-4.45a86.29,86.29,0,0,0,1.6-12.32l-62.76-15.42s-1.94,3.58-4.1,8.25a99.74,99.74,0,0,0-4.37,10.89h0a28.49,28.49,0,0,0-1.3,5.8C679.59,234.18,693.49,241.08,709.22,245Z" fill="#042e3c"/><path d="M708.52,317.44c.06,1.79.11,3.42.19,4.84,0,.37,0,.74.06,1.15,1.28,17.76,12.11,78.06,15.54,96.9.12.63.22,1.21.32,1.74.46,2.51.73,3.94.73,3.94l18.3-1.3s.07-1.43.16-3.93c0-.6.06-1.26.09-2,.43-10.39,1.35-32.68,2-52.21.95-26.51-2.52-41.64-2.52-41.64s-2-6-.48-21.49c1.25-12.85,5.67-53.77,7.46-67.42.37-2.75.58-4.37.58-4.37s-28.72-8.08-36,1a7.34,7.34,0,0,0-1.28,2.43,77.74,77.74,0,0,0-2,10.57C709.12,264.67,708.07,299.48,708.52,317.44Z" fill="#042e3c"/><path d="M724.31,420.33c.12.63.23,1.21.32,1.74l19.2-1.29c0-.6,0-1.26.08-2Z" fill="#2b7a78"/><path d="M744.07,257.19a.58.58,0,0,0,.13-1.15,18.48,18.48,0,0,1-6.7-3.57c-4.51-3.71-7-9-7.43-15.76a.58.58,0,0,0-1.15.07c.54,8.85,4.59,13.92,7.88,16.62a19.33,19.33,0,0,0,7.14,3.77Z" fill="#2b7a78"/><path d="M741.61,420.3h0a.59.59,0,0,0,.58-.6c0-.49-.53-48.85-.29-63.43.21-12.29-2.76-35.89-2.94-37.3,2.11-23.43,8-83.24,8-83.84a.6.6,0,0,0-.53-.65.61.61,0,0,0-.65.54c-.05.6-5.94,60.52-8,83.91a.29.29,0,0,0,0,.13c0,.24,3.15,24.67,2.94,37.19-.24,14.6.28,63,.29,63.46A.59.59,0,0,0,741.61,420.3Z" fill="#2b7a78"/><path d="M659.91,414.83c0,.64,0,1.23.05,1.77l19.16,1.71q.18-.88.39-1.95Z" fill="#2b7a78"/><path d="M709.2,245.14a.58.58,0,0,0,.48-.37.6.6,0,0,0-.33-.77,16,16,0,0,1-8.77-9.9.59.59,0,0,0-.73-.41.6.6,0,0,0-.4.74,17,17,0,0,0,9.47,10.68A.65.65,0,0,0,709.2,245.14Z" fill="#2b7a78"/><path d="M708.08,110.59s22-.46,27.61,2c4.35,1.91,7.32.44,11.57,15.07s5.32,31,6.6,45.63c1.06,12,1.66,41.7.14,52.76s-26,10.48-42.06,4.91-25.89-18-26.07-22.29,4.65-9.15,4.69-13.09-1.32-17.52-5.07-21.82-9.27-9.5-7.07-20.84c1.47-7.6-.12-13.09,1.1-20.3s1.63-11.2,7.38-13.19S708.08,110.59,708.08,110.59Z" fill="#2b7a78"/><path d="M681.78,170.05a.64.64,0,0,0,.49-.22.65.65,0,0,0,0-.93c-7.5-6.9-5.54-15.28-3.7-19.66a37.88,37.88,0,0,0,2.75-13.37.67.67,0,0,0-.66-.66h0a.67.67,0,0,0-.66.67,37.06,37.06,0,0,1-2.65,12.85c-2,4.7-4.07,13.69,4,21.14A.62.62,0,0,0,681.78,170.05Z" fill="#042e3c"/><path d="M735.8,229.08c14.78,0,18.49-6.68,18.67-7a.66.66,0,0,0-.28-.89.65.65,0,0,0-.89.28c0,.05-1.33,2.36-5.41,4.15-3.83,1.69-10.95,3.25-23.1,1.11-23.52-4.13-35.15-20.11-35.26-20.27a.66.66,0,1,0-1.08.76,47.42,47.42,0,0,0,9,8.83,61.51,61.51,0,0,0,27.15,12A65.16,65.16,0,0,0,735.8,229.08Z" fill="#042e3c"/><path d="M702.39,135.55a4.94,4.94,0,0,1-.76.18,6.71,6.71,0,0,1-6-1.53c-4.59-4.16-3.84-14.7-3.8-15.15a.63.63,0,0,1,.69-.59.63.63,0,0,1,.59.69c0,.1-.73,10.36,3.39,14.1a5.43,5.43,0,0,0,4.87,1.21c8.34-1.45,15.77-23.66,15.85-23.88a.64.64,0,0,1,1.22.4C718.18,111.9,711.13,132.92,702.39,135.55Z" fill="#fff"/><path d="M696.54,138.83a36,36,0,0,0,3.6-.19c6.81-.68,19-9,19.52-9.4a.59.59,0,0,0-.67-1c-.13.09-12.46,8.56-19,9.2-12.19,1.22-15.64-4.2-15.67-4.26a.59.59,0,0,0-.81-.2.6.6,0,0,0-.21.81C683.48,134,686.45,138.83,696.54,138.83Z" fill="#042e3c"/><path d="M694.67,112.66s-3.89,6.2-9.62,2.06c0,0-7.36,2.9-9-4.37,0,0-6.16-.48-5.23-11.12,0,0-6.32-.92-5.19-10.42,0,0-5.1-4.25-4.36-10.59a9.24,9.24,0,0,1,8-8.26s-1.15-4.6,5.07-8.45c6-3.7,8,.37,8,.37s3.84-6.23,9.57-5.92,7.62,3.66,7.62,3.66a9.66,9.66,0,0,1,10,.09,10.88,10.88,0,0,1,5.25,8.47s4.4-.14,6.15,5.71-.23,7.48-.23,7.48,6.65,5.86.57,11.65c0,0-2.65,9.24-11.71,10.47S694.67,112.66,694.67,112.66Z" fill="#042e3c"/><path d="M696.35,119.14c10.7,10.08,18.43-6.13,17.74-9.2a21.4,21.4,0,0,1-6.62-15l-15.6,12.44c.22.48.45,1,.67,1.46a72,72,0,0,1,2.9,7.1A26.8,26.8,0,0,1,696.35,119.14Z" fill="#fff"/><path d="M695.44,115.93c8.27-5.2,10.81-16.55,10.81-16.55l-13.71,9.45A72,72,0,0,1,695.44,115.93Z" fill="#def2f1"/><path d="M682.07,97.36s-3-4-6.23-1.71.73,14.4,7.51,11.64Z" fill="#def2f1"/><path d="M684.86,116.39a6.39,6.39,0,1,1,5-7.55A6.4,6.4,0,0,1,684.86,116.39Zm-2.39-11.57a5.43,5.43,0,1,0,6.42,4.22A5.43,5.43,0,0,0,682.47,104.82Z" fill="#2b7a78"/><path d="M707.34,98c-.28,5.47-11,15.31-17,14.62-3.63-.41-7.37-2.42-11.06-8.37l-.06-.1c-.22-.35-.42-.7-.62-1-.37-.62-.71-1.24-1-1.84-.07-.14-.15-.28-.21-.41-.19-.38-.36-.74-.51-1.09s-.37-.85-.51-1.25c-2.33-6.43-5.09-13.6-.5-19.6s13.46-10.14,20.68-6.08c0,0,5.61,3.78,8.52,13.21S707.53,94,707.34,98Z" fill="#fff"/><path d="M691.23,73.27s6.32,9.17,9.93,10.25,4.52-4.67,4.52-4.67S694.71,65.21,691.23,73.27Z" fill="#042e3c"/><path d="M678.68,77.64s8.41,6.55,15.09,2.27-.15-8.8-.15-8.8S678.28,69.85,678.68,77.64Z" fill="#042e3c"/><path d="M680.41,76.32s-.19,12-7.93,12.41-1.06-13.51,3.86-14.59S680.41,76.32,680.41,76.32Z" fill="#042e3c"/><path d="M702.36,85.63s.84-4.5,5.23-4.17,7.3,14.12-.69,15.27Z" fill="#fff"/><path d="M698.6,81s1.85,12.38,4.17,10.43.86-9.28.86-9.28Z" fill="#042e3c"/><path d="M711.58,92.43c-.13.32-.17.63-.31.95a5.42,5.42,0,1,1-3.21,1.31c1-.7,1-1.22.9-1.7a6.39,6.39,0,1,0,8.91,4.51A6.48,6.48,0,0,0,711.58,92.43Z" fill="#2b7a78"/><path d="M747.1,144.72c.59.61,1.19,1.22,1.79,1.81a102.45,102.45,0,0,0,9.78,8.55c16.34,12.51,33.13,17.24,35.85,7.81,2.62-9.1-14.41-21.93-26.13-29.5-2.24-1.45-4.28-2.7-6-3.71-2.76-1.65-4.53-2.61-4.53-2.61Z" fill="#def2f1"/><path d="M748.89,146.53a102.45,102.45,0,0,0,9.78,8.55c5-5.67,8.26-16.25,9.72-21.69-2.24-1.45-4.28-2.7-6-3.71Z" fill="#2b7a78"/><path d="M792.67,155.52s7.64,3.42,4.22,22.39-1.32,39-10.8,43.73-7.11-5.8-8.17-23.18C776.92,181.84,770.81,148.93,792.67,155.52Z" fill="#def2f1"/><path d="M776,217s-3.92,3.46-5,7a68.84,68.84,0,0,0-2.34,9.2c-.07,1.4,3.55,1.63,5.4-4.11A47.19,47.19,0,0,0,776,217Z" fill="#042e3c"/><path d="M793.09,229s.13,6.88,0,8.65c-.57,6.84-3.32,4.44-3.52,1.55-.06-.83-.15-9.86-.15-9.86Z" fill="#042e3c"/><path d="M788.76,230.45s.15,7.52,0,9.44c-.63,7.48-3.63,4.86-3.85,1.7-.07-.91-.15-10.78-.15-10.78Z" fill="#042e3c"/><path d="M784.17,232.12s-.28,8.56-.58,10.73c-1.16,8.46-4,5.21-4.05,1.61,0-1,.23-12.78.23-12.78Z" fill="#042e3c"/><path d="M779.15,229.22s-.29,8.55-.59,10.72c-1.16,8.46-4,5.22-4,1.61,0-1,.22-12.78.22-12.78Z" fill="#042e3c"/><path d="M773.46,229.72c0,.11,0,.21,0,.32a9.91,9.91,0,0,0,.39,1.62,2.46,2.46,0,0,0,.14.36,1.23,1.23,0,0,0,.35.5,18.21,18.21,0,0,0,4.82,1.16l.35,0a44.31,44.31,0,0,0,4.64.4h.29a23.35,23.35,0,0,0,4.76-.3l.3-.06a6.73,6.73,0,0,0,3.09-1.32,4.43,4.43,0,0,0,1.1-1.68c0-.09.08-.18.11-.27h0c1.25-3.36,1-9.26.68-12.93a4.35,4.35,0,0,0-3.57-3.89c-4.58-.82-12.73-1.76-15.25,1.27a8.23,8.23,0,0,0-1.28,2.29l-.08.24C773,221.13,773,226.47,773.46,229.72Z" fill="#2b7a78"/><path d="M773.46,229.72c0,.11,0,.21,0,.32a11.37,11.37,0,0,0,3.45-7.25c.28-3.39-1.43-4.93-2.53-5.56l-.08.24c1,.59,2.62,2.05,2.35,5.3A11.07,11.07,0,0,1,773.46,229.72Z" fill="#042e3c"/><path d="M773.9,231.66a2.46,2.46,0,0,0,.14.36,2.72,2.72,0,0,1,2.35-2.08,2,2,0,0,1,1.58.55,5.34,5.34,0,0,1,1.24,3.19l.35,0c.17-1,.75-3.44,2.3-3.44s2.1,2.53,2.34,3.84h.29c-.07-.92-.08-2.51.61-3.33a1.45,1.45,0,0,1,1.17-.51c2.16,0,2.83,2.79,3,3.54l.3-.06c0-.82.28-3.59,1.76-4a2.33,2.33,0,0,1,2.43,1c0-.09.08-.18.11-.27h0a2.51,2.51,0,0,0-2.61-1c-1.36.39-1.77,2.38-1.9,3.58-.34-1.17-1.19-3.06-3.07-3.06a1.72,1.72,0,0,0-1.37.61,3.94,3.94,0,0,0-.7,2.3c-.37-1.35-1.08-2.91-2.34-2.91-1.52,0-2.18,1.9-2.45,3.11a5.09,5.09,0,0,0-1.26-2.83,2.36,2.36,0,0,0-1.78-.63A2.85,2.85,0,0,0,773.9,231.66Z" fill="#042e3c"/><path d="M775.82,166.32A11.33,11.33,0,1,0,787.14,155,11.33,11.33,0,0,0,775.82,166.32Z" fill="#2b7a78"/><path d="M780.82,166.32a6.32,6.32,0,1,0,6.32-6.32A6.32,6.32,0,0,0,780.82,166.32Z" fill="#def2f1"/><path d="M784,166.32a3.16,3.16,0,1,0,3.16-3.16A3.17,3.17,0,0,0,784,166.32Z" fill="#2b7a78"/><path d="M719.87,130.77a13.1,13.1,0,0,1,12.5-19.91c3.75.37,6.57,1.24,12.87,4.07,16.63,7.46,22.88,15,22.88,15A79.06,79.06,0,0,1,751.54,155S725.29,139.26,720,131A2.13,2.13,0,0,1,719.87,130.77Z" fill="#2b7a78"/><path d="M752.52,154l0-.08a.65.65,0,0,0-.32-.87c-7.49-3.42-23.14-14.33-23.3-14.44a.66.66,0,1,0-.76,1.08c.65.45,15.92,11.09,23.51,14.56A.65.65,0,0,0,752.52,154Z" fill="#042e3c"/><path d="M736.2,144.39a.6.6,0,0,0,.1-.3.66.66,0,0,0-.62-.7l-5-.31a.65.65,0,0,0-.7.62.66.66,0,0,0,.61.7l5,.31A.65.65,0,0,0,736.2,144.39Z" fill="#042e3c"/><path d="M503.25,213.43l.24.89.24.85.49,1.69c.34,1.12.68,2.24,1,3.35s.74,2.22,1.11,3.32.78,2.2,1.19,3.3c1.62,4.4,3.41,8.75,5.48,13.09,1,2.18,2.14,4.35,3.36,6.54.6,1.09,1.26,2.18,1.94,3.29s1.41,2.22,2.22,3.34,1.7,2.27,2.73,3.45a27.84,27.84,0,0,0,3.91,3.72c.44.34.94.71,1.51,1.07s1,.6,1.55.9c.32.16.65.33,1,.48s.76.31,1.14.46.84.28,1.29.4l.68.18.77.14.79.12.39,0,.44,0q.43,0,.87,0c.3,0,.57,0,.89,0,.62,0,1.25-.12,1.85-.22s1.07-.24,1.6-.39c.29-.08.49-.15.72-.23l.67-.25.33-.14.31-.13.56-.27.56-.28.27-.14.23-.14c.31-.18.62-.36.92-.56s.72-.48,1.05-.73a21.3,21.3,0,0,0,1.73-1.41c.19-.16.38-.34.56-.51l.5-.49c.35-.34.64-.64.94-1a39.89,39.89,0,0,0,3-3.62c.86-1.17,1.64-2.3,2.36-3.42s1.39-2.23,2-3.33,1.24-2.2,1.83-3.29,1.14-2.18,1.68-3.27c1.09-2.17,2.09-4.35,3.06-6.52,1.93-4.34,3.67-8.7,5.27-13.08q1.2-3.3,2.29-6.61c.36-1.11.71-2.22,1.05-3.34l.5-1.69.26-.85.25-.9a11.47,11.47,0,0,0-21.63-7.53l-.1.24-.3.7-.3.75-.62,1.5-1.24,3-2.48,6.06c-1.65,4-3.32,8-5,12s-3.49,7.75-5.32,11.25c-.48.9-1,1.78-1.45,2.62-.71-.88-1.44-1.82-2.15-2.79-1.21-1.62-2.38-3.34-3.57-5.1-2.36-3.52-4.67-7.21-7-10.95L522,216.24l-1.72-2.83-1.72-2.84-.86-1.41-.43-.7-.42-.67-.13-.22a7.42,7.42,0,0,0-13.46,5.86Z" fill="#def2f1"/><path d="M517.51,211.14c.84-1.14.22-3.52.41-5.38a22,22,0,0,0-.87-8.27c-1.15-3.1-5-12.05-7.57-13.08s.2,6.94.74,8.59a6.57,6.57,0,0,1,.28,3s-7.72-17.81-9.83-18.4,1.27,10,2.12,12.59c0,0-6.56-13.1-8-13.05-2.93.09,3.94,14.84,3.94,14.84s-6.08-10.74-7.81-9.69,4.7,12.6,4.7,12.6-5-6.42-6.9-6.2,7.53,14.51,9.24,16.53,4.18,8.26,6.83,10.49C506.58,217.18,514.86,214.76,517.51,211.14Z" fill="#fff"/><path d="M496.58,199.51a.56.56,0,0,1-.09-.72c3.72-5.33,10.1-6,10.37-6.07a.55.55,0,0,1,.11,1.09h0c-.06,0-6.16.69-9.58,5.6a.55.55,0,0,1-.76.14Z" fill="#def2f1"/><path d="M506.86,208.59a.54.54,0,0,1-.14-.59c2.22-6.11-1.45-9.64-1.49-9.68a.54.54,0,0,1,.74-.8h0c.17.16,4.23,4.07,1.76,10.84a.54.54,0,0,1-.7.32A.52.52,0,0,1,506.86,208.59Z" fill="#def2f1"/><path d="M541.89,245.66a.53.53,0,0,1-.51-.4c-1-3.9-4.91-6.69-5-6.72a.54.54,0,0,1-.13-.74.53.53,0,0,1,.74-.13c.18.12,4.28,3.06,5.37,7.32a.53.53,0,0,1-.39.65Z" fill="#3aafa9"/><path d="M599,391H544.18l51.2-19.61a.57.57,0,0,0-.4-1.06L543.4,390.08,582.46,351a.56.56,0,0,0,0-.79.57.57,0,0,0-.8,0l-39.21,39.21,21.07-51.64a.57.57,0,1,0-1-.43l-20.78,50.94V333.67a.56.56,0,1,0-1.12,0v54.84L521,337.3a.55.55,0,0,0-.72-.32.56.56,0,0,0-.33.72l19.76,51.58-39.06-39a.56.56,0,0,0-.79.79l38.31,38.32-50.37-20.55a.56.56,0,0,0-.73.31.57.57,0,0,0,.31.74L539.18,391H483.25a.56.56,0,0,0-.56.56.57.57,0,0,0,.56.57h54.84l-51.21,19.61a.56.56,0,0,0,.2,1.09.45.45,0,0,0,.2,0L538.86,393l-39.05,39.05a.57.57,0,0,0,0,.8.53.53,0,0,0,.39.16.55.55,0,0,0,.4-.16l38.7-38.7-20.55,50.38a.56.56,0,0,0,.3.73.57.57,0,0,0,.22,0,.56.56,0,0,0,.52-.35l20.78-50.93v55.38a.56.56,0,1,0,1.12,0V394.6l19.62,51.21a.56.56,0,0,0,.53.36.51.51,0,0,0,.2,0,.57.57,0,0,0,.32-.73L542.6,393.82l39.06,39.06a.57.57,0,0,0,.8-.8L542.87,392.5l51.64,21.06a.54.54,0,0,0,.21.05.57.57,0,0,0,.22-1.09l-50-20.4H599a.58.58,0,0,0,.57-.57A.57.57,0,0,0,599,391Z" fill="#def2f1"/><path d="M541.13,455.79A64.24,64.24,0,1,1,586.55,437,63.81,63.81,0,0,1,541.13,455.79Zm0-120.34a56.11,56.11,0,1,0,56.11,56.1A56.17,56.17,0,0,0,541.13,335.45Z" fill="#def2f1"/><circle cx="541.13" cy="391.55" r="9.05" transform="translate(-122.08 470.87) rotate(-42.71)" fill="#042e3c"/><path d="M546.13,391.55a5,5,0,1,1-5-5A5,5,0,0,1,546.13,391.55Z" fill="#3aafa9"/><path d="M542.39,394.56a2.81,2.81,0,0,1-.49-.05,2.44,2.44,0,0,1-1.91-2.87l37.84-188a2.44,2.44,0,0,1,2.39-2H611.4a2.44,2.44,0,1,1,0,4.88H582.22L544.78,392.6A2.44,2.44,0,0,1,542.39,394.56Z" fill="#def2f1"/><path d="M438.05,448.19a2.44,2.44,0,0,1-2.44-2.44V428.18a2.32,2.32,0,0,1,.07-.59l24.15-96.27a2.46,2.46,0,0,1,2.37-1.85h129a2.44,2.44,0,0,1,0,4.88H464.1l-23.61,94.13v17.27A2.44,2.44,0,0,1,438.05,448.19Z" fill="#def2f1"/><path d="M450.78,446.79a12.74,12.74,0,1,1-12.73-12.74A12.73,12.73,0,0,1,450.78,446.79Z" fill="#def2f1"/><path d="M443.87,446.79a5.83,5.83,0,1,1-5.82-5.83A5.83,5.83,0,0,1,443.87,446.79Z" fill="#042e3c"/><path d="M506.51,270.67h90.16c1.81,0,3.28,1.11,3.28,2.48v46.11c0,1.37-1.47,2.48-3.28,2.48H506.51c-1.81,0-3.28-1.11-3.28-2.48V273.15C503.23,271.78,504.7,270.67,506.51,270.67Z" fill="#2b7a78"/><path d="M604.58,273.11h-106a2.44,2.44,0,1,1,0-4.88h106a2.44,2.44,0,0,1,0,4.88Z" fill="#def2f1"/><path d="M616.91,204s14.74-1,21.52-.29,4.37,1.11,3.25,11.65-16.85,83.72-16.85,83.72H598Z" fill="#042e3c"/><path d="M555.89,200.57c-2.91,6.91-2.6,12.76-5.86,20-4.86,10.81-.57,17.29,2.17,22.47s.9,19-.06,23-6.92,7.7-7.74,12,6.05,19,20.8,28.36,39,15.64,43.13,5,10.48-40.48,12.24-52.7c2.15-14.92,4.93-31.5,4.11-47.1s-6-19.81-9.76-22.92c-1.73-1.43-7.25-2.25-12.69-2.71-6.38-.55-12.66-.61-12.66-.61s-8.39,1.6-15.54,2.77c-3,.5-7.09,2-8.72,2.32C559.2,191.64,558.8,193.66,555.89,200.57Z" fill="#def2f1"/><path d="M574,188c-.69,3.88-2.11,16,7.29,14.92,11.17-1.28,20.91-17.08,20.91-17.08-6.38-.55-12.66-.61-12.66-.61S581.18,186.85,574,188Z" fill="#fff"/><path d="M602.25,310.49a.61.61,0,0,0,.71-.38c9-24.26,13-48.92,14.72-65.34a268.06,268.06,0,0,0,1.68-30.14.61.61,0,1,0-1.21,0,265.82,265.82,0,0,1-1.68,30c-1.76,16.34-5.72,40.89-14.65,65a.6.6,0,0,0,.36.78Z" fill="#8a1e01"/><path d="M553.31,249.56h0a.62.62,0,0,0,.7-.51,12.7,12.7,0,0,0-2.23-8.82c-3.14-4.31-5.81-11.35-.74-20.35a.6.6,0,1,0-1.05-.6c-5.4,9.56-2.54,17.06.81,21.67a11.72,11.72,0,0,1,2,7.91A.61.61,0,0,0,553.31,249.56Z" fill="#3aafa9"/><polygon points="479.1 384.99 472.63 400.83 458.72 395.36 463.24 380.12 479.1 384.99" fill="#fff"/><path d="M421.09,408.66l51,11.55a7.2,7.2,0,0,0,1.32-2.68c1.29-4.24,1.48-11.42,1.79-15.91,0-.53.07-1,.11-1.46a15.29,15.29,0,0,1,.25-1.8c.8-3.54-2.47-3.65-2.47-3.65-6.3,3.89-10.42-5-14.39-3.3,0,0-1.71.72-6.58,3.44s-12.29,3.57-18.7,4.69c-8.28,1.45-11.14,4.12-12.05,6.2A4.1,4.1,0,0,0,421.09,408.66Z" fill="#def2f1"/><path d="M421.09,408.66l51,11.55a7.2,7.2,0,0,0,1.32-2.68l-52-11.79A4.1,4.1,0,0,0,421.09,408.66Z" fill="#042e3c"/><path d="M466.85,419l1.51.34a11.45,11.45,0,0,1-.89-8.77,14.73,14.73,0,0,1,7.68-9c0-.53.07-1,.11-1.46a16,16,0,0,0-9,10.1A12.62,12.62,0,0,0,466.85,419Z" fill="#042e3c"/><path d="M452.25,398.05a.85.85,0,0,0,1-.45.87.87,0,0,0-.38-1.16l-3-1.51a.86.86,0,0,0-.78,1.54l3,1.51A.73.73,0,0,0,452.25,398.05Z" fill="#042e3c"/><path d="M456,396.12a.86.86,0,0,0,.57-1.61l-3-1.51a.86.86,0,1,0-.77,1.54l3,1.51A.68.68,0,0,0,456,396.12Z" fill="#042e3c"/><path d="M448.65,399.18a.85.85,0,0,0,1-.45.87.87,0,0,0-.38-1.16l-3-1.51a.86.86,0,0,0-.77,1.54l3,1.51A.8.8,0,0,0,448.65,399.18Z" fill="#042e3c"/><path d="M445.06,400.24a.87.87,0,0,0,1-.45.85.85,0,0,0-.38-1.16l-3-1.51a.86.86,0,0,0-1.16.38.88.88,0,0,0,.38,1.16l3,1.51Z" fill="#042e3c"/><path d="M441.22,401.1a.87.87,0,0,0,1-.46.86.86,0,0,0-.38-1.15l-3-1.51a.84.84,0,0,0-1.15.38.86.86,0,0,0,.38,1.15l3,1.52Z" fill="#042e3c"/><path d="M437.14,401.65a.87.87,0,0,0,1-.46.86.86,0,0,0-.38-1.15l-3-1.51a.86.86,0,0,0-.77,1.53l3,1.52Z" fill="#042e3c"/><path d="M580.22,297.15s-22.88-5.22-34.93-17.53c0,0-45.6,7.05-57.26,19.3S460.23,385,460.23,385l18.28,6.65s8.1-23.72,17.26-37c8.06-11.69,14.38-36.28,14.38-36.28Z" fill="#042e3c"/><path d="M479.67,387.37a.52.52,0,0,1-.21,0l-17.73-6.07a.68.68,0,0,1,.44-1.28l17.72,6.07a.68.68,0,0,1,.43.86A.69.69,0,0,1,479.67,387.37Z" fill="#2b7a78"/><polygon points="517.46 392.56 513.85 409.4 497.59 403.87 501.39 388.43 517.46 392.56" fill="#fff"/><path d="M461.36,417l50.95,11.55a7.38,7.38,0,0,0,1.31-2.67c1.29-4.24,1.48-11.43,1.79-15.92,0-.53.07-1,.11-1.45a15.2,15.2,0,0,1,.25-1.81c.8-3.54-2.47-3.64-2.47-3.64-6.3,3.88-10.42-5-14.39-3.31,0,0-1.71.72-6.58,3.44s-12.29,3.57-18.7,4.69c-8.28,1.45-11.14,4.12-12.05,6.2A4.06,4.06,0,0,0,461.36,417Z" fill="#def2f1"/><path d="M461.36,417l50.95,11.55a7.38,7.38,0,0,0,1.31-2.67l-52-11.8A4.06,4.06,0,0,0,461.36,417Z" fill="#042e3c"/><path d="M507.11,427.34l1.51.35a11.48,11.48,0,0,1-.89-8.78,14.73,14.73,0,0,1,7.68-9c0-.53.07-1,.11-1.45a16,16,0,0,0-9,10.09A12.67,12.67,0,0,0,507.11,427.34Z" fill="#042e3c"/><path d="M492.52,406.37a.87.87,0,0,0,1-.46.84.84,0,0,0-.38-1.15l-3-1.51a.86.86,0,1,0-.77,1.53l3,1.51A.7.7,0,0,0,492.52,406.37Z" fill="#042e3c"/><path d="M496.28,404.43a.85.85,0,0,0,1-.45.88.88,0,0,0-.38-1.16l-3-1.51a.86.86,0,0,0-.77,1.54l3,1.51A.8.8,0,0,0,496.28,404.43Z" fill="#042e3c"/><path d="M488.91,407.49a.85.85,0,0,0,1-.45.84.84,0,0,0-.38-1.15l-3-1.52a.86.86,0,0,0-.78,1.54l3,1.51A.49.49,0,0,0,488.91,407.49Z" fill="#042e3c"/><path d="M485.33,408.55a.85.85,0,0,0,1-.45.87.87,0,0,0-.38-1.16l-3-1.51a.86.86,0,0,0-.77,1.54l3,1.51A.8.8,0,0,0,485.33,408.55Z" fill="#042e3c"/><path d="M481.49,409.41a.86.86,0,0,0,.57-1.61l-3-1.51a.86.86,0,0,0-.78,1.54l3,1.51Z" fill="#042e3c"/><path d="M477.4,410a.87.87,0,0,0,1-.45.85.85,0,0,0-.38-1.16l-3-1.51a.86.86,0,0,0-1.16.38.88.88,0,0,0,.38,1.16l3,1.51Z" fill="#042e3c"/><path d="M614.93,297.5s1.76,12.59-8.39,26.56-63,8.5-72,6.17c0,0-3.59,25.21-7.8,42.64a224.54,224.54,0,0,1-9.45,30.07l-19.37-4.85s-1.05-72.7,7.92-91.53S614.93,297.5,614.93,297.5Z" fill="#042e3c"/><path d="M518.05,399.26l-.18,0-19.14-5a.68.68,0,0,1-.49-.82.69.69,0,0,1,.83-.49l19.15,5a.68.68,0,0,1-.17,1.33Z" fill="#2b7a78"/><path d="M498.6,348.34h-.05a.68.68,0,0,1-.63-.72c.11-1.64,2.77-40.17,10.59-46.21,7.6-5.87,45.66-8.15,47.27-8.24a.68.68,0,1,1,.08,1.35c-.39,0-39.25,2.35-46.53,8s-10,44.83-10.06,45.22A.67.67,0,0,1,498.6,348.34Z" fill="#2b7a78"/><path d="M515.69,398a.41.41,0,0,1-.16,0,.67.67,0,0,1-.5-.82c0-.12,3.05-12.52,7.4-29.13s6.79-45.47,6.82-45.76a.68.68,0,0,1,.27-.49.66.66,0,0,1,.54-.12c.38.08,38.24,8,59,4.59,8.53-1.39,14.91-6.54,19-15.3A42.25,42.25,0,0,0,611.64,298a.68.68,0,1,1,1.35.1,42.91,42.91,0,0,1-3.68,13.36c-4.2,9.09-11.12,14.66-20,16.11-19.4,3.17-53.32-3.35-58.78-4.45-.42,4.7-2.82,30.08-6.79,45.23-4.34,16.6-7.36,29-7.39,29.12A.69.69,0,0,1,515.69,398Z" fill="#2b7a78"/><path d="M583.55,128.92s9.08-21.7,24.9-12.63c18.35,10.53-6,47.15,15.34,48.47,0,0-7,7.54-18.76,1.79-6.49-3.17-7.94-13.87-7.94-22.84a14.9,14.9,0,0,0-13.54-14.79Z" fill="#042e3c"/><path d="M602.51,145l.11,0a.61.61,0,0,0,.66-.54c.54-5.3-.64-9.58-3.51-12.74-5.09-5.58-13.57-5.59-13.92-5.59a.61.61,0,1,0,0,1.21c.09,0,8.31,0,13,5.21,2.62,2.88,3.7,6.85,3.2,11.78A.61.61,0,0,0,602.51,145Z" fill="#f0ebe6"/><path d="M563,137.58s10-15.51,29.76-8.8c16.89,5.74,22.09,36.32-3.06,43.23C562.19,179.57,563,137.58,563,137.58Z" fill="#042e3c"/><path d="M575.07,190c8.19,13.94,21.35-.79,21.57-4.25a23.5,23.5,0,0,1-2.37-17.89L574,176.22c.08.58.16,1.17.25,1.75a78.5,78.5,0,0,1,.87,8.39A30,30,0,0,1,575.07,190Z" fill="#fff"/><path d="M575.09,186.36c10.35-2.94,16.53-14.14,16.53-14.14L574.22,178A78.5,78.5,0,0,1,575.09,186.36Z" fill="#def2f1"/><path d="M564,140.88s-9.41,13.36.12,20.06C564.14,160.94,566.86,144.3,564,140.88Z" fill="#042e3c"/><path d="M569.54,161.46s-1.82-4.83-5.75-3.5S560.4,172.6,568,171.78Z" fill="#def2f1"/><path d="M562.74,161.14c0,.44.08.91.15,1.4s.12.81.19,1.24c0,.15.06.32.1.48l.06.29c.12.6.26,1.21.42,1.84q.15.6.33,1.23l0,.11c.05.19.11.38.17.57,2,6.62,5.09,9.57,8.51,11,5.78,2.39,19.33-4.39,21.17-9.8,1.33-3.9,1.4-2.33,1.18-12.61s-4.75-15.68-4.75-15.68c-6.06-6.14-16.14-4.53-22.45.16S562.24,154,562.74,161.14Z" fill="#fff"/><path d="M571,162.33l-9,1.7a1.88,1.88,0,0,1-2.2-1.5l-.76-4a1.89,1.89,0,0,1,1.5-2.2l9-1.71a1.89,1.89,0,0,1,2.2,1.5l.76,4A1.9,1.9,0,0,1,571,162.33Zm-10.24-5a.85.85,0,0,0-.67,1l.76,4a.86.86,0,0,0,1,.67l9-1.71a.84.84,0,0,0,.67-1l-.76-4a.83.83,0,0,0-1-.66Z" fill="#2b7a78"/><path d="M583.44,138.62s2.72,12.59,8.36,14.9c3.63,1.49,5.88-3.64,5.88-3.64S589.23,131.54,583.44,138.62Z" fill="#042e3c"/><path d="M592.41,155.72s2.13-4.26,6.43-2.68,3.28,16.24-5.05,15.1Z" fill="#fff"/><path d="M595.62,165.54a1.33,1.33,0,1,0,1.65-.91A1.33,1.33,0,0,0,595.62,165.54Z" fill="#2b7a78"/><path d="M587.06,148.31s3.05,3.18,2.35,9.19-2.06,10.37,1.69,12.15c0,0-1.88-1.2.07-6.61s3.75-8.55,2.25-11.41S587.06,148.31,587.06,148.31Z" fill="#042e3c"/><path d="M585.54,159.88l-9,1.7a1.88,1.88,0,0,1-2.2-1.5l-.76-4a1.88,1.88,0,0,1,1.5-2.2l9-1.71a1.9,1.9,0,0,1,2.21,1.5l.76,4A1.9,1.9,0,0,1,585.54,159.88Zm-10.24-5a.85.85,0,0,0-.67,1l.76,4a.85.85,0,0,0,1,.67l9-1.71a.83.83,0,0,0,.67-1l-.76-4a.84.84,0,0,0-1-.66Z" fill="#2b7a78"/><path d="M571.83,157.79l-.76-.94a3.41,3.41,0,0,1,3.51-.47l-.56,1.07A2.24,2.24,0,0,0,571.83,157.79Z" fill="#2b7a78"/><path d="M586.69,155.74l-.73-1a10.67,10.67,0,0,1,5.86-1.64l-.77,1.23A6.62,6.62,0,0,0,586.69,155.74Z" fill="#2b7a78"/><path d="M593.3,142.36s-5-15.74-18.87-12.8-18.26,15.8-10.47,18.37,21.79-6,21.79-6Z" fill="#042e3c"/><path d="M640.87,281.33v49.14c0,1.46-1.47,2.64-3.28,2.64H547.43c-1.81,0-3.28-1.18-3.28-2.64V281.33a2.31,2.31,0,0,1,.71-1.64,3.61,3.61,0,0,1,2.57-1h90.16a3.11,3.11,0,0,1,3.26,2.34C640.86,281.13,640.87,281.23,640.87,281.33Z" fill="#2b7a78"/><path d="M640.87,281.33v7.84l-96.72-4.73v-3.11a2.31,2.31,0,0,1,.71-1.64l96,1.34C640.86,281.13,640.87,281.23,640.87,281.33Z" fill="#042e3c"/><path d="M421.1,410.23l-.73,2.54a3.11,3.11,0,0,0,2.23,3.86l87.26,22a3.1,3.1,0,0,0,3.78-2.3l.91-3.86a3.1,3.1,0,0,0-2.31-3.73L424.8,408.06A3.11,3.11,0,0,0,421.1,410.23Z" fill="#2b7a78"/><path d="M644.29,282.73h-106a2.44,2.44,0,1,1,0-4.88h106a2.44,2.44,0,1,1,0,4.88Z" fill="#fff"/><path d="M495.52,452.44a2.45,2.45,0,0,1-2.44-2.44V435.47a2.33,2.33,0,0,1,.08-.59l26-103.56a2.45,2.45,0,0,1,2.37-1.85h129a2.44,2.44,0,0,1,0,4.88H523.41L498,435.77V450A2.44,2.44,0,0,1,495.52,452.44Z" fill="#fff"/><circle cx="495.52" cy="451.49" r="12.74" fill="#fff"/><path d="M501.35,451.49a5.83,5.83,0,1,1-5.83-5.82A5.83,5.83,0,0,1,501.35,451.49Z" fill="#042e3c"/><path d="M663.07,391H608.23l51.21-19.61a.57.57,0,0,0-.4-1.06l-51.58,19.76L646.52,351a.56.56,0,0,0,0-.79.57.57,0,0,0-.8,0l-39.21,39.21,21.07-51.64a.58.58,0,0,0-.31-.74.58.58,0,0,0-.74.31l-20.78,50.94V333.67a.56.56,0,0,0-1.12,0v54.84L585,337.3a.56.56,0,0,0-1,.4l19.76,51.58-39.06-39a.57.57,0,0,0-.8,0,.56.56,0,0,0,0,.79l38.32,38.32-50.37-20.55a.55.55,0,0,0-.73.31.57.57,0,0,0,.3.74L603.24,391H547.31a.57.57,0,0,0-.57.56.58.58,0,0,0,.57.57h54.83l-51.2,19.61a.56.56,0,0,0,.2,1.09.51.51,0,0,0,.2,0L602.92,393l-39.06,39.05a.56.56,0,0,0,.4,1,.55.55,0,0,0,.4-.16l38.69-38.7L582.8,444.56a.56.56,0,0,0,.31.73.54.54,0,0,0,.22,0,.56.56,0,0,0,.52-.35l20.78-50.93v55.38a.56.56,0,1,0,1.12,0V394.6l19.62,51.21a.56.56,0,0,0,.52.36.45.45,0,0,0,.2,0,.57.57,0,0,0,.33-.73l-19.76-51.58,39.06,39.06a.55.55,0,0,0,.4.16.56.56,0,0,0,.4-1L606.93,392.5l51.64,21.06a.54.54,0,0,0,.21.05.57.57,0,0,0,.52-.36.56.56,0,0,0-.31-.73l-50-20.4h54.09a.57.57,0,0,0,.56-.57A.56.56,0,0,0,663.07,391Z" fill="#fff"/><path d="M605.19,455.79A64.24,64.24,0,1,1,650.61,437,63.81,63.81,0,0,1,605.19,455.79Zm0-120.34a56.11,56.11,0,1,0,56.11,56.1A56.17,56.17,0,0,0,605.19,335.45Z" fill="#fff"/><circle cx="605.19" cy="391.55" r="9.05" transform="translate(-99.61 542.62) rotate(-45)" fill="#042e3c"/><path d="M610.19,391.55a5,5,0,1,1-5-5A5,5,0,0,1,610.19,391.55Z" fill="#3aafa9"/><path d="M513,437.69l6.56,1.91a2.29,2.29,0,0,0,.68.1,2.45,2.45,0,0,0,2.37-1.84l26.79-105.34a2.44,2.44,0,1,0-4.73-1.21l-26.17,102.9L514.43,433Z" fill="#fff"/><path d="M605.19,394.56a2.61,2.61,0,0,1-.48-.05,2.44,2.44,0,0,1-1.91-2.87l37.83-188a2.44,2.44,0,0,1,2.39-2H674.2a2.44,2.44,0,0,1,0,4.88H645L607.58,392.6A2.44,2.44,0,0,1,605.19,394.56Z" fill="#fff"/><rect x="658.89" y="199.13" width="27.35" height="9.9" rx="1.32" fill="#13242d"/><path d="M573.07,276.65a11.59,11.59,0,0,0,11.74,11.44h.37c1.83,0,3.62-.09,5.38-.1l5.62,0,.82,0,.92,0,.46,0,.51,0,.51,0a5.24,5.24,0,0,0,.53-.05l1.11-.12c.38,0,.78-.12,1.17-.17l.58-.1.6-.13,1.17-.26c.76-.2,1.56-.41,2.26-.64l1.07-.36,1-.37.49-.18h0l.09,0,.4-.17c.26-.12.55-.26.79-.39a16.83,16.83,0,0,0,2.65-1.7l.54-.44.49-.43c.33-.3.6-.57.89-.86a20.58,20.58,0,0,0,1.39-1.62,22.48,22.48,0,0,0,1.87-2.84c.49-.86.88-1.67,1.22-2.43.25-.56.47-1.11.68-1.63.34-.89.63-1.74.89-2.55a67.69,67.69,0,0,0,1.81-7.24c.45-2.28.79-4.49,1.08-6.66s.53-4.32.73-6.44c.41-4.24.66-8.41.84-12.56q.13-3.1.21-6.2t.1-6.17c0-4.11,0-8.2-.09-12.29s-.25-8.18-.49-12.33a13.2,13.2,0,0,0-26.36,1.23v0c.14,3.81.22,7.69.28,11.56s.08,7.76.06,11.62c0,1.93,0,3.86-.07,5.78s-.08,3.84-.14,5.75-.15,3.81-.25,5.69-.21,3.76-.36,5.61c-.28,3.69-.69,7.32-1.24,10.6a42.42,42.42,0,0,1-1,4.39v0h0l-.23.05-.23,0-.28,0-.58.09-.66.08-3,.39-1.63.23-1.65.26c-2.2.38-4.37.84-6.48,1.4A11.61,11.61,0,0,0,573.07,276.65ZM598.74,262l0,0,.46-.22.18-.08-.2.09-.39.19Z" fill="#def2f1"/><path d="M599.77,261.86a.57.57,0,0,1-.18,0,.54.54,0,0,1-.34-.69c4.34-12.42,2.52-43.83,2.5-44.14a.54.54,0,1,1,1.08-.07c.08,1.3,1.86,31.94-2.55,44.57A.55.55,0,0,1,599.77,261.86Z" fill="#3aafa9"/><path d="M610.29,265.24a.6.6,0,0,1-.22,0c-.06,0-6.44-2.85-11.76-2.95a.56.56,0,0,1-.54-.56.55.55,0,0,1,.55-.53h0c5.54.11,11.92,2.93,12.19,3a.54.54,0,0,1,.27.71A.55.55,0,0,1,610.29,265.24Z" fill="#3aafa9"/><path d="M601.78,262.62a.53.53,0,0,1-.37-.15.54.54,0,0,1,0-.76A15.66,15.66,0,0,1,606,259a.54.54,0,0,1,.7.3.55.55,0,0,1-.31.71,15.15,15.15,0,0,0-4.22,2.43A.55.55,0,0,1,601.78,262.62Z" fill="#3aafa9"/><path d="M590.37,269.14a10.86,10.86,0,0,0-12.25-1.2c-3.77,2.05-9.21,5.32-13,9-5.93,5.73-8.89,15.06-6.83,16.38s3.64-8.07,7.32-9.9c0,0-7.53,11-5.91,13.4,1.74,2.59,4.93-7.92,8.71-10.4,0,0-6.64,10.77-5.07,11.68,2.41,1.4,3.95-5.52,7.88-7.7,0,0-5.12,7-3.53,8.58s7.13-9.38,12.23-10.69,9.56-1.73,12-5.84C593.74,279.42,595.09,273.24,590.37,269.14Z" fill="#fff"/><path d="M581,267.14s-13,3.15-14.59,7.24a20.82,20.82,0,0,0-1.66,5.95Z" fill="#fff"/><path d="M425.22,207.47c-6,.55-7.59-2.61-9.39-6.26-1.73-3.49-3.69-7.45-9.84-8.94l-.37-.08a5.29,5.29,0,0,0-5,8.86c2.86,2.9,5.34,7.65,7.17,13.75a12.5,12.5,0,0,0,7.86,8.47c5,1.85,11.55.92,15.74-1.13a14.15,14.15,0,0,0,1.45-.83,7.6,7.6,0,0,0,3.15-8.73C434.75,208.88,430.71,207,425.22,207.47Zm10.18,5.33a6.94,6.94,0,0,1-2.88,8c-3.85,2.5-11.12,3.89-16.6,1.89a11.72,11.72,0,0,1-7.45-8.05,49.37,49.37,0,0,0-2.84-7.4,25.12,25.12,0,0,0-4.49-6.62,4.53,4.53,0,0,1-.75-5.49,4.62,4.62,0,0,1,2-1.92,4.67,4.67,0,0,1,3.08-.34l.37.09c5.84,1.41,7.64,5.06,9.39,8.58,1.84,3.72,3.57,7.23,10.06,6.64C430.45,207.67,434.23,209.41,435.4,212.8Z" fill="#042e3c"/></g></svg>