<svg xmlns="http://www.w3.org/2000/svg" xmlns:xlink="http://www.w3.org/1999/xlink" viewBox="0 0 1020 500"><defs><clipPath id="clip-path"><rect x="-0.53" width="1019.15" height="499.83" fill="none"/></clipPath></defs><title>ENABLE UPDATED</title><g style="isolation:isolate"><g id="OBJECTS"><g clip-path="url(#clip-path)"><rect width="1020" height="500" fill="#def2f1"/><path d="M903.33,163.26,322.93,33.77l30.25,68.16L564.08,149l-6.8,10.11a2.2,2.2,0,0,0,1.68,2.64l81.5,18.19,2.95-13.24L847,212.1Z" fill="#3aafa9" opacity="0.5"/><path d="M344.53-90.91,1029.32,61.87a9.61,9.61,0,0,1,5,15.89L918.21,203.54a9.63,9.63,0,0,1-9.15,2.86L392,91a9.6,9.6,0,0,1-7.06-6.48L333.29-78.64A9.6,9.6,0,0,1,344.53-90.91Z" fill="#17252a"/><path d="M717.51,197.12,569.29,164.05c-3-.66-4.8-3.18-3.9-5.35l20.72-50.23,139.8,31.19-2.59,54.28C723.21,196.28,720.47,197.78,717.51,197.12Z" fill="#2b7a78"/><path d="M340.55-87.2l690.8,154.13a6.82,6.82,0,0,1,3.53,11.29L915.07,208.05a6.84,6.84,0,0,1-6.5,2L390.84,94.57a6.84,6.84,0,0,1-5-4.6L332.56-78.48A6.83,6.83,0,0,1,340.55-87.2Z" fill="#2b7a78"/><polygon points="407.43 84.42 355.83 -69.93 1010.18 76.06 897.87 193.84 407.43 84.42" fill="#def2f1"/><path d="M492-39.54,383.57,13.05l-27.74-83ZM592-17.25,543.3-28.11,394,44.28l9.91,29.64ZM996.51,90.39l13.67-14.33L936.46,59.61,734.71,157.43l84.6,18.88ZM482.75,101.22l193.61,43.2L878.12,46.59,684.5,3.4Z" fill="#fff" opacity="0.5"/><path d="M813.31,391.28,394.05,297.74a6.09,6.09,0,0,1-4.76-6.79l21.5-126.67a5.38,5.38,0,0,1,6.64-4.25l419.26,93.54a6.09,6.09,0,0,1,4.76,6.8L820,387A5.38,5.38,0,0,1,813.31,391.28Z" fill="#3aafa9" opacity="0.5"/><rect x="549.73" y="53.5" width="145.59" height="441.25" rx="5.84" transform="translate(219.42 822.03) rotate(-77.42)" fill="#2b7a78"/><rect x="702.86" y="223.97" width="10.47" height="19.55" rx="1.2" transform="translate(325.76 873.94) rotate(-77.42)" fill="#17252a" opacity="0.5"/><rect x="730.55" y="266.64" width="17.85" height="31.22" rx="1.2" transform="translate(302.98 942.52) rotate(-77.42)" fill="#17252a" opacity="0.5"/><rect x="674.07" y="237.23" width="17.85" height="19.55" rx="1.2" transform="translate(293.19 859.83) rotate(-77.42)" fill="#17252a" opacity="0.5"/><rect x="725.81" y="229.09" width="10.47" height="19.55" rx="1.2" transform="translate(338.72 900.36) rotate(-77.42)" fill="#17252a" opacity="0.5"/><rect x="696.69" y="242.28" width="17.85" height="19.55" rx="1.2" transform="translate(305.97 885.86) rotate(-77.42)" fill="#17252a" opacity="0.5"/><rect x="730.17" y="238.62" width="17.85" height="41.8" rx="1.2" transform="translate(324.86 924.37) rotate(-77.42)" fill="#17252a" opacity="0.5"/><rect x="702.24" y="266.16" width="17.85" height="19.55" rx="1.2" transform="translate(286.99 909.94) rotate(-77.42)" fill="#17252a" opacity="0.5"/><rect x="634.95" y="273.78" width="17.85" height="19.55" rx="1.2" transform="translate(226.91 850.24) rotate(-77.42)" fill="#17252a" opacity="0.5"/><rect x="535.27" y="186.58" width="10.47" height="19.55" rx="1.2" transform="translate(231.16 681.13) rotate(-77.42)" fill="#17252a" opacity="0.5"/><rect x="657" y="256.06" width="17.85" height="19.55" rx="1.2" transform="translate(261.46 857.89) rotate(-77.42)" fill="#17252a" opacity="0.5"/><rect x="657.57" y="278.83" width="17.85" height="19.55" rx="1.2" transform="translate(239.68 876.26) rotate(-77.42)" fill="#17252a" opacity="0.5"/><rect x="679.62" y="261.11" width="17.85" height="19.55" rx="1.2" transform="translate(274.23 883.92) rotate(-77.42)" fill="#17252a" opacity="0.5"/><rect x="634.38" y="251.02" width="17.85" height="19.55" rx="1.2" transform="translate(248.69 831.87) rotate(-77.42)" fill="#17252a" opacity="0.5"/><rect x="588.09" y="198.37" width="10.47" height="19.55" rx="1.2" transform="translate(260.98 741.9) rotate(-77.42)" fill="#17252a" opacity="0.5"/><rect x="583.59" y="217.04" width="17.85" height="19.55" rx="1.2" transform="translate(242.11 755.73) rotate(-77.42)" fill="#17252a" opacity="0.5"/><rect x="611.04" y="203.49" width="10.47" height="19.55" rx="1.2" transform="translate(273.93 768.31) rotate(-77.42)" fill="#17252a" opacity="0.5"/><rect x="560.97" y="212" width="17.85" height="19.55" rx="1.2" transform="translate(229.35 729.7) rotate(-77.42)" fill="#17252a" opacity="0.5"/><rect x="565.14" y="193.25" width="10.47" height="19.55" rx="1.2" transform="translate(248.02 715.5) rotate(-77.42)" fill="#17252a" opacity="0.5"/><rect x="538.35" y="206.95" width="17.85" height="19.55" rx="1.2" transform="translate(216.58 703.67) rotate(-77.42)" fill="#17252a" opacity="0.5"/><rect x="656.95" y="213.73" width="10.47" height="19.55" rx="1.2" transform="translate(299.85 821.13) rotate(-77.42)" fill="#17252a" opacity="0.5"/><rect x="679.9" y="218.85" width="10.47" height="19.55" rx="1.2" transform="translate(312.81 847.54) rotate(-77.42)" fill="#17252a" opacity="0.5"/><rect x="651.45" y="232.18" width="17.85" height="19.55" rx="1.2" transform="translate(280.43 833.81) rotate(-77.42)" fill="#17252a" opacity="0.5"/><rect x="634" y="208.61" width="10.47" height="19.55" rx="1.2" transform="translate(286.89 794.72) rotate(-77.42)" fill="#17252a" opacity="0.5"/><rect x="628.83" y="227.14" width="17.85" height="19.55" rx="1.2" transform="translate(267.65 807.78) rotate(-77.42)" fill="#17252a" opacity="0.5"/><rect x="606.21" y="222.09" width="17.85" height="19.55" rx="1.2" transform="translate(254.89 781.76) rotate(-77.42)" fill="#17252a" opacity="0.5"/><rect x="612.33" y="268.74" width="17.85" height="19.55" rx="1.2" transform="translate(214.14 824.21) rotate(-77.42)" fill="#17252a" opacity="0.5"/><rect x="476.61" y="238.46" width="17.85" height="19.55" rx="1.2" transform="translate(137.53 668.06) rotate(-77.42)" fill="#17252a" opacity="0.5"/><rect x="493.11" y="196.86" width="17.85" height="19.55" rx="1.2" transform="translate(191.04 651.62) rotate(-77.42)" fill="#17252a" opacity="0.5"/><rect x="476.03" y="215.69" width="17.85" height="19.55" rx="1.2" transform="translate(159.3 649.69) rotate(-77.42)" fill="#17252a" opacity="0.5"/><rect x="453.99" y="233.41" width="17.85" height="19.55" rx="1.2" transform="matrix(0.22, -0.98, 0.98, 0.22, 124.76, 642.04)" fill="#17252a" opacity="0.5"/><rect x="498.65" y="220.73" width="17.85" height="19.55" rx="1.2" transform="translate(172.08 675.72) rotate(-77.42)" fill="#17252a" opacity="0.5"/><rect x="499.23" y="243.5" width="17.85" height="19.55" rx="1.2" transform="translate(150.3 694.09) rotate(-77.42)" fill="#17252a" opacity="0.5"/><rect x="515.73" y="201.9" width="17.85" height="19.55" rx="1.2" transform="translate(203.81 677.65) rotate(-77.42)" fill="#17252a" opacity="0.5"/><rect x="748.76" y="234.21" width="10.47" height="19.55" rx="1.2" transform="translate(351.68 926.76) rotate(-77.42)" fill="#17252a" opacity="0.5"/><rect x="680.19" y="283.88" width="17.85" height="19.55" rx="1.2" transform="translate(252.45 902.29) rotate(-77.42)" fill="#17252a" opacity="0.5"/><rect x="691.87" y="299.02" width="17.85" height="39.76" rx="1.2" transform="translate(236.95 933.44) rotate(-77.42)" fill="#17252a" opacity="0.5"/><rect x="470.49" y="191.81" width="17.85" height="19.55" rx="1.2" transform="translate(178.27 625.6) rotate(-77.42)" fill="#17252a" opacity="0.5"/><rect x="453.41" y="210.64" width="17.85" height="19.55" rx="1.2" transform="translate(146.54 623.67) rotate(-77.42)" fill="#17252a" opacity="0.5"/><rect x="523.66" y="271.6" width="17.85" height="19.55" rx="1.2" transform="translate(142 739.91) rotate(-77.42)" fill="#17252a" opacity="0.5"/><rect x="567.09" y="258.64" width="17.85" height="19.55" rx="1.2" transform="translate(188.61 772.16) rotate(-77.42)" fill="#17252a" opacity="0.5"/><rect x="589.14" y="240.92" width="17.85" height="19.55" rx="1.2" transform="translate(223.15 779.82) rotate(-77.42)" fill="#17252a" opacity="0.5"/><rect x="521.27" y="225.78" width="17.85" height="19.55" rx="1.2" transform="translate(184.84 701.74) rotate(-77.42)" fill="#17252a" opacity="0.5"/><rect x="546.28" y="276.64" width="17.85" height="19.55" rx="1.2" transform="translate(154.77 765.94) rotate(-77.42)" fill="#17252a" opacity="0.5"/><rect x="568.9" y="281.69" width="17.85" height="19.55" rx="1.2" transform="translate(167.53 791.96) rotate(-77.42)" fill="#17252a" opacity="0.5"/><rect x="589.71" y="263.69" width="17.85" height="19.55" rx="1.2" transform="translate(201.37 798.19) rotate(-77.42)" fill="#17252a" opacity="0.5"/><rect x="543.89" y="230.83" width="17.85" height="19.55" rx="1.2" transform="translate(197.61 727.77) rotate(-77.42)" fill="#17252a" opacity="0.5"/><rect x="521.85" y="248.55" width="17.85" height="19.55" rx="1.2" transform="translate(163.07 720.11) rotate(-77.42)" fill="#17252a" opacity="0.5"/><rect x="566.52" y="235.88" width="17.85" height="19.55" rx="1.2" transform="translate(210.38 753.79) rotate(-77.42)" fill="#17252a" opacity="0.5"/><rect x="611.76" y="245.97" width="17.85" height="19.55" rx="1.2" transform="translate(235.92 805.84) rotate(-77.42)" fill="#17252a" opacity="0.5"/><rect x="544.47" y="253.6" width="17.85" height="19.55" rx="1.2" transform="translate(175.84 746.13) rotate(-77.42)" fill="#17252a" opacity="0.5"/><rect x="784.67" y="332.3" width="17.59" height="15.09" rx="1.2" transform="translate(289 1040.27) rotate(-77.42)" fill="#17252a" opacity="0.5"/><rect x="762" y="258.92" width="17.59" height="15.09" rx="1.2" transform="translate(342.88 960.73) rotate(-77.42)" fill="#17252a" opacity="0.5"/><rect x="769.54" y="241.08" width="10.47" height="15.09" rx="1.2" transform="translate(363.41 950.67) rotate(-77.42)" fill="#17252a" opacity="0.5"/><rect x="757.16" y="280.61" width="17.59" height="15.09" rx="1.2" transform="translate(317.92 972.98) rotate(-77.42)" fill="#17252a" opacity="0.5"/><rect x="761.23" y="349.84" width="17.59" height="15.09" rx="1.2" transform="translate(253.55 1031.12) rotate(-77.42)" fill="#17252a" opacity="0.5"/><rect x="512.32" y="181.46" width="10.47" height="19.55" rx="1.2" transform="translate(218.21 654.73) rotate(-77.42)" fill="#17252a" opacity="0.5"/><rect x="752.32" y="302.3" width="17.59" height="15.09" rx="1.2" transform="translate(292.96 985.23) rotate(-77.42)" fill="#17252a" opacity="0.5"/><rect x="747.48" y="324" width="17.59" height="15.09" rx="1.2" transform="translate(268 997.47) rotate(-77.42)" fill="#17252a" opacity="0.5"/><rect x="723.59" y="320.65" width="17.59" height="15.09" rx="1.2" transform="translate(252.58 971.54) rotate(-77.42)" fill="#17252a" opacity="0.5"/><rect x="770.91" y="306.45" width="17.59" height="15.09" rx="1.2" transform="translate(303.46 1006.62) rotate(-77.42)" fill="#17252a" opacity="0.5"/><rect x="718.84" y="341.92" width="17.59" height="15.09" rx="1.2" transform="translate(228.12 983.54) rotate(-77.42)" fill="#17252a" opacity="0.5"/><rect x="737.11" y="345.99" width="17.59" height="15.09" rx="1.2" transform="translate(238.42 1004.56) rotate(-77.42)" fill="#17252a" opacity="0.5"/><rect x="716.98" y="277.57" width="17.85" height="48.59" rx="1.2" transform="translate(273.22 944.62) rotate(-77.42)" fill="#17252a" opacity="0.5"/><rect x="700.6" y="337.85" width="17.59" height="15.09" rx="1.2" transform="translate(217.82 962.56) rotate(-77.42)" fill="#17252a" opacity="0.5"/><rect x="789.79" y="347.25" width="39.74" height="15.09" rx="1.2" transform="translate(287.07 1067.76) rotate(-77.42)" fill="#17252a" opacity="0.5"/><rect x="775.75" y="284.76" width="17.59" height="15.09" rx="1.2" transform="translate(328.42 994.38) rotate(-77.42)" fill="#17252a" opacity="0.5"/><rect x="799.42" y="303.91" width="39.82" height="15.09" rx="1.2" transform="translate(336.94 1043.29) rotate(-77.42)" fill="#17252a" opacity="0.5"/><rect x="825.33" y="253.53" width="10.47" height="15.09" rx="1.2" transform="translate(394.9 1014.86) rotate(-77.42)" fill="#17252a" opacity="0.5"/><rect x="817.79" y="271.37" width="17.59" height="15.09" rx="1.2" transform="translate(374.37 1024.93) rotate(-77.42)" fill="#17252a" opacity="0.5"/><rect x="799.19" y="267.22" width="17.59" height="15.09" rx="1.2" transform="translate(363.88 1003.53) rotate(-77.42)" fill="#17252a" opacity="0.5"/><rect x="806.73" y="249.38" width="10.47" height="15.09" rx="1.2" transform="translate(384.4 993.46) rotate(-77.42)" fill="#17252a" opacity="0.5"/><rect x="794.35" y="288.91" width="17.59" height="15.09" rx="1.2" transform="translate(338.92 1015.78) rotate(-77.42)" fill="#17252a" opacity="0.5"/><rect x="788.14" y="245.23" width="10.47" height="15.09" rx="1.2" transform="translate(373.9 972.06) rotate(-77.42)" fill="#17252a" opacity="0.5"/><rect x="780.59" y="263.07" width="17.59" height="15.09" rx="1.2" transform="translate(353.38 982.13) rotate(-77.42)" fill="#17252a" opacity="0.5"/><rect x="789.51" y="310.6" width="17.59" height="15.09" rx="1.2" transform="translate(313.96 1028.02) rotate(-77.42)" fill="#17252a" opacity="0.5"/><rect x="779.83" y="353.99" width="17.59" height="15.09" rx="1.2" transform="translate(264.04 1052.51) rotate(-77.42)" fill="#17252a" opacity="0.5"/><rect x="766.07" y="328.15" width="17.59" height="15.09" rx="1.2" transform="translate(278.5 1018.87) rotate(-77.42)" fill="#17252a" opacity="0.5"/><rect x="422" y="237.45" width="17.85" height="42.47" rx="1.2" transform="translate(84.61 622.94) rotate(-77.42)" fill="#17252a" opacity="0.5"/><rect x="407.78" y="266.56" width="17.85" height="23.2" rx="1.2" transform="translate(54.49 624.3) rotate(-77.42)" fill="#17252a" opacity="0.5"/><rect x="423.5" y="218.54" width="17.85" height="35.68" rx="1.2" transform="translate(107.55 606.95) rotate(-77.42)" fill="#17252a" opacity="0.5"/><rect x="431.91" y="273.77" width="17.85" height="19.55" rx="1.2" transform="translate(68.11 652.06) rotate(-77.42)" fill="#17252a" opacity="0.5"/><rect x="455.8" y="256.46" width="17.85" height="19.55" rx="1.2" transform="translate(103.69 661.84) rotate(-77.42)" fill="#17252a" opacity="0.5"/><rect x="425.61" y="199.13" width="17.85" height="30.16" rx="1.2" transform="translate(130.84 591.68) rotate(-77.42)" fill="#17252a" opacity="0.5"/><rect x="447.87" y="186.76" width="17.85" height="19.55" rx="1.2" transform="translate(165.5 599.58) rotate(-77.42)" fill="#17252a" opacity="0.5"/><rect x="466.41" y="171.22" width="10.47" height="19.55" rx="1.2" transform="translate(192.29 601.91) rotate(-77.42)" fill="#17252a" opacity="0.5"/><rect x="489.36" y="176.34" width="10.47" height="19.55" rx="1.2" transform="translate(205.25 628.32) rotate(-77.42)" fill="#17252a" opacity="0.5"/><rect x="432.95" y="163.75" width="10.47" height="19.55" rx="1.2" transform="translate(173.4 563.41) rotate(-77.42)" fill="#17252a" opacity="0.5"/><rect x="454.53" y="278.81" width="17.85" height="19.55" rx="1.2" transform="translate(80.88 678.08) rotate(-77.42)" fill="#17252a" opacity="0.5"/><rect x="425.25" y="181.72" width="17.85" height="19.55" rx="1.2" transform="translate(152.73 573.55) rotate(-77.42)" fill="#17252a" opacity="0.5"/><rect x="636.77" y="296.83" width="17.85" height="19.55" rx="1.2" transform="translate(205.84 870.04) rotate(-77.42)" fill="#17252a" opacity="0.5"/><rect x="614.15" y="291.78" width="17.85" height="19.55" rx="1.2" transform="translate(193.07 844.01) rotate(-77.42)" fill="#17252a" opacity="0.5"/><rect x="667.65" y="316.59" width="17.85" height="39.1" rx="1.2" transform="translate(201.18 923.29) rotate(-77.42)" fill="#17252a" opacity="0.5"/><rect x="612.87" y="314.14" width="17.85" height="19.55" rx="1.2" transform="translate(170.26 860.26) rotate(-77.42)" fill="#17252a" opacity="0.5"/><rect x="659.39" y="301.88" width="17.85" height="19.55" rx="1.2" transform="translate(218.61 896.06) rotate(-77.42)" fill="#17252a" opacity="0.5"/><rect x="635.49" y="319.19" width="17.85" height="19.55" rx="1.2" transform="translate(183.03 886.28) rotate(-77.42)" fill="#17252a" opacity="0.5"/><rect x="590.25" y="309.09" width="17.85" height="19.55" rx="1.2" transform="translate(157.49 834.23) rotate(-77.42)" fill="#17252a" opacity="0.5"/><rect x="478.42" y="261.5" width="17.85" height="19.55" rx="1.2" transform="translate(116.46 687.86) rotate(-77.42)" fill="#17252a" opacity="0.5"/><rect x="477.15" y="283.86" width="17.85" height="19.55" rx="1.2" transform="translate(93.64 704.1) rotate(-77.42)" fill="#17252a" opacity="0.5"/><rect x="501.04" y="266.55" width="17.85" height="19.55" rx="1.2" transform="translate(129.23 713.89) rotate(-77.42)" fill="#17252a" opacity="0.5"/><path d="M586.87,307l-84.6-18.88a1.19,1.19,0,0,0-1.43.91l-3.27,15.29a1.19,1.19,0,0,0,.91,1.42L583,324.4a1.2,1.2,0,0,0,1.44-.91l3.36-15.08A1.19,1.19,0,0,0,586.87,307Z" fill="#17252a" opacity="0.5"/><rect x="591.53" y="286.74" width="17.85" height="19.55" rx="1.2" transform="translate(180.3 817.99) rotate(-77.42)" fill="#17252a" opacity="0.5"/><rect x="704.32" y="226.28" width="10.47" height="19.55" rx="1.2" transform="translate(324.66 877.18) rotate(-77.42)" fill="#3aafa9"/><rect x="732.02" y="268.94" width="17.85" height="31.22" rx="1.2" transform="translate(301.88 945.76) rotate(-77.42)" fill="#3aafa9"/><rect x="675.54" y="239.54" width="17.85" height="19.55" rx="1.2" transform="translate(292.09 863.06) rotate(-77.42)" fill="#3aafa9"/><rect x="727.27" y="231.4" width="10.47" height="19.55" rx="1.2" transform="translate(337.62 903.59) rotate(-77.42)" fill="#3aafa9"/><rect x="698.16" y="244.58" width="17.85" height="19.55" rx="1.2" transform="translate(304.85 889.08) rotate(-77.42)" fill="#3aafa9"/><rect x="731.64" y="240.93" width="17.85" height="41.8" rx="1.2" transform="translate(323.75 927.6) rotate(-77.42)" fill="#3aafa9"/><rect x="703.7" y="268.46" width="17.85" height="19.55" rx="1.2" transform="translate(285.89 913.18) rotate(-77.42)" fill="#3aafa9"/><rect x="636.41" y="276.09" width="17.85" height="19.55" rx="1.2" transform="translate(225.81 853.47) rotate(-77.42)" fill="#3aafa9"/><rect x="536.73" y="188.89" width="10.47" height="19.55" rx="1.2" transform="translate(230.06 684.37) rotate(-77.42)" fill="#3aafa9"/><rect x="658.46" y="258.37" width="17.85" height="19.55" rx="1.2" transform="translate(260.35 861.12) rotate(-77.42)" fill="#3aafa9"/><rect x="659.03" y="281.14" width="17.85" height="19.55" rx="1.2" transform="translate(238.58 879.5) rotate(-77.42)" fill="#3aafa9"/><rect x="681.08" y="263.41" width="17.85" height="19.55" rx="1.2" transform="translate(273.12 887.15) rotate(-77.42)" fill="#3aafa9"/><rect x="635.84" y="253.32" width="17.85" height="19.55" rx="1.2" transform="translate(247.58 835.1) rotate(-77.42)" fill="#3aafa9"/><rect x="589.55" y="200.67" width="10.47" height="19.55" rx="1.2" transform="translate(259.88 745.14) rotate(-77.42)" fill="#3aafa9"/><rect x="585.05" y="219.35" width="17.85" height="19.55" rx="1.2" transform="translate(241.01 758.96) rotate(-77.42)" fill="#3aafa9"/><rect x="612.51" y="205.79" width="10.47" height="19.55" rx="1.2" transform="translate(272.83 771.54) rotate(-77.42)" fill="#3aafa9"/><rect x="562.43" y="214.3" width="17.85" height="19.55" rx="1.2" transform="translate(228.24 732.93) rotate(-77.42)" fill="#3aafa9"/><rect x="566.6" y="195.55" width="10.47" height="19.55" rx="1.2" transform="translate(246.92 718.73) rotate(-77.42)" fill="#3aafa9"/><rect x="539.81" y="209.25" width="17.85" height="19.55" rx="1.2" transform="translate(215.47 706.91) rotate(-77.42)" fill="#3aafa9"/><rect x="658.41" y="216.03" width="10.47" height="19.55" rx="1.2" transform="translate(298.74 824.36) rotate(-77.42)" fill="#3aafa9"/><rect x="681.37" y="221.15" width="10.47" height="19.55" rx="1.2" transform="translate(311.7 850.77) rotate(-77.42)" fill="#3aafa9"/><rect x="652.92" y="234.49" width="17.85" height="19.55" rx="1.2" transform="translate(279.32 837.03) rotate(-77.42)" fill="#3aafa9"/><rect x="635.46" y="210.91" width="10.47" height="19.55" rx="1.2" transform="translate(285.79 797.95) rotate(-77.42)" fill="#3aafa9"/><rect x="630.3" y="229.44" width="17.85" height="19.55" rx="1.2" transform="translate(266.55 811.01) rotate(-77.42)" fill="#3aafa9"/><rect x="607.67" y="224.4" width="17.85" height="19.55" rx="1.2" transform="translate(253.79 784.99) rotate(-77.42)" fill="#3aafa9"/><rect x="613.79" y="271.04" width="17.85" height="19.55" rx="1.2" transform="translate(213.04 827.45) rotate(-77.42)" fill="#3aafa9"/><rect x="478.07" y="240.76" width="17.85" height="19.55" rx="1.2" transform="translate(136.43 671.29) rotate(-77.42)" fill="#3aafa9"/><rect x="494.57" y="199.16" width="17.85" height="19.55" rx="1.2" transform="translate(189.94 654.86) rotate(-77.42)" fill="#3aafa9"/><rect x="477.5" y="217.99" width="17.85" height="19.55" rx="1.2" transform="translate(158.2 652.92) rotate(-77.42)" fill="#3aafa9"/><rect x="455.45" y="235.71" width="17.85" height="19.55" rx="1.2" transform="translate(123.66 645.27) rotate(-77.42)" fill="#3aafa9"/><rect x="500.12" y="223.04" width="17.85" height="19.55" rx="1.2" transform="translate(170.97 678.95) rotate(-77.42)" fill="#3aafa9"/><rect x="500.69" y="245.81" width="17.85" height="19.55" rx="1.2" transform="translate(149.2 697.32) rotate(-77.42)" fill="#3aafa9"/><rect x="517.19" y="204.21" width="17.85" height="19.55" rx="1.2" transform="translate(202.7 680.88) rotate(-77.42)" fill="#3aafa9"/><rect x="750.23" y="236.52" width="10.47" height="19.55" rx="1.2" transform="translate(350.57 930) rotate(-77.42)" fill="#3aafa9"/><rect x="681.65" y="286.18" width="17.85" height="19.55" rx="1.2" transform="translate(251.35 905.52) rotate(-77.42)" fill="#3aafa9"/><rect x="693.33" y="301.32" width="17.85" height="39.76" rx="1.2" transform="translate(235.84 936.67) rotate(-77.42)" fill="#3aafa9"/><rect x="471.95" y="194.11" width="17.85" height="19.55" rx="1.2" transform="translate(177.17 628.83) rotate(-77.42)" fill="#3aafa9"/><rect x="454.88" y="212.95" width="17.85" height="19.55" rx="1.2" transform="translate(145.43 626.9) rotate(-77.42)" fill="#3aafa9"/><rect x="525.13" y="273.9" width="17.85" height="19.55" rx="1.2" transform="translate(140.89 743.14) rotate(-77.42)" fill="#3aafa9"/><rect x="568.55" y="260.95" width="17.85" height="19.55" rx="1.2" transform="translate(187.51 775.4) rotate(-77.42)" fill="#3aafa9"/><rect x="590.6" y="243.23" width="17.85" height="19.55" rx="1.2" transform="translate(222.04 783.05) rotate(-77.42)" fill="#3aafa9"/><rect x="522.74" y="228.09" width="17.85" height="19.55" rx="1.2" transform="translate(183.74 704.97) rotate(-77.42)" fill="#3aafa9"/><rect x="547.75" y="278.95" width="17.85" height="19.55" rx="1.2" transform="translate(153.66 769.17) rotate(-77.42)" fill="#3aafa9"/><rect x="570.37" y="283.99" width="17.85" height="19.55" rx="1.2" transform="translate(166.43 795.2) rotate(-77.42)" fill="#3aafa9"/><rect x="591.17" y="265.99" width="17.85" height="19.55" rx="1.2" transform="translate(200.27 801.42) rotate(-77.42)" fill="#3aafa9"/><rect x="545.36" y="233.13" width="17.85" height="19.55" rx="1.2" transform="translate(196.51 731) rotate(-77.42)" fill="#3aafa9"/><rect x="523.31" y="250.85" width="17.85" height="19.55" rx="1.2" transform="translate(161.97 723.34) rotate(-77.42)" fill="#3aafa9"/><rect x="567.98" y="238.18" width="17.85" height="19.55" rx="1.2" transform="translate(209.28 757.02) rotate(-77.42)" fill="#3aafa9"/><rect x="613.22" y="248.27" width="17.85" height="19.55" rx="1.2" transform="translate(234.81 809.07) rotate(-77.42)" fill="#3aafa9"/><rect x="545.93" y="255.9" width="17.85" height="19.55" rx="1.2" transform="translate(174.73 749.37) rotate(-77.42)" fill="#3aafa9"/><rect x="786.14" y="334.6" width="17.59" height="15.09" rx="1.2" transform="translate(287.91 1043.51) rotate(-77.42)" fill="#3aafa9"/><rect x="763.46" y="261.22" width="17.59" height="15.09" rx="1.2" transform="translate(341.78 963.97) rotate(-77.42)" fill="#3aafa9"/><rect x="771" y="243.38" width="10.47" height="15.09" rx="1.2" transform="translate(362.3 953.9) rotate(-77.42)" fill="#3aafa9"/><rect x="758.62" y="282.92" width="17.59" height="15.09" rx="1.2" transform="translate(316.82 976.21) rotate(-77.42)" fill="#3aafa9"/><rect x="762.7" y="352.14" width="17.59" height="15.09" rx="1.2" transform="translate(252.44 1034.35) rotate(-77.42)" fill="#3aafa9"/><rect x="513.78" y="183.76" width="10.47" height="19.55" rx="1.2" transform="translate(217.1 657.96) rotate(-77.42)" fill="#3aafa9"/><rect x="753.78" y="304.61" width="17.59" height="15.09" rx="1.2" transform="translate(291.87 988.47) rotate(-77.42)" fill="#3aafa9"/><rect x="748.94" y="326.3" width="17.59" height="15.09" rx="1.2" transform="translate(266.9 1000.7) rotate(-77.42)" fill="#3aafa9"/><rect x="725.05" y="322.96" width="17.59" height="15.09" rx="1.2" transform="translate(251.48 974.77) rotate(-77.42)" fill="#3aafa9"/><rect x="772.38" y="308.76" width="17.59" height="15.09" rx="1.2" transform="translate(302.36 1009.85) rotate(-77.42)" fill="#3aafa9"/><rect x="720.3" y="344.22" width="17.59" height="15.09" rx="1.2" transform="translate(227.01 986.77) rotate(-77.42)" fill="#3aafa9"/><rect x="738.57" y="348.3" width="17.59" height="15.09" rx="1.2" transform="translate(237.33 1007.79) rotate(-77.42)" fill="#3aafa9"/><rect x="718.45" y="279.87" width="17.85" height="48.59" rx="1.2" transform="translate(272.11 947.85) rotate(-77.42)" fill="#3aafa9"/><rect x="702.06" y="340.15" width="17.59" height="15.09" rx="1.2" transform="translate(216.71 965.79) rotate(-77.42)" fill="#3aafa9"/><rect x="791.25" y="349.56" width="39.74" height="15.09" rx="1.2" transform="translate(285.96 1070.99) rotate(-77.42)" fill="#3aafa9"/><rect x="777.22" y="287.06" width="17.59" height="15.09" rx="1.2" transform="translate(327.31 997.61) rotate(-77.42)" fill="#3aafa9"/><rect x="800.88" y="306.21" width="39.82" height="15.09" rx="1.2" transform="translate(335.83 1046.53) rotate(-77.42)" fill="#3aafa9"/><rect x="826.79" y="255.83" width="10.47" height="15.09" rx="1.2" transform="translate(393.8 1018.09) rotate(-77.42)" fill="#3aafa9"/><rect x="819.25" y="273.67" width="17.59" height="15.09" rx="1.2" transform="translate(373.27 1028.16) rotate(-77.42)" fill="#3aafa9"/><rect x="800.65" y="269.52" width="17.59" height="15.09" rx="1.2" transform="translate(362.77 1006.76) rotate(-77.42)" fill="#3aafa9"/><rect x="808.2" y="251.68" width="10.47" height="15.09" rx="1.2" transform="translate(383.31 996.7) rotate(-77.42)" fill="#3aafa9"/><rect x="795.81" y="291.21" width="17.59" height="15.09" rx="1.2" transform="translate(337.81 1019.01) rotate(-77.42)" fill="#3aafa9"/><rect x="789.6" y="247.53" width="10.47" height="15.09" rx="1.2" transform="translate(372.8 975.29) rotate(-77.42)" fill="#3aafa9"/><rect x="782.06" y="265.37" width="17.59" height="15.09" rx="1.2" transform="translate(352.27 985.36) rotate(-77.42)" fill="#3aafa9"/><rect x="790.98" y="312.91" width="17.59" height="15.09" rx="1.2" transform="translate(312.85 1031.25) rotate(-77.42)" fill="#3aafa9"/><rect x="781.3" y="356.29" width="17.59" height="15.09" rx="1.2" transform="translate(262.94 1055.74) rotate(-77.42)" fill="#3aafa9"/><rect x="767.54" y="330.45" width="17.59" height="15.09" rx="1.2" transform="translate(277.4 1022.1) rotate(-77.42)" fill="#3aafa9"/><rect x="423.46" y="239.76" width="17.85" height="42.47" rx="1.2" transform="translate(83.5 626.17) rotate(-77.42)" fill="#3aafa9"/><rect x="409.25" y="268.86" width="17.85" height="23.2" rx="1.2" transform="translate(53.38 627.53) rotate(-77.42)" fill="#3aafa9"/><rect x="424.96" y="220.85" width="17.85" height="35.68" rx="1.2" transform="translate(106.45 610.19) rotate(-77.42)" fill="#3aafa9"/><rect x="433.37" y="276.07" width="17.85" height="19.55" rx="1.2" transform="translate(67 655.29) rotate(-77.42)" fill="#3aafa9"/><rect x="457.27" y="258.76" width="17.85" height="19.55" rx="1.2" transform="translate(102.58 665.07) rotate(-77.42)" fill="#3aafa9"/><rect x="427.08" y="201.44" width="17.85" height="30.16" rx="1.2" transform="translate(129.74 594.91) rotate(-77.42)" fill="#3aafa9"/><rect x="449.33" y="189.07" width="17.85" height="19.55" rx="1.2" transform="translate(164.4 602.81) rotate(-77.42)" fill="#3aafa9"/><rect x="467.87" y="173.52" width="10.47" height="19.55" rx="1.2" transform="translate(191.19 605.14) rotate(-77.42)" fill="#3aafa9"/><rect x="490.83" y="178.64" width="10.47" height="19.55" rx="1.2" transform="translate(204.14 631.55) rotate(-77.42)" fill="#3aafa9"/><rect x="434.41" y="166.06" width="10.47" height="19.55" rx="1.2" transform="translate(172.3 566.64) rotate(-77.42)" fill="#3aafa9"/><rect x="455.99" y="281.12" width="17.85" height="19.55" rx="1.2" transform="translate(79.77 681.31) rotate(-77.42)" fill="#3aafa9"/><rect x="426.71" y="184.02" width="17.85" height="19.55" rx="1.2" transform="translate(151.63 576.78) rotate(-77.42)" fill="#3aafa9"/><rect x="638.23" y="299.13" width="17.85" height="19.55" rx="1.2" transform="translate(204.74 873.27) rotate(-77.42)" fill="#3aafa9"/><rect x="615.61" y="294.09" width="17.85" height="19.55" rx="1.2" transform="translate(191.98 847.25) rotate(-77.42)" fill="#3aafa9"/><rect x="669.12" y="318.89" width="17.85" height="39.1" rx="1.2" transform="translate(200.08 926.52) rotate(-77.42)" fill="#3aafa9"/><rect x="614.34" y="316.44" width="17.85" height="19.55" rx="1.2" transform="translate(169.15 863.49) rotate(-77.42)" fill="#3aafa9"/><rect x="660.85" y="304.18" width="17.85" height="19.55" rx="1.2" transform="translate(217.51 899.3) rotate(-77.42)" fill="#3aafa9"/><rect x="636.96" y="321.49" width="17.85" height="19.55" rx="1.2" transform="translate(181.92 889.52) rotate(-77.42)" fill="#3aafa9"/><rect x="591.72" y="311.4" width="17.85" height="19.55" rx="1.2" transform="translate(156.39 837.47) rotate(-77.42)" fill="#3aafa9"/><rect x="479.89" y="263.81" width="17.85" height="19.55" rx="1.2" transform="translate(115.35 691.09) rotate(-77.42)" fill="#3aafa9"/><rect x="478.61" y="286.16" width="17.85" height="19.55" rx="1.2" transform="translate(92.54 707.34) rotate(-77.42)" fill="#3aafa9"/><rect x="502.51" y="268.85" width="17.85" height="19.55" rx="1.2" transform="translate(128.13 717.12) rotate(-77.42)" fill="#3aafa9"/><path d="M588.34,309.28l-84.61-18.87a1.2,1.2,0,0,0-1.43.9L499,306.61a1.2,1.2,0,0,0,.91,1.42l84.51,18.68a1.21,1.21,0,0,0,1.43-.91l3.37-15.09A1.21,1.21,0,0,0,588.34,309.28Z" fill="#3aafa9"/><rect x="592.99" y="289.04" width="17.85" height="19.55" rx="1.2" transform="translate(179.2 821.22) rotate(-77.42)" fill="#3aafa9"/><circle cx="935.77" cy="298.79" r="70.18" transform="translate(275.61 1026.2) rotate(-65.48)" fill="#3aafa9" opacity="0.5"/><circle cx="943.97" cy="292.86" r="71.07" transform="translate(-17.35 63.28) rotate(-3.8)" fill="#3aafa9"/><path d="M984.51,354.09l-12.07-19a49,49,0,1,0-11.13,7.07l12.08,19a3.44,3.44,0,0,0,4.74,1.06l5.33-3.38A3.44,3.44,0,0,0,984.51,354.09Z" fill="#2b7a78" opacity="0.5"/><rect x="958.58" y="291.28" width="13.18" height="69.92" rx="1.81" transform="translate(-24.47 568.33) rotate(-32.42)" fill="#fff"/><path d="M953.84,296.1a3.45,3.45,0,0,0-4.75-1.06l-5.32,3.38a3.45,3.45,0,0,0-1.06,4.75l23,36.23c1.31-.68,2.6-1.41,3.87-2.21a49.86,49.86,0,0,0,6.95-5.35Z" fill="#def2f1"/><circle cx="943.97" cy="292.86" r="49" transform="translate(482.82 1167.04) rotate(-79.42)" fill="#fff"/><circle cx="943.97" cy="292.86" r="39.55" transform="translate(-4.96 569.23) rotate(-33.47)" fill="#17252a"/><rect x="182.68" y="2.8" width="109.31" height="109.31" transform="translate(45.46 -93.59) rotate(24.6)" fill="#4c4c4c" opacity="0.2" style="mix-blend-mode:multiply"/><rect x="187.43" y="2.37" width="109.31" height="109.31" transform="translate(38.15 -85.34) rotate(21.66)" fill="#3aafa9"/><rect x="204.04" y="5.55" width="109.31" height="19.29" transform="translate(23.88 -94.42) rotate(21.66)" fill="#2b7a78"/><rect x="588.38" y="5.08" width="1.9" height="173.44" transform="translate(365.73 644.74) rotate(-76.84)" fill="#fff"/><rect x="588.6" y="-11.18" width="1.9" height="179.44" transform="translate(378.8 634.7) rotate(-76.84)" fill="#fff"/><rect x="588.81" y="-27.45" width="1.9" height="185.44" transform="translate(391.89 624.67) rotate(-76.84)" fill="#fff"/><rect x="589.02" y="-43.71" width="1.9" height="191.45" transform="translate(404.97 614.63) rotate(-76.84)" fill="#fff"/><rect x="589.24" y="-59.98" width="1.9" height="197.44" transform="translate(418.05 604.6) rotate(-76.84)" fill="#fff"/><rect x="589.45" y="-76.24" width="1.9" height="203.45" transform="translate(431.13 594.56) rotate(-76.84)" fill="#fff"/><rect x="589.67" y="-92.51" width="1.9" height="209.45" transform="translate(444.21 584.53) rotate(-76.84)" fill="#fff"/><polygon points="477.37 0.69 455.98 -4.32 455.05 -7.82 476.6 -2.78 477.37 0.69" fill="#fff"/><polygon points="480.5 14.73 459.74 9.88 458.81 6.37 479.73 11.27 480.5 14.73" fill="#fff"/><polygon points="483.64 28.78 463.51 24.07 462.58 20.57 482.86 25.31 483.64 28.78" fill="#fff"/><polygon points="486.77 42.83 467.27 38.27 466.34 34.76 485.99 39.36 486.77 42.83" fill="#fff"/><polygon points="489.9 56.87 471.04 52.46 470.11 48.96 489.13 53.41 489.9 56.87" fill="#fff"/><polygon points="493.03 70.92 474.8 66.66 473.87 63.15 492.26 67.45 493.03 70.92" fill="#fff"/><polygon points="670.42 125.06 506.78 86.78 506.66 86.18 484.71 -26.91 486.58 -27.27 508.41 85.21 670.86 123.21 670.42 125.06" fill="#fff"/><path d="M530,97.76c.16,1.13-.8,1.79-2.15,1.47a3.7,3.7,0,0,1-2.76-2.62c-.18-1.14.79-1.8,2.15-1.48A3.66,3.66,0,0,1,530,97.76Z" fill="#fff"/><path d="M554.57,103.51c.09,1.11-.94,1.76-2.29,1.44a3.37,3.37,0,0,1-2.62-2.59c-.1-1.12.92-1.76,2.29-1.44A3.36,3.36,0,0,1,554.57,103.51Z" fill="#fff"/><path d="M579.17,109.26c0,1.1-1.07,1.73-2.42,1.41a3.09,3.09,0,0,1-2.49-2.56c0-1.09,1-1.73,2.42-1.41A3.09,3.09,0,0,1,579.17,109.26Z" fill="#fff"/><path d="M603.77,115c-.06,1.07-1.21,1.69-2.56,1.38a2.85,2.85,0,0,1-2.35-2.53c0-1.08,1.19-1.7,2.55-1.38A2.83,2.83,0,0,1,603.77,115Z" fill="#fff"/><path d="M628.37,120.77c-.14,1.06-1.34,1.66-2.69,1.35a2.63,2.63,0,0,1-2.23-2.5c.12-1.06,1.33-1.67,2.69-1.35A2.61,2.61,0,0,1,628.37,120.77Z" fill="#fff"/><path d="M653,126.52c-.21,1-1.47,1.64-2.82,1.32a2.41,2.41,0,0,1-2.1-2.47c.2-1,1.46-1.63,2.83-1.31S653.18,125.48,653,126.52Z" fill="#fff"/><polygon points="507.6 86 522.62 55.08 550.26 80.71 576.63 41.09 603.78 65.42 634.02 35.68 658.13 86.44 651.71 119.71 507.6 86" fill="#17252a"/><path d="M741.38,45.07c-.65,1.78-3.67,2.65-6.75,1.93s-5.09-2.76-4.49-4.56,3.62-2.67,6.75-1.94S742,43.28,741.38,45.07Z" fill="#fff"/><path d="M731.45,72.49c-.64,1.79-3.5,2.69-6.38,2S720.35,71.83,721,70s3.45-2.7,6.38-2S732.1,70.7,731.45,72.49Z" fill="#fff"/><path d="M721.53,99.91c-.65,1.79-3.34,2.73-6,2.1s-4.36-2.59-3.76-4.39,3.3-2.74,6-2.1S722.18,98.12,721.53,99.91Z" fill="#fff"/><polygon points="793.47 59.09 751.96 49.38 753.28 46.01 795.12 55.8 793.47 59.09" fill="#fff"/><polygon points="780.1 85.7 741.3 76.63 742.62 73.26 781.75 82.42 780.1 85.7" fill="#fff"/><polygon points="766.73 112.31 730.65 103.88 731.96 100.51 768.38 109.03 766.73 112.31" fill="#fff"/><polygon points="889.34 88.09 749.6 55.41 750.5 53.12 891.01 85.98 889.34 88.09" fill="#fff"/><polygon points="884.93 93.64 747.24 61.44 748.14 59.15 886.6 91.54 884.93 93.64" fill="#fff"/><polygon points="869.41 113.17 738.94 82.66 739.84 80.37 871.08 111.06 869.41 113.17" fill="#fff"/><polygon points="864.99 118.72 736.59 88.69 737.48 86.4 866.67 116.62 864.99 118.72" fill="#fff"/><polygon points="849.47 138.25 728.29 109.91 729.18 107.62 851.15 136.15 849.47 138.25" fill="#fff"/><polygon points="760.08 138.67 737.47 133.38 736.46 135.64 758.92 140.89 760.08 138.67" fill="#fff"/><polygon points="766.61 140.19 765.4 142.41 780.62 145.97 781.93 143.78 766.61 140.19" fill="#fff"/><polygon points="785.2 144.54 783.86 146.73 801.08 150.75 802.53 148.6 785.2 144.54" fill="#fff"/><polygon points="734.71 132.73 720.64 129.44 719.75 131.73 733.72 135 734.71 132.73" fill="#fff"/><polygon points="807.05 149.65 805.57 151.81 833.51 158.34 835.18 156.23 807.05 149.65" fill="#fff"/><polygon points="845.06 143.81 725.93 115.94 726.82 113.65 846.73 141.7 845.06 143.81" fill="#fff"/><polygon points="738.51 140.21 718.28 135.48 717.39 137.77 737.48 142.47 738.51 140.21" fill="#fff"/><polygon points="782.67 150.53 741.47 140.9 740.42 143.15 781.33 152.72 782.67 150.53" fill="#fff"/><polygon points="813.01 157.63 786.12 151.34 784.75 153.52 811.46 159.77 813.01 157.63" fill="#fff"/><polygon points="265.54 144.04 35.47 80.72 32.71 90.65 24.03 88.47 22.03 96.43 22.03 96.43 21.54 98.39 18.14 97.53 -64.36 426.63 181.9 488.36 218.06 344.11 211.88 337.65 265.54 144.04" fill="#3aafa9" opacity="0.5"/><polygon points="198.92 394.81 -33.17 339.32 28.59 83.05 260.68 138.53 198.92 394.81" fill="#fff"/><polygon points="-33.17 339.32 198.29 394.66 253.05 139.88 27.05 89.44 -33.17 339.32" fill="#def2f1"/><rect x="-12.94" y="113.31" width="238.63" height="263.61" transform="translate(53.89 -16.88) rotate(12.13)" fill="#fff"/><polygon points="15.7 99.2 10.87 121.65 16.92 170.17 209.83 331.59 210.56 328.15 199.64 314.31 236.09 144.75 15.7 99.2" fill="#def2f1"/><polygon points="195.92 316.54 232.19 147.8 11.84 100.43 -59.46 432.13 188.75 485.49 220 340.1 195.92 316.54" fill="#3aafa9"/><rect x="31.05" y="121.38" width="52.55" height="13.93" transform="translate(28.25 -9.18) rotate(12.13)" fill="#fff"/><rect x="10.28" y="373.27" width="138.65" height="53.18" transform="translate(85.81 -7.8) rotate(12.13)" fill="#fff"/><rect x="31.19" y="375.71" width="17.83" height="4.21" transform="translate(80.3 0.01) rotate(12.13)" fill="#3aafa9"/><rect x="28.33" y="393.24" width="104.34" height="4.96" transform="translate(84.96 -8.08) rotate(12.13)" fill="#3aafa9"/><rect x="26.53" y="401.6" width="104.34" height="4.96" transform="translate(86.68 -7.52) rotate(12.13)" fill="#3aafa9"/><rect x="50.72" y="379.43" width="4.96" height="55.86" transform="translate(-356.24 373.76) rotate(-77.87)" fill="#3aafa9"/><rect x="136.26" y="302.49" width="234.1" height="338.59" transform="translate(-14.68 8.18) rotate(-1.8)" fill="#3aafa9" opacity="0.5"/><rect x="137.6" y="303.58" width="234.1" height="331.08" transform="translate(-26.48 15.37) rotate(-3.29)" fill="#fff"/><rect x="129.3" y="303.82" width="234.1" height="41.88" transform="translate(-18.22 14.66) rotate(-3.29)" fill="#3aafa9"/><rect x="130.8" y="345.38" width="234.1" height="10.83" transform="translate(-19.71 14.79) rotate(-3.29)" fill="#def2f1"/><rect x="152.2" y="353.69" width="33.51" height="3.79" transform="translate(-20.11 10.27) rotate(-3.29)" fill="#fff"/><rect x="143.33" y="375.27" width="211.59" height="3.79" transform="translate(-21.22 14.9) rotate(-3.29)" fill="#3aafa9"/><rect x="143.7" y="381.74" width="211.59" height="3.79" transform="translate(-21.59 14.94) rotate(-3.29)" fill="#3aafa9"/><rect x="144.09" y="388.91" width="187.29" height="3.79" transform="translate(-22.02 14.27) rotate(-3.29)" fill="#3aafa9"/><rect x="204.81" y="350.67" width="33.51" height="3.79" transform="translate(-19.85 13.28) rotate(-3.29)" fill="#fff"/><rect x="257.43" y="347.65" width="33.51" height="3.79" transform="translate(-19.59 16.29) rotate(-3.29)" fill="#fff"/><rect x="310.04" y="344.63" width="33.51" height="3.79" transform="translate(-19.33 19.31) rotate(-3.29)" fill="#fff"/><rect x="230.99" y="363.95" width="34.97" height="4.55" transform="translate(-20.59 14.85) rotate(-3.29)" fill="#4f4f4f"/><rect x="172.59" y="413.49" width="46.35" height="5.5" transform="translate(-23.55 11.91) rotate(-3.29)" fill="#3aafa9"/><rect x="283.02" y="407.15" width="46.35" height="5.5" transform="translate(-23 18.23) rotate(-3.29)" fill="#4f4f4f"/><rect x="256.41" y="424.5" width="16.98" height="3.32" transform="translate(-24 15.89) rotate(-3.29)" fill="#e1e1e3"/><rect x="256.74" y="428.93" width="99.34" height="3.9" transform="translate(-24.2 18.28) rotate(-3.29)" fill="#e1e1e3"/><rect x="257.13" y="435.65" width="99.34" height="3.9" transform="translate(-24.59 18.31) rotate(-3.29)" fill="#e1e1e3"/><rect x="257.55" y="443.7" width="53.18" height="3.9" transform="translate(-25.08 17.02) rotate(-3.29)" fill="#e1e1e3"/><rect x="147.51" y="430.76" width="16.98" height="3.32" transform="translate(-24.54 9.66) rotate(-3.29)" fill="#3aafa9"/><rect x="147.85" y="435.18" width="99.34" height="3.9" transform="translate(-24.74 12.04) rotate(-3.29)" fill="#3aafa9"/><rect x="148.24" y="441.91" width="99.34" height="3.9" transform="translate(-25.12 12.08) rotate(-3.29)" fill="#3aafa9"/><rect x="148.66" y="449.95" width="53.18" height="3.9" transform="translate(-25.62 10.79) rotate(-3.29)" fill="#3aafa9"/><rect x="258.4" y="459.22" width="16.98" height="3.32" transform="translate(-25.99 16.06) rotate(-3.29)" fill="#e1e1e3"/><rect x="258.74" y="463.65" width="99.34" height="3.9" transform="translate(-26.19 18.45) rotate(-3.29)" fill="#e1e1e3"/><rect x="259.12" y="470.37" width="99.34" height="3.9" transform="translate(-26.57 18.48) rotate(-3.29)" fill="#e1e1e3"/><rect x="259.55" y="478.42" width="53.18" height="3.9" transform="translate(-27.07 17.2) rotate(-3.29)" fill="#e1e1e3"/><rect x="149.51" y="465.48" width="16.98" height="3.32" transform="translate(-26.52 9.83) rotate(-3.29)" fill="#3aafa9"/><rect x="149.85" y="469.9" width="99.34" height="3.9" transform="translate(-26.73 12.22) rotate(-3.29)" fill="#3aafa9"/><rect x="150.23" y="476.63" width="99.34" height="3.9" transform="translate(-27.11 12.25) rotate(-3.29)" fill="#3aafa9"/><rect x="150.66" y="484.67" width="53.18" height="3.9" transform="translate(-27.61 10.96) rotate(-3.29)" fill="#3aafa9"/><rect x="260.39" y="493.94" width="16.98" height="3.32" transform="translate(-27.97 16.23) rotate(-3.29)" fill="#e1e1e3"/><rect x="260.73" y="498.37" width="99.34" height="3.9" transform="translate(-28.18 18.62) rotate(-3.29)" fill="#e1e1e3"/><rect x="151.5" y="500.2" width="16.98" height="3.32" transform="translate(-28.51 10) rotate(-3.29)" fill="#e1e1e3"/><rect x="229.02" y="329.66" width="34.97" height="4.55" transform="matrix(1, -0.06, 0.06, 1, -18.63, 14.68)" fill="#fff"/><rect x="196.76" y="316.34" width="98.2" height="8.53" transform="translate(-17.98 14.62) rotate(-3.29)" fill="#fff"/><polygon points="405.69 696.69 174.95 672.27 199.01 353.81 428.9 364.95 405.69 696.69" fill="#3aafa9" opacity="0.5"/><rect x="191.16" y="360.78" width="230.87" height="325.02" transform="translate(38.97 -20.96) rotate(4.18)" fill="#fff"/><rect x="191.63" y="357.87" width="93.61" height="310.55" transform="translate(38.05 -16.02) rotate(4.18)" fill="#def2f1"/><rect x="201.4" y="361.12" width="230.97" height="42.55" transform="translate(28.72 -22.09) rotate(4.18)" fill="#3aafa9"/><rect x="295.93" y="415.96" width="120.3" height="8.01" transform="translate(31.57 -24.84) rotate(4.18)" fill="#3aafa9"/><text transform="translate(233.73 436.93) rotate(4.18)" font-size="4.96" fill="#74c6ad" font-family="AntipastoPro-DemiBold, AntipastoPro DemiBold" font-weight="300" letter-spacing="0.1em">P<tspan x="3.13" y="0" letter-spacing="0.1em">R</tspan><tspan x="6.32" y="0">OFILE</tspan></text><path d="M272.74,400.5a25.5,25.5,0,1,1-23.57-27.29A25.5,25.5,0,0,1,272.74,400.5Z" fill="#fff"/><rect x="295.45" y="426.66" width="13.44" height="2.63" transform="matrix(1, 0.07, -0.07, 1, 32.01, -20.89)" fill="#3aafa9"/><rect x="294.95" y="434.4" width="78.62" height="3.09" transform="translate(32.67 -23.21) rotate(4.18)" fill="#3aafa9"/><rect x="294.56" y="439.72" width="78.62" height="3.09" transform="translate(33.06 -23.17) rotate(4.18)" fill="#3aafa9"/><rect x="313.72" y="424.21" width="3.09" height="42.09" transform="translate(-151.79 727.21) rotate(-85.82)" fill="#3aafa9"/><rect x="293.66" y="451.15" width="13.44" height="2.63" transform="translate(33.79 -20.7) rotate(4.18)" fill="#3aafa9"/><rect x="293.16" y="458.89" width="78.62" height="3.09" transform="translate(34.46 -23.02) rotate(4.18)" fill="#3aafa9"/><rect x="292.77" y="464.21" width="78.62" height="3.09" transform="matrix(1, 0.07, -0.07, 1, 34.84, -22.97)" fill="#3aafa9"/><rect x="311.93" y="448.69" width="3.09" height="42.09" transform="translate(-177.86 748.13) rotate(-85.82)" fill="#3aafa9"/><rect x="291.87" y="475.64" width="13.44" height="2.63" transform="translate(35.57 -20.5) rotate(4.18)" fill="#3aafa9"/><rect x="291.37" y="483.38" width="78.62" height="3.09" transform="translate(36.23 -22.82) rotate(4.18)" fill="#3aafa9"/><rect x="290.98" y="488.69" width="78.62" height="3.09" transform="translate(36.62 -22.78) rotate(4.18)" fill="#3aafa9"/><rect x="310.14" y="473.18" width="3.09" height="42.09" transform="matrix(0.07, -1, 1, 0.07, -203.95, 769.04)" fill="#3aafa9"/><rect x="209.39" y="443.34" width="69.07" height="3.35" transform="translate(33.1 -16.6) rotate(4.18)" fill="#3aafa9"/><rect x="208.93" y="449.62" width="69.07" height="3.35" transform="translate(33.55 -16.55) rotate(4.18)" fill="#3aafa9"/><rect x="208.47" y="455.9" width="69.07" height="3.35" transform="translate(34.01 -16.5) rotate(4.18)" fill="#3aafa9"/><rect x="208.03" y="461.49" width="50.07" height="3.35" transform="translate(34.39 -15.76) rotate(4.18)" fill="#3aafa9"/><rect x="230.58" y="434.26" width="27.14" height="3.99" transform="translate(32.46 -16.64) rotate(4.18)" fill="#3aafa9"/><rect x="298.75" y="384.28" width="87.55" height="8.38" transform="translate(29.24 -23.94) rotate(4.18)" fill="#fff"/><rect x="298.2" y="393.31" width="32.23" height="3.26" transform="translate(29.63 -21.87) rotate(4.18)" fill="#fff"/><path d="M318.36,190.25c-20.2-4.06-27.11-1.27-30.53,1.37l-1.41-.29-3.21-.75v-.05l-9-2.09,0,.05-3.21-.75-1.39-.36c-1.91-3.87-6.89-9.42-26.81-14.67a138.47,138.47,0,0,0-36.87-4.59l-3.44,10.13a4.87,4.87,0,0,1,2,2.1c.55,1.17.35,5,.27,13.06,0,.14,0,.3,0,.45-3.9,1.19-6.66,2.1-7.2,2.4-2.07,1.15-.6,6.46,2.31,6.77a20.19,20.19,0,0,0,5-1.38c.84,10.86,7.29,19.4,20.06,22.36,13.71,3.19,22.39,4.3,31.27-5.56a82.33,82.33,0,0,0,8.49-11.14,50.7,50.7,0,0,0,3.72-6.8c-.62-2.41.3-3.88,1.95-4.65l2.78.6c1.24.27,2.52.51,3.8.76s2.51.68,3.74,1l2.76.69c1.15,1.41,1.32,3.14-.29,5a49.83,49.83,0,0,0,.33,7.74,82.74,82.74,0,0,0,2.72,13.74c3.63,12.77,11.91,15.59,25.62,18.78,12.77,3,22.32-1.87,27.86-11.24a20.17,20.17,0,0,0,3.85,3.42c2.75,1,6.42-3.11,5.06-5.05-.35-.51-2.43-2.54-5.41-5.33l.2-.41c3.46-7.23,5-10.8,6-11.61a4.86,4.86,0,0,1,2.75-1l1.38-10.61A138.7,138.7,0,0,0,318.36,190.25Zm-10.08,3c6.52.8,22,2.93,29.38,8.23l-25.19-4.91q-7.56-1.47-14.6-2.9A27.41,27.41,0,0,1,308.28,193.24Zm-78.91-6.46c-6.21,1.67-13.6,3.78-19.71,5.6a49.31,49.31,0,0,1,2.26-9.52Zm21.15-6.95a27.43,27.43,0,0,1,9.15,5Q252.72,183,245.29,181l-24.77-6.69C229.48,172.77,244.31,177.68,250.52,179.83Zm13.07,16a43.08,43.08,0,0,1-3.6,10.35c-3.65,7.63-9.47,15.45-15.66,16.61-9.26,1.74-27.74-1.92-32.91-12.7A25.54,25.54,0,0,1,209.23,200c9.37-3.53,23.23-9.16,30.19-11,8.52,1.9,17.36,3.87,24.35,5.4A12.21,12.21,0,0,1,263.59,195.87ZM330,237.67c-9.4,7.39-27.6,2.53-35.14-3.1-5-3.77-6.83-13.36-6.74-21.81a43.61,43.61,0,0,1,1.32-10.88,14,14,0,0,1,.48-1.38c6.95,1.7,15.75,3.83,24.24,5.88,5.43,4.73,15.39,15.89,22.25,23.19A25.64,25.64,0,0,1,330,237.67Zm9.4-15.16c-4.69-4.32-10.39-9.48-15.23-13.72L341.59,213A49.78,49.78,0,0,1,339.43,222.51Z" fill="#2b7a78" opacity="0.5"/><path d="M350.4,211.4S301.46,199.67,287,196s-31.18-10.41-38.28-9.79-39.59,14.92-42.5,14.61-4.38-5.63-2.31-6.77,36.75-11.25,43.6-12.37,35,5.6,71.3,12.67l36.29,7.07Z" fill="#3aafa9"/><path d="M215.68,180.12s49.1,11,63.73,14.16,32.57,4.41,38.68,8.08,29,30.84,31.71,31.84,6.42-3.12,5.06-5.06-28-26.29-33.7-30.31-33.89-10.4-69.58-20l-35.7-9.64Z" fill="#3aafa9"/><rect x="282.35" y="184.79" width="4.33" height="9.26" transform="translate(35.66 423.73) rotate(-76.93)" fill="#256c58"/><path d="M221.16,174.8c6.09-7,27.79.13,35.65,2.86s14.61,7.45,13.07,16a43.38,43.38,0,0,1-3.6,10.35l4.68,1.09a51.09,51.09,0,0,0,3.72-6.81c-1.28-5,4-6,8.9-4.88s9.18,4.39,5.84,8.31a49.83,49.83,0,0,0,.33,7.74l4.69,1.09a43.55,43.55,0,0,1,1.32-10.88c2.4-8.39,10.55-9.66,18.81-8.64s30.89,4.13,33.25,13.14c.85,3.21,0,10.85-2.79,18.12l4.62,1.07c3.46-7.23,5-10.79,6-11.6a5,5,0,0,1,2.76-1l1.38-10.6a138.24,138.24,0,0,0-35.12-12.13c-20.28-4.08-27.16-1.25-30.58,1.39L285,187.36l-9.08-2.11c-1.9-3.87-6.84-9.44-26.84-14.72A138.68,138.68,0,0,0,212.2,166l-3.44,10.13a4.87,4.87,0,0,1,2,2.1c.55,1.16.35,5,.27,13l4.62,1.07C216.42,184.56,219,177.31,221.16,174.8Z" fill="#3aafa9"/><path d="M269.88,193.7c1.54-8.59-5.22-13.32-13.07-16s-29.56-9.9-35.65-2.86c-2.17,2.51-4.74,9.76-5.47,17.5-.52,5.48-.13,11.19,2,15.66,5.17,10.77,23.65,14.43,32.91,12.7,6.18-1.16,12-9,15.66-16.61A43.38,43.38,0,0,0,269.88,193.7Z" fill="#fff"/><path d="M347.82,204.21c-2.36-9-25-12.13-33.25-13.14s-16.41.25-18.81,8.64a43.55,43.55,0,0,0-1.32,10.88c-.09,8.45,1.7,18,6.74,21.8,7.54,5.64,25.74,10.5,35.14,3.1,3.89-3.06,6.76-8,8.71-13.16C347.78,215.06,348.67,207.42,347.82,204.21Z" fill="#fff"/><path d="M231.2,221.84c13.71,3.18,22.39,4.29,31.27-5.57A83,83,0,0,0,271,205.14l-4.68-1.09c-3.65,7.62-9.48,15.45-15.66,16.61-9.26,1.73-27.74-1.93-32.91-12.7-2.15-4.47-2.54-10.18-2-15.66l-4.62-1.07c0,1.73,0,3.65,0,5.79C211.05,209,217.48,218.65,231.2,221.84Z" fill="#3aafa9"/><path d="M336.32,235.49c-9.4,7.4-27.6,2.54-35.14-3.1-5-3.76-6.83-13.35-6.74-21.8l-4.69-1.09a82.74,82.74,0,0,0,2.72,13.74C296.1,236,304.38,238.83,318.09,242s23.73-2.62,29-13.4c.94-1.92,1.77-3.64,2.52-5.21L345,222.33C343.08,227.47,340.21,232.43,336.32,235.49Z" fill="#3aafa9"/><rect x="-2.48" y="205.53" width="109.31" height="109.31" transform="translate(101.54 -0.55) rotate(22.06)" fill="#4c4c4c" opacity="0.2" style="mix-blend-mode:multiply"/><rect x="2.25" y="204.9" width="109.31" height="109.31" transform="translate(88.17 -4.32) rotate(19.12)" fill="#fff"/><rect x="16.99" y="207.38" width="109.31" height="19.29" transform="translate(75.05 -11.49) rotate(19.12)" fill="#def2f1"/><rect x="417.06" y="342.2" width="81.81" height="116.65" transform="translate(73.18 -70.74) rotate(9.6)" fill="#3aafa9" opacity="0.5"/><rect x="422.16" y="336.5" width="81.81" height="116.65" transform="translate(47.05 -49.3) rotate(6.42)" fill="#fff"/><rect x="428.09" y="336.83" width="81.81" height="10.51" transform="translate(41.19 -50.3) rotate(6.42)" fill="#2b7a78"/><rect x="431.15" y="421.55" width="60.55" height="3.24" transform="translate(50.21 -48.94) rotate(6.42)" fill="#2b7a78"/><rect x="430.3" y="429.12" width="60.55" height="3.24" transform="translate(51.05 -48.8) rotate(6.42)" fill="#2b7a78"/><rect x="432.65" y="407.4" width="32.82" height="3.24" transform="translate(48.55 -47.65) rotate(6.42)" fill="#2b7a78"/><path d="M434,370.5l14.73,25.72q8.4-17.09,17.36-33.89,3.64,9.33,7.3,18.67a58,58,0,0,1,7.93-10.51q5.75,9.93,11.48,19.85" fill="none" stroke="#2b7a78" stroke-miterlimit="10"/><path d="M487,387l6,2.87c0-2.21,0-4.42,0-6.63" fill="none" stroke="#2b7a78" stroke-miterlimit="10"/><path d="M551.49,484l-81.38-4.29a7.48,7.48,0,0,0-7.88,7.07l-8.74,165a7.48,7.48,0,0,0,7.09,7.87L542,663.89a7.49,7.49,0,0,0,7.88-7.08l8.74-165A7.48,7.48,0,0,0,551.49,484Z" fill="#4c4c4c"/><path d="M553.82,480.35,472.35,478a7.5,7.5,0,0,0-7.71,7.27L459.8,650.39a7.49,7.49,0,0,0,7.27,7.7l81.47,2.38a7.5,7.5,0,0,0,7.71-7.27l4.84-165.15A7.49,7.49,0,0,0,553.82,480.35Z" fill="#17252a"/><rect x="438.64" y="521.54" width="144.1" height="78.86" transform="translate(-64.91 1055.12) rotate(-88.33)" fill="#def2f1"/><polygon points="472.22 527.64 470.85 574.38 530.49 489.47 499.66 488.57 472.22 527.64" fill="#fff" opacity="0.5"/><polygon points="505.06 632.89 549.9 569.05 552.07 495.06 469.74 612.27 469.16 631.84 505.06 632.89" fill="#fff" opacity="0.5"/><path d="M517.81,485.2l-14.36-.42a.86.86,0,0,1-.84-.89h0a.86.86,0,0,1,.89-.83l14.36.41a.87.87,0,0,1,.84.89h0A.86.86,0,0,1,517.81,485.2Z" fill="#fff"/><path d="M523.26,484.49a.86.86,0,1,1-.83-.88A.86.86,0,0,1,523.26,484.49Z" fill="#fff"/><path d="M826.48,591.86l34.46-147.59a8.3,8.3,0,0,0-6.2-10L628.3,381a8.29,8.29,0,0,0-10,6.19l-34.45,147.6a8.31,8.31,0,0,0,6.2,10l226.44,53.33A8.29,8.29,0,0,0,826.48,591.86Z" fill="#3aafa9" opacity="0.5"/><path d="M830.71,585.14l32.69-148a8.31,8.31,0,0,0-6.32-9.9L630,376.63a8.3,8.3,0,0,0-9.89,6.31l-32.69,148a8.29,8.29,0,0,0,6.32,9.89l227,50.63A8.3,8.3,0,0,0,830.71,585.14Z" fill="#2b7a78"/><polygon points="648.29 390.66 616.23 535.8 820.42 581.38 852.48 436.23 648.29 390.66" fill="#def2f1"/><polygon points="831.21 532.54 678.84 397.48 648.29 390.66 646.53 398.63 825.71 557.45 831.21 532.54" fill="#fff" opacity="0.5"/><polygon points="846.99 461.08 807.67 426.23 723.7 407.49 836.7 507.65 846.99 461.08" fill="#fff" opacity="0.5"/><polygon points="704.47 555.5 818.27 580.89 640.98 423.74 627.04 486.86 704.47 555.5" fill="#fff" opacity="0.5"/><path d="M611.94,465.93l3-13.7a3.51,3.51,0,0,1,4.18-2.67h0a3.51,3.51,0,0,1,2.67,4.18l-3,13.71a3.5,3.5,0,0,1-4.18,2.66h0A3.51,3.51,0,0,1,611.94,465.93Z" fill="#fff"/><path d="M840.53,513.21l3.31-15a.93.93,0,0,1,1.1-.7h0a.92.92,0,0,1,.7,1.1l-3.31,15a.92.92,0,0,1-1.1.71h0A.92.92,0,0,1,840.53,513.21Z" fill="#4f4f4f"/><rect x="646.16" y="484.79" width="15.19" height="28.43" transform="translate(119.81 -126.54) rotate(12.16)" fill="#fff"/><rect x="671.07" y="453.17" width="15.19" height="65.01" transform="translate(117.57 -132.09) rotate(12.16)" fill="#fff"/><rect x="689.77" y="479.78" width="15.19" height="42.68" transform="translate(121.23 -135.68) rotate(12.16)" fill="#fff"/><rect x="715.32" y="442.12" width="15.19" height="85.36" transform="translate(118.38 -141.44) rotate(12.16)" fill="#fff"/><rect x="644.57" y="499.72" width="15.19" height="13.34" transform="translate(121.33 -126.04) rotate(12.16)" fill="#3aafa9"/><rect x="667.43" y="487.28" width="15.19" height="30.5" transform="translate(121.04 -130.95) rotate(12.16)" fill="#3aafa9"/><rect x="710.55" y="486.92" width="15.19" height="40.05" transform="translate(122.94 -139.93) rotate(12.16)" fill="#3aafa9"/><rect x="732.21" y="485.81" width="15.19" height="45.77" transform="translate(123.78 -144.45) rotate(12.16)" fill="#3aafa9"/><rect x="794.86" y="475.26" width="37.99" height="1.49" transform="translate(134.21 -177.47) rotate(13.55)" fill="#fff"/><rect x="794.89" y="475" width="35.71" height="1.49" transform="translate(134.12 -177.22) rotate(13.55)" fill="#2b7a78"/><rect x="793.34" y="481.56" width="37.99" height="1.49" transform="translate(135.65 -176.94) rotate(13.55)" fill="#fff"/><rect x="793.49" y="480.26" width="26.87" height="1.49" transform="translate(135.19 -175.71) rotate(13.55)" fill="#2b7a78"/><rect x="791.82" y="487.86" width="37.99" height="1.49" transform="translate(137.08 -176.4) rotate(13.55)" fill="#fff"/><rect x="791.89" y="487.25" width="32.78" height="1.49" transform="translate(136.87 -175.83) rotate(13.55)" fill="#2b7a78"/><rect x="774.82" y="467.25" width="17.27" height="2.86" transform="translate(131.65 -170.55) rotate(13.55)" fill="#fff"/><rect x="773.3" y="473.55" width="17.27" height="2.86" transform="translate(133.09 -170.02) rotate(13.55)" fill="#fff"/><rect x="771.78" y="479.85" width="17.27" height="2.86" transform="translate(134.52 -169.49) rotate(13.55)" fill="#fff"/><rect x="790.3" y="494.16" width="37.99" height="1.49" transform="translate(138.52 -175.87) rotate(13.55)" fill="#fff"/><rect x="790.33" y="493.9" width="35.71" height="1.49" transform="translate(138.42 -175.62) rotate(13.55)" fill="#2b7a78"/><rect x="770.26" y="486.15" width="17.27" height="2.86" transform="translate(135.95 -168.96) rotate(13.55)" fill="#fff"/><rect x="788.78" y="500.46" width="37.99" height="1.49" transform="translate(139.95 -175.34) rotate(13.55)" fill="#fff"/><rect x="789.01" y="498.57" width="21.84" height="1.49" transform="translate(139.29 -173.55) rotate(13.55)" fill="#2b7a78"/><rect x="768.74" y="492.45" width="17.27" height="2.86" transform="translate(137.39 -168.42) rotate(13.55)" fill="#fff"/><rect x="794.19" y="463.61" width="23.15" height="3.4" transform="translate(131.48 -175.87) rotate(13.55)" fill="#2b7a78"/><polygon points="847.71 380.88 1084.55 410.04 1083.31 420.27 1092.17 421.56 1090.98 429.68 1090.98 429.68 1090.69 431.68 1094.16 432.19 1044.98 767.88 793.78 731.08 815.34 583.94 823.51 580.32 847.71 380.88" fill="#4c4c4c" opacity="0.2" style="mix-blend-mode:multiply"/><polygon points="821.39 643.51 1058.91 666.53 1083.87 404.11 846.36 381.08 821.39 643.51" fill="#fff"/><polygon points="1058.91 666.53 822.04 643.57 853.13 384.84 1083.25 410.65 1058.91 666.53" fill="#def2f1"/><rect x="838.28" y="400.25" width="238.63" height="263.61" transform="translate(1844.9 1174.54) rotate(-173.15)" fill="#fff"/><polygon points="1090.81 423.57 1088.07 446.37 1066.56 490.29 831.64 580.18 832.06 576.69 846.9 567.16 867.59 394.96 1090.81 423.57" fill="#def2f1"/><polygon points="849.69 570.47 870.28 399.11 1094.06 426 1053.59 762.85 801.52 732.57 819.26 584.92 849.69 570.47" fill="#3aafa9"/></g></g></g></svg>