<svg xmlns="http://www.w3.org/2000/svg" xmlns:xlink="http://www.w3.org/1999/xlink" viewBox="0 0 1020 500"><defs><clipPath id="clip-path"><rect x="0.06" width="1019.15" height="499.83" fill="none"/></clipPath></defs><title>ENABLE UPDATED</title><g id="OBJECTS"><g clip-path="url(#clip-path)"><rect id="background" x="0.06" y="0.48" width="1019.88" height="500" fill="#def2f1"/><polygon points="461.74 247.36 406.8 288.54 374.13 260.93 418.63 229.76 461.74 247.36" fill="#2b7a78"/><polyline points="463 239.62 462.48 248.24 401.9 223.48 463 239.62" fill="#007a76"/><polyline points="374.13 313.21 472.69 238.86 521.18 290.22 502.52 336.1 506.52 395.16 502.18 397.95 499.51 437.31 430.13 460.71 379.36 411.65 374.13 313.21" fill="#3aafa9"/><path d="M464.67,0H761q-.07,3.47-.13,6.93a4.36,4.36,0,0,0-.48,1Q748.51,65.5,736.65,123.05q-12.42,60.33-24.81,120.68-8.13,39.5-16.38,79c-.83,3.95-2,7.83-3,11.74l-58.83,40.69Q594.83,401.95,556,428.76q-33.15,23-66.2,46.09-18.26,12.73-36.49,25.5c-1.39,0-2.78.12-4.17.12H259V398.4c3.06-1.91,6.27-3.62,9.15-5.77q49.65-37.1,99.21-74.33,19.75-14.83,39.43-29.76c2.52,4.32,4.64,9,7.65,12.89,5.26,6.87,11,6.5,15.84-.49.14-.2.31-.39.46-.59l0,0,.72-.44c-.07,1.3-.14,2.6-.2,3.91l-.23.12.22.12c-.26,2.27-.51,4.55-.77,6.81a16,16,0,0,1-2.8,3.13c-2,1.3-4.26,2.15-6.32,3.35a10.8,10.8,0,0,0-5.68,8.79,57,57,0,0,1-1.19,6.15v-.08l-.6.53-3.69,3.08-.85,3.57a1.07,1.07,0,0,1,.14.47c-1.63,1.5-3.17,3.11-4.92,4.47-4.1,3.2-4.48,5.53-1.26,9.65a19.15,19.15,0,0,0,2.15,2.07A37.48,37.48,0,0,0,409.42,377c1,2.95,1.08,5.48-2.52,6.78-.56.2-.86,1.13-1.29,1.72-1.65,4,1.58,6.21,3.82,7.48,6.23,3.56,12.94,6.27,19.45,9.32,2.09,4.45,10.67,8.69,15.75,7.79,8.07,3.9,16.12,7.85,24.25,11.64,1.24.58,3.29,1.06,4.18.45a68.56,68.56,0,0,0,7-6.16c3.25-.91,6.77-1.31,9.69-2.85,6.17-3.24,9.77-8.92,12.46-15.19a29.07,29.07,0,0,0,3.53-2.14q25-20.22,49.89-40.5c19.39-15.72,38.83-31.37,58.16-47.17,1.66-1.36,3.43-3.46,3.76-5.44,2.2-13.54,3.41-27.15,1.31-40.84-1.53-10-3.17-20-4.68-30a14.59,14.59,0,0,1,.31-3.75,76.81,76.81,0,0,1,1-7.88c.5-2.26,1-4.75,2.33-6.56C622.7,206.9,628,200.41,630,192c1.18-5.1,1.39-5.1,6-2.75.9.46,1.79.94,2.7,1.39,5,2.47,10,2.85,14.88-.16,4-2.44,8-4.83,12-7.3a4.71,4.71,0,0,0,2.06-6.25A125.25,125.25,0,0,0,663,165.23c-5-9.84-10.54-19.39-15.19-29.38-3.67-7.86-9.9-10.36-17.73-10.68-2.54-.1-3.9,1-3.95,3.83-.13,6.57,1.52,9.33,8,12.25l5.67-4c6.09,8,5.87,17.6,7.22,27.2-.82-.45-1.27-.64-1.65-.91-3.87-2.77-7.72-5-12.4-1.37-.59.46-2.63,0-3.24-.66-4.31-4.86-9.52-5.4-15.26-3.49-2.92,1-5.19.38-7.08-2-1.25-1.59-2.59-3.12-3.88-4.69-2.51-3-2.8-6.27-1.23-9.94a34.56,34.56,0,0,0,2.29-8c2.17-13.23-4.85-24.57-16.94-27.59a8.19,8.19,0,0,0-10.14,8c.15,8.55,2.48,16.68,5.17,24.73,1.67,5,.77,6.38-4.39,6.05A8.31,8.31,0,0,1,572.8,142a26.75,26.75,0,0,0-17.27-10.15,6.45,6.45,0,0,1-3.77-2.08c-3.33-4.19-6.79-7.9-13.31-6.75,2.12-6.54.68-13.81,6.38-18.27a93.24,93.24,0,0,0,5.58,7.78c2.21,2.5,7,2.15,7.81-.44,1.21-3.76,1.58-7.8-1.77-10.6a94.86,94.86,0,0,0-11.2-7.64c-2.2-1.37-4.19-.77-6.1,1.17a116,116,0,0,1-9,8.13c-5.14,4.21-9.78,8.6-12.33,15.08-1.44,3.68-1.3,6.61.94,9.57,3.51,4.65,7.13,9.22,10.68,13.84,5.34,7,11.91,12.18,20.63,14,3.3.7,4.43,2.62,5.32,5.55,2,6.54,3.55,13.39,6.7,19.37,8.37,15.91,9.73,32.45,6.56,49.77-2.27,12.43-6.18,24.65-4.82,37.57.41,3.9.25,7.86.66,11.76.35,3.38-1.11,5.3-3.82,7.12-14,9.42-27.84,19-41.8,28.52-7.44,5.05-15,9.92-22.51,14.87q-.16-14.21-.34-28.39c.27-.86.53-1.71.79-2.57l11.88-7.47c1.44-.33,3.49-.19,4.19-1.1,2-2.53.11-7.41-3-8.92-3.49-2.25-6.62-1.5-10.05,2.38l-.68.1a26.4,26.4,0,0,1-4.95,1.71c-1.58.23-3.61.35-4.83-.44-6.81-4.36-13.42-9-20.1-13.56l8.66-4.38c.11,2.49-.92,5.69,3.42,5.6,3.42-.39,2.12-3.07,2.28-4.92.21-2.32,0-4.59-3-5-2.9-3.16-5.46-.49-8.17.42-1.85.62-3.77,1-5.66,1.51.48-.72.95-1.45,1.45-2.15,4.81-6.71,2.1-16.86-5.24-19.61.31-22.18.69-44.35.9-66.52q.48-52.1.75-104.18C464.71,48.43,464.65,24.22,464.67,0Z" fill="#3aafa9"/><path d="M401.91,223.48c-16.36-6.17-32.67-12.45-49-18.62-18-6.8-36-13.51-54-20.31-9.71-3.66-19.36-7.47-29.08-11.12C266.24,172.1-5.74,80.49-9.34,79.31-9.34,22.68.06,56.62.06,0H464.67c0,24.22,0,48.43-.08,72.65q-.25,52.09-.75,104.18c-.21,22.17-.59,44.34-.9,66.51" fill="#3e8c88"/><path d="M259,169.87c3.6,1.18,7.24,2.23,10.78,3.56,9.72,3.65,19.37,7.46,29.08,11.12,18,6.8,36,13.51,54,20.31,16.35,6.17,32.66,12.45,49,18.62,14.33,5.42,28.32,11.21,42.64,16.65a34.66,34.66,0,0,1,4.47,2,47.34,47.34,0,0,0-4,6.5c-.35.82.8,2.3,1.26,3.48L442,262.26c-.54.32-1.11.6-1.62,1q-12.28,8.94-24.55,17.91l-6.54-6.41c-.82-1.28-1.42-3.38-2.52-3.69-3.61-1-5.52-3.27-6.47-7.55l-10.16,3.35c0,4,1.66,6.05,4.74,7.14,2.71,1,5.41,2,8.12,3q1.89,5.79,3.77,11.59-19.71,14.88-39.43,29.76-49.58,37.2-99.21,74.33c-2.88,2.15-6.09,3.86-9.15,5.77Z" fill="#2b7a78"/><path d="M1024.7,455.1c0,8-4.76,44.17-4.76,52.17,0,37.69-193.53,6.15-253.31-6.79-1.32-.29-.83,0-5.63-.21-1.27.08-2.36.2-3.46.2H456.73c-1.14,0-2.28-.08-3.42-.12q18.24-12.75,36.49-25.5,33.09-23.06,66.2-46.09,38.79-26.88,77.65-53.65l58.83-40.69c1.5.14,3.12,0,4.49.48,10.17,3.81,20.27,7.84,30.44,11.65C738.53,350.71,1013.54,451,1024.7,455.1Z" fill="#2b7a78"/><path d="M496.33,330.18c7.5-4.95,15.07-9.82,22.51-14.87,14-9.47,27.81-19.1,41.8-28.52,2.71-1.82,4.17-3.74,3.82-7.12-.41-3.9-.25-7.86-.66-11.76-1.36-12.92,2.55-25.14,4.82-37.57,3.17-17.32,1.81-33.86-6.56-49.77-3.15-6-4.72-12.83-6.7-19.37-.89-2.93-2-4.85-5.32-5.55-8.72-1.84-15.29-7.06-20.63-14-3.55-4.62-7.17-9.19-10.68-13.84-2.24-3-2.38-5.89-.94-9.57,2.55-6.48,7.19-10.87,12.33-15.08a116,116,0,0,0,9-8.13c1.91-1.94,3.9-2.54,6.1-1.17a94.86,94.86,0,0,1,11.2,7.64c3.35,2.8,3,6.84,1.77,10.6-.83,2.59-5.6,2.94-7.81.44a93.24,93.24,0,0,1-5.58-7.78c-5.7,4.46-4.26,11.73-6.38,18.27,6.52-1.15,10,2.56,13.31,6.75a6.45,6.45,0,0,0,3.77,2.08A26.75,26.75,0,0,1,572.8,142a8.31,8.31,0,0,0,5.41,2.59c5.16.33,6.06-1.06,4.39-6.05-2.69-8.05-5-16.18-5.17-24.73a8.19,8.19,0,0,1,10.14-8c12.09,3,19.11,14.36,16.94,27.59a34.56,34.56,0,0,1-2.29,8c-1.57,3.67-1.28,6.89,1.23,9.94,1.29,1.57,2.63,3.1,3.88,4.69,1.89,2.39,4.16,3,7.08,2,5.74-1.91,11-1.37,15.26,3.49.61.69,2.65,1.12,3.24.66,4.68-3.68,8.53-1.4,12.4,1.37.38.27.83.46,1.65.91-1.35-9.6-1.13-19.16-7.22-27.2l-5.67,4c-6.44-2.92-8.09-5.68-8-12.25,0-2.88,1.41-3.93,3.95-3.83,7.83.32,14.06,2.82,17.73,10.68,4.65,10,10.23,19.54,15.19,29.38a125.25,125.25,0,0,1,4.65,11.66,4.71,4.71,0,0,1-2.06,6.25c-4,2.47-8,4.86-12,7.3-4.93,3-9.89,2.63-14.88.16-.91-.45-1.8-.93-2.7-1.39-4.58-2.35-4.79-2.35-6,2.75-2,8.45-7.29,14.94-12.18,21.74-1.3,1.81-1.83,4.3-2.33,6.56a76.81,76.81,0,0,0-1,7.88,14.59,14.59,0,0,0-.31,3.75c1.51,10,3.15,20,4.68,30,2.1,13.69.89,27.3-1.31,40.84-.33,2-2.1,4.08-3.76,5.44-19.33,15.8-38.77,31.45-58.16,47.17q-25,20.24-49.89,40.5a29.07,29.07,0,0,1-3.53,2.14c.85-3.43,1.95-6.82,2.49-10.29,1.86-12-1.38-29-14.95-35.72q1-6.54,2.08-13.08l.56-.66Z" fill="#2b7a78"/><path d="M1024.7,455.1C1013.54,451,738.53,350.71,727.41,346.55c-10.17-3.81-20.27-7.84-30.44-11.65-1.37-.52-3-.34-4.49-.48,1-3.91,2.15-7.79,3-11.74q8.25-39.46,16.38-79,12.43-60.33,24.81-120.68C744.55,84.68,753.07,38.84,761,.48c.07-.36,7.82-.14,8-.48,0,1.78,259.34-15.08,259.34-13.3,0,114.25-8.32,314.19-8.32,428.44C1020,416.41,1024.74,453.83,1024.7,455.1Z" fill="#3e8c88"/><path d="M462.05,299.86c-16.47,2.19-34.94,22.35-41.28,45-5,17.73-1,31.76,8.85,36h0a14.63,14.63,0,0,0,3.68,1.05s0,0,0,0a19.44,19.44,0,0,0,5.76,0A31,31,0,0,0,450,378.13a55.84,55.84,0,0,0,14.08-11.58c.58-.65,1.16-1.32,1.73-2a76.43,76.43,0,0,0,13.44-23.95h0c.29-.84.55-1.66.79-2.49.13-.4.24-.78.35-1.17a53.83,53.83,0,0,0,2.14-15c-.09-6.82-1.85-12.45-5-16.35a14.93,14.93,0,0,0-2.85-2.77A16.66,16.66,0,0,0,462.05,299.86Zm-17.13,77.42.81-2.91c-.65.23-1.27.42-1.9.6l-.72,2.53a13.81,13.81,0,0,1-10-2.74,12.6,12.6,0,0,1-4.67-3.23,11.2,11.2,0,0,1-1.06-1.29,14.69,14.69,0,0,1-1.49-2.44,5.5,5.5,0,0,1-.28-.6c-3.16-7-2.56-16.91,1-26.85,0,0,0-.06,0-.09a64.76,64.76,0,0,1,11.69-20.11.63.63,0,0,1,.1-.12c.37-.43.76-.86,1.14-1.28,6.94-7.57,14.49-11.81,21-12.56a18.3,18.3,0,0,1,2.43-.1,13.34,13.34,0,0,1,1.7.12,12.94,12.94,0,0,1,6.43,2.68,13.41,13.41,0,0,1,6.8,6.16l-1.61,1.77c.18.61.35,1.25.5,1.89l1.91-2.07c2.51,5.77,2.51,13.49.46,21.56l-3.84.51c-.25.83-.52,1.66-.81,2.5l3.94-.52a64.31,64.31,0,0,1-13,23.3l-1.72-3.51c-.56.68-1.14,1.35-1.74,2l1.71,3.45C457.52,372.4,450.85,376.23,444.92,377.28Z" fill="#042e3c"/><path d="M465.23,304.57l-1.8.24-.22.78-.14.5-.6,2.13-7,25.11s0,0,0,0l-1.57,5.6-.27,1-.49,1.76-.2.73h0l-.3,1-.2.74-.5,1.76-.23.83-1.57,5.62L443.83,375l-.72,2.53-.73,2.61-.25.92,1.8-.24.26-.9.73-2.61.81-2.91,6.2-22.22,1.58-5.62h0l.22-.83.49-1.76.21-.72h0l.28-1,.2-.74.49-1.75.27-1,1.59-5.63,7-25.1.5-1.76.24-.86Z" fill="#b2b2b2"/><polygon points="442.52 317.5 440.75 319.42 441.02 319.98 441.84 321.63 449.79 337.69 451.54 341.23 451.54 341.24 451.84 341.85 452.41 342.98 452.63 343.43 452.96 344.09 453.19 344.56 453.74 345.69 454.03 346.24 455.81 349.85 462.05 362.47 463.76 365.92 464.07 366.55 464.57 367.57 464.84 368.1 466.61 366.18 466.33 365.64 465.8 364.55 465.51 363.99 463.79 360.48 457.57 347.94 455.81 344.33 455.51 343.76 454.96 342.63 454.73 342.17 454.4 341.51 454.17 341.04 453.62 339.91 453.31 339.28 451.54 335.73 443.62 319.69 442.79 318.03 442.52 317.5" fill="#dadada"/><polygon points="481.72 337.87 481.15 337.94 480.04 338.1 479.26 338.2 475.42 338.71 460.99 340.63 456.88 341.17 456.22 341.27 456.2 341.27 454.93 341.43 454.4 341.51 453.67 341.61 453.65 341.6 453.13 341.67 451.84 341.85 451.17 341.93 447.15 342.47 428.91 344.9 427.01 345.15 426.35 345.24 425.65 347.74 426.29 347.65 428.21 347.39 446.47 344.96 450.52 344.42 451.15 344.33 452.43 344.17 452.96 344.09 453.7 344 454.24 343.93 455.51 343.76 456.15 343.67 460.3 343.13 474.61 341.21 478.55 340.69 479.24 340.6 479.25 340.59 480.45 340.43 481.01 340.36 481.72 337.87" fill="#b2b2b2"/><polygon points="480.38 312.45 479.84 313.04 478 315.05 476.39 316.82 460.13 334.55 456.12 338.93 455.42 339.68 454.17 341.04 453.67 341.61 453.65 341.6 452.93 342.39 452.93 342.41 452.41 342.98 451.15 344.33 450.54 345.02 446.58 349.32 428.71 368.82 427.41 370.24 426.88 370.82 426.19 371.56 426.98 373.15 427.65 372.41 428.47 371.53 429.5 370.4 447.37 350.92 451.34 346.57 451.93 345.93 453.19 344.56 453.7 344 454.44 343.21 454.45 343.2 454.96 342.63 456.2 341.27 456.22 341.27 456.88 340.55 460.92 336.13 476.89 318.71 478.8 316.64 480.63 314.64 481.18 314.04 480.38 312.45" fill="#b2b2b2"/><path d="M441,317.06c-.88,1-1.74,2-2.57,3a.63.63,0,0,0-.1.12,75.55,75.55,0,0,0-11.69,20.11s0,.06,0,.09c-4.8,12.43-5.69,25-1.49,33.55a16.11,16.11,0,0,0,8.17,8s0,0,0,0c8.89,3.65,21.71-1.09,33.09-13.5,15.77-17.19,22.89-42.69,15.89-56.85a16.67,16.67,0,0,0-4.81-6C468.78,298.75,454,303,441,317.06Zm21.43-8.84a16.54,16.54,0,0,1,1.8-.25,14.91,14.91,0,0,1,6.93.92,13.41,13.41,0,0,1,6.8,6.16c.15.24.28.51.42.78s.26.53.38.81c2.51,5.77,2.51,13.49.46,21.56-.22.83-.46,1.66-.71,2.49a64.31,64.31,0,0,1-13,23.3c-.26.3-.52.61-.8.9l-.95,1c-6.24,6.48-12.91,10.31-18.84,11.36-.61.1-1.22.18-1.81.22a13.81,13.81,0,0,1-10-2.74,14.31,14.31,0,0,1-3.64-4.36,8,8,0,0,1-.42-.77c-.13-.27-.25-.53-.37-.81-2.52-5.73-2.53-13.39-.5-21.43.21-.83.44-1.65.7-2.49a64.31,64.31,0,0,1,12.93-23.27c.31-.36.61-.71.94-1.06s.55-.6.84-.88C449.84,313.17,456.51,309.31,462.47,308.22Z" fill="#dadada"/><path d="M474.68,302.78a17.81,17.81,0,0,0-9.46-1.09c-16.47,2.2-35,22.35-41.29,45-4.38,15.7-1.79,28.49,5.69,34.14h0a16.73,16.73,0,0,0,12.64,2.93c16.46-2.19,34.94-22.34,41.28-45C488.51,321,484.54,307,474.68,302.78ZM479.84,313c.28.51.54,1,.79,1.6a25.57,25.57,0,0,1,1.9,7.26A44.46,44.46,0,0,1,481.16,338c-.11.39-.21.78-.32,1.18s-.25.88-.39,1.3a69,69,0,0,1-14.12,25.21c-.58.67-1.17,1.3-1.76,1.93A45.82,45.82,0,0,1,450,378.13a25.47,25.47,0,0,1-5.8,1.76l-.86.13c-.32,0-.65.08-.95.09-6.68.59-11.78-2.36-14.73-7.7-.28-.51-.53-1-.77-1.59a20.26,20.26,0,0,1-1.24-3.62c-1.37-5.35-1.24-12.06.65-19.55.13-.43.24-.86.36-1.31s.23-.79.36-1.19A69.18,69.18,0,0,1,441,320c.58-.67,1.18-1.32,1.77-2,5.53-5.8,11.77-10,17.85-11.84a23.32,23.32,0,0,1,2.57-.6c.31-.06.63-.12,1-.16s.58-.07.85-.08C471.74,304.72,476.87,307.67,479.84,313Z" fill="#042e3c"/><path d="M471.2,308.89a14.68,14.68,0,0,1,4.06,5.11,21.26,21.26,0,0,1,1.13,2.82l1.61-1.77A13.41,13.41,0,0,0,471.2,308.89Z" fill="#b2b2b2"/><path d="M478.8,316.64l-1.91,2.07c1.31,5.77.71,12.81-1.47,20l3.84-.51C481.31,330.13,481.31,322.41,478.8,316.64Z" fill="#b2b2b2"/><path d="M478.55,340.69l-3.94.52a65.12,65.12,0,0,1-10.82,19.27l1.72,3.51A64.31,64.31,0,0,0,478.55,340.69Z" fill="#b2b2b2"/><path d="M443.83,375a16.65,16.65,0,0,1-10.69-.21,13.81,13.81,0,0,0,10,2.74Z" fill="#b2b2b2"/><path d="M462.05,362.47c-.16.2-.33.4-.51.59-5.16,5.63-10.65,9.43-15.81,11.31l-.81,2.91c5.93-1,12.6-4.88,18.84-11.36Z" fill="#b2b2b2"/><path d="M456.78,348.87c3.78-4.12,5.48-10.2,3.8-13.6s-6.1-2.8-9.87,1.32-5.48,10.2-3.8,13.6S453,353,456.78,348.87Z" fill="#b2b2b2"/><path d="M455,345.45c3.66-4.72,1.44-9.21-2.68-5.44C448.7,344.73,450.92,349.22,455,345.45Z" fill="#3c3c3b"/><path d="M445.74,303.11c1.37,5.12,3.88,8.06,7.78,8.86h0a7.21,7.21,0,0,0,8.51-5.6L467.7,281a7.21,7.21,0,0,0-5.61-8.51h0c-3.9-.8-7.71,1.71-8.39,5Z" fill="#042e3c"/><path d="M431.14,320.82a7.2,7.2,0,0,0,10,2.17l5.54-3.91,3.05-1.95.75-.48,1.35-.87,8-5.11a7.21,7.21,0,0,0,.23-12,7.33,7.33,0,0,0-1.15-.65,5.6,5.6,0,0,0-.68-.26A7.17,7.17,0,0,0,453,298a10.94,10.94,0,0,0-1,.54l-.61.45-18.53,13.59C430.59,314.36,429,317.47,431.14,320.82Z" fill="#042e3c"/><path d="M435,317.17a5,5,0,0,1,1.7,5.12,17.91,17.91,0,0,1-2.35,5.18,12.94,12.94,0,0,0-1.66,4c-.25.94-.24,1.7-.42,2.58-.47,2.39-3,2.43-2.53.24-.13,2.12-2.59,2.12-2-.58-.38,1.47-2.19,1.67-1.61-1.92-.36,1.37-1.7.45-1.43-1.65.33-2.66.95-6.86,2.25-9.21a9.25,9.25,0,0,1,3.32-3.69A4.62,4.62,0,0,1,435,317.17Z" fill="#fff"/><path d="M436.28,330.91a1.39,1.39,0,0,1-.46,1.31,1.31,1.31,0,0,1-1.53-.28c-1.05-.9-1-3.23-.84-4.6a6,6,0,0,1,1.11-3,26,26,0,0,0,2-3.59A32.59,32.59,0,0,0,436.28,330.91Z" fill="#fff"/><path d="M532.18,275c0-1.3.91-1.83,2-1.18a4.49,4.49,0,0,1,2,3.52c0,1.3-.91,1.83-2,1.18A4.51,4.51,0,0,1,532.18,275Z" fill="#def2f1"/><rect x="517.98" y="277.66" width="17.4" height="5.75" transform="translate(-69.71 300.92) rotate(-30)" fill="#def2f1"/><path d="M517.11,283.72c0-1.3.91-1.83,2-1.18a4.51,4.51,0,0,1,2,3.52c0,1.3-.91,1.83-2,1.18A4.49,4.49,0,0,1,517.11,283.72Z" fill="#3aafa9"/><path d="M490.77,250.87c0-1.3.91-1.83,2-1.18a4.52,4.52,0,0,1,2,3.53c0,1.29-.92,1.82-2,1.17A4.51,4.51,0,0,1,490.77,250.87Z" fill="#def2f1"/><rect x="476.57" y="253.51" width="17.4" height="5.75" transform="matrix(0.87, -0.5, 0.5, 0.87, -63.18, 276.98)" fill="#def2f1"/><path d="M475.7,259.57c0-1.3.91-1.83,2-1.18a4.49,4.49,0,0,1,2,3.53c0,1.29-.91,1.82-2,1.17A4.51,4.51,0,0,1,475.7,259.57Z" fill="#0595a3"/><path d="M419.25,377.12a6.24,6.24,0,0,1,1.91,3h0a11,11,0,0,1,.47,3.29h0a19.81,19.81,0,0,1-1.78,7.75,22.45,22.45,0,0,1-8.63,10.27,9.91,9.91,0,0,1-4.05,1.4,5.8,5.8,0,0,1-2.56-.32,4.93,4.93,0,0,1-1.41-.81c-1.49-1.22-2.38-3.37-2.38-6.27a21.2,21.2,0,0,1,3.05-10.26,24.35,24.35,0,0,1,1.54-2.35,19.63,19.63,0,0,1,5.81-5.41C414.45,375.52,417.34,375.56,419.25,377.12Z" fill="#042e3c"/><path d="M423.48,385c0-6.33-4.44-8.89-9.92-5.73s-9.91,10.85-9.91,17.18,4.44,8.88,9.91,5.72S423.48,391.35,423.48,385Z" fill="#dadada"/><path d="M413.56,399.39c-4.12,2.38-7.48.45-7.48-4.32a16.58,16.58,0,0,1,7.48-13c4.13-2.38,7.48-.44,7.48,4.32a16.54,16.54,0,0,1-7.48,13Zm0,3.37c5.75-3.31,10.4-11.38,10.4-18s-4.65-9.33-10.4-6-10.4,11.38-10.4,18,4.66,9.32,10.4,6Z" fill="#042e3c"/><path d="M415.9,392.1c2.6-5.45-1.26-7.68-4.68-2.7C408.62,394.85,412.48,397.08,415.9,392.1Z" fill="#042e3c"/><path d="M457.47,331.66l-.84.49v-3l.84-.48a8.55,8.55,0,0,0,3.81-6.15l4.8-49.56c0-4.43,1.62-8.21,6.78-10.89l3.49-2c1.53-1.16,3.13,1.05,1.66,2l-5.14,3a9.58,9.58,0,0,0-4.25,6.82l-4.8,49.55A14.21,14.21,0,0,1,457.47,331.66Z" fill="#3c3c3b"/><polygon points="415.9 390.01 413.35 391.49 413.35 354.56 457.91 328.4 457.91 350.12 455.35 352.03 455.35 333.27 415.9 356.04 415.9 390.01" fill="#042e3c"/><path d="M499.07,355.68l-.84.48v-3l.84-.48a8.57,8.57,0,0,0,3.81-6.15l4.8-49.56c-.21-4.47,3-9,6.78-10.89l3.42-2a1.3,1.3,0,0,1,1.73,1.95l-5.14,3a9.56,9.56,0,0,0-4.25,6.82l-4.8,49.54A14.23,14.23,0,0,1,499.07,355.68Z" fill="#042e3c"/><polygon points="457.5 422.57 454.95 424.05 454.95 378.58 499.51 352.42 495.63 372.19 493.07 374.1 496.95 357.29 457.5 380.06 457.5 422.57" fill="#042e3c"/><path d="M416.31,346.85l35.53-21a7.54,7.54,0,0,0,3.35-5.39l3.63-38.83c.32-3.42,2.87-7.21,5.67-8.41l1.68-.73,41.6,24h0L503,346a11.17,11.17,0,0,1-5,8l-47.34,27.33,4.54-2.23L414.59,360C407.72,356.71,412.66,349,416.31,346.85Z" fill="#def2f1"/><path d="M431.23,424.7v.47h0a2.89,2.89,0,0,0,1.41,1.88,8.17,8.17,0,0,0,7.44.27L452,421.06a2.46,2.46,0,0,0,1.59-2.25l0,0a15.66,15.66,0,0,0-.32-2.28,15.41,15.41,0,0,0-1.22-3.87h0c-.27-.62-.59-1.21-.9-1.77h0c-.37-.61-.76-1.22-1.15-1.79l-8.6.49a4.19,4.19,0,0,0-1.07,2.05h0c-.09.37-.17.76-.25,1.1a3.6,3.6,0,0,1-1.32,2.4c-3.46,2.3-6.45,5.42-7.29,8.12A4.33,4.33,0,0,0,431.23,424.7Zm3.5-4.3,4.66-4.14a5.75,5.75,0,0,0,2-2.73,7.27,7.27,0,0,0,.81.34,6.64,6.64,0,0,1-2.27,3L435.3,421a.44.44,0,0,1-.29.11.41.41,0,0,1-.31-.14A.42.42,0,0,1,434.73,420.4Z" fill="#042e3c"/><path d="M431,425.23c.08.28,0,0,0,0a3,3,0,0,0,1.43,1.92,8.39,8.39,0,0,0,7.59.27L452.16,421c1.86-1,1.66-2.32,1.66-2.32a6.11,6.11,0,0,0-.59-2.47c.38,1-3.79,2.56-5.58,4.09a30.65,30.65,0,0,1-8.41,5.14,10.76,10.76,0,0,1-3.58.93,4.55,4.55,0,0,1-3.41-1.14,2.38,2.38,0,0,1-.73-2.2A3.51,3.51,0,0,0,431,425.23Z" fill="#dadada"/><path d="M434.7,421a.41.41,0,0,0,.31.14.44.44,0,0,0,.29-.11L440,416.9a6.64,6.64,0,0,0,2.27-3,7.27,7.27,0,0,1-.81-.34,5.75,5.75,0,0,1-2,2.73l-4.66,4.14A.42.42,0,0,0,434.7,421Z" fill="#dadada"/><path d="M442.16,416.42a.43.43,0,0,0,.37-.21.44.44,0,0,0-.15-.59l-2.12-1.26a.43.43,0,0,0-.59.15.43.43,0,0,0,.15.59l2.12,1.26A.43.43,0,0,0,442.16,416.42Z" fill="#dadada"/><path d="M440.89,417.84a.43.43,0,0,0,.24-.79l-2.24-1.42a.43.43,0,1,0-.46.72l2.23,1.43A.53.53,0,0,0,440.89,417.84Z" fill="#dadada"/><path d="M439.42,419.19a.42.42,0,0,0,.37-.22.42.42,0,0,0-.16-.58l-2.3-1.35a.43.43,0,0,0-.59.16.44.44,0,0,0,.15.59l2.31,1.34A.43.43,0,0,0,439.42,419.19Z" fill="#dadada"/><path d="M433.48,365.12l10.39,6.35,8.08-4.72,29.7-17.29a8.3,8.3,0,0,0,4.09-6.6l1-14.87c-9.75,5.18-21.53,9.81-31.51,14.83a79.2,79.2,0,0,0-13.72,8.39C436.47,355.28,433.33,359.81,433.48,365.12Z" fill="#2b7a78"/><path d="M453,410.58c.08-13.38-.47-43.26-1.3-44.76a14.62,14.62,0,0,0-4.16-4.78c-2.29-1.51-5-2.87-7.66-2.35a8,8,0,0,0-6.44,6.43c-.56,3.26,4.64,43.67,5.23,45.54s5.27.41,7.15,1Z" fill="#2b7a78"/><path d="M438.73,410.73a3.49,3.49,0,0,0,1.36,2,4.16,4.16,0,0,0,.57.41,5.57,5.57,0,0,0,.76.41,7.27,7.27,0,0,0,.81.34,11.39,11.39,0,0,0,8.6-.36,5.37,5.37,0,0,0,1.23-.87,2.86,2.86,0,0,0,1-2.05v0a3.63,3.63,0,0,0-2-2.92,11.23,11.23,0,0,0-10.17-.39C439.16,408.16,438.44,409.46,438.73,410.73Z" fill="#2b7a78"/><path d="M411.66,413.47v.47h0a2.9,2.9,0,0,0,1.41,1.89,8.2,8.2,0,0,0,7.44.26l11.88-6.26a2.46,2.46,0,0,0,1.59-2.25l0,0a15.51,15.51,0,0,0-.32-2.27,15.36,15.36,0,0,0-1.22-3.88h0c-.27-.61-.59-1.21-.9-1.77h0c-.37-.62-.76-1.22-1.15-1.8l-8.6.49a4.23,4.23,0,0,0-1.07,2.05h0c-.08.37-.17.76-.25,1.1a3.65,3.65,0,0,1-1.32,2.41c-3.45,2.29-6.45,5.41-7.29,8.11A4.33,4.33,0,0,0,411.66,413.47Zm3.5-4.3,4.67-4.14a5.82,5.82,0,0,0,2-2.72,7.22,7.22,0,0,0,.81.33,6.64,6.64,0,0,1-2.27,3l-4.66,4.14a.42.42,0,0,1-.6,0A.42.42,0,0,1,415.16,409.17Z" fill="#042e3c"/><path d="M411.44,414c.09.28,0,0,0,0a3,3,0,0,0,1.43,1.92,8.39,8.39,0,0,0,7.59.27l12.11-6.38c1.86-1,1.66-2.32,1.66-2.32a6,6,0,0,0-.59-2.47c.38,1-3.79,2.56-5.58,4.1a31,31,0,0,1-8.4,5.13,10.89,10.89,0,0,1-3.58.93,4.56,4.56,0,0,1-3.42-1.14,2.39,2.39,0,0,1-.72-2.19A3.39,3.39,0,0,0,411.44,414Z" fill="#dadada"/><path d="M415.13,409.78a.42.42,0,0,0,.6,0l4.66-4.14a6.64,6.64,0,0,0,2.27-3,7.22,7.22,0,0,1-.81-.33,5.82,5.82,0,0,1-2,2.72l-4.67,4.14A.42.42,0,0,0,415.13,409.78Z" fill="#dadada"/><path d="M422.59,405.19A.43.43,0,0,0,423,405a.44.44,0,0,0-.15-.59l-2.12-1.26a.43.43,0,0,0-.59.15.43.43,0,0,0,.15.59l2.12,1.26A.43.43,0,0,0,422.59,405.19Z" fill="#dadada"/><path d="M421.33,406.62a.42.42,0,0,0,.36-.2.44.44,0,0,0-.13-.6l-2.23-1.42a.44.44,0,0,0-.6.13.44.44,0,0,0,.13.6l2.23,1.42A.55.55,0,0,0,421.33,406.62Z" fill="#dadada"/><path d="M419.85,408a.43.43,0,0,0,.22-.8l-2.31-1.35a.44.44,0,0,0-.59.16.43.43,0,0,0,.16.59l2.3,1.34A.46.46,0,0,0,419.85,408Z" fill="#dadada"/><path d="M418.24,409.43a.41.41,0,0,0,.35-.18.42.42,0,0,0-.11-.6l-2.17-1.48a.43.43,0,0,0-.49.71l2.18,1.48A.42.42,0,0,0,418.24,409.43Z" fill="#dadada"/><path d="M413.92,353.89l10.39,6.35,38.59-20.3c2.37-1.38,3.1-5.56,3.29-8.3l-1-12.53C443.38,330.7,412.66,338.77,413.92,353.89Z" fill="#2b7a78"/><path d="M433.48,399.35c.08-13.38-.48-43.26-1.3-44.76a14.74,14.74,0,0,0-4.16-4.78c-2.29-1.51-5-2.87-7.67-2.35a8,8,0,0,0-6.43,6.43c-.56,3.26,4.65,44,5.24,45.88s5.26.07,7.14.62Z" fill="#2b7a78"/><path d="M421.29,396.17c-2.87,1.51-3,4.14-.22,5.87a11.26,11.26,0,0,0,10.17.39c2.87-1.52,3-4.15.22-5.87A11.23,11.23,0,0,0,421.29,396.17Z" fill="#2b7a78"/><path d="M441.54,351.21a79.2,79.2,0,0,1,13.72-8.39c-3-1.4-4.55-2.95-5.33-7.19A13.72,13.72,0,0,1,449,343C447.65,346.34,442.65,347.84,441.54,351.21Z" fill="#1d1d1b" opacity="0.2"/><path d="M460.54,400.77a6.24,6.24,0,0,1,1.91,3h0a10.92,10.92,0,0,1,.47,3.29h0a19.73,19.73,0,0,1-1.78,7.74,22.47,22.47,0,0,1-8.63,10.28,9.89,9.89,0,0,1-4.05,1.39,5.8,5.8,0,0,1-2.56-.32,4.71,4.71,0,0,1-1.41-.81c-1.49-1.22-2.38-3.37-2.38-6.27a21.28,21.28,0,0,1,3.05-10.25,23.32,23.32,0,0,1,1.54-2.36,19.89,19.89,0,0,1,5.81-5.41C455.75,399.17,458.63,399.2,460.54,400.77Z" fill="#042e3c"/><path d="M464.77,408.67c0-6.32-4.44-8.89-9.92-5.72s-9.91,10.85-9.91,17.17,4.44,8.89,9.91,5.73S464.77,415,464.77,408.67Z" fill="#dadada"/><path d="M454.85,423c-4.12,2.38-7.48.44-7.48-4.32a16.56,16.56,0,0,1,7.48-13c4.13-2.39,7.49-.45,7.49,4.32a16.58,16.58,0,0,1-7.49,13Zm0,3.37c5.75-3.32,10.41-11.39,10.41-18s-4.66-9.32-10.41-6-10.4,11.39-10.4,18,4.66,9.32,10.4,6Z" fill="#042e3c"/><path d="M457.19,415.75c2.61-5.45-1.26-7.68-4.68-2.71C449.91,418.49,453.77,420.73,457.19,415.75Z" fill="#042e3c"/><path d="M451.36,324.06A13.21,13.21,0,0,0,458,335.53l5,2.88,7.09,4.07a13.21,13.21,0,0,0,6.52,1.76,13.61,13.61,0,0,0,2.71-.27,13.27,13.27,0,0,0,10.64-13l.38-13.9a3.89,3.89,0,0,1,0-1,1.56,1.56,0,0,0,0-.31l.77-28.94a39.24,39.24,0,0,0-13.73-13.58l-.19-.11a17.44,17.44,0,0,0-4.05-1.82l-.59-.17-.45-.1-.1,0a16.13,16.13,0,0,0-2-.32,14.29,14.29,0,0,0-6.86,1.15L463,272A13.28,13.28,0,0,0,461,273.1l-.08.06a16.47,16.47,0,0,0-6.66,10.15,20.19,20.19,0,0,0-.48,4.46l-.24,3.74-1.67,25.43-.26,3.92Z" fill="#042e3c"/><path d="M463.49,276.41a4.36,4.36,0,0,0,1.76,1.69,11,11,0,0,0,9.95,0c2.75-1.58,2.75-4.16,0-5.74a8.15,8.15,0,0,0-2.08-.83,10.08,10.08,0,0,0-1.24-.25,10.82,10.82,0,0,0-6.63,1.08,4.24,4.24,0,0,0-1.86,1.89A2.45,2.45,0,0,0,463.49,276.41Z" fill="#fff"/><rect x="463.19" y="257.02" width="14.07" height="18.21" fill="#fff"/><path d="M474.9,258.06a34.34,34.34,0,0,1-.68,6,11.7,11.7,0,0,1-2.63,5.36,8.91,8.91,0,0,1-8.13,2.65,4.84,4.84,0,0,1-2-.78,6.29,6.29,0,0,1-2-3.46A49.41,49.41,0,0,1,458,250.9a10,10,0,0,1,.38-2.5,6.8,6.8,0,0,1,5.7-4.25,13.41,13.41,0,0,1,7.24,1.51,6.36,6.36,0,0,1,1.73,1.1c.48.45.82,1,1.25,1.51S475.06,255,474.9,258.06Z" fill="#ffcea1"/><path d="M474.9,260.39a34.46,34.46,0,0,1-.68,6,11.75,11.75,0,0,1-2.63,5.36,8.91,8.91,0,0,1-8.13,2.65,5.14,5.14,0,0,1-2-.78,6.28,6.28,0,0,1-2-3.47A49.38,49.38,0,0,1,458,253.23a9.94,9.94,0,0,1,.38-2.49,6.8,6.8,0,0,1,5.7-4.25,13.32,13.32,0,0,1,7.24,1.51,6.33,6.33,0,0,1,1.73,1.09c.48.46.82,1,1.25,1.52S475.06,257.37,474.9,260.39Z" fill="#fff"/><path d="M463.49,276.41a8.89,8.89,0,0,0,8.09-2.65,9.75,9.75,0,0,0,1.54-2.23,13.86,13.86,0,0,0,1.1-3.13,34.34,34.34,0,0,0,.68-6c.05-1,.07-2.29.05-3.63,0,.54,0,1-.05,1.48a34.57,34.57,0,0,1-.68,6,12.07,12.07,0,0,1-2.34,5c-.1.12-.19.23-.3.34a8.94,8.94,0,0,1-8.12,2.65l-.07,0A2.45,2.45,0,0,0,463.49,276.41Z" fill="#def2f1"/><path d="M473.92,259.5a14,14,0,0,0,1.91-1.09,31.16,31.16,0,0,0-1.06,10,1.81,1.81,0,0,0,.42,1.29,1.41,1.41,0,0,0,.87.32,3.72,3.72,0,0,0,3.24-1.89,10.17,10.17,0,0,0,1.18-3.74c.29-1.64.54-3.28.74-4.93.42-3.34.93-7-.37-10.14a11.66,11.66,0,0,0-5-5.63A16.35,16.35,0,0,0,468,242a13.2,13.2,0,0,0-6.33,1.48,8.85,8.85,0,0,0-4.21,4.84,4.52,4.52,0,0,0-.17,2.72c.5,1.75,2.33,2.78,4.1,3.24a13.29,13.29,0,0,0,8.95-.81,6.33,6.33,0,0,1,1.77-.67,1.59,1.59,0,0,1,1.64.71,2.16,2.16,0,0,1,.17,1C473.93,255.57,473.88,259.43,473.92,259.5Z" fill="#042e3c"/><path d="M475.87,257a1.9,1.9,0,0,0-1.76,1.16,7.69,7.69,0,0,0-.63,2.58,6.9,6.9,0,0,0,.14,3.35,1.38,1.38,0,0,0,.55.73,1.25,1.25,0,0,0,1.36-.24,2.62,2.62,0,0,0,.69-1.18,17.67,17.67,0,0,0,.92-3.83,3.29,3.29,0,0,0-.07-1.56A1.52,1.52,0,0,0,475.87,257Z" fill="#fff"/><path d="M460.88,265.51l2.11,1.22a3.55,3.55,0,0,1,1.61,2.79c0,1-.72,1.45-1.61.93l-2.11-1.21a3.58,3.58,0,0,1-1.61-2.8C459.27,265.41,460,265,460.88,265.51Z" fill="#fff"/><path d="M474,342.8c3,1.72,2.34,1.79,5.33,1.16A13.25,13.25,0,0,0,490,331l.37-13.91a5.06,5.06,0,0,1,0-1,1.67,1.67,0,0,0,0-.31c-.1-3-10.1-21.29-11-22.53-.35,6.84,5.41,16.18,4.61,23-.43,3.63-9.45,8.91-12.79,16C469.16,336.62,474,342.8,474,342.8Z" fill="#1d1d1b" opacity="0.2"/><path d="M456.72,245.84l-.49,6.29c4.25.46,9.12,2.64,14.4,6h.08a15,15,0,0,0,9.51-4.82,17.41,17.41,0,0,0,1.64-2.09c.35-4.28-.82-7.73-3.92-10.13-7-4-13.39-3.4-19.3,1.17A5.1,5.1,0,0,0,456.72,245.84Z" fill="#2b7a78"/><path d="M450.09,258.9c-.2.09-.34-.23-.19-.38,2.79-2.87,5.62-6.09,6.33-6.39a15.2,15.2,0,0,1,3-.83c4.47-.11,11,2.69,13.46,6.42a21.5,21.5,0,0,1-3.94,3.7c-1.38,1.06-3.84,1.74-5.51.41C460.46,259.63,453.61,257.32,450.09,258.9Z" fill="#042e3c"/><path d="M470.71,258.09a15,15,0,0,0,9.51-4.82l-.64.41a11,11,0,0,1-3.53,1.45,1.77,1.77,0,0,1-2.55-1.41,27.81,27.81,0,0,1-.81-7.11l-.27,5.14a6.35,6.35,0,0,1-.84,3.42,7.87,7.87,0,0,0-1,1.34A1.87,1.87,0,0,0,470.71,258.09Z" fill="#042e3c"/><path d="M503.35,323.5c-16.48,2.2-35,22.36-41.29,45-5,17.74-1,31.76,8.85,36l0,0a14.75,14.75,0,0,0,3.68,1.05s0,0,0,0a19.79,19.79,0,0,0,5.76,0,31,31,0,0,0,10.88-3.82,55.76,55.76,0,0,0,14.07-11.58c.58-.65,1.16-1.32,1.73-2a76.38,76.38,0,0,0,13.44-23.94v0c.29-.83.56-1.65.79-2.49.13-.39.25-.77.35-1.17a53.41,53.41,0,0,0,2.14-15c-.09-6.81-1.85-12.45-5-16.34a15.66,15.66,0,0,0-2.86-2.78A16.64,16.64,0,0,0,503.35,323.5Zm-17.14,77.42L487,398c-.65.23-1.27.43-1.9.6l-.72,2.53a13.86,13.86,0,0,1-10-2.73,12.59,12.59,0,0,1-4.67-3.24,10.41,10.41,0,0,1-1.06-1.29,15,15,0,0,1-1.49-2.44c-.1-.19-.19-.38-.28-.59-3.16-7-2.55-16.91,1-26.86,0,0,0-.06,0-.08a64.69,64.69,0,0,1,11.69-20.12.38.38,0,0,1,.11-.11c.36-.43.75-.87,1.14-1.29,6.93-7.56,14.48-11.81,21-12.56a18.38,18.38,0,0,1,2.44-.1,15.43,15.43,0,0,1,1.69.13,12.84,12.84,0,0,1,6.43,2.67,13.38,13.38,0,0,1,6.8,6.16l-1.61,1.78c.18.61.35,1.25.5,1.89l1.91-2.08c2.52,5.77,2.52,13.49.46,21.57l-3.84.51q-.37,1.23-.81,2.49l3.94-.52a64.35,64.35,0,0,1-13,23.3l-1.73-3.51c-.56.68-1.14,1.35-1.74,2l1.71,3.44C498.81,396,492.14,399.87,486.21,400.92Z" fill="#042e3c"/><path d="M506.52,328.22l-1.8.24-.22.77-.13.5-.61,2.13-7,25.11s0,0,0,0l-1.57,5.59-.27,1-.49,1.76-.2.72h0l-.3,1-.2.73-.49,1.76-.24.84L491.43,376l-6.31,22.58-.72,2.53-.73,2.62-.25.91,1.8-.24.26-.89.73-2.62L487,398l6.2-22.21,1.58-5.63h0l.22-.83.5-1.76.2-.71v0l.28-1,.2-.73.49-1.75.27-1,1.59-5.62,7-25.1.5-1.76.24-.87Z" fill="#fff"/><polygon points="483.81 341.14 482.04 343.07 482.31 343.62 483.13 345.27 491.08 361.33 492.83 364.87 492.83 364.89 493.13 365.5 493.7 366.62 493.92 367.08 494.25 367.74 494.49 368.2 495.03 369.33 495.32 369.88 497.1 373.49 503.34 386.12 505.05 389.56 505.36 390.19 505.86 391.21 506.13 391.75 507.9 389.82 507.62 389.28 507.09 388.19 506.81 387.63 505.08 384.12 498.87 371.58 497.1 367.98 496.8 367.41 496.26 366.28 496.02 365.81 495.69 365.15 495.46 364.69 494.91 363.56 494.6 362.93 492.83 359.38 484.91 343.33 484.08 341.68 483.81 341.14" fill="#fff"/><polygon points="523.01 361.52 522.45 361.59 521.33 361.75 520.55 361.85 516.71 362.36 502.29 364.28 498.18 364.82 497.51 364.92 497.5 364.91 496.22 365.08 495.69 365.15 494.96 365.25 494.95 365.24 494.42 365.32 493.13 365.5 492.46 365.58 488.44 366.12 470.2 368.54 468.3 368.8 467.64 368.89 466.94 371.38 467.58 371.3 469.5 371.04 487.76 368.61 491.81 368.06 492.45 367.98 493.72 367.81 494.25 367.74 495 367.65 495.53 367.57 496.8 367.41 497.45 367.31 501.59 366.77 515.9 364.85 519.84 364.33 520.53 364.25 520.54 364.23 521.74 364.08 522.3 364 523.01 361.52" fill="#fff"/><polygon points="521.67 336.1 521.13 336.69 519.29 338.69 517.68 340.47 501.43 358.19 497.41 362.57 496.71 363.33 495.46 364.69 494.96 365.25 494.95 365.24 494.23 366.04 494.22 366.05 493.7 366.62 492.45 367.98 491.83 368.66 487.87 372.97 470 392.47 468.7 393.88 468.17 394.46 467.48 395.21 468.27 396.79 468.94 396.05 469.76 395.17 470.79 394.05 488.66 374.57 492.63 370.22 493.23 369.57 494.49 368.2 495 367.65 495.73 366.86 495.74 366.84 496.26 366.28 497.5 364.91 497.51 364.92 498.17 364.19 502.21 359.78 518.18 342.36 520.09 340.28 521.92 338.29 522.48 337.69 521.67 336.1" fill="#fff"/><path d="M482.33,340.7c-.88,1-1.74,2-2.56,3a.38.38,0,0,0-.11.11A75.61,75.61,0,0,0,468,363.91s0,.06,0,.08c-4.8,12.44-5.69,25-1.48,33.55a16.11,16.11,0,0,0,8.16,8s0,0,0,0c8.9,3.64,21.71-1.1,33.09-13.51,15.77-17.19,22.89-42.68,15.89-56.85a16.71,16.71,0,0,0-4.8-6C510.07,322.39,495.28,326.6,482.33,340.7Zm21.43-8.84a14.6,14.6,0,0,1,1.8-.24,14.9,14.9,0,0,1,6.93.91,13.38,13.38,0,0,1,6.8,6.16c.16.25.28.51.42.78s.26.54.38.81c2.52,5.77,2.52,13.49.46,21.57-.22.82-.46,1.66-.71,2.48a64.35,64.35,0,0,1-13,23.3c-.26.3-.53.61-.81.91l-.95,1c-6.24,6.48-12.91,10.31-18.84,11.36a16.53,16.53,0,0,1-1.81.22,13.86,13.86,0,0,1-10-2.73,14.31,14.31,0,0,1-3.64-4.36c-.16-.25-.28-.51-.42-.78s-.25-.53-.37-.8c-2.52-5.74-2.53-13.4-.5-21.43.21-.84.44-1.66.7-2.5a64.39,64.39,0,0,1,12.93-23.27c.31-.36.61-.7.94-1s.55-.6.84-.89C491.13,336.82,497.81,333,503.76,331.86Z" fill="#fff"/><path d="M516,326.42a17.91,17.91,0,0,0-9.46-1.09c-16.47,2.2-34.95,22.35-41.28,45-4.39,15.7-1.8,28.48,5.68,34.13l0,0a16.68,16.68,0,0,0,12.64,2.92c16.46-2.19,34.94-22.33,41.28-45C529.8,344.64,525.83,330.61,516,326.42Zm5.16,10.27c.28.5.54,1,.79,1.6a25.41,25.41,0,0,1,1.9,7.25,44.22,44.22,0,0,1-1.37,16c-.11.39-.21.78-.32,1.19s-.25.88-.39,1.3a69,69,0,0,1-14.12,25.2c-.58.67-1.17,1.3-1.76,1.93a45.63,45.63,0,0,1-14.57,10.56,25.74,25.74,0,0,1-5.81,1.77l-.86.13c-.31,0-.65.07-.95.09-6.68.58-11.78-2.36-14.73-7.71-.28-.51-.53-1-.77-1.59a20.68,20.68,0,0,1-1.24-3.61c-1.37-5.35-1.24-12.06.65-19.55.13-.43.24-.87.36-1.32s.23-.79.36-1.18a69.14,69.14,0,0,1,14-25.18c.58-.67,1.18-1.31,1.77-1.94,5.54-5.81,11.77-10.05,17.85-11.85a24.43,24.43,0,0,1,2.57-.6c.31-.06.64-.11.95-.15s.58-.07.85-.09C513,328.37,518.16,331.31,521.13,336.69Z" fill="#042e3c"/><path d="M512.49,332.53a14.63,14.63,0,0,1,4.06,5.12,19.07,19.07,0,0,1,1.13,2.82l1.61-1.78A13.38,13.38,0,0,0,512.49,332.53Z" fill="#def2f1"/><path d="M520.09,340.28l-1.91,2.08c1.31,5.76.71,12.81-1.47,20l3.84-.51C522.61,353.77,522.61,346.05,520.09,340.28Z" fill="#def2f1"/><path d="M519.84,364.33l-3.94.52a65.12,65.12,0,0,1-10.82,19.27l1.73,3.51A64.35,64.35,0,0,0,519.84,364.33Z" fill="#def2f1"/><path d="M485.12,398.61a16.65,16.65,0,0,1-10.69-.2,13.86,13.86,0,0,0,10,2.73Z" fill="#def2f1"/><path d="M503.34,386.12c-.16.2-.33.39-.51.59-5.16,5.62-10.65,9.42-15.81,11.3l-.81,2.91c5.93-1.05,12.6-4.88,18.84-11.36Z" fill="#def2f1"/><path d="M498.08,372.52c3.77-4.12,5.47-10.21,3.8-13.6s-6.1-2.81-9.88,1.31-5.48,10.21-3.8,13.6S494.3,376.64,498.08,372.52Z" fill="#fff"/><path d="M496.34,369.09c3.65-4.72,1.43-9.2-2.69-5.43C490,368.37,492.21,372.86,496.34,369.09Z" fill="#042e3c"/><path d="M489.77,319.4a7.27,7.27,0,0,0,9.52,3.84h0a7.27,7.27,0,0,0,3.84-9.52l-10.92-25.67a7.26,7.26,0,0,0-9.52-3.83h0a7.26,7.26,0,0,0-3.84,9.52Z" fill="#042e3c"/><path d="M475.86,329.61c-7.14,6.58,3.6,12.18,3.6,12.18,2.51,1.48,4.53.5,7.2-2.49L502.23,322a7.26,7.26,0,0,0-.55-10.25h0a7.26,7.26,0,0,0-10.25.55Z" fill="#042e3c"/><path d="M479.06,334.28a5,5,0,0,1,3.19,4.4,17.78,17.78,0,0,1-.67,5.69,13,13,0,0,0-.36,4.34,22,22,0,0,0,.3,2.26c.11.95-1.19,2.13-1.7.54.42,3-1.59,3-1.86,2.05a1.14,1.14,0,0,1-2.28-.07c.07,1.42-1.23,1-1.77-.17a21.32,21.32,0,0,1-1.47-13,9.43,9.43,0,0,1,2.06-4.55A4.66,4.66,0,0,1,479.06,334.28Z" fill="#fff"/><path d="M469.05,345.72a1.4,1.4,0,0,0-.26,1.38,1.31,1.31,0,0,0,1.48.53c1.36-.26,2.51-2.31,3.05-3.59a6,6,0,0,0,.52-3.15,27.5,27.5,0,0,1,0-4.16A32.35,32.35,0,0,1,469.05,345.72Z" fill="#fff"/><path d="M449.69,317.13l.75-.48,1.35-.87a.79.79,0,0,1,0-.13L453,298l.51-7.78a58.16,58.16,0,0,0-2.13,8.77A131.51,131.51,0,0,0,449.69,317.13Z" fill="#1d1d1b" opacity="0.2"/><polyline points="259 398.4 115.43 500 260.34 500 260.34 398.4" fill="#3aafa9"/><polygon points="276.18 386.63 115.43 500 0.06 500.48 0 82.05 265.76 172.04 276.18 386.63" fill="#2b7a78"/></g></g></svg>