<svg xmlns="http://www.w3.org/2000/svg" xmlns:xlink="http://www.w3.org/1999/xlink" viewBox="0 0 1020 500"><defs><clipPath id="clip-path"><rect x="557.17" y="77.59" width="224.34" height="141.94" transform="translate(1338.67 297.11) rotate(-180)" fill="none"/></clipPath></defs><title>ENABLE UPDATED</title><g style="isolation:isolate"><g id="OBJECTS"><rect y="0.05" width="1020" height="500" fill="#3aafa9"/><rect y="355.52" width="1020" height="144.52" transform="translate(1020 855.57) rotate(-180)" fill="#2b7a78"/><rect y="328.33" width="1020" height="12.12" transform="translate(1020 668.79) rotate(180)" fill="#2b7a78"/><rect x="339.91" y="66.28" width="132.05" height="88.91" transform="translate(811.87 221.48) rotate(-180)" fill="#fff" opacity="0.4"/><polygon points="471.96 66.28 383.49 154.75 359.6 154.75 448.3 66.05 471.96 66.28" fill="#fff" opacity="0.1"/><polygon points="441.42 66.28 352.96 154.75 347.07 154.75 435.77 66.05 441.42 66.28" fill="#fff" opacity="0.1"/><path d="M326.49,53.05H485.33V168H326.49Zm151.12,7.71H334.21v99.56h143.4Z" fill="#2b7a78"/><rect x="188.79" y="66.28" width="132.05" height="88.91" transform="translate(509.63 221.48) rotate(-180)" fill="#fff" opacity="0.4"/><polygon points="320.84 66.28 232.38 154.75 208.48 154.75 297.18 66.05 320.84 66.28" fill="#fff" opacity="0.1"/><polygon points="290.31 66.28 201.84 154.75 195.95 154.75 284.65 66.05 290.31 66.28" fill="#fff" opacity="0.1"/><path d="M175.38,53.05H334.21V168H175.38Zm151.11,7.71H183.09v99.56h143.4Z" fill="#2b7a78"/><path d="M329.68,278.35s-30.52,66.54-42.89,87.41-7.27,50.8,23.86,50.8h73.74Z" fill="#042e3c"/><path d="M497.07,416.57h73.75a39,39,0,0,0,9.75-1.15c19.92-5,24.24-25.93,17.15-43.49a45.24,45.24,0,0,0-3-6.17c-12.37-20.87-42.89-87.41-42.89-87.41Z" fill="#042e3c"/><path d="M481.52,188.4c12-11.8,8.88-40.23,8.88-40.23l-51.89-29.65-49.35,29.65s-.05,27.81,12.26,39.77Z" fill="#042e3c"/><path d="M524.31,453.18s.51.75,1.32,2.1c-17.63-3-35.81-3.12-53.6-2.62-23.11.65-46.22.74-69.33,1.38-16.06.43-32.15,1-48.24,1.34,1.49-1.42,2.45-2.2,2.45-2.2l-6.14-83.52-45.13-40.73L328.74,280c.05-.12.13-.2.17-.32,8.37-15.12,24.79-24,42.06-24H510.45c17.27,0,33.69,8.9,42.06,24,0,.12.13.2.17.32l20.84,47.64-43.07,42.18Z" fill="#042e3c"/><path d="M495.35,281.7s-36.6,49.68-91.7,9.21" fill="none" stroke="#d57300" stroke-miterlimit="10"/><path d="M402.09,255.66C408.18,275,419.37,289,440.71,289s32.1-14,38.2-33.37H477a10.49,10.49,0,0,1-9.51-6.1,10,10,0,0,1-.93-3.29l-3.82-36.58-1.67-16.17h-40.8l-1.79,17.19-2.19,21-1.51,14.55a10.51,10.51,0,0,1-10.44,9.39Z" fill="#fff"/><path d="M416.33,231.72c14,12.89,30.07,15.57,51.2,17.84a10,10,0,0,1-.93-3.29l-3.82-36.58c-15.4-.85-32.88-1.05-44.26,1Z" fill="#def2f1"/><polygon points="466.6 243.55 453.15 274.37 476 297.32 481.51 255.66 466.6 243.55" fill="#fff"/><polygon points="415.33 243.55 428.77 274.37 405.93 297.32 400.41 255.66 415.33 243.55" fill="#fff"/><path d="M401.42,187.94c-8.64-7.78-16.62-6.14-17,5.83s12.85,18.29,20.81,12.61S401.42,187.94,401.42,187.94Z" fill="#fff"/><path d="M481.52,188.4c8-8.45,16.08-7.45,17.43,4.45s-11.35,19.25-19.74,14.23S481.52,188.4,481.52,188.4Z" fill="#fff"/><path d="M478.55,142.46s18.24,90.79-33.82,95.5c-55.58,5-42.8-95.5-42.8-95.5Z" fill="#fff"/><path d="M426.25,208.86a13.51,13.51,0,0,0,1.59,3.64c.28.42.58.88.93,1.33a7.23,7.23,0,0,0,.54.62,3.27,3.27,0,0,0,.32.33c2.38,2.57,6.3,4.95,12.81,4.71l0,0,.48,0v0c6.08-.45,9.72-3,11.84-5.61l.06-.08c.18-.21.35-.45.5-.66v0a14.31,14.31,0,0,0,1.29-2.19,14.68,14.68,0,0,0,1.18-3.8Z" fill="#3aafa9"/><path d="M470.6,149.33s-33.24,19.54-60.74-6.87c0,0,1.12,15.25-9.86,20.74l-10.84-15s-1.85-26.69,14.22-22.45c0,0,20.23-46.6,60.28-25.11S515.2,158.1,489.48,160C489.48,160,478.37,162.4,470.6,149.33Z" fill="#042e3c"/><path d="M219.44,395.22,153,296.13a6.63,6.63,0,0,1-.4-6.69l40.7-80.11a6.62,6.62,0,1,1,11.81,6L166.17,292l64.27,95.86a6.62,6.62,0,0,1-11,7.38ZM198.39,209.83a2.62,2.62,0,0,0-1.52,1.31l-40.71,80.11a2.62,2.62,0,0,0,.16,2.65L222.76,393a2.69,2.69,0,0,0,3.64.72,2.63,2.63,0,0,0,.72-3.64l-65.58-97.82,40-78.73a2.63,2.63,0,0,0-1.16-3.53,2.57,2.57,0,0,0-1.18-.29A2.92,2.92,0,0,0,198.39,209.83Z" fill="#042e3c"/><circle cx="160.26" cy="292.44" r="12.57" fill="#2b7a78"/><path d="M265.17,218.38a7.72,7.72,0,0,1,3.76,10.26l-.16.35a7.73,7.73,0,0,1-10.26,3.77L256,231.61l6.66-14.38Z" fill="#def2f1"/><polygon points="207.79 217.28 248.29 260.78 279.92 192.46 220.55 189.72 207.79 217.28" fill="#042e3c"/><path d="M208.22,184l12.33,5.71-12.76,27.55-12.33-5.7a6.45,6.45,0,0,1-3.14-8.56l7.34-15.86A6.45,6.45,0,0,1,208.22,184Z" fill="#2b7a78"/><circle cx="160.26" cy="292.44" r="6.29" fill="#032631"/><path d="M206.25,385.31h32.81a0,0,0,0,1,0,0v20.64a5.78,5.78,0,0,1-5.78,5.78H212a5.78,5.78,0,0,1-5.78-5.78V385.31A0,0,0,0,1,206.25,385.31Z" transform="translate(445.3 797.03) rotate(-180)" fill="#032631"/><path d="M186.86,402.48h71.58a0,0,0,0,1,0,0v5.2a8.88,8.88,0,0,1-8.88,8.88H195.75a8.88,8.88,0,0,1-8.88-8.88v-5.2A0,0,0,0,1,186.86,402.48Z" transform="translate(445.3 819.04) rotate(-180)" fill="#042e3c"/><polygon points="248.29 260.78 337.49 399.23 468.22 281.04 279.92 192.46 248.29 260.78" fill="#d1d3d4" opacity="0.2" style="mix-blend-mode:hard-light"/><path d="M337.49,282V399.23a3.64,3.64,0,0,0,3.64,3.64H540.52a3.64,3.64,0,0,0,3.65-3.64V282a3.64,3.64,0,0,0-3.65-3.65H341.13A3.64,3.64,0,0,0,337.49,282Z" fill="#def2f1"/><rect x="337.48" y="402.87" width="206.68" height="13.69" rx="2.87" transform="translate(881.65 819.43) rotate(-180)" fill="#def2f1"/><path d="M454.43,338.12c-7.82,0-10.09-8.57-6.85-13.59a17.44,17.44,0,1,0,10.68,16.08,17.69,17.69,0,0,0-.3-3.19A8.65,8.65,0,0,1,454.43,338.12Z" fill="#fff"/><path d="M665,368.62l-.94,7.83-.62,5.13-2,16.91-.61,5.13-1.36,11.32a1.83,1.83,0,0,1-1.81,1.62H631.41a1.83,1.83,0,0,1-1.81-1.62l-.46-3.8L624,368.62a1.83,1.83,0,0,1,1.81-2.05h37.38A1.83,1.83,0,0,1,665,368.62Z" fill="#3aafa9"/><path d="M665.29,376.4c-.4,0-.8,0-1.19.05a13.72,13.72,0,0,0-5.87,1.88,13.94,13.94,0,0,0-6.92,12.05,14.25,14.25,0,0,0,.45,3.54,14,14,0,0,0,9.08,9.7,13.66,13.66,0,0,0,4.45.73,14,14,0,1,0,0-28Zm0,23a9,9,0,0,1-1.81-17.77,9,9,0,1,1,1.81,17.77Z" fill="#3aafa9"/><path d="M640.13,363.35a1,1,0,0,1-.44-.1c-.19-.09-4.84-2.37-6.13-6.7a8.76,8.76,0,0,1,1.21-7.21c4.17-6.9,4.85-12.32,1.83-14.51a1,1,0,1,1,1.17-1.62c1.9,1.38,5.58,5.8-1.29,17.16a6.86,6.86,0,0,0-1,5.61c1,3.49,5,5.45,5.08,5.47a1,1,0,0,1,.47,1.34A1,1,0,0,1,640.13,363.35Z" fill="#fff"/><path d="M651.32,358.53a1,1,0,0,1-.44-.1c-.19-.09-4.84-2.38-6.13-6.7a8.78,8.78,0,0,1,1.21-7.22c4.17-6.89,4.85-12.31,1.83-14.5a1,1,0,1,1,1.17-1.62c1.9,1.37,5.58,5.8-1.29,17.16a6.86,6.86,0,0,0-1,5.61c1,3.49,5,5.45,5.08,5.47a1,1,0,0,1-.43,1.9Z" fill="#fff"/><path d="M539,44.53V244.06a11.52,11.52,0,0,0,11.43,11.6h295.2a11.52,11.52,0,0,0,11.43-11.6V44.53a11.52,11.52,0,0,0-11.43-11.6H550.43A11.52,11.52,0,0,0,539,44.53Z" fill="#fff"/><polygon points="675.84 229.91 573.52 281.04 596.3 223.82 675.84 229.91" fill="#fff"/><path d="M539,44.37V67.76H857.06V44.37a11.44,11.44,0,0,0-11.43-11.44H550.43A11.44,11.44,0,0,0,539,44.37Z" fill="#2b7a78"/><text transform="translate(741.27 55.33)" font-size="11.33" fill="#fff" font-family="Montserrat-Black, Montserrat" font-weight="800">JOB INTER<tspan x="64.82" y="0" letter-spacing="-0.01em">V</tspan><tspan x="73.56" y="0" letter-spacing="0em">I</tspan><tspan x="77.52" y="0" letter-spacing="-0.01em">E</tspan><tspan x="85.04" y="0">W</tspan></text><text transform="translate(574.27 55.33)" font-size="11.33" fill="#fff" font-family="Montserrat-Black, Montserrat" font-weight="800">ONLINE</text><circle cx="563.27" cy="51.19" r="4.14" fill="#fff"/><rect x="557.17" y="77.59" width="224.34" height="141.94" transform="translate(1338.67 297.11) rotate(-180)" fill="#2b7a78"/><g clip-path="url(#clip-path)"><path d="M707.07,175.52l6.77-6.39s9.6,4.67,14.39,39.39,5.23,70.92,5.23,70.92h-39Z" fill="#3aafa9"/><path d="M633.61,175.52l-6.78-6.39s-9.6,4.67-14.39,39.39-5.22,70.92-5.22,70.92h39Z" fill="#3aafa9"/><path d="M688.79,95.72s13.71.12,13.71,17.93c.25,15,0,67.34,0,67.34s-27.16,18.78-62.94,0V125.92c0-15,6.85-33.76,22.84-37.56S687.52,91.91,688.79,95.72Z" fill="#042e3c"/><path d="M708.2,233.76c-5.1,13.82,0,42,0,42a26.18,26.18,0,0,1,1.76,2c-5.1,3.13-11.46,3.71-17.48,3.89a217.65,217.65,0,0,1-22.55-.91c-13.7-1-27.47-.94-41.21-.84a28.56,28.56,0,0,1,3.44-4.1s5.11-28.22,0-42a54.7,54.7,0,0,1-3.25-25.24l-14.39-7.23s6.42-30,12.52-32.16,28.33-6.4,29.86-8.53c.78-1.1,7.1-1.63,13.28-1.59s12.51.49,13.28,1.59c1.23,1.71,15.85,4.8,24.7,7.06h0c2.16.54,4,1,5.17,1.46,6.09,2.13,12.54,31.18,12.54,31.18l-14.42,8.21A54.53,54.53,0,0,1,708.2,233.76Z" fill="#3aafa9"/><path d="M691.21,128.2c6-5.94,4.47-20.25,4.47-20.25L669.56,93,644.72,108s0,14,6.17,20Z" fill="#042e3c"/><path d="M649.47,163.3S655.35,187,670.8,187c10.3-8.82,21.9-23.12,21.9-23.12-6.43-1.47-11.74-6.53-11.74-6.53l-.05-.44-1.87-18,.37-1.55,1.53-6.59H660.4l1.84,8.65-.73,7-.38,3.57,0,.57-.71,6.75C660.1,159.16,652,162.65,649.47,163.3Z" fill="#fff"/><path d="M660.1,149.47a11,11,0,0,0,1,1.11c2.28,2.33,8.66,7.44,19.83,6.31l-1.87-18,.37-1.55-6-.8-10,5.86-1.85,4Z" fill="#def2f1"/><path d="M650.89,128c-4.35-3.92-8.37-3.09-8.57,2.93s6.47,9.21,10.48,6.35S650.89,128,650.89,128Z" fill="#fff"/><path d="M691.21,128.2c4-4.25,8.1-3.75,8.78,2.24s-5.71,9.69-9.94,7.16S691.21,128.2,691.21,128.2Z" fill="#fff"/><path d="M689.72,105.07c3.67,0,6.66,45.72-18.26,48.08-26.71,1.27-21.29-48.08-21.29-48.08Z" fill="#fff"/><path d="M664.28,117.43c-6.59,3.3-11.21,3.08-5.74-.25S667.69,115.71,664.28,117.43Z" fill="#032631"/><path d="M680,101.94s-7.65,20.62-27.68,18.79a68.74,68.74,0,0,1,1.13,14.9L648.25,121s-3.9-18,1.92-19.08S680,101.94,680,101.94Z" fill="#042e3c"/><path d="M676.45,103.43s4.95,10,14.89,12.57a31.1,31.1,0,0,0,.36,18.1s3.27-14.86,3.4-21.53A27.6,27.6,0,0,0,692.84,101Z" fill="#042e3c"/><line x1="658.86" y1="155.91" x2="666.72" y2="155.91" fill="none"/><path d="M675.68,239.16a68.58,68.58,0,0,0,17.21-2.08,2.74,2.74,0,0,0-1.49-5.28c-.37.11-23.49,6.36-42.91-4.92a2.74,2.74,0,1,0-2.75,4.74C656,237.57,666.92,239.16,675.68,239.16Z" fill="#d1d3d4"/><polygon points="711.74 210.25 713.04 193.12 712.21 193.05 711.16 206.78 708.55 200.69 707.78 201.02 711.74 210.25" fill="#d1d3d4"/><polygon points="628.71 210.25 632.67 201.02 631.9 200.69 629.28 206.78 628.24 193.05 627.41 193.12 628.71 210.25" fill="#d1d3d4"/><path d="M670.51,187s12.59-16.07,13.07-21.48-2.62-8.12-2.62-8.12l-.47-4.67s8.18,4.35,11.37,10.4-3.43,5.1-3.43,5.1,8.54,3,.9,9.24-18.82,10.64-18.82,15.74Z" fill="#2b7a78"/><path d="M670.51,187s-12.6-16.07-13.08-21.48,2.94-7.83,2.94-7.83l.48-5.12s-8.51,4.51-11.69,10.56,3.42,5.1,3.42,5.1-8.54,3-.9,9.24,18.83,10.64,18.83,15.74Z" fill="#2b7a78"/></g><rect x="557.17" y="229.36" width="222.9" height="3.71" rx="1.85" fill="#bcbec0"/><rect x="557.17" y="239.36" width="136.73" height="3.71" rx="1.85" fill="#bcbec0"/><rect x="789.16" y="127.34" width="57.5" height="3.71" rx="1.85" fill="#bcbec0"/><rect x="789.16" y="137.34" width="57.5" height="3.71" rx="1.85" fill="#bcbec0"/><rect x="789.16" y="147.34" width="57.5" height="3.71" rx="1.85" fill="#bcbec0"/><rect x="789.16" y="157.34" width="57.5" height="3.71" rx="1.85" fill="#bcbec0"/><rect x="789.16" y="167.34" width="35.27" height="3.71" rx="1.85" fill="#bcbec0"/><rect x="789.16" y="205.71" width="57.5" height="3.71" rx="1.85" fill="#bcbec0"/><rect x="789.16" y="215.71" width="35.27" height="3.71" rx="1.85" fill="#bcbec0"/><circle cx="817.91" cy="98.05" r="18.67" fill="#2b7a78"/><path d="M814.7,324.68s10.4,80-17.75,147.67H769.42S771.25,365.35,814.7,324.68Z" fill="#fff"/><path d="M804.91,472.35s15.3-69,58.74-104.34c0,0-63,18-75.27,104.34Z" fill="#3aafa9"/><path d="M775,465.48s6.75-76.69-23.68-127.93c0,0,54.4,39.85,39.4,133.48Z" fill="#042e3c"/><path d="M757.94,472.35s.61-34.84-16.67-52.17c0,0,35,1.17,41,52.17Z" fill="#3aafa9"/><path d="M756.26,379.35s-.15,51,9.48,93h22.64S776.15,409.85,756.26,379.35Z" fill="#fff"/><path d="M799.25,472.35s14.68-45.5,46.35-55c0,0-18.05,24.7-27.08,55Z" fill="#042e3c"/><polygon points="744.5 467.05 748.39 479.88 751.67 490.71 754.5 500.05 826.85 500.05 829.68 490.71 832.96 479.88 836.85 467.05 744.5 467.05" fill="#3aafa9"/><polygon points="748.39 479.88 751.67 490.71 829.68 490.71 832.96 479.88 748.39 479.88" fill="#042e3c"/><rect x="137.17" y="416.56" width="591.33" height="22.89" rx="5.66" transform="translate(865.67 856.02) rotate(-180)" fill="#3aafa9"/><rect x="167.03" y="439.46" width="524.19" height="60.59" transform="translate(858.26 939.5) rotate(-180)" fill="#3aafa9"/><polygon points="167.03 439.46 691.23 480.05 691.23 439.46 167.03 439.46" fill="#2b7a78"/></g></g></svg>