<svg xmlns="http://www.w3.org/2000/svg" xmlns:xlink="http://www.w3.org/1999/xlink" viewBox="0 0 1020 500"><defs><clipPath id="clip-path"><rect width="1019.15" height="499.83" fill="none"/></clipPath></defs><title>ENABLE UPDATED</title><g id="OBJECTS"><polygon points="310.25 -16.72 310.25 -11.23 333.98 2.47 333.98 -3.01 310.25 -16.72" fill="#3aafa9"/><polygon points="310.25 -16.72 310.25 -11.23 333.98 2.47 333.98 -3.01 310.25 -16.72" opacity="0.3" style="isolation:isolate"/><polygon points="409.95 -46.88 409.95 -41.39 333.98 2.47 333.98 -3.01 409.95 -46.88" fill="#3aafa9"/><polygon points="409.95 -46.88 409.95 -41.39 333.98 2.47 333.98 -3.01 409.95 -46.88" opacity="0.15" style="isolation:isolate"/><g clip-path="url(#clip-path)"><rect width="1020" height="500" fill="#3aafa9"/><path d="M816.24,295.24c.94,4.65,2,9,3.7,11.3,10.48,14,21.24,31,23.58,57.46a1167.17,1167.17,0,0,1,3.57,125.46c.58,5.64,5.16,19.23,6.53,51.39,1.1,25.65.32,65.55.32,65.55s-18.21,9.34-34.33,3.58c-6.85-24.34-18.68-83-25.52-110.84-7.22-29.4-14.69-64.53-14.69-64.53l-9.84,51.81a149.37,149.37,0,0,1,.37,33.35c-1.62,17.16-14.13,77.85-14.13,77.85s-20.28,6.68-34.24-2.61c0,0-3.22-85.4-3.67-104.25s.54-130.94,11.29-180.45a104.56,104.56,0,0,0,.48-11.47C743.33,309.78,798.48,307.7,816.24,295.24Z" fill="#2b7a78"/><path d="M779.4,434.66l-9.42-63a39.94,39.94,0,0,1-32.27-14.61s-.14,15.8,26,22.45l10.89,58.08-5,49Z" fill="#17252a"/><path d="M729.26,309.44s13.31,9.68,44.14,7.63S819,305,818.74,304.42h0a43.23,43.23,0,0,1-2.26-8c-.11-.47-.19-.87-.24-1.18-17.74,12.45-72.91,14.52-86.63,3.65,0,0,0,7.37-.35,10.55Z" fill="#263238"/><path d="M837,157.35c3.61-7,6.45-16.13,0-22.46,2.84-7.68,4.84-17.65-3-22.87.18-10.12-5.11-16.57-12.81-19.27-7.27-2.56-15.21-1.75-20.81,4.84l5.41,2.55c.79,6.89,3.23,13.59,9.53,17.07-2.56,8-1.13,14.62,6.92,18.29-4.43,8-4.84,17,1.13,24.3-2.69,6.69-1.61,12.29,2.83,17.92-4.67,5.58-1.91,13.47,3.34,17.75a13.86,13.86,0,0,0-4.05,11.16,9.44,9.44,0,0,0,8.8,9.12c-2.5-2-2.75-3.34-1.45-7.15s3.57-8.33,0-12.52c3.5-6,6.87-12.91,2.68-19.23C838.52,170.51,841,163.77,837,157.35Z" fill="#17252a"/><path d="M803.56,99.17c1.92-3.22,6.15-2,9.68,1s6.76,8.06,4.84,10.79C814.81,115.6,801.72,102.39,803.56,99.17Z" fill="#3aafa9"/><path d="M747.62,196.37c-13.51,1-24.2,4.84-36.32,16.52-17.74,17.12-53.67,51.62-52,68.16l31.33-1.28L741.49,249Z" fill="#17252a"/><path d="M790.66,188l27.84,8.72c4.84,1.61,22.84,12.66,16.54,39.84-2.1,9-4.94,21.62-7.5,34.23-2,9.68,5.24,28.19,11.06,57.72,0,0-23.87,19-71.32,13.64-36.2-4.09-40.13-17.64-40.13-17.64,1-33.7,4-46.78,3.93-59.52,0,0-5.29-6.46-5.52-17.91-.24-12,2.92-18.47,13.7-32.1A230.38,230.38,0,0,1,759,193.05Z" fill="#3aafa9"/><path d="M739.18,229.93c-8.37,19.06-2.71,127.86-3.47,119.69,0,0-15.58-6-17.05-11.29,0-19.58,3.61-58.94,3.84-72.4.26-15.47-.89-25.81,3-35.71,2.89-7.33,14.78-25.56,22.07-33.88,3.74-1.41,7.14-1.89,11.29-3.39C751.26,199.68,742.36,218.49,739.18,229.93Z" fill="#3aafa9"/><path d="M739.18,229.93c-8.37,19.06-2.71,127.86-3.47,119.69,0,0-15.58-6-17.05-11.29,0-19.58,3.61-58.94,3.84-72.4.26-15.47-.89-25.81,3-35.71,2.89-7.33,14.78-25.56,22.07-33.88,3.74-1.41,7.14-1.89,11.29-3.39C751.26,199.68,742.36,218.49,739.18,229.93Z" fill="#17252a"/><path d="M769.67,194.06c-5.28,3.62-28.86,19.83-33.54,51.38,0-13.92,5.23-30.95,10.2-39,6.06-9.84,14.11-19,23.15-21.71Z" fill="#2b7a78"/><path d="M802.89,187.87s.09,1.87-.15,7.79-11,49.62-11.18,71a696.29,696.29,0,0,0,5.18,86.24S831.29,356,844,338.83c0,0-4.58-21.44-8.84-47.54-2.53-15.45,4.84-50.77,2.23-73.16-1.11-9.34-.47-17.74-7.49-19.94-5.79-1.82-15-4.26-15-4.26Z" fill="#3aafa9"/><path d="M802.89,187.87s.09,1.87-.15,7.79-11,49.62-11.18,71a696.29,696.29,0,0,0,5.18,86.24S831.29,356,844,338.83c0,0-4.58-21.44-8.84-47.54-2.53-15.45,4.84-50.77,2.23-73.16-1.11-9.34-.47-17.74-7.49-19.94-5.79-1.82-15-4.26-15-4.26Z" fill="#17252a"/><path d="M829.92,198.34c13.65,3.47,18,10.26,23.36,21.42s22.1,56.25,26.2,66,2.37,24.53-1.34,27.61-35.3-26.65-35.3-26.65l-21.73-39.86S812.89,210.31,829.92,198.34Z" fill="#17252a"/><path d="M801.47,182.21c2.64-.13,3.34,1.5,6.84,5.48A51.22,51.22,0,0,0,814.9,194c-3.22,19.68-18.73,44.2-23.15,67.3-.19-18.7,6.12-44.59,10.85-73.16Z" fill="#2b7a78"/><path d="M768.69,166.64c-1.62-3.23-3-6.92-5.65-9.55s-6-3.92-9-6l-9.68-6.45c-11.63-6.75-10.54-22.2-7.39-30.15,7-17.75,26.68-23.88,38.72-24.2,22.86-.49,33.87,5.77,35.76,17.66A15,15,0,0,1,824,114.44c5.55,7.67,4.84,19.35,2.33,27.63-3.94,12.91-8.16,17.08-13.46,21.54a37.46,37.46,0,0,0-11.19,14.24Z" fill="#17252a"/><path d="M807.66,167.17c4.11.74,7.37-1.32,9.84-4.08,5.5-6.11,6-12.31,3.37-16.42-2.14-3.37-7.37-5.52-11-3.23-3.9,2.49-4,4.49-5.48,7.26s-7.18,2.58-8.61-8.6c-1.34-10.42-3-20-8.07-24.65-7.66-7-16.13-5.79-19.15-1.61-3.15-4.84-7.89-6.79-13.08-4s-9.12,10.62-10.79,30.43c-1.71,20.18,3.11,32.73,7.75,36.1,3.52,2.55,7.46,3.69,15,4l-.23,13.39c-5.93,8.49,19.1,15.39,33.72,2.21l1.69-9.85.1-24.2A6.43,6.43,0,0,0,807.66,167.17Z" fill="#fff"/><path d="M767.41,182.42a70.88,70.88,0,0,0,21.51-4.12c2.51-1,6-5.45,8.82-10.43,0,0-2.15,9.88-7.6,13.18-8.29,5-22.81,5.43-22.81,5.43Z" fill="#def2f1"/><path d="M788.3,152.67c-1.74,0-8.29-1.73-15.39-4.34-8.23-3-7.22-4.13-14.77-2.11a131.6,131.6,0,0,0-14.83,5.08c-.37,21.23,5.94,28.26,12.49,30.91,3.61,1.45,21.18,3.22,32.94-2.78s11.53-23.49,11.53-28.29C798.26,152.27,792.56,152.59,788.3,152.67ZM776,171.3c-4.31,3.71-18.07,2.58-22-1-3.34-3-3.73-12.07-2.6-15.52,3.1-3.36,19.47-3.08,26.65,1.87C779.3,160.3,778.75,168.88,776,171.3Z" fill="#2b7a78"/><path d="M805.16,149.1c-3.47,3.23-14.2,6-25,2.46-12.19-4-13.32-5.62-20.42-4.7-4.84.63-10.65,3.23-16.39,4.44a4.61,4.61,0,0,1,.15-2.44s3.85-.87,10.38-3c6-1.92,8.41-3.23,15.35-.66s14.24,5,19.55,5.22c10,.34,16.29-5.18,18.76-5.13A13.39,13.39,0,0,0,805.16,149.1Z" fill="#17252a"/><path d="M794.71,174.3l8.14-3.39a7.5,7.5,0,0,0,0-4.35l-5.14,2.13A31.16,31.16,0,0,1,794.71,174.3Z" fill="#17252a"/><path d="M776,171.3c-4.31,3.71-18.07,2.58-22-1-3.34-3-3.73-12.07-2.6-15.52,3.1-3.36,19.47-3.08,26.65,1.87C779.3,160.3,778.75,168.88,776,171.3Z" fill="#3aafa9" opacity="0.2" style="isolation:isolate"/><path d="M752.49,155.36c-1.11,3.46-.74,12.55,2.61,15.52a3.58,3.58,0,0,0,.87.63,7.56,7.56,0,0,1-2-1.24c-3.36-3-3.75-12.07-2.63-15.5,3-3.23,18.68-3.12,26.11,1.5C769.72,152.27,755.46,152.25,752.49,155.36Z" opacity="0.2" style="isolation:isolate"/><path d="M767.28,175.53H765.8a.18.18,0,0,1-.18-.18v0a.2.2,0,0,1,.19-.19h3.12a.2.2,0,0,1,.19.19.19.19,0,0,1-.19.2h0C768.36,175.51,767.85,175.53,767.28,175.53Zm-4.6-.26h0c-1.12-.11-2.17-.27-3.11-.45a.22.22,0,0,1-.16-.23.21.21,0,0,1,.24-.16c.92.19,2,.34,3.07.47a.18.18,0,0,1,.18.17s0,0,0,0a.18.18,0,0,1-.21.16Zm9.38-.1a.21.21,0,0,1-.2-.16.19.19,0,0,1,.16-.22h0a18.32,18.32,0,0,0,3-.76.19.19,0,0,1,.2.32.11.11,0,0,1-.08,0,16.16,16.16,0,0,1-3.06.78ZM756.57,174h0a11.62,11.62,0,0,1-2.81-1.48.21.21,0,0,1,0-.28h0a.18.18,0,0,1,.25,0h0a10.79,10.79,0,0,0,2.71,1.42.2.2,0,0,1,.13.24.21.21,0,0,1-.13.13Zm21.26-1.07a.22.22,0,0,1-.16,0,.18.18,0,0,1,0-.25h0a6.73,6.73,0,0,0,.76-.75,5.34,5.34,0,0,0,.9-1.72.21.21,0,0,1,.26-.13.18.18,0,0,1,.11.24,5.45,5.45,0,0,1-1,1.86,5,5,0,0,1-.81.79l-.08,0Zm-26-2.77a.21.21,0,0,1-.17-.1,17,17,0,0,1-1.26-2.9.19.19,0,0,1,.13-.24h0a.18.18,0,0,1,.24.11,16.58,16.58,0,0,0,1.23,2.84.18.18,0,0,1,0,.25h0Zm28.41-2.84h0a.17.17,0,0,1-.16-.19v0c.13-1,.23-2,.28-3.11a.2.2,0,0,1,.19-.18h0a.18.18,0,0,1,.18.17v0a23.19,23.19,0,0,1-.28,3.13.21.21,0,0,1-.21.16Zm-30.41-3.06a.2.2,0,0,1-.19-.17c-.18-.93-.32-1.95-.45-3.11a.19.19,0,0,1,.19-.19.21.21,0,0,1,.2.19c.12,1.15.27,2.15.45,3.08a.22.22,0,0,1-.16.23ZM780.49,161a.2.2,0,0,1-.19-.19,21.23,21.23,0,0,0-.26-3.09v-.11a.19.19,0,0,1,.18-.21h0a.19.19,0,0,1,.21.18h0a20.45,20.45,0,0,1,.27,3.13.19.19,0,0,1-.17.21h0Zm-31.36-3a.2.2,0,0,1-.19-.2v-.93a8.38,8.38,0,0,1,.24-2.23.2.2,0,0,1,.23-.15h0a.19.19,0,0,1,.13.24h0a8.47,8.47,0,0,0-.22,2.13v.92a.22.22,0,0,1-.2.21Zm29.62-2.79h-.11a12.57,12.57,0,0,0-2.71-1.44.17.17,0,0,1-.12-.22v0a.19.19,0,0,1,.24-.12h0a14.14,14.14,0,0,1,2.81,1.46.19.19,0,0,1,0,.28h0a.16.16,0,0,1-.13.06Zm-27.33-2.47a.18.18,0,0,1-.17-.11.19.19,0,0,1,.06-.25h0a20.71,20.71,0,0,1,2.28-.71l.77-.18a.2.2,0,0,1,.23.16h0a.22.22,0,0,1-.15.23,5,5,0,0,0-.74.18,19.23,19.23,0,0,0-2.24.67Zm21.64,0H773a20.59,20.59,0,0,0-3-.74.21.21,0,0,1-.15-.23.21.21,0,0,1,.23-.16,24.71,24.71,0,0,1,3.05.76h0a.2.2,0,0,1,.14.19.19.19,0,0,1-.19.15Zm-6.15-1.19h0c-1-.1-2-.17-3.11-.21a.2.2,0,0,1-.2-.2.21.21,0,0,1,.2-.19h0a31.21,31.21,0,0,1,3.13.21.19.19,0,0,1,.17.21h0a.17.17,0,0,1-.17.18Zm-9.39,0a.2.2,0,0,1-.19-.18.19.19,0,0,1,.17-.21h0c1-.1,2-.15,3.22-.16h0a.18.18,0,0,1,.2.16h0a.21.21,0,0,1-.2.21,18.48,18.48,0,0,0-3.11.17Z" fill="#fafafa"/><path d="M757.43,218.29c-.89-3.22,1.4-8.06,5.66-3.56s19.63,23,22.91,25.05,7.46,1.71,12.08,4.26,12.39,10.79,17.26,12.23a26.21,26.21,0,0,1,12.24,6.79c4.41,4.05,13.09,7.81,21,12,9.06,4.84,16.35,6.45,22,11.57S884,310,876.19,315.31s-22.44,2.91-33.12-4.95c-7.29-5.34-10.65-10.31-20.7-21-4.68-5-8.29-8.84-9.53-10-3.9-3.48-7.15-2.38-12.71-2.66s-14.78-2.18-17.75-4.08a27.21,27.21,0,0,1-8.45-10.08c-1-2.82,3.34-4.94,3.34-4.94l-.68-6.29s-11.08-11.61-17.23-19.26a25.37,25.37,0,0,1-5.4-9.68,3.23,3.23,0,0,1,2.14-4A3.32,3.32,0,0,1,757.43,218.29Z" fill="#fff"/><path d="M778.17,267.55c2.07.9,3.79-.38,3.05-1.81l.89,1.47c-.29,1.27-1.81,1.5-1.49,2.9s2.57,2.94,2.73,3.05a6.33,6.33,0,0,1-1-.52,28.25,28.25,0,0,1-6.87-7.22A6.52,6.52,0,0,0,778.17,267.55Z" fill="#def2f1"/><path d="M756.76,220.39c-1.48-1.32-2.4-.52-2.61-.29a3,3,0,0,1,3.23-1.81,55,55,0,0,0,3.37,5c2.47,3.39,12.58,15.52,14.52,16.54s7.92-.54,12.56.85l.88.31h0c-6-.24-9.68.13-11.09,1.61s-1.53,4.73-1.09,8.76c-2.23-2.85-1.89-9.21-1.89-9.21a182.71,182.71,0,0,1-12.34-13.76C759.12,223.91,758.44,221.89,756.76,220.39Z" fill="#def2f1"/><path d="M774.35,227.52l1.06,1.21c-1.61,3.94-6.64,10.39-8.06,12.68-2.81-3.13-5.78-6.45-8.07-9.34a39,39,0,0,1-3.58-5.23,2,2,0,0,1-.23-.4c1.81-2.58,7-8.86,8.55-10.65C766.4,218.36,770.36,223,774.35,227.52Z" fill="#def2f1"/><path d="M779.88,264a7.31,7.31,0,0,1,1.49,2.24c.16.39-.15,1.37,0,1.76a3,3,0,0,0,1.79,1.89,3.22,3.22,0,0,0,4.38-1.27,3.78,3.78,0,0,0,.17-.35c1.12,2,2.62,2.57,4,4.18s4.52,1.61,5-.6a8.53,8.53,0,0,0,0-3.34,22.17,22.17,0,0,0-.76-2.35,12.15,12.15,0,0,0,1.36,1.42c3.87,3.47,7.82,4.27,9.42,5.87-.31-2.14-4.84-3.52-7.57-5.68a12.37,12.37,0,0,1-4.5-8.6,6.31,6.31,0,0,1,.45-2.61l-1.61,2.78s-.82-2.26-2.1-2.89c.71,1.72,1.62,4.14,1,5.87a5.53,5.53,0,0,1-1.61,2.42,3.78,3.78,0,0,1,4.3,2.39c1.52,2.88.71,4.92-.66,5.14s-2-.79-2.77-1.61c-1.25-1.18-2.7-2.36-2.7-2.36-1.76-2-1.61-2.12-2-3.53a56.16,56.16,0,0,1-1-6.45,5.45,5.45,0,0,1,1.85-3.57c1.28-1.3,3.41-3.22,3.41-3.22a7.86,7.86,0,0,1-4.3-.24,5.79,5.79,0,0,1-2.22-2.78,11.58,11.58,0,0,1-.19,3.11c-.34,1.09-1,3.36-2.38,3.89,1.62.13,2,1.26,2.47,2.34s1.86,8.62,2.07,9.92a2.27,2.27,0,0,1-2,1.18,2.15,2.15,0,0,1-2-.94A25.82,25.82,0,0,0,779.88,264Z" fill="#def2f1"/><path d="M785.06,250a5.21,5.21,0,0,1-.71,4.94,5,5,0,0,1,1.26,2.34,9,9,0,0,1,1.82-2.84,23.77,23.77,0,0,1,2.86-2.44S786.64,253,785.06,250Z" fill="#3aafa9"/><path d="M777.24,257.62a11.49,11.49,0,0,0,1.33,4.39c.8,1.29,2,2.34,2.8,3.7.43.64.79,1.33,1.24,2a2.35,2.35,0,0,0,3.25.72,2.55,2.55,0,0,0,.47-.4,3.2,3.2,0,0,0,.76-2,.21.21,0,0,1,.23-.19h0a.19.19,0,0,1,.18.13,10.17,10.17,0,0,0,3.09,3.4,15.13,15.13,0,0,1,1.78,1.61,2.76,2.76,0,0,0,1.84,1.05,1.5,1.5,0,0,0,1.4-1.29,4,4,0,0,0,0-2.23,9.32,9.32,0,0,0-2.56-3.8h0a.19.19,0,0,1,0-.15l.54-4.35a.15.15,0,0,1,.16-.13h0a.17.17,0,0,1,.12.14,9.28,9.28,0,0,0,1,4,12.26,12.26,0,0,0,2.51,3.34,10.22,10.22,0,0,1-3.79-7.35h.28l-.49,4.37v-.16a9.79,9.79,0,0,1,2.71,4,4.38,4.38,0,0,1,.1,2.46,2.65,2.65,0,0,1-.61,1.13,1.71,1.71,0,0,1-1.24.5,3.21,3.21,0,0,1-2.21-1.17,17.33,17.33,0,0,0-1.7-1.62,10.34,10.34,0,0,1-3.22-3.61h.4a3.7,3.7,0,0,1-.89,2.24,2.69,2.69,0,0,1-4.27-.4c-.47-.65-.83-1.34-1.25-2-.75-1.32-1.93-2.37-2.69-3.76A11.36,11.36,0,0,1,777.24,257.62Z" fill="#3aafa9"/><path d="M781.35,265.66a1.45,1.45,0,0,1-.53,2l-.12.05a2.73,2.73,0,0,1-2.17.1,6.46,6.46,0,0,1-3.23-2.71,6.42,6.42,0,0,0,3.34,2.55,2.58,2.58,0,0,0,2-.15,1.18,1.18,0,0,0,.52-1.58l0,0Z" fill="#3aafa9"/><path d="M814.86,273.58c2.85,2.81,2.14,10,7.55,15.76-4.68-5-8.3-8.84-9.54-9.95-3.37-3-6.26-2.6-10.58-2.62C807.84,275.89,812,270.79,814.86,273.58Z" fill="#def2f1"/><path d="M709.27,248.43c4.44-2.87,5.89-4.05,9.21-6.53a39.75,39.75,0,0,0,7.91-7.47c2.22-3,3.92-4.3,6.08-3.78a9.84,9.84,0,0,0,5,.32c1.51-.37,2.85-.32,5.48,1.42s5.2,2.86,7.66.42,12.2-13.9,15.09-17.82,5.26-4.63,6.58-2.81,0,6,0,6a3.62,3.62,0,0,1,4,2.32c1.34,2.91-.85,7.16-5,12.68s-6.75,9.23-8.07,10.5-2.16,2.39-3.63,3.83c-.65,1.76-9.15,9.14-9.15,9.14a6.62,6.62,0,0,1-.85,6.89,8.57,8.57,0,0,1-4.7,3.44c-.9.34-1.85.64-2.79.93a25.54,25.54,0,0,1-4.84.84,47.76,47.76,0,0,1-9.92-.53c-5.68-.48-11,2.57-15.45,5.78-2.23,1.61-17.67,16.13-25.81,18.52s-23.4,1.61-26.06-3.55-1.19-12.59,6.76-20.86,16.13-10.42,26-13.42C704.16,251.28,706.53,250.2,709.27,248.43Z" fill="#fff"/><path d="M697.77,285.66c3.23-2.92,4.48-5.13,9.44-11s11.45-8,12.08-17.63a12.79,12.79,0,0,1,4.6-9.38h0c1.79-1.77,4-3.22,4.24-3.84.31-.92-.15-3.56.61-4.84-.17,2,1,4.84,1,5.65a54.65,54.65,0,0,1-1.45,6.45c-1,3.78.39,5.26,1.62,5.89a1.14,1.14,0,0,0,1,.08,9.08,9.08,0,0,0,0,2c.27,1.94,1.71,1.91,2.5,1.91s1.95-1.62,3.42-3.1A46.79,46.79,0,0,0,740,254a25.47,25.47,0,0,0,.33,2.75,57.6,57.6,0,0,0,2.77,5.7,4.32,4.32,0,0,1-1.61,5.08,5.2,5.2,0,0,0-.63.61c-1.18.26-2.39.38-3.58.52a47.69,47.69,0,0,1-9.92-.53c-5.68-.49-11,2.56-15.46,5.77C709.76,275.58,703.37,281.47,697.77,285.66Z" fill="#def2f1"/><path d="M756.8,241.33a5,5,0,0,0-.08,1.34c0,.52.22,1.19.24,1.61s-.39,0-.6-.11a5.13,5.13,0,0,1-1.34-1.94,3,3,0,0,1,.41-3.22,75.8,75.8,0,0,0,7.64-8.18c2.23-2.81,7.65-9.13,9.26-12.71a3.63,3.63,0,0,1,4,2.32,1.85,1.85,0,0,0-1.84-.65c-1.37.15-2.58,2.38-4.65,5.34s-6.26,7.57-9.23,10.91a22.91,22.91,0,0,0-3.32,3.9A5,5,0,0,0,756.8,241.33Z" fill="#def2f1"/><path d="M736.52,232.33c-1.37.42-2-.57-3.07-1.45a8.62,8.62,0,0,0,4,.09,6.13,6.13,0,0,1,1.42-.17C737.86,231.22,737.86,231.93,736.52,232.33Z" fill="#def2f1"/><path d="M747.13,243.64a23.1,23.1,0,0,0-1.35-9.68h0a4.28,4.28,0,0,0,4.64-.89h0c-.42.45-2,1.76-2,3.39,0,4.68.84,7.06.77,8.34-.1,2.24-1.76,3.69-.82,5.37s2.16,3.55,4.06,3.08a19.53,19.53,0,0,0,5-3h0c-1.49,1.46-3,2.87-4.42,4.21l-1.62,1.42c-.3.25-.59.53-.9.77h0a6,6,0,0,0-1.32-2.1,45.27,45.27,0,0,0-3.67-4.84,8.1,8.1,0,0,0-1.46-.76A13,13,0,0,0,747.13,243.64Z" fill="#def2f1"/><path d="M750.62,256.62a4.34,4.34,0,0,0-1-1.51l-1.18-1.37c-.39-.47-.78-.94-1.15-1.42s-.66-1-1-1.5a3.09,3.09,0,0,0-2.81-1.54,4.05,4.05,0,0,0-2.32,2.34,6.68,6.68,0,0,0-.81,3.36,8.22,8.22,0,0,0,.86,3.4c.48,1.08,1.22,2.05,1.71,3.23a4.53,4.53,0,0,1,.3,3.55,4.38,4.38,0,0,0-.53-3.44c-.52-1.08-1.29-2-1.84-3.13a8.54,8.54,0,0,1-1-3.56,7.34,7.34,0,0,1,.82-3.62,4.51,4.51,0,0,1,2.71-2.56,3.45,3.45,0,0,1,3.23,1.76c.37.51.61,1.06,1,1.61s.7,1,1.07,1.45l1.08,1.45A4.2,4.2,0,0,1,750.62,256.62Z" fill="#3aafa9"/><path d="M737.31,236.46a31.36,31.36,0,0,1,.66,5.29,11.5,11.5,0,0,1-.26,2.68,11.26,11.26,0,0,1-1,2.5l-2.39,4.76c-.4.79-.8,1.61-1.16,2.38a12.77,12.77,0,0,1-1.22,2.42,2.31,2.31,0,0,1-1.16.91,1.7,1.7,0,0,1-1.42-.39,3.47,3.47,0,0,1-1.52-2.29,11.61,11.61,0,0,1,.69-5.32,33.57,33.57,0,0,0,1-5.17,19.77,19.77,0,0,1-.83-5.24,20,20,0,0,0,1,5.21,9.65,9.65,0,0,1-.32,2.68l-.6,2.6a11.81,11.81,0,0,0-.6,5.14,3.26,3.26,0,0,0,1.37,2,1.3,1.3,0,0,0,1,.29,1.85,1.85,0,0,0,.87-.74,16.86,16.86,0,0,0,1.2-2.31c.37-.82.79-1.61,1.19-2.4l2.49-4.71a12.16,12.16,0,0,0,1-2.41,11.41,11.41,0,0,0,.29-2.61A32.33,32.33,0,0,0,737.31,236.46Z" fill="#3aafa9"/><path d="M733,261.25a2.05,2.05,0,0,1-1-.27,3.57,3.57,0,0,1-1.42-3.87.25.25,0,0,1,.3-.21h0a.27.27,0,0,1,.21.3,3,3,0,0,0,1.17,3.33,1.36,1.36,0,0,0,1.61-.18c1.52-1.39,3-2.94,4.27-4.4a11,11,0,0,0,1.62-2.2.25.25,0,0,1,.3-.2.25.25,0,0,1,.2.3.18.18,0,0,1,0,.1,9.75,9.75,0,0,1-1.75,2.33c-1.34,1.49-2.78,3-4.31,4.46A1.89,1.89,0,0,1,733,261.25Z" fill="#3aafa9"/><path d="M731.81,242a.73.73,0,0,1,.19-.3,3.29,3.29,0,0,1,1.61-1,2.39,2.39,0,0,1,2.52.91c.24.36.52,1-.14.94a4.57,4.57,0,0,1-1-.31,6.58,6.58,0,0,0-1.87-.24,4.07,4.07,0,0,0-.74.2c-.26,0-.5.09-.6,0a.14.14,0,0,1,0-.19Z" fill="#def2f1"/><path d="M741.5,241.9a.92.92,0,0,1,.26-.26,3.23,3.23,0,0,1,1.78-.7,2.33,2.33,0,0,1,2.32,1.33c.18.4.34,1.09-.29.9-.34-.11-.61-.34-.94-.47a5.34,5.34,0,0,0-1.79-.56,4.9,4.9,0,0,0-.76.08c-.14,0-.51,0-.58-.18A.33.33,0,0,1,741.5,241.9Z" fill="#def2f1"/><path d="M740.94,258.43a25.24,25.24,0,0,0-4.84.19l4-4A7.63,7.63,0,0,0,740.94,258.43Z" fill="#3aafa9"/><path d="M728,255.06a9.88,9.88,0,0,1-7.64,7.68c4.84-.2,7.5-2.29,9-5.79A5.78,5.78,0,0,1,728,255.06Z" fill="#3aafa9"/><path d="M141.31,325c-6.13,77.66-12.17,184.71-12.17,184.71-.54,5.91-6.21,31.07-9.06,60.16-3,30.65-5.44,88.18-5.44,88.18s21.46,11.53,38.85,5.74c0,0,18.65-96.79,27.57-133,8.43-34.23,21.63-99.1,21.63-99.1l9,64.19s-1.19,22.14-.53,37.62c.76,18,12.26,104.59,12.26,104.59s23.34,13.74,41.4-.1c0,0,3.13-119.38,3.63-141.06,1-42.51-4-124.88-5.52-179.76Z" fill="#2b7a78"/><path d="M170.6,415.69q-2.41,27.88-5.42,55.78-1.45,13.93-3.05,27.86l-1.61,13.92-.82,7c-.26,2.33-.73,4.62-1.08,6.93-3.07,18.42-7.78,51.88-11.12,70.27s-6.9,36.71-10.69,55q3.63-27.78,7.95-55.45c2.89-18.44,7.39-51.93,10.55-70.32.37-2.31.86-4.6,1.11-6.9l.86-7L159,498.89q1.77-13.89,3.63-27.76Q166.38,443.38,170.6,415.69Z" fill="#17252a"/><path d="M256.62,410.41c1.95,17.36,3,34.81,3.73,52.27s1.42,35,.77,52.4-.87,46.78-1.53,64.17-1.44,34.89-2.49,52.31q-.39-26.17-.16-52.36c.12-17.45.42-46.7.79-64.14l.33-13.1.08-3.23V489l-.33-26.17-.42-26.17C257.18,427.85,256.89,419.14,256.62,410.41Z" fill="#17252a"/><path d="M202.69,431.7l7.58-42.54s21.09-3.06,31.9-12.77c0,0-7,12.82-26.86,17.86l-7.54,37.57,3.92,64.07Z" fill="#17252a"/><path id="freepik--Arm--inject-186" d="M237,186.77c10.87,2.84,20.67,5.71,30.65,21,12.65,19.52,40.33,58.82,42.51,80.41,1.61,15.14-36.51,4.35-36.51,4.35l-27.05-43.44Z" fill="#110f24"/><path id="freepik--chest--inject-186" d="M171.94,181.08c-18.94,4.24-24.63,6.08-33.58,8.18,0,0-16.7,47.23-8.67,80.16,1.84,7.56,8.07,28.44,9.34,44.57,1.05,13.24,1.41,18.87,0,37.73,0,0,25.35,17.75,78.36,12.36,41.6-4.26,46.6-19.76,46.6-19.76s-2.63-56.87-4.53-87.58c-2.5-40.33-17.75-64.53-22.44-70-1.48-.85-29.72-5.11-29.72-5.11Z" fill="#17252a"/><path id="freepik--arm--inject-186-2" data-name="freepik--arm--inject-186" d="M138.36,189.26C118,195.52,116,204.92,114.64,213.6c-1.71,10.89,4.44,31.55,9.33,50.72,6.45,25.47,19.84,49.65,35.79,50.35l11.3-48.17L160.7,234.72S155.41,195.26,138.36,189.26Z" fill="#110f24"/><path d="M162.75,98.45s-6.13.39-10.25,8.06c-2.06,3.86-3.59,10.93,1.62,31.22a82.06,82.06,0,0,0,9.43,22.44,10.08,10.08,0,0,0,5.76,4.71l-.21-15.55-.45-10.84s8.84-7.83,9.68-15.6c1.08-10-2.76-15.73-2.76-15.73Z" fill="#17252a"/><path d="M160.62,98.93c1.61-8.71,12.9-19,34.25-19.87,17.52-.71,27.7,5.43,33.66,15.73s1.8,23.47,1.8,23.47l-55-4.29Z" fill="#17252a"/><path d="M154.89,153.69c8.07,4,11.78-2.31,11.78-2.31l.8,34.91c15.2,21,56.56,13.08,39.83-2.63v-9.84a58.41,58.41,0,0,0,7-.66c7.15-1,11.68-6,13.91-13.75,3.22-11.39,4.74-29.66.67-49.17-.77-3.76-2.35-7.89-5.77-9.68-8.5-4.34-16.51,1.62-28.49,6.16-5,1.86-16.94,2.57-20.09,1,4.1,4.64,1.62,16.52.41,20.26-1.62,5.42-4,8.07-5.13,8.26-4.84,1-5.41-3.23-7.58-5.55s-10.38-4.45-14,3a14.64,14.64,0,0,0,6.27,19.72Z" fill="#fff"/><path d="M177,164.22c1.62,7.9,12.2,13.24,30.32,13.91v-4.31a83.85,83.85,0,0,1-13.22-1.29C185.64,170.91,177,164.22,177,164.22Z" fill="#def2f1"/><path d="M171.09,139.52c0,5.12-.24,23.76,12.29,30.15s31.25,4.52,35.1,3c7-2.81,13.7-10.28,13.31-32.93A143.73,143.73,0,0,0,216,134.29c-8.06-2.16-7-1-15.74,2.25-7.55,2.79-14.52,4.64-16.39,4.63C179.33,141.09,173.23,140.73,171.09,139.52Zm23.68,5.86c7.66-5.28,25.17-5.57,28.39-2,1.2,3.68.79,13.36-2.77,16.54-4.21,3.84-18.88,5-23.46,1.1C194,158.44,193.45,149.31,194.77,145.38Z" fill="#2b7a78"/><path d="M165.88,137.36c3.69,3.35,15.11,6.45,26.68,2.61,13-4.21,14.2-6,21.76-5,5.2.68,11.29,3.37,17.47,4.74a5.06,5.06,0,0,0-.16-2.59s-4.11-.92-11.08-3.23c-6.37-2.06-8.94-3.47-16.34-.71s-15.17,5.36-20.83,5.57c-10.61.35-16.78-5.65-19.36-5.6A35.89,35.89,0,0,0,165.88,137.36Z" fill="#17252a"/><path d="M177,164.22,166.57,160a8.14,8.14,0,0,1,0-4.64l7.24,2.75A33.86,33.86,0,0,0,177,164.22Z" fill="#17252a"/><path d="M194.77,145.38c7.66-5.28,25.17-5.57,28.39-2,1.2,3.68.79,13.36-2.77,16.54-4.21,3.84-18.88,5-23.46,1.1C194,158.44,193.45,149.31,194.77,145.38Z" fill="#3aafa9" opacity="0.2" style="isolation:isolate"/><path d="M222,144c1.18,3.68.79,13.37-2.77,16.53a4.49,4.49,0,0,1-.91.66,7.55,7.55,0,0,0,2.1-1.33c3.57-3.23,4-12.91,2.79-16.52-3.23-3.49-19.89-3.23-27.81,1.61C203.64,140.75,218.92,140.73,222,144Z" opacity="0.2" style="isolation:isolate"/><path d="M206.24,165.53h-1.77a.2.2,0,0,1-.2-.2h0a.2.2,0,0,1,.19-.2h3.34a.21.21,0,0,1,.21.21h0a.19.19,0,0,1-.17.21h-1.6Zm4.84-.26a.22.22,0,0,1-.21-.2.19.19,0,0,1,.16-.22h0a28.93,28.93,0,0,0,3.22-.49.21.21,0,0,1,.24.14v0a.22.22,0,0,1-.17.24,30.5,30.5,0,0,1-3.32.48Zm-10-.13h0a17.68,17.68,0,0,1-3.22-.82.22.22,0,0,1-.12-.28h0a.21.21,0,0,1,.26-.11,18,18,0,0,0,3.23.81.17.17,0,0,1,.17.18s0,0,0,0a.19.19,0,0,1-.2.18h-.11Zm16.51-1.26a.2.2,0,0,1-.2-.13.21.21,0,0,1,.12-.27h0A11.51,11.51,0,0,0,220.4,162a.21.21,0,0,1,.29,0,.18.18,0,0,1,0,.27h0a11.57,11.57,0,0,1-3,1.61ZM195,162.74h-.13a7.69,7.69,0,0,1-.87-.84,6.24,6.24,0,0,1-1-2,.22.22,0,0,1,.13-.26.19.19,0,0,1,.25.11v0a6.49,6.49,0,0,0,1,1.84,7.65,7.65,0,0,0,.82.79.23.23,0,0,1,0,.29.27.27,0,0,1-.13,0Zm27.68-3a.08.08,0,0,1-.09,0,.19.19,0,0,1-.09-.26h0a16.47,16.47,0,0,0,1.3-3,.22.22,0,0,1,.23-.19.21.21,0,0,1,.19.23.16.16,0,0,1,0,.09,16.5,16.5,0,0,1-1.34,3.08.18.18,0,0,1-.18.08Zm-30.18-3a.2.2,0,0,1-.21-.18h0c-.14-1-.24-2.15-.3-3.34a.23.23,0,0,1,.19-.23h0a.23.23,0,0,1,.21.21,31.76,31.76,0,0,0,.29,3.23.23.23,0,0,1-.16.24Zm32.39-3.23h0a.19.19,0,0,1-.16-.22v0c.18-1,.34-2.07.47-3.23a.21.21,0,0,1,.26-.14.2.2,0,0,1,.14.14c-.12,1.23-.29,2.32-.46,3.32a.21.21,0,0,1-.24.18.2.2,0,0,1-.13-.08Zm-32.73-3.39h0a.21.21,0,0,1-.21-.21h0a26.88,26.88,0,0,1,.29-3.35h0a.19.19,0,0,1,.17-.19h.06a.19.19,0,0,1,.18.21v.13a23.2,23.2,0,0,0-.28,3.22.2.2,0,0,1-.26.14h0Zm33.49-3.22h0a.2.2,0,0,1-.19-.2h0v-1a8.6,8.6,0,0,0-.24-2.26.2.2,0,0,1,.13-.25.19.19,0,0,1,.25.14,8.25,8.25,0,0,1,.26,2.37v1a.2.2,0,0,1-.26.14h0Zm-31.57-3a.23.23,0,0,1-.17-.08.21.21,0,0,1,0-.29,14.53,14.53,0,0,1,3-1.61.21.21,0,0,1,.27.11.19.19,0,0,1-.08.26l0,0a14.54,14.54,0,0,0-2.9,1.51.2.2,0,0,1-.15,0Zm29-2.66h0a22.38,22.38,0,0,0-2.37-.74l-.82-.31a.22.22,0,0,1-.17-.25.23.23,0,0,1,.26-.15l.81.18a22.63,22.63,0,0,1,2.42.76.19.19,0,0,1,.12.24h0a.22.22,0,0,1-.21.2Zm-23,0a.21.21,0,0,1-.19-.13.19.19,0,0,1,.11-.25h0a25,25,0,0,1,3.23-.82.24.24,0,0,1,.24.16.25.25,0,0,1-.16.25,23.45,23.45,0,0,0-3.23.8Zm6.54-1.26a.21.21,0,0,1-.21-.19.24.24,0,0,1,.19-.23c1.07-.09,2.19-.17,3.34-.22.11,0,.21,0,.21.19a.21.21,0,0,1-.19.23h0a32.29,32.29,0,0,0-3.33.22Zm10,0h0c-1-.09-2.18-.14-3.32-.17a.2.2,0,0,1-.2-.2h0a.2.2,0,0,1,.2-.2h0a22.87,22.87,0,0,1,3.34.16.24.24,0,0,1,.19.23.3.3,0,0,1-.13,0Z" fill="#fafafa"/><path d="M213,223c-12.49,10.88-25,21.43-36.14,30.66-9.52,7.79-16.25,13.11-19.89,19.35s-6,30-1.61,38.53,27.24,0,36.21-8.91,15.83-25.18,23.2-37,12.79-19.71,19.13-23.05Z" fill="#fff"/><path d="M233.91,242.54l-1.84-1.71c-6.7,2.76-11.3,7.24-16.63,15.21-6.86,10.12-16.25,41.27-27.86,49.88a34,34,0,0,0,4-3.3c9-8.84,15.82-25.19,23.19-37S227.57,245.88,233.91,242.54Z" fill="#def2f1"/><path d="M273.85,242c-1.29,2.15,1.11,5.79,2.76,8.07a64.2,64.2,0,0,0,14.16,12.19c7.08,4.55,13.94,10.83,17.3,18.05s3.22,21-.15,25.82-11.29,3.12-18.41-.23c-9.79-4.61-15.14-11.87-22.45-22.59-7.94-11.66-14-21.58-18.81-27.42S273.85,242,273.85,242Z" fill="#fff"/><path d="M277.14,293.76c-4.63-6.2-16.89-33.72-14.12-38.91s10.39-8.68,12.22-6.76h0c-1.28-2.07-2.34-4.47-1.39-6.05,0,0-30.38,8.07-25.6,13.91s10.87,15.76,18.81,27.42c7.31,10.71,12.66,18,22.45,22.59A77.16,77.16,0,0,1,277.14,293.76Z" fill="#def2f1"/><path d="M282.85,238.07c-4.31.42-7.86,3.05-11.29,5.57s-14.52,10.45-21,10.84S271.38,231.09,282.85,238.07Z" fill="#3aafa9"/><path d="M264.83,227.09c6.65-1.29,11.41,1.61,17.49,2s9.68-.16,13.84,2.39,6,6,.73,7.5-10.26-1.13-15.36-.79-8.5,1.07-14.21,5.73-13.64,12.9-18.35,15.9-7.51.73-7.51.73a18.77,18.77,0,0,1-6,4.69,3,3,0,0,1-3.89-1.69,3.12,3.12,0,0,1-.16-1.63c-2.54.24-4.72-1.08-4.13-4.23s5.55-8.88,5.55-8.88-3,2.5-4.53,3.66c-2.92,2.16-5.92-.2-4.15-4.49s16.62-16.5,22.09-18.45a17.92,17.92,0,0,1,10.58-.24A51.47,51.47,0,0,1,264.83,227.09Z" fill="#fff"/><path d="M230.66,248.09c-4.4,3.6-5.87,4.13-6.8,3.48.59,1.78,2.56,2.33,4.48.91,1.61-1.16,4.53-3.66,4.53-3.66l10.89-11.15S235.25,244.36,230.66,248.09Z" fill="#def2f1"/><path d="M245.12,242c-.86,1.74-4,4.53-6.6,8s-5.73,7.55-7.94,9.24a2.35,2.35,0,0,1-3.31-.3l0-.05c.11,2.27,2,3.22,4.22,3,.39-2.32,3.6-6.34,6.65-10.11s9.05-9.68,8.71-10.6S246,240.28,245.12,242Z" fill="#def2f1"/><path d="M251.75,243.23c1-1.13-.78-2.72-1.49-1.16s.17,1.62-2.11,4.33-6.71,7.32-7.89,9a7.79,7.79,0,0,0-1.61,7.92h0a24.51,24.51,0,0,0,2.82-2.76c-1.38-1.15-1.3-4.24,1.24-7.07S250.78,244.36,251.75,243.23Z" fill="#def2f1"/><path d="M300.1,236.39h0c-1.05,1.62-6.23,1.52-9.68.34s-11-3.22-15.28-2.42-8.66,3.68-13.21,9.49-10.76,12.52-14.52,15-5.34,2.07-5.34,2.07c1,.5,3.45,1.18,7-1.07,4.71-3,12.63-11.29,18.34-15.9s9.12-5.39,14.22-5.73,10.11,2.32,15.35.79C299,238.38,300,237.44,300.1,236.39Z" fill="#def2f1"/><path d="M234.45,240.86a55.34,55.34,0,0,1,12-1.16c7.38-.72,14.31-1.39,15.59-3.23s5.81-6.45,5.9-8.45a4.67,4.67,0,0,0-1.35-3.37,11.56,11.56,0,0,0,2.66-4.19,7.73,7.73,0,0,0-1-5.34,6.45,6.45,0,0,0,2-3.23,5.16,5.16,0,0,0-3.58-6.13,6.19,6.19,0,0,0,2.15-5.58c-.26-2.7-3.71-4.63-8.23-3.62s-13.46,3.62-15.49,2.28-1-8.54-1.3-13.12-3.23-12.22-7.55-11.43c-2.3.42-1.09,7.48-2.2,13.79s-7.13,13.5-10.4,21.29c-1.54,3.68-5.68,8.6-10.62,13.68.87,8.84,9,18,15.17,19.88A31.17,31.17,0,0,1,234.45,240.86Z" fill="#fff"/><path d="M245.09,198.79c-1.25-.81-1.36-3.82-1.33-7.08h0c-.87,3.11-4.84,6.82-3,8.26s7.94-.66,11.91-1.62h0C249.3,199.1,246.18,199.52,245.09,198.79Z" fill="#def2f1"/><path d="M268.53,206.74a5.66,5.66,0,0,0-1.88-1s-4.84,2.42-9.16,4.21C263.73,209.08,266.93,207.74,268.53,206.74Z" fill="#def2f1"/><path d="M268.24,215.07c-2.42,1.72-7.68,4.48-7.68,4.48s5.35-1.3,8.51-2.48A9.48,9.48,0,0,0,268.24,215.07Z" fill="#def2f1"/><path d="M266.54,224.6h0A82.93,82.93,0,0,1,259,230a51.77,51.77,0,0,0,8.63-3.61A4.89,4.89,0,0,0,266.54,224.6Z" fill="#def2f1"/><path d="M266.62,230.6c-2.26,2.87-5.22,5.79-13.42,6.7-7,.77-14.21.8-21.13,3.5a35.05,35.05,0,0,0-4,2h.23c6.59-2.33,11.63-2.58,18.13-3.22,7.37-.73,14.31-1.39,15.58-3.23.86-1.26,3.23-3.69,4.63-5.79Z" fill="#def2f1"/><path d="M255.43,209.71a11.85,11.85,0,0,0-1.36,1.29,6.33,6.33,0,0,1-1.72,1.13,5.18,5.18,0,0,1-1.15.32c-.32,0-1.77.13-2,.17a1.55,1.55,0,0,0-.75.27v.23a3.3,3.3,0,0,0,1.31.3c.47.08.94.14,1.42.18a4.24,4.24,0,0,0,2-.53,4.93,4.93,0,0,0,1.39-1.45,4.7,4.7,0,0,0,.82-1.89S255.43,209.63,255.43,209.71Z" fill="#def2f1"/><path d="M258.31,219.17a15.15,15.15,0,0,0-1.37,1.29,6.29,6.29,0,0,1-1.72,1.12,5.23,5.23,0,0,1-1.15.34c-.31,0-1.77.13-2,.16a1.56,1.56,0,0,0-.74.28.13.13,0,0,0,0,.2h0a3.19,3.19,0,0,0,1.32.31c.49,0,.94.19,1.42.19a4.34,4.34,0,0,0,2-.55,4.48,4.48,0,0,0,1.39-1.45,4.58,4.58,0,0,0,.83-1.87S258.33,219.17,258.31,219.17Z" fill="#def2f1"/><path d="M259.1,227.38a11.72,11.72,0,0,0-1.35,1.29A5.88,5.88,0,0,1,256,229.8a4.52,4.52,0,0,1-1.14.33c-.32,0-1.78.13-2,.17a1.45,1.45,0,0,0-.74.27v.23a3.47,3.47,0,0,0,1.31.29,11.26,11.26,0,0,0,1.42.19,4.39,4.39,0,0,0,2-.53,5,5,0,0,0,1.39-1.47,4.56,4.56,0,0,0,.82-1.87S259.12,227.38,259.1,227.38Z" fill="#def2f1"/></g></g></svg>