<svg xmlns="http://www.w3.org/2000/svg" viewBox="0 0 1020 500"><title>ENABLE UPDATED</title><g id="Layer_3" data-name="Layer 3"><rect x="-0.04" width="1019.15" height="500" fill="#2b7a78"/></g><g id="OBJECTS"><path d="M382.94,209a7.56,7.56,0,0,1-7.55-7.55V141.09a7.55,7.55,0,0,1,15.1,0v60.38A7.55,7.55,0,0,1,382.94,209Z" fill="#3aafa9"/><path d="M368.72,210a7.55,7.55,0,0,1-7.55-7.54v-66.8a7.55,7.55,0,1,1,15.1,0v66.8A7.55,7.55,0,0,1,368.72,210Z" fill="#3aafa9"/><polygon points="333.98 202 347.31 247.43 347.08 284.14 376.72 284.14 376.85 249.13 386.4 207.53 363.73 207.51 333.98 202" fill="#fff"/><path d="M376.72,291.69H347.08a7.55,7.55,0,0,1-7.55-7.6l.23-35.6-13-44.37a7.55,7.55,0,0,1,8.62-9.55l29.07,5.4h22a7.56,7.56,0,0,1,7.35,9.24L384.4,250l-.13,34.18A7.55,7.55,0,0,1,376.72,291.69Zm-22-15.1H369.2l.1-27.49a7.68,7.68,0,0,1,.19-1.66l7.44-32.36-13.2,0a8,8,0,0,1-1.38-.12l-17.67-3.28,9.88,33.64a7.63,7.63,0,0,1,.3,2.17Z" fill="#fff"/><path d="M364,224a7.54,7.54,0,0,1-6.25-3.31l-18.27-26.83a7.55,7.55,0,0,1,9.28-11.16l23,10.11a7.55,7.55,0,0,1-5,14.19l3.54,5.19A7.56,7.56,0,0,1,364,224Z" fill="#3aafa9"/><path d="M349.19,227.53a7.52,7.52,0,0,1-6.24-3.3l-13.83-20.31a7.55,7.55,0,1,1,12.47-8.5l13.84,20.31a7.55,7.55,0,0,1-6.24,11.8Z" fill="#3aafa9"/><path d="M380.11,234.43a7.45,7.45,0,0,1-3.35-.79,7.54,7.54,0,0,1-3.4-10.11l3.89-7.85-22.57-.62a7.55,7.55,0,1,1,.41-15.09l34.38.94A7.55,7.55,0,0,1,396,211.82l-9.14,18.42A7.56,7.56,0,0,1,380.11,234.43Z" fill="#fff"/><path d="M356.88,249.33a3.31,3.31,0,0,1-3.11-2.2c-.08-.22-7.67-22.53,16.6-32.55a3.3,3.3,0,0,1,2.52,6.1c-18.53,7.66-13.14,23.57-12.9,24.24a3.31,3.31,0,0,1-2,4.22A3.49,3.49,0,0,1,356.88,249.33Z" fill="#3aafa9"/><polygon points="761.08 207.19 772.63 248.06 772.4 284.77 802.04 284.77 802.17 249.75 808.26 219.18 801.04 192.71 770.35 190.15 761.08 207.19" fill="#fff"/><path d="M802,292.32H772.4a7.55,7.55,0,0,1-7.55-7.6l.23-35.64-11.27-39.84a7.5,7.5,0,0,1,.64-5.66l9.27-17a7.54,7.54,0,0,1,7.26-3.91l30.69,2.56a7.56,7.56,0,0,1,6.66,5.53l7.21,26.47a7.5,7.5,0,0,1,.12,3.46l-5.94,29.86-.13,34.28A7.56,7.56,0,0,1,802,292.32Zm-22-15.1h14.52l.1-27.49a7,7,0,0,1,.15-1.45l5.74-28.83-5.36-19.66-20.52-1.71-5.45,10L779.9,246a7.89,7.89,0,0,1,.28,2.11Z" fill="#fff"/><path d="M770.87,218.41a7.57,7.57,0,0,1-7.48-6.53L760,187.26a7.55,7.55,0,0,1,15-2l3.36,24.62a7.55,7.55,0,0,1-6.46,8.5A7.23,7.23,0,0,1,770.87,218.41Z" fill="#3aafa9"/><path d="M780.84,221.75a7.56,7.56,0,0,1-7.53-7.12l-2-34.56a7.55,7.55,0,1,1,15.07-.86l2,34.56a7.54,7.54,0,0,1-7.11,8Z" fill="#3aafa9"/><path d="M793.58,216.66a7.53,7.53,0,0,1-7.55-7.54V180.33a7.55,7.55,0,1,1,15.1,0v28.79A7.54,7.54,0,0,1,793.58,216.66Z" fill="#3aafa9"/><path d="M805.37,245.65a7.27,7.27,0,0,1-2.24-.35,7.54,7.54,0,0,1-5-9.45l7.58-24.31-14.45-28.49a7.55,7.55,0,0,1,13.47-6.83l15.84,31.23a7.56,7.56,0,0,1,.47,5.66l-8.5,27.24A7.54,7.54,0,0,1,805.37,245.65Z" fill="#fff"/><path d="M793.83,245.59a3.28,3.28,0,0,1-2.54-1.2c-.15-.18-14.89-18.57,4.51-36.25a3.3,3.3,0,0,1,4.45,4.88c-14.45,13.17-5,25.79-3.85,27.19a3.3,3.3,0,0,1-2.57,5.38Z" fill="#3aafa9"/><path d="M813.86,210.45a7.56,7.56,0,0,1-7.51-6.8l-2.25-22.58a7.55,7.55,0,1,1,15-1.49l2.25,22.57a7.54,7.54,0,0,1-6.75,8.26C814.36,210.43,814.11,210.45,813.86,210.45Z" fill="#3aafa9"/><path d="M55.31,214.72a6,6,0,0,1-.73,0,7.55,7.55,0,0,1-6.79-8.24l2.67-27.62a7.55,7.55,0,1,1,15,1.45L62.82,207.9A7.56,7.56,0,0,1,55.31,214.72Z" fill="#3aafa9"/><polygon points="55.3 207.17 70.41 249.6 70.18 284.14 99.82 284.14 99.95 251.2 109.5 212.07 103.1 179.55 55.3 207.17" fill="#3aafa9"/><path d="M99.82,291.69H70.18a7.56,7.56,0,0,1-7.55-7.6l.22-33.21L48.19,209.7a7.55,7.55,0,0,1,3.34-9.07L99.32,173a7.55,7.55,0,0,1,11.19,5.08l6.4,32.52a7.58,7.58,0,0,1-.07,3.25l-9.34,38.26-.13,32.05A7.55,7.55,0,0,1,99.82,291.69Zm-22-15.1H92.3l.1-25.42a7.44,7.44,0,0,1,.22-1.76l9.15-37.51-4-20.53L64.52,210.56l13,36.51a7.39,7.39,0,0,1,.44,2.59Z" fill="#3aafa9"/><path d="M115.13,228.63a7.56,7.56,0,0,1-6.93-10.55l6.16-14.24-13.58-41.16A7.55,7.55,0,0,1,115.12,158l14.48,43.88a7.62,7.62,0,0,1-.24,5.36l-7.3,16.88A7.55,7.55,0,0,1,115.13,228.63Z" fill="#fff"/><path d="M115.13,221.08,100,251.2l-.13,32.94H69.29V249.6S82.4,213.57,115.13,221.08Z" fill="#fff"/><path d="M99.82,291.69H69.29a7.55,7.55,0,0,1-7.55-7.55V249.6A7.35,7.35,0,0,1,62.2,247c.51-1.41,12.92-34.52,44.18-34.52a46.79,46.79,0,0,1,10.44,1.22,7.56,7.56,0,0,1,5.05,10.76L107.49,253l-.12,31.16A7.55,7.55,0,0,1,99.82,291.69Zm-23-15.1H92.3l.1-25.42a7.6,7.6,0,0,1,.81-3.37l10.09-20c-16.19,1.94-24.51,18.77-26.46,23.29Z" fill="#fff"/><path d="M86.34,211.74h-.28a7.56,7.56,0,0,1-7.27-7.83L80,172.15a7.55,7.55,0,1,1,15.09.56l-1.18,31.76A7.54,7.54,0,0,1,86.34,211.74Z" fill="#fff"/><path d="M100,210.32l-.63,0a7.56,7.56,0,0,1-6.91-8.14l2.13-25.95a7.55,7.55,0,1,1,15,1.23l-2.12,25.95A7.54,7.54,0,0,1,100,210.32Z" fill="#fff"/><path d="M73.91,211.74a7.54,7.54,0,0,1-7.53-7.17L64.91,175A7.54,7.54,0,1,1,80,174.22l1.48,29.6a7.54,7.54,0,0,1-7.16,7.91Z" fill="#fff"/><path d="M66.29,210.33a7.56,7.56,0,0,1-7.11-5l-8.31-23.23A7.55,7.55,0,0,1,65.09,177l8.3,23.23a7.57,7.57,0,0,1-7.1,10.1Z" fill="#fff"/><path d="M505.64,230.25a7.54,7.54,0,0,1-7.45-6.36c-4.87-30.62,6.89-45.72,17.61-53,15.36-10.42,36.62-9.75,43.08-5.92a7.55,7.55,0,0,1-7.4,13.16c-2.74-.92-18.39-2-29.06,6.64-8.92,7.24-12,19.6-9.32,36.75a7.55,7.55,0,0,1-6.26,8.64A8.28,8.28,0,0,1,505.64,230.25Z" fill="#3aafa9"/><path d="M505.45,217.39A7.57,7.57,0,0,1,498,211c-2.26-14.71.6-26.84,8.49-36,13.94-16.24,38.38-16.43,39.42-16.43a7.55,7.55,0,0,1,0,15.1c-.32,0-18.7.28-28,11.21-4.87,5.71-6.54,13.73-5,23.86a7.56,7.56,0,0,1-6.31,8.61A7.65,7.65,0,0,1,505.45,217.39Z" fill="#3aafa9"/><path d="M508.47,203.92l-3.63,4.3-3.29,29-16,46.88h35.86l11.39-34.61,19.41-18.41S520.09,249.72,508.47,203.92Z" fill="#fff"/><path d="M521.37,291.69H485.51a7.55,7.55,0,0,1-7.14-10l15.77-46.09,3.2-28.22a7.51,7.51,0,0,1,1.73-4l3.63-4.3a7.56,7.56,0,0,1,13.09,3c4.25,16.75,11.57,25.24,21.78,25.24a24.83,24.83,0,0,0,10.81-2.72,7.55,7.55,0,0,1,9,12l-18,17.1-10.8,32.8A7.56,7.56,0,0,1,521.37,291.69Zm-25.3-15.1H515.9l9.69-29.42a7.51,7.51,0,0,1,2-3.12l2.63-2.5c-6.34-1.51-13.73-5.37-19.91-14.35l-1.24,10.91a7.27,7.27,0,0,1-.36,1.6Z" fill="#fff"/><path d="M515.82,229.12a7.54,7.54,0,0,1-5.83-2.76L499,213a7.55,7.55,0,0,1-1.55-6.4c3-13.69,9.77-23.69,20.15-29.72a42.85,42.85,0,0,1,9-3.88l.64-.2c17.18-5,34.85.39,35.73.67a7.55,7.55,0,0,1-4.5,14.41c-.21-.07-14-4.2-26.55-.72-8.18,4.35-12.13,10.5-12.06,18.78a31.56,31.56,0,0,0,2.74,12.23,7.55,7.55,0,0,1-6.75,10.93Z" fill="#fff"/><path d="M563.74,221s-12.18,16.24-29.7,14.54" fill="#f6bc9f"/><path d="M536.64,243.24c-1.09,0-2.2-.05-3.33-.16a7.55,7.55,0,0,1,1.46-15c12.92,1.25,22.83-11.43,22.93-11.56a7.55,7.55,0,0,1,12.08,9.06C569.21,226.32,556.28,243.24,536.64,243.24Z" fill="#fff"/><polygon points="194.97 219.7 208.83 247.43 208.6 284.14 238.24 284.14 238.37 249.12 247.18 208.69 199.97 192.31 194.97 219.7" fill="#fff"/><path d="M238.24,291.69H208.6a7.56,7.56,0,0,1-7.55-7.6l.22-34.9-13.05-26.11a7.58,7.58,0,0,1-.68-4.73l5-27.4a7.56,7.56,0,0,1,9.91-5.77l47.21,16.38a7.56,7.56,0,0,1,4.9,8.74L245.92,250l-.13,34.21A7.56,7.56,0,0,1,238.24,291.69Zm-22-15.1h14.52l.1-27.5a6.94,6.94,0,0,1,.18-1.57l7.38-33.89-32.57-11.3-3,16.25,12.73,25.47a7.41,7.41,0,0,1,.8,3.42Z" fill="#fff"/><path d="M221.51,225.1a7.55,7.55,0,0,1-7.29-5.6l-8.4-31.36a7.55,7.55,0,0,1,14.58-3.91l8.4,31.36a7.55,7.55,0,0,1-5.33,9.25A7.39,7.39,0,0,1,221.51,225.1Z" fill="#3aafa9"/><path d="M227.56,222.36h-.13a7.54,7.54,0,0,1-7.42-7.67l.55-32.46a7.54,7.54,0,0,1,7.54-7.42h.14a7.55,7.55,0,0,1,7.42,7.67l-.56,32.46A7.53,7.53,0,0,1,227.56,222.36Z" fill="#3aafa9"/><path d="M206.32,223.6A7.55,7.55,0,0,1,199,218l-6.36-23.74a7.55,7.55,0,0,1,14.58-3.91l6.36,23.74a7.55,7.55,0,0,1-5.34,9.25A7.76,7.76,0,0,1,206.32,223.6Z" fill="#3aafa9"/><path d="M242.78,211.72a7.54,7.54,0,0,1-7.54-7.32l-1.69-57.76a7.55,7.55,0,0,1,15.1-.44L250.33,204a7.55,7.55,0,0,1-7.33,7.76Z" fill="#3aafa9"/><path d="M218.4,249.33a3.31,3.31,0,0,1-3.11-2.2c-.08-.23-7.67-22.53,16.59-32.55a3.3,3.3,0,0,1,2.53,6.1c-18.53,7.65-13.14,23.57-12.9,24.24a3.29,3.29,0,0,1-2,4.22A3.22,3.22,0,0,1,218.4,249.33Z" fill="#3aafa9"/><path d="M230.69,257.27A7.56,7.56,0,0,1,225,244.71l15.05-17,1.65-10-14.94-1.51a7.55,7.55,0,0,1,1.52-15l22.94,2.33a7.54,7.54,0,0,1,6.69,8.74l-3.32,20.12a7.61,7.61,0,0,1-1.8,3.78l-16.5,18.58A7.52,7.52,0,0,1,230.69,257.27Z" fill="#fff"/><polygon points="620.24 220.33 634.11 248.06 633.87 284.77 663.51 284.77 663.64 249.75 666.21 218.44 668.8 186.82 628.48 186.82 620.24 220.33" fill="#fff"/><path d="M663.51,292.32H633.87a7.56,7.56,0,0,1-7.55-7.6l.22-34.9-13-26.11a7.55,7.55,0,0,1-.58-5.18L621.15,185a7.55,7.55,0,0,1,7.33-5.75H668.8a7.56,7.56,0,0,1,7.53,8.17l-5.14,62.64-.13,34.71A7.55,7.55,0,0,1,663.51,292.32Zm-22-15.1H656l.1-27.5a5.63,5.63,0,0,1,0-.58l4.49-54.77H634.4l-6.16,25.07,12.62,25.24a7.67,7.67,0,0,1,.8,3.42Z" fill="#fff"/><path d="M642.63,214.88a7.55,7.55,0,0,1-7.55-7.55V175.74a7.55,7.55,0,1,1,15.1,0v31.59A7.55,7.55,0,0,1,642.63,214.88Z" fill="#3aafa9"/><path d="M654,213.12l-.65,0a7.55,7.55,0,0,1-6.88-8.16L649,175.09a7.55,7.55,0,0,1,15,1.29l-2.55,29.84A7.56,7.56,0,0,1,654,213.12Z" fill="#3aafa9"/><path d="M630.17,214.28a7.54,7.54,0,0,1-7.5-6.91l-2.08-24.22a7.55,7.55,0,0,1,15-1.29l2.07,24.23a7.54,7.54,0,0,1-6.87,8.16Q630.5,214.28,630.17,214.28Z" fill="#3aafa9"/><path d="M668.81,210.05h-.44a7.56,7.56,0,0,1-7.11-8l1.26-21.88a7.55,7.55,0,1,1,15.07.86l-1.25,21.88A7.55,7.55,0,0,1,668.81,210.05Z" fill="#3aafa9"/><path d="M644.62,247.13a3.31,3.31,0,0,1-3.11-2.2c-.08-.23-7.68-22.54,16.59-32.55a3.3,3.3,0,1,1,2.53,6.1c-18.54,7.65-13.14,23.57-12.9,24.24a3.31,3.31,0,0,1-2,4.22A3.27,3.27,0,0,1,644.62,247.13Z" fill="#3aafa9"/><path d="M662.66,259.79A7.56,7.56,0,0,1,657,247.23L671.41,231l-.86-13H659.36a7.55,7.55,0,0,1,0-15.1H677.6a7.56,7.56,0,0,1,7.54,7l1.54,23.24a7.51,7.51,0,0,1-1.88,5.51l-16.49,18.59A7.56,7.56,0,0,1,662.66,259.79Z" fill="#fff"/><path d="M896.65,215.35a6.12,6.12,0,0,1-.74,0,7.55,7.55,0,0,1-6.79-8.24l2.68-27.62a7.55,7.55,0,1,1,15,1.45l-2.68,27.63A7.55,7.55,0,0,1,896.65,215.35Z" fill="#3aafa9"/><polygon points="896.64 207.8 911.75 250.23 911.51 284.77 941.16 284.77 941.29 251.83 950.84 212.7 944.43 180.18 896.64 207.8" fill="#3aafa9"/><path d="M941.16,292.32H911.51a7.56,7.56,0,0,1-7.55-7.6l.23-33.21-14.66-41.18a7.56,7.56,0,0,1,3.33-9.07l47.8-27.62a7.55,7.55,0,0,1,11.18,5.08l6.4,32.52a7.58,7.58,0,0,1-.07,3.25l-9.34,38.26-.12,32.05A7.56,7.56,0,0,1,941.16,292.32Zm-22-15.1h14.53l.09-25.42A8,8,0,0,1,934,250l9.16-37.51-4-20.53-33.21,19.19,13,36.51a7.87,7.87,0,0,1,.44,2.59Z" fill="#3aafa9"/><path d="M956.46,229.26a7.55,7.55,0,0,1-6.92-10.55l6.16-14.24-13.58-41.16a7.55,7.55,0,0,1,14.33-4.73l14.48,43.88a7.51,7.51,0,0,1-.24,5.36l-7.3,16.88A7.55,7.55,0,0,1,956.46,229.26Z" fill="#fff"/><path d="M956.47,221.71l-15.18,30.12-.13,32.94H910.62V250.23S923.74,214.2,956.47,221.71Z" fill="#fff"/><path d="M941.16,292.32H910.62a7.55,7.55,0,0,1-7.55-7.55V250.23a7.58,7.58,0,0,1,.46-2.58c.51-1.41,12.92-34.52,44.19-34.52a46.77,46.77,0,0,1,10.43,1.22,7.55,7.55,0,0,1,5.06,10.76l-14.38,28.53-.12,31.16A7.56,7.56,0,0,1,941.16,292.32Zm-23-15.1h15.47l.09-25.42a7.74,7.74,0,0,1,.81-3.37l10.1-20c-16.2,1.94-24.51,18.77-26.47,23.29Z" fill="#fff"/><path d="M927.68,212.37h-.29a7.55,7.55,0,0,1-7.26-7.83l1.18-31.76a7.55,7.55,0,1,1,15.08.56l-1.18,31.76A7.54,7.54,0,0,1,927.68,212.37Z" fill="#fff"/><path d="M941.36,211l-.63,0a7.55,7.55,0,0,1-6.9-8.14L936,176.84a7.55,7.55,0,0,1,15,1.23l-2.12,26A7.56,7.56,0,0,1,941.36,211Z" fill="#fff"/><path d="M915.25,212.37a7.55,7.55,0,0,1-7.54-7.17l-1.47-29.6a7.55,7.55,0,0,1,15.08-.75l1.47,29.6a7.54,7.54,0,0,1-7.16,7.91Z" fill="#fff"/><path d="M907.62,211a7.57,7.57,0,0,1-7.11-5l-8.31-23.23a7.55,7.55,0,0,1,14.22-5.09l8.31,23.23a7.58,7.58,0,0,1-7.11,10.1Z" fill="#fff"/><text transform="translate(67.7 363.28)" font-size="49.7" fill="#fff" font-family="Gotham-Black, Gotham Black" font-weight="800">E</text><text transform="translate(204.56 363.28)" font-size="49.7" fill="#fff" font-family="Gotham-Black, Gotham Black" font-weight="800">D</text><text transform="translate(343.27 363.28)" font-size="49.7" fill="#fff" font-family="Gotham-Black, Gotham Black" font-weight="800">U</text><text transform="translate(481.2 363.28)" font-size="49.7" fill="#fff" font-family="Gotham-Black, Gotham Black" font-weight="800">C</text><text transform="translate(628.24 363.28)" font-size="49.7" fill="#fff" font-family="Gotham-Black, Gotham Black" font-weight="800">A</text><text transform="translate(770.2 363.28)" font-size="49.7" fill="#fff" font-family="Gotham-Black, Gotham Black" font-weight="800">T</text><text transform="translate(908.62 363.28)" font-size="49.7" fill="#fff" font-family="Gotham-Black, Gotham Black" font-weight="800">E</text></g></svg>